<?xml version="1.0" encoding="UTF-8"?> <!-- Generator: Adobe Illustrator 24.1.0, SVG Export Plug-In . SVG Version: 6.00 Build 0) --> <svg xmlns="http://www.w3.org/2000/svg" xmlns:xlink="http://www.w3.org/1999/xlink" version="1.1" id="Layer_1" x="0px" y="0px" viewBox="0 0 1087.5 600.8" style="enable-background:new 0 0 1087.5 600.8;" xml:space="preserve"> <style type="text/css"> .st0{fill:#009DFD;} .st1{fill:#8500F2;} .st2{fill:#C0007B;} .st3{fill:#231F20;} .st4{fill:#FFFFFF;} </style> <g> <g> <g> <rect x="79.7" y="108.8" class="st0" width="120.1" height="109.4"></rect> <rect x="246.5" y="108.8" class="st0" width="120.1" height="117"></rect> <rect x="413.3" y="108.8" class="st0" width="120.1" height="199.3"></rect> <rect x="580" y="108.8" class="st0" width="120.1" height="274.1"></rect> <rect x="746.8" y="108.8" class="st0" width="120.1" height="218.8"></rect> </g> </g> <g> <g> <rect x="79.7" y="218.2" class="st1" width="120.1" height="144.4"></rect> <rect x="246.5" y="225.8" class="st1" width="120.1" height="138.7"></rect> <rect x="413.3" y="308.2" class="st1" width="120.1" height="138.7"></rect> <rect x="580" y="382.9" class="st1" width="120.1" height="110.5"></rect> <rect x="746.8" y="327.7" class="st1" width="120.1" height="131.3"></rect> </g> </g> <g> <g> <rect x="79.7" y="362.7" class="st2" width="120.1" height="183.8"></rect> <rect x="246.5" y="364.5" class="st2" width="120.1" height="182"></rect> <rect x="413.3" y="446.8" class="st2" width="120.1" height="99.7"></rect> <rect x="580" y="493.4" class="st2" width="120.1" height="53"></rect> <rect x="746.8" y="458.9" class="st2" width="120.1" height="87.5"></rect> </g> </g> </g> <g> <path class="st3" d="M122.4,75.4h1.8v4.2c-0.5,0.4-1.2,0.8-1.9,1c-0.7,0.2-1.5,0.3-2.2,0.3c-1.1,0-2-0.2-2.9-0.7 c-0.9-0.5-1.5-1.1-2-1.9c-0.5-0.8-0.7-1.7-0.7-2.8s0.2-2,0.7-2.8c0.5-0.8,1.2-1.5,2-1.9c0.9-0.5,1.8-0.7,2.9-0.7 c0.9,0,1.7,0.1,2.4,0.4s1.3,0.7,1.8,1.3l-1.2,1.2c-0.8-0.8-1.8-1.2-2.9-1.2c-0.7,0-1.4,0.2-2,0.5c-0.6,0.3-1,0.7-1.4,1.3 c-0.3,0.6-0.5,1.2-0.5,1.9c0,0.7,0.2,1.3,0.5,1.9c0.3,0.6,0.8,1,1.4,1.3c0.6,0.3,1.2,0.5,2,0.5c0.8,0,1.5-0.2,2.2-0.5V75.4z"></path> <path class="st3" d="M134.7,79.1v1.6h-7.9V70.2h7.7v1.6h-5.7v2.7h5.1v1.6h-5.1v2.9H134.7z"></path> <path class="st3" d="M146.2,70.2v10.5h-1.6l-5.8-7.1v7.1h-1.9V70.2h1.6l5.8,7.1v-7.1H146.2z"></path> <path class="st3" d="M161.3,79.1v1.7h-9v-1.3l6.2-7.5h-6.1v-1.7h8.7v1.3l-6.2,7.5H161.3z"></path> </g> <g> <path class="st3" d="M262.3,80.7l0-7l-3.5,5.8H258l-3.5-5.7v6.9h-1.9V70.2h1.6l4.2,7l4.1-7h1.6l0,10.5H262.3z"></path> <path class="st3" d="M267,70.2h2v10.5h-2V70.2z"></path> <path class="st3" d="M271.8,70.2h2v8.8h5.5v1.7h-7.4V70.2z"></path> <path class="st3" d="M280.7,70.2h2v8.8h5.5v1.7h-7.4V70.2z"></path> <path class="st3" d="M297.6,79.1v1.6h-7.9V70.2h7.7v1.6h-5.7v2.7h5.1v1.6h-5.1v2.9H297.6z"></path> <path class="st3" d="M309.1,70.2v10.5h-1.6l-5.8-7.1v7.1h-1.9V70.2h1.6l5.8,7.1v-7.1H309.1z"></path> <path class="st3" d="M321.3,70.2v10.5h-1.6l-5.8-7.1v7.1h-1.9V70.2h1.6l5.8,7.1v-7.1H321.3z"></path> <path class="st3" d="M324.1,70.2h2v10.5h-2V70.2z"></path> <path class="st3" d="M335.7,78.3h-5.2l-1,2.4h-2l4.7-10.5h1.9l4.7,10.5h-2L335.7,78.3z M335,76.8l-2-4.6l-2,4.6H335z"></path> <path class="st3" d="M340.1,70.2h2v8.8h5.5v1.7h-7.4V70.2z"></path> <path class="st3" d="M349.9,80.5c-0.8-0.2-1.4-0.5-1.8-0.9l0.7-1.5c0.4,0.3,1,0.6,1.6,0.8c0.6,0.2,1.3,0.3,1.9,0.3 c0.8,0,1.4-0.1,1.7-0.4s0.6-0.6,0.6-1c0-0.3-0.1-0.5-0.3-0.7c-0.2-0.2-0.5-0.3-0.8-0.5c-0.3-0.1-0.8-0.2-1.3-0.4 c-0.8-0.2-1.4-0.4-1.9-0.6c-0.5-0.2-0.9-0.5-1.3-0.9c-0.4-0.4-0.5-1-0.5-1.6c0-0.6,0.2-1.1,0.5-1.6c0.3-0.5,0.8-0.9,1.4-1.1 c0.6-0.3,1.4-0.4,2.3-0.4c0.6,0,1.3,0.1,1.9,0.2s1.2,0.4,1.6,0.7l-0.6,1.5c-0.5-0.3-0.9-0.5-1.4-0.6c-0.5-0.1-1-0.2-1.5-0.2 c-0.8,0-1.3,0.1-1.7,0.4c-0.4,0.3-0.6,0.6-0.6,1c0,0.3,0.1,0.5,0.3,0.7c0.2,0.2,0.5,0.3,0.8,0.5s0.8,0.2,1.3,0.4 c0.8,0.2,1.4,0.4,1.9,0.6s0.9,0.5,1.3,0.9c0.4,0.4,0.5,0.9,0.5,1.6c0,0.6-0.2,1.1-0.5,1.6c-0.3,0.5-0.8,0.8-1.4,1.1 c-0.6,0.3-1.4,0.4-2.3,0.4C351.5,80.9,350.7,80.8,349.9,80.5z"></path> </g> <g> <path class="st3" d="M455.3,75.4h1.8v4.2c-0.5,0.4-1.2,0.8-1.9,1c-0.7,0.2-1.5,0.3-2.2,0.3c-1.1,0-2-0.2-2.9-0.7 c-0.9-0.5-1.5-1.1-2-1.9c-0.5-0.8-0.7-1.7-0.7-2.8s0.2-2,0.7-2.8c0.5-0.8,1.2-1.5,2-1.9c0.9-0.5,1.8-0.7,2.9-0.7 c0.9,0,1.7,0.1,2.4,0.4s1.3,0.7,1.8,1.3l-1.2,1.2c-0.8-0.8-1.8-1.2-2.9-1.2c-0.7,0-1.4,0.2-2,0.5c-0.6,0.3-1,0.7-1.4,1.3 c-0.3,0.6-0.5,1.2-0.5,1.9c0,0.7,0.2,1.3,0.5,1.9c0.3,0.6,0.8,1,1.4,1.3c0.6,0.3,1.2,0.5,2,0.5c0.8,0,1.5-0.2,2.2-0.5V75.4z"></path> <path class="st3" d="M467.6,79.1v1.6h-7.9V70.2h7.7v1.6h-5.7v2.7h5.1v1.6h-5.1v2.9H467.6z"></path> <path class="st3" d="M479.1,70.2v10.5h-1.6l-5.8-7.1v7.1h-1.9V70.2h1.6l5.8,7.1v-7.1H479.1z"></path> <path class="st3" d="M492.7,80.7l-2.9-4l-2.8,4h-2.2l3.9-5.4l-3.7-5.1h2.2l2.7,3.7l2.7-3.7h2.1l-3.7,5.1l3.9,5.4H492.7z"></path> </g> <g> <path class="st3" d="M583.2,76.2c0.3,0.4,0.5,1,0.5,1.7c0,0.9-0.4,1.6-1,2.1c-0.7,0.5-1.7,0.7-3.1,0.7h-5.2V70.2h4.9 c1.2,0,2.2,0.2,2.9,0.7s1,1.2,1,2c0,0.5-0.1,1-0.4,1.4c-0.2,0.4-0.6,0.7-1,0.9C582.4,75.5,582.9,75.8,583.2,76.2z M576.4,71.8v2.9 h2.8c0.7,0,1.2-0.1,1.6-0.4s0.5-0.6,0.5-1.1c0-0.5-0.2-0.8-0.5-1.1s-0.9-0.4-1.6-0.4H576.4z M581.8,77.7c0-1-0.8-1.5-2.3-1.5h-3.1 v3h3.1C581,79.2,581.8,78.7,581.8,77.7z"></path> <path class="st3" d="M592.7,78.3h-5.2l-1,2.4h-2l4.7-10.5h1.9l4.7,10.5h-2L592.7,78.3z M592,76.8l-2-4.6l-2,4.6H592z"></path> <path class="st3" d="M605.9,76.2c0.3,0.4,0.5,1,0.5,1.7c0,0.9-0.4,1.6-1,2.1c-0.7,0.5-1.7,0.7-3.1,0.7h-5.2V70.2h4.9 c1.2,0,2.2,0.2,2.9,0.7s1,1.2,1,2c0,0.5-0.1,1-0.4,1.4c-0.2,0.4-0.6,0.7-1,0.9C605.1,75.5,605.6,75.8,605.9,76.2z M599,71.8v2.9 h2.8c0.7,0,1.2-0.1,1.6-0.4s0.5-0.6,0.5-1.1c0-0.5-0.2-0.8-0.5-1.1s-0.9-0.4-1.6-0.4H599z M604.4,77.7c0-1-0.8-1.5-2.3-1.5H599v3 h3.1C603.7,79.2,604.4,78.7,604.4,77.7z"></path> <path class="st3" d="M612.8,77v3.7h-2v-3.7l-4.1-6.8h2.1l3.1,5.1l3.1-5.1h1.9L612.8,77z"></path> <path class="st3" d="M631.1,76.2c0.3,0.4,0.5,1,0.5,1.7c0,0.9-0.4,1.6-1,2.1c-0.7,0.5-1.7,0.7-3.1,0.7h-5.2V70.2h4.9 c1.2,0,2.2,0.2,2.9,0.7s1,1.2,1,2c0,0.5-0.1,1-0.4,1.4c-0.2,0.4-0.6,0.7-1,0.9C630.3,75.5,630.8,75.8,631.1,76.2z M624.3,71.8v2.9 h2.8c0.7,0,1.2-0.1,1.6-0.4s0.5-0.6,0.5-1.1c0-0.5-0.2-0.8-0.5-1.1s-0.9-0.4-1.6-0.4H624.3z M629.7,77.7c0-1-0.8-1.5-2.3-1.5h-3.1 v3h3.1C628.9,79.2,629.7,78.7,629.7,77.7z"></path> <path class="st3" d="M635.7,80.2c-0.9-0.5-1.5-1.1-2-1.9c-0.5-0.8-0.7-1.7-0.7-2.8s0.2-1.9,0.7-2.8c0.5-0.8,1.2-1.5,2-1.9 c0.9-0.5,1.8-0.7,2.9-0.7c1.1,0,2,0.2,2.9,0.7c0.9,0.5,1.5,1.1,2,1.9c0.5,0.8,0.7,1.7,0.7,2.8s-0.2,2-0.7,2.8 c-0.5,0.8-1.2,1.5-2,1.9c-0.9,0.5-1.8,0.7-2.9,0.7C637.6,80.9,636.6,80.6,635.7,80.2z M640.5,78.7c0.6-0.3,1-0.8,1.3-1.3 c0.3-0.6,0.5-1.2,0.5-1.9s-0.2-1.3-0.5-1.9c-0.3-0.6-0.8-1-1.3-1.3c-0.6-0.3-1.2-0.5-1.9-0.5c-0.7,0-1.3,0.2-1.9,0.5 c-0.6,0.3-1,0.8-1.3,1.3c-0.3,0.6-0.5,1.2-0.5,1.9s0.2,1.3,0.5,1.9c0.3,0.6,0.8,1,1.3,1.3c0.6,0.3,1.2,0.5,1.9,0.5 C639.3,79.2,640,79,640.5,78.7z"></path> <path class="st3" d="M648.4,80.2c-0.9-0.5-1.5-1.1-2-1.9c-0.5-0.8-0.7-1.7-0.7-2.8s0.2-1.9,0.7-2.8c0.5-0.8,1.2-1.5,2-1.9 c0.9-0.5,1.8-0.7,2.9-0.7c1.1,0,2,0.2,2.9,0.7c0.9,0.5,1.5,1.1,2,1.9c0.5,0.8,0.7,1.7,0.7,2.8s-0.2,2-0.7,2.8 c-0.5,0.8-1.2,1.5-2,1.9c-0.9,0.5-1.8,0.7-2.9,0.7C650.2,80.9,649.2,80.6,648.4,80.2z M653.2,78.7c0.6-0.3,1-0.8,1.3-1.3 c0.3-0.6,0.5-1.2,0.5-1.9s-0.2-1.3-0.5-1.9c-0.3-0.6-0.8-1-1.3-1.3c-0.6-0.3-1.2-0.5-1.9-0.5c-0.7,0-1.3,0.2-1.9,0.5 c-0.6,0.3-1,0.8-1.3,1.3c-0.3,0.6-0.5,1.2-0.5,1.9s0.2,1.3,0.5,1.9c0.3,0.6,0.8,1,1.3,1.3c0.6,0.3,1.2,0.5,1.9,0.5 C652,79.2,652.6,79,653.2,78.7z"></path> <path class="st3" d="M668.6,80.7l0-7l-3.5,5.8h-0.9l-3.5-5.7v6.9H659V70.2h1.6l4.2,7l4.1-7h1.6l0,10.5H668.6z"></path> <path class="st3" d="M681.2,79.1v1.6h-7.9V70.2h7.7v1.6h-5.7v2.7h5.1v1.6h-5.1v2.9H681.2z"></path> <path class="st3" d="M690.2,80.7l-2.1-3.1c-0.1,0-0.2,0-0.4,0h-2.4v3.1h-2V70.2h4.3c0.9,0,1.7,0.2,2.4,0.5s1.2,0.7,1.6,1.3 c0.4,0.6,0.5,1.2,0.5,2c0,0.8-0.2,1.5-0.6,2c-0.4,0.6-0.9,1-1.7,1.3l2.4,3.5H690.2z M689.5,72.4c-0.4-0.4-1.1-0.5-1.9-0.5h-2.3v4.2 h2.3c0.9,0,1.5-0.2,1.9-0.5c0.4-0.4,0.7-0.9,0.7-1.6S690,72.8,689.5,72.4z"></path> <path class="st3" d="M695.2,80.5c-0.8-0.2-1.4-0.5-1.8-0.9l0.7-1.5c0.4,0.3,1,0.6,1.6,0.8c0.6,0.2,1.3,0.3,1.9,0.3 c0.8,0,1.4-0.1,1.7-0.4s0.6-0.6,0.6-1c0-0.3-0.1-0.5-0.3-0.7c-0.2-0.2-0.5-0.3-0.8-0.5c-0.3-0.1-0.8-0.2-1.3-0.4 c-0.8-0.2-1.4-0.4-1.9-0.6c-0.5-0.2-0.9-0.5-1.3-0.9c-0.4-0.4-0.5-1-0.5-1.6c0-0.6,0.2-1.1,0.5-1.6c0.3-0.5,0.8-0.9,1.4-1.1 c0.6-0.3,1.4-0.4,2.3-0.4c0.6,0,1.3,0.1,1.9,0.2s1.2,0.4,1.6,0.7l-0.6,1.5c-0.5-0.3-0.9-0.5-1.4-0.6c-0.5-0.1-1-0.2-1.5-0.2 c-0.8,0-1.3,0.1-1.7,0.4c-0.4,0.3-0.6,0.6-0.6,1c0,0.3,0.1,0.5,0.3,0.7c0.2,0.2,0.5,0.3,0.8,0.5s0.8,0.2,1.3,0.4 c0.8,0.2,1.4,0.4,1.9,0.6s0.9,0.5,1.3,0.9c0.4,0.4,0.5,0.9,0.5,1.6c0,0.6-0.2,1.1-0.5,1.6c-0.3,0.5-0.8,0.8-1.4,1.1 c-0.6,0.3-1.4,0.4-2.3,0.4C696.8,80.9,696,80.8,695.2,80.5z"></path> </g> <g> <path class="st3" d="M761.7,80.5c-0.8-0.2-1.4-0.5-1.8-0.9l0.7-1.5c0.4,0.3,1,0.6,1.6,0.8c0.6,0.2,1.3,0.3,1.9,0.3 c0.8,0,1.4-0.1,1.7-0.4s0.6-0.6,0.6-1c0-0.3-0.1-0.5-0.3-0.7c-0.2-0.2-0.5-0.3-0.8-0.5c-0.3-0.1-0.8-0.2-1.3-0.4 c-0.8-0.2-1.4-0.4-1.9-0.6c-0.5-0.2-0.9-0.5-1.3-0.9c-0.4-0.4-0.5-1-0.5-1.6c0-0.6,0.2-1.1,0.5-1.6c0.3-0.5,0.8-0.9,1.4-1.1 c0.6-0.3,1.4-0.4,2.3-0.4c0.6,0,1.3,0.1,1.9,0.2s1.2,0.4,1.6,0.7l-0.6,1.5c-0.5-0.3-0.9-0.5-1.4-0.6c-0.5-0.1-1-0.2-1.5-0.2 c-0.8,0-1.3,0.1-1.7,0.4c-0.4,0.3-0.6,0.6-0.6,1c0,0.3,0.1,0.5,0.3,0.7c0.2,0.2,0.5,0.3,0.8,0.5s0.8,0.2,1.3,0.4 c0.8,0.2,1.4,0.4,1.9,0.6s0.9,0.5,1.3,0.9c0.4,0.4,0.5,0.9,0.5,1.6c0,0.6-0.2,1.1-0.5,1.6c-0.3,0.5-0.8,0.8-1.4,1.1 c-0.6,0.3-1.4,0.4-2.3,0.4C763.2,80.9,762.4,80.8,761.7,80.5z"></path> <path class="st3" d="M770.2,70.2h2v10.5h-2V70.2z"></path> <path class="st3" d="M775,70.2h2v8.8h5.5v1.7H775V70.2z"></path> <path class="st3" d="M791.9,79.1v1.6H784V70.2h7.7v1.6h-5.7v2.7h5.1v1.6h-5.1v2.9H791.9z"></path> <path class="st3" d="M803.4,70.2v10.5h-1.6l-5.8-7.1v7.1H794V70.2h1.6l5.8,7.1v-7.1H803.4z"></path> <path class="st3" d="M808.3,71.9h-3.5v-1.7h8.9v1.7h-3.5v8.8h-2V71.9z"></path> <path class="st3" d="M826.5,75.4h1.8v4.2c-0.5,0.4-1.2,0.8-1.9,1c-0.7,0.2-1.5,0.3-2.2,0.3c-1.1,0-2-0.2-2.9-0.7 c-0.9-0.5-1.5-1.1-2-1.9c-0.5-0.8-0.7-1.7-0.7-2.8s0.2-2,0.7-2.8c0.5-0.8,1.2-1.5,2-1.9c0.9-0.5,1.8-0.7,2.9-0.7 c0.9,0,1.7,0.1,2.4,0.4s1.3,0.7,1.8,1.3l-1.2,1.2c-0.8-0.8-1.8-1.2-2.9-1.2c-0.7,0-1.4,0.2-2,0.5c-0.6,0.3-1,0.7-1.4,1.3 c-0.3,0.6-0.5,1.2-0.5,1.9c0,0.7,0.2,1.3,0.5,1.9c0.3,0.6,0.8,1,1.4,1.3c0.6,0.3,1.2,0.5,2,0.5c0.8,0,1.5-0.2,2.2-0.5V75.4z"></path> <path class="st3" d="M838.8,79.1v1.6h-7.9V70.2h7.7v1.6h-5.7v2.7h5.1v1.6h-5.1v2.9H838.8z"></path> <path class="st3" d="M850.3,70.2v10.5h-1.6l-5.8-7.1v7.1H841V70.2h1.6l5.8,7.1v-7.1H850.3z"></path> </g> <g> <g> <path class="st4" d="M130.9,162.9v2.5h-10.1v-2l5.1-4.8c0.5-0.5,0.9-1,1.1-1.3c0.2-0.4,0.3-0.7,0.3-1.1c0-0.5-0.2-0.9-0.5-1.2 c-0.4-0.3-0.9-0.4-1.6-0.4c-0.6,0-1.1,0.1-1.6,0.3c-0.5,0.2-0.9,0.6-1.2,1l-2.2-1.4c0.5-0.8,1.2-1.4,2.1-1.8s2-0.7,3.1-0.7 c1,0,1.9,0.2,2.6,0.5c0.7,0.3,1.3,0.8,1.7,1.4c0.4,0.6,0.6,1.3,0.6,2.1c0,0.7-0.2,1.4-0.5,2s-0.9,1.4-1.8,2.2l-3.1,2.9H130.9z"></path> <path class="st4" d="M140.9,158.2c0.9,0.7,1.3,1.7,1.3,3c0,0.8-0.2,1.5-0.6,2.2s-1,1.2-1.9,1.6c-0.8,0.4-1.9,0.6-3.1,0.6 c-0.9,0-1.9-0.1-2.8-0.4c-0.9-0.2-1.7-0.6-2.3-1.1l1.2-2.4c0.5,0.4,1.1,0.7,1.7,0.9c0.7,0.2,1.3,0.3,2,0.3c0.8,0,1.4-0.2,1.8-0.5 s0.7-0.7,0.7-1.3c0-0.6-0.2-1-0.7-1.3c-0.5-0.3-1.3-0.4-2.4-0.4h-3.4l0.7-7.5h8.1v2.5h-5.5l-0.2,2.5h1.1 C138.6,157.1,140,157.5,140.9,158.2z"></path> <path class="st4" d="M144,158.3c-0.6-0.7-0.9-1.6-0.9-2.7c0-1.1,0.3-2,0.9-2.7s1.4-1,2.4-1c1,0,1.8,0.3,2.4,1 c0.6,0.7,0.9,1.6,0.9,2.7c0,1.1-0.3,2-0.9,2.7c-0.6,0.7-1.4,1-2.4,1C145.4,159.3,144.6,159,144,158.3z M147.4,157.2 c0.2-0.4,0.4-0.9,0.4-1.6c0-0.7-0.1-1.2-0.4-1.6c-0.2-0.4-0.6-0.5-1-0.5c-0.4,0-0.8,0.2-1,0.5c-0.3,0.4-0.4,0.9-0.4,1.6 s0.1,1.2,0.4,1.6c0.3,0.4,0.6,0.5,1,0.5C146.8,157.7,147.2,157.5,147.4,157.2z M154.3,152.1h2.3l-9.1,13.3h-2.3L154.3,152.1z M153.7,165.1c-0.5-0.3-0.9-0.7-1.2-1.3c-0.3-0.6-0.4-1.2-0.4-1.9c0-0.7,0.1-1.4,0.4-1.9c0.3-0.6,0.7-1,1.2-1.3 c0.5-0.3,1.1-0.4,1.7-0.4c1,0,1.8,0.3,2.4,1s0.9,1.6,0.9,2.7c0,1.1-0.3,2-0.9,2.7s-1.4,1-2.4,1 C154.8,165.6,154.2,165.4,153.7,165.1z M156.4,163.5c0.2-0.4,0.4-0.9,0.4-1.6s-0.1-1.2-0.4-1.6s-0.6-0.5-1-0.5 c-0.4,0-0.8,0.2-1,0.5c-0.3,0.4-0.4,0.9-0.4,1.6c0,0.7,0.1,1.2,0.4,1.6c0.3,0.4,0.6,0.5,1,0.5C155.9,164,156.2,163.8,156.4,163.5z "></path> </g> </g> <g> <g> <path class="st4" d="M129.9,287.6c0.6,0.7,0.9,1.5,0.9,2.5c0,0.8-0.2,1.5-0.6,2.1c-0.4,0.7-1,1.2-1.9,1.6c-0.8,0.4-1.8,0.6-3,0.6 c-0.9,0-1.9-0.1-2.8-0.4c-0.9-0.2-1.7-0.6-2.3-1.1l1.2-2.4c0.5,0.4,1.1,0.7,1.8,0.9s1.3,0.3,2,0.3c0.8,0,1.4-0.1,1.8-0.4 c0.4-0.3,0.7-0.7,0.7-1.3c0-1.1-0.8-1.6-2.5-1.6h-1.4v-2l2.7-3.1H121v-2.5h9.3v2l-3,3.4C128.4,286.4,129.3,286.9,129.9,287.6z"></path> <path class="st4" d="M141.1,287.6c0.6,0.7,0.9,1.5,0.9,2.5c0,0.8-0.2,1.5-0.6,2.1c-0.4,0.7-1,1.2-1.9,1.6c-0.8,0.4-1.8,0.6-3,0.6 c-0.9,0-1.9-0.1-2.8-0.4s-1.7-0.6-2.3-1.1l1.2-2.4c0.5,0.4,1.1,0.7,1.8,0.9c0.7,0.2,1.3,0.3,2,0.3c0.8,0,1.4-0.1,1.8-0.4 c0.4-0.3,0.7-0.7,0.7-1.3c0-1.1-0.8-1.6-2.5-1.6H135v-2l2.7-3.1h-5.7v-2.5h9.3v2l-3,3.4C139.6,286.4,140.5,286.9,141.1,287.6z"></path> <path class="st4" d="M144,287c-0.6-0.7-0.9-1.6-0.9-2.7c0-1.1,0.3-2,0.9-2.7s1.4-1,2.4-1c1,0,1.8,0.3,2.4,1 c0.6,0.7,0.9,1.6,0.9,2.7c0,1.1-0.3,2-0.9,2.7c-0.6,0.7-1.4,1-2.4,1C145.4,288,144.6,287.7,144,287z M147.4,285.9 c0.2-0.4,0.4-0.9,0.4-1.6c0-0.7-0.1-1.2-0.4-1.6c-0.2-0.4-0.6-0.5-1-0.5c-0.4,0-0.8,0.2-1,0.5c-0.3,0.4-0.4,0.9-0.4,1.6 s0.1,1.2,0.4,1.6c0.3,0.4,0.6,0.5,1,0.5C146.8,286.5,147.1,286.3,147.4,285.9z M154.3,280.8h2.3l-9.1,13.3h-2.3L154.3,280.8z M153.7,293.8c-0.5-0.3-0.9-0.7-1.2-1.3c-0.3-0.6-0.4-1.2-0.4-1.9c0-0.7,0.1-1.4,0.4-1.9c0.3-0.6,0.7-1,1.2-1.3 c0.5-0.3,1.1-0.4,1.7-0.4c1,0,1.8,0.3,2.4,1s0.9,1.6,0.9,2.7c0,1.1-0.3,2-0.9,2.7s-1.4,1-2.4,1 C154.7,294.3,154.2,294.1,153.7,293.8z M156.4,292.2c0.2-0.4,0.4-0.9,0.4-1.6s-0.1-1.2-0.4-1.6s-0.6-0.5-1-0.5 c-0.4,0-0.8,0.2-1,0.5c-0.3,0.4-0.4,0.9-0.4,1.6c0,0.7,0.1,1.2,0.4,1.6c0.3,0.4,0.6,0.5,1,0.5 C155.8,292.7,156.1,292.6,156.4,292.2z"></path> </g> </g> <g> <g> <path class="st4" d="M132.1,453.6h-2.2v2.8h-3v-2.8h-7.2v-2.1l6.3-8.4h3.2l-5.8,8h3.6v-2.5h2.9v2.5h2.2V453.6z"></path> <path class="st4" d="M142.9,453.9v2.5h-10v-2l5.1-4.8c0.5-0.5,0.9-1,1.1-1.3c0.2-0.4,0.3-0.7,0.3-1.1c0-0.5-0.2-0.9-0.5-1.2 s-0.9-0.4-1.6-0.4c-0.6,0-1.1,0.1-1.6,0.3c-0.5,0.2-0.9,0.6-1.2,1l-2.2-1.4c0.5-0.8,1.2-1.4,2.1-1.8c0.9-0.4,2-0.7,3.1-0.7 c1,0,1.9,0.2,2.6,0.5s1.3,0.8,1.7,1.4c0.4,0.6,0.6,1.3,0.6,2.1c0,0.7-0.2,1.4-0.5,2c-0.3,0.6-0.9,1.4-1.8,2.2l-3.1,2.9H142.9z"></path> <path class="st4" d="M145.1,449.3c-0.6-0.7-0.9-1.6-0.9-2.7s0.3-2,0.9-2.7s1.4-1,2.4-1c1,0,1.8,0.3,2.4,1c0.6,0.7,0.9,1.6,0.9,2.7 s-0.3,2-0.9,2.7c-0.6,0.7-1.4,1-2.4,1C146.5,450.3,145.7,450,145.1,449.3z M148.5,448.2c0.2-0.4,0.4-0.9,0.4-1.6s-0.1-1.2-0.4-1.6 c-0.2-0.4-0.6-0.5-1-0.5c-0.4,0-0.8,0.2-1,0.5c-0.3,0.4-0.4,0.9-0.4,1.6c0,0.7,0.1,1.2,0.4,1.6c0.3,0.4,0.6,0.5,1,0.5 C147.9,448.8,148.2,448.6,148.5,448.2z M155.4,443.1h2.3l-9.1,13.3h-2.3L155.4,443.1z M154.8,456.1c-0.5-0.3-0.9-0.7-1.2-1.3 c-0.3-0.6-0.4-1.2-0.4-1.9c0-0.7,0.1-1.4,0.4-1.9c0.3-0.6,0.7-1,1.2-1.3c0.5-0.3,1.1-0.4,1.7-0.4c1,0,1.8,0.3,2.4,1 s0.9,1.6,0.9,2.7c0,1.1-0.3,2-0.9,2.7s-1.4,1-2.4,1C155.9,456.6,155.3,456.4,154.8,456.1z M157.5,454.5c0.2-0.4,0.4-0.9,0.4-1.6 c0-0.7-0.1-1.2-0.4-1.6c-0.2-0.4-0.6-0.5-1-0.5c-0.4,0-0.8,0.2-1,0.5c-0.3,0.4-0.4,0.9-0.4,1.6c0,0.7,0.1,1.2,0.4,1.6 c0.3,0.4,0.6,0.5,1,0.5C156.9,455,157.3,454.8,157.5,454.5z"></path> </g> </g> <g> <g> <path class="st4" d="M297.3,175.1v2.5h-10.1v-2l5.1-4.8c0.5-0.5,0.9-1,1.1-1.3c0.2-0.4,0.3-0.7,0.3-1.1c0-0.5-0.2-0.9-0.5-1.2 c-0.4-0.3-0.9-0.4-1.6-0.4c-0.6,0-1.1,0.1-1.6,0.3c-0.5,0.2-0.9,0.6-1.2,1l-2.2-1.4c0.5-0.8,1.2-1.4,2.1-1.8s2-0.7,3.1-0.7 c1,0,1.9,0.2,2.6,0.5c0.7,0.3,1.3,0.8,1.7,1.4c0.4,0.6,0.6,1.3,0.6,2.1c0,0.7-0.2,1.4-0.5,2s-0.9,1.4-1.8,2.2l-3.1,2.9H297.3z"></path> <path class="st4" d="M309,164.3v2l-4.9,11.3h-3.3l4.8-10.8h-4.4v2.2h-2.7v-4.7H309z"></path> <path class="st4" d="M311.2,170.5c-0.6-0.7-0.9-1.6-0.9-2.7c0-1.1,0.3-2,0.9-2.7s1.4-1,2.4-1c1,0,1.8,0.3,2.4,1 c0.6,0.7,0.9,1.6,0.9,2.7c0,1.1-0.3,2-0.9,2.7c-0.6,0.7-1.4,1-2.4,1C312.6,171.5,311.8,171.2,311.2,170.5z M314.6,169.4 c0.2-0.4,0.4-0.9,0.4-1.6c0-0.7-0.1-1.2-0.4-1.6c-0.2-0.4-0.6-0.5-1-0.5c-0.4,0-0.8,0.2-1,0.5c-0.3,0.4-0.4,0.9-0.4,1.6 s0.1,1.2,0.4,1.6c0.3,0.4,0.6,0.5,1,0.5C314,170,314.3,169.8,314.6,169.4z M321.5,164.3h2.3l-9.1,13.3h-2.3L321.5,164.3z M320.9,177.3c-0.5-0.3-0.9-0.7-1.2-1.3c-0.3-0.6-0.4-1.2-0.4-1.9c0-0.7,0.1-1.4,0.4-1.9c0.3-0.6,0.7-1,1.2-1.3 c0.5-0.3,1.1-0.4,1.7-0.4c1,0,1.8,0.3,2.4,1s0.9,1.6,0.9,2.7c0,1.1-0.3,2-0.9,2.7s-1.4,1-2.4,1 C321.9,177.8,321.4,177.6,320.9,177.3z M323.6,175.7c0.2-0.4,0.4-0.9,0.4-1.6s-0.1-1.2-0.4-1.6s-0.6-0.5-1-0.5 c-0.4,0-0.8,0.2-1,0.5c-0.3,0.4-0.4,0.9-0.4,1.6c0,0.7,0.1,1.2,0.4,1.6c0.3,0.4,0.6,0.5,1,0.5C323,176.2,323.3,176,323.6,175.7z"></path> </g> </g> <g> <g> <path class="st4" d="M296.5,299.8c0.6,0.7,0.9,1.5,0.9,2.5c0,0.8-0.2,1.5-0.6,2.1c-0.4,0.7-1,1.2-1.9,1.6c-0.8,0.4-1.8,0.6-3,0.6 c-0.9,0-1.9-0.1-2.8-0.4c-0.9-0.2-1.7-0.6-2.3-1.1l1.2-2.4c0.5,0.4,1.1,0.7,1.8,0.9s1.3,0.3,2,0.3c0.8,0,1.4-0.1,1.8-0.4 c0.4-0.3,0.7-0.7,0.7-1.3c0-1.1-0.8-1.6-2.5-1.6h-1.4v-2l2.7-3.1h-5.7v-2.5h9.3v2l-3,3.4C295,298.7,295.9,299.1,296.5,299.8z"></path> <path class="st4" d="M308.7,303.9v2.5h-10v-2l5.1-4.8c0.5-0.5,0.9-1,1.1-1.3c0.2-0.4,0.3-0.7,0.3-1.1c0-0.5-0.2-0.9-0.5-1.2 c-0.4-0.3-0.9-0.4-1.6-0.4c-0.6,0-1.1,0.1-1.6,0.3c-0.5,0.2-0.9,0.6-1.2,1l-2.2-1.4c0.5-0.8,1.2-1.4,2.1-1.8 c0.9-0.4,2-0.7,3.1-0.7c1,0,1.9,0.2,2.6,0.5c0.7,0.3,1.3,0.8,1.7,1.4c0.4,0.6,0.6,1.3,0.6,2.1c0,0.7-0.2,1.4-0.5,2 s-0.9,1.4-1.8,2.2l-3.1,2.9H308.7z"></path> <path class="st4" d="M310.9,299.3c-0.6-0.7-0.9-1.6-0.9-2.7c0-1.1,0.3-2,0.9-2.7s1.4-1,2.4-1c1,0,1.8,0.3,2.4,1 c0.6,0.7,0.9,1.6,0.9,2.7c0,1.1-0.3,2-0.9,2.7c-0.6,0.7-1.4,1-2.4,1C312.3,300.3,311.5,299.9,310.9,299.3z M314.3,298.2 c0.2-0.4,0.4-0.9,0.4-1.6c0-0.7-0.1-1.2-0.4-1.6c-0.2-0.4-0.6-0.5-1-0.5c-0.4,0-0.8,0.2-1,0.5c-0.3,0.4-0.4,0.9-0.4,1.6 s0.1,1.2,0.4,1.6c0.3,0.4,0.6,0.5,1,0.5C313.7,298.7,314.1,298.5,314.3,298.2z M321.2,293.1h2.3l-9.1,13.3h-2.3L321.2,293.1z M320.6,306.1c-0.5-0.3-0.9-0.7-1.2-1.3c-0.3-0.6-0.4-1.2-0.4-1.9c0-0.7,0.1-1.4,0.4-1.9c0.3-0.6,0.7-1,1.2-1.3 c0.5-0.3,1.1-0.4,1.7-0.4c1,0,1.8,0.3,2.4,1s0.9,1.6,0.9,2.7c0,1.1-0.3,2-0.9,2.7s-1.4,1-2.4,1 C321.7,306.5,321.1,306.4,320.6,306.1z M323.3,304.4c0.2-0.4,0.4-0.9,0.4-1.6s-0.1-1.2-0.4-1.6s-0.6-0.5-1-0.5 c-0.4,0-0.8,0.2-1,0.5c-0.3,0.4-0.4,0.9-0.4,1.6c0,0.7,0.1,1.2,0.4,1.6c0.3,0.4,0.6,0.5,1,0.5C322.7,305,323.1,304.8,323.3,304.4z "></path> </g> </g> <g> <g> <path class="st4" d="M298.9,463.3h-2.2v2.8h-3v-2.8h-7.2v-2.1l6.3-8.4h3.2l-5.8,8h3.6v-2.5h2.9v2.5h2.2V463.3z"></path> <path class="st4" d="M309.7,463.6v2.5h-10v-2l5.1-4.8c0.5-0.5,0.9-1,1.1-1.3c0.2-0.4,0.3-0.7,0.3-1.1c0-0.5-0.2-0.9-0.5-1.2 c-0.4-0.3-0.9-0.4-1.6-0.4c-0.6,0-1.1,0.1-1.6,0.3c-0.5,0.2-0.9,0.6-1.2,1L299,455c0.5-0.8,1.2-1.4,2.1-1.8c0.9-0.4,2-0.7,3.1-0.7 c1,0,1.9,0.2,2.6,0.5c0.7,0.3,1.3,0.8,1.7,1.4c0.4,0.6,0.6,1.3,0.6,2.1c0,0.7-0.2,1.4-0.5,2c-0.3,0.6-0.9,1.4-1.8,2.2l-3.1,2.9 H309.7z"></path> <path class="st4" d="M311.8,459c-0.6-0.7-0.9-1.6-0.9-2.7c0-1.1,0.3-2,0.9-2.7s1.4-1,2.4-1c1,0,1.8,0.3,2.4,1 c0.6,0.7,0.9,1.6,0.9,2.7c0,1.1-0.3,2-0.9,2.7c-0.6,0.7-1.4,1-2.4,1C313.3,460,312.5,459.7,311.8,459z M315.2,457.9 c0.2-0.4,0.4-0.9,0.4-1.6c0-0.7-0.1-1.2-0.4-1.6c-0.2-0.4-0.6-0.5-1-0.5c-0.4,0-0.8,0.2-1,0.5c-0.3,0.4-0.4,0.9-0.4,1.6 c0,0.7,0.1,1.2,0.4,1.6c0.3,0.4,0.6,0.5,1,0.5C314.7,458.4,315,458.2,315.2,457.9z M322.2,452.8h2.3l-9.1,13.3h-2.3L322.2,452.8z M321.6,465.8c-0.5-0.3-0.9-0.7-1.2-1.3c-0.3-0.6-0.4-1.2-0.4-1.9s0.1-1.4,0.4-1.9c0.3-0.6,0.7-1,1.2-1.3c0.5-0.3,1.1-0.4,1.7-0.4 c1,0,1.8,0.3,2.4,1s0.9,1.6,0.9,2.7s-0.3,2-0.9,2.7s-1.4,1-2.4,1C322.6,466.3,322.1,466.1,321.6,465.8z M324.3,464.2 c0.2-0.4,0.4-0.9,0.4-1.6c0-0.7-0.1-1.2-0.4-1.6c-0.2-0.4-0.6-0.5-1-0.5c-0.4,0-0.8,0.2-1,0.5c-0.3,0.4-0.4,0.9-0.4,1.6 s0.1,1.2,0.4,1.6c0.3,0.4,0.6,0.5,1,0.5C323.7,464.7,324,464.5,324.3,464.2z"></path> </g> </g> <g> <g> <path class="st4" d="M466.1,219.8H464v2.8h-3v-2.8h-7.2v-2.1l6.3-8.4h3.2l-5.8,8h3.6v-2.5h2.9v2.5h2.2V219.8z"></path> <path class="st4" d="M475.8,214.8c0.7,0.3,1.2,0.8,1.7,1.5c0.4,0.6,0.6,1.4,0.6,2.2c0,0.9-0.2,1.7-0.7,2.3s-1,1.2-1.8,1.5 s-1.6,0.5-2.6,0.5c-1.9,0-3.3-0.6-4.4-1.7s-1.6-2.8-1.6-4.9c0-1.5,0.3-2.8,0.9-3.9c0.6-1.1,1.4-1.9,2.4-2.5c1-0.6,2.2-0.8,3.5-0.8 c0.7,0,1.4,0.1,2,0.2c0.7,0.2,1.2,0.4,1.7,0.7l-1.1,2.3c-0.7-0.4-1.5-0.7-2.5-0.7c-1.1,0-2,0.3-2.7,1c-0.7,0.7-1,1.6-1.1,2.9 c0.8-0.8,1.9-1.2,3.3-1.2C474.3,214.3,475.1,214.4,475.8,214.8z M474.4,220c0.4-0.4,0.6-0.8,0.6-1.4s-0.2-1.1-0.6-1.5 c-0.4-0.4-1-0.5-1.6-0.5c-0.7,0-1.2,0.2-1.7,0.6s-0.6,0.9-0.6,1.4s0.2,1.1,0.6,1.4c0.4,0.4,1,0.6,1.7,0.6 C473.5,220.5,474,220.3,474.4,220z"></path> <path class="st4" d="M479.5,215.5c-0.6-0.7-0.9-1.6-0.9-2.7c0-1.1,0.3-2,0.9-2.7s1.4-1,2.4-1c1,0,1.8,0.3,2.4,1 c0.6,0.7,0.9,1.6,0.9,2.7c0,1.1-0.3,2-0.9,2.7c-0.6,0.7-1.4,1-2.4,1C480.9,216.5,480.1,216.1,479.5,215.5z M482.9,214.4 c0.2-0.4,0.4-0.9,0.4-1.6c0-0.7-0.1-1.2-0.4-1.6c-0.2-0.4-0.6-0.5-1-0.5c-0.4,0-0.8,0.2-1,0.5c-0.3,0.4-0.4,0.9-0.4,1.6 s0.1,1.2,0.4,1.6c0.3,0.4,0.6,0.5,1,0.5C482.3,214.9,482.6,214.7,482.9,214.4z M489.8,209.3h2.3l-9.1,13.3h-2.3L489.8,209.3z M489.2,222.3c-0.5-0.3-0.9-0.7-1.2-1.3c-0.3-0.6-0.4-1.2-0.4-1.9c0-0.7,0.1-1.4,0.4-1.9c0.3-0.6,0.7-1,1.2-1.3 c0.5-0.3,1.1-0.4,1.7-0.4c1,0,1.8,0.3,2.4,1s0.9,1.6,0.9,2.7c0,1.1-0.3,2-0.9,2.7s-1.4,1-2.4,1 C490.2,222.7,489.7,222.6,489.2,222.3z M491.9,220.6c0.2-0.4,0.4-0.9,0.4-1.6s-0.1-1.2-0.4-1.6s-0.6-0.5-1-0.5 c-0.4,0-0.8,0.2-1,0.5c-0.3,0.4-0.4,0.9-0.4,1.6c0,0.7,0.1,1.2,0.4,1.6c0.3,0.4,0.6,0.5,1,0.5C491.3,221.2,491.7,221,491.9,220.6z "></path> </g> </g> <g> <g> <path class="st4" d="M464,372.8c0.6,0.7,0.9,1.5,0.9,2.5c0,0.8-0.2,1.5-0.6,2.1c-0.4,0.7-1,1.2-1.9,1.6c-0.8,0.4-1.8,0.6-3,0.6 c-0.9,0-1.9-0.1-2.8-0.4c-0.9-0.2-1.7-0.6-2.3-1.1l1.2-2.4c0.5,0.4,1.1,0.7,1.8,0.9s1.3,0.3,2,0.3c0.8,0,1.4-0.1,1.8-0.4 c0.4-0.3,0.7-0.7,0.7-1.3c0-1.1-0.8-1.6-2.5-1.6h-1.4v-2l2.7-3.1H455V366h9.3v2l-3,3.4C462.5,371.7,463.4,372.1,464,372.8z"></path> <path class="st4" d="M476.2,376.8v2.5h-10v-2l5.1-4.8c0.5-0.5,0.9-1,1.1-1.3c0.2-0.4,0.3-0.7,0.3-1.1c0-0.5-0.2-0.9-0.5-1.2 c-0.4-0.3-0.9-0.4-1.6-0.4c-0.6,0-1.1,0.1-1.6,0.3c-0.5,0.2-0.9,0.6-1.2,1l-2.2-1.4c0.5-0.8,1.2-1.4,2.1-1.8 c0.9-0.4,2-0.7,3.1-0.7c1,0,1.9,0.2,2.6,0.5c0.7,0.3,1.3,0.8,1.7,1.4c0.4,0.6,0.6,1.3,0.6,2.1c0,0.7-0.2,1.4-0.5,2 s-0.9,1.4-1.8,2.2l-3.1,2.9H476.2z"></path> <path class="st4" d="M478.3,372.2c-0.6-0.7-0.9-1.6-0.9-2.7c0-1.1,0.3-2,0.9-2.7s1.4-1,2.4-1c1,0,1.8,0.3,2.4,1 c0.6,0.7,0.9,1.6,0.9,2.7c0,1.1-0.3,2-0.9,2.7c-0.6,0.7-1.4,1-2.4,1C479.8,373.2,479,372.9,478.3,372.2z M481.7,371.1 c0.2-0.4,0.4-0.9,0.4-1.6c0-0.7-0.1-1.2-0.4-1.6c-0.2-0.4-0.6-0.5-1-0.5c-0.4,0-0.8,0.2-1,0.5c-0.3,0.4-0.4,0.9-0.4,1.6 s0.1,1.2,0.4,1.6c0.3,0.4,0.6,0.5,1,0.5C481.2,371.7,481.5,371.5,481.7,371.1z M488.6,366h2.3l-9.1,13.3h-2.3L488.6,366z M488.1,379.1c-0.5-0.3-0.9-0.7-1.2-1.3c-0.3-0.6-0.4-1.2-0.4-1.9c0-0.7,0.1-1.4,0.4-1.9c0.3-0.6,0.7-1,1.2-1.3 c0.5-0.3,1.1-0.4,1.7-0.4c1,0,1.8,0.3,2.4,1s0.9,1.6,0.9,2.7c0,1.1-0.3,2-0.9,2.7s-1.4,1-2.4,1 C489.1,379.5,488.6,379.3,488.1,379.1z M490.8,377.4c0.2-0.4,0.4-0.9,0.4-1.6s-0.1-1.2-0.4-1.6s-0.6-0.5-1-0.5 c-0.4,0-0.8,0.2-1,0.5c-0.3,0.4-0.4,0.9-0.4,1.6c0,0.7,0.1,1.2,0.4,1.6c0.3,0.4,0.6,0.5,1,0.5 C490.2,377.9,490.5,377.8,490.8,377.4z"></path> </g> </g> <g> <g> <path class="st4" d="M465.2,500.3v2.5h-10.1v-2l5.1-4.8c0.5-0.5,0.9-1,1.1-1.3c0.2-0.4,0.3-0.7,0.3-1.1c0-0.5-0.2-0.9-0.5-1.2 s-0.9-0.4-1.6-0.4c-0.6,0-1.1,0.1-1.6,0.3c-0.5,0.2-0.9,0.6-1.2,1l-2.2-1.4c0.5-0.8,1.2-1.4,2.1-1.8c0.9-0.4,2-0.7,3.1-0.7 c1,0,1.9,0.2,2.6,0.5s1.3,0.8,1.7,1.4c0.4,0.6,0.6,1.3,0.6,2.1c0,0.7-0.2,1.4-0.5,2c-0.3,0.6-0.9,1.4-1.8,2.2l-3.1,2.9H465.2z"></path> <path class="st4" d="M475.3,496.2c0.6,0.7,0.9,1.5,0.9,2.5c0,0.8-0.2,1.5-0.6,2.1s-1,1.2-1.9,1.6c-0.8,0.4-1.8,0.6-3,0.6 c-0.9,0-1.9-0.1-2.8-0.4s-1.7-0.6-2.3-1.1l1.2-2.4c0.5,0.4,1.1,0.7,1.8,0.9c0.7,0.2,1.3,0.3,2,0.3c0.8,0,1.4-0.1,1.8-0.4 s0.7-0.7,0.7-1.3c0-1.1-0.8-1.6-2.5-1.6h-1.4v-2l2.7-3.1h-5.7v-2.5h9.3v2l-3,3.4C473.8,495.1,474.7,495.5,475.3,496.2z"></path> <path class="st4" d="M478.2,495.7c-0.6-0.7-0.9-1.6-0.9-2.7s0.3-2,0.9-2.7s1.4-1,2.4-1c1,0,1.8,0.3,2.4,1c0.6,0.7,0.9,1.6,0.9,2.7 s-0.3,2-0.9,2.7c-0.6,0.7-1.4,1-2.4,1C479.6,496.7,478.8,496.4,478.2,495.7z M481.6,494.6c0.2-0.4,0.4-0.9,0.4-1.6 s-0.1-1.2-0.4-1.6c-0.2-0.4-0.6-0.5-1-0.5c-0.4,0-0.8,0.2-1,0.5c-0.3,0.4-0.4,0.9-0.4,1.6c0,0.7,0.1,1.2,0.4,1.6 c0.3,0.4,0.6,0.5,1,0.5C481,495.1,481.4,494.9,481.6,494.6z M488.5,489.5h2.3l-9.1,13.3h-2.3L488.5,489.5z M487.9,502.5 c-0.5-0.3-0.9-0.7-1.2-1.3c-0.3-0.6-0.4-1.2-0.4-1.9c0-0.7,0.1-1.4,0.4-1.9c0.3-0.6,0.7-1,1.2-1.3c0.5-0.3,1.1-0.4,1.7-0.4 c1,0,1.8,0.3,2.4,1s0.9,1.6,0.9,2.7c0,1.1-0.3,2-0.9,2.7s-1.4,1-2.4,1C489,503,488.4,502.8,487.9,502.5z M490.6,500.9 c0.2-0.4,0.4-0.9,0.4-1.6c0-0.7-0.1-1.2-0.4-1.6c-0.2-0.4-0.6-0.5-1-0.5c-0.4,0-0.8,0.2-1,0.5c-0.3,0.4-0.4,0.9-0.4,1.6 c0,0.7,0.1,1.2,0.4,1.6c0.3,0.4,0.6,0.5,1,0.5C490,501.4,490.4,501.2,490.6,500.9z"></path> </g> </g> <g> <g> <path class="st4" d="M629.4,239.2c0.7,0.3,1.2,0.8,1.7,1.5c0.4,0.6,0.6,1.4,0.6,2.2c0,0.9-0.2,1.7-0.7,2.3s-1,1.2-1.8,1.5 s-1.6,0.5-2.6,0.5c-1.9,0-3.3-0.6-4.4-1.7c-1.1-1.1-1.6-2.8-1.6-4.9c0-1.5,0.3-2.8,0.9-3.9c0.6-1.1,1.4-1.9,2.4-2.5 c1-0.6,2.2-0.8,3.5-0.8c0.7,0,1.4,0.1,2,0.2c0.7,0.2,1.2,0.4,1.7,0.7l-1.1,2.3c-0.7-0.4-1.5-0.7-2.5-0.7c-1.1,0-2,0.3-2.7,1 c-0.7,0.7-1,1.6-1.1,2.9c0.8-0.8,1.9-1.2,3.3-1.2C627.9,238.7,628.7,238.9,629.4,239.2z M628,244.5c0.4-0.4,0.6-0.8,0.6-1.4 s-0.2-1.1-0.6-1.5c-0.4-0.4-1-0.5-1.6-0.5c-0.7,0-1.2,0.2-1.7,0.6s-0.6,0.9-0.6,1.4s0.2,1.1,0.6,1.4c0.4,0.4,1,0.6,1.7,0.6 C627.1,245,627.6,244.8,628,244.5z"></path> <path class="st4" d="M642.7,244.6v2.5h-10v-2l5.1-4.8c0.5-0.5,0.9-1,1.1-1.3c0.2-0.4,0.3-0.7,0.3-1.1c0-0.5-0.2-0.9-0.5-1.2 c-0.4-0.3-0.9-0.4-1.6-0.4c-0.6,0-1.1,0.1-1.6,0.3c-0.5,0.2-0.9,0.6-1.2,1L632,236c0.5-0.8,1.2-1.4,2.1-1.8c0.9-0.4,2-0.7,3.1-0.7 c1,0,1.9,0.2,2.6,0.5c0.7,0.3,1.3,0.8,1.7,1.4c0.4,0.6,0.6,1.3,0.6,2.1c0,0.7-0.2,1.4-0.5,2s-0.9,1.4-1.8,2.2l-3.1,2.9H642.7z"></path> <path class="st4" d="M644.8,239.9c-0.6-0.7-0.9-1.6-0.9-2.7c0-1.1,0.3-2,0.9-2.7s1.4-1,2.4-1c1,0,1.8,0.3,2.4,1 c0.6,0.7,0.9,1.6,0.9,2.7c0,1.1-0.3,2-0.9,2.7c-0.6,0.7-1.4,1-2.4,1C646.2,240.9,645.4,240.6,644.8,239.9z M648.2,238.9 c0.2-0.4,0.4-0.9,0.4-1.6c0-0.7-0.1-1.2-0.4-1.6c-0.2-0.4-0.6-0.5-1-0.5c-0.4,0-0.8,0.2-1,0.5c-0.3,0.4-0.4,0.9-0.4,1.6 s0.1,1.2,0.4,1.6c0.3,0.4,0.6,0.5,1,0.5C647.6,239.4,648,239.2,648.2,238.9z M655.1,233.8h2.3l-9.1,13.3h-2.3L655.1,233.8z M654.5,246.8c-0.5-0.3-0.9-0.7-1.2-1.3c-0.3-0.6-0.4-1.2-0.4-1.9c0-0.7,0.1-1.4,0.4-1.9c0.3-0.6,0.7-1,1.2-1.3 c0.5-0.3,1.1-0.4,1.7-0.4c1,0,1.8,0.3,2.4,1s0.9,1.6,0.9,2.7c0,1.1-0.3,2-0.9,2.7s-1.4,1-2.4,1C655.6,247.2,655,247.1,654.5,246.8 z M657.3,245.1c0.2-0.4,0.4-0.9,0.4-1.6s-0.1-1.2-0.4-1.6s-0.6-0.5-1-0.5c-0.4,0-0.8,0.2-1,0.5c-0.3,0.4-0.4,0.9-0.4,1.6 c0,0.7,0.1,1.2,0.4,1.6c0.3,0.4,0.6,0.5,1,0.5C656.7,245.7,657,245.5,657.3,245.1z"></path> </g> </g> <g> <g> <path class="st4" d="M631.2,441.1v2.5h-10.1v-2l5.1-4.8c0.5-0.5,0.9-1,1.1-1.3c0.2-0.4,0.3-0.7,0.3-1.1c0-0.5-0.2-0.9-0.5-1.2 s-0.9-0.4-1.6-0.4c-0.6,0-1.1,0.1-1.6,0.3c-0.5,0.2-0.9,0.6-1.2,1l-2.2-1.4c0.5-0.8,1.2-1.4,2.1-1.8c0.9-0.4,2-0.7,3.1-0.7 c1,0,1.9,0.2,2.6,0.5s1.3,0.8,1.7,1.4c0.4,0.6,0.6,1.3,0.6,2.1c0,0.7-0.2,1.4-0.5,2c-0.3,0.6-0.9,1.4-1.8,2.2l-3.1,2.9H631.2z"></path> <path class="st4" d="M641.1,436.4c0.9,0.7,1.3,1.7,1.3,3c0,0.8-0.2,1.5-0.6,2.2s-1,1.2-1.9,1.6c-0.8,0.4-1.9,0.6-3.1,0.6 c-0.9,0-1.9-0.1-2.8-0.4c-0.9-0.2-1.7-0.6-2.3-1.1l1.2-2.4c0.5,0.4,1.1,0.7,1.7,0.9c0.7,0.2,1.3,0.3,2,0.3c0.8,0,1.4-0.2,1.8-0.5 c0.4-0.3,0.7-0.7,0.7-1.3c0-0.6-0.2-1-0.7-1.3c-0.5-0.3-1.3-0.4-2.4-0.4h-3.4l0.7-7.5h8.1v2.5h-5.5l-0.2,2.5h1.1 C638.9,435.3,640.3,435.6,641.1,436.4z"></path> <path class="st4" d="M644.2,436.5c-0.6-0.7-0.9-1.6-0.9-2.7s0.3-2,0.9-2.7s1.4-1,2.4-1c1,0,1.8,0.3,2.4,1c0.6,0.7,0.9,1.6,0.9,2.7 s-0.3,2-0.9,2.7c-0.6,0.7-1.4,1-2.4,1C645.7,437.5,644.9,437.1,644.2,436.5z M647.6,435.4c0.2-0.4,0.4-0.9,0.4-1.6 s-0.1-1.2-0.4-1.6c-0.2-0.4-0.6-0.5-1-0.5c-0.4,0-0.8,0.2-1,0.5c-0.3,0.4-0.4,0.9-0.4,1.6c0,0.7,0.1,1.2,0.4,1.6 c0.3,0.4,0.6,0.5,1,0.5C647.1,435.9,647.4,435.7,647.6,435.4z M654.5,430.3h2.3l-9.1,13.3h-2.3L654.5,430.3z M654,443.3 c-0.5-0.3-0.9-0.7-1.2-1.3c-0.3-0.6-0.4-1.2-0.4-1.9c0-0.7,0.1-1.4,0.4-1.9c0.3-0.6,0.7-1,1.2-1.3c0.5-0.3,1.1-0.4,1.7-0.4 c1,0,1.8,0.3,2.4,1s0.9,1.6,0.9,2.7c0,1.1-0.3,2-0.9,2.7s-1.4,1-2.4,1C655,443.7,654.5,443.6,654,443.3z M656.7,441.6 c0.2-0.4,0.4-0.9,0.4-1.6c0-0.7-0.1-1.2-0.4-1.6c-0.2-0.4-0.6-0.5-1-0.5c-0.4,0-0.8,0.2-1,0.5c-0.3,0.4-0.4,0.9-0.4,1.6 c0,0.7,0.1,1.2,0.4,1.6c0.3,0.4,0.6,0.5,1,0.5C656.1,442.2,656.4,442,656.7,441.6z"></path> </g> </g> <g> <g> <path class="st4" d="M628.1,510.5v13.3H625V513h-2.7v-2.5H628.1z"></path> <path class="st4" d="M640.3,521.3v2.5h-10v-2l5.1-4.8c0.5-0.5,0.9-1,1.1-1.3c0.2-0.4,0.3-0.7,0.3-1.1c0-0.5-0.2-0.9-0.5-1.2 c-0.4-0.3-0.9-0.4-1.6-0.4c-0.6,0-1.1,0.1-1.6,0.3c-0.5,0.2-0.9,0.6-1.2,1l-2.2-1.4c0.5-0.8,1.2-1.4,2.1-1.8 c0.9-0.4,2-0.7,3.1-0.7c1,0,1.9,0.2,2.6,0.5c0.7,0.3,1.3,0.8,1.7,1.4c0.4,0.6,0.6,1.3,0.6,2.1c0,0.7-0.2,1.4-0.5,2 c-0.3,0.6-0.9,1.4-1.8,2.2l-3.1,2.9H640.3z"></path> <path class="st4" d="M642.5,516.7c-0.6-0.7-0.9-1.6-0.9-2.7c0-1.1,0.3-2,0.9-2.7s1.4-1,2.4-1c1,0,1.8,0.3,2.4,1 c0.6,0.7,0.9,1.6,0.9,2.7c0,1.1-0.3,2-0.9,2.7c-0.6,0.7-1.4,1-2.4,1C643.9,517.7,643.1,517.4,642.5,516.7z M645.9,515.6 c0.2-0.4,0.4-0.9,0.4-1.6c0-0.7-0.1-1.2-0.4-1.6c-0.2-0.4-0.6-0.5-1-0.5c-0.4,0-0.8,0.2-1,0.5c-0.3,0.4-0.4,0.9-0.4,1.6 c0,0.7,0.1,1.2,0.4,1.6c0.3,0.4,0.6,0.5,1,0.5C645.3,516.1,645.7,516,645.9,515.6z M652.8,510.5h2.3l-9.1,13.3h-2.3L652.8,510.5z M652.2,523.5c-0.5-0.3-0.9-0.7-1.2-1.3c-0.3-0.6-0.4-1.2-0.4-1.9s0.1-1.4,0.4-1.9c0.3-0.6,0.7-1,1.2-1.3c0.5-0.3,1.1-0.4,1.7-0.4 c1,0,1.8,0.3,2.4,1s0.9,1.6,0.9,2.7s-0.3,2-0.9,2.7s-1.4,1-2.4,1C653.3,524,652.7,523.8,652.2,523.5z M654.9,521.9 c0.2-0.4,0.4-0.9,0.4-1.6c0-0.7-0.1-1.2-0.4-1.6c-0.2-0.4-0.6-0.5-1-0.5c-0.4,0-0.8,0.2-1,0.5c-0.3,0.4-0.4,0.9-0.4,1.6 s0.1,1.2,0.4,1.6c0.3,0.4,0.6,0.5,1,0.5C654.3,522.4,654.7,522.2,654.9,521.9z"></path> </g> </g> <g> <g> <path class="st4" d="M795.9,222.1c0.9,0.7,1.3,1.7,1.3,3c0,0.8-0.2,1.5-0.6,2.2s-1,1.2-1.9,1.6c-0.8,0.4-1.9,0.6-3.1,0.6 c-0.9,0-1.9-0.1-2.8-0.4c-0.9-0.2-1.7-0.6-2.3-1.1l1.2-2.4c0.5,0.4,1.1,0.7,1.7,0.9c0.7,0.2,1.3,0.3,2,0.3c0.8,0,1.4-0.2,1.8-0.5 s0.7-0.7,0.7-1.3c0-0.6-0.2-1-0.7-1.3c-0.5-0.3-1.3-0.4-2.4-0.4h-3.4l0.7-7.5h8.1v2.5h-5.5l-0.2,2.5h1.1 C793.6,221,795,221.3,795.9,222.1z"></path> <path class="st4" d="M801.2,228.7c-0.9-0.5-1.5-1.3-2-2.4c-0.5-1-0.7-2.3-0.7-3.7c0-1.4,0.2-2.7,0.7-3.7c0.5-1,1.2-1.8,2-2.4 c0.9-0.5,1.8-0.8,2.9-0.8c1.1,0,2.1,0.3,2.9,0.8c0.9,0.5,1.5,1.3,2,2.4c0.5,1,0.7,2.3,0.7,3.7c0,1.4-0.2,2.7-0.7,3.7 c-0.5,1-1.2,1.8-2,2.4s-1.8,0.8-2.9,0.8C803.1,229.5,802.1,229.2,801.2,228.7z M806.1,225.8c0.5-0.7,0.7-1.8,0.7-3.2 s-0.2-2.5-0.7-3.2c-0.5-0.7-1.1-1-1.9-1c-0.8,0-1.4,0.3-1.9,1c-0.5,0.7-0.7,1.8-0.7,3.2s0.2,2.5,0.7,3.2c0.5,0.7,1.1,1,1.9,1 C805,226.9,805.6,226.5,806.1,225.8z"></path> <path class="st4" d="M812.1,222.1c-0.6-0.7-0.9-1.6-0.9-2.7c0-1.1,0.3-2,0.9-2.7s1.4-1,2.4-1c1,0,1.8,0.3,2.4,1 c0.6,0.7,0.9,1.6,0.9,2.7c0,1.1-0.3,2-0.9,2.7c-0.6,0.7-1.4,1-2.4,1C813.5,223.1,812.7,222.8,812.1,222.1z M815.5,221 c0.2-0.4,0.4-0.9,0.4-1.6c0-0.7-0.1-1.2-0.4-1.6c-0.2-0.4-0.6-0.5-1-0.5c-0.4,0-0.8,0.2-1,0.5c-0.3,0.4-0.4,0.9-0.4,1.6 s0.1,1.2,0.4,1.6c0.3,0.4,0.6,0.5,1,0.5C814.9,221.6,815.2,221.4,815.5,221z M822.4,216h2.3l-9.1,13.3h-2.3L822.4,216z M821.8,229 c-0.5-0.3-0.9-0.7-1.2-1.3c-0.3-0.6-0.4-1.2-0.4-1.9c0-0.7,0.1-1.4,0.4-1.9c0.3-0.6,0.7-1,1.2-1.3c0.5-0.3,1.1-0.4,1.7-0.4 c1,0,1.8,0.3,2.4,1s0.9,1.6,0.9,2.7c0,1.1-0.3,2-0.9,2.7s-1.4,1-2.4,1C822.8,229.4,822.3,229.3,821.8,229z M824.5,227.3 c0.2-0.4,0.4-0.9,0.4-1.6s-0.1-1.2-0.4-1.6s-0.6-0.5-1-0.5c-0.4,0-0.8,0.2-1,0.5c-0.3,0.4-0.4,0.9-0.4,1.6c0,0.7,0.1,1.2,0.4,1.6 c0.3,0.4,0.6,0.5,1,0.5C823.9,227.8,824.2,227.7,824.5,227.3z"></path> </g> </g> <g> <g> <path class="st4" d="M796.1,390.4c0.6,0.7,0.9,1.5,0.9,2.5c0,0.8-0.2,1.5-0.6,2.1c-0.4,0.7-1,1.2-1.9,1.6c-0.8,0.4-1.8,0.6-3,0.6 c-0.9,0-1.9-0.1-2.8-0.4c-0.9-0.2-1.7-0.6-2.3-1.1l1.2-2.4c0.5,0.4,1.1,0.7,1.8,0.9s1.3,0.3,2,0.3c0.8,0,1.4-0.1,1.8-0.4 c0.4-0.3,0.7-0.7,0.7-1.3c0-1.1-0.8-1.6-2.5-1.6H790v-2l2.7-3.1h-5.7v-2.5h9.3v2l-3,3.4C794.6,389.3,795.5,389.7,796.1,390.4z"></path> <path class="st4" d="M801.2,396.4c-0.9-0.5-1.5-1.3-2-2.4c-0.5-1-0.7-2.3-0.7-3.7c0-1.4,0.2-2.7,0.7-3.7c0.5-1,1.2-1.8,2-2.4 c0.9-0.5,1.8-0.8,2.9-0.8c1.1,0,2.1,0.3,2.9,0.8c0.9,0.5,1.5,1.3,2,2.4c0.5,1,0.7,2.3,0.7,3.7c0,1.4-0.2,2.7-0.7,3.7 c-0.5,1-1.2,1.8-2,2.4s-1.8,0.8-2.9,0.8C803,397.2,802.1,397,801.2,396.4z M806,393.6c0.5-0.7,0.7-1.8,0.7-3.2s-0.2-2.5-0.7-3.2 c-0.5-0.7-1.1-1-1.9-1c-0.8,0-1.4,0.3-1.9,1c-0.5,0.7-0.7,1.8-0.7,3.2s0.2,2.5,0.7,3.2c0.5,0.7,1.1,1,1.9,1 C804.9,394.6,805.6,394.3,806,393.6z"></path> <path class="st4" d="M812,389.9c-0.6-0.7-0.9-1.6-0.9-2.7c0-1.1,0.3-2,0.9-2.7s1.4-1,2.4-1c1,0,1.8,0.3,2.4,1 c0.6,0.7,0.9,1.6,0.9,2.7c0,1.1-0.3,2-0.9,2.7c-0.6,0.7-1.4,1-2.4,1C813.4,390.9,812.6,390.6,812,389.9z M815.4,388.8 c0.2-0.4,0.4-0.9,0.4-1.6c0-0.7-0.1-1.2-0.4-1.6c-0.2-0.4-0.6-0.5-1-0.5c-0.4,0-0.8,0.2-1,0.5c-0.3,0.4-0.4,0.9-0.4,1.6 s0.1,1.2,0.4,1.6c0.3,0.4,0.6,0.5,1,0.5C814.8,389.3,815.2,389.2,815.4,388.8z M822.3,383.7h2.3l-9.1,13.3h-2.3L822.3,383.7z M821.7,396.7c-0.5-0.3-0.9-0.7-1.2-1.3c-0.3-0.6-0.4-1.2-0.4-1.9c0-0.7,0.1-1.4,0.4-1.9c0.3-0.6,0.7-1,1.2-1.3 c0.5-0.3,1.1-0.4,1.7-0.4c1,0,1.8,0.3,2.4,1s0.9,1.6,0.9,2.7c0,1.1-0.3,2-0.9,2.7s-1.4,1-2.4,1C822.8,397.2,822.2,397,821.7,396.7 z M824.5,395.1c0.2-0.4,0.4-0.9,0.4-1.6s-0.1-1.2-0.4-1.6s-0.6-0.5-1-0.5c-0.4,0-0.8,0.2-1,0.5c-0.3,0.4-0.4,0.9-0.4,1.6 c0,0.7,0.1,1.2,0.4,1.6c0.3,0.4,0.6,0.5,1,0.5C823.9,395.6,824.2,395.4,824.5,395.1z"></path> </g> </g> <g> <g> <path class="st4" d="M797.2,505v2.5h-10.1v-2l5.1-4.8c0.5-0.5,0.9-1,1.1-1.3c0.2-0.4,0.3-0.7,0.3-1.1c0-0.5-0.2-0.9-0.5-1.2 c-0.4-0.3-0.9-0.4-1.6-0.4c-0.6,0-1.1,0.1-1.6,0.3c-0.5,0.2-0.9,0.6-1.2,1l-2.2-1.4c0.5-0.8,1.2-1.4,2.1-1.8 c0.9-0.4,2-0.7,3.1-0.7c1,0,1.9,0.2,2.6,0.5c0.7,0.3,1.3,0.8,1.7,1.4c0.4,0.6,0.6,1.3,0.6,2.1c0,0.7-0.2,1.4-0.5,2 c-0.3,0.6-0.9,1.4-1.8,2.2l-3.1,2.9H797.2z"></path> <path class="st4" d="M801.2,506.9c-0.9-0.5-1.5-1.3-2-2.4c-0.5-1-0.7-2.3-0.7-3.7s0.2-2.7,0.7-3.7c0.5-1,1.2-1.8,2-2.4 c0.9-0.5,1.8-0.8,2.9-0.8c1.1,0,2.1,0.3,2.9,0.8c0.9,0.5,1.5,1.3,2,2.4c0.5,1,0.7,2.3,0.7,3.7s-0.2,2.7-0.7,3.7s-1.2,1.8-2,2.4 c-0.9,0.5-1.8,0.8-2.9,0.8C803,507.7,802,507.5,801.2,506.9z M806,504.1c0.5-0.7,0.7-1.8,0.7-3.2c0-1.5-0.2-2.5-0.7-3.2 c-0.5-0.7-1.1-1-1.9-1c-0.8,0-1.4,0.3-1.9,1c-0.5,0.7-0.7,1.8-0.7,3.2c0,1.5,0.2,2.5,0.7,3.2c0.5,0.7,1.1,1,1.9,1 C804.9,505.1,805.5,504.8,806,504.1z"></path> <path class="st4" d="M812,500.4c-0.6-0.7-0.9-1.6-0.9-2.7c0-1.1,0.3-2,0.9-2.7s1.4-1,2.4-1c1,0,1.8,0.3,2.4,1 c0.6,0.7,0.9,1.6,0.9,2.7c0,1.1-0.3,2-0.9,2.7c-0.6,0.7-1.4,1-2.4,1C813.4,501.4,812.6,501.1,812,500.4z M815.4,499.3 c0.2-0.4,0.4-0.9,0.4-1.6c0-0.7-0.1-1.2-0.4-1.6c-0.2-0.4-0.6-0.5-1-0.5c-0.4,0-0.8,0.2-1,0.5c-0.3,0.4-0.4,0.9-0.4,1.6 c0,0.7,0.1,1.2,0.4,1.6c0.3,0.4,0.6,0.5,1,0.5C814.8,499.8,815.1,499.7,815.4,499.3z M822.3,494.2h2.3l-9.1,13.3h-2.3L822.3,494.2 z M821.7,507.2c-0.5-0.3-0.9-0.7-1.2-1.3c-0.3-0.6-0.4-1.2-0.4-1.9s0.1-1.4,0.4-1.9c0.3-0.6,0.7-1,1.2-1.3 c0.5-0.3,1.1-0.4,1.7-0.4c1,0,1.8,0.3,2.4,1s0.9,1.6,0.9,2.7s-0.3,2-0.9,2.7s-1.4,1-2.4,1C822.8,507.7,822.2,507.5,821.7,507.2z M824.4,505.6c0.2-0.4,0.4-0.9,0.4-1.6c0-0.7-0.1-1.2-0.4-1.6c-0.2-0.4-0.6-0.5-1-0.5c-0.4,0-0.8,0.2-1,0.5 c-0.3,0.4-0.4,0.9-0.4,1.6s0.1,1.2,0.4,1.6c0.3,0.4,0.6,0.5,1,0.5C823.8,506.1,824.2,505.9,824.4,505.6z"></path> </g> </g> <g> <path class="st3" d="M929.3,123.7l0-10.2l-5.1,8.5h-0.9l-5.1-8.4v10.1h-1.9v-14h1.6l5.8,9.8l5.8-9.8h1.6l0,14H929.3z"></path> <path class="st3" d="M936.9,123.1c-0.8-0.5-1.5-1.1-2-1.9c-0.5-0.8-0.7-1.8-0.7-2.8s0.2-2,0.7-2.8c0.5-0.8,1.1-1.5,2-1.9 s1.8-0.7,2.8-0.7s2,0.2,2.8,0.7s1.5,1.1,2,1.9c0.5,0.8,0.7,1.8,0.7,2.8s-0.2,2-0.7,2.8c-0.5,0.8-1.1,1.5-2,1.9s-1.8,0.7-2.8,0.7 S937.7,123.6,936.9,123.1z M941.5,121.6c0.5-0.3,1-0.8,1.3-1.3c0.3-0.6,0.5-1.2,0.5-2s-0.2-1.4-0.5-2s-0.7-1-1.3-1.3 c-0.5-0.3-1.2-0.5-1.8-0.5s-1.3,0.2-1.8,0.5c-0.5,0.3-1,0.7-1.3,1.3c-0.3,0.6-0.5,1.2-0.5,2s0.2,1.4,0.5,2c0.3,0.6,0.7,1,1.3,1.3 c0.5,0.3,1.2,0.5,1.8,0.5S941,122,941.5,121.6z"></path> <path class="st3" d="M956.7,114.1c0.8,0.8,1.2,1.9,1.2,3.4v6.1H956v-5.9c0-1-0.2-1.8-0.7-2.3c-0.5-0.5-1.2-0.8-2.1-0.8 c-1,0-1.9,0.3-2.5,0.9c-0.6,0.6-0.9,1.5-0.9,2.6v5.5h-1.9v-10.6h1.8v1.6c0.4-0.5,0.9-1,1.6-1.3s1.4-0.4,2.2-0.4 C954.9,113,955.9,113.4,956.7,114.1z"></path> <path class="st3" d="M967.4,123.1c-0.3,0.2-0.6,0.4-1,0.5c-0.4,0.1-0.8,0.2-1.3,0.2c-1.1,0-1.9-0.3-2.5-0.9 c-0.6-0.6-0.9-1.4-0.9-2.5v-5.8H960v-1.6h1.8v-2.3h1.9v2.3h3v1.6h-3v5.7c0,0.6,0.1,1,0.4,1.3s0.7,0.5,1.2,0.5 c0.6,0,1.1-0.2,1.5-0.5L967.4,123.1z"></path> <path class="st3" d="M978.6,114.1c0.8,0.8,1.2,1.9,1.2,3.4v6.1h-1.9v-5.9c0-1-0.2-1.8-0.7-2.3c-0.5-0.5-1.2-0.8-2.1-0.8 c-1,0-1.9,0.3-2.5,0.9c-0.6,0.6-0.9,1.5-0.9,2.6v5.5h-1.9v-14.8h1.9v5.7c0.4-0.5,0.9-0.9,1.6-1.2c0.6-0.3,1.4-0.4,2.2-0.4 C976.8,113,977.8,113.4,978.6,114.1z"></path> <path class="st3" d="M983.4,108.8h1.9v14.8h-1.9V108.8z"></path> <path class="st3" d="M998.3,113.1l-5.1,11.7c-0.5,1.1-1,1.8-1.6,2.3c-0.6,0.4-1.3,0.7-2.2,0.7c-0.5,0-1-0.1-1.5-0.2 c-0.5-0.2-0.9-0.4-1.2-0.7l0.8-1.4c0.5,0.5,1.2,0.8,1.9,0.8c0.5,0,0.9-0.1,1.2-0.4c0.3-0.2,0.6-0.7,0.8-1.3l0.3-0.7l-4.7-10.6h2 l3.7,8.5l3.7-8.5H998.3z"></path> </g> <circle class="st0" cx="898" cy="118.9" r="8.8"></circle> <g> <path class="st3" d="M936.1,142.5l-4.7,14h-2.1l-3.8-11.2l-3.8,11.2h-2.1l-4.7-14h2.1l3.8,11.4l3.9-11.4h1.8l3.9,11.4l3.9-11.4 H936.1z"></path> <path class="st3" d="M947,151.8h-8.6c0.1,0.9,0.5,1.7,1.2,2.2c0.7,0.6,1.6,0.9,2.6,0.9c1.3,0,2.3-0.4,3.1-1.3l1.1,1.2 c-0.5,0.6-1.1,1-1.8,1.3c-0.7,0.3-1.5,0.4-2.4,0.4c-1.1,0-2.1-0.2-3-0.7c-0.9-0.5-1.5-1.1-2-1.9c-0.5-0.8-0.7-1.8-0.7-2.8 c0-1,0.2-2,0.7-2.8c0.5-0.8,1.1-1.5,1.9-1.9s1.7-0.7,2.7-0.7c1,0,1.9,0.2,2.7,0.7s1.4,1.1,1.9,1.9c0.4,0.8,0.7,1.8,0.7,2.8 C947.1,151.4,947.1,151.6,947,151.8z M939.5,148.2c-0.6,0.6-1,1.3-1.1,2.2h6.8c-0.1-0.9-0.5-1.6-1.1-2.2c-0.6-0.6-1.4-0.8-2.3-0.8 S940.1,147.7,939.5,148.2z"></path> <path class="st3" d="M959.3,151.8h-8.6c0.1,0.9,0.5,1.7,1.2,2.2c0.7,0.6,1.6,0.9,2.6,0.9c1.3,0,2.3-0.4,3.1-1.3l1.1,1.2 c-0.5,0.6-1.1,1-1.8,1.3c-0.7,0.3-1.5,0.4-2.4,0.4c-1.1,0-2.1-0.2-3-0.7c-0.9-0.5-1.5-1.1-2-1.9c-0.5-0.8-0.7-1.8-0.7-2.8 c0-1,0.2-2,0.7-2.8c0.5-0.8,1.1-1.5,1.9-1.9s1.7-0.7,2.7-0.7c1,0,1.9,0.2,2.7,0.7s1.4,1.1,1.9,1.9c0.4,0.8,0.7,1.8,0.7,2.8 C959.3,151.4,959.3,151.6,959.3,151.8z M951.8,148.2c-0.6,0.6-1,1.3-1.1,2.2h6.8c-0.1-0.9-0.5-1.6-1.1-2.2 c-0.6-0.6-1.4-0.8-2.3-0.8S952.4,147.7,951.8,148.2z"></path> <path class="st3" d="M966.1,151.5l-2.2,2v2.9H962v-14.8h1.9v9.5l5.8-5.3h2.3l-4.5,4.4l4.9,6.2h-2.4L966.1,151.5z"></path> <path class="st3" d="M974.3,141.6h1.9v14.8h-1.9V141.6z"></path> <path class="st3" d="M989.2,145.9l-5.1,11.7c-0.5,1.1-1,1.8-1.6,2.3c-0.6,0.4-1.3,0.7-2.2,0.7c-0.5,0-1-0.1-1.5-0.2 s-0.9-0.4-1.2-0.7l0.8-1.4c0.5,0.5,1.2,0.8,1.9,0.8c0.5,0,0.9-0.1,1.2-0.4c0.3-0.2,0.6-0.7,0.8-1.3l0.3-0.7l-4.7-10.6h2l3.7,8.5 l3.7-8.5H989.2z"></path> </g> <circle class="st1" cx="898" cy="151.2" r="8.8"></circle> <g> <path class="st3" d="M916.3,175h5.9c1.5,0,2.8,0.3,3.9,0.9s2,1.4,2.7,2.5c0.6,1.1,0.9,2.3,0.9,3.7s-0.3,2.6-0.9,3.7 c-0.6,1.1-1.5,1.9-2.7,2.5s-2.5,0.9-3.9,0.9h-5.9V175z M922.1,187.3c1.1,0,2.1-0.2,3-0.7c0.9-0.4,1.5-1.1,2-1.8s0.7-1.7,0.7-2.8 s-0.2-2-0.7-2.8s-1.1-1.4-2-1.8c-0.9-0.4-1.9-0.7-3-0.7h-3.8v10.5H922.1z"></path> <path class="st3" d="M939.8,179.4c0.8,0.7,1.2,1.8,1.2,3.2v6.4h-1.8v-1.4c-0.3,0.5-0.8,0.9-1.4,1.1c-0.6,0.3-1.3,0.4-2.1,0.4 c-1.2,0-2.1-0.3-2.8-0.9c-0.7-0.6-1.1-1.3-1.1-2.3s0.3-1.7,1-2.2s1.8-0.8,3.2-0.8h3v-0.4c0-0.8-0.2-1.5-0.7-1.9 c-0.5-0.4-1.2-0.7-2.1-0.7c-0.6,0-1.2,0.1-1.8,0.3c-0.6,0.2-1.1,0.5-1.5,0.8l-0.8-1.4c0.5-0.4,1.2-0.8,2-1s1.6-0.4,2.4-0.4 C937.9,178.3,939,178.7,939.8,179.4z M937.9,187.2c0.5-0.3,0.9-0.8,1.2-1.4v-1.5h-3c-1.6,0-2.4,0.5-2.4,1.6c0,0.5,0.2,1,0.6,1.3 c0.4,0.3,1,0.5,1.7,0.5C936.7,187.7,937.4,187.5,937.9,187.2z"></path> <path class="st3" d="M944.6,176c-0.2-0.2-0.4-0.5-0.4-0.9s0.1-0.6,0.4-0.9c0.2-0.2,0.6-0.4,0.9-0.4c0.4,0,0.7,0.1,0.9,0.3 c0.2,0.2,0.4,0.5,0.4,0.9c0,0.4-0.1,0.7-0.4,0.9c-0.2,0.2-0.6,0.4-0.9,0.4C945.1,176.4,944.8,176.3,944.6,176z M944.5,178.4h1.9 V189h-1.9V178.4z"></path> <path class="st3" d="M950.1,174.2h1.9V189h-1.9V174.2z"></path> <path class="st3" d="M965.1,178.4l-5.1,11.7c-0.5,1.1-1,1.8-1.6,2.3c-0.6,0.4-1.3,0.7-2.2,0.7c-0.5,0-1-0.1-1.5-0.2 c-0.5-0.2-0.9-0.4-1.2-0.7l0.8-1.4c0.5,0.5,1.2,0.8,1.9,0.8c0.5,0,0.9-0.1,1.2-0.4c0.3-0.2,0.6-0.7,0.8-1.3l0.3-0.7l-4.7-10.6h2 l3.7,8.5l3.7-8.5H965.1z"></path> </g> <circle class="st2" cx="898" cy="183.5" r="8.8"></circle> </svg> 