<?xml version="1.0" encoding="UTF-8"?> <!-- Generator: Adobe Illustrator 24.1.0, SVG Export Plug-In . SVG Version: 6.00 Build 0) --> <svg xmlns="http://www.w3.org/2000/svg" xmlns:xlink="http://www.w3.org/1999/xlink" version="1.1" id="Layer_1" x="0px" y="0px" viewBox="0 0 1110 600.8" style="enable-background:new 0 0 1110 600.8;" xml:space="preserve"> <style type="text/css"> .st0{fill:#009DFD;} .st1{fill:#8500F2;} .st2{fill:#C0007B;} .st3{fill:#231F20;} .st4{fill:#009EFF;} .st5{fill:#00D800;} .st6{fill:#BA65F5;} .st7{fill:#FF00EF;} .st8{fill:#FFFFFF;} </style> <g> <path class="st3" d="M890.2,121.6c0.4,0.5,0.6,1.1,0.6,1.8c0,1-0.4,1.7-1.1,2.2s-1.8,0.8-3.2,0.8h-5.3v-11.2h5c1.3,0,2.3,0.3,3,0.8 c0.7,0.5,1,1.2,1,2.1c0,0.6-0.1,1.1-0.4,1.5c-0.3,0.4-0.6,0.8-1.1,1C889.3,120.8,889.8,121.1,890.2,121.6z M882.7,116.5v3.6h3.3 c0.8,0,1.5-0.2,1.9-0.5c0.4-0.3,0.7-0.7,0.7-1.3c0-0.6-0.2-1-0.7-1.3c-0.4-0.3-1.1-0.5-1.9-0.5H882.7z M888.5,124.7 c0.5-0.3,0.7-0.8,0.7-1.4c0-1.2-0.9-1.9-2.7-1.9h-3.7v3.7h3.7C887.3,125.1,888,125,888.5,124.7z"></path> <path class="st3" d="M900.6,122.7h-6.9c0.1,0.7,0.4,1.3,1,1.8c0.6,0.5,1.3,0.7,2.1,0.7c1,0,1.8-0.3,2.4-1l0.8,1 c-0.4,0.4-0.9,0.8-1.4,1c-0.6,0.2-1.2,0.4-1.9,0.4c-0.9,0-1.7-0.2-2.4-0.6s-1.2-0.9-1.6-1.5c-0.4-0.7-0.6-1.4-0.6-2.2 c0-0.8,0.2-1.6,0.6-2.2c0.4-0.7,0.9-1.2,1.5-1.5s1.4-0.6,2.2-0.6s1.5,0.2,2.2,0.6s1.1,0.9,1.5,1.5s0.5,1.4,0.5,2.3 C900.7,122.3,900.7,122.5,900.6,122.7z M894.6,119.8c-0.5,0.4-0.8,1-0.9,1.8h5.4c-0.1-0.7-0.4-1.3-0.9-1.8 c-0.5-0.5-1.1-0.7-1.8-0.7C895.8,119.1,895.1,119.4,894.6,119.8z"></path> <path class="st3" d="M907.6,125.9c-0.2,0.2-0.5,0.3-0.8,0.4c-0.3,0.1-0.7,0.2-1,0.2c-0.9,0-1.5-0.2-2-0.7s-0.7-1.1-0.7-2v-4.7h-1.4 v-1.3h1.4v-1.9h1.5v1.9h2.4v1.3h-2.4v4.6c0,0.5,0.1,0.8,0.3,1.1c0.2,0.2,0.6,0.4,1,0.4c0.5,0,0.9-0.1,1.2-0.4L907.6,125.9z"></path> <path class="st3" d="M914,125.9c-0.2,0.2-0.5,0.3-0.8,0.4c-0.3,0.1-0.7,0.2-1,0.2c-0.9,0-1.5-0.2-2-0.7s-0.7-1.1-0.7-2v-4.7H908 v-1.3h1.4v-1.9h1.5v1.9h2.4v1.3H911v4.6c0,0.5,0.1,0.8,0.3,1.1c0.2,0.2,0.6,0.4,1,0.4c0.5,0,0.9-0.1,1.2-0.4L914,125.9z"></path> <path class="st3" d="M923.2,122.7h-6.9c0.1,0.7,0.4,1.3,1,1.8c0.6,0.5,1.3,0.7,2.1,0.7c1,0,1.8-0.3,2.4-1l0.8,1 c-0.4,0.4-0.9,0.8-1.4,1c-0.6,0.2-1.2,0.4-1.9,0.4c-0.9,0-1.7-0.2-2.4-0.6s-1.2-0.9-1.6-1.5c-0.4-0.7-0.6-1.4-0.6-2.2 c0-0.8,0.2-1.6,0.6-2.2c0.4-0.7,0.9-1.2,1.5-1.5s1.4-0.6,2.2-0.6s1.5,0.2,2.2,0.6s1.1,0.9,1.5,1.5s0.5,1.4,0.5,2.3 C923.2,122.3,923.2,122.5,923.2,122.7z M917.2,119.8c-0.5,0.4-0.8,1-0.9,1.8h5.4c-0.1-0.7-0.4-1.3-0.9-1.8 c-0.5-0.5-1.1-0.7-1.8-0.7C918.3,119.1,917.7,119.4,917.2,119.8z"></path> <path class="st3" d="M928,118.2c0.5-0.3,1.2-0.4,1.9-0.4v1.5c-0.1,0-0.2,0-0.4,0c-0.8,0-1.5,0.2-2,0.7s-0.7,1.2-0.7,2.1v4.2h-1.5 v-8.5h1.5v1.4C927.1,118.9,927.5,118.5,928,118.2z"></path> <path class="st3" d="M945.5,121.6c0.4,0.5,0.6,1.1,0.6,1.8c0,1-0.4,1.7-1.1,2.2s-1.8,0.8-3.2,0.8h-5.3v-11.2h5c1.3,0,2.3,0.3,3,0.8 c0.7,0.5,1,1.2,1,2.1c0,0.6-0.1,1.1-0.4,1.5c-0.3,0.4-0.6,0.8-1.1,1C944.6,120.8,945.1,121.1,945.5,121.6z M938,116.5v3.6h3.3 c0.8,0,1.5-0.2,1.9-0.5c0.4-0.3,0.7-0.7,0.7-1.3c0-0.6-0.2-1-0.7-1.3c-0.4-0.3-1.1-0.5-1.9-0.5H938z M943.8,124.7 c0.5-0.3,0.7-0.8,0.7-1.4c0-1.2-0.9-1.9-2.7-1.9H938v3.7h3.7C942.6,125.1,943.3,125,943.8,124.7z"></path> <path class="st3" d="M954.1,118.7c0.6,0.6,0.9,1.4,0.9,2.6v5.1h-1.5v-1.1c-0.3,0.4-0.6,0.7-1.1,0.9s-1,0.3-1.7,0.3 c-0.9,0-1.7-0.2-2.3-0.7c-0.6-0.5-0.9-1.1-0.9-1.8c0-0.7,0.3-1.3,0.8-1.8c0.5-0.5,1.4-0.7,2.6-0.7h2.4v-0.3c0-0.7-0.2-1.2-0.6-1.5 c-0.4-0.4-0.9-0.5-1.7-0.5c-0.5,0-1,0.1-1.5,0.2c-0.5,0.2-0.9,0.4-1.2,0.7l-0.6-1.2c0.4-0.4,1-0.6,1.6-0.8c0.6-0.2,1.3-0.3,1.9-0.3 C952.6,117.8,953.5,118.1,954.1,118.7z M952.6,124.9c0.4-0.3,0.7-0.6,0.9-1.1v-1.2h-2.4c-1.3,0-2,0.4-2,1.3c0,0.4,0.2,0.8,0.5,1 c0.3,0.2,0.8,0.4,1.4,0.4C951.6,125.3,952.2,125.2,952.6,124.9z"></path> <path class="st3" d="M965,118.8c0.6,0.6,1,1.5,1,2.7v4.9h-1.5v-4.7c0-0.8-0.2-1.4-0.6-1.9s-1-0.6-1.7-0.6c-0.8,0-1.5,0.2-2,0.7 c-0.5,0.5-0.7,1.2-0.7,2.1v4.4h-1.5v-8.5h1.5v1.3c0.3-0.4,0.7-0.8,1.3-1c0.5-0.2,1.1-0.4,1.8-0.4 C963.5,117.8,964.4,118.2,965,118.8z"></path> <path class="st3" d="M972.1,122.5l-1.8,1.6v2.3h-1.5v-11.9h1.5v7.6l4.6-4.2h1.9l-3.6,3.5l3.9,5h-1.9L972.1,122.5z"></path> <path class="st3" d="M990.7,126.4l-2.4-3.4c-0.3,0-0.5,0-0.7,0h-2.8v3.4h-1.6v-11.2h4.4c1.5,0,2.6,0.3,3.4,1s1.2,1.6,1.2,2.9 c0,0.9-0.2,1.6-0.6,2.2c-0.4,0.6-1,1.1-1.8,1.3l2.7,3.8H990.7z M989.8,121c0.5-0.4,0.8-1.1,0.8-1.9s-0.3-1.4-0.8-1.9 c-0.5-0.4-1.3-0.6-2.3-0.6h-2.7v5h2.7C988.5,121.6,989.3,121.4,989.8,121z"></path> <path class="st3" d="M1002.2,122.7h-6.9c0.1,0.7,0.4,1.3,1,1.8c0.6,0.5,1.3,0.7,2.1,0.7c1,0,1.8-0.3,2.4-1l0.8,1 c-0.4,0.4-0.9,0.8-1.4,1c-0.6,0.2-1.2,0.4-1.9,0.4c-0.9,0-1.7-0.2-2.4-0.6s-1.2-0.9-1.6-1.5c-0.4-0.7-0.6-1.4-0.6-2.2 c0-0.8,0.2-1.6,0.6-2.2c0.4-0.7,0.9-1.2,1.5-1.5s1.4-0.6,2.2-0.6s1.5,0.2,2.2,0.6s1.1,0.9,1.5,1.5s0.5,1.4,0.5,2.3 C1002.2,122.3,1002.2,122.5,1002.2,122.7z M996.2,119.8c-0.5,0.4-0.8,1-0.9,1.8h5.4c-0.1-0.7-0.4-1.3-0.9-1.8 c-0.5-0.5-1.1-0.7-1.8-0.7C997.3,119.1,996.7,119.4,996.2,119.8z"></path> <path class="st3" d="M1017,117.9l-3.2,8.5h-1.5l-2.4-6.4l-2.5,6.4h-1.5l-3.2-8.5h1.5l2.5,6.8l2.6-6.8h1.3l2.5,6.8l2.5-6.8H1017z"></path> <path class="st3" d="M1024.1,118.7c0.6,0.6,0.9,1.4,0.9,2.6v5.1h-1.5v-1.1c-0.3,0.4-0.6,0.7-1.1,0.9s-1,0.3-1.7,0.3 c-0.9,0-1.7-0.2-2.3-0.7c-0.6-0.5-0.9-1.1-0.9-1.8c0-0.7,0.3-1.3,0.8-1.8c0.5-0.5,1.4-0.7,2.6-0.7h2.4v-0.3c0-0.7-0.2-1.2-0.6-1.5 c-0.4-0.4-0.9-0.5-1.7-0.5c-0.5,0-1,0.1-1.5,0.2c-0.5,0.2-0.9,0.4-1.2,0.7l-0.6-1.2c0.4-0.4,1-0.6,1.6-0.8c0.6-0.2,1.3-0.3,1.9-0.3 C1022.6,117.8,1023.5,118.1,1024.1,118.7z M1022.6,124.9c0.4-0.3,0.7-0.6,0.9-1.1v-1.2h-2.4c-1.3,0-2,0.4-2,1.3 c0,0.4,0.2,0.8,0.5,1c0.3,0.2,0.8,0.4,1.4,0.4C1021.6,125.3,1022.2,125.2,1022.6,124.9z"></path> <path class="st3" d="M1030.5,118.2c0.5-0.3,1.2-0.4,1.9-0.4v1.5c-0.1,0-0.2,0-0.4,0c-0.8,0-1.5,0.2-2,0.7s-0.7,1.2-0.7,2.1v4.2 h-1.5v-8.5h1.5v1.4C1029.6,118.9,1030,118.5,1030.5,118.2z"></path> <path class="st3" d="M1042.3,114.5v11.9h-1.5v-1.3c-0.3,0.5-0.8,0.8-1.3,1.1c-0.5,0.2-1.1,0.4-1.7,0.4c-0.8,0-1.6-0.2-2.2-0.5 c-0.7-0.4-1.2-0.9-1.5-1.5c-0.4-0.7-0.6-1.4-0.6-2.3c0-0.9,0.2-1.6,0.6-2.3c0.4-0.7,0.9-1.2,1.5-1.5c0.7-0.4,1.4-0.5,2.2-0.5 c0.6,0,1.2,0.1,1.7,0.3c0.5,0.2,0.9,0.6,1.3,1v-4.7H1042.3z M1039.3,124.8c0.4-0.2,0.8-0.6,1-1.1c0.2-0.5,0.4-1,0.4-1.6 c0-0.6-0.1-1.1-0.4-1.6c-0.2-0.5-0.6-0.8-1-1s-0.9-0.4-1.5-0.4c-0.5,0-1,0.1-1.5,0.4s-0.8,0.6-1,1c-0.2,0.5-0.4,1-0.4,1.6 c0,0.6,0.1,1.1,0.4,1.6c0.3,0.5,0.6,0.8,1,1.1c0.4,0.3,0.9,0.4,1.5,0.4C1038.4,125.2,1038.9,125,1039.3,124.8z"></path> <path class="st3" d="M1045.6,126.2c-0.6-0.2-1.1-0.4-1.5-0.7l0.6-1.2c0.4,0.3,0.8,0.5,1.4,0.6s1.1,0.2,1.6,0.2c1.3,0,2-0.4,2-1.2 c0-0.3-0.1-0.5-0.3-0.6c-0.2-0.1-0.4-0.3-0.7-0.3c-0.3-0.1-0.7-0.1-1.2-0.2c-0.7-0.1-1.2-0.2-1.7-0.4c-0.4-0.1-0.8-0.4-1.1-0.7 c-0.3-0.3-0.5-0.8-0.5-1.4c0-0.8,0.3-1.4,1-1.8c0.6-0.5,1.5-0.7,2.6-0.7c0.6,0,1.1,0.1,1.7,0.2s1,0.3,1.4,0.6l-0.7,1.2 c-0.7-0.4-1.5-0.7-2.4-0.7c-0.7,0-1.1,0.1-1.5,0.3c-0.3,0.2-0.5,0.5-0.5,0.8c0,0.3,0.1,0.5,0.3,0.7c0.2,0.2,0.4,0.3,0.7,0.4 c0.3,0.1,0.7,0.2,1.2,0.3c0.7,0.1,1.2,0.2,1.7,0.4c0.4,0.1,0.8,0.4,1.1,0.7c0.3,0.3,0.4,0.8,0.4,1.3c0,0.8-0.3,1.4-1,1.8 c-0.7,0.5-1.5,0.7-2.7,0.7C1046.9,126.5,1046.2,126.4,1045.6,126.2z"></path> </g> <circle class="st4" cx="866.3" cy="121.7" r="7.2"></circle> <g> <path class="st3" d="M890.2,148.3c0.4,0.5,0.6,1.1,0.6,1.8c0,1-0.4,1.7-1.1,2.2s-1.8,0.8-3.2,0.8h-5.3v-11.2h5c1.3,0,2.3,0.3,3,0.8 c0.7,0.5,1,1.2,1,2.1c0,0.6-0.1,1.1-0.4,1.5c-0.3,0.4-0.6,0.8-1.1,1C889.3,147.5,889.8,147.8,890.2,148.3z M882.7,143.2v3.6h3.3 c0.8,0,1.5-0.2,1.9-0.5c0.4-0.3,0.7-0.7,0.7-1.3c0-0.6-0.2-1-0.7-1.3c-0.4-0.3-1.1-0.5-1.9-0.5H882.7z M888.5,151.4 c0.5-0.3,0.7-0.8,0.7-1.4c0-1.2-0.9-1.9-2.7-1.9h-3.7v3.7h3.7C887.3,151.8,888,151.7,888.5,151.4z"></path> <path class="st3" d="M900.6,149.4h-6.9c0.1,0.7,0.4,1.3,1,1.8c0.6,0.5,1.3,0.7,2.1,0.7c1,0,1.8-0.3,2.4-1l0.8,1 c-0.4,0.4-0.9,0.8-1.4,1c-0.6,0.2-1.2,0.4-1.9,0.4c-0.9,0-1.7-0.2-2.4-0.6s-1.2-0.9-1.6-1.5c-0.4-0.7-0.6-1.4-0.6-2.2 c0-0.8,0.2-1.6,0.6-2.2c0.4-0.7,0.9-1.2,1.5-1.5s1.4-0.6,2.2-0.6s1.5,0.2,2.2,0.6s1.1,0.9,1.5,1.5s0.5,1.4,0.5,2.3 C900.7,149,900.7,149.2,900.6,149.4z M894.6,146.5c-0.5,0.4-0.8,1-0.9,1.8h5.4c-0.1-0.7-0.4-1.3-0.9-1.8c-0.5-0.5-1.1-0.7-1.8-0.7 C895.8,145.8,895.1,146.1,894.6,146.5z"></path> <path class="st3" d="M907.6,152.6c-0.2,0.2-0.5,0.3-0.8,0.4c-0.3,0.1-0.7,0.2-1,0.2c-0.9,0-1.5-0.2-2-0.7s-0.7-1.1-0.7-2v-4.7h-1.4 v-1.3h1.4v-1.9h1.5v1.9h2.4v1.3h-2.4v4.6c0,0.5,0.1,0.8,0.3,1.1c0.2,0.2,0.6,0.4,1,0.4c0.5,0,0.9-0.1,1.2-0.4L907.6,152.6z"></path> <path class="st3" d="M914,152.6c-0.2,0.2-0.5,0.3-0.8,0.4c-0.3,0.1-0.7,0.2-1,0.2c-0.9,0-1.5-0.2-2-0.7s-0.7-1.1-0.7-2v-4.7H908 v-1.3h1.4v-1.9h1.5v1.9h2.4v1.3H911v4.6c0,0.5,0.1,0.8,0.3,1.1c0.2,0.2,0.6,0.4,1,0.4c0.5,0,0.9-0.1,1.2-0.4L914,152.6z"></path> <path class="st3" d="M923.2,149.4h-6.9c0.1,0.7,0.4,1.3,1,1.8c0.6,0.5,1.3,0.7,2.1,0.7c1,0,1.8-0.3,2.4-1l0.8,1 c-0.4,0.4-0.9,0.8-1.4,1c-0.6,0.2-1.2,0.4-1.9,0.4c-0.9,0-1.7-0.2-2.4-0.6s-1.2-0.9-1.6-1.5c-0.4-0.7-0.6-1.4-0.6-2.2 c0-0.8,0.2-1.6,0.6-2.2c0.4-0.7,0.9-1.2,1.5-1.5s1.4-0.6,2.2-0.6s1.5,0.2,2.2,0.6s1.1,0.9,1.5,1.5s0.5,1.4,0.5,2.3 C923.2,149,923.2,149.2,923.2,149.4z M917.2,146.5c-0.5,0.4-0.8,1-0.9,1.8h5.4c-0.1-0.7-0.4-1.3-0.9-1.8c-0.5-0.5-1.1-0.7-1.8-0.7 C918.3,145.8,917.7,146.1,917.2,146.5z"></path> <path class="st3" d="M928,144.9c0.5-0.3,1.2-0.4,1.9-0.4v1.5c-0.1,0-0.2,0-0.4,0c-0.8,0-1.5,0.2-2,0.7s-0.7,1.2-0.7,2.1v4.2h-1.5 v-8.5h1.5v1.4C927.1,145.6,927.5,145.2,928,144.9z"></path> <path class="st3" d="M938.4,152.5c-0.9-0.5-1.6-1.2-2.1-2s-0.8-1.8-0.8-2.9c0-1.1,0.3-2.1,0.8-2.9c0.5-0.9,1.2-1.6,2.1-2 c0.9-0.5,1.9-0.7,3-0.7c0.9,0,1.7,0.1,2.4,0.4c0.7,0.3,1.3,0.7,1.9,1.3l-1,1c-0.8-0.9-1.9-1.3-3.2-1.3c-0.8,0-1.6,0.2-2.3,0.6 s-1.2,0.9-1.6,1.5c-0.4,0.7-0.6,1.4-0.6,2.2s0.2,1.5,0.6,2.2c0.4,0.7,0.9,1.2,1.6,1.5c0.7,0.4,1.4,0.6,2.3,0.6 c1.2,0,2.3-0.4,3.2-1.3l1,1c-0.5,0.6-1.1,1-1.9,1.3c-0.7,0.3-1.5,0.4-2.4,0.4C940.3,153.2,939.3,153,938.4,152.5z"></path> <path class="st3" d="M950.4,144.9c0.5-0.3,1.2-0.4,1.9-0.4v1.5c-0.1,0-0.2,0-0.4,0c-0.8,0-1.5,0.2-2,0.7s-0.7,1.2-0.7,2.1v4.2h-1.5 v-8.5h1.5v1.4C949.5,145.6,949.9,145.2,950.4,144.9z"></path> <path class="st3" d="M961.8,149.4h-6.9c0.1,0.7,0.4,1.3,1,1.8c0.6,0.5,1.3,0.7,2.1,0.7c1,0,1.8-0.3,2.4-1l0.8,1 c-0.4,0.4-0.9,0.8-1.4,1c-0.6,0.2-1.2,0.4-1.9,0.4c-0.9,0-1.7-0.2-2.4-0.6s-1.2-0.9-1.6-1.5c-0.4-0.7-0.6-1.4-0.6-2.2 c0-0.8,0.2-1.6,0.6-2.2c0.4-0.7,0.9-1.2,1.5-1.5s1.4-0.6,2.2-0.6s1.5,0.2,2.2,0.6s1.1,0.9,1.5,1.5s0.5,1.4,0.5,2.3 C961.8,149,961.8,149.2,961.8,149.4z M955.8,146.5c-0.5,0.4-0.8,1-0.9,1.8h5.4c-0.1-0.7-0.4-1.3-0.9-1.8c-0.5-0.5-1.1-0.7-1.8-0.7 C956.9,145.8,956.3,146.1,955.8,146.5z"></path> <path class="st3" d="M971.9,141.2v11.9h-1.5v-1.3c-0.3,0.5-0.8,0.8-1.3,1.1c-0.5,0.2-1.1,0.4-1.7,0.4c-0.8,0-1.6-0.2-2.2-0.5 c-0.7-0.4-1.2-0.9-1.5-1.5c-0.4-0.7-0.6-1.4-0.6-2.3c0-0.9,0.2-1.6,0.6-2.3c0.4-0.7,0.9-1.2,1.5-1.5c0.7-0.4,1.4-0.5,2.2-0.5 c0.6,0,1.2,0.1,1.7,0.3c0.5,0.2,0.9,0.6,1.3,1v-4.7H971.9z M969,151.5c0.4-0.2,0.8-0.6,1-1.1c0.2-0.5,0.4-1,0.4-1.6 c0-0.6-0.1-1.1-0.4-1.6c-0.2-0.5-0.6-0.8-1-1s-0.9-0.4-1.5-0.4c-0.5,0-1,0.1-1.5,0.4s-0.8,0.6-1,1c-0.2,0.5-0.4,1-0.4,1.6 c0,0.6,0.1,1.1,0.4,1.6c0.3,0.5,0.6,0.8,1,1.1c0.4,0.3,0.9,0.4,1.5,0.4C968.1,151.9,968.6,151.7,969,151.5z"></path> <path class="st3" d="M974.9,142.7c-0.2-0.2-0.3-0.4-0.3-0.7s0.1-0.5,0.3-0.7c0.2-0.2,0.4-0.3,0.7-0.3s0.5,0.1,0.7,0.3 s0.3,0.4,0.3,0.7c0,0.3-0.1,0.5-0.3,0.7s-0.4,0.3-0.7,0.3S975.1,142.9,974.9,142.7z M974.9,144.6h1.5v8.5h-1.5V144.6z"></path> <path class="st3" d="M984.1,152.6c-0.2,0.2-0.5,0.3-0.8,0.4c-0.3,0.1-0.7,0.2-1,0.2c-0.9,0-1.5-0.2-2-0.7s-0.7-1.1-0.7-2v-4.7h-1.4 v-1.3h1.4v-1.9h1.5v1.9h2.4v1.3h-2.4v4.6c0,0.5,0.1,0.8,0.3,1.1c0.2,0.2,0.6,0.4,1,0.4c0.5,0,0.9-0.1,1.2-0.4L984.1,152.6z"></path> <path class="st3" d="M883.1,171.7c-0.9-0.5-1.6-1.2-2.1-2s-0.8-1.8-0.8-2.9c0-1.1,0.3-2.1,0.8-2.9c0.5-0.9,1.2-1.6,2.1-2 c0.9-0.5,1.9-0.7,3-0.7c0.9,0,1.7,0.1,2.4,0.4c0.7,0.3,1.3,0.7,1.9,1.3l-1,1c-0.8-0.9-1.9-1.3-3.2-1.3c-0.8,0-1.6,0.2-2.3,0.6 s-1.2,0.9-1.6,1.5c-0.4,0.7-0.6,1.4-0.6,2.2s0.2,1.5,0.6,2.2c0.4,0.7,0.9,1.2,1.6,1.5c0.7,0.4,1.4,0.6,2.3,0.6 c1.2,0,2.3-0.4,3.2-1.3l1,1c-0.5,0.6-1.1,1-1.9,1.3c-0.7,0.3-1.5,0.4-2.4,0.4C885,172.4,884,172.2,883.1,171.7z"></path> <path class="st3" d="M898.1,164.6c0.6,0.6,0.9,1.4,0.9,2.6v5.1h-1.5v-1.1c-0.3,0.4-0.6,0.7-1.1,0.9s-1,0.3-1.7,0.3 c-0.9,0-1.7-0.2-2.3-0.7c-0.6-0.5-0.9-1.1-0.9-1.8c0-0.7,0.3-1.3,0.8-1.8c0.5-0.5,1.4-0.7,2.6-0.7h2.4v-0.3c0-0.7-0.2-1.2-0.6-1.5 c-0.4-0.4-0.9-0.5-1.7-0.5c-0.5,0-1,0.1-1.5,0.2c-0.5,0.2-0.9,0.4-1.2,0.7l-0.6-1.2c0.4-0.4,1-0.6,1.6-0.8c0.6-0.2,1.3-0.3,1.9-0.3 C896.6,163.7,897.5,164,898.1,164.6z M896.6,170.8c0.4-0.3,0.7-0.6,0.9-1.1v-1.2h-2.4c-1.3,0-2,0.4-2,1.3c0,0.4,0.2,0.8,0.5,1 c0.3,0.2,0.8,0.4,1.4,0.4C895.7,171.2,896.2,171.1,896.6,170.8z"></path> <path class="st3" d="M904.6,164.1c0.5-0.3,1.2-0.4,1.9-0.4v1.5c-0.1,0-0.2,0-0.4,0c-0.8,0-1.5,0.2-2,0.7s-0.7,1.2-0.7,2.1v4.2h-1.5 v-8.5h1.5v1.4C903.7,164.8,904.1,164.4,904.6,164.1z"></path> <path class="st3" d="M916.3,160.4v11.9h-1.5V171c-0.3,0.5-0.8,0.8-1.3,1.1c-0.5,0.2-1.1,0.4-1.7,0.4c-0.8,0-1.6-0.2-2.2-0.5 c-0.7-0.4-1.2-0.9-1.5-1.5c-0.4-0.7-0.6-1.4-0.6-2.3c0-0.9,0.2-1.6,0.6-2.3c0.4-0.7,0.9-1.2,1.5-1.5c0.7-0.4,1.4-0.5,2.2-0.5 c0.6,0,1.2,0.1,1.7,0.3c0.5,0.2,0.9,0.6,1.3,1v-4.7H916.3z M913.4,170.7c0.4-0.2,0.8-0.6,1-1.1c0.2-0.5,0.4-1,0.4-1.6 c0-0.6-0.1-1.1-0.4-1.6c-0.2-0.5-0.6-0.8-1-1s-0.9-0.4-1.5-0.4c-0.5,0-1,0.1-1.5,0.4s-0.8,0.6-1,1c-0.2,0.5-0.4,1-0.4,1.6 c0,0.6,0.1,1.1,0.4,1.6c0.3,0.5,0.6,0.8,1,1.1c0.4,0.3,0.9,0.4,1.5,0.4C912.5,171.1,912.9,170.9,913.4,170.7z"></path> <path class="st3" d="M931.2,172.3l-2.4-3.4c-0.3,0-0.5,0-0.7,0h-2.8v3.4h-1.6v-11.2h4.4c1.5,0,2.6,0.3,3.4,1s1.2,1.6,1.2,2.9 c0,0.9-0.2,1.6-0.6,2.2c-0.4,0.6-1,1.1-1.8,1.3l2.7,3.8H931.2z M930.4,166.9c0.5-0.4,0.8-1.1,0.8-1.9s-0.3-1.4-0.8-1.9 c-0.5-0.4-1.3-0.6-2.3-0.6h-2.7v5h2.7C929.1,167.5,929.8,167.3,930.4,166.9z"></path> <path class="st3" d="M942.8,168.6h-6.9c0.1,0.7,0.4,1.3,1,1.8c0.6,0.5,1.3,0.7,2.1,0.7c1,0,1.8-0.3,2.4-1l0.8,1 c-0.4,0.4-0.9,0.8-1.4,1c-0.6,0.2-1.2,0.4-1.9,0.4c-0.9,0-1.7-0.2-2.4-0.6s-1.2-0.9-1.6-1.5c-0.4-0.7-0.6-1.4-0.6-2.2 c0-0.8,0.2-1.6,0.6-2.2c0.4-0.7,0.9-1.2,1.5-1.5s1.4-0.6,2.2-0.6s1.5,0.2,2.2,0.6s1.1,0.9,1.5,1.5s0.5,1.4,0.5,2.3 C942.8,168.2,942.8,168.4,942.8,168.6z M936.8,165.7c-0.5,0.4-0.8,1-0.9,1.8h5.4c-0.1-0.7-0.4-1.3-0.9-1.8 c-0.5-0.5-1.1-0.7-1.8-0.7C937.9,165,937.3,165.3,936.8,165.7z"></path> <path class="st3" d="M957.6,163.8l-3.2,8.5H953l-2.4-6.4l-2.5,6.4h-1.5l-3.2-8.5h1.5l2.5,6.8l2.6-6.8h1.3l2.5,6.8l2.5-6.8H957.6z"></path> <path class="st3" d="M964.7,164.6c0.6,0.6,0.9,1.4,0.9,2.6v5.1h-1.5v-1.1c-0.3,0.4-0.6,0.7-1.1,0.9s-1,0.3-1.7,0.3 c-0.9,0-1.7-0.2-2.3-0.7c-0.6-0.5-0.9-1.1-0.9-1.8c0-0.7,0.3-1.3,0.8-1.8c0.5-0.5,1.4-0.7,2.6-0.7h2.4v-0.3c0-0.7-0.2-1.2-0.6-1.5 c-0.4-0.4-0.9-0.5-1.7-0.5c-0.5,0-1,0.1-1.5,0.2c-0.5,0.2-0.9,0.4-1.2,0.7l-0.6-1.2c0.4-0.4,1-0.6,1.6-0.8c0.6-0.2,1.3-0.3,1.9-0.3 C963.1,163.7,964,164,964.7,164.6z M963.1,170.8c0.4-0.3,0.7-0.6,0.9-1.1v-1.2h-2.4c-1.3,0-2,0.4-2,1.3c0,0.4,0.2,0.8,0.5,1 c0.3,0.2,0.8,0.4,1.4,0.4C962.2,171.2,962.7,171.1,963.1,170.8z"></path> <path class="st3" d="M971.1,164.1c0.5-0.3,1.2-0.4,1.9-0.4v1.5c-0.1,0-0.2,0-0.4,0c-0.8,0-1.5,0.2-2,0.7s-0.7,1.2-0.7,2.1v4.2h-1.5 v-8.5h1.5v1.4C970.2,164.8,970.6,164.4,971.1,164.1z"></path> <path class="st3" d="M982.8,160.4v11.9h-1.5V171c-0.3,0.5-0.8,0.8-1.3,1.1c-0.5,0.2-1.1,0.4-1.7,0.4c-0.8,0-1.6-0.2-2.2-0.5 c-0.7-0.4-1.2-0.9-1.5-1.5c-0.4-0.7-0.6-1.4-0.6-2.3c0-0.9,0.2-1.6,0.6-2.3c0.4-0.7,0.9-1.2,1.5-1.5c0.7-0.4,1.4-0.5,2.2-0.5 c0.6,0,1.2,0.1,1.7,0.3c0.5,0.2,0.9,0.6,1.3,1v-4.7H982.8z M979.9,170.7c0.4-0.2,0.8-0.6,1-1.1c0.2-0.5,0.4-1,0.4-1.6 c0-0.6-0.1-1.1-0.4-1.6c-0.2-0.5-0.6-0.8-1-1s-0.9-0.4-1.5-0.4c-0.5,0-1,0.1-1.5,0.4s-0.8,0.6-1,1c-0.2,0.5-0.4,1-0.4,1.6 c0,0.6,0.1,1.1,0.4,1.6c0.3,0.5,0.6,0.8,1,1.1c0.4,0.3,0.9,0.4,1.5,0.4C979,171.1,979.5,170.9,979.9,170.7z"></path> <path class="st3" d="M986.2,172.1c-0.6-0.2-1.1-0.4-1.5-0.7l0.6-1.2c0.4,0.3,0.8,0.5,1.4,0.6s1.1,0.2,1.6,0.2c1.3,0,2-0.4,2-1.2 c0-0.3-0.1-0.5-0.3-0.6c-0.2-0.1-0.4-0.3-0.7-0.3c-0.3-0.1-0.7-0.1-1.2-0.2c-0.7-0.1-1.2-0.2-1.7-0.4c-0.4-0.1-0.8-0.4-1.1-0.7 c-0.3-0.3-0.5-0.8-0.5-1.4c0-0.8,0.3-1.4,1-1.8c0.6-0.5,1.5-0.7,2.6-0.7c0.6,0,1.1,0.1,1.7,0.2s1,0.3,1.4,0.6l-0.7,1.2 c-0.7-0.4-1.5-0.7-2.4-0.7c-0.7,0-1.1,0.1-1.5,0.3c-0.3,0.2-0.5,0.5-0.5,0.8c0,0.3,0.1,0.5,0.3,0.7c0.2,0.2,0.4,0.3,0.7,0.4 c0.3,0.1,0.7,0.2,1.2,0.3c0.7,0.1,1.2,0.2,1.7,0.4c0.4,0.1,0.8,0.4,1.1,0.7c0.3,0.3,0.4,0.8,0.4,1.3c0,0.8-0.3,1.4-1,1.8 c-0.7,0.5-1.5,0.7-2.7,0.7C987.5,172.4,986.8,172.3,986.2,172.1z"></path> </g> <circle class="st5" cx="866.3" cy="148" r="7.2"></circle> <g> <path class="st3" d="M883.1,199.2c-0.9-0.5-1.6-1.2-2.1-2s-0.8-1.8-0.8-2.9c0-1.1,0.3-2.1,0.8-2.9c0.5-0.9,1.2-1.6,2.1-2 c0.9-0.5,1.9-0.7,3-0.7c0.9,0,1.7,0.1,2.4,0.4c0.7,0.3,1.3,0.7,1.9,1.3l-1,1c-0.8-0.9-1.9-1.3-3.2-1.3c-0.8,0-1.6,0.2-2.3,0.6 s-1.2,0.9-1.6,1.5c-0.4,0.7-0.6,1.4-0.6,2.2s0.2,1.5,0.6,2.2c0.4,0.7,0.9,1.2,1.6,1.5c0.7,0.4,1.4,0.6,2.3,0.6 c1.2,0,2.3-0.4,3.2-1.3l1,1c-0.5,0.6-1.1,1-1.9,1.3c-0.7,0.3-1.5,0.4-2.4,0.4C885,199.9,884,199.7,883.1,199.2z"></path> <path class="st3" d="M893.5,199.3c-0.7-0.4-1.2-0.9-1.6-1.5c-0.4-0.7-0.6-1.4-0.6-2.2s0.2-1.6,0.6-2.2c0.4-0.7,0.9-1.2,1.6-1.5 c0.7-0.4,1.4-0.6,2.3-0.6s1.6,0.2,2.3,0.6c0.7,0.4,1.2,0.9,1.6,1.5c0.4,0.7,0.6,1.4,0.6,2.2s-0.2,1.6-0.6,2.2s-0.9,1.2-1.6,1.5 c-0.7,0.4-1.4,0.6-2.3,0.6S894.2,199.7,893.5,199.3z M897.2,198.1c0.4-0.2,0.8-0.6,1-1.1c0.2-0.5,0.4-1,0.4-1.6 c0-0.6-0.1-1.1-0.4-1.6c-0.2-0.5-0.6-0.8-1-1c-0.4-0.2-0.9-0.4-1.5-0.4s-1,0.1-1.5,0.4s-0.8,0.6-1,1c-0.2,0.5-0.4,1-0.4,1.6 c0,0.6,0.1,1.1,0.4,1.6c0.3,0.5,0.6,0.8,1,1.1c0.4,0.3,0.9,0.4,1.5,0.4S896.8,198.4,897.2,198.1z"></path> <path class="st3" d="M909.4,192.1c0.6,0.6,1,1.5,1,2.7v4.9h-1.5v-4.7c0-0.8-0.2-1.4-0.6-1.9s-1-0.6-1.7-0.6c-0.8,0-1.5,0.2-2,0.7 c-0.5,0.5-0.7,1.2-0.7,2.1v4.4h-1.5v-8.5h1.5v1.3c0.3-0.4,0.7-0.8,1.3-1c0.5-0.2,1.1-0.4,1.8-0.4 C907.9,191.2,908.7,191.5,909.4,192.1z"></path> <path class="st3" d="M914.6,199.3c-0.7-0.4-1.2-0.9-1.6-1.5s-0.6-1.4-0.6-2.2s0.2-1.6,0.6-2.2c0.4-0.7,0.9-1.2,1.6-1.5 s1.4-0.6,2.3-0.6c0.8,0,1.5,0.2,2.1,0.5s1.1,0.8,1.4,1.3l-1.2,0.8c-0.3-0.4-0.6-0.7-1-0.9c-0.4-0.2-0.8-0.3-1.3-0.3 c-0.6,0-1.1,0.1-1.5,0.4s-0.8,0.6-1,1c-0.2,0.5-0.4,1-0.4,1.6c0,0.6,0.1,1.1,0.4,1.6c0.3,0.5,0.6,0.8,1,1c0.4,0.2,0.9,0.4,1.5,0.4 c0.5,0,0.9-0.1,1.3-0.3c0.4-0.2,0.7-0.5,1-0.9l1.2,0.7c-0.3,0.6-0.8,1-1.4,1.4s-1.3,0.5-2.1,0.5 C916.1,199.9,915.3,199.7,914.6,199.3z"></path> <path class="st3" d="M929.9,196H923c0.1,0.7,0.4,1.3,1,1.8c0.6,0.5,1.3,0.7,2.1,0.7c1,0,1.8-0.3,2.4-1l0.8,1 c-0.4,0.4-0.9,0.8-1.4,1c-0.6,0.2-1.2,0.4-1.9,0.4c-0.9,0-1.7-0.2-2.4-0.6s-1.2-0.9-1.6-1.5c-0.4-0.7-0.6-1.4-0.6-2.2 c0-0.8,0.2-1.6,0.6-2.2c0.4-0.7,0.9-1.2,1.5-1.5s1.4-0.6,2.2-0.6s1.5,0.2,2.2,0.6s1.1,0.9,1.5,1.5s0.5,1.4,0.5,2.3 C929.9,195.7,929.9,195.9,929.9,196z M923.9,193.2c-0.5,0.4-0.8,1-0.9,1.8h5.4c-0.1-0.7-0.4-1.3-0.9-1.8c-0.5-0.5-1.1-0.7-1.8-0.7 C925,192.5,924.3,192.7,923.9,193.2z"></path> <path class="st3" d="M934.7,191.6c0.5-0.3,1.2-0.4,1.9-0.4v1.5c-0.1,0-0.2,0-0.4,0c-0.8,0-1.5,0.2-2,0.7s-0.7,1.2-0.7,2.1v4.2H932 v-8.5h1.5v1.4C933.8,192.2,934.2,191.9,934.7,191.6z"></path> <path class="st3" d="M945.6,192.1c0.6,0.6,1,1.5,1,2.7v4.9H945v-4.7c0-0.8-0.2-1.4-0.6-1.9s-1-0.6-1.7-0.6c-0.8,0-1.5,0.2-2,0.7 c-0.5,0.5-0.7,1.2-0.7,2.1v4.4h-1.5v-8.5h1.5v1.3c0.3-0.4,0.7-0.8,1.3-1c0.5-0.2,1.1-0.4,1.8-0.4 C944.1,191.2,944.9,191.5,945.6,192.1z"></path> <path class="st3" d="M957,196h-6.9c0.1,0.7,0.4,1.3,1,1.8c0.6,0.5,1.3,0.7,2.1,0.7c1,0,1.8-0.3,2.4-1l0.8,1c-0.4,0.4-0.9,0.8-1.4,1 c-0.6,0.2-1.2,0.4-1.9,0.4c-0.9,0-1.7-0.2-2.4-0.6s-1.2-0.9-1.6-1.5c-0.4-0.7-0.6-1.4-0.6-2.2c0-0.8,0.2-1.6,0.6-2.2 c0.4-0.7,0.9-1.2,1.5-1.5s1.4-0.6,2.2-0.6s1.5,0.2,2.2,0.6s1.1,0.9,1.5,1.5s0.5,1.4,0.5,2.3C957.1,195.7,957.1,195.9,957,196z M951,193.2c-0.5,0.4-0.8,1-0.9,1.8h5.4c-0.1-0.7-0.4-1.3-0.9-1.8c-0.5-0.5-1.1-0.7-1.8-0.7C952.1,192.5,951.5,192.7,951,193.2z"></path> <path class="st3" d="M967.2,187.9v11.9h-1.5v-1.3c-0.3,0.5-0.8,0.8-1.3,1.1c-0.5,0.2-1.1,0.4-1.7,0.4c-0.8,0-1.6-0.2-2.2-0.5 c-0.7-0.4-1.2-0.9-1.5-1.5c-0.4-0.7-0.6-1.4-0.6-2.3c0-0.9,0.2-1.6,0.6-2.3c0.4-0.7,0.9-1.2,1.5-1.5c0.7-0.4,1.4-0.5,2.2-0.5 c0.6,0,1.2,0.1,1.7,0.3c0.5,0.2,0.9,0.6,1.3,1v-4.7H967.2z M964.3,198.1c0.4-0.2,0.8-0.6,1-1.1c0.2-0.5,0.4-1,0.4-1.6 c0-0.6-0.1-1.1-0.4-1.6c-0.2-0.5-0.6-0.8-1-1s-0.9-0.4-1.5-0.4c-0.5,0-1,0.1-1.5,0.4s-0.8,0.6-1,1c-0.2,0.5-0.4,1-0.4,1.6 c0,0.6,0.1,1.1,0.4,1.6c0.3,0.5,0.6,0.8,1,1.1c0.4,0.3,0.9,0.4,1.5,0.4C963.4,198.5,963.9,198.4,964.3,198.1z"></path> <path class="st3" d="M981.8,197h-6l-1.2,2.8h-1.6l5.1-11.2h1.6l5.1,11.2H983L981.8,197z M981.2,195.7l-2.4-5.5l-2.4,5.5H981.2z"></path> <path class="st3" d="M992.8,191.8c0.7,0.4,1.2,0.9,1.5,1.5c0.4,0.7,0.6,1.4,0.6,2.3c0,0.9-0.2,1.6-0.6,2.3 c-0.4,0.7-0.9,1.2-1.5,1.5c-0.7,0.4-1.4,0.5-2.2,0.5c-0.6,0-1.2-0.1-1.7-0.4c-0.5-0.2-1-0.6-1.3-1.1v1.3h-1.5v-11.9h1.5v4.7 c0.3-0.4,0.8-0.8,1.3-1c0.5-0.2,1.1-0.3,1.7-0.3C991.4,191.2,992.2,191.4,992.8,191.8z M992,198.1c0.4-0.2,0.8-0.6,1-1.1 c0.3-0.5,0.4-1,0.4-1.6c0-0.6-0.1-1.1-0.4-1.6c-0.2-0.5-0.6-0.8-1-1c-0.4-0.2-0.9-0.4-1.5-0.4c-0.5,0-1,0.1-1.5,0.4s-0.8,0.6-1,1 s-0.4,1-0.4,1.6c0,0.6,0.1,1.1,0.4,1.6s0.6,0.8,1,1.1c0.4,0.3,0.9,0.4,1.5,0.4C991,198.5,991.5,198.4,992,198.1z"></path> <path class="st3" d="M998.4,199.3c-0.7-0.4-1.2-0.9-1.6-1.5c-0.4-0.7-0.6-1.4-0.6-2.2s0.2-1.6,0.6-2.2c0.4-0.7,0.9-1.2,1.6-1.5 c0.7-0.4,1.4-0.6,2.3-0.6s1.6,0.2,2.3,0.6c0.7,0.4,1.2,0.9,1.6,1.5c0.4,0.7,0.6,1.4,0.6,2.2s-0.2,1.6-0.6,2.2s-0.9,1.2-1.6,1.5 c-0.7,0.4-1.4,0.6-2.3,0.6S999.1,199.7,998.4,199.3z M1002.1,198.1c0.4-0.2,0.8-0.6,1-1.1c0.2-0.5,0.4-1,0.4-1.6 c0-0.6-0.1-1.1-0.4-1.6c-0.2-0.5-0.6-0.8-1-1c-0.4-0.2-0.9-0.4-1.5-0.4s-1,0.1-1.5,0.4s-0.8,0.6-1,1c-0.2,0.5-0.4,1-0.4,1.6 c0,0.6,0.1,1.1,0.4,1.6c0.3,0.5,0.6,0.8,1,1.1c0.4,0.3,0.9,0.4,1.5,0.4S1001.7,198.4,1002.1,198.1z"></path> <path class="st3" d="M1015.1,191.3v8.5h-1.5v-1.3c-0.3,0.4-0.7,0.8-1.2,1c-0.5,0.2-1.1,0.4-1.7,0.4c-1.1,0-2-0.3-2.7-0.9 c-0.7-0.6-1-1.5-1-2.8v-4.9h1.5v4.7c0,0.8,0.2,1.4,0.6,1.9c0.4,0.4,1,0.6,1.7,0.6c0.8,0,1.5-0.2,1.9-0.7c0.5-0.5,0.7-1.2,0.7-2.1 v-4.4H1015.1z"></path> <path class="st3" d="M1022.8,199.3c-0.2,0.2-0.5,0.3-0.8,0.4c-0.3,0.1-0.7,0.2-1,0.2c-0.9,0-1.5-0.2-2-0.7s-0.7-1.1-0.7-2v-4.7 h-1.4v-1.3h1.4v-1.9h1.5v1.9h2.4v1.3h-2.4v4.6c0,0.5,0.1,0.8,0.3,1.1c0.2,0.2,0.6,0.4,1,0.4c0.5,0,0.9-0.1,1.2-0.4L1022.8,199.3z"></path> <path class="st3" d="M881.1,207.8h4.7c1.2,0,2.2,0.2,3.2,0.7c0.9,0.5,1.6,1.1,2.1,2c0.5,0.8,0.8,1.8,0.8,2.9s-0.3,2.1-0.8,2.9 c-0.5,0.8-1.2,1.5-2.1,2c-0.9,0.5-2,0.7-3.2,0.7h-4.7V207.8z M885.8,217.6c0.9,0,1.7-0.2,2.4-0.5c0.7-0.4,1.2-0.8,1.6-1.5 c0.4-0.6,0.6-1.4,0.6-2.2s-0.2-1.6-0.6-2.2c-0.4-0.6-0.9-1.1-1.6-1.5c-0.7-0.4-1.5-0.5-2.4-0.5h-3v8.4H885.8z"></path> <path class="st3" d="M899.9,211.3c0.6,0.6,0.9,1.4,0.9,2.6v5.1h-1.5v-1.1c-0.3,0.4-0.6,0.7-1.1,0.9s-1,0.3-1.7,0.3 c-0.9,0-1.7-0.2-2.3-0.7c-0.6-0.5-0.9-1.1-0.9-1.8c0-0.7,0.3-1.3,0.8-1.8c0.5-0.5,1.4-0.7,2.6-0.7h2.4v-0.3c0-0.7-0.2-1.2-0.6-1.5 c-0.4-0.4-0.9-0.5-1.7-0.5c-0.5,0-1,0.1-1.5,0.2c-0.5,0.2-0.9,0.4-1.2,0.7l-0.6-1.2c0.4-0.4,1-0.6,1.6-0.8c0.6-0.2,1.3-0.3,1.9-0.3 C898.4,210.4,899.3,210.7,899.9,211.3z M898.4,217.5c0.4-0.3,0.7-0.6,0.9-1.1v-1.2h-2.4c-1.3,0-2,0.4-2,1.3c0,0.4,0.2,0.8,0.5,1 c0.3,0.2,0.8,0.4,1.4,0.4C897.4,217.9,897.9,217.8,898.4,217.5z"></path> <path class="st3" d="M908.5,218.5c-0.2,0.2-0.5,0.3-0.8,0.4c-0.3,0.1-0.7,0.2-1,0.2c-0.9,0-1.5-0.2-2-0.7s-0.7-1.1-0.7-2v-4.7h-1.4 v-1.3h1.4v-1.9h1.5v1.9h2.4v1.3h-2.4v4.6c0,0.5,0.1,0.8,0.3,1.1c0.2,0.2,0.6,0.4,1,0.4c0.5,0,0.9-0.1,1.2-0.4L908.5,218.5z"></path> <path class="st3" d="M916.1,211.3c0.6,0.6,0.9,1.4,0.9,2.6v5.1h-1.5v-1.1c-0.3,0.4-0.6,0.7-1.1,0.9s-1,0.3-1.7,0.3 c-0.9,0-1.7-0.2-2.3-0.7c-0.6-0.5-0.9-1.1-0.9-1.8c0-0.7,0.3-1.3,0.8-1.8c0.5-0.5,1.4-0.7,2.6-0.7h2.4v-0.3c0-0.7-0.2-1.2-0.6-1.5 c-0.4-0.4-0.9-0.5-1.7-0.5c-0.5,0-1,0.1-1.5,0.2c-0.5,0.2-0.9,0.4-1.2,0.7l-0.6-1.2c0.4-0.4,1-0.6,1.6-0.8c0.6-0.2,1.3-0.3,1.9-0.3 C914.6,210.4,915.5,210.7,916.1,211.3z M914.6,217.5c0.4-0.3,0.7-0.6,0.9-1.1v-1.2h-2.4c-1.3,0-2,0.4-2,1.3c0,0.4,0.2,0.8,0.5,1 c0.3,0.2,0.8,0.4,1.4,0.4C913.6,217.9,914.1,217.8,914.6,217.5z"></path> <path class="st3" d="M925.2,218.7c-0.8-0.3-1.4-0.6-1.8-1l0.6-1.2c0.4,0.4,1,0.7,1.6,0.9c0.7,0.2,1.4,0.4,2.1,0.4 c0.9,0,1.6-0.2,2.1-0.5c0.5-0.3,0.7-0.7,0.7-1.3c0-0.4-0.1-0.7-0.4-0.9c-0.3-0.2-0.6-0.4-0.9-0.6s-0.9-0.3-1.6-0.4 c-0.8-0.2-1.5-0.4-2-0.6c-0.5-0.2-1-0.5-1.3-0.9c-0.4-0.4-0.6-1-0.6-1.7c0-0.6,0.2-1.1,0.5-1.6c0.3-0.5,0.8-0.9,1.4-1.2 c0.6-0.3,1.4-0.4,2.4-0.4c0.7,0,1.3,0.1,2,0.3c0.6,0.2,1.2,0.4,1.6,0.7l-0.5,1.3c-0.5-0.3-1-0.5-1.5-0.7c-0.5-0.2-1.1-0.2-1.6-0.2 c-0.9,0-1.6,0.2-2,0.5c-0.5,0.3-0.7,0.8-0.7,1.3c0,0.4,0.1,0.7,0.4,0.9s0.6,0.4,1,0.6c0.4,0.1,0.9,0.3,1.5,0.4 c0.8,0.2,1.5,0.4,2,0.6c0.5,0.2,1,0.5,1.3,0.9c0.4,0.4,0.6,1,0.6,1.7c0,0.6-0.2,1.1-0.5,1.6s-0.8,0.9-1.5,1.2s-1.5,0.4-2.4,0.4 C926.8,219.1,926,219,925.2,218.7z"></path> <path class="st3" d="M941.7,215.2h-6.9c0.1,0.7,0.4,1.3,1,1.8c0.6,0.5,1.3,0.7,2.1,0.7c1,0,1.8-0.3,2.4-1l0.8,1 c-0.4,0.4-0.9,0.8-1.4,1c-0.6,0.2-1.2,0.4-1.9,0.4c-0.9,0-1.7-0.2-2.4-0.6s-1.2-0.9-1.6-1.5c-0.4-0.7-0.6-1.4-0.6-2.2 c0-0.8,0.2-1.6,0.6-2.2c0.4-0.7,0.9-1.2,1.5-1.5s1.4-0.6,2.2-0.6s1.5,0.2,2.2,0.6s1.1,0.9,1.5,1.5s0.5,1.4,0.5,2.3 C941.8,214.9,941.8,215.1,941.7,215.2z M935.7,212.4c-0.5,0.4-0.8,1-0.9,1.8h5.4c-0.1-0.7-0.4-1.3-0.9-1.8 c-0.5-0.5-1.1-0.7-1.8-0.7C936.9,211.7,936.2,211.9,935.7,212.4z"></path> <path class="st3" d="M945.3,218.5c-0.7-0.4-1.2-0.9-1.6-1.5s-0.6-1.4-0.6-2.2s0.2-1.6,0.6-2.2c0.4-0.7,0.9-1.2,1.6-1.5 s1.4-0.6,2.3-0.6c0.8,0,1.5,0.2,2.1,0.5s1.1,0.8,1.4,1.3l-1.2,0.8c-0.3-0.4-0.6-0.7-1-0.9c-0.4-0.2-0.8-0.3-1.3-0.3 c-0.6,0-1.1,0.1-1.5,0.4s-0.8,0.6-1,1c-0.2,0.5-0.4,1-0.4,1.6c0,0.6,0.1,1.1,0.4,1.6c0.3,0.5,0.6,0.8,1,1c0.4,0.2,0.9,0.4,1.5,0.4 c0.5,0,0.9-0.1,1.3-0.3c0.4-0.2,0.7-0.5,1-0.9l1.2,0.7c-0.3,0.6-0.8,1-1.4,1.4s-1.3,0.5-2.1,0.5C946.7,219.1,946,218.9,945.3,218.5 z"></path> <path class="st3" d="M960.9,210.5v8.5h-1.5v-1.3c-0.3,0.4-0.7,0.8-1.2,1c-0.5,0.2-1.1,0.4-1.7,0.4c-1.1,0-2-0.3-2.7-0.9 c-0.7-0.6-1-1.5-1-2.8v-4.9h1.5v4.7c0,0.8,0.2,1.4,0.6,1.9c0.4,0.4,1,0.6,1.7,0.6c0.8,0,1.5-0.2,1.9-0.7c0.5-0.5,0.7-1.2,0.7-2.1 v-4.4H960.9z"></path> <path class="st3" d="M966.5,210.8c0.5-0.3,1.2-0.4,1.9-0.4v1.5c-0.1,0-0.2,0-0.4,0c-0.8,0-1.5,0.2-2,0.7s-0.7,1.2-0.7,2.1v4.2h-1.5 v-8.5h1.5v1.4C965.6,211.4,966,211.1,966.5,210.8z"></path> <path class="st3" d="M970.3,208.6c-0.2-0.2-0.3-0.4-0.3-0.7s0.1-0.5,0.3-0.7c0.2-0.2,0.4-0.3,0.7-0.3s0.5,0.1,0.7,0.3 s0.3,0.4,0.3,0.7c0,0.3-0.1,0.5-0.3,0.7s-0.4,0.3-0.7,0.3S970.5,208.8,970.3,208.6z M970.3,210.5h1.5v8.5h-1.5V210.5z"></path> <path class="st3" d="M979.6,218.5c-0.2,0.2-0.5,0.3-0.8,0.4c-0.3,0.1-0.7,0.2-1,0.2c-0.9,0-1.5-0.2-2-0.7s-0.7-1.1-0.7-2v-4.7h-1.4 v-1.3h1.4v-1.9h1.5v1.9h2.4v1.3h-2.4v4.6c0,0.5,0.1,0.8,0.3,1.1c0.2,0.2,0.6,0.4,1,0.4c0.5,0,0.9-0.1,1.2-0.4L979.6,218.5z"></path> <path class="st3" d="M988.8,210.5l-4.1,9.3c-0.4,0.9-0.8,1.5-1.3,1.8c-0.5,0.4-1.1,0.5-1.8,0.5c-0.4,0-0.8-0.1-1.2-0.2 c-0.4-0.1-0.7-0.3-1-0.6l0.7-1.2c0.4,0.4,0.9,0.6,1.5,0.6c0.4,0,0.7-0.1,0.9-0.3s0.5-0.5,0.7-1l0.3-0.6l-3.7-8.5h1.6l3,6.8l2.9-6.8 H988.8z"></path> </g> <circle class="st6" cx="866.3" cy="194.5" r="7.2"></circle> <g> <path class="st3" d="M888.9,235c0.8,0.7,1.2,1.6,1.2,2.9s-0.4,2.2-1.2,2.9s-2,1-3.4,1h-2.8v3.4h-1.6v-11.2h4.4 C886.9,233.9,888.1,234.3,888.9,235z M887.8,239.7c0.5-0.4,0.8-1.1,0.8-1.9s-0.3-1.4-0.8-1.9c-0.5-0.4-1.3-0.6-2.3-0.6h-2.7v5h2.7 C886.5,240.3,887.2,240.1,887.8,239.7z"></path> <path class="st3" d="M894.8,236.9c0.5-0.3,1.2-0.4,1.9-0.4v1.5c-0.1,0-0.2,0-0.4,0c-0.8,0-1.5,0.2-2,0.7s-0.7,1.2-0.7,2.1v4.2h-1.5 v-8.5h1.5v1.4C893.9,237.6,894.3,237.2,894.8,236.9z"></path> <path class="st3" d="M906.1,241.4h-6.9c0.1,0.7,0.4,1.3,1,1.8c0.6,0.5,1.3,0.7,2.1,0.7c1,0,1.8-0.3,2.4-1l0.8,1 c-0.4,0.4-0.9,0.8-1.4,1c-0.6,0.2-1.2,0.4-1.9,0.4c-0.9,0-1.7-0.2-2.4-0.6s-1.2-0.9-1.6-1.5c-0.4-0.7-0.6-1.4-0.6-2.2 c0-0.8,0.2-1.6,0.6-2.2c0.4-0.7,0.9-1.2,1.5-1.5s1.4-0.6,2.2-0.6s1.5,0.2,2.2,0.6s1.1,0.9,1.5,1.5s0.5,1.4,0.5,2.3 C906.2,241,906.2,241.2,906.1,241.4z M900.1,238.5c-0.5,0.4-0.8,1-0.9,1.8h5.4c-0.1-0.7-0.4-1.3-0.9-1.8c-0.5-0.5-1.1-0.7-1.8-0.7 C901.3,237.9,900.6,238.1,900.1,238.5z"></path> <path class="st3" d="M910,235.9v0.7h2.5v1.3h-2.4v7.2h-1.5v-7.2h-1.4v-1.3h1.4v-0.8c0-0.8,0.2-1.5,0.7-2c0.5-0.5,1.2-0.7,2.1-0.7 c0.3,0,0.7,0,1,0.1c0.3,0.1,0.6,0.2,0.8,0.4l-0.5,1.2c-0.4-0.3-0.7-0.4-1.2-0.4C910.5,234.4,910,234.9,910,235.9z"></path> <path class="st3" d="M921.5,241.4h-6.9c0.1,0.7,0.4,1.3,1,1.8c0.6,0.5,1.3,0.7,2.1,0.7c1,0,1.8-0.3,2.4-1l0.8,1 c-0.4,0.4-0.9,0.8-1.4,1c-0.6,0.2-1.2,0.4-1.9,0.4c-0.9,0-1.7-0.2-2.4-0.6s-1.2-0.9-1.6-1.5c-0.4-0.7-0.6-1.4-0.6-2.2 c0-0.8,0.2-1.6,0.6-2.2c0.4-0.7,0.9-1.2,1.5-1.5s1.4-0.6,2.2-0.6s1.5,0.2,2.2,0.6s1.1,0.9,1.5,1.5s0.5,1.4,0.5,2.3 C921.5,241,921.5,241.2,921.5,241.4z M915.5,238.5c-0.5,0.4-0.8,1-0.9,1.8h5.4c-0.1-0.7-0.4-1.3-0.9-1.8c-0.5-0.5-1.1-0.7-1.8-0.7 C916.6,237.9,915.9,238.1,915.5,238.5z"></path> <path class="st3" d="M926.3,236.9c0.5-0.3,1.2-0.4,1.9-0.4v1.5c-0.1,0-0.2,0-0.4,0c-0.8,0-1.5,0.2-2,0.7s-0.7,1.2-0.7,2.1v4.2h-1.5 v-8.5h1.5v1.4C925.4,237.6,925.8,237.2,926.3,236.9z"></path> <path class="st3" d="M935.9,244c-0.8-0.9-1.2-2.1-1.2-3.7v-6.4h1.6v6.3c0,2.4,1.1,3.6,3.2,3.6c1,0,1.8-0.3,2.4-0.9 c0.5-0.6,0.8-1.5,0.8-2.7v-6.3h1.6v6.4c0,1.6-0.4,2.8-1.2,3.7c-0.8,0.8-2,1.3-3.5,1.3C937.9,245.2,936.7,244.8,935.9,244z"></path> <path class="st3" d="M947.6,244.9c-0.6-0.2-1.1-0.4-1.5-0.7l0.6-1.2c0.4,0.3,0.8,0.5,1.4,0.6s1.1,0.2,1.6,0.2c1.3,0,2-0.4,2-1.2 c0-0.3-0.1-0.5-0.3-0.6c-0.2-0.1-0.4-0.3-0.7-0.3c-0.3-0.1-0.7-0.1-1.2-0.2c-0.7-0.1-1.2-0.2-1.7-0.4c-0.4-0.1-0.8-0.4-1.1-0.7 c-0.3-0.3-0.5-0.8-0.5-1.4c0-0.8,0.3-1.4,1-1.8c0.6-0.5,1.5-0.7,2.6-0.7c0.6,0,1.1,0.1,1.7,0.2s1,0.3,1.4,0.6l-0.7,1.2 c-0.7-0.4-1.5-0.7-2.4-0.7c-0.7,0-1.1,0.1-1.5,0.3c-0.3,0.2-0.5,0.5-0.5,0.8c0,0.3,0.1,0.5,0.3,0.7c0.2,0.2,0.4,0.3,0.7,0.4 c0.3,0.1,0.7,0.2,1.2,0.3c0.7,0.1,1.2,0.2,1.7,0.4c0.4,0.1,0.8,0.4,1.1,0.7c0.3,0.3,0.4,0.8,0.4,1.3c0,0.8-0.3,1.4-1,1.8 c-0.7,0.5-1.5,0.7-2.7,0.7C948.9,245.2,948.2,245.1,947.6,244.9z"></path> <path class="st3" d="M955.2,234.7c-0.2-0.2-0.3-0.4-0.3-0.7s0.1-0.5,0.3-0.7c0.2-0.2,0.4-0.3,0.7-0.3s0.5,0.1,0.7,0.3 s0.3,0.4,0.3,0.7c0,0.3-0.1,0.5-0.3,0.7s-0.4,0.3-0.7,0.3S955.4,234.9,955.2,234.7z M955.2,236.6h1.5v8.5h-1.5V236.6z"></path> <path class="st3" d="M966.7,237.5c0.6,0.6,1,1.5,1,2.7v4.9h-1.5v-4.7c0-0.8-0.2-1.4-0.6-1.9s-1-0.6-1.7-0.6c-0.8,0-1.5,0.2-2,0.7 c-0.5,0.5-0.7,1.2-0.7,2.1v4.4h-1.5v-8.5h1.5v1.3c0.3-0.4,0.7-0.8,1.3-1c0.5-0.2,1.1-0.4,1.8-0.4 C965.2,236.6,966.1,236.9,966.7,237.5z"></path> <path class="st3" d="M978.7,236.6v7.3c0,1.5-0.4,2.6-1.1,3.3c-0.7,0.7-1.8,1.1-3.3,1.1c-0.8,0-1.6-0.1-2.3-0.3s-1.3-0.5-1.8-0.9 l0.7-1.2c0.4,0.3,0.9,0.6,1.5,0.8c0.6,0.2,1.2,0.3,1.8,0.3c1,0,1.7-0.2,2.2-0.7c0.5-0.5,0.7-1.2,0.7-2.1v-0.7 c-0.4,0.4-0.8,0.8-1.3,1c-0.5,0.2-1.1,0.3-1.7,0.3c-0.8,0-1.5-0.2-2.2-0.5c-0.7-0.3-1.2-0.8-1.5-1.5c-0.4-0.6-0.6-1.3-0.6-2.1 s0.2-1.5,0.6-2.1c0.4-0.6,0.9-1.1,1.5-1.4c0.7-0.3,1.4-0.5,2.2-0.5c0.6,0,1.2,0.1,1.8,0.4s1,0.6,1.4,1v-1.3H978.7z M975.8,243.1 c0.4-0.2,0.8-0.6,1-1c0.3-0.4,0.4-0.9,0.4-1.4c0-0.8-0.3-1.5-0.8-2s-1.2-0.8-2.1-0.8c-0.9,0-1.6,0.3-2.1,0.8s-0.8,1.2-0.8,2 c0,0.5,0.1,1,0.4,1.4c0.3,0.4,0.6,0.8,1,1s0.9,0.4,1.5,0.4C974.8,243.4,975.3,243.3,975.8,243.1z"></path> <path class="st3" d="M988.1,244.5c-0.9-0.5-1.6-1.2-2.1-2s-0.8-1.8-0.8-2.9c0-1.1,0.3-2.1,0.8-2.9c0.5-0.9,1.2-1.6,2.1-2 c0.9-0.5,1.9-0.7,3-0.7c0.9,0,1.7,0.1,2.4,0.4c0.7,0.3,1.3,0.7,1.9,1.3l-1,1c-0.8-0.9-1.9-1.3-3.2-1.3c-0.8,0-1.6,0.2-2.3,0.6 s-1.2,0.9-1.6,1.5c-0.4,0.7-0.6,1.4-0.6,2.2s0.2,1.5,0.6,2.2c0.4,0.7,0.9,1.2,1.6,1.5c0.7,0.4,1.4,0.6,2.3,0.6 c1.2,0,2.3-0.4,3.2-1.3l1,1c-0.5,0.6-1.1,1-1.9,1.3c-0.7,0.3-1.5,0.4-2.4,0.4C990,245.2,989,245,988.1,244.5z"></path> <path class="st3" d="M1003.1,237.4c0.6,0.6,0.9,1.4,0.9,2.6v5.1h-1.5V244c-0.3,0.4-0.6,0.7-1.1,0.9s-1,0.3-1.7,0.3 c-0.9,0-1.7-0.2-2.3-0.7c-0.6-0.5-0.9-1.1-0.9-1.8c0-0.7,0.3-1.3,0.8-1.8c0.5-0.5,1.4-0.7,2.6-0.7h2.4v-0.3c0-0.7-0.2-1.2-0.6-1.5 c-0.4-0.4-0.9-0.5-1.7-0.5c-0.5,0-1,0.1-1.5,0.2c-0.5,0.2-0.9,0.4-1.2,0.7l-0.6-1.2c0.4-0.4,1-0.6,1.6-0.8c0.6-0.2,1.3-0.3,1.9-0.3 C1001.6,236.6,1002.5,236.8,1003.1,237.4z M1001.6,243.6c0.4-0.3,0.7-0.6,0.9-1.1v-1.2h-2.4c-1.3,0-2,0.4-2,1.3 c0,0.4,0.2,0.8,0.5,1c0.3,0.2,0.8,0.4,1.4,0.4C1000.7,244,1001.2,243.9,1001.6,243.6z"></path> <path class="st3" d="M1007.4,244.9c-0.6-0.2-1.1-0.4-1.5-0.7l0.6-1.2c0.4,0.3,0.8,0.5,1.4,0.6s1.1,0.2,1.6,0.2c1.3,0,2-0.4,2-1.2 c0-0.3-0.1-0.5-0.3-0.6c-0.2-0.1-0.4-0.3-0.7-0.3c-0.3-0.1-0.7-0.1-1.2-0.2c-0.7-0.1-1.2-0.2-1.7-0.4c-0.4-0.1-0.8-0.4-1.1-0.7 c-0.3-0.3-0.5-0.8-0.5-1.4c0-0.8,0.3-1.4,1-1.8c0.6-0.5,1.5-0.7,2.6-0.7c0.6,0,1.1,0.1,1.7,0.2s1,0.3,1.4,0.6l-0.7,1.2 c-0.7-0.4-1.5-0.7-2.4-0.7c-0.7,0-1.1,0.1-1.5,0.3c-0.3,0.2-0.5,0.5-0.5,0.8c0,0.3,0.1,0.5,0.3,0.7c0.2,0.2,0.4,0.3,0.7,0.4 c0.3,0.1,0.7,0.2,1.2,0.3c0.7,0.1,1.2,0.2,1.7,0.4c0.4,0.1,0.8,0.4,1.1,0.7c0.3,0.3,0.4,0.8,0.4,1.3c0,0.8-0.3,1.4-1,1.8 c-0.7,0.5-1.5,0.7-2.7,0.7C1008.7,245.2,1008,245.1,1007.4,244.9z"></path> <path class="st3" d="M1022,237.5c0.6,0.6,1,1.5,1,2.7v4.9h-1.5v-4.7c0-0.8-0.2-1.4-0.6-1.9s-1-0.6-1.7-0.6c-0.8,0-1.5,0.2-2,0.7 c-0.5,0.5-0.7,1.2-0.7,2.1v4.4h-1.5v-11.9h1.5v4.6c0.3-0.4,0.7-0.7,1.3-0.9c0.5-0.2,1.1-0.3,1.7-0.3 C1020.6,236.6,1021.4,236.9,1022,237.5z"></path> </g> <circle class="st1" cx="866.3" cy="239.7" r="7.2"></circle> <g> <path class="st3" d="M881.1,260.3h4.7c1.2,0,2.2,0.2,3.2,0.7c0.9,0.5,1.6,1.1,2.1,2c0.5,0.8,0.8,1.8,0.8,2.9s-0.3,2.1-0.8,2.9 c-0.5,0.8-1.2,1.5-2.1,2c-0.9,0.5-2,0.7-3.2,0.7h-4.7V260.3z M885.8,270.1c0.9,0,1.7-0.2,2.4-0.5c0.7-0.4,1.2-0.8,1.6-1.5 c0.4-0.6,0.6-1.4,0.6-2.2s-0.2-1.6-0.6-2.2c-0.4-0.6-0.9-1.1-1.6-1.5c-0.7-0.4-1.5-0.5-2.4-0.5h-3v8.4H885.8z"></path> <path class="st3" d="M895.5,271.1c-0.7-0.4-1.2-0.9-1.6-1.5c-0.4-0.7-0.6-1.4-0.6-2.2s0.2-1.6,0.6-2.2c0.4-0.7,0.9-1.2,1.6-1.5 c0.7-0.4,1.4-0.6,2.3-0.6s1.6,0.2,2.3,0.6c0.7,0.4,1.2,0.9,1.6,1.5c0.4,0.7,0.6,1.4,0.6,2.2s-0.2,1.6-0.6,2.2s-0.9,1.2-1.6,1.5 c-0.7,0.4-1.4,0.6-2.3,0.6S896.2,271.4,895.5,271.1z M899.2,269.9c0.4-0.2,0.8-0.6,1-1.1c0.2-0.5,0.4-1,0.4-1.6 c0-0.6-0.1-1.1-0.4-1.6c-0.2-0.5-0.6-0.8-1-1c-0.4-0.2-0.9-0.4-1.5-0.4s-1,0.1-1.5,0.4s-0.8,0.6-1,1c-0.2,0.5-0.4,1-0.4,1.6 c0,0.6,0.1,1.1,0.4,1.6c0.3,0.5,0.6,0.8,1,1.1c0.4,0.3,0.9,0.4,1.5,0.4S898.8,270.2,899.2,269.9z"></path> <path class="st3" d="M911.9,267.8H905c0.1,0.7,0.4,1.3,1,1.8c0.6,0.5,1.3,0.7,2.1,0.7c1,0,1.8-0.3,2.4-1l0.8,1 c-0.4,0.4-0.9,0.8-1.4,1c-0.6,0.2-1.2,0.4-1.9,0.4c-0.9,0-1.7-0.2-2.4-0.6s-1.2-0.9-1.6-1.5c-0.4-0.7-0.6-1.4-0.6-2.2 c0-0.8,0.2-1.6,0.6-2.2c0.4-0.7,0.9-1.2,1.5-1.5s1.4-0.6,2.2-0.6s1.5,0.2,2.2,0.6s1.1,0.9,1.5,1.5s0.5,1.4,0.5,2.3 C911.9,267.5,911.9,267.6,911.9,267.8z M905.9,264.9c-0.5,0.4-0.8,1-0.9,1.8h5.4c-0.1-0.7-0.4-1.3-0.9-1.8 c-0.5-0.5-1.1-0.7-1.8-0.7C907,264.3,906.4,264.5,905.9,264.9z"></path> <path class="st3" d="M914.5,271.3c-0.6-0.2-1.1-0.4-1.5-0.7l0.6-1.2c0.4,0.3,0.8,0.5,1.4,0.6s1.1,0.2,1.6,0.2c1.3,0,2-0.4,2-1.2 c0-0.3-0.1-0.5-0.3-0.6c-0.2-0.1-0.4-0.3-0.7-0.3c-0.3-0.1-0.7-0.1-1.2-0.2c-0.7-0.1-1.2-0.2-1.7-0.4c-0.4-0.1-0.8-0.4-1.1-0.7 c-0.3-0.3-0.5-0.8-0.5-1.4c0-0.8,0.3-1.4,1-1.8c0.6-0.5,1.5-0.7,2.6-0.7c0.6,0,1.1,0.1,1.7,0.2s1,0.3,1.4,0.6l-0.7,1.2 c-0.7-0.4-1.5-0.7-2.4-0.7c-0.7,0-1.1,0.1-1.5,0.3c-0.3,0.2-0.5,0.5-0.5,0.8c0,0.3,0.1,0.5,0.3,0.7c0.2,0.2,0.4,0.3,0.7,0.4 c0.3,0.1,0.7,0.2,1.2,0.3c0.7,0.1,1.2,0.2,1.7,0.4c0.4,0.1,0.8,0.4,1.1,0.7c0.3,0.3,0.4,0.8,0.4,1.3c0,0.8-0.3,1.4-1,1.8 c-0.7,0.5-1.5,0.7-2.7,0.7C915.8,271.6,915.1,271.5,914.5,271.3z"></path> <path class="st3" d="M929.2,263.9c0.6,0.6,1,1.5,1,2.7v4.9h-1.5v-4.7c0-0.8-0.2-1.4-0.6-1.9s-1-0.6-1.7-0.6c-0.8,0-1.5,0.2-2,0.7 c-0.5,0.5-0.7,1.2-0.7,2.1v4.4h-1.5V263h1.5v1.3c0.3-0.4,0.7-0.8,1.3-1c0.5-0.2,1.1-0.4,1.8-0.4C927.7,263,928.5,263.3,929.2,263.9 z"></path> <path class="st3" d="M934,259.9c0.2,0.2,0.3,0.5,0.3,0.8c0,0.2,0,0.3,0,0.5c0,0.2-0.1,0.4-0.2,0.7l-0.8,2.2h-1l0.6-2.4 c-0.2-0.1-0.4-0.2-0.5-0.4c-0.1-0.2-0.2-0.4-0.2-0.6c0-0.3,0.1-0.6,0.3-0.8c0.2-0.2,0.5-0.3,0.8-0.3 C933.6,259.6,933.8,259.7,934,259.9z"></path> <path class="st3" d="M941.3,271c-0.2,0.2-0.5,0.3-0.8,0.4c-0.3,0.1-0.7,0.2-1,0.2c-0.9,0-1.5-0.2-2-0.7s-0.7-1.1-0.7-2v-4.7h-1.4 V263h1.4v-1.9h1.5v1.9h2.4v1.3h-2.4v4.6c0,0.5,0.1,0.8,0.3,1.1c0.2,0.2,0.6,0.4,1,0.4c0.5,0,0.9-0.1,1.2-0.4L941.3,271z"></path> <path class="st3" d="M949.7,270.9c-0.9-0.5-1.6-1.2-2.1-2s-0.8-1.8-0.8-2.9c0-1.1,0.3-2.1,0.8-2.9c0.5-0.9,1.2-1.6,2.1-2 c0.9-0.5,1.9-0.7,3-0.7c0.9,0,1.7,0.1,2.4,0.4c0.7,0.3,1.3,0.7,1.9,1.3l-1,1c-0.8-0.9-1.9-1.3-3.2-1.3c-0.8,0-1.6,0.2-2.3,0.6 s-1.2,0.9-1.6,1.5c-0.4,0.7-0.6,1.4-0.6,2.2s0.2,1.5,0.6,2.2c0.4,0.7,0.9,1.2,1.6,1.5c0.7,0.4,1.4,0.6,2.3,0.6 c1.2,0,2.3-0.4,3.2-1.3l1,1c-0.5,0.6-1.1,1-1.9,1.3c-0.7,0.3-1.5,0.4-2.4,0.4C951.6,271.7,950.6,271.4,949.7,270.9z"></path> <path class="st3" d="M960.1,271.1c-0.7-0.4-1.2-0.9-1.6-1.5c-0.4-0.7-0.6-1.4-0.6-2.2s0.2-1.6,0.6-2.2c0.4-0.7,0.9-1.2,1.6-1.5 c0.7-0.4,1.4-0.6,2.3-0.6s1.6,0.2,2.3,0.6c0.7,0.4,1.2,0.9,1.6,1.5c0.4,0.7,0.6,1.4,0.6,2.2s-0.2,1.6-0.6,2.2s-0.9,1.2-1.6,1.5 c-0.7,0.4-1.4,0.6-2.3,0.6S960.7,271.4,960.1,271.1z M963.8,269.9c0.4-0.2,0.8-0.6,1-1.1c0.2-0.5,0.4-1,0.4-1.6 c0-0.6-0.1-1.1-0.4-1.6c-0.2-0.5-0.6-0.8-1-1c-0.4-0.2-0.9-0.4-1.5-0.4s-1,0.1-1.5,0.4s-0.8,0.6-1,1c-0.2,0.5-0.4,1-0.4,1.6 c0,0.6,0.1,1.1,0.4,1.6c0.3,0.5,0.6,0.8,1,1.1c0.4,0.3,0.9,0.4,1.5,0.4S963.4,270.2,963.8,269.9z"></path> <path class="st3" d="M982,263.9c0.6,0.6,0.9,1.5,0.9,2.8v4.9h-1.5v-4.7c0-0.8-0.2-1.4-0.6-1.9s-0.9-0.6-1.6-0.6 c-0.8,0-1.4,0.2-1.9,0.7c-0.5,0.5-0.7,1.2-0.7,2.1v4.4h-1.5v-4.7c0-0.8-0.2-1.4-0.6-1.9c-0.4-0.4-0.9-0.6-1.6-0.6 c-0.8,0-1.4,0.2-1.9,0.7c-0.5,0.5-0.7,1.2-0.7,2.1v4.4h-1.5V263h1.5v1.3c0.3-0.4,0.7-0.8,1.2-1c0.5-0.2,1.1-0.3,1.7-0.3 c0.7,0,1.2,0.1,1.8,0.4c0.5,0.3,0.9,0.7,1.2,1.2c0.3-0.5,0.8-0.9,1.3-1.2s1.2-0.4,1.9-0.4C980.5,263,981.4,263.3,982,263.9z"></path> <path class="st3" d="M993.4,267.8h-6.9c0.1,0.7,0.4,1.3,1,1.8c0.6,0.5,1.3,0.7,2.1,0.7c1,0,1.8-0.3,2.4-1l0.8,1 c-0.4,0.4-0.9,0.8-1.4,1c-0.6,0.2-1.2,0.4-1.9,0.4c-0.9,0-1.7-0.2-2.4-0.6s-1.2-0.9-1.6-1.5c-0.4-0.7-0.6-1.4-0.6-2.2 c0-0.8,0.2-1.6,0.6-2.2c0.4-0.7,0.9-1.2,1.5-1.5s1.4-0.6,2.2-0.6s1.5,0.2,2.2,0.6s1.1,0.9,1.5,1.5s0.5,1.4,0.5,2.3 C993.5,267.5,993.5,267.6,993.4,267.8z M987.4,264.9c-0.5,0.4-0.8,1-0.9,1.8h5.4c-0.1-0.7-0.4-1.3-0.9-1.8 c-0.5-0.5-1.1-0.7-1.8-0.7C988.5,264.3,987.9,264.5,987.4,264.9z"></path> <path class="st3" d="M1004.7,271c-0.2,0.2-0.5,0.3-0.8,0.4c-0.3,0.1-0.7,0.2-1,0.2c-0.9,0-1.5-0.2-2-0.7s-0.7-1.1-0.7-2v-4.7h-1.4 V263h1.4v-1.9h1.5v1.9h2.4v1.3h-2.4v4.6c0,0.5,0.1,0.8,0.3,1.1c0.2,0.2,0.6,0.4,1,0.4c0.5,0,0.9-0.1,1.2-0.4L1004.7,271z"></path> <path class="st3" d="M1007.6,271.1c-0.7-0.4-1.2-0.9-1.6-1.5c-0.4-0.7-0.6-1.4-0.6-2.2s0.2-1.6,0.6-2.2c0.4-0.7,0.9-1.2,1.6-1.5 c0.7-0.4,1.4-0.6,2.3-0.6s1.6,0.2,2.3,0.6c0.7,0.4,1.2,0.9,1.6,1.5c0.4,0.7,0.6,1.4,0.6,2.2s-0.2,1.6-0.6,2.2s-0.9,1.2-1.6,1.5 c-0.7,0.4-1.4,0.6-2.3,0.6S1008.3,271.4,1007.6,271.1z M1011.3,269.9c0.4-0.2,0.8-0.6,1-1.1c0.2-0.5,0.4-1,0.4-1.6 c0-0.6-0.1-1.1-0.4-1.6c-0.2-0.5-0.6-0.8-1-1c-0.4-0.2-0.9-0.4-1.5-0.4s-1,0.1-1.5,0.4s-0.8,0.6-1,1c-0.2,0.5-0.4,1-0.4,1.6 c0,0.6,0.1,1.1,0.4,1.6c0.3,0.5,0.6,0.8,1,1.1c0.4,0.3,0.9,0.4,1.5,0.4S1010.9,270.2,1011.3,269.9z"></path> <path class="st3" d="M1031.3,271.5l0-8.2l-4,6.8h-0.7l-4-6.8v8.1h-1.5v-11.2h1.3l4.7,7.9l4.6-7.9h1.3l0,11.2H1031.3z"></path> <path class="st3" d="M1036,261.1c-0.2-0.2-0.3-0.4-0.3-0.7s0.1-0.5,0.3-0.7c0.2-0.2,0.4-0.3,0.7-0.3s0.5,0.1,0.7,0.3 s0.3,0.4,0.3,0.7c0,0.3-0.1,0.5-0.3,0.7s-0.4,0.3-0.7,0.3S1036.2,261.3,1036,261.1z M1036,263h1.5v8.5h-1.5V263z"></path> <path class="st3" d="M1047.5,263.9c0.6,0.6,1,1.5,1,2.7v4.9h-1.5v-4.7c0-0.8-0.2-1.4-0.6-1.9s-1-0.6-1.7-0.6c-0.8,0-1.5,0.2-2,0.7 c-0.5,0.5-0.7,1.2-0.7,2.1v4.4h-1.5V263h1.5v1.3c0.3-0.4,0.7-0.8,1.3-1c0.5-0.2,1.1-0.4,1.8-0.4 C1046.1,263,1046.9,263.3,1047.5,263.9z"></path> <path class="st3" d="M1059.4,259.7v11.9h-1.5v-1.3c-0.3,0.5-0.8,0.8-1.3,1.1c-0.5,0.2-1.1,0.4-1.7,0.4c-0.8,0-1.6-0.2-2.2-0.5 c-0.7-0.4-1.2-0.9-1.5-1.5c-0.4-0.7-0.6-1.4-0.6-2.3c0-0.9,0.2-1.6,0.6-2.3c0.4-0.7,0.9-1.2,1.5-1.5c0.7-0.4,1.4-0.5,2.2-0.5 c0.6,0,1.2,0.1,1.7,0.3c0.5,0.2,0.9,0.6,1.3,1v-4.7H1059.4z M1056.5,269.9c0.4-0.2,0.8-0.6,1-1.1c0.2-0.5,0.4-1,0.4-1.6 c0-0.6-0.1-1.1-0.4-1.6c-0.2-0.5-0.6-0.8-1-1s-0.9-0.4-1.5-0.4c-0.5,0-1,0.1-1.5,0.4s-0.8,0.6-1,1c-0.2,0.5-0.4,1-0.4,1.6 c0,0.6,0.1,1.1,0.4,1.6c0.3,0.5,0.6,0.8,1,1.1c0.4,0.3,0.9,0.4,1.5,0.4C1055.6,270.3,1056,270.2,1056.5,269.9z"></path> </g> <circle class="st7" cx="866.3" cy="265.4" r="7.2"></circle> <g> <g> <g> <rect x="43.7" y="113.6" class="st4" width="120.1" height="17.5"></rect> <rect x="210.5" y="113.6" class="st4" width="120.1" height="26.3"></rect> <rect x="377.3" y="113.6" class="st4" width="120.1" height="30.6"></rect> <rect x="544" y="113.6" class="st4" width="120.1" height="47.7"></rect> <rect x="710.8" y="113.6" class="st4" width="120.1" height="47.7"></rect> </g> </g> <g> <g> <rect x="43.7" y="131.1" class="st5" width="120.1" height="87.5"></rect> <rect x="210.5" y="139.8" class="st5" width="120.1" height="39.4"></rect> <rect x="377.3" y="144.2" class="st5" width="120.1" height="30.6"></rect> <rect x="544" y="161.2" class="st5" width="120.1" height="39"></rect> <rect x="710.8" y="161.2" class="st5" width="120.1" height="95.3"></rect> </g> </g> <g> <g> <rect x="43.7" y="218.6" class="st6" width="120.1" height="39.4"></rect> <rect x="210.5" y="179.2" class="st6" width="120.1" height="52.5"></rect> <rect x="377.3" y="174.8" class="st6" width="120.1" height="105"></rect> <rect x="544" y="200.2" class="st6" width="120.1" height="134.3"></rect> <rect x="710.8" y="256.6" class="st6" width="120.1" height="104"></rect> </g> </g> <g> <g> <rect x="43.7" y="258" class="st1" width="120.1" height="240.7"></rect> <rect x="210.5" y="231.7" class="st1" width="120.1" height="258.2"></rect> <rect x="377.3" y="279.9" class="st1" width="120.1" height="210.1"></rect> <rect x="544" y="334.6" class="st1" width="120.1" height="164.7"></rect> <rect x="710.8" y="360.6" class="st1" width="120.1" height="151.7"></rect> </g> </g> <g> <g> <rect x="43.7" y="498.7" class="st7" width="120.1" height="52.5"></rect> <rect x="210.5" y="489.9" class="st7" width="120.1" height="61.3"></rect> <rect x="377.3" y="489.9" class="st7" width="120.1" height="61.3"></rect> <rect x="544" y="499.2" class="st7" width="120.1" height="52"></rect> <rect x="710.8" y="512.2" class="st7" width="120.1" height="39"></rect> </g> </g> </g> <g> <g> <path class="st8" d="M91.9,518.4v13.3h-3.1v-10.8h-2.7v-2.5H91.9z"></path> <path class="st8" d="M104.1,529.2v2.5h-10v-2l5.1-4.8c0.5-0.5,0.9-1,1.1-1.3c0.2-0.4,0.3-0.7,0.3-1.1c0-0.5-0.2-0.9-0.5-1.2 c-0.4-0.3-0.9-0.4-1.6-0.4c-0.6,0-1.1,0.1-1.6,0.3c-0.5,0.2-0.9,0.6-1.2,1l-2.2-1.4c0.5-0.8,1.2-1.4,2.1-1.8 c0.9-0.4,2-0.7,3.1-0.7c1,0,1.9,0.2,2.6,0.5c0.7,0.3,1.3,0.8,1.7,1.4c0.4,0.6,0.6,1.3,0.6,2.1c0,0.7-0.2,1.4-0.5,2 c-0.3,0.6-0.9,1.4-1.8,2.2l-3.1,2.9H104.1z"></path> <path class="st8" d="M106.3,524.6c-0.6-0.7-0.9-1.6-0.9-2.7c0-1.1,0.3-2,0.9-2.7s1.4-1,2.4-1c1,0,1.8,0.3,2.4,1 c0.6,0.7,0.9,1.6,0.9,2.7c0,1.1-0.3,2-0.9,2.7c-0.6,0.7-1.4,1-2.4,1C107.7,525.6,106.9,525.3,106.3,524.6z M109.7,523.5 c0.2-0.4,0.4-0.9,0.4-1.6c0-0.7-0.1-1.2-0.4-1.6c-0.2-0.4-0.6-0.5-1-0.5c-0.4,0-0.8,0.2-1,0.5c-0.3,0.4-0.4,0.9-0.4,1.6 c0,0.7,0.1,1.2,0.4,1.6c0.3,0.4,0.6,0.5,1,0.5C109.1,524,109.4,523.9,109.7,523.5z M116.6,518.4h2.3l-9.1,13.3h-2.3L116.6,518.4z M116,531.4c-0.5-0.3-0.9-0.7-1.2-1.3c-0.3-0.6-0.4-1.2-0.4-1.9s0.1-1.4,0.4-1.9c0.3-0.6,0.7-1,1.2-1.3c0.5-0.3,1.1-0.4,1.7-0.4 c1,0,1.8,0.3,2.4,1s0.9,1.6,0.9,2.7s-0.3,2-0.9,2.7s-1.4,1-2.4,1C117.1,531.9,116.5,531.7,116,531.4z M118.7,529.8 c0.2-0.4,0.4-0.9,0.4-1.6c0-0.7-0.1-1.2-0.4-1.6c-0.2-0.4-0.6-0.5-1-0.5c-0.4,0-0.8,0.2-1,0.5c-0.3,0.4-0.4,0.9-0.4,1.6 s0.1,1.2,0.4,1.6c0.3,0.4,0.6,0.5,1,0.5C118.1,530.3,118.5,530.1,118.7,529.8z"></path> </g> </g> <g> <g> <path class="st8" d="M93.7,388.7c0.9,0.7,1.3,1.7,1.3,3c0,0.8-0.2,1.5-0.6,2.2s-1,1.2-1.9,1.6c-0.8,0.4-1.9,0.6-3.1,0.6 c-0.9,0-1.9-0.1-2.8-0.4c-0.9-0.2-1.7-0.6-2.3-1.1l1.2-2.4c0.5,0.4,1.1,0.7,1.7,0.9c0.7,0.2,1.3,0.3,2,0.3c0.8,0,1.4-0.2,1.8-0.5 s0.7-0.7,0.7-1.3c0-0.6-0.2-1-0.7-1.3c-0.5-0.3-1.3-0.4-2.4-0.4h-3.4l0.7-7.5h8.1v2.5h-5.5l-0.2,2.5h1.1 C91.4,387.6,92.8,387.9,93.7,388.7z"></path> <path class="st8" d="M104.9,388.7c0.9,0.7,1.3,1.7,1.3,3c0,0.8-0.2,1.5-0.6,2.2s-1,1.2-1.9,1.6c-0.8,0.4-1.9,0.6-3.1,0.6 c-0.9,0-1.9-0.1-2.8-0.4c-0.9-0.2-1.7-0.6-2.3-1.1l1.2-2.4c0.5,0.4,1.1,0.7,1.7,0.9c0.7,0.2,1.3,0.3,2,0.3c0.8,0,1.4-0.2,1.8-0.5 s0.7-0.7,0.7-1.3c0-0.6-0.2-1-0.7-1.3c-0.5-0.3-1.3-0.4-2.4-0.4h-3.4l0.7-7.5h8.1v2.5h-5.5l-0.2,2.5h1.1 C102.6,387.6,104,387.9,104.9,388.7z"></path> <path class="st8" d="M108,388.7c-0.6-0.7-0.9-1.6-0.9-2.7c0-1.1,0.3-2,0.9-2.7s1.4-1,2.4-1c1,0,1.8,0.3,2.4,1 c0.6,0.7,0.9,1.6,0.9,2.7c0,1.1-0.3,2-0.9,2.7c-0.6,0.7-1.4,1-2.4,1C109.4,389.7,108.6,389.4,108,388.7z M111.4,387.6 c0.2-0.4,0.4-0.9,0.4-1.6c0-0.7-0.1-1.2-0.4-1.6c-0.2-0.4-0.6-0.5-1-0.5c-0.4,0-0.8,0.2-1,0.5c-0.3,0.4-0.4,0.9-0.4,1.6 s0.1,1.2,0.4,1.6c0.3,0.4,0.6,0.5,1,0.5C110.8,388.2,111.2,388,111.4,387.6z M118.3,382.6h2.3l-9.1,13.3h-2.3L118.3,382.6z M117.7,395.6c-0.5-0.3-0.9-0.7-1.2-1.3c-0.3-0.6-0.4-1.2-0.4-1.9c0-0.7,0.1-1.4,0.4-1.9c0.3-0.6,0.7-1,1.2-1.3 c0.5-0.3,1.1-0.4,1.7-0.4c1,0,1.8,0.3,2.4,1s0.9,1.6,0.9,2.7c0,1.1-0.3,2-0.9,2.7s-1.4,1-2.4,1C118.8,396,118.2,395.9,117.7,395.6 z M120.4,393.9c0.2-0.4,0.4-0.9,0.4-1.6s-0.1-1.2-0.4-1.6s-0.6-0.5-1-0.5c-0.4,0-0.8,0.2-1,0.5c-0.3,0.4-0.4,0.9-0.4,1.6 c0,0.7,0.1,1.2,0.4,1.6c0.3,0.4,0.6,0.5,1,0.5C119.9,394.5,120.2,394.3,120.4,393.9z"></path> </g> </g> <g> <g> <path class="st8" d="M99.2,233c1.1,1.1,1.6,2.8,1.6,4.9c0,1.5-0.3,2.8-0.8,3.9c-0.6,1.1-1.4,1.9-2.4,2.5c-1,0.6-2.2,0.8-3.6,0.8 c-0.7,0-1.4-0.1-2-0.2c-0.6-0.2-1.2-0.4-1.7-0.7l1.1-2.3c0.6,0.4,1.5,0.7,2.5,0.7c1.1,0,2-0.3,2.7-1c0.7-0.7,1-1.6,1.1-2.9 c-0.8,0.8-1.9,1.2-3.3,1.2c-0.8,0-1.6-0.2-2.3-0.5c-0.7-0.3-1.2-0.8-1.7-1.5c-0.4-0.6-0.6-1.4-0.6-2.2c0-0.9,0.2-1.7,0.7-2.3 s1-1.2,1.8-1.5c0.8-0.4,1.6-0.5,2.6-0.5C96.6,231.3,98.1,231.8,99.2,233z M96.7,237c0.4-0.4,0.6-0.9,0.6-1.4s-0.2-1.1-0.6-1.4 c-0.4-0.4-1-0.6-1.7-0.6c-0.7,0-1.2,0.2-1.6,0.5c-0.4,0.4-0.6,0.8-0.6,1.4s0.2,1.1,0.6,1.5c0.4,0.4,1,0.5,1.6,0.5 C95.7,237.6,96.2,237.4,96.7,237z"></path> <path class="st8" d="M102.9,237.7c-0.6-0.7-0.9-1.6-0.9-2.7c0-1.1,0.3-2,0.9-2.7s1.4-1,2.4-1c1,0,1.8,0.3,2.4,1 c0.6,0.7,0.9,1.6,0.9,2.7c0,1.1-0.3,2-0.9,2.7c-0.6,0.7-1.4,1-2.4,1C104.3,238.7,103.5,238.4,102.9,237.7z M106.3,236.6 c0.2-0.4,0.4-0.9,0.4-1.6c0-0.7-0.1-1.2-0.4-1.6c-0.2-0.4-0.6-0.5-1-0.5c-0.4,0-0.8,0.2-1,0.5c-0.3,0.4-0.4,0.9-0.4,1.6 s0.1,1.2,0.4,1.6c0.3,0.4,0.6,0.5,1,0.5C105.7,237.1,106.1,237,106.3,236.6z M113.2,231.5h2.3l-9.1,13.3h-2.3L113.2,231.5z M112.6,244.5c-0.5-0.3-0.9-0.7-1.2-1.3c-0.3-0.6-0.4-1.2-0.4-1.9c0-0.7,0.1-1.4,0.4-1.9c0.3-0.6,0.7-1,1.2-1.3 c0.5-0.3,1.1-0.4,1.7-0.4c1,0,1.8,0.3,2.4,1s0.9,1.6,0.9,2.7c0,1.1-0.3,2-0.9,2.7s-1.4,1-2.4,1C113.7,245,113.1,244.8,112.6,244.5 z M115.3,242.9c0.2-0.4,0.4-0.9,0.4-1.6s-0.1-1.2-0.4-1.6s-0.6-0.5-1-0.5c-0.4,0-0.8,0.2-1,0.5c-0.3,0.4-0.4,0.9-0.4,1.6 c0,0.7,0.1,1.2,0.4,1.6c0.3,0.4,0.6,0.5,1,0.5C114.7,243.4,115.1,243.2,115.3,242.9z"></path> </g> </g> <g> <g> <path class="st8" d="M94.1,183.2v2.5H84v-2l5.1-4.8c0.5-0.5,0.9-1,1.1-1.3c0.2-0.4,0.3-0.7,0.3-1.1c0-0.5-0.2-0.9-0.5-1.2 c-0.4-0.3-0.9-0.4-1.6-0.4c-0.6,0-1.1,0.1-1.6,0.3c-0.5,0.2-0.9,0.6-1.2,1l-2.2-1.4c0.5-0.8,1.2-1.4,2.1-1.8s2-0.7,3.1-0.7 c1,0,1.9,0.2,2.6,0.5c0.7,0.3,1.3,0.8,1.7,1.4c0.4,0.6,0.6,1.3,0.6,2.1c0,0.7-0.2,1.4-0.5,2s-0.9,1.4-1.8,2.2l-3.1,2.9H94.1z"></path> <path class="st8" d="M98,185.1c-0.9-0.5-1.5-1.3-2-2.4c-0.5-1-0.7-2.3-0.7-3.7c0-1.4,0.2-2.7,0.7-3.7c0.5-1,1.2-1.8,2-2.4 c0.9-0.5,1.8-0.8,2.9-0.8c1.1,0,2.1,0.3,2.9,0.8c0.9,0.5,1.5,1.3,2,2.4c0.5,1,0.7,2.3,0.7,3.7c0,1.4-0.2,2.7-0.7,3.7 c-0.5,1-1.2,1.8-2,2.4s-1.8,0.8-2.9,0.8C99.9,186,98.9,185.7,98,185.1z M102.9,182.3c0.5-0.7,0.7-1.8,0.7-3.2s-0.2-2.5-0.7-3.2 c-0.5-0.7-1.1-1-1.9-1c-0.8,0-1.4,0.3-1.9,1c-0.5,0.7-0.7,1.8-0.7,3.2s0.2,2.5,0.7,3.2c0.5,0.7,1.1,1,1.9,1 C101.8,183.4,102.4,183,102.9,182.3z"></path> <path class="st8" d="M108.9,178.6c-0.6-0.7-0.9-1.6-0.9-2.7c0-1.1,0.3-2,0.9-2.7s1.4-1,2.4-1c1,0,1.8,0.3,2.4,1 c0.6,0.7,0.9,1.6,0.9,2.7c0,1.1-0.3,2-0.9,2.7c-0.6,0.7-1.4,1-2.4,1C110.3,179.6,109.5,179.3,108.9,178.6z M112.3,177.5 c0.2-0.4,0.4-0.9,0.4-1.6c0-0.7-0.1-1.2-0.4-1.6c-0.2-0.4-0.6-0.5-1-0.5c-0.4,0-0.8,0.2-1,0.5c-0.3,0.4-0.4,0.9-0.4,1.6 s0.1,1.2,0.4,1.6c0.3,0.4,0.6,0.5,1,0.5C111.7,178.1,112,177.9,112.3,177.5z M119.2,172.4h2.3l-9.1,13.3h-2.3L119.2,172.4z M118.6,185.4c-0.5-0.3-0.9-0.7-1.2-1.3c-0.3-0.6-0.4-1.2-0.4-1.9c0-0.7,0.1-1.4,0.4-1.9c0.3-0.6,0.7-1,1.2-1.3 c0.5-0.3,1.1-0.4,1.7-0.4c1,0,1.8,0.3,2.4,1s0.9,1.6,0.9,2.7c0,1.1-0.3,2-0.9,2.7s-1.4,1-2.4,1 C119.7,185.9,119.1,185.7,118.6,185.4z M121.3,183.8c0.2-0.4,0.4-0.9,0.4-1.6s-0.1-1.2-0.4-1.6s-0.6-0.5-1-0.5 c-0.4,0-0.8,0.2-1,0.5c-0.3,0.4-0.4,0.9-0.4,1.6c0,0.7,0.1,1.2,0.4,1.6c0.3,0.4,0.6,0.5,1,0.5 C120.7,184.3,121.1,184.1,121.3,183.8z"></path> </g> </g> <g> <g> <path class="st8" d="M102.1,125.8h-2.2v2.8h-3v-2.8h-7.2v-2.1l6.3-8.4h3.2l-5.8,8H97v-2.5h2.9v2.5h2.2V125.8z"></path> <path class="st8" d="M103.1,121.5c-0.6-0.7-0.9-1.6-0.9-2.7c0-1.1,0.3-2,0.9-2.7s1.4-1,2.4-1c1,0,1.8,0.3,2.4,1 c0.6,0.7,0.9,1.6,0.9,2.7c0,1.1-0.3,2-0.9,2.7c-0.6,0.7-1.4,1-2.4,1C104.5,122.5,103.7,122.2,103.1,121.5z M106.5,120.4 c0.2-0.4,0.4-0.9,0.4-1.6c0-0.7-0.1-1.2-0.4-1.6c-0.2-0.4-0.6-0.5-1-0.5c-0.4,0-0.8,0.2-1,0.5c-0.3,0.4-0.4,0.9-0.4,1.6 s0.1,1.2,0.4,1.6c0.3,0.4,0.6,0.5,1,0.5C105.9,121,106.3,120.8,106.5,120.4z M113.4,115.3h2.3l-9.1,13.3h-2.3L113.4,115.3z M112.8,128.3c-0.5-0.3-0.9-0.7-1.2-1.3c-0.3-0.6-0.4-1.2-0.4-1.9c0-0.7,0.1-1.4,0.4-1.9c0.3-0.6,0.7-1,1.2-1.3 c0.5-0.3,1.1-0.4,1.7-0.4c1,0,1.8,0.3,2.4,1s0.9,1.6,0.9,2.7c0,1.1-0.3,2-0.9,2.7s-1.4,1-2.4,1 C113.9,128.8,113.3,128.6,112.8,128.3z M115.5,126.7c0.2-0.4,0.4-0.9,0.4-1.6s-0.1-1.2-0.4-1.6s-0.6-0.5-1-0.5 c-0.4,0-0.8,0.2-1,0.5c-0.3,0.4-0.4,0.9-0.4,1.6c0,0.7,0.1,1.2,0.4,1.6c0.3,0.4,0.6,0.5,1,0.5C115,127.2,115.3,127,115.5,126.7z"></path> </g> </g> <g> <g> <path class="st8" d="M258.1,514.4v13.3H255v-10.8h-2.7v-2.5H258.1z"></path> <path class="st8" d="M272.6,524.9h-2.2v2.8h-3v-2.8h-7.2v-2.1l6.3-8.4h3.2l-5.8,8h3.6v-2.5h2.9v2.5h2.2V524.9z"></path> <path class="st8" d="M273.6,520.6c-0.6-0.7-0.9-1.6-0.9-2.7c0-1.1,0.3-2,0.9-2.7s1.4-1,2.4-1c1,0,1.8,0.3,2.4,1 c0.6,0.7,0.9,1.6,0.9,2.7c0,1.1-0.3,2-0.9,2.7c-0.6,0.7-1.4,1-2.4,1C275,521.6,274.2,521.3,273.6,520.6z M277,519.5 c0.2-0.4,0.4-0.9,0.4-1.6c0-0.7-0.1-1.2-0.4-1.6c-0.2-0.4-0.6-0.5-1-0.5c-0.4,0-0.8,0.2-1,0.5c-0.3,0.4-0.4,0.9-0.4,1.6 c0,0.7,0.1,1.2,0.4,1.6c0.3,0.4,0.6,0.5,1,0.5C276.4,520,276.8,519.9,277,519.5z M283.9,514.4h2.3l-9.1,13.3h-2.3L283.9,514.4z M283.3,527.4c-0.5-0.3-0.9-0.7-1.2-1.3c-0.3-0.6-0.4-1.2-0.4-1.9s0.1-1.4,0.4-1.9c0.3-0.6,0.7-1,1.2-1.3c0.5-0.3,1.1-0.4,1.7-0.4 c1,0,1.8,0.3,2.4,1s0.9,1.6,0.9,2.7s-0.3,2-0.9,2.7s-1.4,1-2.4,1C284.4,527.9,283.8,527.7,283.3,527.4z M286,525.8 c0.2-0.4,0.4-0.9,0.4-1.6c0-0.7-0.1-1.2-0.4-1.6c-0.2-0.4-0.6-0.5-1-0.5c-0.4,0-0.8,0.2-1,0.5c-0.3,0.4-0.4,0.9-0.4,1.6 s0.1,1.2,0.4,1.6c0.3,0.4,0.6,0.5,1,0.5C285.4,526.3,285.8,526.1,286,525.8z"></path> </g> </g> <g> <g> <path class="st8" d="M259.9,367.5c0.9,0.7,1.3,1.7,1.3,3c0,0.8-0.2,1.5-0.6,2.2s-1,1.2-1.9,1.6c-0.8,0.4-1.9,0.6-3.1,0.6 c-0.9,0-1.9-0.1-2.8-0.4c-0.9-0.2-1.7-0.6-2.3-1.1l1.2-2.4c0.5,0.4,1.1,0.7,1.7,0.9c0.7,0.2,1.3,0.3,2,0.3c0.8,0,1.4-0.2,1.8-0.5 s0.7-0.7,0.7-1.3c0-0.6-0.2-1-0.7-1.3c-0.5-0.3-1.3-0.4-2.4-0.4h-3.4l0.7-7.5h8.1v2.5h-5.5l-0.2,2.5h1.1 C257.7,366.4,259,366.7,259.9,367.5z"></path> <path class="st8" d="M271.6,362.8c1.1,1.1,1.6,2.8,1.6,4.9c0,1.5-0.3,2.8-0.8,3.9c-0.6,1.1-1.4,1.9-2.4,2.5 c-1,0.6-2.2,0.8-3.6,0.8c-0.7,0-1.4-0.1-2-0.2c-0.6-0.2-1.2-0.4-1.7-0.7l1.1-2.3c0.6,0.4,1.5,0.7,2.5,0.7c1.1,0,2-0.3,2.7-1 c0.7-0.7,1-1.6,1.1-2.9c-0.8,0.8-1.9,1.2-3.3,1.2c-0.8,0-1.6-0.2-2.3-0.5c-0.7-0.3-1.2-0.8-1.7-1.5c-0.4-0.6-0.6-1.4-0.6-2.2 c0-0.9,0.2-1.7,0.7-2.3s1-1.2,1.8-1.5c0.8-0.4,1.6-0.5,2.6-0.5C269.1,361.1,270.5,361.7,271.6,362.8z M269.1,366.8 c0.4-0.4,0.6-0.9,0.6-1.4s-0.2-1.1-0.6-1.4c-0.4-0.4-1-0.6-1.7-0.6c-0.7,0-1.2,0.2-1.6,0.5c-0.4,0.4-0.6,0.8-0.6,1.4 s0.2,1.1,0.6,1.5c0.4,0.4,1,0.5,1.6,0.5C268.1,367.4,268.7,367.2,269.1,366.8z"></path> <path class="st8" d="M275.3,367.5c-0.6-0.7-0.9-1.6-0.9-2.7c0-1.1,0.3-2,0.9-2.7s1.4-1,2.4-1c1,0,1.8,0.3,2.4,1 c0.6,0.7,0.9,1.6,0.9,2.7c0,1.1-0.3,2-0.9,2.7c-0.6,0.7-1.4,1-2.4,1C276.7,368.5,275.9,368.2,275.3,367.5z M278.7,366.5 c0.2-0.4,0.4-0.9,0.4-1.6c0-0.7-0.1-1.2-0.4-1.6c-0.2-0.4-0.6-0.5-1-0.5c-0.4,0-0.8,0.2-1,0.5c-0.3,0.4-0.4,0.9-0.4,1.6 s0.1,1.2,0.4,1.6c0.3,0.4,0.6,0.5,1,0.5C278.1,367,278.5,366.8,278.7,366.5z M285.6,361.4h2.3l-9.1,13.3h-2.3L285.6,361.4z M285,374.4c-0.5-0.3-0.9-0.7-1.2-1.3c-0.3-0.6-0.4-1.2-0.4-1.9c0-0.7,0.1-1.4,0.4-1.9c0.3-0.6,0.7-1,1.2-1.3 c0.5-0.3,1.1-0.4,1.7-0.4c1,0,1.8,0.3,2.4,1s0.9,1.6,0.9,2.7c0,1.1-0.3,2-0.9,2.7s-1.4,1-2.4,1C286.1,374.8,285.5,374.7,285,374.4 z M287.8,372.7c0.2-0.4,0.4-0.9,0.4-1.6s-0.1-1.2-0.4-1.6s-0.6-0.5-1-0.5c-0.4,0-0.8,0.2-1,0.5c-0.3,0.4-0.4,0.9-0.4,1.6 c0,0.7,0.1,1.2,0.4,1.6c0.3,0.4,0.6,0.5,1,0.5C287.2,373.3,287.5,373.1,287.8,372.7z"></path> </g> </g> <g> <g> <path class="st8" d="M258.6,199.7V213h-3.1v-10.8h-2.7v-2.5H258.6z"></path> <path class="st8" d="M270.9,210.5v2.5h-10v-2l5.1-4.8c0.5-0.5,0.9-1,1.1-1.3c0.2-0.4,0.3-0.7,0.3-1.1c0-0.5-0.2-0.9-0.5-1.2 c-0.4-0.3-0.9-0.4-1.6-0.4c-0.6,0-1.1,0.1-1.6,0.3c-0.5,0.2-0.9,0.6-1.2,1l-2.2-1.4c0.5-0.8,1.2-1.4,2.1-1.8s2-0.7,3.1-0.7 c1,0,1.9,0.2,2.6,0.5c0.7,0.3,1.3,0.8,1.7,1.4c0.4,0.6,0.6,1.3,0.6,2.1c0,0.7-0.2,1.4-0.5,2s-0.9,1.4-1.8,2.2l-3.1,2.9H270.9z"></path> <path class="st8" d="M273,205.9c-0.6-0.7-0.9-1.6-0.9-2.7c0-1.1,0.3-2,0.9-2.7s1.4-1,2.4-1c1,0,1.8,0.3,2.4,1 c0.6,0.7,0.9,1.6,0.9,2.7c0,1.1-0.3,2-0.9,2.7c-0.6,0.7-1.4,1-2.4,1C274.5,206.9,273.7,206.5,273,205.9z M276.4,204.8 c0.2-0.4,0.4-0.9,0.4-1.6c0-0.7-0.1-1.2-0.4-1.6c-0.2-0.4-0.6-0.5-1-0.5c-0.4,0-0.8,0.2-1,0.5c-0.3,0.4-0.4,0.9-0.4,1.6 s0.1,1.2,0.4,1.6c0.3,0.4,0.6,0.5,1,0.5C275.9,205.3,276.2,205.1,276.4,204.8z M283.4,199.7h2.3l-9.1,13.3h-2.3L283.4,199.7z M282.8,212.7c-0.5-0.3-0.9-0.7-1.2-1.3c-0.3-0.6-0.4-1.2-0.4-1.9c0-0.7,0.1-1.4,0.4-1.9c0.3-0.6,0.7-1,1.2-1.3 c0.5-0.3,1.1-0.4,1.7-0.4c1,0,1.8,0.3,2.4,1s0.9,1.6,0.9,2.7c0,1.1-0.3,2-0.9,2.7s-1.4,1-2.4,1C283.8,213.1,283.3,213,282.8,212.7 z M285.5,211c0.2-0.4,0.4-0.9,0.4-1.6s-0.1-1.2-0.4-1.6s-0.6-0.5-1-0.5c-0.4,0-0.8,0.2-1,0.5c-0.3,0.4-0.4,0.9-0.4,1.6 c0,0.7,0.1,1.2,0.4,1.6c0.3,0.4,0.6,0.5,1,0.5C284.9,211.6,285.2,211.4,285.5,211z"></path> </g> </g> <g> <g> <path class="st8" d="M265.9,155.2c1.1,1.1,1.6,2.8,1.6,4.9c0,1.5-0.3,2.8-0.8,3.9c-0.6,1.1-1.4,1.9-2.4,2.5 c-1,0.6-2.2,0.8-3.6,0.8c-0.7,0-1.4-0.1-2-0.2c-0.6-0.2-1.2-0.4-1.7-0.7l1.1-2.3c0.6,0.4,1.5,0.7,2.5,0.7c1.1,0,2-0.3,2.7-1 c0.7-0.7,1-1.6,1.1-2.9c-0.8,0.8-1.9,1.2-3.3,1.2c-0.8,0-1.6-0.2-2.3-0.5c-0.7-0.3-1.2-0.8-1.7-1.5c-0.4-0.6-0.6-1.4-0.6-2.2 c0-0.9,0.2-1.7,0.7-2.3s1-1.2,1.8-1.5c0.8-0.4,1.6-0.5,2.6-0.5C263.4,153.5,264.9,154.1,265.9,155.2z M263.4,159.2 c0.4-0.4,0.6-0.9,0.6-1.4s-0.2-1.1-0.6-1.4c-0.4-0.4-1-0.6-1.7-0.6c-0.7,0-1.2,0.2-1.6,0.5c-0.4,0.4-0.6,0.8-0.6,1.4 s0.2,1.1,0.6,1.5c0.4,0.4,1,0.5,1.6,0.5C262.5,159.8,263,159.6,263.4,159.2z"></path> <path class="st8" d="M269.7,159.9c-0.6-0.7-0.9-1.6-0.9-2.7c0-1.1,0.3-2,0.9-2.7s1.4-1,2.4-1c1,0,1.8,0.3,2.4,1 c0.6,0.7,0.9,1.6,0.9,2.7c0,1.1-0.3,2-0.9,2.7c-0.6,0.7-1.4,1-2.4,1C271.1,160.9,270.3,160.6,269.7,159.9z M273.1,158.8 c0.2-0.4,0.4-0.9,0.4-1.6c0-0.7-0.1-1.2-0.4-1.6c-0.2-0.4-0.6-0.5-1-0.5c-0.4,0-0.8,0.2-1,0.5c-0.3,0.4-0.4,0.9-0.4,1.6 s0.1,1.2,0.4,1.6c0.3,0.4,0.6,0.5,1,0.5C272.5,159.4,272.8,159.2,273.1,158.8z M280,153.7h2.3l-9.1,13.3h-2.3L280,153.7z M279.4,166.7c-0.5-0.3-0.9-0.7-1.2-1.3c-0.3-0.6-0.4-1.2-0.4-1.9c0-0.7,0.1-1.4,0.4-1.9c0.3-0.6,0.7-1,1.2-1.3 c0.5-0.3,1.1-0.4,1.7-0.4c1,0,1.8,0.3,2.4,1s0.9,1.6,0.9,2.7c0,1.1-0.3,2-0.9,2.7s-1.4,1-2.4,1C280.5,167.2,279.9,167,279.4,166.7 z M282.1,165.1c0.2-0.4,0.4-0.9,0.4-1.6s-0.1-1.2-0.4-1.6s-0.6-0.5-1-0.5c-0.4,0-0.8,0.2-1,0.5c-0.3,0.4-0.4,0.9-0.4,1.6 c0,0.7,0.1,1.2,0.4,1.6c0.3,0.4,0.6,0.5,1,0.5C281.5,165.6,281.9,165.4,282.1,165.1z"></path> </g> </g> <g> <g> <path class="st8" d="M265.8,120.8c0.7,0.3,1.2,0.8,1.7,1.5c0.4,0.6,0.6,1.4,0.6,2.2c0,0.9-0.2,1.7-0.7,2.3s-1,1.2-1.8,1.5 s-1.6,0.5-2.6,0.5c-1.9,0-3.3-0.6-4.4-1.7c-1.1-1.1-1.6-2.8-1.6-4.9c0-1.5,0.3-2.8,0.9-3.9c0.6-1.1,1.4-1.9,2.4-2.5 c1-0.6,2.2-0.8,3.5-0.8c0.7,0,1.4,0.1,2,0.2c0.7,0.2,1.2,0.4,1.7,0.7l-1.1,2.3c-0.7-0.4-1.5-0.7-2.5-0.7c-1.1,0-2,0.3-2.7,1 c-0.7,0.7-1,1.6-1.1,2.9c0.8-0.8,1.9-1.2,3.3-1.2C264.3,120.3,265.1,120.5,265.8,120.8z M264.5,126c0.4-0.4,0.6-0.8,0.6-1.4 s-0.2-1.1-0.6-1.5s-1-0.5-1.6-0.5c-0.7,0-1.2,0.2-1.7,0.6s-0.6,0.9-0.6,1.4s0.2,1.1,0.6,1.4c0.4,0.4,1,0.6,1.7,0.6 C263.5,126.6,264,126.4,264.5,126z"></path> <path class="st8" d="M269.5,121.5c-0.6-0.7-0.9-1.6-0.9-2.7c0-1.1,0.3-2,0.9-2.7s1.4-1,2.4-1c1,0,1.8,0.3,2.4,1 c0.6,0.7,0.9,1.6,0.9,2.7c0,1.1-0.3,2-0.9,2.7c-0.6,0.7-1.4,1-2.4,1C270.9,122.5,270.1,122.2,269.5,121.5z M272.9,120.4 c0.2-0.4,0.4-0.9,0.4-1.6c0-0.7-0.1-1.2-0.4-1.6c-0.2-0.4-0.6-0.5-1-0.5c-0.4,0-0.8,0.2-1,0.5c-0.3,0.4-0.4,0.9-0.4,1.6 s0.1,1.2,0.4,1.6c0.3,0.4,0.6,0.5,1,0.5C272.3,121,272.6,120.8,272.9,120.4z M279.8,115.3h2.3l-9.1,13.3h-2.3L279.8,115.3z M279.2,128.3c-0.5-0.3-0.9-0.7-1.2-1.3c-0.3-0.6-0.4-1.2-0.4-1.9c0-0.7,0.1-1.4,0.4-1.9c0.3-0.6,0.7-1,1.2-1.3 c0.5-0.3,1.1-0.4,1.7-0.4c1,0,1.8,0.3,2.4,1s0.9,1.6,0.9,2.7c0,1.1-0.3,2-0.9,2.7s-1.4,1-2.4,1 C280.3,128.8,279.7,128.6,279.2,128.3z M281.9,126.7c0.2-0.4,0.4-0.9,0.4-1.6s-0.1-1.2-0.4-1.6s-0.6-0.5-1-0.5 c-0.4,0-0.8,0.2-1,0.5c-0.3,0.4-0.4,0.9-0.4,1.6c0,0.7,0.1,1.2,0.4,1.6c0.3,0.4,0.6,0.5,1,0.5C281.3,127.2,281.7,127,281.9,126.7z "></path> </g> </g> <g> <g> <path class="st8" d="M424.8,514.4v13.3h-3.1v-10.8h-2.7v-2.5H424.8z"></path> <path class="st8" d="M439.3,524.9h-2.2v2.8h-3v-2.8H427v-2.1l6.3-8.4h3.2l-5.8,8h3.6v-2.5h2.9v2.5h2.2V524.9z"></path> <path class="st8" d="M440.4,520.6c-0.6-0.7-0.9-1.6-0.9-2.7c0-1.1,0.3-2,0.9-2.7c0.6-0.7,1.4-1,2.4-1c1,0,1.8,0.3,2.4,1 c0.6,0.7,0.9,1.6,0.9,2.7c0,1.1-0.3,2-0.9,2.7c-0.6,0.7-1.4,1-2.4,1C441.8,521.6,441,521.3,440.4,520.6z M443.8,519.5 c0.2-0.4,0.4-0.9,0.4-1.6c0-0.7-0.1-1.2-0.4-1.6s-0.6-0.5-1-0.5c-0.4,0-0.8,0.2-1,0.5c-0.3,0.4-0.4,0.9-0.4,1.6 c0,0.7,0.1,1.2,0.4,1.6c0.3,0.4,0.6,0.5,1,0.5C443.2,520,443.5,519.9,443.8,519.5z M450.7,514.4h2.3l-9.1,13.3h-2.3L450.7,514.4z M450.1,527.4c-0.5-0.3-0.9-0.7-1.2-1.3c-0.3-0.6-0.4-1.2-0.4-1.9s0.1-1.4,0.4-1.9c0.3-0.6,0.7-1,1.2-1.3c0.5-0.3,1.1-0.4,1.7-0.4 c1,0,1.8,0.3,2.4,1c0.6,0.7,0.9,1.6,0.9,2.7s-0.3,2-0.9,2.7c-0.6,0.7-1.4,1-2.4,1C451.2,527.9,450.6,527.7,450.1,527.4z M452.8,525.8c0.2-0.4,0.4-0.9,0.4-1.6c0-0.7-0.1-1.2-0.4-1.6c-0.2-0.4-0.6-0.5-1-0.5c-0.4,0-0.8,0.2-1,0.5 c-0.3,0.4-0.4,0.9-0.4,1.6s0.1,1.2,0.4,1.6c0.3,0.4,0.6,0.5,1,0.5C452.2,526.3,452.6,526.1,452.8,525.8z"></path> </g> </g> <g> <g> <path class="st8" d="M429.1,393.1h-2.2v2.8h-3v-2.8h-7.2V391l6.3-8.4h3.2l-5.8,8h3.6v-2.5h2.9v2.5h2.2V393.1z"></path> <path class="st8" d="M440.8,390.2c0.3,0.5,0.5,1.1,0.5,1.8c0,0.8-0.2,1.5-0.7,2.2c-0.5,0.6-1.1,1.1-2,1.4 c-0.8,0.3-1.8,0.5-2.9,0.5c-1.1,0-2.1-0.2-2.9-0.5c-0.8-0.3-1.5-0.8-2-1.4c-0.5-0.6-0.7-1.3-0.7-2.2c0-0.7,0.2-1.3,0.5-1.8 c0.3-0.5,0.8-1,1.5-1.3c-0.5-0.3-0.9-0.7-1.1-1.1c-0.3-0.5-0.4-1-0.4-1.6c0-0.8,0.2-1.4,0.6-2c0.4-0.6,1-1,1.8-1.3 c0.8-0.3,1.7-0.5,2.7-0.5c1,0,1.9,0.2,2.7,0.5c0.8,0.3,1.4,0.8,1.8,1.3c0.4,0.6,0.6,1.2,0.6,2c0,0.6-0.1,1.1-0.4,1.6 c-0.3,0.5-0.7,0.8-1.2,1.1C439.9,389.2,440.4,389.6,440.8,390.2z M437.5,393.3c0.4-0.3,0.7-0.8,0.7-1.4c0-0.6-0.2-1-0.7-1.4 c-0.4-0.3-1.1-0.5-1.8-0.5c-0.8,0-1.4,0.2-1.8,0.5c-0.4,0.3-0.7,0.8-0.7,1.4c0,0.6,0.2,1.1,0.7,1.4c0.4,0.3,1,0.5,1.8,0.5 C436.5,393.8,437.1,393.7,437.5,393.3z M434.2,385c-0.4,0.3-0.6,0.7-0.6,1.2c0,0.5,0.2,0.9,0.6,1.2s0.9,0.4,1.5,0.4 s1.1-0.1,1.5-0.4c0.4-0.3,0.6-0.7,0.6-1.2c0-0.5-0.2-0.9-0.6-1.2c-0.4-0.3-0.9-0.4-1.5-0.4C435.1,384.6,434.6,384.7,434.2,385z"></path> <path class="st8" d="M443.2,388.7c-0.6-0.7-0.9-1.6-0.9-2.7c0-1.1,0.3-2,0.9-2.7c0.6-0.7,1.4-1,2.4-1c1,0,1.8,0.3,2.4,1 c0.6,0.7,0.9,1.6,0.9,2.7c0,1.1-0.3,2-0.9,2.7c-0.6,0.7-1.4,1-2.4,1C444.6,389.7,443.8,389.4,443.2,388.7z M446.6,387.6 c0.2-0.4,0.4-0.9,0.4-1.6c0-0.7-0.1-1.2-0.4-1.6s-0.6-0.5-1-0.5c-0.4,0-0.8,0.2-1,0.5s-0.4,0.9-0.4,1.6s0.1,1.2,0.4,1.6 c0.3,0.4,0.6,0.5,1,0.5C446,388.2,446.4,388,446.6,387.6z M453.5,382.6h2.3l-9.1,13.3h-2.3L453.5,382.6z M452.9,395.6 c-0.5-0.3-0.9-0.7-1.2-1.3c-0.3-0.6-0.4-1.2-0.4-1.9c0-0.7,0.1-1.4,0.4-1.9c0.3-0.6,0.7-1,1.2-1.3c0.5-0.3,1.1-0.4,1.7-0.4 c1,0,1.8,0.3,2.4,1c0.6,0.7,0.9,1.6,0.9,2.7c0,1.1-0.3,2-0.9,2.7c-0.6,0.7-1.4,1-2.4,1C454,396,453.4,395.9,452.9,395.6z M455.6,393.9c0.2-0.4,0.4-0.9,0.4-1.6s-0.1-1.2-0.4-1.6c-0.2-0.4-0.6-0.5-1-0.5c-0.4,0-0.8,0.2-1,0.5c-0.3,0.4-0.4,0.9-0.4,1.6 c0,0.7,0.1,1.2,0.4,1.6c0.3,0.4,0.6,0.5,1,0.5C455.1,394.5,455.4,394.3,455.6,393.9z"></path> </g> </g> <g> <g> <path class="st8" d="M427.9,232.6v2.5h-10.1v-2l5.1-4.8c0.5-0.5,0.9-1,1.1-1.3c0.2-0.4,0.3-0.7,0.3-1.1c0-0.5-0.2-0.9-0.5-1.2 c-0.4-0.3-0.9-0.4-1.6-0.4c-0.6,0-1.1,0.1-1.6,0.3c-0.5,0.2-0.9,0.6-1.2,1l-2.2-1.4c0.5-0.8,1.2-1.4,2.1-1.8s2-0.7,3.1-0.7 c1,0,1.9,0.2,2.6,0.5c0.7,0.3,1.3,0.8,1.7,1.4c0.4,0.6,0.6,1.3,0.6,2.1c0,0.7-0.2,1.4-0.5,2c-0.3,0.6-0.9,1.4-1.8,2.2l-3.1,2.9 H427.9z"></path> <path class="st8" d="M441.1,232.3H439v2.8h-3v-2.8h-7.2v-2.1l6.3-8.4h3.2l-5.8,8h3.6v-2.5h2.9v2.5h2.2V232.3z"></path> <path class="st8" d="M442.2,228c-0.6-0.7-0.9-1.6-0.9-2.7c0-1.1,0.3-2,0.9-2.7c0.6-0.7,1.4-1,2.4-1c1,0,1.8,0.3,2.4,1 c0.6,0.7,0.9,1.6,0.9,2.7c0,1.1-0.3,2-0.9,2.7c-0.6,0.7-1.4,1-2.4,1C443.6,229,442.8,228.6,442.2,228z M445.6,226.9 c0.2-0.4,0.4-0.9,0.4-1.6c0-0.7-0.1-1.2-0.4-1.6s-0.6-0.5-1-0.5c-0.4,0-0.8,0.2-1,0.5s-0.4,0.9-0.4,1.6s0.1,1.2,0.4,1.6 c0.3,0.4,0.6,0.5,1,0.5C445,227.4,445.3,227.2,445.6,226.9z M452.5,221.8h2.3l-9.1,13.3h-2.3L452.5,221.8z M451.9,234.8 c-0.5-0.3-0.9-0.7-1.2-1.3c-0.3-0.6-0.4-1.2-0.4-1.9c0-0.7,0.1-1.4,0.4-1.9c0.3-0.6,0.7-1,1.2-1.3c0.5-0.3,1.1-0.4,1.7-0.4 c1,0,1.8,0.3,2.4,1c0.6,0.7,0.9,1.6,0.9,2.7c0,1.1-0.3,2-0.9,2.7c-0.6,0.7-1.4,1-2.4,1C452.9,235.2,452.4,235.1,451.9,234.8z M454.6,233.1c0.2-0.4,0.4-0.9,0.4-1.6s-0.1-1.2-0.4-1.6c-0.2-0.4-0.6-0.5-1-0.5c-0.4,0-0.8,0.2-1,0.5c-0.3,0.4-0.4,0.9-0.4,1.6 c0,0.7,0.1,1.2,0.4,1.6c0.3,0.4,0.6,0.5,1,0.5C454,233.7,454.3,233.5,454.6,233.1z"></path> </g> </g> <g> <g> <path class="st8" d="M434.2,154.4v2l-4.9,11.3h-3.3l4.8-10.8h-4.4v2.2h-2.7v-4.7H434.2z"></path> <path class="st8" d="M436.3,160.6c-0.6-0.7-0.9-1.6-0.9-2.7c0-1.1,0.3-2,0.9-2.7c0.6-0.7,1.4-1,2.4-1s1.8,0.3,2.4,1 s0.9,1.6,0.9,2.7c0,1.1-0.3,2-0.9,2.7c-0.6,0.7-1.4,1-2.4,1S437,161.3,436.3,160.6z M439.7,159.5c0.2-0.4,0.4-0.9,0.4-1.6 c0-0.7-0.1-1.2-0.4-1.6c-0.2-0.4-0.6-0.5-1-0.5c-0.4,0-0.8,0.2-1,0.5c-0.3,0.4-0.4,0.9-0.4,1.6s0.1,1.2,0.4,1.6 c0.3,0.4,0.6,0.5,1,0.5C439.2,160.1,439.5,159.9,439.7,159.5z M446.7,154.4h2.3l-9.1,13.3h-2.3L446.7,154.4z M446.1,167.5 c-0.5-0.3-0.9-0.7-1.2-1.3c-0.3-0.6-0.4-1.2-0.4-1.9c0-0.7,0.1-1.4,0.4-1.9c0.3-0.6,0.7-1,1.2-1.3s1.1-0.4,1.7-0.4 c1,0,1.8,0.3,2.4,1c0.6,0.7,0.9,1.6,0.9,2.7c0,1.1-0.3,2-0.9,2.7c-0.6,0.7-1.4,1-2.4,1C447.1,167.9,446.6,167.7,446.1,167.5z M448.8,165.8c0.2-0.4,0.4-0.9,0.4-1.6s-0.1-1.2-0.4-1.6c-0.2-0.4-0.6-0.5-1-0.5c-0.4,0-0.8,0.2-1,0.5s-0.4,0.9-0.4,1.6 c0,0.7,0.1,1.2,0.4,1.6c0.3,0.4,0.6,0.5,1,0.5C448.2,166.3,448.5,166.2,448.8,165.8z"></path> </g> </g> <g> <g> <path class="st8" d="M434.2,121.3v2l-4.9,11.3h-3.3l4.8-10.8h-4.4v2.2h-2.7v-4.7H434.2z"></path> <path class="st8" d="M436.3,127.5c-0.6-0.7-0.9-1.6-0.9-2.7c0-1.1,0.3-2,0.9-2.7c0.6-0.7,1.4-1,2.4-1s1.8,0.3,2.4,1 s0.9,1.6,0.9,2.7c0,1.1-0.3,2-0.9,2.7c-0.6,0.7-1.4,1-2.4,1S437,128.2,436.3,127.5z M439.7,126.4c0.2-0.4,0.4-0.9,0.4-1.6 c0-0.7-0.1-1.2-0.4-1.6c-0.2-0.4-0.6-0.5-1-0.5c-0.4,0-0.8,0.2-1,0.5c-0.3,0.4-0.4,0.9-0.4,1.6s0.1,1.2,0.4,1.6 c0.3,0.4,0.6,0.5,1,0.5C439.2,127,439.5,126.8,439.7,126.4z M446.7,121.3h2.3l-9.1,13.3h-2.3L446.7,121.3z M446.1,134.3 c-0.5-0.3-0.9-0.7-1.2-1.3c-0.3-0.6-0.4-1.2-0.4-1.9c0-0.7,0.1-1.4,0.4-1.9c0.3-0.6,0.7-1,1.2-1.3s1.1-0.4,1.7-0.4 c1,0,1.8,0.3,2.4,1c0.6,0.7,0.9,1.6,0.9,2.7c0,1.1-0.3,2-0.9,2.7c-0.6,0.7-1.4,1-2.4,1C447.1,134.8,446.6,134.6,446.1,134.3z M448.8,132.7c0.2-0.4,0.4-0.9,0.4-1.6s-0.1-1.2-0.4-1.6c-0.2-0.4-0.6-0.5-1-0.5c-0.4,0-0.8,0.2-1,0.5s-0.4,0.9-0.4,1.6 c0,0.7,0.1,1.2,0.4,1.6c0.3,0.4,0.6,0.5,1,0.5C448.2,133.2,448.5,133.1,448.8,132.7z"></path> </g> </g> <g> <g> <path class="st8" d="M592.2,518.4v13.3h-3.1v-10.8h-2.7v-2.5H592.2z"></path> <path class="st8" d="M604.4,529.2v2.5h-10v-2l5.1-4.8c0.5-0.5,0.9-1,1.1-1.3c0.2-0.4,0.3-0.7,0.3-1.1c0-0.5-0.2-0.9-0.5-1.2 c-0.4-0.3-0.9-0.4-1.6-0.4c-0.6,0-1.1,0.1-1.6,0.3c-0.5,0.2-0.9,0.6-1.2,1l-2.2-1.4c0.5-0.8,1.2-1.4,2.1-1.8 c0.9-0.4,2-0.7,3.1-0.7c1,0,1.9,0.2,2.6,0.5c0.7,0.3,1.3,0.8,1.7,1.4c0.4,0.6,0.6,1.3,0.6,2.1c0,0.7-0.2,1.4-0.5,2 c-0.3,0.6-0.9,1.4-1.8,2.2l-3.1,2.9H604.4z"></path> <path class="st8" d="M606.6,524.6c-0.6-0.7-0.9-1.6-0.9-2.7c0-1.1,0.3-2,0.9-2.7s1.4-1,2.4-1c1,0,1.8,0.3,2.4,1 c0.6,0.7,0.9,1.6,0.9,2.7c0,1.1-0.3,2-0.9,2.7c-0.6,0.7-1.4,1-2.4,1C608,525.6,607.2,525.3,606.6,524.6z M610,523.5 c0.2-0.4,0.4-0.9,0.4-1.6c0-0.7-0.1-1.2-0.4-1.6c-0.2-0.4-0.6-0.5-1-0.5c-0.4,0-0.8,0.2-1,0.5c-0.3,0.4-0.4,0.9-0.4,1.6 c0,0.7,0.1,1.2,0.4,1.6c0.3,0.4,0.6,0.5,1,0.5C609.4,524,609.7,523.9,610,523.5z M616.9,518.4h2.3l-9.1,13.3h-2.3L616.9,518.4z M616.3,531.4c-0.5-0.3-0.9-0.7-1.2-1.3c-0.3-0.6-0.4-1.2-0.4-1.9s0.1-1.4,0.4-1.9c0.3-0.6,0.7-1,1.2-1.3c0.5-0.3,1.1-0.4,1.7-0.4 c1,0,1.8,0.3,2.4,1s0.9,1.6,0.9,2.7s-0.3,2-0.9,2.7s-1.4,1-2.4,1C617.4,531.9,616.8,531.7,616.3,531.4z M619,529.8 c0.2-0.4,0.4-0.9,0.4-1.6c0-0.7-0.1-1.2-0.4-1.6c-0.2-0.4-0.6-0.5-1-0.5c-0.4,0-0.8,0.2-1,0.5c-0.3,0.4-0.4,0.9-0.4,1.6 s0.1,1.2,0.4,1.6c0.3,0.4,0.6,0.5,1,0.5C618.4,530.3,618.8,530.1,619,529.8z"></path> </g> </g> <g> <g> <path class="st8" d="M593.6,416.8c0.6,0.7,0.9,1.5,0.9,2.5c0,0.8-0.2,1.5-0.6,2.1s-1,1.2-1.9,1.6c-0.8,0.4-1.8,0.6-3,0.6 c-0.9,0-1.9-0.1-2.8-0.4c-0.9-0.2-1.7-0.6-2.3-1.1l1.2-2.4c0.5,0.4,1.1,0.7,1.8,0.9s1.3,0.3,2,0.3c0.8,0,1.4-0.1,1.8-0.4 s0.7-0.7,0.7-1.3c0-1.1-0.8-1.6-2.5-1.6h-1.4v-2l2.7-3.1h-5.7v-2.5h9.3v2l-3,3.4C592.1,415.7,592.9,416.1,593.6,416.8z"></path> <path class="st8" d="M606.5,417.7c0.3,0.5,0.5,1.1,0.5,1.8c0,0.8-0.2,1.5-0.7,2.2c-0.5,0.6-1.1,1.1-2,1.4 c-0.8,0.3-1.8,0.5-2.9,0.5s-2.1-0.2-2.9-0.5c-0.8-0.3-1.5-0.8-2-1.4c-0.5-0.6-0.7-1.3-0.7-2.2c0-0.7,0.2-1.3,0.5-1.8 s0.8-1,1.5-1.3c-0.5-0.3-0.9-0.7-1.1-1.1s-0.4-1-0.4-1.6c0-0.8,0.2-1.4,0.6-2s1-1,1.8-1.3c0.8-0.3,1.7-0.5,2.7-0.5 c1,0,1.9,0.2,2.7,0.5s1.4,0.8,1.8,1.3s0.6,1.2,0.6,2c0,0.6-0.1,1.1-0.4,1.6s-0.7,0.8-1.2,1.1C605.7,416.7,606.2,417.2,606.5,417.7 z M603.3,420.8c0.4-0.3,0.7-0.8,0.7-1.4s-0.2-1-0.7-1.4c-0.5-0.3-1.1-0.5-1.8-0.5c-0.8,0-1.4,0.2-1.8,0.5 c-0.4,0.3-0.7,0.8-0.7,1.4c0,0.6,0.2,1.1,0.7,1.4c0.4,0.3,1,0.5,1.8,0.5C602.2,421.4,602.8,421.2,603.3,420.8z M599.9,412.6 c-0.4,0.3-0.6,0.7-0.6,1.2c0,0.5,0.2,0.9,0.6,1.2c0.4,0.3,0.9,0.4,1.5,0.4c0.6,0,1.1-0.1,1.5-0.4c0.4-0.3,0.6-0.7,0.6-1.2 c0-0.5-0.2-0.9-0.6-1.2c-0.4-0.3-0.9-0.4-1.5-0.4C600.8,412.1,600.3,412.3,599.9,412.6z"></path> <path class="st8" d="M609,416.3c-0.6-0.7-0.9-1.6-0.9-2.7s0.3-2,0.9-2.7s1.4-1,2.4-1c1,0,1.8,0.3,2.4,1c0.6,0.7,0.9,1.6,0.9,2.7 s-0.3,2-0.9,2.7c-0.6,0.7-1.4,1-2.4,1C610.4,417.3,609.6,416.9,609,416.3z M612.4,415.2c0.2-0.4,0.4-0.9,0.4-1.6s-0.1-1.2-0.4-1.6 c-0.2-0.4-0.6-0.5-1-0.5c-0.4,0-0.8,0.2-1,0.5c-0.3,0.4-0.4,0.9-0.4,1.6c0,0.7,0.1,1.2,0.4,1.6c0.3,0.4,0.6,0.5,1,0.5 C611.8,415.7,612.1,415.5,612.4,415.2z M619.3,410.1h2.3l-9.1,13.3h-2.3L619.3,410.1z M618.7,423.1c-0.5-0.3-0.9-0.7-1.2-1.3 c-0.3-0.6-0.4-1.2-0.4-1.9c0-0.7,0.1-1.4,0.4-1.9c0.3-0.6,0.7-1,1.2-1.3c0.5-0.3,1.1-0.4,1.7-0.4c1,0,1.8,0.3,2.4,1 s0.9,1.6,0.9,2.7c0,1.1-0.3,2-0.9,2.7s-1.4,1-2.4,1C619.7,423.5,619.2,423.4,618.7,423.1z M621.4,421.4c0.2-0.4,0.4-0.9,0.4-1.6 c0-0.7-0.1-1.2-0.4-1.6c-0.2-0.4-0.6-0.5-1-0.5c-0.4,0-0.8,0.2-1,0.5c-0.3,0.4-0.4,0.9-0.4,1.6c0,0.7,0.1,1.2,0.4,1.6 c0.3,0.4,0.6,0.5,1,0.5C620.8,422,621.1,421.8,621.4,421.4z"></path> </g> </g> <g> <g> <path class="st8" d="M596,267.3c0.6,0.7,0.9,1.5,0.9,2.5c0,0.8-0.2,1.5-0.6,2.1c-0.4,0.7-1,1.2-1.9,1.6c-0.8,0.4-1.8,0.6-3,0.6 c-0.9,0-1.9-0.1-2.8-0.4c-0.9-0.2-1.7-0.6-2.3-1.1l1.2-2.4c0.5,0.4,1.1,0.7,1.8,0.9s1.3,0.3,2,0.3c0.8,0,1.4-0.1,1.8-0.4 c0.4-0.3,0.7-0.7,0.7-1.3c0-1.1-0.8-1.6-2.5-1.6H590v-2l2.7-3.1H587v-2.5h9.3v2l-3,3.4C594.5,266.2,595.4,266.6,596,267.3z"></path> <path class="st8" d="M603.5,260.6v13.3h-3.1v-10.8h-2.7v-2.5H603.5z"></path> <path class="st8" d="M606.5,266.8c-0.6-0.7-0.9-1.6-0.9-2.7c0-1.1,0.3-2,0.9-2.7s1.4-1,2.4-1c1,0,1.8,0.3,2.4,1 c0.6,0.7,0.9,1.6,0.9,2.7c0,1.1-0.3,2-0.9,2.7c-0.6,0.7-1.4,1-2.4,1C607.9,267.8,607.1,267.5,606.5,266.8z M609.9,265.7 c0.2-0.4,0.4-0.9,0.4-1.6c0-0.7-0.1-1.2-0.4-1.6c-0.2-0.4-0.6-0.5-1-0.5c-0.4,0-0.8,0.2-1,0.5c-0.3,0.4-0.4,0.9-0.4,1.6 s0.1,1.2,0.4,1.6c0.3,0.4,0.6,0.5,1,0.5C609.3,266.2,609.7,266.1,609.9,265.7z M616.8,260.6h2.3l-9.1,13.3h-2.3L616.8,260.6z M616.2,273.6c-0.5-0.3-0.9-0.7-1.2-1.3c-0.3-0.6-0.4-1.2-0.4-1.9c0-0.7,0.1-1.4,0.4-1.9c0.3-0.6,0.7-1,1.2-1.3 c0.5-0.3,1.1-0.4,1.7-0.4c1,0,1.8,0.3,2.4,1s0.9,1.6,0.9,2.7c0,1.1-0.3,2-0.9,2.7s-1.4,1-2.4,1 C617.3,274.1,616.7,273.9,616.2,273.6z M618.9,272c0.2-0.4,0.4-0.9,0.4-1.6s-0.1-1.2-0.4-1.6s-0.6-0.5-1-0.5c-0.4,0-0.8,0.2-1,0.5 c-0.3,0.4-0.4,0.9-0.4,1.6c0,0.7,0.1,1.2,0.4,1.6c0.3,0.4,0.6,0.5,1,0.5C618.4,272.5,618.7,272.3,618.9,272z"></path> </g> </g> <g> <g> <path class="st8" d="M599.5,175.4c1.1,1.1,1.6,2.8,1.6,4.9c0,1.5-0.3,2.8-0.8,3.9c-0.6,1.1-1.4,1.9-2.4,2.5 c-1,0.6-2.2,0.8-3.6,0.8c-0.7,0-1.4-0.1-2-0.2c-0.6-0.2-1.2-0.4-1.7-0.7l1.1-2.3c0.6,0.4,1.5,0.7,2.5,0.7c1.1,0,2-0.3,2.7-1 c0.7-0.7,1-1.6,1.1-2.9c-0.8,0.8-1.9,1.2-3.3,1.2c-0.8,0-1.6-0.2-2.3-0.5c-0.7-0.3-1.2-0.8-1.7-1.5c-0.4-0.6-0.6-1.4-0.6-2.2 c0-0.9,0.2-1.7,0.7-2.3s1-1.2,1.8-1.5c0.8-0.4,1.6-0.5,2.6-0.5C597,173.7,598.4,174.3,599.5,175.4z M597,179.4 c0.4-0.4,0.6-0.9,0.6-1.4s-0.2-1.1-0.6-1.4c-0.4-0.4-1-0.6-1.7-0.6c-0.7,0-1.2,0.2-1.6,0.5c-0.4,0.4-0.6,0.8-0.6,1.4 s0.2,1.1,0.6,1.5c0.4,0.4,1,0.5,1.6,0.5C596,180,596.5,179.8,597,179.4z"></path> <path class="st8" d="M603.2,180.1c-0.6-0.7-0.9-1.6-0.9-2.7c0-1.1,0.3-2,0.9-2.7s1.4-1,2.4-1c1,0,1.8,0.3,2.4,1 c0.6,0.7,0.9,1.6,0.9,2.7c0,1.1-0.3,2-0.9,2.7c-0.6,0.7-1.4,1-2.4,1C604.6,181.1,603.8,180.8,603.2,180.1z M606.6,179 c0.2-0.4,0.4-0.9,0.4-1.6c0-0.7-0.1-1.2-0.4-1.6c-0.2-0.4-0.6-0.5-1-0.5c-0.4,0-0.8,0.2-1,0.5c-0.3,0.4-0.4,0.9-0.4,1.6 s0.1,1.2,0.4,1.6c0.3,0.4,0.6,0.5,1,0.5C606,179.6,606.4,179.4,606.6,179z M613.5,173.9h2.3l-9.1,13.3h-2.3L613.5,173.9z M612.9,186.9c-0.5-0.3-0.9-0.7-1.2-1.3c-0.3-0.6-0.4-1.2-0.4-1.9c0-0.7,0.1-1.4,0.4-1.9c0.3-0.6,0.7-1,1.2-1.3 c0.5-0.3,1.1-0.4,1.7-0.4c1,0,1.8,0.3,2.4,1s0.9,1.6,0.9,2.7c0,1.1-0.3,2-0.9,2.7s-1.4,1-2.4,1C614,187.4,613.4,187.2,612.9,186.9 z M615.6,185.3c0.2-0.4,0.4-0.9,0.4-1.6s-0.1-1.2-0.4-1.6s-0.6-0.5-1-0.5c-0.4,0-0.8,0.2-1,0.5c-0.3,0.4-0.4,0.9-0.4,1.6 c0,0.7,0.1,1.2,0.4,1.6c0.3,0.4,0.6,0.5,1,0.5C615.1,185.8,615.4,185.7,615.6,185.3z"></path> </g> </g> <g> <g> <path class="st8" d="M594.2,131.3v13.3h-3.1v-10.8h-2.7v-2.5H594.2z"></path> <path class="st8" d="M601.6,131.3v13.3h-3.1v-10.8h-2.7v-2.5H601.6z"></path> <path class="st8" d="M604.6,137.5c-0.6-0.7-0.9-1.6-0.9-2.7c0-1.1,0.3-2,0.9-2.7s1.4-1,2.4-1c1,0,1.8,0.3,2.4,1 c0.6,0.7,0.9,1.6,0.9,2.7c0,1.1-0.3,2-0.9,2.7c-0.6,0.7-1.4,1-2.4,1C606,138.5,605.2,138.2,604.6,137.5z M608,136.4 c0.2-0.4,0.4-0.9,0.4-1.6c0-0.7-0.1-1.2-0.4-1.6c-0.2-0.4-0.6-0.5-1-0.5c-0.4,0-0.8,0.2-1,0.5c-0.3,0.4-0.4,0.9-0.4,1.6 s0.1,1.2,0.4,1.6c0.3,0.4,0.6,0.5,1,0.5C607.4,137,607.8,136.8,608,136.4z M614.9,131.3h2.3l-9.1,13.3h-2.3L614.9,131.3z M614.3,144.3c-0.5-0.3-0.9-0.7-1.2-1.3c-0.3-0.6-0.4-1.2-0.4-1.9c0-0.7,0.1-1.4,0.4-1.9c0.3-0.6,0.7-1,1.2-1.3 c0.5-0.3,1.1-0.4,1.7-0.4c1,0,1.8,0.3,2.4,1s0.9,1.6,0.9,2.7c0,1.1-0.3,2-0.9,2.7s-1.4,1-2.4,1 C615.4,144.8,614.8,144.6,614.3,144.3z M617,142.7c0.2-0.4,0.4-0.9,0.4-1.6s-0.1-1.2-0.4-1.6s-0.6-0.5-1-0.5c-0.4,0-0.8,0.2-1,0.5 c-0.3,0.4-0.4,0.9-0.4,1.6c0,0.7,0.1,1.2,0.4,1.6c0.3,0.4,0.6,0.5,1,0.5C616.5,143.2,616.8,143.1,617,142.7z"></path> </g> </g> <g> <g> <path class="st8" d="M766.2,526.9c1.1,1.1,1.6,2.8,1.6,4.9c0,1.5-0.3,2.8-0.8,3.9c-0.6,1.1-1.4,1.9-2.4,2.5 c-1,0.6-2.2,0.8-3.6,0.8c-0.7,0-1.4-0.1-2-0.2c-0.6-0.2-1.2-0.4-1.7-0.7l1.1-2.3c0.6,0.4,1.5,0.7,2.5,0.7c1.1,0,2-0.3,2.7-1 c0.7-0.7,1-1.6,1.1-2.9c-0.8,0.8-1.9,1.2-3.3,1.2c-0.8,0-1.6-0.2-2.3-0.5c-0.7-0.3-1.2-0.8-1.7-1.5c-0.4-0.6-0.6-1.4-0.6-2.2 c0-0.9,0.2-1.7,0.7-2.3c0.4-0.7,1-1.2,1.8-1.5c0.8-0.4,1.6-0.5,2.6-0.5C763.7,525.2,765.2,525.8,766.2,526.9z M763.7,530.9 c0.4-0.4,0.6-0.9,0.6-1.4c0-0.6-0.2-1.1-0.6-1.4c-0.4-0.4-1-0.6-1.7-0.6c-0.7,0-1.2,0.2-1.6,0.5c-0.4,0.4-0.6,0.8-0.6,1.4 c0,0.6,0.2,1.1,0.6,1.5c0.4,0.4,1,0.5,1.6,0.5C762.8,531.5,763.3,531.3,763.7,530.9z"></path> <path class="st8" d="M770,531.6c-0.6-0.7-0.9-1.6-0.9-2.7s0.3-2,0.9-2.7s1.4-1,2.4-1c1,0,1.8,0.3,2.4,1c0.6,0.7,0.9,1.6,0.9,2.7 s-0.3,2-0.9,2.7c-0.6,0.7-1.4,1-2.4,1C771.4,532.6,770.6,532.3,770,531.6z M773.4,530.5c0.2-0.4,0.4-0.9,0.4-1.6s-0.1-1.2-0.4-1.6 c-0.2-0.4-0.6-0.5-1-0.5c-0.4,0-0.8,0.2-1,0.5c-0.3,0.4-0.4,0.9-0.4,1.6c0,0.7,0.1,1.2,0.4,1.6c0.3,0.4,0.6,0.5,1,0.5 C772.8,531.1,773.1,530.9,773.4,530.5z M780.3,525.4h2.3l-9.1,13.3h-2.3L780.3,525.4z M779.7,538.4c-0.5-0.3-0.9-0.7-1.2-1.3 c-0.3-0.6-0.4-1.2-0.4-1.9c0-0.7,0.1-1.4,0.4-1.9c0.3-0.6,0.7-1,1.2-1.3c0.5-0.3,1.1-0.4,1.7-0.4c1,0,1.8,0.3,2.4,1 s0.9,1.6,0.9,2.7c0,1.1-0.3,2-0.9,2.7s-1.4,1-2.4,1C780.8,538.9,780.2,538.7,779.7,538.4z M782.4,536.8c0.2-0.4,0.4-0.9,0.4-1.6 c0-0.7-0.1-1.2-0.4-1.6c-0.2-0.4-0.6-0.5-1-0.5c-0.4,0-0.8,0.2-1,0.5c-0.3,0.4-0.4,0.9-0.4,1.6c0,0.7,0.1,1.2,0.4,1.6 c0.3,0.4,0.6,0.5,1,0.5C781.8,537.3,782.2,537.1,782.4,536.8z"></path> </g> </g> <g> <g> <path class="st8" d="M761.1,436.3c0.6,0.7,0.9,1.5,0.9,2.5c0,0.8-0.2,1.5-0.6,2.1c-0.4,0.7-1,1.2-1.9,1.6c-0.8,0.4-1.8,0.6-3,0.6 c-0.9,0-1.9-0.1-2.8-0.4c-0.9-0.2-1.7-0.6-2.3-1.1l1.2-2.4c0.5,0.4,1.1,0.7,1.8,0.9s1.3,0.3,2,0.3c0.8,0,1.4-0.1,1.8-0.4 c0.4-0.3,0.7-0.7,0.7-1.3c0-1.1-0.8-1.6-2.5-1.6H755v-2l2.7-3.1h-5.7v-2.5h9.3v2l-3,3.4C759.5,435.2,760.4,435.6,761.1,436.3z"></path> <path class="st8" d="M771.9,435.7c0.9,0.7,1.3,1.7,1.3,3c0,0.8-0.2,1.5-0.6,2.2s-1,1.2-1.9,1.6c-0.8,0.4-1.9,0.6-3.1,0.6 c-0.9,0-1.9-0.1-2.8-0.4s-1.7-0.6-2.3-1.1l1.2-2.4c0.5,0.4,1.1,0.7,1.7,0.9s1.3,0.3,2,0.3c0.8,0,1.4-0.2,1.8-0.5 c0.4-0.3,0.7-0.7,0.7-1.3c0-0.6-0.2-1-0.7-1.3c-0.5-0.3-1.3-0.4-2.4-0.4h-3.4l0.7-7.5h8.1v2.5h-5.5l-0.2,2.5h1.1 C769.7,434.6,771,435,771.9,435.7z"></path> <path class="st8" d="M775,435.8c-0.6-0.7-0.9-1.6-0.9-2.7c0-1.1,0.3-2,0.9-2.7s1.4-1,2.4-1c1,0,1.8,0.3,2.4,1 c0.6,0.7,0.9,1.6,0.9,2.7c0,1.1-0.3,2-0.9,2.7c-0.6,0.7-1.4,1-2.4,1C776.4,436.8,775.6,436.4,775,435.8z M778.4,434.7 c0.2-0.4,0.4-0.9,0.4-1.6c0-0.7-0.1-1.2-0.4-1.6c-0.2-0.4-0.6-0.5-1-0.5c-0.4,0-0.8,0.2-1,0.5c-0.3,0.4-0.4,0.9-0.4,1.6 c0,0.7,0.1,1.2,0.4,1.6c0.3,0.4,0.6,0.5,1,0.5C777.8,435.2,778.2,435,778.4,434.7z M785.3,429.6h2.3l-9.1,13.3h-2.3L785.3,429.6z M784.7,442.6c-0.5-0.3-0.9-0.7-1.2-1.3c-0.3-0.6-0.4-1.2-0.4-1.9s0.1-1.4,0.4-1.9c0.3-0.6,0.7-1,1.2-1.3c0.5-0.3,1.1-0.4,1.7-0.4 c1,0,1.8,0.3,2.4,1s0.9,1.6,0.9,2.7s-0.3,2-0.9,2.7s-1.4,1-2.4,1C785.8,443,785.2,442.9,784.7,442.6z M787.5,440.9 c0.2-0.4,0.4-0.9,0.4-1.6c0-0.7-0.1-1.2-0.4-1.6c-0.2-0.4-0.6-0.5-1-0.5c-0.4,0-0.8,0.2-1,0.5c-0.3,0.4-0.4,0.9-0.4,1.6 s0.1,1.2,0.4,1.6c0.3,0.4,0.6,0.5,1,0.5C786.9,441.5,787.2,441.3,787.5,440.9z"></path> </g> </g> <g> <g> <path class="st8" d="M761.4,312.6v2.5h-10.1v-2l5.1-4.8c0.5-0.5,0.9-1,1.1-1.3c0.2-0.4,0.3-0.7,0.3-1.1c0-0.5-0.2-0.9-0.5-1.2 c-0.4-0.3-0.9-0.4-1.6-0.4c-0.6,0-1.1,0.1-1.6,0.3c-0.5,0.2-0.9,0.6-1.2,1l-2.2-1.4c0.5-0.8,1.2-1.4,2.1-1.8s2-0.7,3.1-0.7 c1,0,1.9,0.2,2.6,0.5c0.7,0.3,1.3,0.8,1.7,1.4c0.4,0.6,0.6,1.3,0.6,2.1c0,0.7-0.2,1.4-0.5,2s-0.9,1.4-1.8,2.2l-3.1,2.9H761.4z"></path> <path class="st8" d="M774.7,312.3h-2.2v2.8h-3v-2.8h-7.2v-2.1l6.3-8.4h3.2l-5.8,8h3.6v-2.5h2.9v2.5h2.2V312.3z"></path> <path class="st8" d="M775.7,308c-0.6-0.7-0.9-1.6-0.9-2.7c0-1.1,0.3-2,0.9-2.7s1.4-1,2.4-1c1,0,1.8,0.3,2.4,1 c0.6,0.7,0.9,1.6,0.9,2.7c0,1.1-0.3,2-0.9,2.7c-0.6,0.7-1.4,1-2.4,1C777.1,309,776.3,308.6,775.7,308z M779.1,306.9 c0.2-0.4,0.4-0.9,0.4-1.6c0-0.7-0.1-1.2-0.4-1.6c-0.2-0.4-0.6-0.5-1-0.5c-0.4,0-0.8,0.2-1,0.5c-0.3,0.4-0.4,0.9-0.4,1.6 s0.1,1.2,0.4,1.6c0.3,0.4,0.6,0.5,1,0.5C778.5,307.4,778.9,307.2,779.1,306.9z M786,301.8h2.3l-9.1,13.3h-2.3L786,301.8z M785.4,314.8c-0.5-0.3-0.9-0.7-1.2-1.3c-0.3-0.6-0.4-1.2-0.4-1.9c0-0.7,0.1-1.4,0.4-1.9c0.3-0.6,0.7-1,1.2-1.3 c0.5-0.3,1.1-0.4,1.7-0.4c1,0,1.8,0.3,2.4,1s0.9,1.6,0.9,2.7c0,1.1-0.3,2-0.9,2.7s-1.4,1-2.4,1 C786.5,315.2,785.9,315.1,785.4,314.8z M788.1,313.1c0.2-0.4,0.4-0.9,0.4-1.6s-0.1-1.2-0.4-1.6s-0.6-0.5-1-0.5 c-0.4,0-0.8,0.2-1,0.5c-0.3,0.4-0.4,0.9-0.4,1.6c0,0.7,0.1,1.2,0.4,1.6c0.3,0.4,0.6,0.5,1,0.5 C787.6,313.7,787.9,313.5,788.1,313.1z"></path> </g> </g> <g> <g> <path class="st8" d="M761.9,212.9v2.5h-10.1v-2l5.1-4.8c0.5-0.5,0.9-1,1.1-1.3c0.2-0.4,0.3-0.7,0.3-1.1c0-0.5-0.2-0.9-0.5-1.2 c-0.4-0.3-0.9-0.4-1.6-0.4c-0.6,0-1.1,0.1-1.6,0.3c-0.5,0.2-0.9,0.6-1.2,1l-2.2-1.4c0.5-0.8,1.2-1.4,2.1-1.8s2-0.7,3.1-0.7 c1,0,1.9,0.2,2.6,0.5c0.7,0.3,1.3,0.8,1.7,1.4c0.4,0.6,0.6,1.3,0.6,2.1c0,0.7-0.2,1.4-0.5,2s-0.9,1.4-1.8,2.2l-3.1,2.9H761.9z"></path> <path class="st8" d="M773.1,212.9v2.5h-10v-2l5.1-4.8c0.5-0.5,0.9-1,1.1-1.3c0.2-0.4,0.3-0.7,0.3-1.1c0-0.5-0.2-0.9-0.5-1.2 c-0.4-0.3-0.9-0.4-1.6-0.4c-0.6,0-1.1,0.1-1.6,0.3c-0.5,0.2-0.9,0.6-1.2,1l-2.2-1.4c0.5-0.8,1.2-1.4,2.1-1.8 c0.9-0.4,2-0.7,3.1-0.7c1,0,1.9,0.2,2.6,0.5c0.7,0.3,1.3,0.8,1.7,1.4c0.4,0.6,0.6,1.3,0.6,2.1c0,0.7-0.2,1.4-0.5,2 s-0.9,1.4-1.8,2.2l-3.1,2.9H773.1z"></path> <path class="st8" d="M775.2,208.3c-0.6-0.7-0.9-1.6-0.9-2.7c0-1.1,0.3-2,0.9-2.7s1.4-1,2.4-1c1,0,1.8,0.3,2.4,1 c0.6,0.7,0.9,1.6,0.9,2.7c0,1.1-0.3,2-0.9,2.7c-0.6,0.7-1.4,1-2.4,1C776.7,209.3,775.9,209,775.2,208.3z M778.6,207.2 c0.2-0.4,0.4-0.9,0.4-1.6c0-0.7-0.1-1.2-0.4-1.6c-0.2-0.4-0.6-0.5-1-0.5c-0.4,0-0.8,0.2-1,0.5c-0.3,0.4-0.4,0.9-0.4,1.6 s0.1,1.2,0.4,1.6c0.3,0.4,0.6,0.5,1,0.5C778.1,207.7,778.4,207.6,778.6,207.2z M785.6,202.1h2.3l-9.1,13.3h-2.3L785.6,202.1z M785,215.1c-0.5-0.3-0.9-0.7-1.2-1.3c-0.3-0.6-0.4-1.2-0.4-1.9c0-0.7,0.1-1.4,0.4-1.9c0.3-0.6,0.7-1,1.2-1.3 c0.5-0.3,1.1-0.4,1.7-0.4c1,0,1.8,0.3,2.4,1s0.9,1.6,0.9,2.7c0,1.1-0.3,2-0.9,2.7s-1.4,1-2.4,1C786,215.6,785.5,215.4,785,215.1z M787.7,213.5c0.2-0.4,0.4-0.9,0.4-1.6s-0.1-1.2-0.4-1.6s-0.6-0.5-1-0.5c-0.4,0-0.8,0.2-1,0.5c-0.3,0.4-0.4,0.9-0.4,1.6 c0,0.7,0.1,1.2,0.4,1.6c0.3,0.4,0.6,0.5,1,0.5C787.1,214,787.4,213.8,787.7,213.5z"></path> </g> </g> <g> <g> <path class="st8" d="M760.9,131.3v13.3h-3.1v-10.8h-2.7v-2.5H760.9z"></path> <path class="st8" d="M768.4,131.3v13.3h-3.1v-10.8h-2.7v-2.5H768.4z"></path> <path class="st8" d="M771.4,137.5c-0.6-0.7-0.9-1.6-0.9-2.7c0-1.1,0.3-2,0.9-2.7s1.4-1,2.4-1c1,0,1.8,0.3,2.4,1 c0.6,0.7,0.9,1.6,0.9,2.7c0,1.1-0.3,2-0.9,2.7c-0.6,0.7-1.4,1-2.4,1C772.8,138.5,772,138.2,771.4,137.5z M774.8,136.4 c0.2-0.4,0.4-0.9,0.4-1.6c0-0.7-0.1-1.2-0.4-1.6c-0.2-0.4-0.6-0.5-1-0.5c-0.4,0-0.8,0.2-1,0.5c-0.3,0.4-0.4,0.9-0.4,1.6 s0.1,1.2,0.4,1.6c0.3,0.4,0.6,0.5,1,0.5C774.2,137,774.5,136.8,774.8,136.4z M781.7,131.3h2.3l-9.1,13.3h-2.3L781.7,131.3z M781.1,144.3c-0.5-0.3-0.9-0.7-1.2-1.3c-0.3-0.6-0.4-1.2-0.4-1.9c0-0.7,0.1-1.4,0.4-1.9c0.3-0.6,0.7-1,1.2-1.3 c0.5-0.3,1.1-0.4,1.7-0.4c1,0,1.8,0.3,2.4,1s0.9,1.6,0.9,2.7c0,1.1-0.3,2-0.9,2.7s-1.4,1-2.4,1 C782.2,144.8,781.6,144.6,781.1,144.3z M783.8,142.7c0.2-0.4,0.4-0.9,0.4-1.6s-0.1-1.2-0.4-1.6s-0.6-0.5-1-0.5 c-0.4,0-0.8,0.2-1,0.5c-0.3,0.4-0.4,0.9-0.4,1.6c0,0.7,0.1,1.2,0.4,1.6c0.3,0.4,0.6,0.5,1,0.5 C783.2,143.2,783.6,143.1,783.8,142.7z"></path> </g> </g> <g> <path class="st3" d="M88.8,81.1h1.8v4.2c-0.5,0.4-1.2,0.8-1.9,1c-0.7,0.2-1.5,0.3-2.2,0.3c-1.1,0-2-0.2-2.9-0.7 c-0.9-0.5-1.5-1.1-2-1.9c-0.5-0.8-0.7-1.7-0.7-2.8s0.2-2,0.7-2.8c0.5-0.8,1.2-1.5,2-1.9c0.9-0.5,1.8-0.7,2.9-0.7 c0.9,0,1.7,0.1,2.4,0.4s1.3,0.7,1.8,1.3l-1.2,1.2c-0.8-0.8-1.8-1.2-2.9-1.2c-0.7,0-1.4,0.2-2,0.5c-0.6,0.3-1,0.7-1.4,1.3 c-0.3,0.6-0.5,1.2-0.5,1.9c0,0.7,0.2,1.3,0.5,1.9c0.3,0.6,0.8,1,1.4,1.3c0.6,0.3,1.2,0.5,2,0.5c0.8,0,1.5-0.2,2.2-0.5V81.1z"></path> <path class="st3" d="M101.1,84.9v1.6h-7.9V76h7.7v1.6h-5.7v2.7h5.1V82h-5.1v2.9H101.1z"></path> <path class="st3" d="M112.6,76v10.5H111l-5.8-7.1v7.1h-1.9V76h1.6l5.8,7.1V76H112.6z"></path> <path class="st3" d="M127.7,84.8v1.7h-9v-1.3l6.2-7.5h-6.1V76h8.7v1.3l-6.2,7.5H127.7z"></path> </g> <g> <path class="st3" d="M228.7,86.5l0-7l-3.5,5.8h-0.9l-3.5-5.7v6.9h-1.9V76h1.6l4.2,7l4.1-7h1.6l0,10.5H228.7z"></path> <path class="st3" d="M233.4,76h2v10.5h-2V76z"></path> <path class="st3" d="M238.2,76h2v8.8h5.5v1.7h-7.4V76z"></path> <path class="st3" d="M247.2,76h2v8.8h5.5v1.7h-7.4V76z"></path> <path class="st3" d="M264,84.9v1.6h-7.9V76h7.7v1.6h-5.7v2.7h5.1V82h-5.1v2.9H264z"></path> <path class="st3" d="M275.5,76v10.5h-1.6l-5.8-7.1v7.1h-1.9V76h1.6l5.8,7.1V76H275.5z"></path> <path class="st3" d="M287.7,76v10.5h-1.6l-5.8-7.1v7.1h-1.9V76h1.6l5.8,7.1V76H287.7z"></path> <path class="st3" d="M290.5,76h2v10.5h-2V76z"></path> <path class="st3" d="M302.1,84.1h-5.2l-1,2.4h-2l4.7-10.5h1.9l4.7,10.5h-2L302.1,84.1z M301.4,82.5l-2-4.6l-2,4.6H301.4z"></path> <path class="st3" d="M306.5,76h2v8.8h5.5v1.7h-7.4V76z"></path> <path class="st3" d="M316.3,86.3c-0.8-0.2-1.4-0.5-1.8-0.9l0.7-1.5c0.4,0.3,1,0.6,1.6,0.8c0.6,0.2,1.3,0.3,1.9,0.3 c0.8,0,1.4-0.1,1.7-0.4s0.6-0.6,0.6-1c0-0.3-0.1-0.5-0.3-0.7c-0.2-0.2-0.5-0.3-0.8-0.5c-0.3-0.1-0.8-0.2-1.3-0.4 c-0.8-0.2-1.4-0.4-1.9-0.6c-0.5-0.2-0.9-0.5-1.3-0.9c-0.4-0.4-0.5-1-0.5-1.6c0-0.6,0.2-1.1,0.5-1.6c0.3-0.5,0.8-0.9,1.4-1.1 c0.6-0.3,1.4-0.4,2.3-0.4c0.6,0,1.3,0.1,1.9,0.2s1.2,0.4,1.6,0.7l-0.6,1.5c-0.5-0.3-0.9-0.5-1.4-0.6c-0.5-0.1-1-0.2-1.5-0.2 c-0.8,0-1.3,0.1-1.7,0.4c-0.4,0.3-0.6,0.6-0.6,1c0,0.3,0.1,0.5,0.3,0.7c0.2,0.2,0.5,0.3,0.8,0.5s0.8,0.2,1.3,0.4 c0.8,0.2,1.4,0.4,1.9,0.6s0.9,0.5,1.3,0.9c0.4,0.4,0.5,0.9,0.5,1.6c0,0.6-0.2,1.1-0.5,1.6c-0.3,0.5-0.8,0.8-1.4,1.1 c-0.6,0.3-1.4,0.4-2.3,0.4C317.9,86.6,317.1,86.5,316.3,86.3z"></path> </g> <g> <path class="st3" d="M421.7,81.1h1.8v4.2c-0.5,0.4-1.2,0.8-1.9,1c-0.7,0.2-1.5,0.3-2.2,0.3c-1.1,0-2-0.2-2.9-0.7 c-0.9-0.5-1.5-1.1-2-1.9c-0.5-0.8-0.7-1.7-0.7-2.8s0.2-2,0.7-2.8c0.5-0.8,1.2-1.5,2-1.9c0.9-0.5,1.8-0.7,2.9-0.7 c0.9,0,1.7,0.1,2.4,0.4s1.3,0.7,1.8,1.3l-1.2,1.2c-0.8-0.8-1.8-1.2-2.9-1.2c-0.7,0-1.4,0.2-2,0.5c-0.6,0.3-1,0.7-1.4,1.3 c-0.3,0.6-0.5,1.2-0.5,1.9c0,0.7,0.2,1.3,0.5,1.9c0.3,0.6,0.8,1,1.4,1.3c0.6,0.3,1.2,0.5,2,0.5c0.8,0,1.5-0.2,2.2-0.5V81.1z"></path> <path class="st3" d="M434,84.9v1.6h-7.9V76h7.7v1.6h-5.7v2.7h5.1V82h-5.1v2.9H434z"></path> <path class="st3" d="M445.5,76v10.5h-1.6l-5.8-7.1v7.1h-1.9V76h1.6l5.8,7.1V76H445.5z"></path> <path class="st3" d="M459.1,86.5l-2.9-4l-2.8,4h-2.2l3.9-5.4l-3.7-5.1h2.2l2.7,3.7L459,76h2.1l-3.7,5.1l3.9,5.4H459.1z"></path> </g> <g> <path class="st3" d="M549.7,82c0.3,0.4,0.5,1,0.5,1.7c0,0.9-0.4,1.6-1,2.1c-0.7,0.5-1.7,0.7-3.1,0.7h-5.2V76h4.9 c1.2,0,2.2,0.2,2.9,0.7s1,1.2,1,2c0,0.5-0.1,1-0.4,1.4c-0.2,0.4-0.6,0.7-1,0.9C548.8,81.2,549.3,81.5,549.7,82z M542.8,77.5v2.9 h2.8c0.7,0,1.2-0.1,1.6-0.4s0.5-0.6,0.5-1.1c0-0.5-0.2-0.8-0.5-1.1s-0.9-0.4-1.6-0.4H542.8z M548.2,83.4c0-1-0.8-1.5-2.3-1.5h-3.1 v3h3.1C547.4,85,548.2,84.5,548.2,83.4z"></path> <path class="st3" d="M559.1,84.1h-5.2l-1,2.4h-2l4.7-10.5h1.9l4.7,10.5h-2L559.1,84.1z M558.4,82.5l-2-4.6l-2,4.6H558.4z"></path> <path class="st3" d="M572.3,82c0.3,0.4,0.5,1,0.5,1.7c0,0.9-0.4,1.6-1,2.1c-0.7,0.5-1.7,0.7-3.1,0.7h-5.2V76h4.9 c1.2,0,2.2,0.2,2.9,0.7s1,1.2,1,2c0,0.5-0.1,1-0.4,1.4c-0.2,0.4-0.6,0.7-1,0.9C571.5,81.2,572,81.5,572.3,82z M565.4,77.5v2.9h2.8 c0.7,0,1.2-0.1,1.6-0.4s0.5-0.6,0.5-1.1c0-0.5-0.2-0.8-0.5-1.1s-0.9-0.4-1.6-0.4H565.4z M570.8,83.4c0-1-0.8-1.5-2.3-1.5h-3.1v3 h3.1C570.1,85,570.8,84.5,570.8,83.4z"></path> <path class="st3" d="M579.2,82.8v3.7h-2v-3.7l-4.1-6.8h2.1l3.1,5.1l3.1-5.1h1.9L579.2,82.8z"></path> <path class="st3" d="M597.5,82c0.3,0.4,0.5,1,0.5,1.7c0,0.9-0.4,1.6-1,2.1c-0.7,0.5-1.7,0.7-3.1,0.7h-5.2V76h4.9 c1.2,0,2.2,0.2,2.9,0.7s1,1.2,1,2c0,0.5-0.1,1-0.4,1.4c-0.2,0.4-0.6,0.7-1,0.9C596.7,81.2,597.2,81.5,597.5,82z M590.7,77.5v2.9 h2.8c0.7,0,1.2-0.1,1.6-0.4s0.5-0.6,0.5-1.1c0-0.5-0.2-0.8-0.5-1.1s-0.9-0.4-1.6-0.4H590.7z M596.1,83.4c0-1-0.8-1.5-2.3-1.5h-3.1 v3h3.1C595.3,85,596.1,84.5,596.1,83.4z"></path> <path class="st3" d="M602.2,85.9c-0.9-0.5-1.5-1.1-2-1.9c-0.5-0.8-0.7-1.7-0.7-2.8s0.2-1.9,0.7-2.8c0.5-0.8,1.2-1.5,2-1.9 c0.9-0.5,1.8-0.7,2.9-0.7c1.1,0,2,0.2,2.9,0.7c0.9,0.5,1.5,1.1,2,1.9c0.5,0.8,0.7,1.7,0.7,2.8s-0.2,2-0.7,2.8 c-0.5,0.8-1.2,1.5-2,1.9c-0.9,0.5-1.8,0.7-2.9,0.7C604,86.6,603,86.4,602.2,85.9z M606.9,84.5c0.6-0.3,1-0.8,1.3-1.3 c0.3-0.6,0.5-1.2,0.5-1.9s-0.2-1.3-0.5-1.9c-0.3-0.6-0.8-1-1.3-1.3c-0.6-0.3-1.2-0.5-1.9-0.5c-0.7,0-1.3,0.2-1.9,0.5 c-0.6,0.3-1,0.8-1.3,1.3c-0.3,0.6-0.5,1.2-0.5,1.9s0.2,1.3,0.5,1.9c0.3,0.6,0.8,1,1.3,1.3c0.6,0.3,1.2,0.5,1.9,0.5 C605.7,84.9,606.4,84.8,606.9,84.5z"></path> <path class="st3" d="M614.8,85.9c-0.9-0.5-1.5-1.1-2-1.9c-0.5-0.8-0.7-1.7-0.7-2.8s0.2-1.9,0.7-2.8c0.5-0.8,1.2-1.5,2-1.9 c0.9-0.5,1.8-0.7,2.9-0.7c1.1,0,2,0.2,2.9,0.7c0.9,0.5,1.5,1.1,2,1.9c0.5,0.8,0.7,1.7,0.7,2.8s-0.2,2-0.7,2.8 c-0.5,0.8-1.2,1.5-2,1.9c-0.9,0.5-1.8,0.7-2.9,0.7C616.6,86.6,615.6,86.4,614.8,85.9z M619.6,84.5c0.6-0.3,1-0.8,1.3-1.3 c0.3-0.6,0.5-1.2,0.5-1.9s-0.2-1.3-0.5-1.9c-0.3-0.6-0.8-1-1.3-1.3c-0.6-0.3-1.2-0.5-1.9-0.5c-0.7,0-1.3,0.2-1.9,0.5 c-0.6,0.3-1,0.8-1.3,1.3c-0.3,0.6-0.5,1.2-0.5,1.9s0.2,1.3,0.5,1.9c0.3,0.6,0.8,1,1.3,1.3c0.6,0.3,1.2,0.5,1.9,0.5 C618.4,84.9,619,84.8,619.6,84.5z"></path> <path class="st3" d="M635,86.5l0-7l-3.5,5.8h-0.9l-3.5-5.7v6.9h-1.9V76h1.6l4.2,7l4.1-7h1.6l0,10.5H635z"></path> <path class="st3" d="M647.6,84.9v1.6h-7.9V76h7.7v1.6h-5.7v2.7h5.1V82h-5.1v2.9H647.6z"></path> <path class="st3" d="M656.6,86.5l-2.1-3.1c-0.1,0-0.2,0-0.4,0h-2.4v3.1h-2V76h4.3c0.9,0,1.7,0.2,2.4,0.5s1.2,0.7,1.6,1.3 c0.4,0.6,0.5,1.2,0.5,2c0,0.8-0.2,1.5-0.6,2c-0.4,0.6-0.9,1-1.7,1.3l2.4,3.5H656.6z M655.9,78.2c-0.4-0.4-1.1-0.5-1.9-0.5h-2.3v4.2 h2.3c0.9,0,1.5-0.2,1.9-0.5c0.4-0.4,0.7-0.9,0.7-1.6S656.4,78.5,655.9,78.2z"></path> <path class="st3" d="M661.6,86.3c-0.8-0.2-1.4-0.5-1.8-0.9l0.7-1.5c0.4,0.3,1,0.6,1.6,0.8c0.6,0.2,1.3,0.3,1.9,0.3 c0.8,0,1.4-0.1,1.7-0.4s0.6-0.6,0.6-1c0-0.3-0.1-0.5-0.3-0.7c-0.2-0.2-0.5-0.3-0.8-0.5c-0.3-0.1-0.8-0.2-1.3-0.4 c-0.8-0.2-1.4-0.4-1.9-0.6c-0.5-0.2-0.9-0.5-1.3-0.9c-0.4-0.4-0.5-1-0.5-1.6c0-0.6,0.2-1.1,0.5-1.6c0.3-0.5,0.8-0.9,1.4-1.1 c0.6-0.3,1.4-0.4,2.3-0.4c0.6,0,1.3,0.1,1.9,0.2s1.2,0.4,1.6,0.7l-0.6,1.5c-0.5-0.3-0.9-0.5-1.4-0.6c-0.5-0.1-1-0.2-1.5-0.2 c-0.8,0-1.3,0.1-1.7,0.4c-0.4,0.3-0.6,0.6-0.6,1c0,0.3,0.1,0.5,0.3,0.7c0.2,0.2,0.5,0.3,0.8,0.5s0.8,0.2,1.3,0.4 c0.8,0.2,1.4,0.4,1.9,0.6s0.9,0.5,1.3,0.9c0.4,0.4,0.5,0.9,0.5,1.6c0,0.6-0.2,1.1-0.5,1.6c-0.3,0.5-0.8,0.8-1.4,1.1 c-0.6,0.3-1.4,0.4-2.3,0.4C663.2,86.6,662.4,86.5,661.6,86.3z"></path> </g> <g> <path class="st3" d="M728.1,86.3c-0.8-0.2-1.4-0.5-1.8-0.9l0.7-1.5c0.4,0.3,1,0.6,1.6,0.8c0.6,0.2,1.3,0.3,1.9,0.3 c0.8,0,1.4-0.1,1.7-0.4s0.6-0.6,0.6-1c0-0.3-0.1-0.5-0.3-0.7c-0.2-0.2-0.5-0.3-0.8-0.5c-0.3-0.1-0.8-0.2-1.3-0.4 c-0.8-0.2-1.4-0.4-1.9-0.6c-0.5-0.2-0.9-0.5-1.3-0.9c-0.4-0.4-0.5-1-0.5-1.6c0-0.6,0.2-1.1,0.5-1.6c0.3-0.5,0.8-0.9,1.4-1.1 c0.6-0.3,1.4-0.4,2.3-0.4c0.6,0,1.3,0.1,1.9,0.2s1.2,0.4,1.6,0.7l-0.6,1.5c-0.5-0.3-0.9-0.5-1.4-0.6c-0.5-0.1-1-0.2-1.5-0.2 c-0.8,0-1.3,0.1-1.7,0.4c-0.4,0.3-0.6,0.6-0.6,1c0,0.3,0.1,0.5,0.3,0.7c0.2,0.2,0.5,0.3,0.8,0.5s0.8,0.2,1.3,0.4 c0.8,0.2,1.4,0.4,1.9,0.6s0.9,0.5,1.3,0.9c0.4,0.4,0.5,0.9,0.5,1.6c0,0.6-0.2,1.1-0.5,1.6c-0.3,0.5-0.8,0.8-1.4,1.1 c-0.6,0.3-1.4,0.4-2.3,0.4C729.6,86.6,728.8,86.5,728.1,86.3z"></path> <path class="st3" d="M736.6,76h2v10.5h-2V76z"></path> <path class="st3" d="M741.4,76h2v8.8h5.5v1.7h-7.4V76z"></path> <path class="st3" d="M758.3,84.9v1.6h-7.9V76h7.7v1.6h-5.7v2.7h5.1V82h-5.1v2.9H758.3z"></path> <path class="st3" d="M769.8,76v10.5h-1.6l-5.8-7.1v7.1h-1.9V76h1.6l5.8,7.1V76H769.8z"></path> <path class="st3" d="M774.7,77.6h-3.5V76h8.9v1.7h-3.5v8.8h-2V77.6z"></path> <path class="st3" d="M792.9,81.1h1.8v4.2c-0.5,0.4-1.2,0.8-1.9,1c-0.7,0.2-1.5,0.3-2.2,0.3c-1.1,0-2-0.2-2.9-0.7 c-0.9-0.5-1.5-1.1-2-1.9c-0.5-0.8-0.7-1.7-0.7-2.8s0.2-2,0.7-2.8c0.5-0.8,1.2-1.5,2-1.9c0.9-0.5,1.8-0.7,2.9-0.7 c0.9,0,1.7,0.1,2.4,0.4s1.3,0.7,1.8,1.3l-1.2,1.2c-0.8-0.8-1.8-1.2-2.9-1.2c-0.7,0-1.4,0.2-2,0.5c-0.6,0.3-1,0.7-1.4,1.3 c-0.3,0.6-0.5,1.2-0.5,1.9c0,0.7,0.2,1.3,0.5,1.9c0.3,0.6,0.8,1,1.4,1.3c0.6,0.3,1.2,0.5,2,0.5c0.8,0,1.5-0.2,2.2-0.5V81.1z"></path> <path class="st3" d="M805.2,84.9v1.6h-7.9V76h7.7v1.6h-5.7v2.7h5.1V82h-5.1v2.9H805.2z"></path> <path class="st3" d="M816.7,76v10.5h-1.6l-5.8-7.1v7.1h-1.9V76h1.6l5.8,7.1V76H816.7z"></path> </g> </svg> 