<?xml version="1.0" encoding="UTF-8"?> <!-- Generator: Adobe Illustrator 24.1.0, SVG Export Plug-In . SVG Version: 6.00 Build 0) --> <svg xmlns="http://www.w3.org/2000/svg" xmlns:xlink="http://www.w3.org/1999/xlink" version="1.1" id="Layer_1" x="0px" y="0px" viewBox="0 0 1110 600.8" style="enable-background:new 0 0 1110 600.8;" xml:space="preserve"> <style type="text/css"> .st0{fill:#009DFD;} .st1{fill:#8500F2;} .st2{fill:#C0007B;} .st3{fill:#FF0073;} .st4{fill:#FF00EF;} .st5{fill:#FF9200;} .st6{fill:#00D800;} .st7{fill:#009EFF;} .st8{fill:#7D77FF;} .st9{fill:#231F20;} .st10{fill:#FFFFFF;} </style> <g> <g> <g> <rect x="37.5" y="112.2" class="st3" width="120.1" height="26.5"></rect> <rect x="204.3" y="112.2" class="st3" width="120.1" height="39.4"></rect> <rect x="371.1" y="112.2" class="st3" width="120.1" height="40.2"></rect> <rect x="537.8" y="112.2" class="st3" width="120.1" height="48.1"></rect> <rect x="704.6" y="112.2" class="st3" width="120.1" height="40.2"></rect> </g> </g> <g> <g> <rect x="37.5" y="138.7" class="st4" width="120.1" height="44.2"></rect> <rect x="204.3" y="151.6" class="st4" width="120.1" height="48.1"></rect> <rect x="371.1" y="152.4" class="st4" width="120.1" height="49.1"></rect> <rect x="537.8" y="160.3" class="st4" width="120.1" height="61.3"></rect> <rect x="704.6" y="152.4" class="st4" width="120.1" height="53.6"></rect> </g> </g> <g> <g> <rect x="37.5" y="182.9" class="st5" width="120.1" height="181.2"></rect> <rect x="204.3" y="199.7" class="st5" width="120.1" height="223.2"></rect> <rect x="371.1" y="201.5" class="st5" width="120.1" height="218.8"></rect> <rect x="537.8" y="221.6" class="st5" width="120.1" height="210.1"></rect> <rect x="704.6" y="206" class="st5" width="120.1" height="227.7"></rect> </g> </g> <g> <g> <rect x="37.5" y="364.1" class="st6" width="120.1" height="26.5"></rect> <rect x="204.3" y="422.9" class="st6" width="120.1" height="43.8"></rect> <rect x="371.1" y="420.3" class="st6" width="120.1" height="49.1"></rect> <rect x="537.8" y="431.7" class="st6" width="120.1" height="39.4"></rect> <rect x="704.6" y="433.7" class="st6" width="120.1" height="26.8"></rect> </g> </g> <g> <g> <rect x="37.5" y="390.7" class="st7" width="120.1" height="66.3"></rect> <rect x="204.3" y="466.7" class="st7" width="120.1" height="35"></rect> <rect x="371.1" y="469.4" class="st7" width="120.1" height="35.7"></rect> <rect x="537.8" y="471.1" class="st7" width="120.1" height="35"></rect> <rect x="704.6" y="460.5" class="st7" width="120.1" height="40.2"></rect> </g> </g> <g> <g> <rect x="37.5" y="457" class="st1" width="120.1" height="75.1"></rect> <rect x="204.3" y="501.7" class="st1" width="120.1" height="43.8"></rect> <rect x="371.1" y="505.1" class="st1" width="120.1" height="40.2"></rect> <rect x="537.8" y="506.1" class="st1" width="120.1" height="35"></rect> <rect x="704.6" y="500.6" class="st1" width="120.1" height="35.7"></rect> </g> </g> <g> <g> <rect x="37.5" y="532.1" class="st8" width="120.1" height="22.1"></rect> <rect x="204.3" y="545.5" class="st8" width="120.1" height="8.8"></rect> <rect x="371.1" y="545.3" class="st8" width="120.1" height="8.9"></rect> <rect x="537.8" y="541.1" class="st8" width="120.1" height="13.1"></rect> <rect x="704.6" y="536.4" class="st8" width="120.1" height="17.9"></rect> </g> </g> </g> <g> <path class="st9" d="M866.7,114.9h1.6v11.2h-1.6V114.9z"></path> <path class="st9" d="M878,125.4c-0.9-0.5-1.6-1.2-2.1-2s-0.8-1.8-0.8-2.9c0-1.1,0.3-2.1,0.8-2.9c0.5-0.9,1.2-1.6,2.1-2 c0.9-0.5,1.9-0.7,3-0.7c0.9,0,1.7,0.1,2.4,0.4c0.7,0.3,1.3,0.7,1.9,1.3l-1,1c-0.8-0.9-1.9-1.3-3.2-1.3c-0.8,0-1.6,0.2-2.3,0.6 s-1.2,0.9-1.6,1.5c-0.4,0.7-0.6,1.4-0.6,2.2s0.2,1.5,0.6,2.2c0.4,0.7,0.9,1.2,1.6,1.5c0.7,0.4,1.4,0.6,2.3,0.6 c1.2,0,2.3-0.4,3.2-1.3l1,1c-0.5,0.6-1.1,1-1.9,1.3c-0.7,0.3-1.5,0.4-2.4,0.4C879.9,126.2,878.9,125.9,878,125.4z"></path> <path class="st9" d="M893,118.4c0.6,0.6,0.9,1.4,0.9,2.6v5.1h-1.5v-1.1c-0.3,0.4-0.6,0.7-1.1,0.9s-1,0.3-1.7,0.3 c-0.9,0-1.7-0.2-2.3-0.7c-0.6-0.5-0.9-1.1-0.9-1.8c0-0.7,0.3-1.3,0.8-1.8c0.5-0.5,1.4-0.7,2.6-0.7h2.4v-0.3c0-0.7-0.2-1.2-0.6-1.5 c-0.4-0.4-1-0.5-1.7-0.5c-0.5,0-1,0.1-1.5,0.2c-0.5,0.2-0.9,0.4-1.2,0.7l-0.6-1.2c0.4-0.4,1-0.6,1.6-0.8c0.6-0.2,1.3-0.3,1.9-0.3 C891.5,117.5,892.4,117.8,893,118.4z M891.5,124.6c0.4-0.3,0.7-0.6,0.9-1.1v-1.2H890c-1.3,0-2,0.4-2,1.3c0,0.4,0.2,0.8,0.5,1 c0.3,0.2,0.8,0.4,1.4,0.4C890.5,125,891.1,124.8,891.5,124.6z"></path> <path class="st9" d="M903.9,118.4c0.6,0.6,1,1.5,1,2.7v4.9h-1.5v-4.7c0-0.8-0.2-1.4-0.6-1.9s-1-0.6-1.7-0.6c-0.8,0-1.5,0.2-2,0.7 c-0.5,0.5-0.7,1.2-0.7,2.1v4.4h-1.5v-8.5h1.5v1.3c0.3-0.4,0.7-0.8,1.3-1c0.5-0.2,1.1-0.4,1.8-0.4 C902.4,117.5,903.3,117.8,903.9,118.4z"></path> <path class="st9" d="M920,120.4h1.5v4.4c-0.6,0.5-1.2,0.8-1.9,1.1s-1.5,0.4-2.3,0.4c-1.1,0-2.1-0.2-3.1-0.7c-0.9-0.5-1.6-1.2-2.1-2 s-0.8-1.8-0.8-2.9c0-1.1,0.3-2.1,0.8-2.9s1.2-1.6,2.1-2c0.9-0.5,1.9-0.7,3.1-0.7c0.9,0,1.7,0.1,2.4,0.4c0.7,0.3,1.4,0.7,1.9,1.3 l-1,1c-0.9-0.9-2-1.3-3.2-1.3c-0.9,0-1.6,0.2-2.3,0.6c-0.7,0.4-1.2,0.9-1.6,1.5c-0.4,0.7-0.6,1.4-0.6,2.2c0,0.8,0.2,1.5,0.6,2.2 c0.4,0.7,0.9,1.2,1.6,1.5c0.7,0.4,1.4,0.6,2.3,0.6c1,0,1.9-0.2,2.6-0.7V120.4z"></path> <path class="st9" d="M925.7,125.6c-0.7-0.4-1.2-0.9-1.6-1.5c-0.4-0.7-0.6-1.4-0.6-2.2s0.2-1.6,0.6-2.2c0.4-0.7,0.9-1.2,1.6-1.5 c0.7-0.4,1.4-0.6,2.3-0.6s1.6,0.2,2.3,0.6c0.7,0.4,1.2,0.9,1.6,1.5c0.4,0.7,0.6,1.4,0.6,2.2s-0.2,1.6-0.6,2.2s-0.9,1.2-1.6,1.5 c-0.7,0.4-1.4,0.6-2.3,0.6S926.4,126,925.7,125.6z M929.4,124.4c0.4-0.2,0.8-0.6,1-1.1c0.2-0.5,0.4-1,0.4-1.6 c0-0.6-0.1-1.1-0.4-1.6c-0.2-0.5-0.6-0.8-1-1c-0.4-0.2-0.9-0.4-1.5-0.4s-1,0.1-1.5,0.4s-0.8,0.6-1,1c-0.2,0.5-0.4,1-0.4,1.6 c0,0.6,0.1,1.1,0.4,1.6c0.3,0.5,0.6,0.8,1,1.1c0.4,0.3,0.9,0.4,1.5,0.4S929,124.7,929.4,124.4z"></path> <path class="st9" d="M941,125.4c-0.9-0.5-1.6-1.2-2.1-2s-0.8-1.8-0.8-2.9c0-1.1,0.3-2.1,0.8-2.9c0.5-0.9,1.2-1.6,2.1-2 c0.9-0.5,1.9-0.7,3-0.7c0.9,0,1.7,0.1,2.4,0.4c0.7,0.3,1.3,0.7,1.9,1.3l-1,1c-0.8-0.9-1.9-1.3-3.2-1.3c-0.8,0-1.6,0.2-2.3,0.6 s-1.2,0.9-1.6,1.5c-0.4,0.7-0.6,1.4-0.6,2.2s0.2,1.5,0.6,2.2c0.4,0.7,0.9,1.2,1.6,1.5c0.7,0.4,1.4,0.6,2.3,0.6 c1.2,0,2.3-0.4,3.2-1.3l1,1c-0.5,0.6-1.1,1-1.9,1.3c-0.7,0.3-1.5,0.4-2.4,0.4C942.9,126.2,941.9,125.9,941,125.4z"></path> <path class="st9" d="M956,118.4c0.6,0.6,0.9,1.4,0.9,2.6v5.1h-1.5v-1.1c-0.3,0.4-0.6,0.7-1.1,0.9s-1,0.3-1.7,0.3 c-0.9,0-1.7-0.2-2.3-0.7c-0.6-0.5-0.9-1.1-0.9-1.8c0-0.7,0.3-1.3,0.8-1.8c0.5-0.5,1.4-0.7,2.6-0.7h2.4v-0.3c0-0.7-0.2-1.2-0.6-1.5 c-0.4-0.4-1-0.5-1.7-0.5c-0.5,0-1,0.1-1.5,0.2c-0.5,0.2-0.9,0.4-1.2,0.7l-0.6-1.2c0.4-0.4,1-0.6,1.6-0.8c0.6-0.2,1.3-0.3,1.9-0.3 C954.5,117.5,955.4,117.8,956,118.4z M954.5,124.6c0.4-0.3,0.7-0.6,0.9-1.1v-1.2h-2.4c-1.3,0-2,0.4-2,1.3c0,0.4,0.2,0.8,0.5,1 c0.3,0.2,0.8,0.4,1.4,0.4C953.6,125,954.1,124.8,954.5,124.6z"></path> <path class="st9" d="M960.3,125.9c-0.6-0.2-1.1-0.4-1.5-0.7l0.6-1.2c0.4,0.3,0.8,0.5,1.4,0.6s1.1,0.2,1.6,0.2c1.3,0,2-0.4,2-1.2 c0-0.3-0.1-0.5-0.3-0.6c-0.2-0.1-0.4-0.3-0.7-0.3c-0.3-0.1-0.7-0.1-1.2-0.2c-0.7-0.1-1.2-0.2-1.7-0.4c-0.4-0.1-0.8-0.4-1.1-0.7 c-0.3-0.3-0.5-0.8-0.5-1.4c0-0.8,0.3-1.4,1-1.8c0.6-0.5,1.5-0.7,2.6-0.7c0.6,0,1.1,0.1,1.7,0.2s1,0.3,1.4,0.6l-0.7,1.2 c-0.7-0.4-1.5-0.7-2.4-0.7c-0.7,0-1.1,0.1-1.5,0.3c-0.3,0.2-0.5,0.5-0.5,0.8c0,0.3,0.1,0.5,0.3,0.7c0.2,0.2,0.4,0.3,0.7,0.4 c0.3,0.1,0.7,0.2,1.2,0.3c0.7,0.1,1.2,0.2,1.7,0.4c0.4,0.1,0.8,0.4,1.1,0.7c0.3,0.3,0.4,0.8,0.4,1.3c0,0.8-0.3,1.4-1,1.8 c-0.7,0.5-1.5,0.7-2.7,0.7C961.6,126.1,960.9,126.1,960.3,125.9z"></path> <path class="st9" d="M974.9,118.4c0.6,0.6,1,1.5,1,2.7v4.9h-1.5v-4.7c0-0.8-0.2-1.4-0.6-1.9s-1-0.6-1.7-0.6c-0.8,0-1.5,0.2-2,0.7 c-0.5,0.5-0.7,1.2-0.7,2.1v4.4h-1.5v-11.9h1.5v4.6c0.3-0.4,0.7-0.7,1.3-0.9c0.5-0.2,1.1-0.3,1.7-0.3 C973.5,117.5,974.3,117.8,974.9,118.4z"></path> <path class="st9" d="M978.7,114.2h1.5v11.9h-1.5V114.2z"></path> <path class="st9" d="M990.8,122.3H984c0.1,0.7,0.4,1.3,1,1.8c0.6,0.5,1.3,0.7,2.1,0.7c1,0,1.8-0.3,2.4-1l0.8,1 c-0.4,0.4-0.9,0.8-1.4,1c-0.6,0.2-1.2,0.4-1.9,0.4c-0.9,0-1.7-0.2-2.4-0.6s-1.2-0.9-1.6-1.5c-0.4-0.7-0.6-1.4-0.6-2.2 c0-0.8,0.2-1.6,0.6-2.2c0.4-0.7,0.9-1.2,1.5-1.5s1.4-0.6,2.2-0.6s1.5,0.2,2.2,0.6s1.1,0.9,1.5,1.5s0.5,1.4,0.5,2.3 C990.9,122,990.9,122.1,990.8,122.3z M984.8,119.5c-0.5,0.4-0.8,1-0.9,1.8h5.4c-0.1-0.7-0.4-1.3-0.9-1.8s-1.1-0.7-1.8-0.7 C985.9,118.8,985.3,119,984.8,119.5z"></path> <path class="st9" d="M993.4,125.9c-0.6-0.2-1.1-0.4-1.5-0.7l0.6-1.2c0.4,0.3,0.8,0.5,1.4,0.6s1.1,0.2,1.6,0.2c1.3,0,2-0.4,2-1.2 c0-0.3-0.1-0.5-0.3-0.6c-0.2-0.1-0.4-0.3-0.7-0.3c-0.3-0.1-0.7-0.1-1.2-0.2c-0.7-0.1-1.2-0.2-1.7-0.4c-0.4-0.1-0.8-0.4-1.1-0.7 c-0.3-0.3-0.5-0.8-0.5-1.4c0-0.8,0.3-1.4,1-1.8c0.6-0.5,1.5-0.7,2.6-0.7c0.6,0,1.1,0.1,1.7,0.2s1,0.3,1.4,0.6l-0.7,1.2 c-0.7-0.4-1.5-0.7-2.4-0.7c-0.7,0-1.1,0.1-1.5,0.3c-0.3,0.2-0.5,0.5-0.5,0.8c0,0.3,0.1,0.5,0.3,0.7c0.2,0.2,0.4,0.3,0.7,0.4 c0.3,0.1,0.7,0.2,1.2,0.3c0.7,0.1,1.2,0.2,1.7,0.4c0.4,0.1,0.8,0.4,1.1,0.7c0.3,0.3,0.4,0.8,0.4,1.3c0,0.8-0.3,1.4-1,1.8 c-0.7,0.5-1.5,0.7-2.7,0.7C994.7,126.1,994.1,126.1,993.4,125.9z"></path> <path class="st9" d="M1001.4,125.9c-0.6-0.2-1.1-0.4-1.5-0.7l0.6-1.2c0.4,0.3,0.8,0.5,1.4,0.6s1.1,0.2,1.6,0.2c1.3,0,2-0.4,2-1.2 c0-0.3-0.1-0.5-0.3-0.6c-0.2-0.1-0.4-0.3-0.7-0.3c-0.3-0.1-0.7-0.1-1.2-0.2c-0.7-0.1-1.2-0.2-1.7-0.4c-0.4-0.1-0.8-0.4-1.1-0.7 c-0.3-0.3-0.5-0.8-0.5-1.4c0-0.8,0.3-1.4,1-1.8c0.6-0.5,1.5-0.7,2.6-0.7c0.6,0,1.1,0.1,1.7,0.2s1,0.3,1.4,0.6l-0.7,1.2 c-0.7-0.4-1.5-0.7-2.4-0.7c-0.7,0-1.1,0.1-1.5,0.3c-0.3,0.2-0.5,0.5-0.5,0.8c0,0.3,0.1,0.5,0.3,0.7c0.2,0.2,0.4,0.3,0.7,0.4 c0.3,0.1,0.7,0.2,1.2,0.3c0.7,0.1,1.2,0.2,1.7,0.4c0.4,0.1,0.8,0.4,1.1,0.7c0.3,0.3,0.4,0.8,0.4,1.3c0,0.8-0.3,1.4-1,1.8 c-0.7,0.5-1.5,0.7-2.7,0.7C1002.8,126.1,1002.1,126.1,1001.4,125.9z"></path> </g> <circle class="st3" cx="852.6" cy="121.9" r="6.8"></circle> <g> <path class="st9" d="M868.7,150.7c-0.9-0.5-1.6-1.2-2.1-2s-0.8-1.8-0.8-2.9c0-1.1,0.3-2.1,0.8-2.9c0.5-0.9,1.2-1.6,2.1-2 c0.9-0.5,1.9-0.7,3-0.7c0.9,0,1.7,0.1,2.4,0.4c0.7,0.3,1.3,0.7,1.9,1.3l-1,1c-0.8-0.9-1.9-1.3-3.2-1.3c-0.8,0-1.6,0.2-2.3,0.6 s-1.2,0.9-1.6,1.5c-0.4,0.7-0.6,1.4-0.6,2.2s0.2,1.5,0.6,2.2c0.4,0.7,0.9,1.2,1.6,1.5c0.7,0.4,1.4,0.6,2.3,0.6 c1.2,0,2.3-0.4,3.2-1.3l1,1c-0.5,0.6-1.1,1-1.9,1.3c-0.7,0.3-1.5,0.4-2.4,0.4C870.6,151.4,869.6,151.2,868.7,150.7z"></path> <path class="st9" d="M879.1,150.8c-0.7-0.4-1.2-0.9-1.6-1.5c-0.4-0.7-0.6-1.4-0.6-2.2s0.2-1.6,0.6-2.2c0.4-0.7,0.9-1.2,1.6-1.5 c0.7-0.4,1.4-0.6,2.3-0.6s1.6,0.2,2.3,0.6c0.7,0.4,1.2,0.9,1.6,1.5c0.4,0.7,0.6,1.4,0.6,2.2s-0.2,1.6-0.6,2.2s-0.9,1.2-1.6,1.5 c-0.7,0.4-1.4,0.6-2.3,0.6S879.8,151.2,879.1,150.8z M882.8,149.7c0.4-0.2,0.8-0.6,1-1.1c0.2-0.5,0.4-1,0.4-1.6 c0-0.6-0.1-1.1-0.4-1.6c-0.2-0.5-0.6-0.8-1-1c-0.4-0.2-0.9-0.4-1.5-0.4s-1,0.1-1.5,0.4s-0.8,0.6-1,1c-0.2,0.5-0.4,1-0.4,1.6 c0,0.6,0.1,1.1,0.4,1.6c0.3,0.5,0.6,0.8,1,1.1c0.4,0.3,0.9,0.4,1.5,0.4S882.4,149.9,882.8,149.7z"></path> <path class="st9" d="M895,143.7c0.6,0.6,1,1.5,1,2.7v4.9h-1.5v-4.7c0-0.8-0.2-1.4-0.6-1.9s-1-0.6-1.7-0.6c-0.8,0-1.5,0.2-2,0.7 c-0.5,0.5-0.7,1.2-0.7,2.1v4.4h-1.5v-8.5h1.5v1.3c0.3-0.4,0.7-0.8,1.3-1c0.5-0.2,1.1-0.4,1.8-0.4C893.5,142.7,894.3,143,895,143.7z "></path> <path class="st9" d="M903.5,150.8c-0.2,0.2-0.5,0.3-0.8,0.4c-0.3,0.1-0.7,0.2-1,0.2c-0.9,0-1.5-0.2-2-0.7s-0.7-1.1-0.7-2v-4.7h-1.4 v-1.3h1.4V141h1.5v1.9h2.4v1.3h-2.4v4.6c0,0.5,0.1,0.8,0.3,1.1c0.2,0.2,0.6,0.4,1,0.4c0.5,0,0.9-0.1,1.2-0.4L903.5,150.8z"></path> <path class="st9" d="M911.2,143.6c0.6,0.6,0.9,1.4,0.9,2.6v5.1h-1.5v-1.1c-0.3,0.4-0.6,0.7-1.1,0.9s-1,0.3-1.7,0.3 c-0.9,0-1.7-0.2-2.3-0.7c-0.6-0.5-0.9-1.1-0.9-1.8c0-0.7,0.3-1.3,0.8-1.8c0.5-0.5,1.4-0.7,2.6-0.7h2.4v-0.3c0-0.7-0.2-1.2-0.6-1.5 c-0.4-0.4-1-0.5-1.7-0.5c-0.5,0-1,0.1-1.5,0.2c-0.5,0.2-0.9,0.4-1.2,0.7l-0.6-1.2c0.4-0.4,1-0.6,1.6-0.8c0.6-0.2,1.3-0.3,1.9-0.3 C909.7,142.7,910.6,143,911.2,143.6z M909.7,149.8c0.4-0.3,0.7-0.6,0.9-1.1v-1.2h-2.4c-1.3,0-2,0.4-2,1.3c0,0.4,0.2,0.8,0.5,1 c0.3,0.2,0.8,0.4,1.4,0.4C908.7,150.2,909.2,150.1,909.7,149.8z"></path> <path class="st9" d="M916.4,150.8c-0.7-0.4-1.2-0.9-1.6-1.5s-0.6-1.4-0.6-2.2s0.2-1.6,0.6-2.2c0.4-0.7,0.9-1.2,1.6-1.5 s1.4-0.6,2.3-0.6c0.8,0,1.5,0.2,2.1,0.5s1.1,0.8,1.4,1.3l-1.2,0.8c-0.3-0.4-0.6-0.7-1-0.9c-0.4-0.2-0.8-0.3-1.3-0.3 c-0.6,0-1.1,0.1-1.5,0.4s-0.8,0.6-1,1c-0.2,0.5-0.4,1-0.4,1.6c0,0.6,0.1,1.1,0.4,1.6c0.3,0.5,0.6,0.8,1,1c0.4,0.2,0.9,0.4,1.5,0.4 c0.5,0,0.9-0.1,1.3-0.3c0.4-0.2,0.7-0.5,1-0.9l1.2,0.7c-0.3,0.6-0.8,1-1.4,1.4s-1.3,0.5-2.1,0.5 C917.8,151.4,917.1,151.2,916.4,150.8z"></path> <path class="st9" d="M929,150.8c-0.2,0.2-0.5,0.3-0.8,0.4c-0.3,0.1-0.7,0.2-1,0.2c-0.9,0-1.5-0.2-2-0.7s-0.7-1.1-0.7-2v-4.7H923 v-1.3h1.4V141h1.5v1.9h2.4v1.3H926v4.6c0,0.5,0.1,0.8,0.3,1.1c0.2,0.2,0.6,0.4,1,0.4c0.5,0,0.9-0.1,1.2-0.4L929,150.8z"></path> <path class="st9" d="M930.9,139.4h1.5v11.9h-1.5V139.4z"></path> <path class="st9" d="M943,147.6h-6.9c0.1,0.7,0.4,1.3,1,1.8c0.6,0.5,1.3,0.7,2.1,0.7c1,0,1.8-0.3,2.4-1l0.8,1 c-0.4,0.4-0.9,0.8-1.4,1c-0.6,0.2-1.2,0.4-1.9,0.4c-0.9,0-1.7-0.2-2.4-0.6s-1.2-0.9-1.6-1.5c-0.4-0.7-0.6-1.4-0.6-2.2 c0-0.8,0.2-1.6,0.6-2.2c0.4-0.7,0.9-1.2,1.5-1.5s1.4-0.6,2.2-0.6s1.5,0.2,2.2,0.6s1.1,0.9,1.5,1.5s0.5,1.4,0.5,2.3 C943,147.2,943,147.4,943,147.6z M937,144.7c-0.5,0.4-0.8,1-0.9,1.8h5.4c-0.1-0.7-0.4-1.3-0.9-1.8s-1.1-0.7-1.8-0.7 C938.1,144,937.5,144.3,937,144.7z"></path> <path class="st9" d="M945.6,151.1c-0.6-0.2-1.1-0.4-1.5-0.7l0.6-1.2c0.4,0.3,0.8,0.5,1.4,0.6s1.1,0.2,1.6,0.2c1.3,0,2-0.4,2-1.2 c0-0.3-0.1-0.5-0.3-0.6c-0.2-0.1-0.4-0.3-0.7-0.3c-0.3-0.1-0.7-0.1-1.2-0.2c-0.7-0.1-1.2-0.2-1.7-0.4c-0.4-0.1-0.8-0.4-1.1-0.7 c-0.3-0.3-0.5-0.8-0.5-1.4c0-0.8,0.3-1.4,1-1.8c0.6-0.5,1.5-0.7,2.6-0.7c0.6,0,1.1,0.1,1.7,0.2s1,0.3,1.4,0.6l-0.7,1.2 c-0.7-0.4-1.5-0.7-2.4-0.7c-0.7,0-1.1,0.1-1.5,0.3c-0.3,0.2-0.5,0.5-0.5,0.8c0,0.3,0.1,0.5,0.3,0.7c0.2,0.2,0.4,0.3,0.7,0.4 c0.3,0.1,0.7,0.2,1.2,0.3c0.7,0.1,1.2,0.2,1.7,0.4c0.4,0.1,0.8,0.4,1.1,0.7c0.3,0.3,0.4,0.8,0.4,1.3c0,0.8-0.3,1.4-1,1.8 c-0.7,0.5-1.5,0.7-2.7,0.7C946.9,151.4,946.2,151.3,945.6,151.1z"></path> <path class="st9" d="M953.6,151.1c-0.6-0.2-1.1-0.4-1.5-0.7l0.6-1.2c0.4,0.3,0.8,0.5,1.4,0.6s1.1,0.2,1.6,0.2c1.3,0,2-0.4,2-1.2 c0-0.3-0.1-0.5-0.3-0.6c-0.2-0.1-0.4-0.3-0.7-0.3c-0.3-0.1-0.7-0.1-1.2-0.2c-0.7-0.1-1.2-0.2-1.7-0.4c-0.4-0.1-0.8-0.4-1.1-0.7 c-0.3-0.3-0.5-0.8-0.5-1.4c0-0.8,0.3-1.4,1-1.8c0.6-0.5,1.5-0.7,2.6-0.7c0.6,0,1.1,0.1,1.7,0.2s1,0.3,1.4,0.6l-0.7,1.2 c-0.7-0.4-1.5-0.7-2.4-0.7c-0.7,0-1.1,0.1-1.5,0.3c-0.3,0.2-0.5,0.5-0.5,0.8c0,0.3,0.1,0.5,0.3,0.7c0.2,0.2,0.4,0.3,0.7,0.4 c0.3,0.1,0.7,0.2,1.2,0.3c0.7,0.1,1.2,0.2,1.7,0.4c0.4,0.1,0.8,0.4,1.1,0.7c0.3,0.3,0.4,0.8,0.4,1.3c0,0.8-0.3,1.4-1,1.8 c-0.7,0.5-1.5,0.7-2.7,0.7C954.9,151.4,954.2,151.3,953.6,151.1z"></path> <path class="st9" d="M973.5,141.1c0.8,0.7,1.2,1.6,1.2,2.9s-0.4,2.2-1.2,2.9s-2,1-3.4,1h-2.8v3.4h-1.6v-11.2h4.4 C971.5,140.1,972.7,140.4,973.5,141.1z M972.3,145.9c0.5-0.4,0.8-1.1,0.8-1.9s-0.3-1.4-0.8-1.9c-0.5-0.4-1.3-0.6-2.3-0.6h-2.7v5 h2.7C971,146.5,971.8,146.3,972.3,145.9z"></path> <path class="st9" d="M982.6,143.6c0.6,0.6,0.9,1.4,0.9,2.6v5.1h-1.5v-1.1c-0.3,0.4-0.6,0.7-1.1,0.9s-1,0.3-1.7,0.3 c-0.9,0-1.7-0.2-2.3-0.7c-0.6-0.5-0.9-1.1-0.9-1.8c0-0.7,0.3-1.3,0.8-1.8c0.5-0.5,1.4-0.7,2.6-0.7h2.4v-0.3c0-0.7-0.2-1.2-0.6-1.5 c-0.4-0.4-1-0.5-1.7-0.5c-0.5,0-1,0.1-1.5,0.2c-0.5,0.2-0.9,0.4-1.2,0.7l-0.6-1.2c0.4-0.4,1-0.6,1.6-0.8c0.6-0.2,1.3-0.3,1.9-0.3 C981.1,142.7,982,143,982.6,143.6z M981,149.8c0.4-0.3,0.7-0.6,0.9-1.1v-1.2h-2.4c-1.3,0-2,0.4-2,1.3c0,0.4,0.2,0.8,0.5,1 c0.3,0.2,0.8,0.4,1.4,0.4C980.1,150.2,980.6,150.1,981,149.8z"></path> <path class="st9" d="M993.7,142.8l-4.1,9.3c-0.4,0.9-0.8,1.5-1.3,1.8c-0.5,0.4-1.1,0.5-1.8,0.5c-0.4,0-0.8-0.1-1.2-0.2 c-0.4-0.1-0.7-0.3-1-0.6l0.7-1.2c0.4,0.4,0.9,0.6,1.5,0.6c0.4,0,0.7-0.1,0.9-0.3s0.5-0.5,0.7-1l0.3-0.6l-3.7-8.5h1.6l3,6.8l2.9-6.8 H993.7z"></path> <path class="st9" d="M1008.3,143.7c0.6,0.6,0.9,1.5,0.9,2.8v4.9h-1.5v-4.7c0-0.8-0.2-1.4-0.6-1.9c-0.4-0.4-0.9-0.6-1.6-0.6 c-0.8,0-1.4,0.2-1.9,0.7c-0.5,0.5-0.7,1.2-0.7,2.1v4.4h-1.5v-4.7c0-0.8-0.2-1.4-0.6-1.9c-0.4-0.4-0.9-0.6-1.6-0.6 c-0.8,0-1.4,0.2-1.9,0.7c-0.5,0.5-0.7,1.2-0.7,2.1v4.4h-1.5v-8.5h1.5v1.3c0.3-0.4,0.7-0.8,1.2-1c0.5-0.2,1.1-0.3,1.7-0.3 c0.7,0,1.2,0.1,1.8,0.4c0.5,0.3,0.9,0.7,1.2,1.2c0.3-0.5,0.8-0.9,1.3-1.2s1.2-0.4,1.9-0.4C1006.8,142.7,1007.7,143,1008.3,143.7z"></path> <path class="st9" d="M1019.7,147.6h-6.9c0.1,0.7,0.4,1.3,1,1.8c0.6,0.5,1.3,0.7,2.1,0.7c1,0,1.8-0.3,2.4-1l0.8,1 c-0.4,0.4-0.9,0.8-1.4,1c-0.6,0.2-1.2,0.4-1.9,0.4c-0.9,0-1.7-0.2-2.4-0.6s-1.2-0.9-1.6-1.5c-0.4-0.7-0.6-1.4-0.6-2.2 c0-0.8,0.2-1.6,0.6-2.2c0.4-0.7,0.9-1.2,1.5-1.5s1.4-0.6,2.2-0.6s1.5,0.2,2.2,0.6s1.1,0.9,1.5,1.5s0.5,1.4,0.5,2.3 C1019.8,147.2,1019.8,147.4,1019.7,147.6z M1013.7,144.7c-0.5,0.4-0.8,1-0.9,1.8h5.4c-0.1-0.7-0.4-1.3-0.9-1.8s-1.1-0.7-1.8-0.7 C1014.8,144,1014.2,144.3,1013.7,144.7z"></path> <path class="st9" d="M1029,143.7c0.6,0.6,1,1.5,1,2.7v4.9h-1.5v-4.7c0-0.8-0.2-1.4-0.6-1.9s-1-0.6-1.7-0.6c-0.8,0-1.5,0.2-2,0.7 c-0.5,0.5-0.7,1.2-0.7,2.1v4.4h-1.5v-8.5h1.5v1.3c0.3-0.4,0.7-0.8,1.3-1c0.5-0.2,1.1-0.4,1.8-0.4 C1027.5,142.7,1028.4,143,1029,143.7z"></path> <path class="st9" d="M1037.6,150.8c-0.2,0.2-0.5,0.3-0.8,0.4c-0.3,0.1-0.7,0.2-1,0.2c-0.9,0-1.5-0.2-2-0.7s-0.7-1.1-0.7-2v-4.7 h-1.4v-1.3h1.4V141h1.5v1.9h2.4v1.3h-2.4v4.6c0,0.5,0.1,0.8,0.3,1.1c0.2,0.2,0.6,0.4,1,0.4c0.5,0,0.9-0.1,1.2-0.4L1037.6,150.8z"></path> <path class="st9" d="M1039.8,151.1c-0.6-0.2-1.1-0.4-1.5-0.7l0.6-1.2c0.4,0.3,0.8,0.5,1.4,0.6s1.1,0.2,1.6,0.2c1.3,0,2-0.4,2-1.2 c0-0.3-0.1-0.5-0.3-0.6c-0.2-0.1-0.4-0.3-0.7-0.3c-0.3-0.1-0.7-0.1-1.2-0.2c-0.7-0.1-1.2-0.2-1.7-0.4c-0.4-0.1-0.8-0.4-1.1-0.7 c-0.3-0.3-0.5-0.8-0.5-1.4c0-0.8,0.3-1.4,1-1.8c0.6-0.5,1.5-0.7,2.6-0.7c0.6,0,1.1,0.1,1.7,0.2s1,0.3,1.4,0.6l-0.7,1.2 c-0.7-0.4-1.5-0.7-2.4-0.7c-0.7,0-1.1,0.1-1.5,0.3c-0.3,0.2-0.5,0.5-0.5,0.8c0,0.3,0.1,0.5,0.3,0.7c0.2,0.2,0.4,0.3,0.7,0.4 c0.3,0.1,0.7,0.2,1.2,0.3c0.7,0.1,1.2,0.2,1.7,0.4c0.4,0.1,0.8,0.4,1.1,0.7c0.3,0.3,0.4,0.8,0.4,1.3c0,0.8-0.3,1.4-1,1.8 c-0.7,0.5-1.5,0.7-2.7,0.7C1041.2,151.4,1040.5,151.3,1039.8,151.1z"></path> </g> <circle class="st4" cx="852.6" cy="146.8" r="6.8"></circle> <g> <path class="st9" d="M868.7,175.7c-0.9-0.5-1.6-1.2-2.1-2s-0.8-1.8-0.8-2.9c0-1.1,0.3-2.1,0.8-2.9c0.5-0.9,1.2-1.6,2.1-2 c0.9-0.5,1.9-0.7,3-0.7c0.9,0,1.7,0.1,2.4,0.4c0.7,0.3,1.3,0.7,1.9,1.3l-1,1c-0.8-0.9-1.9-1.3-3.2-1.3c-0.8,0-1.6,0.2-2.3,0.6 s-1.2,0.9-1.6,1.5c-0.4,0.7-0.6,1.4-0.6,2.2s0.2,1.5,0.6,2.2c0.4,0.7,0.9,1.2,1.6,1.5c0.7,0.4,1.4,0.6,2.3,0.6 c1.2,0,2.3-0.4,3.2-1.3l1,1c-0.5,0.6-1.1,1-1.9,1.3c-0.7,0.3-1.5,0.4-2.4,0.4C870.6,176.5,869.6,176.2,868.7,175.7z"></path> <path class="st9" d="M879.1,175.9c-0.7-0.4-1.2-0.9-1.6-1.5c-0.4-0.7-0.6-1.4-0.6-2.2s0.2-1.6,0.6-2.2c0.4-0.7,0.9-1.2,1.6-1.5 c0.7-0.4,1.4-0.6,2.3-0.6s1.6,0.2,2.3,0.6c0.7,0.4,1.2,0.9,1.6,1.5c0.4,0.7,0.6,1.4,0.6,2.2s-0.2,1.6-0.6,2.2s-0.9,1.2-1.6,1.5 c-0.7,0.4-1.4,0.6-2.3,0.6S879.8,176.3,879.1,175.9z M882.8,174.7c0.4-0.2,0.8-0.6,1-1.1c0.2-0.5,0.4-1,0.4-1.6 c0-0.6-0.1-1.1-0.4-1.6c-0.2-0.5-0.6-0.8-1-1c-0.4-0.2-0.9-0.4-1.5-0.4s-1,0.1-1.5,0.4s-0.8,0.6-1,1c-0.2,0.5-0.4,1-0.4,1.6 c0,0.6,0.1,1.1,0.4,1.6c0.3,0.5,0.6,0.8,1,1.1c0.4,0.3,0.9,0.4,1.5,0.4S882.4,175,882.8,174.7z"></path> <path class="st9" d="M895,168.7c0.6,0.6,1,1.5,1,2.7v4.9h-1.5v-4.7c0-0.8-0.2-1.4-0.6-1.9s-1-0.6-1.7-0.6c-0.8,0-1.5,0.2-2,0.7 c-0.5,0.5-0.7,1.2-0.7,2.1v4.4h-1.5v-8.5h1.5v1.3c0.3-0.4,0.7-0.8,1.3-1c0.5-0.2,1.1-0.4,1.8-0.4 C893.5,167.8,894.3,168.1,895,168.7z"></path> <path class="st9" d="M906.1,167.9l-3.7,8.5h-1.6l-3.7-8.5h1.6l2.9,6.8l3-6.8H906.1z"></path> <path class="st9" d="M915,172.6h-6.9c0.1,0.7,0.4,1.3,1,1.8c0.6,0.5,1.3,0.7,2.1,0.7c1,0,1.8-0.3,2.4-1l0.8,1 c-0.4,0.4-0.9,0.8-1.4,1c-0.6,0.2-1.2,0.4-1.9,0.4c-0.9,0-1.7-0.2-2.4-0.6s-1.2-0.9-1.6-1.5c-0.4-0.7-0.6-1.4-0.6-2.2 c0-0.8,0.2-1.6,0.6-2.2c0.4-0.7,0.9-1.2,1.5-1.5s1.4-0.6,2.2-0.6s1.5,0.2,2.2,0.6s1.1,0.9,1.5,1.5s0.5,1.4,0.5,2.3 C915,172.3,915,172.4,915,172.6z M908.9,169.8c-0.5,0.4-0.8,1-0.9,1.8h5.4c-0.1-0.7-0.4-1.3-0.9-1.8s-1.1-0.7-1.8-0.7 C910.1,169.1,909.4,169.3,908.9,169.8z"></path> <path class="st9" d="M924.2,168.7c0.6,0.6,1,1.5,1,2.7v4.9h-1.5v-4.7c0-0.8-0.2-1.4-0.6-1.9s-1-0.6-1.7-0.6c-0.8,0-1.5,0.2-2,0.7 c-0.5,0.5-0.7,1.2-0.7,2.1v4.4h-1.5v-8.5h1.5v1.3c0.3-0.4,0.7-0.8,1.3-1c0.5-0.2,1.1-0.4,1.8-0.4 C922.7,167.8,923.6,168.1,924.2,168.7z"></path> <path class="st9" d="M928,165.9c-0.2-0.2-0.3-0.4-0.3-0.7s0.1-0.5,0.3-0.7c0.2-0.2,0.4-0.3,0.7-0.3s0.5,0.1,0.7,0.3 s0.3,0.4,0.3,0.7c0,0.3-0.1,0.5-0.3,0.7s-0.4,0.3-0.7,0.3S928.2,166.1,928,165.9z M928,167.9h1.5v8.5H928V167.9z"></path> <path class="st9" d="M940.1,172.6h-6.9c0.1,0.7,0.4,1.3,1,1.8c0.6,0.5,1.3,0.7,2.1,0.7c1,0,1.8-0.3,2.4-1l0.8,1 c-0.4,0.4-0.9,0.8-1.4,1c-0.6,0.2-1.2,0.4-1.9,0.4c-0.9,0-1.7-0.2-2.4-0.6s-1.2-0.9-1.6-1.5c-0.4-0.7-0.6-1.4-0.6-2.2 c0-0.8,0.2-1.6,0.6-2.2c0.4-0.7,0.9-1.2,1.5-1.5s1.4-0.6,2.2-0.6s1.5,0.2,2.2,0.6s1.1,0.9,1.5,1.5s0.5,1.4,0.5,2.3 C940.1,172.3,940.1,172.4,940.1,172.6z M934.1,169.8c-0.5,0.4-0.8,1-0.9,1.8h5.4c-0.1-0.7-0.4-1.3-0.9-1.8s-1.1-0.7-1.8-0.7 C935.2,169.1,934.6,169.3,934.1,169.8z"></path> <path class="st9" d="M949.4,168.7c0.6,0.6,1,1.5,1,2.7v4.9h-1.5v-4.7c0-0.8-0.2-1.4-0.6-1.9s-1-0.6-1.7-0.6c-0.8,0-1.5,0.2-2,0.7 c-0.5,0.5-0.7,1.2-0.7,2.1v4.4h-1.5v-8.5h1.5v1.3c0.3-0.4,0.7-0.8,1.3-1c0.5-0.2,1.1-0.4,1.8-0.4 C947.9,167.8,948.7,168.1,949.4,168.7z"></path> <path class="st9" d="M954.6,175.9c-0.7-0.4-1.2-0.9-1.6-1.5s-0.6-1.4-0.6-2.2s0.2-1.6,0.6-2.2c0.4-0.7,0.9-1.2,1.6-1.5 s1.4-0.6,2.3-0.6c0.8,0,1.5,0.2,2.1,0.5s1.1,0.8,1.4,1.3l-1.2,0.8c-0.3-0.4-0.6-0.7-1-0.9c-0.4-0.2-0.8-0.3-1.3-0.3 c-0.6,0-1.1,0.1-1.5,0.4s-0.8,0.6-1,1c-0.2,0.5-0.4,1-0.4,1.6c0,0.6,0.1,1.1,0.4,1.6c0.3,0.5,0.6,0.8,1,1c0.4,0.2,0.9,0.4,1.5,0.4 c0.5,0,0.9-0.1,1.3-0.3c0.4-0.2,0.7-0.5,1-0.9l1.2,0.7c-0.3,0.6-0.8,1-1.4,1.4s-1.3,0.5-2.1,0.5C956,176.4,955.3,176.3,954.6,175.9 z"></path> <path class="st9" d="M969.8,172.6H963c0.1,0.7,0.4,1.3,1,1.8c0.6,0.5,1.3,0.7,2.1,0.7c1,0,1.8-0.3,2.4-1l0.8,1 c-0.4,0.4-0.9,0.8-1.4,1c-0.6,0.2-1.2,0.4-1.9,0.4c-0.9,0-1.7-0.2-2.4-0.6s-1.2-0.9-1.6-1.5c-0.4-0.7-0.6-1.4-0.6-2.2 c0-0.8,0.2-1.6,0.6-2.2c0.4-0.7,0.9-1.2,1.5-1.5s1.4-0.6,2.2-0.6s1.5,0.2,2.2,0.6s1.1,0.9,1.5,1.5s0.5,1.4,0.5,2.3 C969.9,172.3,969.9,172.4,969.8,172.6z M963.8,169.8c-0.5,0.4-0.8,1-0.9,1.8h5.4c-0.1-0.7-0.4-1.3-0.9-1.8s-1.1-0.7-1.8-0.7 C965,169.1,964.3,169.3,963.8,169.8z"></path> </g> <circle class="st5" cx="852.6" cy="171.6" r="6.8"></circle> <g> <path class="st9" d="M877.1,201.3l0-8.2l-4,6.8h-0.7l-4-6.8v8.1h-1.5v-11.2h1.3l4.7,7.9l4.6-7.9h1.3l0,11.2H877.1z"></path> <path class="st9" d="M889.3,192.8l-4.1,9.3c-0.4,0.9-0.8,1.5-1.3,1.8c-0.5,0.4-1.1,0.5-1.8,0.5c-0.4,0-0.8-0.1-1.2-0.2 c-0.4-0.1-0.7-0.3-1-0.6l0.7-1.2c0.4,0.4,0.9,0.6,1.5,0.6c0.4,0,0.7-0.1,0.9-0.3s0.5-0.5,0.7-1l0.3-0.6l-3.7-8.5h1.6l3,6.8l2.9-6.8 H889.3z"></path> <path class="st9" d="M896.9,191.5v3.9h5.6v1.4h-5.6v4.5h-1.6v-11.2h7.9v1.4H896.9z"></path> <path class="st9" d="M907.7,193.2c0.5-0.3,1.2-0.4,1.9-0.4v1.5c-0.1,0-0.2,0-0.4,0c-0.8,0-1.5,0.2-2,0.7s-0.7,1.2-0.7,2.1v4.2H905 v-8.5h1.5v1.4C906.8,193.8,907.2,193.4,907.7,193.2z"></path> <path class="st9" d="M911.5,190.9c-0.2-0.2-0.3-0.4-0.3-0.7s0.1-0.5,0.3-0.7c0.2-0.2,0.4-0.3,0.7-0.3s0.5,0.1,0.7,0.3 s0.3,0.4,0.3,0.7c0,0.3-0.1,0.5-0.3,0.7s-0.4,0.3-0.7,0.3S911.7,191.1,911.5,190.9z M911.5,192.8h1.5v8.5h-1.5V192.8z"></path> <path class="st9" d="M923.6,197.6h-6.9c0.1,0.7,0.4,1.3,1,1.8c0.6,0.5,1.3,0.7,2.1,0.7c1,0,1.8-0.3,2.4-1l0.8,1 c-0.4,0.4-0.9,0.8-1.4,1c-0.6,0.2-1.2,0.4-1.9,0.4c-0.9,0-1.7-0.2-2.4-0.6s-1.2-0.9-1.6-1.5c-0.4-0.7-0.6-1.4-0.6-2.2 c0-0.8,0.2-1.6,0.6-2.2c0.4-0.7,0.9-1.2,1.5-1.5s1.4-0.6,2.2-0.6s1.5,0.2,2.2,0.6s1.1,0.9,1.5,1.5s0.5,1.4,0.5,2.3 C923.6,197.3,923.6,197.4,923.6,197.6z M917.6,194.7c-0.5,0.4-0.8,1-0.9,1.8h5.4c-0.1-0.7-0.4-1.3-0.9-1.8s-1.1-0.7-1.8-0.7 C918.7,194.1,918.1,194.3,917.6,194.7z"></path> <path class="st9" d="M932.8,193.7c0.6,0.6,1,1.5,1,2.7v4.9h-1.5v-4.7c0-0.8-0.2-1.4-0.6-1.9s-1-0.6-1.7-0.6c-0.8,0-1.5,0.2-2,0.7 c-0.5,0.5-0.7,1.2-0.7,2.1v4.4h-1.5v-8.5h1.5v1.3c0.3-0.4,0.7-0.8,1.3-1c0.5-0.2,1.1-0.4,1.8-0.4 C931.3,192.8,932.2,193.1,932.8,193.7z"></path> <path class="st9" d="M944.7,189.5v11.9h-1.5V200c-0.3,0.5-0.8,0.8-1.3,1.1c-0.5,0.2-1.1,0.4-1.7,0.4c-0.8,0-1.6-0.2-2.2-0.5 c-0.7-0.4-1.2-0.9-1.5-1.5c-0.4-0.7-0.6-1.4-0.6-2.3c0-0.9,0.2-1.6,0.6-2.3c0.4-0.7,0.9-1.2,1.5-1.5c0.7-0.4,1.4-0.5,2.2-0.5 c0.6,0,1.2,0.1,1.7,0.3c0.5,0.2,0.9,0.6,1.3,1v-4.7H944.7z M941.8,199.7c0.4-0.2,0.8-0.6,1-1.1c0.2-0.5,0.4-1,0.4-1.6 c0-0.6-0.1-1.1-0.4-1.6c-0.2-0.5-0.6-0.8-1-1s-0.9-0.4-1.5-0.4c-0.5,0-1,0.1-1.5,0.4s-0.8,0.6-1,1c-0.2,0.5-0.4,1-0.4,1.6 c0,0.6,0.1,1.1,0.4,1.6c0.3,0.5,0.6,0.8,1,1.1c0.4,0.3,0.9,0.4,1.5,0.4C940.8,200.1,941.3,200,941.8,199.7z"></path> <path class="st9" d="M948,201.1c-0.6-0.2-1.1-0.4-1.5-0.7l0.6-1.2c0.4,0.3,0.8,0.5,1.4,0.6s1.1,0.2,1.6,0.2c1.3,0,2-0.4,2-1.2 c0-0.3-0.1-0.5-0.3-0.6c-0.2-0.1-0.4-0.3-0.7-0.3c-0.3-0.1-0.7-0.1-1.2-0.2c-0.7-0.1-1.2-0.2-1.7-0.4c-0.4-0.1-0.8-0.4-1.1-0.7 c-0.3-0.3-0.5-0.8-0.5-1.4c0-0.8,0.3-1.4,1-1.8c0.6-0.5,1.5-0.7,2.6-0.7c0.6,0,1.1,0.1,1.7,0.2s1,0.3,1.4,0.6l-0.7,1.2 c-0.7-0.4-1.5-0.7-2.4-0.7c-0.7,0-1.1,0.1-1.5,0.3c-0.3,0.2-0.5,0.5-0.5,0.8c0,0.3,0.1,0.5,0.3,0.7c0.2,0.2,0.4,0.3,0.7,0.4 c0.3,0.1,0.7,0.2,1.2,0.3c0.7,0.1,1.2,0.2,1.7,0.4c0.4,0.1,0.8,0.4,1.1,0.7c0.3,0.3,0.4,0.8,0.4,1.3c0,0.8-0.3,1.4-1,1.8 c-0.7,0.5-1.5,0.7-2.7,0.7C949.3,201.4,948.7,201.3,948,201.1z"></path> <path class="st9" d="M968.3,201.5l-1.5-1.5c-1,1-2.2,1.4-3.7,1.4c-0.7,0-1.4-0.1-2-0.4s-1.1-0.6-1.4-1c-0.3-0.4-0.5-0.9-0.5-1.5 c0-0.7,0.2-1.3,0.6-1.8c0.4-0.5,1.1-1.1,2.1-1.6c-0.5-0.5-0.8-0.9-1-1.3c-0.2-0.4-0.3-0.8-0.3-1.2c0-0.8,0.3-1.4,0.8-1.8 c0.5-0.5,1.3-0.7,2.2-0.7c0.9,0,1.5,0.2,2,0.6c0.5,0.4,0.8,1,0.8,1.7c0,0.6-0.2,1.1-0.6,1.5c-0.4,0.4-1,0.9-1.8,1.4l2.8,2.8 c0.3-0.6,0.5-1.3,0.7-2l1.2,0.4c-0.2,1-0.5,1.8-1,2.6l1.5,1.5L968.3,201.5z M965.9,199.1l-3.2-3.2c-0.8,0.4-1.3,0.8-1.6,1.2 c-0.3,0.4-0.5,0.8-0.5,1.2c0,0.5,0.2,1,0.7,1.3c0.5,0.3,1.1,0.5,1.8,0.5C964.3,200.2,965.2,199.8,965.9,199.1z M962.4,191.5 c-0.3,0.3-0.4,0.6-0.4,1c0,0.3,0.1,0.6,0.2,0.8c0.2,0.3,0.5,0.6,0.9,1.1c0.7-0.4,1.2-0.8,1.5-1.1c0.3-0.3,0.4-0.6,0.4-1 c0-0.4-0.1-0.7-0.4-0.9c-0.3-0.2-0.6-0.3-1.1-0.3C963.1,191.2,962.7,191.3,962.4,191.5z"></path> <path class="st9" d="M977,191.5v3.9h5.6v1.4H977v4.5h-1.6v-11.2h7.9v1.4H977z"></path> <path class="st9" d="M990.8,193.6c0.6,0.6,0.9,1.4,0.9,2.6v5.1h-1.5v-1.1c-0.3,0.4-0.6,0.7-1.1,0.9s-1,0.3-1.7,0.3 c-0.9,0-1.7-0.2-2.3-0.7c-0.6-0.5-0.9-1.1-0.9-1.8c0-0.7,0.3-1.3,0.8-1.8c0.5-0.5,1.4-0.7,2.6-0.7h2.4v-0.3c0-0.7-0.2-1.2-0.6-1.5 c-0.4-0.4-1-0.5-1.7-0.5c-0.5,0-1,0.1-1.5,0.2c-0.5,0.2-0.9,0.4-1.2,0.7l-0.6-1.2c0.4-0.4,1-0.6,1.6-0.8c0.6-0.2,1.3-0.3,1.9-0.3 C989.3,192.8,990.2,193.1,990.8,193.6z M989.3,199.8c0.4-0.3,0.7-0.6,0.9-1.1v-1.2h-2.4c-1.3,0-2,0.4-2,1.3c0,0.4,0.2,0.8,0.5,1 c0.3,0.2,0.8,0.4,1.4,0.4C988.4,200.2,988.9,200.1,989.3,199.8z"></path> <path class="st9" d="M1007.8,193.7c0.6,0.6,0.9,1.5,0.9,2.8v4.9h-1.5v-4.7c0-0.8-0.2-1.4-0.6-1.9c-0.4-0.4-0.9-0.6-1.6-0.6 c-0.8,0-1.4,0.2-1.9,0.7c-0.5,0.5-0.7,1.2-0.7,2.1v4.4h-1.5v-4.7c0-0.8-0.2-1.4-0.6-1.9c-0.4-0.4-0.9-0.6-1.6-0.6 c-0.8,0-1.4,0.2-1.9,0.7c-0.5,0.5-0.7,1.2-0.7,2.1v4.4h-1.5v-8.5h1.5v1.3c0.3-0.4,0.7-0.8,1.2-1c0.5-0.2,1.1-0.3,1.7-0.3 c0.7,0,1.2,0.1,1.8,0.4c0.5,0.3,0.9,0.7,1.2,1.2c0.3-0.5,0.8-0.9,1.3-1.2s1.2-0.4,1.9-0.4C1006.3,192.8,1007.1,193.1,1007.8,193.7z "></path> <path class="st9" d="M1011.6,190.9c-0.2-0.2-0.3-0.4-0.3-0.7s0.1-0.5,0.3-0.7c0.2-0.2,0.4-0.3,0.7-0.3s0.5,0.1,0.7,0.3 s0.3,0.4,0.3,0.7c0,0.3-0.1,0.5-0.3,0.7s-0.4,0.3-0.7,0.3S1011.8,191.1,1011.6,190.9z M1011.5,192.8h1.5v8.5h-1.5V192.8z"></path> <path class="st9" d="M1016,189.5h1.5v11.9h-1.5V189.5z"></path> <path class="st9" d="M1028,192.8l-4.1,9.3c-0.4,0.9-0.8,1.5-1.3,1.8c-0.5,0.4-1.1,0.5-1.8,0.5c-0.4,0-0.8-0.1-1.2-0.2 c-0.4-0.1-0.7-0.3-1-0.6l0.7-1.2c0.4,0.4,0.9,0.6,1.5,0.6c0.4,0,0.7-0.1,0.9-0.3s0.5-0.5,0.7-1l0.3-0.6l-3.7-8.5h1.6l3,6.8l2.9-6.8 H1028z"></path> <path class="st9" d="M1035.1,200.2c-0.8-0.9-1.2-2.1-1.2-3.7v-6.4h1.6v6.3c0,2.4,1.1,3.6,3.2,3.6c1,0,1.8-0.3,2.4-0.9 c0.5-0.6,0.8-1.5,0.8-2.7v-6.3h1.6v6.4c0,1.6-0.4,2.8-1.2,3.7c-0.8,0.8-2,1.3-3.5,1.3C1037.1,201.5,1035.9,201,1035.1,200.2z"></path> <path class="st9" d="M1046.8,201.1c-0.6-0.2-1.1-0.4-1.5-0.7l0.6-1.2c0.4,0.3,0.8,0.5,1.4,0.6s1.1,0.2,1.6,0.2c1.3,0,2-0.4,2-1.2 c0-0.3-0.1-0.5-0.3-0.6c-0.2-0.1-0.4-0.3-0.7-0.3c-0.3-0.1-0.7-0.1-1.2-0.2c-0.7-0.1-1.2-0.2-1.7-0.4c-0.4-0.1-0.8-0.4-1.1-0.7 c-0.3-0.3-0.5-0.8-0.5-1.4c0-0.8,0.3-1.4,1-1.8c0.6-0.5,1.5-0.7,2.6-0.7c0.6,0,1.1,0.1,1.7,0.2s1,0.3,1.4,0.6l-0.7,1.2 c-0.7-0.4-1.5-0.7-2.4-0.7c-0.7,0-1.1,0.1-1.5,0.3c-0.3,0.2-0.5,0.5-0.5,0.8c0,0.3,0.1,0.5,0.3,0.7c0.2,0.2,0.4,0.3,0.7,0.4 c0.3,0.1,0.7,0.2,1.2,0.3c0.7,0.1,1.2,0.2,1.7,0.4c0.4,0.1,0.8,0.4,1.1,0.7c0.3,0.3,0.4,0.8,0.4,1.3c0,0.8-0.3,1.4-1,1.8 c-0.7,0.5-1.5,0.7-2.7,0.7C1048.1,201.4,1047.4,201.3,1046.8,201.1z"></path> <path class="st9" d="M1062,197.6h-6.9c0.1,0.7,0.4,1.3,1,1.8c0.6,0.5,1.3,0.7,2.1,0.7c1,0,1.8-0.3,2.4-1l0.8,1 c-0.4,0.4-0.9,0.8-1.4,1c-0.6,0.2-1.2,0.4-1.9,0.4c-0.9,0-1.7-0.2-2.4-0.6s-1.2-0.9-1.6-1.5c-0.4-0.7-0.6-1.4-0.6-2.2 c0-0.8,0.2-1.6,0.6-2.2c0.4-0.7,0.9-1.2,1.5-1.5s1.4-0.6,2.2-0.6s1.5,0.2,2.2,0.6s1.1,0.9,1.5,1.5s0.5,1.4,0.5,2.3 C1062,197.3,1062,197.4,1062,197.6z M1056,194.7c-0.5,0.4-0.8,1-0.9,1.8h5.4c-0.1-0.7-0.4-1.3-0.9-1.8s-1.1-0.7-1.8-0.7 C1057.1,194.1,1056.5,194.3,1056,194.7z"></path> <path class="st9" d="M1068.7,190.1h1.6v11.2h-1.6V190.1z"></path> <path class="st9" d="M1078.2,200.8c-0.2,0.2-0.5,0.3-0.8,0.4c-0.3,0.1-0.7,0.2-1,0.2c-0.9,0-1.5-0.2-2-0.7s-0.7-1.1-0.7-2v-4.7 h-1.4v-1.3h1.4V191h1.5v1.9h2.4v1.3h-2.4v4.6c0,0.5,0.1,0.8,0.3,1.1c0.2,0.2,0.6,0.4,1,0.4c0.5,0,0.9-0.1,1.2-0.4L1078.2,200.8z"></path> </g> <circle class="st6" cx="852.6" cy="196.5" r="6.8"></circle> <g> <path class="st9" d="M877.1,226.3l0-8.2l-4,6.8h-0.7l-4-6.8v8.1h-1.5v-11.2h1.3l4.7,7.9l4.6-7.9h1.3l0,11.2H877.1z"></path> <path class="st9" d="M881.8,215.9c-0.2-0.2-0.3-0.4-0.3-0.7s0.1-0.5,0.3-0.7c0.2-0.2,0.4-0.3,0.7-0.3s0.5,0.1,0.7,0.3 s0.3,0.4,0.3,0.7c0,0.3-0.1,0.5-0.3,0.7s-0.4,0.3-0.7,0.3S882,216.1,881.8,215.9z M881.8,217.8h1.5v8.5h-1.5V217.8z"></path> <path class="st9" d="M893.3,218.7c0.6,0.6,1,1.5,1,2.7v4.9h-1.5v-4.7c0-0.8-0.2-1.4-0.6-1.9s-1-0.6-1.7-0.6c-0.8,0-1.5,0.2-2,0.7 c-0.5,0.5-0.7,1.2-0.7,2.1v4.4h-1.5v-8.5h1.5v1.3c0.3-0.4,0.7-0.8,1.3-1c0.5-0.2,1.1-0.4,1.8-0.4 C891.9,217.7,892.7,218,893.3,218.7z"></path> <path class="st9" d="M897.2,215.9c-0.2-0.2-0.3-0.4-0.3-0.7s0.1-0.5,0.3-0.7c0.2-0.2,0.4-0.3,0.7-0.3s0.5,0.1,0.7,0.3 s0.3,0.4,0.3,0.7c0,0.3-0.1,0.5-0.3,0.7s-0.4,0.3-0.7,0.3S897.4,216.1,897.2,215.9z M897.1,217.8h1.5v8.5h-1.5V217.8z"></path> <path class="st9" d="M914.8,218.7c0.6,0.6,0.9,1.5,0.9,2.8v4.9h-1.5v-4.7c0-0.8-0.2-1.4-0.6-1.9c-0.4-0.4-0.9-0.6-1.6-0.6 c-0.8,0-1.4,0.2-1.9,0.7c-0.5,0.5-0.7,1.2-0.7,2.1v4.4h-1.5v-4.7c0-0.8-0.2-1.4-0.6-1.9c-0.4-0.4-0.9-0.6-1.6-0.6 c-0.8,0-1.4,0.2-1.9,0.7c-0.5,0.5-0.7,1.2-0.7,2.1v4.4h-1.5v-8.5h1.5v1.3c0.3-0.4,0.7-0.8,1.2-1c0.5-0.2,1.1-0.3,1.7-0.3 c0.7,0,1.2,0.1,1.8,0.4c0.5,0.3,0.9,0.7,1.2,1.2c0.3-0.5,0.8-0.9,1.3-1.2s1.2-0.4,1.9-0.4C913.3,217.7,914.1,218,914.8,218.7z"></path> <path class="st9" d="M924.3,218.6c0.6,0.6,0.9,1.4,0.9,2.6v5.1h-1.5v-1.1c-0.3,0.4-0.6,0.7-1.1,0.9s-1,0.3-1.7,0.3 c-0.9,0-1.7-0.2-2.3-0.7c-0.6-0.5-0.9-1.1-0.9-1.8c0-0.7,0.3-1.3,0.8-1.8c0.5-0.5,1.4-0.7,2.6-0.7h2.4v-0.3c0-0.7-0.2-1.2-0.6-1.5 c-0.4-0.4-1-0.5-1.7-0.5c-0.5,0-1,0.1-1.5,0.2c-0.5,0.2-0.9,0.4-1.2,0.7l-0.6-1.2c0.4-0.4,1-0.6,1.6-0.8c0.6-0.2,1.3-0.3,1.9-0.3 C922.8,217.7,923.7,218,924.3,218.6z M922.8,224.8c0.4-0.3,0.7-0.6,0.9-1.1v-1.2h-2.4c-1.3,0-2,0.4-2,1.3c0,0.4,0.2,0.8,0.5,1 c0.3,0.2,0.8,0.4,1.4,0.4C921.8,225.2,922.4,225.1,922.8,224.8z"></path> <path class="st9" d="M928.1,214.4h1.5v11.9h-1.5V214.4z"></path> <path class="st9" d="M939.3,216.5h-3.8v-1.4h9.3v1.4h-3.8v9.8h-1.6V216.5z"></path> <path class="st9" d="M948.7,218.1c0.5-0.3,1.2-0.4,1.9-0.4v1.5c-0.1,0-0.2,0-0.4,0c-0.8,0-1.5,0.2-2,0.7s-0.7,1.2-0.7,2.1v4.2H946 v-8.5h1.5v1.4C947.8,218.7,948.2,218.4,948.7,218.1z"></path> <path class="st9" d="M958.3,218.6c0.6,0.6,0.9,1.4,0.9,2.6v5.1h-1.5v-1.1c-0.3,0.4-0.6,0.7-1.1,0.9s-1,0.3-1.7,0.3 c-0.9,0-1.7-0.2-2.3-0.7c-0.6-0.5-0.9-1.1-0.9-1.8c0-0.7,0.3-1.3,0.8-1.8c0.5-0.5,1.4-0.7,2.6-0.7h2.4v-0.3c0-0.7-0.2-1.2-0.6-1.5 c-0.4-0.4-1-0.5-1.7-0.5c-0.5,0-1,0.1-1.5,0.2c-0.5,0.2-0.9,0.4-1.2,0.7l-0.6-1.2c0.4-0.4,1-0.6,1.6-0.8c0.6-0.2,1.3-0.3,1.9-0.3 C956.7,217.7,957.6,218,958.3,218.6z M956.7,224.8c0.4-0.3,0.7-0.6,0.9-1.1v-1.2h-2.4c-1.3,0-2,0.4-2,1.3c0,0.4,0.2,0.8,0.5,1 c0.3,0.2,0.8,0.4,1.4,0.4C955.8,225.2,956.3,225.1,956.7,224.8z"></path> <path class="st9" d="M969.1,218.7c0.6,0.6,1,1.5,1,2.7v4.9h-1.5v-4.7c0-0.8-0.2-1.4-0.6-1.9s-1-0.6-1.7-0.6c-0.8,0-1.5,0.2-2,0.7 c-0.5,0.5-0.7,1.2-0.7,2.1v4.4H962v-8.5h1.5v1.3c0.3-0.4,0.7-0.8,1.3-1c0.5-0.2,1.1-0.4,1.8-0.4C967.6,217.7,968.5,218,969.1,218.7 z"></path> <path class="st9" d="M973.4,226.1c-0.6-0.2-1.1-0.4-1.5-0.7l0.6-1.2c0.4,0.3,0.8,0.5,1.4,0.6s1.1,0.2,1.6,0.2c1.3,0,2-0.4,2-1.2 c0-0.3-0.1-0.5-0.3-0.6c-0.2-0.1-0.4-0.3-0.7-0.3c-0.3-0.1-0.7-0.1-1.2-0.2c-0.7-0.1-1.2-0.2-1.7-0.4c-0.4-0.1-0.8-0.4-1.1-0.7 c-0.3-0.3-0.5-0.8-0.5-1.4c0-0.8,0.3-1.4,1-1.8c0.6-0.5,1.5-0.7,2.6-0.7c0.6,0,1.1,0.1,1.7,0.2s1,0.3,1.4,0.6l-0.7,1.2 c-0.7-0.4-1.5-0.7-2.4-0.7c-0.7,0-1.1,0.1-1.5,0.3c-0.3,0.2-0.5,0.5-0.5,0.8c0,0.3,0.1,0.5,0.3,0.7c0.2,0.2,0.4,0.3,0.7,0.4 c0.3,0.1,0.7,0.2,1.2,0.3c0.7,0.1,1.2,0.2,1.7,0.4c0.4,0.1,0.8,0.4,1.1,0.7c0.3,0.3,0.4,0.8,0.4,1.3c0,0.8-0.3,1.4-1,1.8 c-0.7,0.5-1.5,0.7-2.7,0.7C974.7,226.4,974,226.3,973.4,226.1z"></path> <path class="st9" d="M986.7,218.6c0.6,0.6,0.9,1.4,0.9,2.6v5.1h-1.5v-1.1c-0.3,0.4-0.6,0.7-1.1,0.9s-1,0.3-1.7,0.3 c-0.9,0-1.7-0.2-2.3-0.7c-0.6-0.5-0.9-1.1-0.9-1.8c0-0.7,0.3-1.3,0.8-1.8c0.5-0.5,1.4-0.7,2.6-0.7h2.4v-0.3c0-0.7-0.2-1.2-0.6-1.5 c-0.4-0.4-1-0.5-1.7-0.5c-0.5,0-1,0.1-1.5,0.2c-0.5,0.2-0.9,0.4-1.2,0.7l-0.6-1.2c0.4-0.4,1-0.6,1.6-0.8c0.6-0.2,1.3-0.3,1.9-0.3 C985.2,217.7,986.1,218,986.7,218.6z M985.2,224.8c0.4-0.3,0.7-0.6,0.9-1.1v-1.2h-2.4c-1.3,0-2,0.4-2,1.3c0,0.4,0.2,0.8,0.5,1 c0.3,0.2,0.8,0.4,1.4,0.4C984.3,225.2,984.8,225.1,985.2,224.8z"></path> <path class="st9" d="M992,225.8c-0.7-0.4-1.2-0.9-1.6-1.5s-0.6-1.4-0.6-2.2s0.2-1.6,0.6-2.2c0.4-0.7,0.9-1.2,1.6-1.5 s1.4-0.6,2.3-0.6c0.8,0,1.5,0.2,2.1,0.5s1.1,0.8,1.4,1.3l-1.2,0.8c-0.3-0.4-0.6-0.7-1-0.9c-0.4-0.2-0.8-0.3-1.3-0.3 c-0.6,0-1.1,0.1-1.5,0.4s-0.8,0.6-1,1c-0.2,0.5-0.4,1-0.4,1.6c0,0.6,0.1,1.1,0.4,1.6c0.3,0.5,0.6,0.8,1,1c0.4,0.2,0.9,0.4,1.5,0.4 c0.5,0,0.9-0.1,1.3-0.3c0.4-0.2,0.7-0.5,1-0.9l1.2,0.7c-0.3,0.6-0.8,1-1.4,1.4s-1.3,0.5-2.1,0.5C993.4,226.4,992.6,226.2,992,225.8 z"></path> <path class="st9" d="M1004.6,225.8c-0.2,0.2-0.5,0.3-0.8,0.4c-0.3,0.1-0.7,0.2-1,0.2c-0.9,0-1.5-0.2-2-0.7s-0.7-1.1-0.7-2v-4.7 h-1.4v-1.3h1.4V216h1.5v1.9h2.4v1.3h-2.4v4.6c0,0.5,0.1,0.8,0.3,1.1c0.2,0.2,0.6,0.4,1,0.4c0.5,0,0.9-0.1,1.2-0.4L1004.6,225.8z"></path> <path class="st9" d="M1006.5,215.9c-0.2-0.2-0.3-0.4-0.3-0.7s0.1-0.5,0.3-0.7c0.2-0.2,0.4-0.3,0.7-0.3s0.5,0.1,0.7,0.3 s0.3,0.4,0.3,0.7c0,0.3-0.1,0.5-0.3,0.7s-0.4,0.3-0.7,0.3S1006.7,216.1,1006.5,215.9z M1006.4,217.8h1.5v8.5h-1.5V217.8z"></path> <path class="st9" d="M1012.3,225.8c-0.7-0.4-1.2-0.9-1.6-1.5c-0.4-0.7-0.6-1.4-0.6-2.2s0.2-1.6,0.6-2.2c0.4-0.7,0.9-1.2,1.6-1.5 c0.7-0.4,1.4-0.6,2.3-0.6s1.6,0.2,2.3,0.6c0.7,0.4,1.2,0.9,1.6,1.5c0.4,0.7,0.6,1.4,0.6,2.2s-0.2,1.6-0.6,2.2s-0.9,1.2-1.6,1.5 c-0.7,0.4-1.4,0.6-2.3,0.6S1012.9,226.2,1012.3,225.8z M1016,224.7c0.4-0.2,0.8-0.6,1-1.1c0.2-0.5,0.4-1,0.4-1.6 c0-0.6-0.1-1.1-0.4-1.6c-0.2-0.5-0.6-0.8-1-1c-0.4-0.2-0.9-0.4-1.5-0.4s-1,0.1-1.5,0.4s-0.8,0.6-1,1c-0.2,0.5-0.4,1-0.4,1.6 c0,0.6,0.1,1.1,0.4,1.6c0.3,0.5,0.6,0.8,1,1.1c0.4,0.3,0.9,0.4,1.5,0.4S1015.6,224.9,1016,224.7z"></path> <path class="st9" d="M1028.2,218.7c0.6,0.6,1,1.5,1,2.7v4.9h-1.5v-4.7c0-0.8-0.2-1.4-0.6-1.9s-1-0.6-1.7-0.6c-0.8,0-1.5,0.2-2,0.7 c-0.5,0.5-0.7,1.2-0.7,2.1v4.4h-1.5v-8.5h1.5v1.3c0.3-0.4,0.7-0.8,1.3-1c0.5-0.2,1.1-0.4,1.8-0.4 C1026.7,217.7,1027.5,218,1028.2,218.7z"></path> <path class="st9" d="M1038.1,216.5v3.9h5.6v1.4h-5.6v4.5h-1.6v-11.2h7.9v1.4H1038.1z"></path> <path class="st9" d="M1053.8,222.6h-6.9c0.1,0.7,0.4,1.3,1,1.8c0.6,0.5,1.3,0.7,2.1,0.7c1,0,1.8-0.3,2.4-1l0.8,1 c-0.4,0.4-0.9,0.8-1.4,1c-0.6,0.2-1.2,0.4-1.9,0.4c-0.9,0-1.7-0.2-2.4-0.6s-1.2-0.9-1.6-1.5c-0.4-0.7-0.6-1.4-0.6-2.2 c0-0.8,0.2-1.6,0.6-2.2c0.4-0.7,0.9-1.2,1.5-1.5s1.4-0.6,2.2-0.6s1.5,0.2,2.2,0.6s1.1,0.9,1.5,1.5s0.5,1.4,0.5,2.3 C1053.8,222.2,1053.8,222.4,1053.8,222.6z M1047.8,219.7c-0.5,0.4-0.8,1-0.9,1.8h5.4c-0.1-0.7-0.4-1.3-0.9-1.8s-1.1-0.7-1.8-0.7 C1048.9,219,1048.3,219.3,1047.8,219.7z"></path> <path class="st9" d="M1063.6,222.6h-6.9c0.1,0.7,0.4,1.3,1,1.8c0.6,0.5,1.3,0.7,2.1,0.7c1,0,1.8-0.3,2.4-1l0.8,1 c-0.4,0.4-0.9,0.8-1.4,1c-0.6,0.2-1.2,0.4-1.9,0.4c-0.9,0-1.7-0.2-2.4-0.6s-1.2-0.9-1.6-1.5c-0.4-0.7-0.6-1.4-0.6-2.2 c0-0.8,0.2-1.6,0.6-2.2c0.4-0.7,0.9-1.2,1.5-1.5s1.4-0.6,2.2-0.6s1.5,0.2,2.2,0.6s1.1,0.9,1.5,1.5s0.5,1.4,0.5,2.3 C1063.6,222.2,1063.6,222.4,1063.6,222.6z M1057.6,219.7c-0.5,0.4-0.8,1-0.9,1.8h5.4c-0.1-0.7-0.4-1.3-0.9-1.8s-1.1-0.7-1.8-0.7 C1058.7,219,1058.1,219.3,1057.6,219.7z"></path> <path class="st9" d="M1066.2,226.1c-0.6-0.2-1.1-0.4-1.5-0.7l0.6-1.2c0.4,0.3,0.8,0.5,1.4,0.6s1.1,0.2,1.6,0.2c1.3,0,2-0.4,2-1.2 c0-0.3-0.1-0.5-0.3-0.6c-0.2-0.1-0.4-0.3-0.7-0.3c-0.3-0.1-0.7-0.1-1.2-0.2c-0.7-0.1-1.2-0.2-1.7-0.4c-0.4-0.1-0.8-0.4-1.1-0.7 c-0.3-0.3-0.5-0.8-0.5-1.4c0-0.8,0.3-1.4,1-1.8c0.6-0.5,1.5-0.7,2.6-0.7c0.6,0,1.1,0.1,1.7,0.2s1,0.3,1.4,0.6l-0.7,1.2 c-0.7-0.4-1.5-0.7-2.4-0.7c-0.7,0-1.1,0.1-1.5,0.3c-0.3,0.2-0.5,0.5-0.5,0.8c0,0.3,0.1,0.5,0.3,0.7c0.2,0.2,0.4,0.3,0.7,0.4 c0.3,0.1,0.7,0.2,1.2,0.3c0.7,0.1,1.2,0.2,1.7,0.4c0.4,0.1,0.8,0.4,1.1,0.7c0.3,0.3,0.4,0.8,0.4,1.3c0,0.8-0.3,1.4-1,1.8 c-0.7,0.5-1.5,0.7-2.7,0.7C1067.5,226.4,1066.8,226.3,1066.2,226.1z"></path> </g> <circle class="st7" cx="852.6" cy="221.8" r="6.8"></circle> <g> <path class="st9" d="M874.2,251.3l-2.4-3.4c-0.3,0-0.5,0-0.7,0h-2.8v3.4h-1.6v-11.2h4.4c1.5,0,2.6,0.3,3.4,1s1.2,1.6,1.2,2.9 c0,0.9-0.2,1.6-0.6,2.2c-0.4,0.6-1,1.1-1.8,1.3l2.7,3.8H874.2z M873.4,245.9c0.5-0.4,0.8-1.1,0.8-1.9s-0.3-1.4-0.8-1.9 c-0.5-0.4-1.3-0.6-2.3-0.6h-2.7v5h2.7C872.1,246.6,872.8,246.4,873.4,245.9z"></path> <path class="st9" d="M885.8,247.6h-6.9c0.1,0.7,0.4,1.3,1,1.8c0.6,0.5,1.3,0.7,2.1,0.7c1,0,1.8-0.3,2.4-1l0.8,1 c-0.4,0.4-0.9,0.8-1.4,1c-0.6,0.2-1.2,0.4-1.9,0.4c-0.9,0-1.7-0.2-2.4-0.6s-1.2-0.9-1.6-1.5c-0.4-0.7-0.6-1.4-0.6-2.2 c0-0.8,0.2-1.6,0.6-2.2c0.4-0.7,0.9-1.2,1.5-1.5s1.4-0.6,2.2-0.6s1.5,0.2,2.2,0.6s1.1,0.9,1.5,1.5s0.5,1.4,0.5,2.3 C885.8,247.3,885.8,247.4,885.8,247.6z M879.8,244.8c-0.5,0.4-0.8,1-0.9,1.8h5.4c-0.1-0.7-0.4-1.3-0.9-1.8s-1.1-0.7-1.8-0.7 C880.9,244.1,880.3,244.3,879.8,244.8z"></path> <path class="st9" d="M900.6,242.9l-3.2,8.5H896l-2.4-6.4l-2.5,6.4h-1.5l-3.2-8.5h1.5l2.5,6.8l2.6-6.8h1.3l2.5,6.8l2.5-6.8H900.6z"></path> <path class="st9" d="M907.7,243.7c0.6,0.6,0.9,1.4,0.9,2.6v5.1h-1.5v-1.1c-0.3,0.4-0.6,0.7-1.1,0.9s-1,0.3-1.7,0.3 c-0.9,0-1.7-0.2-2.3-0.7c-0.6-0.5-0.9-1.1-0.9-1.8c0-0.7,0.3-1.3,0.8-1.8c0.5-0.5,1.4-0.7,2.6-0.7h2.4v-0.3c0-0.7-0.2-1.2-0.6-1.5 c-0.4-0.4-1-0.5-1.7-0.5c-0.5,0-1,0.1-1.5,0.2c-0.5,0.2-0.9,0.4-1.2,0.7l-0.6-1.2c0.4-0.4,1-0.6,1.6-0.8c0.6-0.2,1.3-0.3,1.9-0.3 C906.1,242.8,907,243.1,907.7,243.7z M906.1,249.9c0.4-0.3,0.7-0.6,0.9-1.1v-1.2h-2.4c-1.3,0-2,0.4-2,1.3c0,0.4,0.2,0.8,0.5,1 c0.3,0.2,0.8,0.4,1.4,0.4C905.2,250.3,905.7,250.1,906.1,249.9z"></path> <path class="st9" d="M914.1,243.2c0.5-0.3,1.2-0.4,1.9-0.4v1.5c-0.1,0-0.2,0-0.4,0c-0.8,0-1.5,0.2-2,0.7s-0.7,1.2-0.7,2.1v4.2h-1.5 v-8.5h1.5v1.4C913.2,243.8,913.6,243.4,914.1,243.2z"></path> <path class="st9" d="M925.8,239.5v11.9h-1.5V250c-0.3,0.5-0.8,0.8-1.3,1.1c-0.5,0.2-1.1,0.4-1.7,0.4c-0.8,0-1.6-0.2-2.2-0.5 c-0.7-0.4-1.2-0.9-1.5-1.5c-0.4-0.7-0.6-1.4-0.6-2.3c0-0.9,0.2-1.6,0.6-2.3c0.4-0.7,0.9-1.2,1.5-1.5c0.7-0.4,1.4-0.5,2.2-0.5 c0.6,0,1.2,0.1,1.7,0.3c0.5,0.2,0.9,0.6,1.3,1v-4.7H925.8z M922.9,249.7c0.4-0.2,0.8-0.6,1-1.1c0.2-0.5,0.4-1,0.4-1.6 c0-0.6-0.1-1.1-0.4-1.6c-0.2-0.5-0.6-0.8-1-1s-0.9-0.4-1.5-0.4c-0.5,0-1,0.1-1.5,0.4s-0.8,0.6-1,1c-0.2,0.5-0.4,1-0.4,1.6 c0,0.6,0.1,1.1,0.4,1.6c0.3,0.5,0.6,0.8,1,1.1c0.4,0.3,0.9,0.4,1.5,0.4C922,250.1,922.5,250,922.9,249.7z"></path> <path class="st9" d="M929.2,251.2c-0.6-0.2-1.1-0.4-1.5-0.7l0.6-1.2c0.4,0.3,0.8,0.5,1.4,0.6s1.1,0.2,1.6,0.2c1.3,0,2-0.4,2-1.2 c0-0.3-0.1-0.5-0.3-0.6c-0.2-0.1-0.4-0.3-0.7-0.3c-0.3-0.1-0.7-0.1-1.2-0.2c-0.7-0.1-1.2-0.2-1.7-0.4c-0.4-0.1-0.8-0.4-1.1-0.7 c-0.3-0.3-0.5-0.8-0.5-1.4c0-0.8,0.3-1.4,1-1.8c0.6-0.5,1.5-0.7,2.6-0.7c0.6,0,1.1,0.1,1.7,0.2s1,0.3,1.4,0.6l-0.7,1.2 c-0.7-0.4-1.5-0.7-2.4-0.7c-0.7,0-1.1,0.1-1.5,0.3c-0.3,0.2-0.5,0.5-0.5,0.8c0,0.3,0.1,0.5,0.3,0.7c0.2,0.2,0.4,0.3,0.7,0.4 c0.3,0.1,0.7,0.2,1.2,0.3c0.7,0.1,1.2,0.2,1.7,0.4c0.4,0.1,0.8,0.4,1.1,0.7c0.3,0.3,0.4,0.8,0.4,1.3c0,0.8-0.3,1.4-1,1.8 c-0.7,0.5-1.5,0.7-2.7,0.7C930.5,251.4,929.8,251.4,929.2,251.2z"></path> <path class="st9" d="M949.5,251.5L948,250c-1,1-2.2,1.4-3.7,1.4c-0.7,0-1.4-0.1-2-0.4s-1.1-0.6-1.4-1c-0.3-0.4-0.5-0.9-0.5-1.5 c0-0.7,0.2-1.3,0.6-1.8c0.4-0.5,1.1-1.1,2.1-1.6c-0.5-0.5-0.8-0.9-1-1.3c-0.2-0.4-0.3-0.8-0.3-1.2c0-0.8,0.3-1.4,0.8-1.8 c0.5-0.5,1.3-0.7,2.2-0.7c0.9,0,1.5,0.2,2,0.6c0.5,0.4,0.8,1,0.8,1.7c0,0.6-0.2,1.1-0.6,1.5c-0.4,0.4-1,0.9-1.8,1.4l2.8,2.8 c0.3-0.6,0.5-1.3,0.7-2l1.2,0.4c-0.2,1-0.5,1.8-1,2.6l1.5,1.5L949.5,251.5z M947.1,249.1l-3.2-3.2c-0.8,0.4-1.3,0.8-1.6,1.2 c-0.3,0.4-0.5,0.8-0.5,1.2c0,0.5,0.2,1,0.7,1.3c0.5,0.3,1.1,0.5,1.8,0.5C945.4,250.2,946.3,249.8,947.1,249.1z M943.5,241.5 c-0.3,0.3-0.4,0.6-0.4,1c0,0.3,0.1,0.6,0.2,0.8c0.2,0.3,0.5,0.6,0.9,1.1c0.7-0.4,1.2-0.8,1.5-1.1c0.3-0.3,0.4-0.6,0.4-1 c0-0.4-0.1-0.7-0.4-0.9c-0.3-0.2-0.6-0.3-1.1-0.3C944.2,241.2,943.8,241.3,943.5,241.5z"></path> <path class="st9" d="M956.6,240.1h4.7c1.2,0,2.2,0.2,3.2,0.7c0.9,0.5,1.6,1.1,2.1,2c0.5,0.8,0.8,1.8,0.8,2.9s-0.3,2.1-0.8,2.9 c-0.5,0.8-1.2,1.5-2.1,2c-0.9,0.5-2,0.7-3.2,0.7h-4.7V240.1z M961.2,250c0.9,0,1.7-0.2,2.4-0.5c0.7-0.4,1.2-0.8,1.6-1.5 c0.4-0.6,0.6-1.4,0.6-2.2s-0.2-1.6-0.6-2.2c-0.4-0.6-0.9-1.1-1.6-1.5c-0.7-0.4-1.5-0.5-2.4-0.5h-3v8.4H961.2z"></path> <path class="st9" d="M969.6,240.9c-0.2-0.2-0.3-0.4-0.3-0.7s0.1-0.5,0.3-0.7c0.2-0.2,0.4-0.3,0.7-0.3s0.5,0.1,0.7,0.3 s0.3,0.4,0.3,0.7c0,0.3-0.1,0.5-0.3,0.7s-0.4,0.3-0.7,0.3S969.8,241.1,969.6,240.9z M969.5,242.9h1.5v8.5h-1.5V242.9z"></path> <path class="st9" d="M974.4,251.2c-0.6-0.2-1.1-0.4-1.5-0.7l0.6-1.2c0.4,0.3,0.8,0.5,1.4,0.6s1.1,0.2,1.6,0.2c1.3,0,2-0.4,2-1.2 c0-0.3-0.1-0.5-0.3-0.6c-0.2-0.1-0.4-0.3-0.7-0.3c-0.3-0.1-0.7-0.1-1.2-0.2c-0.7-0.1-1.2-0.2-1.7-0.4c-0.4-0.1-0.8-0.4-1.1-0.7 c-0.3-0.3-0.5-0.8-0.5-1.4c0-0.8,0.3-1.4,1-1.8c0.6-0.5,1.5-0.7,2.6-0.7c0.6,0,1.1,0.1,1.7,0.2s1,0.3,1.4,0.6l-0.7,1.2 c-0.7-0.4-1.5-0.7-2.4-0.7c-0.7,0-1.1,0.1-1.5,0.3c-0.3,0.2-0.5,0.5-0.5,0.8c0,0.3,0.1,0.5,0.3,0.7c0.2,0.2,0.4,0.3,0.7,0.4 c0.3,0.1,0.7,0.2,1.2,0.3c0.7,0.1,1.2,0.2,1.7,0.4c0.4,0.1,0.8,0.4,1.1,0.7c0.3,0.3,0.4,0.8,0.4,1.3c0,0.8-0.3,1.4-1,1.8 c-0.7,0.5-1.5,0.7-2.7,0.7C975.7,251.4,975.1,251.4,974.4,251.2z"></path> <path class="st9" d="M983.4,250.9c-0.7-0.4-1.2-0.9-1.6-1.5s-0.6-1.4-0.6-2.2s0.2-1.6,0.6-2.2c0.4-0.7,0.9-1.2,1.6-1.5 s1.4-0.6,2.3-0.6c0.8,0,1.5,0.2,2.1,0.5s1.1,0.8,1.4,1.3l-1.2,0.8c-0.3-0.4-0.6-0.7-1-0.9c-0.4-0.2-0.8-0.3-1.3-0.3 c-0.6,0-1.1,0.1-1.5,0.4s-0.8,0.6-1,1c-0.2,0.5-0.4,1-0.4,1.6c0,0.6,0.1,1.1,0.4,1.6c0.3,0.5,0.6,0.8,1,1c0.4,0.2,0.9,0.4,1.5,0.4 c0.5,0,0.9-0.1,1.3-0.3c0.4-0.2,0.7-0.5,1-0.9l1.2,0.7c-0.3,0.6-0.8,1-1.4,1.4s-1.3,0.5-2.1,0.5 C984.9,251.4,984.1,251.3,983.4,250.9z"></path> <path class="st9" d="M992.4,250.9c-0.7-0.4-1.2-0.9-1.6-1.5c-0.4-0.7-0.6-1.4-0.6-2.2s0.2-1.6,0.6-2.2c0.4-0.7,0.9-1.2,1.6-1.5 c0.7-0.4,1.4-0.6,2.3-0.6s1.6,0.2,2.3,0.6c0.7,0.4,1.2,0.9,1.6,1.5c0.4,0.7,0.6,1.4,0.6,2.2s-0.2,1.6-0.6,2.2s-0.9,1.2-1.6,1.5 c-0.7,0.4-1.4,0.6-2.3,0.6S993.1,251.3,992.4,250.9z M996.1,249.7c0.4-0.2,0.8-0.6,1-1.1c0.2-0.5,0.4-1,0.4-1.6 c0-0.6-0.1-1.1-0.4-1.6c-0.2-0.5-0.6-0.8-1-1c-0.4-0.2-0.9-0.4-1.5-0.4s-1,0.1-1.5,0.4s-0.8,0.6-1,1c-0.2,0.5-0.4,1-0.4,1.6 c0,0.6,0.1,1.1,0.4,1.6c0.3,0.5,0.6,0.8,1,1.1c0.4,0.3,0.9,0.4,1.5,0.4S995.7,250,996.1,249.7z"></path> <path class="st9" d="M1009.1,242.9v8.5h-1.5v-1.3c-0.3,0.4-0.7,0.8-1.2,1c-0.5,0.2-1.1,0.4-1.7,0.4c-1.1,0-2-0.3-2.7-0.9 c-0.7-0.6-1-1.5-1-2.8v-4.9h1.5v4.7c0,0.8,0.2,1.4,0.6,1.9c0.4,0.4,1,0.6,1.7,0.6c0.8,0,1.5-0.2,1.9-0.7c0.5-0.5,0.7-1.2,0.7-2.1 v-4.4H1009.1z"></path> <path class="st9" d="M1019.1,243.7c0.6,0.6,1,1.5,1,2.7v4.9h-1.5v-4.7c0-0.8-0.2-1.4-0.6-1.9s-1-0.6-1.7-0.6c-0.8,0-1.5,0.2-2,0.7 c-0.5,0.5-0.7,1.2-0.7,2.1v4.4h-1.5v-8.5h1.5v1.3c0.3-0.4,0.7-0.8,1.3-1c0.5-0.2,1.1-0.4,1.8-0.4 C1017.6,242.8,1018.5,243.1,1019.1,243.7z"></path> <path class="st9" d="M1027.7,250.9c-0.2,0.2-0.5,0.3-0.8,0.4c-0.3,0.1-0.7,0.2-1,0.2c-0.9,0-1.5-0.2-2-0.7s-0.7-1.1-0.7-2v-4.7 h-1.4v-1.3h1.4V241h1.5v1.9h2.4v1.3h-2.4v4.6c0,0.5,0.1,0.8,0.3,1.1c0.2,0.2,0.6,0.4,1,0.4c0.5,0,0.9-0.1,1.2-0.4L1027.7,250.9z"></path> <path class="st9" d="M1030,251.2c-0.6-0.2-1.1-0.4-1.5-0.7l0.6-1.2c0.4,0.3,0.8,0.5,1.4,0.6s1.1,0.2,1.6,0.2c1.3,0,2-0.4,2-1.2 c0-0.3-0.1-0.5-0.3-0.6c-0.2-0.1-0.4-0.3-0.7-0.3c-0.3-0.1-0.7-0.1-1.2-0.2c-0.7-0.1-1.2-0.2-1.7-0.4c-0.4-0.1-0.8-0.4-1.1-0.7 c-0.3-0.3-0.5-0.8-0.5-1.4c0-0.8,0.3-1.4,1-1.8c0.6-0.5,1.5-0.7,2.6-0.7c0.6,0,1.1,0.1,1.7,0.2s1,0.3,1.4,0.6l-0.7,1.2 c-0.7-0.4-1.5-0.7-2.4-0.7c-0.7,0-1.1,0.1-1.5,0.3c-0.3,0.2-0.5,0.5-0.5,0.8c0,0.3,0.1,0.5,0.3,0.7c0.2,0.2,0.4,0.3,0.7,0.4 c0.3,0.1,0.7,0.2,1.2,0.3c0.7,0.1,1.2,0.2,1.7,0.4c0.4,0.1,0.8,0.4,1.1,0.7c0.3,0.3,0.4,0.8,0.4,1.3c0,0.8-0.3,1.4-1,1.8 c-0.7,0.5-1.5,0.7-2.7,0.7C1031.3,251.4,1030.6,251.4,1030,251.2z"></path> </g> <circle class="st1" cx="852.6" cy="246.6" r="6.8"></circle> <g> <path class="st9" d="M868.7,275.7c-0.9-0.5-1.6-1.2-2.1-2.1s-0.8-1.9-0.8-2.9c0-1.1,0.3-2.1,0.8-2.9c0.5-0.9,1.2-1.6,2.1-2.1 c0.9-0.5,1.9-0.7,3.1-0.7c1.1,0,2.1,0.2,3,0.7c0.9,0.5,1.6,1.2,2.1,2c0.5,0.9,0.8,1.8,0.8,2.9c0,1.1-0.3,2.1-0.8,2.9 c-0.5,0.9-1.2,1.6-2.1,2c-0.9,0.5-1.9,0.7-3,0.7C870.7,276.5,869.6,276.2,868.7,275.7z M874,274.5c0.7-0.4,1.2-0.9,1.6-1.5 c0.4-0.7,0.6-1.4,0.6-2.2s-0.2-1.5-0.6-2.2s-0.9-1.2-1.6-1.5s-1.4-0.6-2.2-0.6c-0.8,0-1.6,0.2-2.2,0.6s-1.2,0.9-1.6,1.5 c-0.4,0.7-0.6,1.4-0.6,2.2s0.2,1.5,0.6,2.2c0.4,0.7,0.9,1.2,1.6,1.5c0.7,0.4,1.4,0.6,2.2,0.6C872.6,275,873.3,274.8,874,274.5z"></path> <path class="st9" d="M884.8,275.8c-0.2,0.2-0.5,0.3-0.8,0.4c-0.3,0.1-0.7,0.2-1,0.2c-0.9,0-1.5-0.2-2-0.7s-0.7-1.1-0.7-2v-4.7h-1.4 v-1.3h1.4V266h1.5v1.9h2.4v1.3h-2.4v4.6c0,0.5,0.1,0.8,0.3,1.1c0.2,0.2,0.6,0.4,1,0.4c0.5,0,0.9-0.1,1.2-0.4L884.8,275.8z"></path> <path class="st9" d="M893.7,268.7c0.6,0.6,1,1.5,1,2.7v4.9h-1.5v-4.7c0-0.8-0.2-1.4-0.6-1.9s-1-0.6-1.7-0.6c-0.8,0-1.5,0.2-2,0.7 c-0.5,0.5-0.7,1.2-0.7,2.1v4.4h-1.5v-11.9h1.5v4.6c0.3-0.4,0.7-0.7,1.3-0.9c0.5-0.2,1.1-0.3,1.7-0.3 C892.3,267.8,893.1,268.1,893.7,268.7z"></path> <path class="st9" d="M905.2,272.6h-6.9c0.1,0.7,0.4,1.3,1,1.8c0.6,0.5,1.3,0.7,2.1,0.7c1,0,1.8-0.3,2.4-1l0.8,1 c-0.4,0.4-0.9,0.8-1.4,1c-0.6,0.2-1.2,0.4-1.9,0.4c-0.9,0-1.7-0.2-2.4-0.6s-1.2-0.9-1.6-1.5c-0.4-0.7-0.6-1.4-0.6-2.2 c0-0.8,0.2-1.6,0.6-2.2c0.4-0.7,0.9-1.2,1.5-1.5s1.4-0.6,2.2-0.6s1.5,0.2,2.2,0.6s1.1,0.9,1.5,1.5s0.5,1.4,0.5,2.3 C905.3,272.2,905.2,272.4,905.2,272.6z M899.2,269.7c-0.5,0.4-0.8,1-0.9,1.8h5.4c-0.1-0.7-0.4-1.3-0.9-1.8s-1.1-0.7-1.8-0.7 C900.3,269.1,899.7,269.3,899.2,269.7z"></path> <path class="st9" d="M910,268.1c0.5-0.3,1.2-0.4,1.9-0.4v1.5c-0.1,0-0.2,0-0.4,0c-0.8,0-1.5,0.2-2,0.7s-0.7,1.2-0.7,2.1v4.2h-1.5 v-8.5h1.5v1.4C909.1,268.8,909.5,268.4,910,268.1z"></path> </g> <circle class="st8" cx="852.6" cy="271.5" r="6.8"></circle> <g> <path class="st9" d="M81.2,78.1H83v4.2c-0.5,0.4-1.2,0.8-1.9,1c-0.7,0.2-1.5,0.3-2.2,0.3c-1.1,0-2-0.2-2.9-0.7 c-0.9-0.5-1.5-1.1-2-1.9c-0.5-0.8-0.7-1.7-0.7-2.8s0.2-2,0.7-2.8c0.5-0.8,1.2-1.5,2-1.9c0.9-0.5,1.8-0.7,2.9-0.7 c0.9,0,1.7,0.1,2.4,0.4s1.3,0.7,1.8,1.3l-1.2,1.2c-0.8-0.8-1.8-1.2-2.9-1.2c-0.7,0-1.4,0.2-2,0.5c-0.6,0.3-1,0.7-1.4,1.3 c-0.3,0.6-0.5,1.2-0.5,1.9c0,0.7,0.2,1.3,0.5,1.9c0.3,0.6,0.8,1,1.4,1.3c0.6,0.3,1.2,0.5,2,0.5c0.8,0,1.5-0.2,2.2-0.5V78.1z"></path> <path class="st9" d="M93.5,81.9v1.6h-7.9V73h7.7v1.6h-5.7v2.7h5.1V79h-5.1v2.9H93.5z"></path> <path class="st9" d="M105,73v10.5h-1.6l-5.8-7.1v7.1h-1.9V73h1.6l5.8,7.1V73H105z"></path> <path class="st9" d="M120.1,81.9v1.7h-9v-1.3l6.2-7.5h-6.1V73h8.7v1.3l-6.2,7.5H120.1z"></path> </g> <g> <path class="st9" d="M221.1,83.5l0-7l-3.5,5.8h-0.9l-3.5-5.7v6.9h-1.9V73h1.6l4.2,7l4.1-7h1.6l0,10.5H221.1z"></path> <path class="st9" d="M225.8,73h2v10.5h-2V73z"></path> <path class="st9" d="M230.6,73h2v8.8h5.5v1.7h-7.4V73z"></path> <path class="st9" d="M239.5,73h2v8.8h5.5v1.7h-7.4V73z"></path> <path class="st9" d="M256.4,81.9v1.6h-7.9V73h7.7v1.6h-5.7v2.7h5.1V79h-5.1v2.9H256.4z"></path> <path class="st9" d="M267.9,73v10.5h-1.6l-5.8-7.1v7.1h-1.9V73h1.6l5.8,7.1V73H267.9z"></path> <path class="st9" d="M280.1,73v10.5h-1.6l-5.8-7.1v7.1h-1.9V73h1.6l5.8,7.1V73H280.1z"></path> <path class="st9" d="M282.9,73h2v10.5h-2V73z"></path> <path class="st9" d="M294.5,81.1h-5.2l-1,2.4h-2l4.7-10.5h1.9l4.7,10.5h-2L294.5,81.1z M293.8,79.5l-2-4.6l-2,4.6H293.8z"></path> <path class="st9" d="M298.9,73h2v8.8h5.5v1.7h-7.4V73z"></path> <path class="st9" d="M308.7,83.3c-0.8-0.2-1.4-0.5-1.8-0.9l0.7-1.5c0.4,0.3,1,0.6,1.6,0.8c0.6,0.2,1.3,0.3,1.9,0.3 c0.8,0,1.4-0.1,1.7-0.4s0.6-0.6,0.6-1c0-0.3-0.1-0.5-0.3-0.7c-0.2-0.2-0.5-0.3-0.8-0.5c-0.3-0.1-0.8-0.2-1.3-0.4 c-0.8-0.2-1.4-0.4-1.9-0.6c-0.5-0.2-0.9-0.5-1.3-0.9c-0.4-0.4-0.5-1-0.5-1.6c0-0.6,0.2-1.1,0.5-1.6c0.3-0.5,0.8-0.9,1.4-1.1 c0.6-0.3,1.4-0.4,2.3-0.4c0.6,0,1.3,0.1,1.9,0.2s1.2,0.4,1.6,0.7l-0.6,1.5c-0.5-0.3-0.9-0.5-1.4-0.6c-0.5-0.1-1-0.2-1.5-0.2 c-0.8,0-1.3,0.1-1.7,0.4c-0.4,0.3-0.6,0.6-0.6,1c0,0.3,0.1,0.5,0.3,0.7c0.2,0.2,0.5,0.3,0.8,0.5s0.8,0.2,1.3,0.4 c0.8,0.2,1.4,0.4,1.9,0.6s0.9,0.5,1.3,0.9c0.4,0.4,0.5,0.9,0.5,1.6c0,0.6-0.2,1.1-0.5,1.6c-0.3,0.5-0.8,0.8-1.4,1.1 c-0.6,0.3-1.4,0.4-2.3,0.4C310.2,83.7,309.5,83.5,308.7,83.3z"></path> </g> <g> <path class="st9" d="M414.1,78.1h1.8v4.2c-0.5,0.4-1.2,0.8-1.9,1c-0.7,0.2-1.5,0.3-2.2,0.3c-1.1,0-2-0.2-2.9-0.7 c-0.9-0.5-1.5-1.1-2-1.9c-0.5-0.8-0.7-1.7-0.7-2.8s0.2-2,0.7-2.8c0.5-0.8,1.2-1.5,2-1.9c0.9-0.5,1.8-0.7,2.9-0.7 c0.9,0,1.7,0.1,2.4,0.4s1.3,0.7,1.8,1.3l-1.2,1.2c-0.8-0.8-1.8-1.2-2.9-1.2c-0.7,0-1.4,0.2-2,0.5c-0.6,0.3-1,0.7-1.4,1.3 c-0.3,0.6-0.5,1.2-0.5,1.9c0,0.7,0.2,1.3,0.5,1.9c0.3,0.6,0.8,1,1.4,1.3c0.6,0.3,1.2,0.5,2,0.5c0.8,0,1.5-0.2,2.2-0.5V78.1z"></path> <path class="st9" d="M426.4,81.9v1.6h-7.9V73h7.7v1.6h-5.7v2.7h5.1V79h-5.1v2.9H426.4z"></path> <path class="st9" d="M437.9,73v10.5h-1.6l-5.8-7.1v7.1h-1.9V73h1.6l5.8,7.1V73H437.9z"></path> <path class="st9" d="M451.5,83.5l-2.9-4l-2.8,4h-2.2l3.9-5.4l-3.7-5.1h2.2l2.7,3.7l2.7-3.7h2.1l-3.7,5.1l3.9,5.4H451.5z"></path> </g> <g> <path class="st9" d="M542,79c0.3,0.4,0.5,1,0.5,1.7c0,0.9-0.4,1.6-1,2.1c-0.7,0.5-1.7,0.7-3.1,0.7h-5.2V73h4.9 c1.2,0,2.2,0.2,2.9,0.7s1,1.2,1,2c0,0.5-0.1,1-0.4,1.4c-0.2,0.4-0.6,0.7-1,0.9C541.2,78.2,541.7,78.6,542,79z M535.2,74.5v2.9h2.8 c0.7,0,1.2-0.1,1.6-0.4s0.5-0.6,0.5-1.1c0-0.5-0.2-0.8-0.5-1.1s-0.9-0.4-1.6-0.4H535.2z M540.6,80.5c0-1-0.8-1.5-2.3-1.5h-3.1v3 h3.1C539.8,82,540.6,81.5,540.6,80.5z"></path> <path class="st9" d="M551.4,81.1h-5.2l-1,2.4h-2l4.7-10.5h1.9l4.7,10.5h-2L551.4,81.1z M550.8,79.5l-2-4.6l-2,4.6H550.8z"></path> <path class="st9" d="M564.7,79c0.3,0.4,0.5,1,0.5,1.7c0,0.9-0.4,1.6-1,2.1c-0.7,0.5-1.7,0.7-3.1,0.7h-5.2V73h4.9 c1.2,0,2.2,0.2,2.9,0.7s1,1.2,1,2c0,0.5-0.1,1-0.4,1.4c-0.2,0.4-0.6,0.7-1,0.9C563.9,78.2,564.3,78.6,564.7,79z M557.8,74.5v2.9 h2.8c0.7,0,1.2-0.1,1.6-0.4s0.5-0.6,0.5-1.1c0-0.5-0.2-0.8-0.5-1.1s-0.9-0.4-1.6-0.4H557.8z M563.2,80.5c0-1-0.8-1.5-2.3-1.5h-3.1 v3h3.1C562.5,82,563.2,81.5,563.2,80.5z"></path> <path class="st9" d="M571.6,79.8v3.7h-2v-3.7l-4.1-6.8h2.1l3.1,5.1l3.1-5.1h1.9L571.6,79.8z"></path> <path class="st9" d="M589.9,79c0.3,0.4,0.5,1,0.5,1.7c0,0.9-0.4,1.6-1,2.1c-0.7,0.5-1.7,0.7-3.1,0.7h-5.2V73h4.9 c1.2,0,2.2,0.2,2.9,0.7s1,1.2,1,2c0,0.5-0.1,1-0.4,1.4c-0.2,0.4-0.6,0.7-1,0.9C589.1,78.2,589.6,78.6,589.9,79z M583.1,74.5v2.9 h2.8c0.7,0,1.2-0.1,1.6-0.4s0.5-0.6,0.5-1.1c0-0.5-0.2-0.8-0.5-1.1s-0.9-0.4-1.6-0.4H583.1z M588.5,80.5c0-1-0.8-1.5-2.3-1.5h-3.1 v3h3.1C587.7,82,588.5,81.5,588.5,80.5z"></path> <path class="st9" d="M594.5,83c-0.9-0.5-1.5-1.1-2-1.9c-0.5-0.8-0.7-1.7-0.7-2.8s0.2-1.9,0.7-2.8c0.5-0.8,1.2-1.5,2-1.9 c0.9-0.5,1.8-0.7,2.9-0.7c1.1,0,2,0.2,2.9,0.7c0.9,0.5,1.5,1.1,2,1.9c0.5,0.8,0.7,1.7,0.7,2.8s-0.2,2-0.7,2.8 c-0.5,0.8-1.2,1.5-2,1.9c-0.9,0.5-1.8,0.7-2.9,0.7C596.4,83.7,595.4,83.4,594.5,83z M599.3,81.5c0.6-0.3,1-0.8,1.3-1.3 c0.3-0.6,0.5-1.2,0.5-1.9s-0.2-1.3-0.5-1.9c-0.3-0.6-0.8-1-1.3-1.3c-0.6-0.3-1.2-0.5-1.9-0.5c-0.7,0-1.3,0.2-1.9,0.5 c-0.6,0.3-1,0.8-1.3,1.3c-0.3,0.6-0.5,1.2-0.5,1.9s0.2,1.3,0.5,1.9c0.3,0.6,0.8,1,1.3,1.3c0.6,0.3,1.2,0.5,1.9,0.5 C598.1,81.9,598.8,81.8,599.3,81.5z"></path> <path class="st9" d="M607.2,83c-0.9-0.5-1.5-1.1-2-1.9c-0.5-0.8-0.7-1.7-0.7-2.8s0.2-1.9,0.7-2.8c0.5-0.8,1.2-1.5,2-1.9 c0.9-0.5,1.8-0.7,2.9-0.7c1.1,0,2,0.2,2.9,0.7c0.9,0.5,1.5,1.1,2,1.9c0.5,0.8,0.7,1.7,0.7,2.8s-0.2,2-0.7,2.8 c-0.5,0.8-1.2,1.5-2,1.9c-0.9,0.5-1.8,0.7-2.9,0.7C609,83.7,608,83.4,607.2,83z M611.9,81.5c0.6-0.3,1-0.8,1.3-1.3 c0.3-0.6,0.5-1.2,0.5-1.9s-0.2-1.3-0.5-1.9c-0.3-0.6-0.8-1-1.3-1.3c-0.6-0.3-1.2-0.5-1.9-0.5c-0.7,0-1.3,0.2-1.9,0.5 c-0.6,0.3-1,0.8-1.3,1.3c-0.3,0.6-0.5,1.2-0.5,1.9s0.2,1.3,0.5,1.9c0.3,0.6,0.8,1,1.3,1.3c0.6,0.3,1.2,0.5,1.9,0.5 C610.8,81.9,611.4,81.8,611.9,81.5z"></path> <path class="st9" d="M627.4,83.5l0-7l-3.5,5.8h-0.9l-3.5-5.7v6.9h-1.9V73h1.6l4.2,7l4.1-7h1.6l0,10.5H627.4z"></path> <path class="st9" d="M640,81.9v1.6h-7.9V73h7.7v1.6h-5.7v2.7h5.1V79h-5.1v2.9H640z"></path> <path class="st9" d="M649,83.5l-2.1-3.1c-0.1,0-0.2,0-0.4,0h-2.4v3.1h-2V73h4.3c0.9,0,1.7,0.2,2.4,0.5s1.2,0.7,1.6,1.3 c0.4,0.6,0.5,1.2,0.5,2c0,0.8-0.2,1.5-0.6,2c-0.4,0.6-0.9,1-1.7,1.3l2.4,3.5H649z M648.3,75.2c-0.4-0.4-1.1-0.5-1.9-0.5h-2.3v4.2 h2.3c0.9,0,1.5-0.2,1.9-0.5c0.4-0.4,0.7-0.9,0.7-1.6S648.8,75.6,648.3,75.2z"></path> <path class="st9" d="M654,83.3c-0.8-0.2-1.4-0.5-1.8-0.9l0.7-1.5c0.4,0.3,1,0.6,1.6,0.8c0.6,0.2,1.3,0.3,1.9,0.3 c0.8,0,1.4-0.1,1.7-0.4s0.6-0.6,0.6-1c0-0.3-0.1-0.5-0.3-0.7c-0.2-0.2-0.5-0.3-0.8-0.5c-0.3-0.1-0.8-0.2-1.3-0.4 c-0.8-0.2-1.4-0.4-1.9-0.6c-0.5-0.2-0.9-0.5-1.3-0.9c-0.4-0.4-0.5-1-0.5-1.6c0-0.6,0.2-1.1,0.5-1.6c0.3-0.5,0.8-0.9,1.4-1.1 c0.6-0.3,1.4-0.4,2.3-0.4c0.6,0,1.3,0.1,1.9,0.2s1.2,0.4,1.6,0.7l-0.6,1.5c-0.5-0.3-0.9-0.5-1.4-0.6c-0.5-0.1-1-0.2-1.5-0.2 c-0.8,0-1.3,0.1-1.7,0.4c-0.4,0.3-0.6,0.6-0.6,1c0,0.3,0.1,0.5,0.3,0.7c0.2,0.2,0.5,0.3,0.8,0.5s0.8,0.2,1.3,0.4 c0.8,0.2,1.4,0.4,1.9,0.6s0.9,0.5,1.3,0.9c0.4,0.4,0.5,0.9,0.5,1.6c0,0.6-0.2,1.1-0.5,1.6c-0.3,0.5-0.8,0.8-1.4,1.1 c-0.6,0.3-1.4,0.4-2.3,0.4C655.6,83.7,654.8,83.5,654,83.3z"></path> </g> <g> <path class="st9" d="M720.5,83.3c-0.8-0.2-1.4-0.5-1.8-0.9l0.7-1.5c0.4,0.3,1,0.6,1.6,0.8c0.6,0.2,1.3,0.3,1.9,0.3 c0.8,0,1.4-0.1,1.7-0.4s0.6-0.6,0.6-1c0-0.3-0.1-0.5-0.3-0.7c-0.2-0.2-0.5-0.3-0.8-0.5c-0.3-0.1-0.8-0.2-1.3-0.4 c-0.8-0.2-1.4-0.4-1.9-0.6c-0.5-0.2-0.9-0.5-1.3-0.9c-0.4-0.4-0.5-1-0.5-1.6c0-0.6,0.2-1.1,0.5-1.6c0.3-0.5,0.8-0.9,1.4-1.1 c0.6-0.3,1.4-0.4,2.3-0.4c0.6,0,1.3,0.1,1.9,0.2s1.2,0.4,1.6,0.7l-0.6,1.5c-0.5-0.3-0.9-0.5-1.4-0.6c-0.5-0.1-1-0.2-1.5-0.2 c-0.8,0-1.3,0.1-1.7,0.4c-0.4,0.3-0.6,0.6-0.6,1c0,0.3,0.1,0.5,0.3,0.7c0.2,0.2,0.5,0.3,0.8,0.5s0.8,0.2,1.3,0.4 c0.8,0.2,1.4,0.4,1.9,0.6s0.9,0.5,1.3,0.9c0.4,0.4,0.5,0.9,0.5,1.6c0,0.6-0.2,1.1-0.5,1.6c-0.3,0.5-0.8,0.8-1.4,1.1 c-0.6,0.3-1.4,0.4-2.3,0.4C722,83.7,721.2,83.5,720.5,83.3z"></path> <path class="st9" d="M729,73h2v10.5h-2V73z"></path> <path class="st9" d="M733.8,73h2v8.8h5.5v1.7h-7.4V73z"></path> <path class="st9" d="M750.6,81.9v1.6h-7.9V73h7.7v1.6h-5.7v2.7h5.1V79h-5.1v2.9H750.6z"></path> <path class="st9" d="M762.2,73v10.5h-1.6l-5.8-7.1v7.1h-1.9V73h1.6l5.8,7.1V73H762.2z"></path> <path class="st9" d="M767.1,74.7h-3.5V73h8.9v1.7h-3.5v8.8h-2V74.7z"></path> <path class="st9" d="M785.3,78.1h1.8v4.2c-0.5,0.4-1.2,0.8-1.9,1c-0.7,0.2-1.5,0.3-2.2,0.3c-1.1,0-2-0.2-2.9-0.7 c-0.9-0.5-1.5-1.1-2-1.9c-0.5-0.8-0.7-1.7-0.7-2.8s0.2-2,0.7-2.8c0.5-0.8,1.2-1.5,2-1.9c0.9-0.5,1.8-0.7,2.9-0.7 c0.9,0,1.7,0.1,2.4,0.4s1.3,0.7,1.8,1.3l-1.2,1.2c-0.8-0.8-1.8-1.2-2.9-1.2c-0.7,0-1.4,0.2-2,0.5c-0.6,0.3-1,0.7-1.4,1.3 c-0.3,0.6-0.5,1.2-0.5,1.9c0,0.7,0.2,1.3,0.5,1.9c0.3,0.6,0.8,1,1.4,1.3c0.6,0.3,1.2,0.5,2,0.5c0.8,0,1.5-0.2,2.2-0.5V78.1z"></path> <path class="st9" d="M797.6,81.9v1.6h-7.9V73h7.7v1.6h-5.7v2.7h5.1V79h-5.1v2.9H797.6z"></path> <path class="st9" d="M809.1,73v10.5h-1.6l-5.8-7.1v7.1h-1.9V73h1.6l5.8,7.1V73H809.1z"></path> </g> <g> <g> <path class="st10" d="M87.4,492.9v13.3h-3.1v-10.8h-2.7v-2.5H87.4z"></path> <path class="st10" d="M100.1,492.9v2l-4.9,11.3h-3.3l4.8-10.8h-4.4v2.2h-2.7v-4.7H100.1z"></path> <path class="st10" d="M102.3,499.1c-0.6-0.7-0.9-1.6-0.9-2.7c0-1.1,0.3-2,0.9-2.7s1.4-1,2.4-1c1,0,1.8,0.3,2.4,1 c0.6,0.7,0.9,1.6,0.9,2.7c0,1.1-0.3,2-0.9,2.7c-0.6,0.7-1.4,1-2.4,1C103.7,500.1,102.9,499.8,102.3,499.1z M105.7,498 c0.2-0.4,0.4-0.9,0.4-1.6c0-0.7-0.1-1.2-0.4-1.6c-0.2-0.4-0.6-0.5-1-0.5c-0.4,0-0.8,0.2-1,0.5c-0.3,0.4-0.4,0.9-0.4,1.6 c0,0.7,0.1,1.2,0.4,1.6c0.3,0.4,0.6,0.5,1,0.5C105.1,498.5,105.5,498.3,105.7,498z M112.6,492.9h2.3l-9.1,13.3h-2.3L112.6,492.9z M112,505.9c-0.5-0.3-0.9-0.7-1.2-1.3c-0.3-0.6-0.4-1.2-0.4-1.9s0.1-1.4,0.4-1.9c0.3-0.6,0.7-1,1.2-1.3c0.5-0.3,1.1-0.4,1.7-0.4 c1,0,1.8,0.3,2.4,1s0.9,1.6,0.9,2.7s-0.3,2-0.9,2.7s-1.4,1-2.4,1C113.1,506.4,112.5,506.2,112,505.9z M114.7,504.3 c0.2-0.4,0.4-0.9,0.4-1.6c0-0.7-0.1-1.2-0.4-1.6c-0.2-0.4-0.6-0.5-1-0.5c-0.4,0-0.8,0.2-1,0.5c-0.3,0.4-0.4,0.9-0.4,1.6 s0.1,1.2,0.4,1.6c0.3,0.4,0.6,0.5,1,0.5C114.1,504.8,114.5,504.6,114.7,504.3z"></path> </g> </g> <g> <g> <path class="st10" d="M87.8,417v13.3h-3.1v-10.8h-2.7V417H87.8z"></path> <path class="st10" d="M98.8,423.1c0.9,0.7,1.3,1.7,1.3,3c0,0.8-0.2,1.5-0.6,2.2s-1,1.2-1.9,1.6c-0.8,0.4-1.9,0.6-3.1,0.6 c-0.9,0-1.9-0.1-2.8-0.4c-0.9-0.2-1.7-0.6-2.3-1.1l1.2-2.4c0.5,0.4,1.1,0.7,1.7,0.9c0.7,0.2,1.3,0.3,2,0.3c0.8,0,1.4-0.2,1.8-0.5 c0.4-0.3,0.7-0.7,0.7-1.3c0-0.6-0.2-1-0.7-1.3c-0.5-0.3-1.3-0.4-2.4-0.4h-3.4l0.7-7.5h8.1v2.5h-5.5l-0.2,2.5h1.1 C96.5,422,97.9,422.4,98.8,423.1z"></path> <path class="st10" d="M101.9,423.2c-0.6-0.7-0.9-1.6-0.9-2.7c0-1.1,0.3-2,0.9-2.7s1.4-1,2.4-1c1,0,1.8,0.3,2.4,1 c0.6,0.7,0.9,1.6,0.9,2.7c0,1.1-0.3,2-0.9,2.7c-0.6,0.7-1.4,1-2.4,1C103.3,424.2,102.5,423.9,101.9,423.2z M105.3,422.1 c0.2-0.4,0.4-0.9,0.4-1.6c0-0.7-0.1-1.2-0.4-1.6c-0.2-0.4-0.6-0.5-1-0.5c-0.4,0-0.8,0.2-1,0.5c-0.3,0.4-0.4,0.9-0.4,1.6 c0,0.7,0.1,1.2,0.4,1.6c0.3,0.4,0.6,0.5,1,0.5C104.7,422.6,105.1,422.5,105.3,422.1z M112.2,417h2.3l-9.1,13.3h-2.3L112.2,417z M111.6,430c-0.5-0.3-0.9-0.7-1.2-1.3c-0.3-0.6-0.4-1.2-0.4-1.9s0.1-1.4,0.4-1.9c0.3-0.6,0.7-1,1.2-1.3c0.5-0.3,1.1-0.4,1.7-0.4 c1,0,1.8,0.3,2.4,1s0.9,1.6,0.9,2.7s-0.3,2-0.9,2.7s-1.4,1-2.4,1C112.7,430.5,112.1,430.3,111.6,430z M114.3,428.4 c0.2-0.4,0.4-0.9,0.4-1.6c0-0.7-0.1-1.2-0.4-1.6c-0.2-0.4-0.6-0.5-1-0.5c-0.4,0-0.8,0.2-1,0.5c-0.3,0.4-0.4,0.9-0.4,1.6 s0.1,1.2,0.4,1.6c0.3,0.4,0.6,0.5,1,0.5C113.8,428.9,114.1,428.7,114.3,428.4z"></path> </g> </g> <g> <g> <path class="st10" d="M94.8,376.1c0.7,0.3,1.2,0.8,1.7,1.5c0.4,0.6,0.6,1.4,0.6,2.2c0,0.9-0.2,1.7-0.7,2.3s-1,1.2-1.8,1.5 s-1.6,0.5-2.6,0.5c-1.9,0-3.3-0.6-4.4-1.7c-1.1-1.1-1.6-2.8-1.6-4.9c0-1.5,0.3-2.8,0.9-3.9c0.6-1.1,1.4-1.9,2.4-2.5 c1-0.6,2.2-0.8,3.5-0.8c0.7,0,1.4,0.1,2,0.2c0.7,0.2,1.2,0.4,1.7,0.7l-1.1,2.3c-0.7-0.4-1.5-0.7-2.5-0.7c-1.1,0-2,0.3-2.7,1 c-0.7,0.7-1,1.6-1.1,2.9c0.8-0.8,1.9-1.2,3.3-1.2C93.3,375.6,94.1,375.7,94.8,376.1z M93.5,381.3c0.4-0.4,0.6-0.8,0.6-1.4 s-0.2-1.1-0.6-1.5s-1-0.5-1.6-0.5c-0.7,0-1.2,0.2-1.7,0.6s-0.6,0.9-0.6,1.4s0.2,1.1,0.6,1.4c0.4,0.4,1,0.6,1.7,0.6 C92.5,381.8,93.1,381.7,93.5,381.3z"></path> <path class="st10" d="M98.5,376.8c-0.6-0.7-0.9-1.6-0.9-2.7c0-1.1,0.3-2,0.9-2.7s1.4-1,2.4-1c1,0,1.8,0.3,2.4,1 c0.6,0.7,0.9,1.6,0.9,2.7c0,1.1-0.3,2-0.9,2.7c-0.6,0.7-1.4,1-2.4,1C99.9,377.8,99.1,377.5,98.5,376.8z M101.9,375.7 c0.2-0.4,0.4-0.9,0.4-1.6c0-0.7-0.1-1.2-0.4-1.6c-0.2-0.4-0.6-0.5-1-0.5c-0.4,0-0.8,0.2-1,0.5c-0.3,0.4-0.4,0.9-0.4,1.6 s0.1,1.2,0.4,1.6c0.3,0.4,0.6,0.5,1,0.5C101.3,376.2,101.7,376.1,101.9,375.7z M108.8,370.6h2.3l-9.1,13.3h-2.3L108.8,370.6z M108.2,383.6c-0.5-0.3-0.9-0.7-1.2-1.3c-0.3-0.6-0.4-1.2-0.4-1.9c0-0.7,0.1-1.4,0.4-1.9c0.3-0.6,0.7-1,1.2-1.3 c0.5-0.3,1.1-0.4,1.7-0.4c1,0,1.8,0.3,2.4,1s0.9,1.6,0.9,2.7c0,1.1-0.3,2-0.9,2.7s-1.4,1-2.4,1 C109.3,384.1,108.7,383.9,108.2,383.6z M110.9,382c0.2-0.4,0.4-0.9,0.4-1.6s-0.1-1.2-0.4-1.6s-0.6-0.5-1-0.5c-0.4,0-0.8,0.2-1,0.5 c-0.3,0.4-0.4,0.9-0.4,1.6c0,0.7,0.1,1.2,0.4,1.6c0.3,0.4,0.6,0.5,1,0.5C110.3,382.5,110.7,382.3,110.9,382z"></path> </g> </g> <g> <g> <path class="st10" d="M94.1,281.3h-2.2v2.8h-3v-2.8h-7.2v-2.1l6.3-8.4h3.2l-5.8,8H89v-2.5h2.9v2.5h2.2V281.3z"></path> <path class="st10" d="M99.7,270.8v13.3h-3.1v-10.8h-2.7v-2.5H99.7z"></path> <path class="st10" d="M102.7,277c-0.6-0.7-0.9-1.6-0.9-2.7c0-1.1,0.3-2,0.9-2.7s1.4-1,2.4-1c1,0,1.8,0.3,2.4,1 c0.6,0.7,0.9,1.6,0.9,2.7c0,1.1-0.3,2-0.9,2.7c-0.6,0.7-1.4,1-2.4,1C104.1,278,103.3,277.7,102.7,277z M106.1,275.9 c0.2-0.4,0.4-0.9,0.4-1.6c0-0.7-0.1-1.2-0.4-1.6c-0.2-0.4-0.6-0.5-1-0.5c-0.4,0-0.8,0.2-1,0.5c-0.3,0.4-0.4,0.9-0.4,1.6 s0.1,1.2,0.4,1.6c0.3,0.4,0.6,0.5,1,0.5C105.5,276.5,105.8,276.3,106.1,275.9z M113,270.8h2.3l-9.1,13.3h-2.3L113,270.8z M112.4,283.8c-0.5-0.3-0.9-0.7-1.2-1.3c-0.3-0.6-0.4-1.2-0.4-1.9c0-0.7,0.1-1.4,0.4-1.9c0.3-0.6,0.7-1,1.2-1.3 c0.5-0.3,1.1-0.4,1.7-0.4c1,0,1.8,0.3,2.4,1s0.9,1.6,0.9,2.7c0,1.1-0.3,2-0.9,2.7s-1.4,1-2.4,1 C113.4,284.3,112.9,284.1,112.4,283.8z M115.1,282.2c0.2-0.4,0.4-0.9,0.4-1.6s-0.1-1.2-0.4-1.6s-0.6-0.5-1-0.5 c-0.4,0-0.8,0.2-1,0.5c-0.3,0.4-0.4,0.9-0.4,1.6c0,0.7,0.1,1.2,0.4,1.6c0.3,0.4,0.6,0.5,1,0.5 C114.5,282.7,114.8,282.5,115.1,282.2z"></path> </g> </g> <g> <g> <path class="st10" d="M86.9,154v13.3h-3.1v-10.8h-2.7V154H86.9z"></path> <path class="st10" d="M92,166.7c-0.9-0.5-1.5-1.3-2-2.4c-0.5-1-0.7-2.3-0.7-3.7c0-1.4,0.2-2.7,0.7-3.7c0.5-1,1.2-1.8,2-2.4 c0.9-0.5,1.8-0.8,2.9-0.8c1.1,0,2.1,0.3,2.9,0.8c0.9,0.5,1.5,1.3,2,2.4c0.5,1,0.7,2.3,0.7,3.7c0,1.4-0.2,2.7-0.7,3.7 c-0.5,1-1.2,1.8-2,2.4s-1.8,0.8-2.9,0.8C93.8,167.6,92.8,167.3,92,166.7z M96.8,163.9c0.5-0.7,0.7-1.8,0.7-3.2s-0.2-2.5-0.7-3.2 c-0.5-0.7-1.1-1-1.9-1c-0.8,0-1.4,0.3-1.9,1c-0.5,0.7-0.7,1.8-0.7,3.2s0.2,2.5,0.7,3.2c0.5,0.7,1.1,1,1.9,1 C95.7,165,96.4,164.6,96.8,163.9z"></path> <path class="st10" d="M102.8,160.2c-0.6-0.7-0.9-1.6-0.9-2.7c0-1.1,0.3-2,0.9-2.7s1.4-1,2.4-1c1,0,1.8,0.3,2.4,1 c0.6,0.7,0.9,1.6,0.9,2.7c0,1.1-0.3,2-0.9,2.7c-0.6,0.7-1.4,1-2.4,1C104.2,161.2,103.4,160.9,102.8,160.2z M106.2,159.1 c0.2-0.4,0.4-0.9,0.4-1.6c0-0.7-0.1-1.2-0.4-1.6c-0.2-0.4-0.6-0.5-1-0.5c-0.4,0-0.8,0.2-1,0.5c-0.3,0.4-0.4,0.9-0.4,1.6 s0.1,1.2,0.4,1.6c0.3,0.4,0.6,0.5,1,0.5C105.6,159.7,106,159.5,106.2,159.1z M113.1,154h2.3l-9.1,13.3H104L113.1,154z M112.5,167 c-0.5-0.3-0.9-0.7-1.2-1.3c-0.3-0.6-0.4-1.2-0.4-1.9c0-0.7,0.1-1.4,0.4-1.9c0.3-0.6,0.7-1,1.2-1.3c0.5-0.3,1.1-0.4,1.7-0.4 c1,0,1.8,0.3,2.4,1s0.9,1.6,0.9,2.7c0,1.1-0.3,2-0.9,2.7s-1.4,1-2.4,1C113.6,167.5,113,167.3,112.5,167z M115.2,165.4 c0.2-0.4,0.4-0.9,0.4-1.6s-0.1-1.2-0.4-1.6s-0.6-0.5-1-0.5c-0.4,0-0.8,0.2-1,0.5c-0.3,0.4-0.4,0.9-0.4,1.6c0,0.7,0.1,1.2,0.4,1.6 c0.3,0.4,0.6,0.5,1,0.5C114.6,165.9,115,165.7,115.2,165.4z"></path> </g> </g> <g> <g> <path class="st10" d="M94.8,124.1c0.7,0.3,1.2,0.8,1.7,1.5c0.4,0.6,0.6,1.4,0.6,2.2c0,0.9-0.2,1.7-0.7,2.3s-1,1.2-1.8,1.5 s-1.6,0.5-2.6,0.5c-1.9,0-3.3-0.6-4.4-1.7c-1.1-1.1-1.6-2.8-1.6-4.9c0-1.5,0.3-2.8,0.9-3.9c0.6-1.1,1.4-1.9,2.4-2.5 c1-0.6,2.2-0.8,3.5-0.8c0.7,0,1.4,0.1,2,0.2c0.7,0.2,1.2,0.4,1.7,0.7l-1.1,2.3c-0.7-0.4-1.5-0.7-2.5-0.7c-1.1,0-2,0.3-2.7,1 c-0.7,0.7-1,1.6-1.1,2.9c0.8-0.8,1.9-1.2,3.3-1.2C93.3,123.6,94.1,123.8,94.8,124.1z M93.5,129.4c0.4-0.4,0.6-0.8,0.6-1.4 c0-0.6-0.2-1.1-0.6-1.5s-1-0.5-1.6-0.5c-0.7,0-1.2,0.2-1.7,0.6s-0.6,0.9-0.6,1.4c0,0.6,0.2,1.1,0.6,1.4c0.4,0.4,1,0.6,1.7,0.6 C92.5,129.9,93.1,129.7,93.5,129.4z"></path> <path class="st10" d="M98.5,124.9c-0.6-0.7-0.9-1.6-0.9-2.7c0-1.1,0.3-2,0.9-2.7s1.4-1,2.4-1c1,0,1.8,0.3,2.4,1 c0.6,0.7,0.9,1.6,0.9,2.7c0,1.1-0.3,2-0.9,2.7c-0.6,0.7-1.4,1-2.4,1C99.9,125.8,99.1,125.5,98.5,124.9z M101.9,123.8 c0.2-0.4,0.4-0.9,0.4-1.6c0-0.7-0.1-1.2-0.4-1.6c-0.2-0.4-0.6-0.5-1-0.5c-0.4,0-0.8,0.2-1,0.5c-0.3,0.4-0.4,0.9-0.4,1.6 s0.1,1.2,0.4,1.6c0.3,0.4,0.6,0.5,1,0.5C101.3,124.3,101.7,124.1,101.9,123.8z M108.8,118.7h2.3L102,132h-2.3L108.8,118.7z M108.2,131.7c-0.5-0.3-0.9-0.7-1.2-1.3c-0.3-0.6-0.4-1.2-0.4-1.9c0-0.7,0.1-1.4,0.4-1.9c0.3-0.6,0.7-1,1.2-1.3 c0.5-0.3,1.1-0.4,1.7-0.4c1,0,1.8,0.3,2.4,1s0.9,1.6,0.9,2.7c0,1.1-0.3,2-0.9,2.7s-1.4,1-2.4,1C109.3,132.1,108.7,132,108.2,131.7 z M110.9,130c0.2-0.4,0.4-0.9,0.4-1.6c0-0.7-0.1-1.2-0.4-1.6s-0.6-0.5-1-0.5c-0.4,0-0.8,0.2-1,0.5c-0.3,0.4-0.4,0.9-0.4,1.6 c0,0.7,0.1,1.2,0.4,1.6c0.3,0.4,0.6,0.5,1,0.5C110.3,130.6,110.7,130.4,110.9,130z"></path> </g> </g> <g> <g> <path class="st10" d="M251.7,518.4v13.3h-3.1v-10.8h-2.7v-2.5H251.7z"></path> <path class="st10" d="M256.8,531.1c-0.9-0.5-1.5-1.3-2-2.4c-0.5-1-0.7-2.3-0.7-3.7c0-1.4,0.2-2.7,0.7-3.7c0.5-1,1.2-1.8,2-2.4 s1.8-0.8,2.9-0.8c1.1,0,2.1,0.3,2.9,0.8s1.5,1.3,2,2.4s0.7,2.3,0.7,3.7c0,1.4-0.2,2.7-0.7,3.7c-0.5,1-1.2,1.8-2,2.4 c-0.9,0.5-1.8,0.8-2.9,0.8C258.6,531.9,257.6,531.7,256.8,531.1z M261.6,528.3c0.5-0.7,0.7-1.8,0.7-3.2c0-1.5-0.2-2.5-0.7-3.2 c-0.5-0.7-1.1-1-1.9-1c-0.8,0-1.4,0.3-1.9,1c-0.5,0.7-0.7,1.8-0.7,3.2c0,1.5,0.2,2.5,0.7,3.2c0.5,0.7,1.1,1,1.9,1 C260.5,529.3,261.1,529,261.6,528.3z"></path> <path class="st10" d="M267.6,524.6c-0.6-0.7-0.9-1.6-0.9-2.7s0.3-2,0.9-2.7s1.4-1,2.4-1c1,0,1.8,0.3,2.4,1 c0.6,0.7,0.9,1.6,0.9,2.7s-0.3,2-0.9,2.7c-0.6,0.7-1.4,1-2.4,1C269,525.6,268.2,525.2,267.6,524.6z M271,523.5 c0.2-0.4,0.4-0.9,0.4-1.6s-0.1-1.2-0.4-1.6c-0.2-0.4-0.6-0.5-1-0.5c-0.4,0-0.8,0.2-1,0.5c-0.3,0.4-0.4,0.9-0.4,1.6 c0,0.7,0.1,1.2,0.4,1.6c0.3,0.4,0.6,0.5,1,0.5C270.4,524,270.7,523.8,271,523.5z M277.9,518.4h2.3l-9.1,13.3h-2.3L277.9,518.4z M277.3,531.4c-0.5-0.3-0.9-0.7-1.2-1.3c-0.3-0.6-0.4-1.2-0.4-1.9c0-0.7,0.1-1.4,0.4-1.9c0.3-0.6,0.7-1,1.2-1.3 c0.5-0.3,1.1-0.4,1.7-0.4c1,0,1.8,0.3,2.4,1s0.9,1.6,0.9,2.7c0,1.1-0.3,2-0.9,2.7s-1.4,1-2.4,1 C278.4,531.8,277.8,531.7,277.3,531.4z M280,529.8c0.2-0.4,0.4-0.9,0.4-1.6c0-0.7-0.1-1.2-0.4-1.6c-0.2-0.4-0.6-0.5-1-0.5 c-0.4,0-0.8,0.2-1,0.5c-0.3,0.4-0.4,0.9-0.4,1.6c0,0.7,0.1,1.2,0.4,1.6c0.3,0.4,0.6,0.5,1,0.5C279.4,530.3,279.8,530.1,280,529.8z "></path> </g> </g> <g> <g> <path class="st10" d="M261.2,485c0.3,0.5,0.5,1.1,0.5,1.8c0,0.8-0.2,1.5-0.7,2.2s-1.1,1.1-2,1.4c-0.8,0.3-1.8,0.5-2.9,0.5 s-2.1-0.2-2.9-0.5c-0.8-0.3-1.5-0.8-2-1.4c-0.5-0.6-0.7-1.3-0.7-2.2c0-0.7,0.2-1.3,0.5-1.8c0.3-0.5,0.8-1,1.5-1.3 c-0.5-0.3-0.9-0.7-1.1-1.1c-0.3-0.5-0.4-1-0.4-1.6c0-0.8,0.2-1.4,0.6-2c0.4-0.6,1-1,1.8-1.3c0.8-0.3,1.7-0.5,2.7-0.5 c1,0,1.9,0.2,2.7,0.5c0.8,0.3,1.4,0.8,1.8,1.3c0.4,0.6,0.6,1.2,0.6,2c0,0.6-0.1,1.1-0.4,1.6c-0.3,0.5-0.7,0.8-1.2,1.1 C260.3,484,260.8,484.5,261.2,485z M257.9,488.1c0.4-0.3,0.7-0.8,0.7-1.4c0-0.6-0.2-1-0.7-1.4c-0.5-0.3-1.1-0.5-1.8-0.5 c-0.8,0-1.4,0.2-1.8,0.5s-0.7,0.8-0.7,1.4c0,0.6,0.2,1.1,0.7,1.4s1,0.5,1.8,0.5C256.8,488.7,257.4,488.5,257.9,488.1z M254.6,479.9c-0.4,0.3-0.6,0.7-0.6,1.2c0,0.5,0.2,0.9,0.6,1.2c0.4,0.3,0.9,0.4,1.5,0.4c0.6,0,1.1-0.1,1.5-0.4 c0.4-0.3,0.6-0.7,0.6-1.2c0-0.5-0.2-0.9-0.6-1.2c-0.4-0.3-0.9-0.4-1.5-0.4C255.4,479.4,254.9,479.6,254.6,479.9z"></path> <path class="st10" d="M263.6,483.6c-0.6-0.7-0.9-1.6-0.9-2.7c0-1.1,0.3-2,0.9-2.7s1.4-1,2.4-1c1,0,1.8,0.3,2.4,1 c0.6,0.7,0.9,1.6,0.9,2.7c0,1.1-0.3,2-0.9,2.7c-0.6,0.7-1.4,1-2.4,1C265,484.6,264.2,484.2,263.6,483.6z M267,482.5 c0.2-0.4,0.4-0.9,0.4-1.6c0-0.7-0.1-1.2-0.4-1.6c-0.2-0.4-0.6-0.5-1-0.5c-0.4,0-0.8,0.2-1,0.5c-0.3,0.4-0.4,0.9-0.4,1.6 c0,0.7,0.1,1.2,0.4,1.6c0.3,0.4,0.6,0.5,1,0.5C266.4,483,266.8,482.8,267,482.5z M273.9,477.4h2.3l-9.1,13.3h-2.3L273.9,477.4z M273.3,490.4c-0.5-0.3-0.9-0.7-1.2-1.3c-0.3-0.6-0.4-1.2-0.4-1.9s0.1-1.4,0.4-1.9c0.3-0.6,0.7-1,1.2-1.3c0.5-0.3,1.1-0.4,1.7-0.4 c1,0,1.8,0.3,2.4,1s0.9,1.6,0.9,2.7s-0.3,2-0.9,2.7s-1.4,1-2.4,1C274.4,490.8,273.8,490.7,273.3,490.4z M276,488.7 c0.2-0.4,0.4-0.9,0.4-1.6c0-0.7-0.1-1.2-0.4-1.6c-0.2-0.4-0.6-0.5-1-0.5c-0.4,0-0.8,0.2-1,0.5c-0.3,0.4-0.4,0.9-0.4,1.6 s0.1,1.2,0.4,1.6c0.3,0.4,0.6,0.5,1,0.5C275.4,489.3,275.8,489.1,276,488.7z"></path> </g> </g> <g> <g> <path class="st10" d="M251.7,436.4v13.3h-3.1v-10.8h-2.7v-2.5H251.7z"></path> <path class="st10" d="M256.8,449.1c-0.9-0.5-1.5-1.3-2-2.4c-0.5-1-0.7-2.3-0.7-3.7s0.2-2.7,0.7-3.7c0.5-1,1.2-1.8,2-2.4 c0.9-0.5,1.8-0.8,2.9-0.8c1.1,0,2.1,0.3,2.9,0.8c0.9,0.5,1.5,1.3,2,2.4c0.5,1,0.7,2.3,0.7,3.7s-0.2,2.7-0.7,3.7s-1.2,1.8-2,2.4 c-0.9,0.5-1.8,0.8-2.9,0.8C258.6,449.9,257.6,449.7,256.8,449.1z M261.6,446.3c0.5-0.7,0.7-1.8,0.7-3.2c0-1.5-0.2-2.5-0.7-3.2 c-0.5-0.7-1.1-1-1.9-1c-0.8,0-1.4,0.3-1.9,1c-0.5,0.7-0.7,1.8-0.7,3.2c0,1.5,0.2,2.5,0.7,3.2c0.5,0.7,1.1,1,1.9,1 C260.5,447.3,261.1,447,261.6,446.3z"></path> <path class="st10" d="M267.6,442.6c-0.6-0.7-0.9-1.6-0.9-2.7c0-1.1,0.3-2,0.9-2.7s1.4-1,2.4-1c1,0,1.8,0.3,2.4,1 c0.6,0.7,0.9,1.6,0.9,2.7c0,1.1-0.3,2-0.9,2.7c-0.6,0.7-1.4,1-2.4,1C269,443.6,268.2,443.2,267.6,442.6z M271,441.5 c0.2-0.4,0.4-0.9,0.4-1.6c0-0.7-0.1-1.2-0.4-1.6c-0.2-0.4-0.6-0.5-1-0.5c-0.4,0-0.8,0.2-1,0.5c-0.3,0.4-0.4,0.9-0.4,1.6 c0,0.7,0.1,1.2,0.4,1.6c0.3,0.4,0.6,0.5,1,0.5C270.4,442,270.7,441.8,271,441.5z M277.9,436.4h2.3l-9.1,13.3h-2.3L277.9,436.4z M277.3,449.4c-0.5-0.3-0.9-0.7-1.2-1.3c-0.3-0.6-0.4-1.2-0.4-1.9s0.1-1.4,0.4-1.9c0.3-0.6,0.7-1,1.2-1.3c0.5-0.3,1.1-0.4,1.7-0.4 c1,0,1.8,0.3,2.4,1s0.9,1.6,0.9,2.7s-0.3,2-0.9,2.7s-1.4,1-2.4,1C278.4,449.8,277.8,449.7,277.3,449.4z M280,447.7 c0.2-0.4,0.4-0.9,0.4-1.6c0-0.7-0.1-1.2-0.4-1.6c-0.2-0.4-0.6-0.5-1-0.5c-0.4,0-0.8,0.2-1,0.5c-0.3,0.4-0.4,0.9-0.4,1.6 s0.1,1.2,0.4,1.6c0.3,0.4,0.6,0.5,1,0.5C279.4,448.3,279.8,448.1,280,447.7z"></path> </g> </g> <g> <g> <path class="st10" d="M256.1,317.8c0.9,0.7,1.3,1.7,1.3,3c0,0.8-0.2,1.5-0.6,2.2s-1,1.2-1.9,1.6c-0.8,0.4-1.9,0.6-3.1,0.6 c-0.9,0-1.9-0.1-2.8-0.4c-0.9-0.2-1.7-0.6-2.3-1.1l1.2-2.4c0.5,0.4,1.1,0.7,1.7,0.9c0.7,0.2,1.3,0.3,2,0.3c0.8,0,1.4-0.2,1.8-0.5 s0.7-0.7,0.7-1.3c0-0.6-0.2-1-0.7-1.3c-0.5-0.3-1.3-0.4-2.4-0.4h-3.4l0.7-7.5h8.1v2.5H251l-0.2,2.5h1.1 C253.8,316.7,255.2,317.1,256.1,317.8z"></path> <path class="st10" d="M263.8,311.7V325h-3.1v-10.8H258v-2.5H263.8z"></path> <path class="st10" d="M266.8,317.9c-0.6-0.7-0.9-1.6-0.9-2.7c0-1.1,0.3-2,0.9-2.7s1.4-1,2.4-1c1,0,1.8,0.3,2.4,1 c0.6,0.7,0.9,1.6,0.9,2.7c0,1.1-0.3,2-0.9,2.7c-0.6,0.7-1.4,1-2.4,1C268.2,318.9,267.4,318.5,266.8,317.9z M270.2,316.8 c0.2-0.4,0.4-0.9,0.4-1.6c0-0.7-0.1-1.2-0.4-1.6c-0.2-0.4-0.6-0.5-1-0.5c-0.4,0-0.8,0.2-1,0.5c-0.3,0.4-0.4,0.9-0.4,1.6 s0.1,1.2,0.4,1.6c0.3,0.4,0.6,0.5,1,0.5C269.6,317.3,270,317.1,270.2,316.8z M277.1,311.7h2.3l-9.1,13.3H268L277.1,311.7z M276.5,324.7c-0.5-0.3-0.9-0.7-1.2-1.3c-0.3-0.6-0.4-1.2-0.4-1.9c0-0.7,0.1-1.4,0.4-1.9c0.3-0.6,0.7-1,1.2-1.3 c0.5-0.3,1.1-0.4,1.7-0.4c1,0,1.8,0.3,2.4,1s0.9,1.6,0.9,2.7c0,1.1-0.3,2-0.9,2.7s-1.4,1-2.4,1C277.6,325.1,277,325,276.5,324.7z M279.2,323c0.2-0.4,0.4-0.9,0.4-1.6s-0.1-1.2-0.4-1.6s-0.6-0.5-1-0.5c-0.4,0-0.8,0.2-1,0.5c-0.3,0.4-0.4,0.9-0.4,1.6 c0,0.7,0.1,1.2,0.4,1.6c0.3,0.4,0.6,0.5,1,0.5C278.6,323.6,279,323.4,279.2,323z"></path> </g> </g> <g> <g> <path class="st10" d="M254.4,168.9v13.3h-3.1v-10.8h-2.7v-2.5H254.4z"></path> <path class="st10" d="M261.9,168.9v13.3h-3.1v-10.8h-2.7v-2.5H261.9z"></path> <path class="st10" d="M264.9,175c-0.6-0.7-0.9-1.6-0.9-2.7c0-1.1,0.3-2,0.9-2.7s1.4-1,2.4-1c1,0,1.8,0.3,2.4,1 c0.6,0.7,0.9,1.6,0.9,2.7c0,1.1-0.3,2-0.9,2.7c-0.6,0.7-1.4,1-2.4,1C266.3,176,265.5,175.7,264.9,175z M268.3,174 c0.2-0.4,0.4-0.9,0.4-1.6c0-0.7-0.1-1.2-0.4-1.6c-0.2-0.4-0.6-0.5-1-0.5c-0.4,0-0.8,0.2-1,0.5c-0.3,0.4-0.4,0.9-0.4,1.6 s0.1,1.2,0.4,1.6c0.3,0.4,0.6,0.5,1,0.5C267.7,174.5,268,174.3,268.3,174z M275.2,168.9h2.3l-9.1,13.3h-2.3L275.2,168.9z M274.6,181.9c-0.5-0.3-0.9-0.7-1.2-1.3c-0.3-0.6-0.4-1.2-0.4-1.9c0-0.7,0.1-1.4,0.4-1.9c0.3-0.6,0.7-1,1.2-1.3 c0.5-0.3,1.1-0.4,1.7-0.4c1,0,1.8,0.3,2.4,1s0.9,1.6,0.9,2.7c0,1.1-0.3,2-0.9,2.7s-1.4,1-2.4,1 C275.6,182.3,275.1,182.2,274.6,181.9z M277.3,180.2c0.2-0.4,0.4-0.9,0.4-1.6s-0.1-1.2-0.4-1.6s-0.6-0.5-1-0.5 c-0.4,0-0.8,0.2-1,0.5c-0.3,0.4-0.4,0.9-0.4,1.6c0,0.7,0.1,1.2,0.4,1.6c0.3,0.4,0.6,0.5,1,0.5C276.7,180.8,277,180.6,277.3,180.2z "></path> </g> </g> <g> <g> <path class="st10" d="M259.7,127.7c1.1,1.1,1.6,2.8,1.6,4.9c0,1.5-0.3,2.8-0.8,3.9c-0.6,1.1-1.4,1.9-2.4,2.5 c-1,0.6-2.2,0.8-3.6,0.8c-0.7,0-1.4-0.1-2-0.2c-0.6-0.2-1.2-0.4-1.7-0.7l1.1-2.3c0.6,0.4,1.5,0.7,2.5,0.7c1.1,0,2-0.3,2.7-1 c0.7-0.7,1-1.6,1.1-2.9c-0.8,0.8-1.9,1.2-3.3,1.2c-0.8,0-1.6-0.2-2.3-0.5c-0.7-0.3-1.2-0.8-1.7-1.5c-0.4-0.6-0.6-1.4-0.6-2.2 c0-0.9,0.2-1.7,0.7-2.3c0.4-0.7,1-1.2,1.8-1.5c0.8-0.4,1.6-0.5,2.6-0.5C257.2,126,258.7,126.6,259.7,127.7z M257.2,131.7 c0.4-0.4,0.6-0.9,0.6-1.4s-0.2-1.1-0.6-1.4c-0.4-0.4-1-0.6-1.7-0.6c-0.7,0-1.2,0.2-1.6,0.5c-0.4,0.4-0.6,0.8-0.6,1.4 s0.2,1.1,0.6,1.5c0.4,0.4,1,0.5,1.6,0.5C256.3,132.3,256.8,132.1,257.2,131.7z"></path> <path class="st10" d="M263.5,132.4c-0.6-0.7-0.9-1.6-0.9-2.7c0-1.1,0.3-2,0.9-2.7s1.4-1,2.4-1c1,0,1.8,0.3,2.4,1 c0.6,0.7,0.9,1.6,0.9,2.7c0,1.1-0.3,2-0.9,2.7c-0.6,0.7-1.4,1-2.4,1C264.9,133.4,264.1,133.1,263.5,132.4z M266.9,131.4 c0.2-0.4,0.4-0.9,0.4-1.6c0-0.7-0.1-1.2-0.4-1.6c-0.2-0.4-0.6-0.5-1-0.5c-0.4,0-0.8,0.2-1,0.5c-0.3,0.4-0.4,0.9-0.4,1.6 s0.1,1.2,0.4,1.6c0.3,0.4,0.6,0.5,1,0.5C266.3,131.9,266.6,131.7,266.9,131.4z M273.8,126.3h2.3l-9.1,13.3h-2.3L273.8,126.3z M273.2,139.3c-0.5-0.3-0.9-0.7-1.2-1.3c-0.3-0.6-0.4-1.2-0.4-1.9c0-0.7,0.1-1.4,0.4-1.9c0.3-0.6,0.7-1,1.2-1.3 c0.5-0.3,1.1-0.4,1.7-0.4c1,0,1.8,0.3,2.4,1s0.9,1.6,0.9,2.7c0,1.1-0.3,2-0.9,2.7s-1.4,1-2.4,1 C274.2,139.7,273.7,139.6,273.2,139.3z M275.9,137.6c0.2-0.4,0.4-0.9,0.4-1.6s-0.1-1.2-0.4-1.6s-0.6-0.5-1-0.5 c-0.4,0-0.8,0.2-1,0.5c-0.3,0.4-0.4,0.9-0.4,1.6c0,0.7,0.1,1.2,0.4,1.6c0.3,0.4,0.6,0.5,1,0.5C275.3,138.2,275.7,138,275.9,137.6z "></path> </g> </g> <g> <g> <path class="st10" d="M426.5,519.9c1.1,1.1,1.6,2.8,1.6,4.9c0,1.5-0.3,2.8-0.8,3.9c-0.6,1.1-1.4,1.9-2.4,2.5 c-1,0.6-2.2,0.8-3.6,0.8c-0.7,0-1.4-0.1-2-0.2c-0.6-0.2-1.2-0.4-1.7-0.7l1.1-2.3c0.6,0.4,1.5,0.7,2.5,0.7c1.1,0,2-0.3,2.7-1 c0.7-0.7,1-1.6,1.1-2.9c-0.8,0.8-1.9,1.2-3.3,1.2c-0.8,0-1.6-0.2-2.3-0.5c-0.7-0.3-1.2-0.8-1.7-1.5c-0.4-0.6-0.6-1.4-0.6-2.2 c0-0.9,0.2-1.7,0.7-2.3c0.4-0.7,1-1.2,1.8-1.5c0.8-0.4,1.6-0.5,2.6-0.5C424,518.2,425.4,518.7,426.5,519.9z M424,523.9 c0.4-0.4,0.6-0.9,0.6-1.4c0-0.6-0.2-1.1-0.6-1.4c-0.4-0.4-1-0.6-1.7-0.6c-0.7,0-1.2,0.2-1.6,0.5c-0.4,0.4-0.6,0.8-0.6,1.4 c0,0.6,0.2,1.1,0.6,1.5c0.4,0.4,1,0.5,1.6,0.5C423,524.4,423.6,524.3,424,523.9z"></path> <path class="st10" d="M430.2,524.6c-0.6-0.7-0.9-1.6-0.9-2.7s0.3-2,0.9-2.7s1.4-1,2.4-1c1,0,1.8,0.3,2.4,1 c0.6,0.7,0.9,1.6,0.9,2.7s-0.3,2-0.9,2.7c-0.6,0.7-1.4,1-2.4,1C431.7,525.6,430.9,525.2,430.2,524.6z M433.6,523.5 c0.2-0.4,0.4-0.9,0.4-1.6s-0.1-1.2-0.4-1.6c-0.2-0.4-0.6-0.5-1-0.5c-0.4,0-0.8,0.2-1,0.5c-0.3,0.4-0.4,0.9-0.4,1.6 c0,0.7,0.1,1.2,0.4,1.6c0.3,0.4,0.6,0.5,1,0.5C433.1,524,433.4,523.8,433.6,523.5z M440.6,518.4h2.3l-9.1,13.3h-2.3L440.6,518.4z M440,531.4c-0.5-0.3-0.9-0.7-1.2-1.3c-0.3-0.6-0.4-1.2-0.4-1.9c0-0.7,0.1-1.4,0.4-1.9c0.3-0.6,0.7-1,1.2-1.3 c0.5-0.3,1.1-0.4,1.7-0.4c1,0,1.8,0.3,2.4,1s0.9,1.6,0.9,2.7c0,1.1-0.3,2-0.9,2.7s-1.4,1-2.4,1C441,531.8,440.5,531.7,440,531.4z M442.7,529.8c0.2-0.4,0.4-0.9,0.4-1.6c0-0.7-0.1-1.2-0.4-1.6c-0.2-0.4-0.6-0.5-1-0.5c-0.4,0-0.8,0.2-1,0.5 c-0.3,0.4-0.4,0.9-0.4,1.6c0,0.7,0.1,1.2,0.4,1.6c0.3,0.4,0.6,0.5,1,0.5C442.1,530.3,442.4,530.1,442.7,529.8z"></path> </g> </g> <g> <g> <path class="st10" d="M427.9,488c0.3,0.5,0.5,1.1,0.5,1.8c0,0.8-0.2,1.5-0.7,2.2c-0.5,0.6-1.1,1.1-2,1.4c-0.8,0.3-1.8,0.5-2.9,0.5 s-2.1-0.2-2.9-0.5c-0.8-0.3-1.5-0.8-2-1.4c-0.5-0.6-0.7-1.3-0.7-2.2c0-0.7,0.2-1.3,0.5-1.8s0.8-1,1.5-1.3 c-0.5-0.3-0.9-0.7-1.1-1.1s-0.4-1-0.4-1.6c0-0.8,0.2-1.4,0.6-2s1-1,1.8-1.3s1.7-0.5,2.7-0.5c1,0,1.9,0.2,2.7,0.5 c0.8,0.3,1.4,0.8,1.8,1.3s0.6,1.2,0.6,2c0,0.6-0.1,1.1-0.4,1.6s-0.7,0.8-1.2,1.1C427.1,487,427.6,487.5,427.9,488z M424.7,491.1 c0.4-0.3,0.7-0.8,0.7-1.4s-0.2-1-0.7-1.4c-0.5-0.3-1.1-0.5-1.8-0.5c-0.8,0-1.4,0.2-1.8,0.5c-0.4,0.3-0.7,0.8-0.7,1.4 c0,0.6,0.2,1.1,0.7,1.4c0.4,0.3,1,0.5,1.8,0.5C423.6,491.7,424.2,491.5,424.7,491.1z M421.3,482.9c-0.4,0.3-0.6,0.7-0.6,1.2 c0,0.5,0.2,0.9,0.6,1.2c0.4,0.3,0.9,0.4,1.5,0.4c0.6,0,1.1-0.1,1.5-0.4c0.4-0.3,0.6-0.7,0.6-1.2c0-0.5-0.2-0.9-0.6-1.2 c-0.4-0.3-0.9-0.4-1.5-0.4C422.2,482.4,421.7,482.6,421.3,482.9z"></path> <path class="st10" d="M430.4,486.6c-0.6-0.7-0.9-1.6-0.9-2.7s0.3-2,0.9-2.7s1.4-1,2.4-1c1,0,1.8,0.3,2.4,1 c0.6,0.7,0.9,1.6,0.9,2.7s-0.3,2-0.9,2.7c-0.6,0.7-1.4,1-2.4,1C431.8,487.6,431,487.2,430.4,486.6z M433.8,485.5 c0.2-0.4,0.4-0.9,0.4-1.6s-0.1-1.2-0.4-1.6c-0.2-0.4-0.6-0.5-1-0.5c-0.4,0-0.8,0.2-1,0.5c-0.3,0.4-0.4,0.9-0.4,1.6 c0,0.7,0.1,1.2,0.4,1.6c0.3,0.4,0.6,0.5,1,0.5C433.2,486,433.5,485.8,433.8,485.5z M440.7,480.4h2.3l-9.1,13.3h-2.3L440.7,480.4z M440.1,493.4c-0.5-0.3-0.9-0.7-1.2-1.3c-0.3-0.6-0.4-1.2-0.4-1.9c0-0.7,0.1-1.4,0.4-1.9c0.3-0.6,0.7-1,1.2-1.3 c0.5-0.3,1.1-0.4,1.7-0.4c1,0,1.8,0.3,2.4,1s0.9,1.6,0.9,2.7c0,1.1-0.3,2-0.9,2.7s-1.4,1-2.4,1 C441.1,493.9,440.6,493.7,440.1,493.4z M442.8,491.8c0.2-0.4,0.4-0.9,0.4-1.6c0-0.7-0.1-1.2-0.4-1.6c-0.2-0.4-0.6-0.5-1-0.5 c-0.4,0-0.8,0.2-1,0.5c-0.3,0.4-0.4,0.9-0.4,1.6c0,0.7,0.1,1.2,0.4,1.6c0.3,0.4,0.6,0.5,1,0.5 C442.2,492.3,442.5,492.1,442.8,491.8z"></path> </g> </g> <g> <g> <path class="st10" d="M421.2,436.4v13.3h-3.1v-10.8h-2.7v-2.5H421.2z"></path> <path class="st10" d="M428.6,436.4v13.3h-3.1v-10.8h-2.7v-2.5H428.6z"></path> <path class="st10" d="M431.6,442.6c-0.6-0.7-0.9-1.6-0.9-2.7c0-1.1,0.3-2,0.9-2.7s1.4-1,2.4-1c1,0,1.8,0.3,2.4,1 c0.6,0.7,0.9,1.6,0.9,2.7c0,1.1-0.3,2-0.9,2.7c-0.6,0.7-1.4,1-2.4,1C433.1,443.6,432.3,443.2,431.6,442.6z M435,441.5 c0.2-0.4,0.4-0.9,0.4-1.6c0-0.7-0.1-1.2-0.4-1.6c-0.2-0.4-0.6-0.5-1-0.5c-0.4,0-0.8,0.2-1,0.5c-0.3,0.4-0.4,0.9-0.4,1.6 c0,0.7,0.1,1.2,0.4,1.6c0.3,0.4,0.6,0.5,1,0.5C434.5,442,434.8,441.8,435,441.5z M442,436.4h2.3l-9.1,13.3h-2.3L442,436.4z M441.4,449.4c-0.5-0.3-0.9-0.7-1.2-1.3c-0.3-0.6-0.4-1.2-0.4-1.9s0.1-1.4,0.4-1.9c0.3-0.6,0.7-1,1.2-1.3c0.5-0.3,1.1-0.4,1.7-0.4 c1,0,1.8,0.3,2.4,1s0.9,1.6,0.9,2.7s-0.3,2-0.9,2.7s-1.4,1-2.4,1C442.4,449.8,441.9,449.7,441.4,449.4z M444.1,447.7 c0.2-0.4,0.4-0.9,0.4-1.6c0-0.7-0.1-1.2-0.4-1.6c-0.2-0.4-0.6-0.5-1-0.5c-0.4,0-0.8,0.2-1,0.5c-0.3,0.4-0.4,0.9-0.4,1.6 s0.1,1.2,0.4,1.6c0.3,0.4,0.6,0.5,1,0.5C443.5,448.3,443.8,448.1,444.1,447.7z"></path> </g> </g> <g> <g> <path class="st10" d="M423.1,322.2H421v2.8h-3v-2.8h-7.2v-2.1l6.3-8.4h3.2l-5.8,8h3.6v-2.5h2.9v2.5h2.2V322.2z"></path> <path class="st10" d="M433,313.2c1.1,1.1,1.6,2.8,1.6,4.9c0,1.5-0.3,2.8-0.8,3.9c-0.6,1.1-1.4,1.9-2.4,2.5c-1,0.6-2.2,0.8-3.6,0.8 c-0.7,0-1.4-0.1-2-0.2c-0.6-0.2-1.2-0.4-1.7-0.7l1.1-2.3c0.6,0.4,1.5,0.7,2.5,0.7c1.1,0,2-0.3,2.7-1c0.7-0.7,1-1.6,1.1-2.9 c-0.8,0.8-1.9,1.2-3.3,1.2c-0.8,0-1.6-0.2-2.3-0.5c-0.7-0.3-1.2-0.8-1.7-1.5c-0.4-0.6-0.6-1.4-0.6-2.2c0-0.9,0.2-1.7,0.7-2.3 s1-1.2,1.8-1.5c0.8-0.4,1.6-0.5,2.6-0.5C430.5,311.5,431.9,312,433,313.2z M430.5,317.2c0.4-0.4,0.6-0.9,0.6-1.4s-0.2-1.1-0.6-1.4 c-0.4-0.4-1-0.6-1.7-0.6c-0.7,0-1.2,0.2-1.6,0.5c-0.4,0.4-0.6,0.8-0.6,1.4s0.2,1.1,0.6,1.5c0.4,0.4,1,0.5,1.6,0.5 C429.5,317.7,430.1,317.5,430.5,317.2z"></path> <path class="st10" d="M436.8,317.9c-0.6-0.7-0.9-1.6-0.9-2.7c0-1.1,0.3-2,0.9-2.7s1.4-1,2.4-1c1,0,1.8,0.3,2.4,1 c0.6,0.7,0.9,1.6,0.9,2.7c0,1.1-0.3,2-0.9,2.7c-0.6,0.7-1.4,1-2.4,1C438.2,318.9,437.4,318.5,436.8,317.9z M440.2,316.8 c0.2-0.4,0.4-0.9,0.4-1.6c0-0.7-0.1-1.2-0.4-1.6c-0.2-0.4-0.6-0.5-1-0.5c-0.4,0-0.8,0.2-1,0.5c-0.3,0.4-0.4,0.9-0.4,1.6 s0.1,1.2,0.4,1.6c0.3,0.4,0.6,0.5,1,0.5C439.6,317.3,439.9,317.1,440.2,316.8z M447.1,311.7h2.3l-9.1,13.3H438L447.1,311.7z M446.5,324.7c-0.5-0.3-0.9-0.7-1.2-1.3c-0.3-0.6-0.4-1.2-0.4-1.9c0-0.7,0.1-1.4,0.4-1.9c0.3-0.6,0.7-1,1.2-1.3 c0.5-0.3,1.1-0.4,1.7-0.4c1,0,1.8,0.3,2.4,1s0.9,1.6,0.9,2.7c0,1.1-0.3,2-0.9,2.7s-1.4,1-2.4,1C447.5,325.1,447,325,446.5,324.7z M449.2,323c0.2-0.4,0.4-0.9,0.4-1.6s-0.1-1.2-0.4-1.6s-0.6-0.5-1-0.5c-0.4,0-0.8,0.2-1,0.5c-0.3,0.4-0.4,0.9-0.4,1.6 c0,0.7,0.1,1.2,0.4,1.6c0.3,0.4,0.6,0.5,1,0.5C448.6,323.6,448.9,323.4,449.2,323z"></path> </g> </g> <g> <g> <path class="st10" d="M421.2,168.9v13.3h-3.1v-10.8h-2.7v-2.5H421.2z"></path> <path class="st10" d="M428.6,168.9v13.3h-3.1v-10.8h-2.7v-2.5H428.6z"></path> <path class="st10" d="M431.6,175c-0.6-0.7-0.9-1.6-0.9-2.7c0-1.1,0.3-2,0.9-2.7s1.4-1,2.4-1c1,0,1.8,0.3,2.4,1 c0.6,0.7,0.9,1.6,0.9,2.7c0,1.1-0.3,2-0.9,2.7c-0.6,0.7-1.4,1-2.4,1C433.1,176,432.3,175.7,431.6,175z M435,174 c0.2-0.4,0.4-0.9,0.4-1.6c0-0.7-0.1-1.2-0.4-1.6c-0.2-0.4-0.6-0.5-1-0.5c-0.4,0-0.8,0.2-1,0.5c-0.3,0.4-0.4,0.9-0.4,1.6 s0.1,1.2,0.4,1.6c0.3,0.4,0.6,0.5,1,0.5C434.5,174.5,434.8,174.3,435,174z M442,168.9h2.3l-9.1,13.3h-2.3L442,168.9z M441.4,181.9 c-0.5-0.3-0.9-0.7-1.2-1.3c-0.3-0.6-0.4-1.2-0.4-1.9c0-0.7,0.1-1.4,0.4-1.9c0.3-0.6,0.7-1,1.2-1.3c0.5-0.3,1.1-0.4,1.7-0.4 c1,0,1.8,0.3,2.4,1s0.9,1.6,0.9,2.7c0,1.1-0.3,2-0.9,2.7s-1.4,1-2.4,1C442.4,182.3,441.9,182.2,441.4,181.9z M444.1,180.2 c0.2-0.4,0.4-0.9,0.4-1.6s-0.1-1.2-0.4-1.6s-0.6-0.5-1-0.5c-0.4,0-0.8,0.2-1,0.5c-0.3,0.4-0.4,0.9-0.4,1.6c0,0.7,0.1,1.2,0.4,1.6 c0.3,0.4,0.6,0.5,1,0.5C443.5,180.8,443.8,180.6,444.1,180.2z"></path> </g> </g> <g> <g> <path class="st10" d="M426.5,127.7c1.1,1.1,1.6,2.8,1.6,4.9c0,1.5-0.3,2.8-0.8,3.9c-0.6,1.1-1.4,1.9-2.4,2.5 c-1,0.6-2.2,0.8-3.6,0.8c-0.7,0-1.4-0.1-2-0.2c-0.6-0.2-1.2-0.4-1.7-0.7l1.1-2.3c0.6,0.4,1.5,0.7,2.5,0.7c1.1,0,2-0.3,2.7-1 c0.7-0.7,1-1.6,1.1-2.9c-0.8,0.8-1.9,1.2-3.3,1.2c-0.8,0-1.6-0.2-2.3-0.5c-0.7-0.3-1.2-0.8-1.7-1.5c-0.4-0.6-0.6-1.4-0.6-2.2 c0-0.9,0.2-1.7,0.7-2.3c0.4-0.7,1-1.2,1.8-1.5c0.8-0.4,1.6-0.5,2.6-0.5C424,126,425.4,126.6,426.5,127.7z M424,131.7 c0.4-0.4,0.6-0.9,0.6-1.4s-0.2-1.1-0.6-1.4c-0.4-0.4-1-0.6-1.7-0.6c-0.7,0-1.2,0.2-1.6,0.5c-0.4,0.4-0.6,0.8-0.6,1.4 s0.2,1.1,0.6,1.5c0.4,0.4,1,0.5,1.6,0.5C423,132.3,423.6,132.1,424,131.7z"></path> <path class="st10" d="M430.2,132.4c-0.6-0.7-0.9-1.6-0.9-2.7c0-1.1,0.3-2,0.9-2.7s1.4-1,2.4-1c1,0,1.8,0.3,2.4,1 c0.6,0.7,0.9,1.6,0.9,2.7c0,1.1-0.3,2-0.9,2.7c-0.6,0.7-1.4,1-2.4,1C431.7,133.4,430.9,133.1,430.2,132.4z M433.6,131.4 c0.2-0.4,0.4-0.9,0.4-1.6c0-0.7-0.1-1.2-0.4-1.6c-0.2-0.4-0.6-0.5-1-0.5c-0.4,0-0.8,0.2-1,0.5c-0.3,0.4-0.4,0.9-0.4,1.6 s0.1,1.2,0.4,1.6c0.3,0.4,0.6,0.5,1,0.5C433.1,131.9,433.4,131.7,433.6,131.4z M440.6,126.3h2.3l-9.1,13.3h-2.3L440.6,126.3z M440,139.3c-0.5-0.3-0.9-0.7-1.2-1.3c-0.3-0.6-0.4-1.2-0.4-1.9c0-0.7,0.1-1.4,0.4-1.9c0.3-0.6,0.7-1,1.2-1.3 c0.5-0.3,1.1-0.4,1.7-0.4c1,0,1.8,0.3,2.4,1s0.9,1.6,0.9,2.7c0,1.1-0.3,2-0.9,2.7s-1.4,1-2.4,1C441,139.7,440.5,139.6,440,139.3z M442.7,137.6c0.2-0.4,0.4-0.9,0.4-1.6s-0.1-1.2-0.4-1.6s-0.6-0.5-1-0.5c-0.4,0-0.8,0.2-1,0.5c-0.3,0.4-0.4,0.9-0.4,1.6 c0,0.7,0.1,1.2,0.4,1.6c0.3,0.4,0.6,0.5,1,0.5C442.1,138.2,442.4,138,442.7,137.6z"></path> </g> </g> <g> <g> <path class="st10" d="M594.7,526c0.3,0.5,0.5,1.1,0.5,1.8c0,0.8-0.2,1.5-0.7,2.2c-0.5,0.6-1.1,1.1-2,1.4c-0.8,0.3-1.8,0.5-2.9,0.5 s-2.1-0.2-2.9-0.5c-0.8-0.3-1.5-0.8-2-1.4c-0.5-0.6-0.7-1.3-0.7-2.2c0-0.7,0.2-1.3,0.5-1.8s0.8-1,1.5-1.3 c-0.5-0.3-0.9-0.7-1.1-1.1s-0.4-1-0.4-1.6c0-0.8,0.2-1.4,0.6-2s1-1,1.8-1.3s1.7-0.5,2.7-0.5c1,0,1.9,0.2,2.7,0.5 c0.8,0.3,1.4,0.8,1.8,1.3s0.6,1.2,0.6,2c0,0.6-0.1,1.1-0.4,1.6s-0.7,0.8-1.2,1.1C593.9,525,594.4,525.5,594.7,526z M591.4,529.1 c0.4-0.3,0.7-0.8,0.7-1.4s-0.2-1-0.7-1.4c-0.5-0.3-1.1-0.5-1.8-0.5c-0.8,0-1.4,0.2-1.8,0.5c-0.4,0.3-0.7,0.8-0.7,1.4 c0,0.6,0.2,1.1,0.7,1.4c0.4,0.3,1,0.5,1.8,0.5C590.4,529.7,591,529.5,591.4,529.1z M588.1,520.9c-0.4,0.3-0.6,0.7-0.6,1.2 c0,0.5,0.2,0.9,0.6,1.2c0.4,0.3,0.9,0.4,1.5,0.4c0.6,0,1.1-0.1,1.5-0.4c0.4-0.3,0.6-0.7,0.6-1.2c0-0.5-0.2-0.9-0.6-1.2 c-0.4-0.3-0.9-0.4-1.5-0.4C589,520.4,588.5,520.6,588.1,520.9z"></path> <path class="st10" d="M597.1,524.6c-0.6-0.7-0.9-1.6-0.9-2.7s0.3-2,0.9-2.7s1.4-1,2.4-1c1,0,1.8,0.3,2.4,1 c0.6,0.7,0.9,1.6,0.9,2.7s-0.3,2-0.9,2.7c-0.6,0.7-1.4,1-2.4,1C598.6,525.6,597.8,525.2,597.1,524.6z M600.5,523.5 c0.2-0.4,0.4-0.9,0.4-1.6s-0.1-1.2-0.4-1.6c-0.2-0.4-0.6-0.5-1-0.5c-0.4,0-0.8,0.2-1,0.5c-0.3,0.4-0.4,0.9-0.4,1.6 c0,0.7,0.1,1.2,0.4,1.6c0.3,0.4,0.6,0.5,1,0.5C600,524,600.3,523.8,600.5,523.5z M607.4,518.4h2.3l-9.1,13.3h-2.3L607.4,518.4z M606.9,531.4c-0.5-0.3-0.9-0.7-1.2-1.3c-0.3-0.6-0.4-1.2-0.4-1.9c0-0.7,0.1-1.4,0.4-1.9c0.3-0.6,0.7-1,1.2-1.3 c0.5-0.3,1.1-0.4,1.7-0.4c1,0,1.8,0.3,2.4,1s0.9,1.6,0.9,2.7c0,1.1-0.3,2-0.9,2.7s-1.4,1-2.4,1 C607.9,531.8,607.4,531.7,606.9,531.4z M609.6,529.8c0.2-0.4,0.4-0.9,0.4-1.6c0-0.7-0.1-1.2-0.4-1.6c-0.2-0.4-0.6-0.5-1-0.5 c-0.4,0-0.8,0.2-1,0.5c-0.3,0.4-0.4,0.9-0.4,1.6c0,0.7,0.1,1.2,0.4,1.6c0.3,0.4,0.6,0.5,1,0.5C609,530.3,609.3,530.1,609.6,529.8z "></path> </g> </g> <g> <g> <path class="st10" d="M594.7,488c0.3,0.5,0.5,1.1,0.5,1.8c0,0.8-0.2,1.5-0.7,2.2c-0.5,0.6-1.1,1.1-2,1.4c-0.8,0.3-1.8,0.5-2.9,0.5 s-2.1-0.2-2.9-0.5c-0.8-0.3-1.5-0.8-2-1.4c-0.5-0.6-0.7-1.3-0.7-2.2c0-0.7,0.2-1.3,0.5-1.8s0.8-1,1.5-1.3 c-0.5-0.3-0.9-0.7-1.1-1.1s-0.4-1-0.4-1.6c0-0.8,0.2-1.4,0.6-2s1-1,1.8-1.3s1.7-0.5,2.7-0.5c1,0,1.9,0.2,2.7,0.5 c0.8,0.3,1.4,0.8,1.8,1.3s0.6,1.2,0.6,2c0,0.6-0.1,1.1-0.4,1.6s-0.7,0.8-1.2,1.1C593.9,487,594.4,487.5,594.7,488z M591.4,491.1 c0.4-0.3,0.7-0.8,0.7-1.4s-0.2-1-0.7-1.4c-0.5-0.3-1.1-0.5-1.8-0.5c-0.8,0-1.4,0.2-1.8,0.5c-0.4,0.3-0.7,0.8-0.7,1.4 c0,0.6,0.2,1.1,0.7,1.4c0.4,0.3,1,0.5,1.8,0.5C590.4,491.7,591,491.5,591.4,491.1z M588.1,482.9c-0.4,0.3-0.6,0.7-0.6,1.2 c0,0.5,0.2,0.9,0.6,1.2c0.4,0.3,0.9,0.4,1.5,0.4c0.6,0,1.1-0.1,1.5-0.4c0.4-0.3,0.6-0.7,0.6-1.2c0-0.5-0.2-0.9-0.6-1.2 c-0.4-0.3-0.9-0.4-1.5-0.4C589,482.4,588.5,482.6,588.1,482.9z"></path> <path class="st10" d="M597.1,486.6c-0.6-0.7-0.9-1.6-0.9-2.7s0.3-2,0.9-2.7s1.4-1,2.4-1c1,0,1.8,0.3,2.4,1 c0.6,0.7,0.9,1.6,0.9,2.7s-0.3,2-0.9,2.7c-0.6,0.7-1.4,1-2.4,1C598.6,487.6,597.8,487.2,597.1,486.6z M600.5,485.5 c0.2-0.4,0.4-0.9,0.4-1.6s-0.1-1.2-0.4-1.6c-0.2-0.4-0.6-0.5-1-0.5c-0.4,0-0.8,0.2-1,0.5c-0.3,0.4-0.4,0.9-0.4,1.6 c0,0.7,0.1,1.2,0.4,1.6c0.3,0.4,0.6,0.5,1,0.5C600,486,600.3,485.8,600.5,485.5z M607.4,480.4h2.3l-9.1,13.3h-2.3L607.4,480.4z M606.9,493.4c-0.5-0.3-0.9-0.7-1.2-1.3c-0.3-0.6-0.4-1.2-0.4-1.9c0-0.7,0.1-1.4,0.4-1.9c0.3-0.6,0.7-1,1.2-1.3 c0.5-0.3,1.1-0.4,1.7-0.4c1,0,1.8,0.3,2.4,1s0.9,1.6,0.9,2.7c0,1.1-0.3,2-0.9,2.7s-1.4,1-2.4,1 C607.9,493.9,607.4,493.7,606.9,493.4z M609.6,491.8c0.2-0.4,0.4-0.9,0.4-1.6c0-0.7-0.1-1.2-0.4-1.6c-0.2-0.4-0.6-0.5-1-0.5 c-0.4,0-0.8,0.2-1,0.5c-0.3,0.4-0.4,0.9-0.4,1.6c0,0.7,0.1,1.2,0.4,1.6c0.3,0.4,0.6,0.5,1,0.5C609,492.3,609.3,492.1,609.6,491.8z "></path> </g> </g> <g> <g> <path class="st10" d="M593.3,445.9c1.1,1.1,1.6,2.8,1.6,4.9c0,1.5-0.3,2.8-0.8,3.9c-0.6,1.1-1.4,1.9-2.4,2.5 c-1,0.6-2.2,0.8-3.6,0.8c-0.7,0-1.4-0.1-2-0.2c-0.6-0.2-1.2-0.4-1.7-0.7l1.1-2.3c0.6,0.4,1.5,0.7,2.5,0.7c1.1,0,2-0.3,2.7-1 c0.7-0.7,1-1.6,1.1-2.9c-0.8,0.8-1.9,1.2-3.3,1.2c-0.8,0-1.6-0.2-2.3-0.5c-0.7-0.3-1.2-0.8-1.7-1.5c-0.4-0.6-0.6-1.4-0.6-2.2 c0-0.9,0.2-1.7,0.7-2.3c0.4-0.7,1-1.2,1.8-1.5c0.8-0.4,1.6-0.5,2.6-0.5C590.8,444.2,592.2,444.7,593.3,445.9z M590.8,449.9 c0.4-0.4,0.6-0.9,0.6-1.4c0-0.6-0.2-1.1-0.6-1.4c-0.4-0.4-1-0.6-1.7-0.6c-0.7,0-1.2,0.2-1.6,0.5c-0.4,0.4-0.6,0.8-0.6,1.4 c0,0.6,0.2,1.1,0.6,1.5c0.4,0.4,1,0.5,1.6,0.5C589.8,450.4,590.3,450.3,590.8,449.9z"></path> <path class="st10" d="M597,450.6c-0.6-0.7-0.9-1.6-0.9-2.7s0.3-2,0.9-2.7s1.4-1,2.4-1c1,0,1.8,0.3,2.4,1c0.6,0.7,0.9,1.6,0.9,2.7 s-0.3,2-0.9,2.7c-0.6,0.7-1.4,1-2.4,1C598.4,451.6,597.6,451.3,597,450.6z M600.4,449.5c0.2-0.4,0.4-0.9,0.4-1.6s-0.1-1.2-0.4-1.6 c-0.2-0.4-0.6-0.5-1-0.5c-0.4,0-0.8,0.2-1,0.5c-0.3,0.4-0.4,0.9-0.4,1.6c0,0.7,0.1,1.2,0.4,1.6c0.3,0.4,0.6,0.5,1,0.5 C599.8,450,600.2,449.8,600.4,449.5z M607.3,444.4h2.3l-9.1,13.3h-2.3L607.3,444.4z M606.7,457.4c-0.5-0.3-0.9-0.7-1.2-1.3 c-0.3-0.6-0.4-1.2-0.4-1.9c0-0.7,0.1-1.4,0.4-1.9c0.3-0.6,0.7-1,1.2-1.3c0.5-0.3,1.1-0.4,1.7-0.4c1,0,1.8,0.3,2.4,1 s0.9,1.6,0.9,2.7c0,1.1-0.3,2-0.9,2.7s-1.4,1-2.4,1C607.8,457.9,607.2,457.7,606.7,457.4z M609.4,455.8c0.2-0.4,0.4-0.9,0.4-1.6 c0-0.7-0.1-1.2-0.4-1.6c-0.2-0.4-0.6-0.5-1-0.5c-0.4,0-0.8,0.2-1,0.5c-0.3,0.4-0.4,0.9-0.4,1.6c0,0.7,0.1,1.2,0.4,1.6 c0.3,0.4,0.6,0.5,1,0.5C608.9,456.3,609.2,456.1,609.4,455.8z"></path> </g> </g> <g> <g> <path class="st10" d="M589.6,322.2h-2.2v2.8h-3v-2.8h-7.2v-2.1l6.3-8.4h3.2l-5.8,8h3.6v-2.5h2.9v2.5h2.2V322.2z"></path> <path class="st10" d="M601.3,319.3c0.3,0.5,0.5,1.1,0.5,1.8c0,0.8-0.2,1.5-0.7,2.2c-0.5,0.6-1.1,1.1-2,1.4s-1.8,0.5-2.9,0.5 s-2.1-0.2-2.9-0.5s-1.5-0.8-2-1.4c-0.5-0.6-0.7-1.3-0.7-2.2c0-0.7,0.2-1.3,0.5-1.8c0.3-0.5,0.8-1,1.5-1.3 c-0.5-0.3-0.9-0.7-1.1-1.1c-0.3-0.5-0.4-1-0.4-1.6c0-0.8,0.2-1.4,0.6-2c0.4-0.6,1-1,1.8-1.3c0.8-0.3,1.7-0.5,2.7-0.5 c1,0,1.9,0.2,2.7,0.5c0.8,0.3,1.4,0.8,1.8,1.3c0.4,0.6,0.6,1.2,0.6,2c0,0.6-0.1,1.1-0.4,1.6c-0.3,0.5-0.7,0.8-1.2,1.1 C600.5,318.3,601,318.7,601.3,319.3z M598.1,322.4c0.4-0.3,0.7-0.8,0.7-1.4c0-0.6-0.2-1-0.7-1.4c-0.5-0.3-1.1-0.5-1.8-0.5 c-0.8,0-1.4,0.2-1.8,0.5c-0.4,0.3-0.7,0.8-0.7,1.4c0,0.6,0.2,1.1,0.7,1.4c0.4,0.3,1,0.5,1.8,0.5 C597,322.9,597.6,322.8,598.1,322.4z M594.8,314.2c-0.4,0.3-0.6,0.7-0.6,1.2c0,0.5,0.2,0.9,0.6,1.2s0.9,0.4,1.5,0.4 c0.6,0,1.1-0.1,1.5-0.4c0.4-0.3,0.6-0.7,0.6-1.2c0-0.5-0.2-0.9-0.6-1.2c-0.4-0.3-0.9-0.4-1.5-0.4 C595.6,313.7,595.1,313.9,594.8,314.2z"></path> <path class="st10" d="M603.8,317.9c-0.6-0.7-0.9-1.6-0.9-2.7c0-1.1,0.3-2,0.9-2.7s1.4-1,2.4-1c1,0,1.8,0.3,2.4,1 c0.6,0.7,0.9,1.6,0.9,2.7c0,1.1-0.3,2-0.9,2.7c-0.6,0.7-1.4,1-2.4,1C605.2,318.9,604.4,318.5,603.8,317.9z M607.2,316.8 c0.2-0.4,0.4-0.9,0.4-1.6c0-0.7-0.1-1.2-0.4-1.6c-0.2-0.4-0.6-0.5-1-0.5c-0.4,0-0.8,0.2-1,0.5c-0.3,0.4-0.4,0.9-0.4,1.6 s0.1,1.2,0.4,1.6c0.3,0.4,0.6,0.5,1,0.5C606.6,317.3,606.9,317.1,607.2,316.8z M614.1,311.7h2.3l-9.1,13.3H605L614.1,311.7z M613.5,324.7c-0.5-0.3-0.9-0.7-1.2-1.3c-0.3-0.6-0.4-1.2-0.4-1.9c0-0.7,0.1-1.4,0.4-1.9c0.3-0.6,0.7-1,1.2-1.3 c0.5-0.3,1.1-0.4,1.7-0.4c1,0,1.8,0.3,2.4,1s0.9,1.6,0.9,2.7c0,1.1-0.3,2-0.9,2.7s-1.4,1-2.4,1C614.6,325.1,614,325,613.5,324.7z M616.2,323c0.2-0.4,0.4-0.9,0.4-1.6s-0.1-1.2-0.4-1.6s-0.6-0.5-1-0.5c-0.4,0-0.8,0.2-1,0.5c-0.3,0.4-0.4,0.9-0.4,1.6 c0,0.7,0.1,1.2,0.4,1.6c0.3,0.4,0.6,0.5,1,0.5C615.6,323.6,616,323.4,616.2,323z"></path> </g> </g> <g> <g> <path class="st10" d="M585.4,184.2v13.3h-3.1v-10.8h-2.7v-2.5H585.4z"></path> <path class="st10" d="M599.9,194.7h-2.2v2.8h-3v-2.8h-7.2v-2.1l6.3-8.4h3.2l-5.8,8h3.6v-2.5h2.9v2.5h2.2V194.7z"></path> <path class="st10" d="M601,190.4c-0.6-0.7-0.9-1.6-0.9-2.7c0-1.1,0.3-2,0.9-2.7s1.4-1,2.4-1c1,0,1.8,0.3,2.4,1 c0.6,0.7,0.9,1.6,0.9,2.7c0,1.1-0.3,2-0.9,2.7c-0.6,0.7-1.4,1-2.4,1C602.4,191.4,601.6,191,601,190.4z M604.4,189.3 c0.2-0.4,0.4-0.9,0.4-1.6c0-0.7-0.1-1.2-0.4-1.6c-0.2-0.4-0.6-0.5-1-0.5c-0.4,0-0.8,0.2-1,0.5c-0.3,0.4-0.4,0.9-0.4,1.6 s0.1,1.2,0.4,1.6c0.3,0.4,0.6,0.5,1,0.5C603.8,189.8,604.1,189.6,604.4,189.3z M611.3,184.2h2.3l-9.1,13.3h-2.3L611.3,184.2z M610.7,197.2c-0.5-0.3-0.9-0.7-1.2-1.3c-0.3-0.6-0.4-1.2-0.4-1.9c0-0.7,0.1-1.4,0.4-1.9c0.3-0.6,0.7-1,1.2-1.3 c0.5-0.3,1.1-0.4,1.7-0.4c1,0,1.8,0.3,2.4,1s0.9,1.6,0.9,2.7c0,1.1-0.3,2-0.9,2.7s-1.4,1-2.4,1 C611.7,197.6,611.2,197.5,610.7,197.2z M613.4,195.5c0.2-0.4,0.4-0.9,0.4-1.6s-0.1-1.2-0.4-1.6s-0.6-0.5-1-0.5 c-0.4,0-0.8,0.2-1,0.5c-0.3,0.4-0.4,0.9-0.4,1.6c0,0.7,0.1,1.2,0.4,1.6c0.3,0.4,0.6,0.5,1,0.5 C612.8,196.1,613.1,195.9,613.4,195.5z"></path> </g> </g> <g> <g> <path class="st10" d="M588,129.3v13.3h-3.1v-10.8h-2.7v-2.5H588z"></path> <path class="st10" d="M595.4,129.3v13.3h-3.1v-10.8h-2.7v-2.5H595.4z"></path> <path class="st10" d="M598.4,135.4c-0.6-0.7-0.9-1.6-0.9-2.7c0-1.1,0.3-2,0.9-2.7s1.4-1,2.4-1c1,0,1.8,0.3,2.4,1 c0.6,0.7,0.9,1.6,0.9,2.7c0,1.1-0.3,2-0.9,2.7c-0.6,0.7-1.4,1-2.4,1C599.8,136.4,599,136.1,598.4,135.4z M601.8,134.4 c0.2-0.4,0.4-0.9,0.4-1.6c0-0.7-0.1-1.2-0.4-1.6c-0.2-0.4-0.6-0.5-1-0.5c-0.4,0-0.8,0.2-1,0.5c-0.3,0.4-0.4,0.9-0.4,1.6 s0.1,1.2,0.4,1.6c0.3,0.4,0.6,0.5,1,0.5C601.2,134.9,601.6,134.7,601.8,134.4z M608.7,129.3h2.3l-9.1,13.3h-2.3L608.7,129.3z M608.1,142.3c-0.5-0.3-0.9-0.7-1.2-1.3c-0.3-0.6-0.4-1.2-0.4-1.9c0-0.7,0.1-1.4,0.4-1.9c0.3-0.6,0.7-1,1.2-1.3 c0.5-0.3,1.1-0.4,1.7-0.4c1,0,1.8,0.3,2.4,1s0.9,1.6,0.9,2.7c0,1.1-0.3,2-0.9,2.7s-1.4,1-2.4,1 C609.2,142.7,608.6,142.6,608.1,142.3z M610.8,140.6c0.2-0.4,0.4-0.9,0.4-1.6s-0.1-1.2-0.4-1.6s-0.6-0.5-1-0.5 c-0.4,0-0.8,0.2-1,0.5c-0.3,0.4-0.4,0.9-0.4,1.6c0,0.7,0.1,1.2,0.4,1.6c0.3,0.4,0.6,0.5,1,0.5C610.3,141.2,610.6,141,610.8,140.6z "></path> </g> </g> <g> <g> <path class="st10" d="M761.5,520c0.3,0.5,0.5,1.1,0.5,1.8c0,0.8-0.2,1.5-0.7,2.2s-1.1,1.1-2,1.4c-0.8,0.3-1.8,0.5-2.9,0.5 c-1.1,0-2.1-0.2-2.9-0.5c-0.8-0.3-1.5-0.8-2-1.4s-0.7-1.3-0.7-2.2c0-0.7,0.2-1.3,0.5-1.8c0.3-0.5,0.8-1,1.5-1.3 c-0.5-0.3-0.9-0.7-1.1-1.1c-0.3-0.5-0.4-1-0.4-1.6c0-0.8,0.2-1.4,0.6-2c0.4-0.6,1-1,1.8-1.3c0.8-0.3,1.7-0.5,2.7-0.5 c1,0,1.9,0.2,2.7,0.5c0.8,0.3,1.4,0.8,1.8,1.3c0.4,0.6,0.6,1.2,0.6,2c0,0.6-0.1,1.1-0.4,1.6c-0.3,0.5-0.7,0.8-1.2,1.1 C760.6,519,761.1,519.5,761.5,520z M758.2,523.1c0.4-0.3,0.7-0.8,0.7-1.4c0-0.6-0.2-1-0.7-1.4s-1.1-0.5-1.8-0.5 c-0.8,0-1.4,0.2-1.8,0.5s-0.7,0.8-0.7,1.4c0,0.6,0.2,1.1,0.7,1.4s1,0.5,1.8,0.5C757.2,523.7,757.8,523.5,758.2,523.1z M754.9,514.9c-0.4,0.3-0.6,0.7-0.6,1.2c0,0.5,0.2,0.9,0.6,1.2c0.4,0.3,0.9,0.4,1.5,0.4s1.1-0.1,1.5-0.4c0.4-0.3,0.6-0.7,0.6-1.2 c0-0.5-0.2-0.9-0.6-1.2c-0.4-0.3-0.9-0.4-1.5-0.4C755.8,514.4,755.3,514.6,754.9,514.9z"></path> <path class="st10" d="M763.9,518.6c-0.6-0.7-0.9-1.6-0.9-2.7c0-1.1,0.3-2,0.9-2.7c0.6-0.7,1.4-1,2.4-1s1.8,0.3,2.4,1 s0.9,1.6,0.9,2.7c0,1.1-0.3,2-0.9,2.7s-1.4,1-2.4,1S764.5,519.2,763.9,518.6z M767.3,517.5c0.2-0.4,0.4-0.9,0.4-1.6 c0-0.7-0.1-1.2-0.4-1.6c-0.2-0.4-0.6-0.5-1-0.5c-0.4,0-0.8,0.2-1,0.5c-0.3,0.4-0.4,0.9-0.4,1.6c0,0.7,0.1,1.2,0.4,1.6 c0.3,0.4,0.6,0.5,1,0.5C766.7,518,767.1,517.8,767.3,517.5z M774.2,512.4h2.3l-9.1,13.3h-2.3L774.2,512.4z M773.6,525.4 c-0.5-0.3-0.9-0.7-1.2-1.3c-0.3-0.6-0.4-1.2-0.4-1.9s0.1-1.4,0.4-1.9c0.3-0.6,0.7-1,1.2-1.3s1.1-0.4,1.7-0.4c1,0,1.8,0.3,2.4,1 c0.6,0.7,0.9,1.6,0.9,2.7s-0.3,2-0.9,2.7c-0.6,0.7-1.4,1-2.4,1C774.7,525.8,774.1,525.7,773.6,525.4z M776.3,523.7 c0.2-0.4,0.4-0.9,0.4-1.6c0-0.7-0.1-1.2-0.4-1.6c-0.2-0.4-0.6-0.5-1-0.5c-0.4,0-0.8,0.2-1,0.5s-0.4,0.9-0.4,1.6s0.1,1.2,0.4,1.6 s0.6,0.5,1,0.5C775.8,524.3,776.1,524.1,776.3,523.7z"></path> </g> </g> <g> <g> <path class="st10" d="M760,476.9c1.1,1.1,1.6,2.8,1.6,4.9c0,1.5-0.3,2.8-0.8,3.9c-0.6,1.1-1.4,1.9-2.4,2.5c-1,0.6-2.2,0.8-3.6,0.8 c-0.7,0-1.4-0.1-2-0.2s-1.2-0.4-1.7-0.7l1.1-2.3c0.6,0.4,1.5,0.7,2.5,0.7c1.1,0,2-0.3,2.7-1s1-1.6,1.1-2.9 c-0.8,0.8-1.9,1.2-3.3,1.2c-0.8,0-1.6-0.2-2.3-0.5c-0.7-0.3-1.2-0.8-1.7-1.5s-0.6-1.4-0.6-2.2c0-0.9,0.2-1.7,0.7-2.3 c0.4-0.7,1-1.2,1.8-1.5c0.8-0.4,1.6-0.5,2.6-0.5C757.5,475.2,759,475.7,760,476.9z M757.5,480.9c0.4-0.4,0.6-0.9,0.6-1.4 c0-0.6-0.2-1.1-0.6-1.4c-0.4-0.4-1-0.6-1.7-0.6c-0.7,0-1.2,0.2-1.6,0.5s-0.6,0.8-0.6,1.4c0,0.6,0.2,1.1,0.6,1.5s1,0.5,1.6,0.5 C756.6,481.4,757.1,481.3,757.5,480.9z"></path> <path class="st10" d="M763.8,481.6c-0.6-0.7-0.9-1.6-0.9-2.7s0.3-2,0.9-2.7c0.6-0.7,1.4-1,2.4-1c1,0,1.8,0.3,2.4,1 c0.6,0.7,0.9,1.6,0.9,2.7s-0.3,2-0.9,2.7c-0.6,0.7-1.4,1-2.4,1C765.2,482.6,764.4,482.2,763.8,481.6z M767.2,480.5 c0.2-0.4,0.4-0.9,0.4-1.6s-0.1-1.2-0.4-1.6s-0.6-0.5-1-0.5c-0.4,0-0.8,0.2-1,0.5c-0.3,0.4-0.4,0.9-0.4,1.6c0,0.7,0.1,1.2,0.4,1.6 s0.6,0.5,1,0.5C766.6,481,766.9,480.8,767.2,480.5z M774.1,475.4h2.3l-9.1,13.3H765L774.1,475.4z M773.5,488.4 c-0.5-0.3-0.9-0.7-1.2-1.3c-0.3-0.6-0.4-1.2-0.4-1.9c0-0.7,0.1-1.4,0.4-1.9c0.3-0.6,0.7-1,1.2-1.3c0.5-0.3,1.1-0.4,1.7-0.4 c1,0,1.8,0.3,2.4,1c0.6,0.7,0.9,1.6,0.9,2.7c0,1.1-0.3,2-0.9,2.7c-0.6,0.7-1.4,1-2.4,1C774.6,488.8,774,488.7,773.5,488.4z M776.2,486.7c0.2-0.4,0.4-0.9,0.4-1.6c0-0.7-0.1-1.2-0.4-1.6c-0.2-0.4-0.6-0.5-1-0.5c-0.4,0-0.8,0.2-1,0.5 c-0.3,0.4-0.4,0.9-0.4,1.6c0,0.7,0.1,1.2,0.4,1.6c0.3,0.4,0.6,0.5,1,0.5C775.6,487.3,776,487.1,776.2,486.7z"></path> </g> </g> <g> <g> <path class="st10" d="M759.9,445.9c0.7,0.3,1.2,0.8,1.7,1.5c0.4,0.6,0.6,1.4,0.6,2.2c0,0.9-0.2,1.7-0.7,2.3 c-0.4,0.7-1,1.2-1.8,1.5c-0.8,0.4-1.6,0.5-2.6,0.5c-1.9,0-3.3-0.6-4.4-1.7c-1.1-1.1-1.6-2.8-1.6-4.9c0-1.5,0.3-2.8,0.9-3.9 c0.6-1.1,1.4-1.9,2.4-2.5c1-0.6,2.2-0.8,3.5-0.8c0.7,0,1.4,0.1,2,0.2c0.7,0.2,1.2,0.4,1.7,0.7l-1.1,2.3c-0.7-0.4-1.5-0.7-2.5-0.7 c-1.1,0-2,0.3-2.7,1c-0.7,0.7-1,1.6-1.1,2.9c0.8-0.8,1.9-1.2,3.3-1.2C758.4,445.4,759.2,445.5,759.9,445.9z M758.6,451.1 c0.4-0.4,0.6-0.8,0.6-1.4c0-0.6-0.2-1.1-0.6-1.5c-0.4-0.4-1-0.5-1.6-0.5c-0.7,0-1.2,0.2-1.7,0.6c-0.4,0.4-0.6,0.9-0.6,1.4 c0,0.6,0.2,1.1,0.6,1.4s1,0.6,1.7,0.6C757.6,451.6,758.2,451.5,758.6,451.1z"></path> <path class="st10" d="M763.6,446.6c-0.6-0.7-0.9-1.6-0.9-2.7s0.3-2,0.9-2.7c0.6-0.7,1.4-1,2.4-1s1.8,0.3,2.4,1s0.9,1.6,0.9,2.7 s-0.3,2-0.9,2.7c-0.6,0.7-1.4,1-2.4,1S764.2,447.2,763.6,446.6z M767,445.5c0.2-0.4,0.4-0.9,0.4-1.6s-0.1-1.2-0.4-1.6 c-0.2-0.4-0.6-0.5-1-0.5c-0.4,0-0.8,0.2-1,0.5c-0.3,0.4-0.4,0.9-0.4,1.6c0,0.7,0.1,1.2,0.4,1.6c0.3,0.4,0.6,0.5,1,0.5 C766.4,446,766.8,445.8,767,445.5z M773.9,440.4h2.3l-9.1,13.3h-2.3L773.9,440.4z M773.3,453.4c-0.5-0.3-0.9-0.7-1.2-1.3 s-0.4-1.2-0.4-1.9c0-0.7,0.1-1.4,0.4-1.9s0.7-1,1.2-1.3s1.1-0.4,1.7-0.4c1,0,1.8,0.3,2.4,1c0.6,0.7,0.9,1.6,0.9,2.7 c0,1.1-0.3,2-0.9,2.7c-0.6,0.7-1.4,1-2.4,1C774.4,453.9,773.8,453.7,773.3,453.4z M776,451.8c0.2-0.4,0.4-0.9,0.4-1.6 c0-0.7-0.1-1.2-0.4-1.6c-0.2-0.4-0.6-0.5-1-0.5c-0.4,0-0.8,0.2-1,0.5s-0.4,0.9-0.4,1.6c0,0.7,0.1,1.2,0.4,1.6 c0.3,0.4,0.6,0.5,1,0.5C775.4,452.3,775.8,452.1,776,451.8z"></path> </g> </g> <g> <g> <path class="st10" d="M756.4,317.8c0.9,0.7,1.3,1.7,1.3,3c0,0.8-0.2,1.5-0.6,2.2c-0.4,0.7-1,1.2-1.9,1.6c-0.8,0.4-1.9,0.6-3.1,0.6 c-0.9,0-1.9-0.1-2.8-0.4s-1.7-0.6-2.3-1.1l1.2-2.4c0.5,0.4,1.1,0.7,1.7,0.9c0.7,0.2,1.3,0.3,2,0.3c0.8,0,1.4-0.2,1.8-0.5 s0.7-0.7,0.7-1.3c0-0.6-0.2-1-0.7-1.3c-0.5-0.3-1.3-0.4-2.4-0.4h-3.4l0.7-7.5h8.1v2.5h-5.5l-0.2,2.5h1.1 C754.1,316.7,755.5,317.1,756.4,317.8z"></path> <path class="st10" d="M764.1,311.7V325H761v-10.8h-2.7v-2.5H764.1z"></path> <path class="st10" d="M767.1,317.9c-0.6-0.7-0.9-1.6-0.9-2.7c0-1.1,0.3-2,0.9-2.7c0.6-0.7,1.4-1,2.4-1s1.8,0.3,2.4,1 s0.9,1.6,0.9,2.7c0,1.1-0.3,2-0.9,2.7c-0.6,0.7-1.4,1-2.4,1S767.7,318.5,767.1,317.9z M770.5,316.8c0.2-0.4,0.4-0.9,0.4-1.6 c0-0.7-0.1-1.2-0.4-1.6c-0.2-0.4-0.6-0.5-1-0.5c-0.4,0-0.8,0.2-1,0.5c-0.3,0.4-0.4,0.9-0.4,1.6s0.1,1.2,0.4,1.6 c0.3,0.4,0.6,0.5,1,0.5C769.9,317.3,770.3,317.1,770.5,316.8z M777.4,311.7h2.3l-9.1,13.3h-2.3L777.4,311.7z M776.8,324.7 c-0.5-0.3-0.9-0.7-1.2-1.3c-0.3-0.6-0.4-1.2-0.4-1.9c0-0.7,0.1-1.4,0.4-1.9c0.3-0.6,0.7-1,1.2-1.3s1.1-0.4,1.7-0.4 c1,0,1.8,0.3,2.4,1c0.6,0.7,0.9,1.6,0.9,2.7c0,1.1-0.3,2-0.9,2.7c-0.6,0.7-1.4,1-2.4,1C777.9,325.1,777.3,325,776.8,324.7z M779.5,323c0.2-0.4,0.4-0.9,0.4-1.6s-0.1-1.2-0.4-1.6c-0.2-0.4-0.6-0.5-1-0.5c-0.4,0-0.8,0.2-1,0.5s-0.4,0.9-0.4,1.6 c0,0.7,0.1,1.2,0.4,1.6c0.3,0.4,0.6,0.5,1,0.5C779,323.6,779.3,323.4,779.5,323z"></path> </g> </g> <g> <g> <path class="st10" d="M752.8,173.5v13.3h-3.1v-10.8H747v-2.5H752.8z"></path> <path class="st10" d="M765,184.2v2.5h-10v-2l5.1-4.8c0.5-0.5,0.9-1,1.1-1.3c0.2-0.4,0.3-0.7,0.3-1.1c0-0.5-0.2-0.9-0.5-1.2 c-0.4-0.3-0.9-0.4-1.6-0.4c-0.6,0-1.1,0.1-1.6,0.3c-0.5,0.2-0.9,0.6-1.2,1l-2.2-1.4c0.5-0.8,1.2-1.4,2.1-1.8s2-0.7,3.1-0.7 c1,0,1.9,0.2,2.6,0.5c0.7,0.3,1.3,0.8,1.7,1.4c0.4,0.6,0.6,1.3,0.6,2.1c0,0.7-0.2,1.4-0.5,2c-0.3,0.6-0.9,1.4-1.8,2.2l-3.1,2.9 H765z"></path> <path class="st10" d="M767.2,179.6c-0.6-0.7-0.9-1.6-0.9-2.7c0-1.1,0.3-2,0.9-2.7c0.6-0.7,1.4-1,2.4-1s1.8,0.3,2.4,1 s0.9,1.6,0.9,2.7c0,1.1-0.3,2-0.9,2.7c-0.6,0.7-1.4,1-2.4,1S767.8,180.3,767.2,179.6z M770.6,178.5c0.2-0.4,0.4-0.9,0.4-1.6 c0-0.7-0.1-1.2-0.4-1.6c-0.2-0.4-0.6-0.5-1-0.5c-0.4,0-0.8,0.2-1,0.5c-0.3,0.4-0.4,0.9-0.4,1.6s0.1,1.2,0.4,1.6 c0.3,0.4,0.6,0.5,1,0.5C770,179.1,770.3,178.9,770.6,178.5z M777.5,173.5h2.3l-9.1,13.3h-2.3L777.5,173.5z M776.9,186.5 c-0.5-0.3-0.9-0.7-1.2-1.3c-0.3-0.6-0.4-1.2-0.4-1.9c0-0.7,0.1-1.4,0.4-1.9c0.3-0.6,0.7-1,1.2-1.3s1.1-0.4,1.7-0.4 c1,0,1.8,0.3,2.4,1c0.6,0.7,0.9,1.6,0.9,2.7c0,1.1-0.3,2-0.9,2.7c-0.6,0.7-1.4,1-2.4,1C777.9,186.9,777.4,186.8,776.9,186.5z M779.6,184.8c0.2-0.4,0.4-0.9,0.4-1.6s-0.1-1.2-0.4-1.6c-0.2-0.4-0.6-0.5-1-0.5c-0.4,0-0.8,0.2-1,0.5s-0.4,0.9-0.4,1.6 c0,0.7,0.1,1.2,0.4,1.6c0.3,0.4,0.6,0.5,1,0.5C779,185.3,779.3,185.2,779.6,184.8z"></path> </g> </g> <g> <g> <path class="st10" d="M760,128.7c1.1,1.1,1.6,2.8,1.6,4.9c0,1.5-0.3,2.8-0.8,3.9c-0.6,1.1-1.4,1.9-2.4,2.5c-1,0.6-2.2,0.8-3.6,0.8 c-0.7,0-1.4-0.1-2-0.2c-0.6-0.2-1.2-0.4-1.7-0.7l1.1-2.3c0.6,0.4,1.5,0.7,2.5,0.7c1.1,0,2-0.3,2.7-1s1-1.6,1.1-2.9 c-0.8,0.8-1.9,1.2-3.3,1.2c-0.8,0-1.6-0.2-2.3-0.5c-0.7-0.3-1.2-0.8-1.7-1.5c-0.4-0.6-0.6-1.4-0.6-2.2c0-0.9,0.2-1.7,0.7-2.3 s1-1.2,1.8-1.5c0.8-0.4,1.6-0.5,2.6-0.5C757.5,127,759,127.6,760,128.7z M757.5,132.7c0.4-0.4,0.6-0.9,0.6-1.4s-0.2-1.1-0.6-1.4 c-0.4-0.4-1-0.6-1.7-0.6c-0.7,0-1.2,0.2-1.6,0.5s-0.6,0.8-0.6,1.4s0.2,1.1,0.6,1.5c0.4,0.4,1,0.5,1.6,0.5 C756.6,133.3,757.1,133.1,757.5,132.7z"></path> <path class="st10" d="M763.8,133.4c-0.6-0.7-0.9-1.6-0.9-2.7c0-1.1,0.3-2,0.9-2.7c0.6-0.7,1.4-1,2.4-1c1,0,1.8,0.3,2.4,1 c0.6,0.7,0.9,1.6,0.9,2.7c0,1.1-0.3,2-0.9,2.7c-0.6,0.7-1.4,1-2.4,1C765.2,134.4,764.4,134.1,763.8,133.4z M767.2,132.4 c0.2-0.4,0.4-0.9,0.4-1.6c0-0.7-0.1-1.2-0.4-1.6s-0.6-0.5-1-0.5c-0.4,0-0.8,0.2-1,0.5s-0.4,0.9-0.4,1.6s0.1,1.2,0.4,1.6 c0.3,0.4,0.6,0.5,1,0.5C766.6,132.9,766.9,132.7,767.2,132.4z M774.1,127.3h2.3l-9.1,13.3H765L774.1,127.3z M773.5,140.3 c-0.5-0.3-0.9-0.7-1.2-1.3c-0.3-0.6-0.4-1.2-0.4-1.9c0-0.7,0.1-1.4,0.4-1.9c0.3-0.6,0.7-1,1.2-1.3c0.5-0.3,1.1-0.4,1.7-0.4 c1,0,1.8,0.3,2.4,1c0.6,0.7,0.9,1.6,0.9,2.7c0,1.1-0.3,2-0.9,2.7c-0.6,0.7-1.4,1-2.4,1C774.6,140.7,774,140.6,773.5,140.3z M776.2,138.6c0.2-0.4,0.4-0.9,0.4-1.6s-0.1-1.2-0.4-1.6c-0.2-0.4-0.6-0.5-1-0.5c-0.4,0-0.8,0.2-1,0.5c-0.3,0.4-0.4,0.9-0.4,1.6 c0,0.7,0.1,1.2,0.4,1.6c0.3,0.4,0.6,0.5,1,0.5C775.6,139.2,776,139,776.2,138.6z"></path> </g> </g> </svg> 