<?xml version="1.0" encoding="UTF-8"?> <!-- Generator: Adobe Illustrator 24.1.0, SVG Export Plug-In . SVG Version: 6.00 Build 0) --> <svg xmlns="http://www.w3.org/2000/svg" xmlns:xlink="http://www.w3.org/1999/xlink" version="1.1" id="Layer_1" x="0px" y="0px" viewBox="0 0 135.4 139.1" style="enable-background:new 0 0 135.4 139.1;" xml:space="preserve"> <style type="text/css"> .st0{fill:#0F1536;} .st1{fill:none;stroke:#00F0FF;stroke-width:5.5963;stroke-linecap:round;stroke-linejoin:round;} </style> <g id="Group_254" transform="translate(989.353 -1205.881)"> <g id="Group_250" transform="translate(-964.236 1205.881)"> <path id="Path_386" class="st0" d="M59.9,46.1c-1.5,0-2.6-1.1-2.6-2.6V33c0-1.6-1.3-2.9-2.9-2.9H30.9c-1.6,0-2.9,1.3-2.9,2.9v9.9 c0,1.5-1.2,2.6-2.6,2.6c-1.5,0-2.6-1.2-2.6-2.6V33c0-4.5,3.7-8.2,8.2-8.2h23.3c4.5,0,8.2,3.7,8.2,8.2v10.5 C62.5,45,61.2,46.1,59.9,46.1z"></path> </g> <g id="Group_251" transform="translate(-955.805 1237.797)"> <path id="Path_387" class="st0" d="M34.2,62.1c-5,0-9-4-9-9v-10c0-5,4-9,9-9s9,4,9,9v10C43.2,58.1,39.2,62.1,34.2,62.1z M34.2,38.8c-2.4,0-4.3,2-4.3,4.3v10c0,2.4,2,4.3,4.3,4.3c2.4,0,4.3-2,4.3-4.3v-10C38.5,40.8,36.5,38.8,34.2,38.8z"></path> </g> <line id="Line_101" class="st1" x1="-921.6" y1="1282.1" x2="-921.6" y2="1290.3"></line> <g id="Group_252" transform="translate(-989.353 1219.586)"> <path id="Path_388" class="st0" d="M107.1,100.6H28.2c-7.1,0-12.8-5.7-12.8-12.8V41.5c0-7.1,5.7-12.8,12.8-12.8h78.8 c7.1,0,12.8,5.7,12.8,12.8v46.4C119.9,94.8,114.2,100.6,107.1,100.6z M28.2,33.9c-4.1,0-7.6,3.4-7.6,7.6v46.4 c0,4.1,3.4,7.6,7.6,7.6h78.8c4.1,0,7.6-3.4,7.6-7.6V41.6c0-4.1-3.4-7.6-7.6-7.6L28.2,33.9z"></path> </g> <g id="Group_253" transform="translate(-989.353 1229.89)"> <path id="Path_389" class="st0" d="M67.3,59c-1,0-2.1,0-3.1-0.1c-28.6-1.5-47.4-22-48.1-22.8c-1-1.1-0.9-2.7,0.2-3.7l0,0 c1.1-1,2.7-0.9,3.7,0.2l0,0c0.1,0.2,18.2,19.9,44.6,21.1c17.3,0.9,34.5-6.3,51-21.4c1.1-1,2.7-0.9,3.7,0.1l0,0 c1,1.1,0.9,2.7-0.1,3.7l0,0C102.5,51.3,85.1,59,67.3,59z"></path> </g> </g> </svg> 