<?xml version="1.0" encoding="utf-8"?>
<!-- Generator: Adobe Illustrator 24.1.0, SVG Export Plug-In . SVG Version: 6.00 Build 0)  -->
<svg version="1.1" id="Layer_1" xmlns="http://www.w3.org/2000/svg" xmlns:xlink="http://www.w3.org/1999/xlink" x="0px" y="0px"
	 viewBox="0 0 2524.3 1275.2" style="enable-background:new 0 0 2524.3 1275.2;" xml:space="preserve">
<style type="text/css">
	.st0{fill:#4095D5;}
	.st1{fill:#B3680A;}
	.st2{fill:#234175;}
	.st3{fill:#00F0FF;}
	.st4{fill:#0166FF;}
	.st5{fill:#8CADFF;}
	.st6{fill:#B3C9FF;}
	.st7{fill:#8224E3;}
	.st8{fill:#00F1C0;}
	.st9{fill:#4F2674;}
	.st10{fill:#F4ACC8;}
	.st11{fill:#945561;}
	.st12{fill:#0F2433;}
	.st13{fill:#EBF1F9;}
	.st14{fill:#B2E1E9;}
	.st15{fill:#E3E3E3;}
	.st16{fill:#55ACEE;}
	.st17{fill:#FFFFFF;}
	.st18{fill:none;stroke:#FFFFFF;stroke-width:7;stroke-linecap:round;stroke-miterlimit:10;}
	.st19{fill:none;stroke:#FFFFFF;stroke-width:7;stroke-linecap:round;stroke-miterlimit:10;stroke-dasharray:30.207,30.207;}
	.st20{fill:none;stroke:#FFFFFF;stroke-width:7;stroke-linecap:round;stroke-miterlimit:10;stroke-dasharray:30.3657,30.3657;}
	.st21{fill:none;stroke:#FFFFFF;stroke-width:7;stroke-linecap:round;stroke-miterlimit:10;stroke-dasharray:29.6017,29.6017;}
	.st22{fill:none;stroke:#FFFFFF;stroke-width:7;stroke-linecap:round;stroke-miterlimit:10;stroke-dasharray:29.1784,29.1784;}
	.st23{fill:none;stroke:#FFFFFF;stroke-width:7;stroke-linecap:round;stroke-miterlimit:10;stroke-dasharray:28.7603,28.7603;}
	.st24{fill:#25907E;}
	.st25{fill:#0030AD;}
	.st26{fill-rule:evenodd;clip-rule:evenodd;fill:#FFFFFF;}
	.st27{fill:url(#SVGID_1_);}
	.st28{fill:none;stroke:#FFFFFF;stroke-width:8;stroke-linecap:round;stroke-linejoin:round;stroke-miterlimit:10;}
	.st29{fill:none;stroke:#FFFFFF;stroke-width:7.1829;stroke-linecap:round;stroke-linejoin:round;stroke-miterlimit:10;}
	.st30{fill:none;stroke:#FFFFFF;stroke-width:7.4831;stroke-linecap:round;stroke-linejoin:round;stroke-miterlimit:10;}
</style>
<g>
	<g>
		<path class="st0" d="M720.6,892.8l-15,4.6c0,0-29.8-51.5-41.6-78.3l28-15.1c12,30.2,22.7,54.1,30.1,82.8L720.6,892.8z"/>
		<path class="st1" d="M542.1,1175.5l10.1,4.7l12.7-17.9l-13.8-8.6C548.1,1160.8,545.2,1168,542.1,1175.5z"/>
		<path class="st2" d="M684.6,937.7l-77-0.2c0,0-7,48.4-10.9,90.2c-1.2,12.5-5,24.5-10.8,35.6c-14,26.9-21.5,57.8-34.9,90.3
			l13.8,8.6l64.5-85.4c4.7-6.5,8.5-13.5,11.4-20.9C653.1,1024.6,684.6,937.7,684.6,937.7z"/>
		<path class="st2" d="M715.7,1052L686,937.7l-77.2-0.3c6.5,36.4,35.7,74.7,58.7,114.2c3.5,6,6.4,12.4,8.4,19
			c10.9,34.5,24.4,67.9,45.1,102l16.2-5.8l-20.1-108.2C716.8,1056.3,716.3,1054.1,715.7,1052z"/>
		<path class="st1" d="M721.1,1172.4c4.1,6.7,8.3,13.5,12.7,20.7l8-3.6l-4.6-22.8L721.1,1172.4z"/>
		<polygon class="st3" points="733.8,1193.1 741.8,1189.5 758.2,1192.3 769.4,1189.2 772,1194.1 740.7,1208.3 		"/>
		<path class="st4" d="M681.9,893.2c0-19.4,8.6-61,10.5-84.5c0.5-6.2-3.3-12.1-9.2-14.1c-27.8-9.5-64.9-9.6-92.6,3.8
			c-1,31.9,17.9,100,17.9,100l-2.3,39.4h81.1L681.9,893.2L681.9,893.2z"/>
		<path class="st1" d="M622.7,789.1l36.5,31.7l7.7-30.5C652.8,787.6,637.4,787.1,622.7,789.1z"/>
		<path class="st4" d="M586.3,897.3l-14.2-6.7c0,0,7.1-86.9,18.4-92.3c17.7,7.1,27.1,26.4,21.9,44.7l-13.9,49L586.3,897.3z"/>
		<polygon class="st3" points="542.1,1175.5 552.2,1180.2 558.9,1195.3 567.6,1203 564.9,1207.9 534.1,1190.1 		"/>
		<path class="st1" d="M572.1,890.6c-1.2,6.5,0.1,12.3,3.7,16.7c4.5,5.5,12.9,5.8,18,0.8c18.7-18.5,43.7-43.1,52.2-56.4l-1.8-7.4
			L572.1,890.6z"/>
		<path class="st1" d="M646.1,851.7l13.7-1.9l8.5,3l0.1-2.7c0.1-3.2-1.6-6.1-4.4-7.5l-4.5-2.2l8.9-0.2l1-2l-14.4-0.1l-10.6,6.1
			L646.1,851.7z"/>
		<path class="st5" d="M691,862.8h24.8c2.4,0,5-2,5.8-4.4l14.2-47.2c0.7-2.4-0.7-4.4-3.1-4.4h-24.8c-2.4,0-5,2-5.8,4.4l-14.2,47.2
			C687.1,860.8,688.5,862.8,691,862.8z"/>
		<path class="st6" d="M694.4,862.8h24c2.4,0,5-2,5.8-4.4l14.2-47.2c0.7-2.4-0.7-4.4-3.1-4.4h-24c-2.4,0-5,2-5.8,4.4l-14.2,47.2
			C690.6,860.8,692,862.8,694.4,862.8z"/>
		<polygon class="st1" points="717.5,855.1 719.7,844.2 718.1,836.9 721,827.4 732.7,834.4 731.5,846.9 724.6,856.4 		"/>
		<path class="st1" d="M725.9,892l-1.3-35.6l-7.1-1.4l-12,30.8v11.6C713.2,908.2,725.9,906,725.9,892z"/>
		<g>
			<polygon class="st1" points="654.5,772.3 657.9,800.1 636.3,790.1 638.5,764.5 			"/>
			<path class="st1" d="M663.4,774.6c-0.9,4.3-5.9,7.2-13.3,2.3l-11-11.1l-2-19.7l10.7-14l23.5,6.8L663.4,774.6z"/>
			<path class="st7" d="M664.4,731.3l-14.7-2.9c-10.1-2.6-16.2,4-15.8,16l1,14.7c0.3,4,0,6,3.3,8.2l1-1.4c2.1-3,2.9-6.7,2.2-10.2
				c-0.5-2.7,0.4-5.1,1.9-5.3c1.5-0.3,3.1,1.7,3.5,4.3c6.7-3.8,5.5-13.6,12.7-13.9l-1,6.8l9.8-1c3-0.3,5.4-2.5,5.9-5.5
				C674.8,736.5,669,732.2,664.4,731.3z"/>
		</g>
	</g>
	<g>
		<path class="st8" d="M350.5,898.9l47.2,58.3l-3.3,6.3c-16.1-7.7-52.9-37.1-61.5-59.1L350.5,898.9z"/>
		<path class="st8" d="M350.5,898.9c-4,12.5-16.6,13.9-17.7,5.4c1.8-22.4,6.1-59.5,17.8-81.6l22.7,6.8L350.5,898.9z"/>
		<path class="st4" d="M369.6,916.8c-13.7,21.3-17,65.9-23.4,104.7c-1.9,11.6-3.3,25.3-12.6,32.6c-32.6,25.9-41.3,76.4-53.6,123.5
			l7.2,4c49.4-25.6,88.9-119.7,91.2-124.3l49.5-98.5L369.6,916.8z"/>
		<path class="st5" d="M470.3,865.3l22.7,7.4c2.2,0.7,5.2-0.3,6.6-2.3l27.1-39.1c1.4-2,0.7-4.3-1.5-5l-22.7-7.4
			c-2.2-0.7-5.2,0.3-6.6,2.3l-27.1,39.1C467.4,862.3,468,864.5,470.3,865.3z"/>
		<path class="st6" d="M467.8,864.5l22.7,7.4c2.2,0.7,5.2-0.3,6.6-2.3l27.1-39.1c1.4-2,0.7-4.3-1.5-5l-22.7-7.4
			c-2.2-0.7-5.2,0.3-6.6,2.3l-27.1,39.1C464.9,861.5,465.5,863.7,467.8,864.5z"/>
		<path class="st9" d="M468.6,862c-0.3-0.1-0.4-0.2-0.4-0.3s0-0.4,0.3-0.7l27.1-39.1c0.7-1.1,2.5-1.7,3.6-1.3l22.7,7.4
			c0.3,0.1,0.4,0.2,0.4,0.3s0,0.4-0.3,0.7l-27.1,39c-0.7,1.1-2.5,1.7-3.6,1.3L468.6,862z"/>
		<polygon class="st10" points="491.4,867.3 495.8,861.2 502.9,852.9 504.9,853.7 501.7,861.7 514.1,858.2 513.4,861.2 506.3,867.2 
			501.9,875.4 493.5,874.1 		"/>
		<polygon class="st10" points="396.7,801.1 391.3,816.9 377.8,814.7 382.5,792.2 		"/>
		<path class="st8" d="M424.2,916.9c0-21.4-14.8-82.5-15.6-100.4c-18.9-3.1-28.7-7.8-57.9,6.3c-1,30,19,94.1,19,94.1L424.2,916.9z"
			/>
		<path class="st8" d="M492.8,865.5L441.2,885l6,19c18.7-7.6,37.7-20.9,46.4-29.9L492.8,865.5z"/>
		<path class="st8" d="M450.7,886.5c5.7,11.8-2.5,21.5-9.1,16.1c-14.1-17.5-36.5-47.4-43.2-71.5l10.1-14.7
			c6.9,1.6,11.3,5.7,14.4,11.1L450.7,886.5z"/>
		<polygon class="st3" points="280.1,1177.7 287.3,1181.7 292.9,1194.8 301.2,1201.4 298,1205.6 270.7,1190.4 		"/>
		<polygon class="st3" points="463.1,1192.9 470.8,1189.9 484.4,1194 494.8,1191.8 496.1,1196.9 466.9,1208.3 		"/>
		<g>
			<path class="st10" d="M405.8,799.8c-0.3,4.1-4.8,7.4-12.1,3.6l-11.5-9.2l-4-18.2l8.4-14.2l22.7,3.8L405.8,799.8z"/>
			<path class="st11" d="M415.4,760c-5,1.6-15.4-0.7-27.8-1.8c-20.1-1.8-22.4,36.9-31.7,41.6l-11,5.1c-4.4,2.1-7,6.8-6.2,11.6
				c0.9,5.6,5.9,14.1,19.3,15.5c17,1.8,34.8-11.7,39.5-57.8l12.1-1.9C415.8,770.8,417.3,766.4,415.4,760z"/>
		</g>
		<path class="st4" d="M424.2,916.5h-54.5c-10.4,16-9.6,46.2-5.2,56.9c15.1,37,54.5,55.7,50.9,96.9c-4.3,49.6,13.3,83.7,47.6,122.3
			l7.7-3C469.2,1140.3,428.7,929.4,424.2,916.5z"/>
	</g>
	<g>
		<polygon class="st3" points="1081.2,1179.3 1081.2,1170.3 1061.8,1161.2 1053.6,1174.2 1074.5,1189 1095.7,1192.1 1097.3,1186.9 
					"/>
		<polygon class="st3" points="1234,1191.1 1253.7,1190.7 1267.4,1205.6 1281.9,1207.4 1282.2,1212.8 1234.9,1212.8 		"/>
		<path class="st4" d="M1229.4,929.3l-79.7-11.5c-9.5,35-13.2,66.3-16.2,97c-1.6,16-7.6,31.2-17.4,44c-21,27.2-39.1,63-54.2,102.5
			l19.3,9.6l84.5-97.6c6.1-7.1,11.1-15.1,14.6-23.8C1194,1015.9,1229.4,929.3,1229.4,929.3z"/>
		<path class="st4" d="M1238.2,906l-72.1,35.7c12,34.1,26.7,62.1,41.7,89.1c7.8,14.1,11.5,30,10.6,46.1
			c-1.9,34.4,3.6,74.1,13.5,115.1l21.8-1.3l13.8-130.1c1-9.3,0.5-18.7-1.5-27.8C1258.3,997.4,1238.2,906,1238.2,906z"/>
		<path class="st10" d="M1260.3,831l-24.8,20.1c15.5,16.2,29.7,30,29.7,30l13.4-7.4l2.9-12.7L1260.3,831z"/>
		<path class="st8" d="M1233.6,793.5c-10.2-10.2-35.2,7.7-30.8,20c7.3,10.3,20.4,24.8,32.7,37.6l24.8-20.1L1233.6,793.5z"/>
		<path class="st8" d="M1236,851.1l24.2-20c1.4-1.2,1.6-3.2,0.4-4.6l-7.2-8.7c-1.2-1.4-3.2-1.6-4.6-0.4l-24.2,20
			c-1.4,1.2-1.6,3.2-0.4,4.6l7.2,8.7C1232.6,852,1234.6,852.2,1236,851.1z"/>
		<path class="st10" d="M1271.4,856l-13.4,9.9l7.2,15.3c27.6,9.9,66,1.9,82.9-1.8l3.1-6.8L1271.4,856z"/>
		<path class="st8" d="M1225.8,790c-23.6-9.1-50.4-10.5-75.9-1c-5.4,2-9,7.1-9.1,12.9c-1,34.5-2.9,116.7-3.5,145.1
			c-0.1,5.4,4.2,9.8,9.6,9.8h95.4c5.6,0,10-4.7,9.6-10.3c-2.1-29-8.7-111.3-17.6-146.7C1233.2,795.3,1230,791.6,1225.8,790z"/>
		<path class="st10" d="M1212.7,785.8c-13.7-3.5-28.2-4.4-42.7-2.1c3.4,6.7,17.1,15.1,27.2,15.1
			C1206.1,798.8,1212.7,793.7,1212.7,785.8z"/>
		<polygon class="st10" points="1202.4,765.3 1205,788.2 1178.1,784 1185.9,757.7 		"/>
		<path class="st10" d="M1209.3,770.5c-0.3,4.3-4.9,7.7-12.6,3.9l-13.5-8l-3-20.2l8.6-14.9l23.6,3.6L1209.3,770.5z"/>
		<path class="st11" d="M1215.4,746.8c2.9,0.2,5.2-2.2,5-5l-1.4-14.3l-5.7,4.6l-23.5-4.6c-10.2-1.1-15.1,6.1-13,17.7l3,14.1
			c0.8,3.5,0.5,5.4,3.3,7l4.3-10l3.4,0.3l-1.5,13.8l4.7,4.1c7.7,6.1,13.6,3.4,15-1.3l0.8-9.5l-14.6-1.3l0.3-17.5l-5.2-3.4
			L1215.4,746.8z"/>
		<path class="st10" d="M1190.7,753.4c0.8,2.5,0.3,4.9-1.2,5.3c-1.4,0.4-3.2-1.3-4-3.8s-0.3-4.9,1.2-5.3
			C1188.1,749.2,1189.9,750.9,1190.7,753.4z"/>
		<path class="st10" d="M1081.4,856.9l8.1,13l12.8,2.2l29-22.9l-20.2-24.9C1095.1,841.2,1081.4,856.9,1081.4,856.9z"/>
		<path class="st8" d="M1145.7,791.1c-9.6,7.6-22.8,20.7-34.7,33.3l20.2,24.9l36-28.4C1177,810.1,1157.8,786.1,1145.7,791.1z"/>
		<polygon class="st10" points="1089.6,939.6 1092.9,942.4 1093.4,949.9 1098.6,955.3 1101,964.9 1087.5,965 1082,953.9 
			1081.7,943.6 		"/>
		<path class="st10" d="M1106.8,862.2l-10.3-13.1l-15,7.7c-8.9,27.9-4,70,0.2,86.8l11.3-1.2L1106.8,862.2z"/>
		<path class="st5" d="M1317.9,884.7h24.7c2.4,0,5-2,5.7-4.4l14.1-47.1c0.7-2.4-0.7-4.4-3.1-4.4h-24.7c-2.4,0-5,2-5.7,4.4
			l-14.1,47.1C1314.1,882.8,1315.5,884.7,1317.9,884.7z"/>
		<path class="st6" d="M1320.6,884.7h24.7c2.4,0,5-2,5.7-4.4l14.1-47.1c0.7-2.4-0.7-4.4-3.1-4.4h-24.7c-2.4,0-5,2-5.7,4.4
			l-14.1,47.1C1316.8,882.8,1318.2,884.7,1320.6,884.7z"/>
		<path class="st10" d="M1348.9,871.9l0.5-6.2l-4.4-6.7l2.9-9.5l11.7,7l-1.2,12.4l-6.9,9.5C1349.6,876.8,1348.7,874.4,1348.9,871.9z
			"/>
		<path class="st8" d="M1130.9,848.8l-20.5-23.8c-1.2-1.4-1-3.5,0.3-4.7l8.6-7.4c1.4-1.2,3.5-1,4.7,0.3l20.5,23.8
			c1.2,1.4,1,3.5-0.3,4.7l-8.6,7.4C1134.1,850.3,1132.1,850.2,1130.9,848.8z"/>
	</g>
	<g>
		<path class="st1" d="M981.1,895.1c-10.6-12.5-39.4-48.6-46.7-56.6c-11.7-12.9-29.2,1.3-20,16c5.7,9,60.2,67.8,74,57L981.1,895.1z"
			/>
		<path class="st1" d="M977.7,895.7l10.7,15.8c14.8-10.1,21.9-18.9,38.5-38.6l-4.2-7.9L977.7,895.7z"/>
		<polygon class="st1" points="1026.9,872.8 1031.5,866 1035.3,860.4 1035.9,851.6 1023.9,853.6 1020.9,864.3 1020,872.7 		"/>
		<path class="st7" d="M934.1,770.6l-23.9,6.4l-2.1,20.8l-1.3,36h24.8C945.9,810.9,952.4,776.9,934.1,770.6z"/>
		<path class="st2" d="M948.8,861.7c0-11.7-18.2-24.5-22.4-33.8c-10.4-2.6-18.4-2.3-29.5,1.6c-8.8,3.1-14.1,11.6-12.9,21.2
			c2,16.2,7.6,31.4,8.7,46.5h54.5C947.2,882.6,948.8,875.4,948.8,861.7z"/>
		<path class="st1" d="M870.9,942.7c-7.5,27.2-6,63.1-5.6,94.8c0.1,9.2-3.3,18.1-9.7,24.7c-23.7,24.6-42,54.2-64.2,84.8l5.5,5.6
			l91.5-74.5c5.9-4.8,10.1-11.3,11.9-18.7l24.3-94.9L870.9,942.7z"/>
		<path class="st1" d="M972,1069l-22.4-129c0,0-2.2-25.2-2.4-42.8h-54.5c-1,14.2-26.4,27.7-21.4,57.6c1.8,10.5,37.8,62.3,57.2,96
			c6.1,10.6,10.6,22.1,13.8,34c9.5,35.3,25.1,68.2,45.7,109l7.8-1L972,1069z"/>
		<polygon class="st2" points="791.4,1147 796.9,1152.6 799.5,1167.2 805.5,1175.7 802.2,1179.3 781.5,1158.1 		"/>
		<polygon class="st2" points="988,1193.7 995.8,1192.7 1009,1199.3 1019.4,1199.7 1020.3,1204.5 990.8,1208.3 		"/>
		<path class="st8" d="M952.2,939.9c0,0-4.8-25.2-5-42.8h-54.5C892,907,871.2,923,867.4,945c-4.1,23.8-4.6,55.4-2.1,91.1h101.2
			L952.2,939.9z"/>
		<polygon class="st1" points="925.7,811.1 926.6,835.2 906.2,827.4 911.2,804.3 		"/>
		<path class="st1" d="M927.7,812.1c-4.2-0.2-9.1-2.5-12-4.1c-1.8-1-3.2-2.6-4-4.5c-3-7.5-9.4-27.5,5.9-31.6c3.4-0.9,8.2,0.4,12.3,2
			c5.3,2.1,8.6,7.3,8.2,13c-0.4,6.4-1.4,12.9-3,19.5C934.3,809.7,931.2,812.2,927.7,812.1z"/>
		<path class="st7" d="M949.9,764.2c-3.1,2.8-6.6,4.4-10.7,3.4l-20-4.7c-8.9-2.2-25.6-3.4-25.6,20.3c0,11.4-13.5,7.1-22.9,40.7
			c7.3,7.8,37.1,13.5,46.9-9c6.9-15.8-1.9-26.5,7.1-34.3C936.7,780.6,949.9,781.4,949.9,764.2z"/>
		<g>
			<path class="st1" d="M910,852.2c-0.4-17.4-25.2-23.5-27.8-6.2c-1.6,10.6,3.7,96,21,96.8l5.1-17.2
				C908.5,911.2,910.3,863,910,852.2z"/>
			<path class="st1" d="M905.5,923.7l-2.2,19c16.2,2.2,27.2-0.7,52.7-4.8l3.7-8.1L905.5,923.7z"/>
			<polygon class="st1" points="955.9,938 965.6,936.4 972.1,934.6 978.4,928.4 967.9,922.1 958.6,928.2 952.5,934 			"/>
		</g>
		<path class="st5" d="M1029.2,871.5h22.1c2.2,0,4.5-1.8,5.1-4l12.6-42.1c0.7-2.2-0.6-4-2.8-4h-22.1c-2.2,0-4.5,1.8-5.1,4
			l-12.6,42.1C1025.8,869.8,1027,871.5,1029.2,871.5z"/>
		<path class="st6" d="M1026.8,871.5h22.1c2.2,0,4.5-1.8,5.1-4l12.6-42.1c0.7-2.2-0.6-4-2.8-4h-22.1c-2.2,0-4.5,1.8-5.1,4
			l-12.6,42.1C1023.4,869.8,1024.6,871.5,1026.8,871.5z"/>
		<path class="st9" d="M1026.8,869.1c-0.2,0-0.4-0.1-0.4-0.1c-0.1-0.1-0.1-0.3,0-0.7l12.6-42.1c0.3-1.1,1.7-2.2,2.8-2.2h22.1
			c0.2,0,0.4,0.1,0.4,0.1c0.1,0.1,0.1,0.3,0,0.7l-12.6,42.1c-0.3,1.1-1.7,2.2-2.8,2.2H1026.8z"/>
		<polygon class="st1" points="1026.9,858 1023.9,853.6 1034.2,845.3 1035.2,849.1 		"/>
	</g>
	<g>
		<polygon class="st2" points="50.2,1185.1 50.3,1171.1 42.1,1162.1 29.3,1171.8 41.9,1187.5 54.2,1197 57.2,1192.6 		"/>
		<path class="st8" d="M94.5,932.8c-5.6,29.5-7.5,62.4-7.5,93.8c0,12.8-3.4,25.5-10.2,36.3c-17.5,28-28.4,58.4-45.4,96.2l25.8,17.1
			l70.8-102.7c5.4-8.2,9-17.4,10.5-27l17.4-107.4L94.5,932.8z"/>
		<path class="st8" d="M200.4,932.8L95.8,933c7.6,19.1,42.6,76.9,61.3,109.9c6.2,11,9.4,23.5,9.2,36.1
			c-0.5,35.8,5.3,69.9,12.8,113.2h29.6l6.8-130.4c0.2-4.2,0.1-8.4-0.5-12.6L200.4,932.8z"/>
		<polygon class="st10" points="147.7,761.1 150.4,802 111.6,802.5 124.4,761.4 		"/>
		<path class="st10" d="M156.7,777.7l-3.6-0.8l3.1-13.2l3.1,11.4C159.7,776.6,158.3,778,156.7,777.7z"/>
		<path class="st10" d="M125.9,752.2l-2.8,11.6c-1.7,7,1.1,14.2,7,18.3l9.8,6.8c7.5,5.1,12.8,2.2,13.7-2.3c0,0,3.1-13.6,6.1-26.4
			c2.2-9.3-3.7-18.6-13-20.8C137.4,737.2,128.1,742.9,125.9,752.2z"/>
		<path class="st2" d="M175.2,828.7c-5-13.6-18.1-39.4-50.4-39.4c-16.6,0-30.5,19.6-33.7,31.7c-9.2,34.7,1.1,84.1,1.1,125.2L203,946
			C215.9,897.9,183.1,850.2,175.2,828.7z"/>
		<polygon class="st2" points="186.8,1192.2 200.6,1192.2 213.8,1201.2 224.9,1203 225.2,1208.3 187.8,1208.3 		"/>
		<path class="st5" d="M201.4,827.9h23.9c2.4,0,4.8-1.9,5.6-4.3l13.6-45.6c0.7-2.4-0.6-4.3-3-4.3h-23.9c-2.4,0-4.8,1.9-5.6,4.3
			l-13.6,45.6C197.7,826,199,827.9,201.4,827.9z"/>
		<path class="st6" d="M198.7,827.9h23.9c2.4,0,4.8-1.9,5.6-4.3l13.6-45.6c0.7-2.4-0.6-4.3-3-4.3h-23.9c-2.4,0-4.8,1.9-5.6,4.3
			l-13.6,45.6C195,826,196.4,827.9,198.7,827.9z"/>
		<path class="st9" d="M198.7,825.2c-0.3,0-0.4-0.1-0.5-0.1c-0.1-0.1-0.1-0.3,0-0.8l13.6-45.6c0.4-1.2,1.8-2.4,3-2.4h23.9
			c0.3,0,0.4,0.1,0.5,0.1c0.1,0.1,0.1,0.3,0,0.8l-13.6,45.6c-0.4,1.2-1.8,2.4-3,2.4H198.7z"/>
		<g>
			<path class="st2" d="M167.8,810.4c6.5,9.7,12,19.2,17.1,28.9L160.1,857c-8.6-12.6-16.6-25.6-21.3-36.2
				C131.1,803.6,157.3,794.8,167.8,810.4z"/>
			<path class="st10" d="M206.4,883.2l-11,14.7c0,0-18.2-15.7-35.4-40.9l24.8-17.7C192.1,853.1,198.6,867.2,206.4,883.2z"/>
			<path class="st10" d="M189.6,882.2l35.9-56.1l6.7,3.5c-1.5,15.7-12.6,47.8-27.2,67.2c-3.3,4.4-10.1,3.2-11.7-2.1L189.6,882.2z"/>
			<path class="st10" d="M225.5,826.1l3.7-12.3l7.3-8.8c0,0,1.7,5.3,1.9,8.4l0.4,5.5l-6.6,10.7L225.5,826.1z"/>
		</g>
		<path class="st9" d="M155.7,777.4l-4.9-1.1l-0.1-21.7l-24.8-5.8l-5.4,17.2c-1.4,4.4,1.3,9.1,5.8,10.2l9.2,2.2
			c1.2,0.3,2.5-0.5,2.8-1.7l2.3-8.7c0.3-1.2,1.6-2,2.8-1.7c1.3,0.3,2.1,1.6,1.8,2.8l-4.1,17.5c-0.4,1.6,0.4,3.4,2,4
			c5.8,2.4,9.7-0.3,10.5-4L155.7,777.4z"/>
		<path class="st9" d="M150.7,754.6l2.8-0.5c6.1-1.2,8.1-8.8,3.5-12.9c-13.2-11.9-27.8-8.3-43.4,6.3L150.7,754.6z"/>
		<polygon class="st10" points="228.6,821.4 232.5,817.2 223,806.6 221.3,810.5 		"/>
	</g>
	<g>
		<path class="st12" d="M2234,1243.8h-341c-25.4,0-46.1-20.6-46.1-46.1V423.5c0-25.4,20.6-46.1,46.1-46.1h341
			c25.4,0,46.1,20.6,46.1,46.1v774.2C2280,1223.1,2259.4,1243.8,2234,1243.8z"/>
		<path class="st13" d="M1897.8,413.7c-15.3,0-27.7,12.4-27.7,27.7V1143c0,15.3,12.4,27.7,27.7,27.7h330.6
			c15.3,0,27.7-12.4,27.7-27.7V441.4c0-15.3-12.4-27.7-27.7-27.7L1897.8,413.7L1897.8,413.7z"/>
		
			<ellipse transform="matrix(0.9244 -0.3815 0.3815 0.9244 4.2485 816.1363)" class="st14" cx="2060.6" cy="397.4" rx="9.2" ry="9.2"/>
		<path class="st3" d="M2109.4,1219.6h-97.7c-5.1,0-9.2-4.1-9.2-9.2s4.1-9.2,9.2-9.2h97.7c5.1,0,9.2,4.1,9.2,9.2
			C2118.5,1215.5,2114.4,1219.6,2109.4,1219.6z"/>
	</g>
	<g>
		<path class="st2" d="M2152,1001.4h-222.3c-13.8,66.1-18.1,113.2-21.2,169.6h113.7l9-33.8c1.9,15.1,3.8,24.9,5.7,33.8h105.8
			L2152,1001.4z"/>
		<path class="st8" d="M2239.8,862c-57.5-44.4-111.3-103.7-156.8-166.2c-34.8-46.6-19.2-70.6,15.8-83.7c22,1.6,40.6,9,57.8,30.9
			c49.4,63,70.8,99.7,108.3,162.9L2239.8,862z"/>
		<g>
			<path class="st15" d="M2292,656.6l-19.1-7.6l-19.9,50.7l36.1,16.2C2291.2,693.2,2291.8,672.3,2292,656.6z"/>
			<path class="st8" d="M2253,699.8l-42.6,108.4l29.4,53.9c32.2-33.7,52.9-93.8,57.7-145.1L2253,699.8z"/>
			<g>
				<path class="st2" d="M2310,684.4l-13.1,4.7c-6.1,2.2-12.9,0.8-17.6-3.6c-24.6-22.7-49.8-71.9-59.8-101.6l55.7-19.9
					c7.7,25,28,70.7,43.5,92C2326,666,2321.7,680.3,2310,684.4z"/>
				<path class="st4" d="M2261.2,569l-47.3,16.9c-26.1,9.3-54.8-4.3-64.1-30.4c-9.3-26.1,4.3-54.8,30.4-64.1l47.3-16.9L2261.2,569z"
					/>
				<path class="st4" d="M2220.6,479.3c-9.1,5-9.4,27.5-1,51.2s23,40.9,33.1,39l222.8,0.7l-82.9-232.4L2220.6,479.3z"/>
				
					<ellipse transform="matrix(0.9419 -0.3358 0.3358 0.9419 -10.6852 844.5254)" class="st2" cx="2436.5" cy="453.2" rx="48" ry="137.8"/>
				<path class="st4" d="M2391.5,469.2c5.6,15.7,11.9,30.3,18.6,43.6l50.8-27.8l-25.7-72l-56.9,10.7
					C2381.5,438.2,2385.9,453.6,2391.5,469.2z"/>
				
					<ellipse transform="matrix(0.9419 -0.3358 0.3358 0.9419 -8.634 848.1439)" class="st3" cx="2448" cy="449" rx="13.3" ry="38.2"/>
				<path class="st3" d="M2484.9,588.6c-14.7,5.2-33.2-4.9-52.3-28.5c-17.7-22-34.4-53.5-46.9-88.8c-12.6-35.3-19.6-70.3-19.8-98.5
					c-0.2-30.3,7.7-49.9,22.4-55.2c14.7-5.2,33.2,4.9,52.3,28.5c17.7,22,34.4,53.5,46.9,88.8c12.6,35.3,19.6,70.3,19.8,98.5
					C2507.6,563.8,2499.6,583.4,2484.9,588.6z M2392.4,329.1c-18.7,6.7-21.3,65,4.8,138.1s65,116.7,83.7,110s21.3-65-4.8-138.1
					C2450,365.9,2411.1,322.4,2392.4,329.1z"/>
			</g>
			<path class="st10" d="M2282,687.7l-28.8-40.8l-11.7-25.2l-6.8,3.2l5.8,29.8l17.6,27L2282,687.7z M2281.5,615.8l23.8,37.4
				l6.4-13.5l-6.6-16.1l-11.9-24.5l-4.7,0.3L2281.5,615.8z"/>
		</g>
		<path class="st8" d="M2138.2,895c1.3-48,9.8-154.9,12.7-223.1c1.2-27.2-16.6-51.6-42.8-58.7c-67.3-18.1-146.5-24-203.8,1.1
			c-15.8,6.9-25.5,22.4-24.8,40.5c3.5,91.7,50.5,240.1,50.5,240.1l-26.4,171.8h265.7L2137.9,895H2138.2z"/>
		<path class="st16" d="M2092.5,897.4L2081.8,607c-34.8-7.3-71.5-11-105.8-8.7l76.5,299.4l-6.2,129.3h48.3L2092.5,897.4z"/>
		<g>
			<path class="st15" d="M1763.7,676.9l-18.2,11.7c0.9,8.5,2.2,18.7,3.9,30l33.7-8.6L1763.7,676.9z"/>
			<polygon class="st10" points="1727.9,634.9 1780.3,628.2 1782.5,641.1 1793.9,648.2 1770.3,688.2 1745.5,688.6 			"/>
			<path class="st8" d="M1826.3,878c8.6-66.8,21-170.1,58.5-243.7l85.3,46.4c-20.6,71.6-53.8,163.9-86,223.2L1826.3,878z"/>
			<path class="st8" d="M1865.2,849.8L1783.1,710l-41.5,8.7c8.6,56.2,36.4,139.9,78.9,176.5c20.5,16.4,41.8,22.7,63.6,8.6
				L1865.2,849.8z"/>
		</g>
		<polygon class="st2" points="2046.3,1026.9 2044.4,1066.6 2098.9,1066.6 2094.6,1026.9 		"/>
		<g>
			<polygon class="st10" points="2055.7,564 2044.2,643.3 1992.2,599.6 2017.5,530.5 			"/>
			<path class="st10" d="M2081.2,558.4c0.8,12.5-11.2,24.2-35,16.1l-38.9-17.2l-19.7-58.4l19.3-46.4l69.9,1.6L2081.2,558.4z"/>
			<polygon class="st10" points="2071.8,496.4 2088.3,526.8 2074.5,529.3 			"/>
			<path class="st9" d="M2080.7,539.8l-19.2,3.3c-11.8,2.1-23.3-5-26.7-16.5c0,0-5.4-29.7-5.6-36.6l51.7-16l12.2-39.5l-17.2,4
				l-67.2,2.6c-29.9,0.8-41.3,23.6-30.9,56.4l14.2,39.8c3.8,10.7,4.7,16.5,15.6,19.9l3.9-11.4c2.3-6.9,1-14.4-3-20.5
				c-0.6-1-1.2-2.1-1.8-3.2c-3.2-7-2.6-14.1,1.3-15.9s9.7,2.4,12.9,9.4c2.8,6.1,4.5,48.2,4.5,48.2l25,12.7
				c24.3,6.6,35.4-5.8,33.9-18.3L2080.7,539.8z"/>
		</g>
		<polygon class="st17" points="1988.3,597.7 2016.9,666.9 2044.2,643.3 1996.9,586.9 		"/>
		<polygon class="st17" points="2057.8,602.6 2063.5,661.4 2044.2,643.3 2052,589.9 		"/>
		<g>
			<path class="st2" d="M1779.2,524v91.8c0,13.8-11.2,25-25,25s-25-11.2-25-25V524H1693v91.8c0,33.8,27.4,61.2,61.2,61.2
				s61.2-27.4,61.2-61.2V524H1779.2z"/>
			<rect x="1693" y="524" class="st3" width="36.2" height="30.7"/>
			<rect x="1779.2" y="524" class="st4" width="36.2" height="30.7"/>
		</g>
		<polygon class="st10" points="1736.9,633.7 1777.3,625.4 1781,636.6 1760.2,652.7 1742.9,652.1 		"/>
	</g>
	<g>
		<g>
			<g>
				<path class="st18" d="M168.6,473.4c3.3-3.7,6.7-7.4,10.1-11.1"/>
				<path class="st19" d="M199.8,440.7C583.7,63.9,1454.5,112,1728.4,482.6"/>
				<path class="st18" d="M1737.2,494.8c2.8,4.1,5.6,8.3,8.3,12.5"/>
			</g>
		</g>
		<g>
			<g>
				<path class="st18" d="M373.4,593.9c1.4-4.8,3-9.6,4.6-14.3"/>
				<path class="st20" d="M388.9,551.3c179.2-413,1032.7-379.4,1336.3-66.3"/>
				<path class="st18" d="M1735.6,496.1c3.4,3.7,6.7,7.5,9.9,11.3"/>
			</g>
		</g>
		<g>
			<g>
				<path class="st18" d="M681.9,395.7c2.2-4,5.3-7.9,9.2-11.8"/>
				<path class="st21" d="M714.8,366.4c139.8-81.8,643.4-121.7,1006.3,123.8"/>
				<path class="st18" d="M1733.3,498.6c4.1,2.9,8.2,5.8,12.2,8.7"/>
			</g>
		</g>
		<g>
			<g>
				<path class="st18" d="M895.3,558.8c1.7-4.7,3.6-9.3,5.8-13.8"/>
				<path class="st22" d="M916,519.9c100.1-140,450.4-214.1,803.6-26.8"/>
				<path class="st18" d="M1732.4,500c4.4,2.4,8.7,4.8,13.1,7.3"/>
			</g>
		</g>
		<g>
			<g>
				<path class="st18" d="M1132.1,469.4c3.8-3,7.9-5.8,12.3-8.6"/>
				<path class="st23" d="M1170,447.9c117.7-48.9,357.8-28,548.4,48.1"/>
				<path class="st18" d="M1731.7,501.4c4.6,1.9,9.2,3.9,13.8,5.9"/>
			</g>
		</g>
	</g>
	<g>
		<path class="st24" d="M1078.6,607.2h104.7c9.9,0,18-8,18-18V484.6c0-9.9-8-18-18-18h-104.7c-9.9,0-18,8-18,18v104.7
			C1060.7,599.2,1068.7,607.2,1078.6,607.2z"/>
		<path class="st2" d="M401.5,683.5h-56.8c-9.9,0-18-8-18-18v-56.8c0-9.9,8-18,18-18h56.8c9.9,0,18,8,18,18v56.8
			C419.4,675.5,411.4,683.5,401.5,683.5z"/>
		<path class="st17" d="M357.7,662.6c-0.6,0-1.2-0.2-1.7-0.5c-0.9-0.6-1.4-1.8-1.2-2.9l2.7-14.8L346.1,634c-0.8-0.8-1.1-1.9-0.8-3
			c0.4-1.1,1.3-1.8,2.4-2l15.6-2.2l7-13.5c0.5-1,1.5-1.6,2.7-1.6c1.1,0,2.2,0.6,2.7,1.6l7,13.5l15.6,2.2c1.1,0.2,2.1,0.9,2.4,2
			c0.4,1,0.1,2.2-0.8,3l-11.3,10.5l2.7,14.8c0.2,1.1-0.3,2.2-1.2,2.9c-0.9,0.6-2.2,0.7-3.1,0.2l-14-7l-14,7
			C358.7,662.5,358.2,662.6,357.7,662.6z"/>
		<path class="st25" d="M222,607.2H117.3c-9.9,0-18-8-18-18V484.6c0-9.9,8-18,18-18H222c9.9,0,18,8,18,18v104.7
			C239.9,599.2,231.9,607.2,222,607.2z"/>
		<path class="st4" d="M869.1,653.5h56.8c9.9,0,18-8,18-18v-56.8c0-9.9-8-18-18-18h-56.8c-9.9,0-18,8-18,18v56.8
			C851.1,645.5,859.2,653.5,869.1,653.5z"/>
		<path class="st17" d="M904.6,604.4c3.8-3.3,6.3-8.8,6.3-13.6c0-7.4-6-13.5-13.5-13.5c-7.4,0-13.5,6-13.5,13.5
			c0,4.9,2.6,10.3,6.4,13.6c-2.6,1.8-11.5,4.6-12,5.4c-3.2,5.4-4.7,11.5-4.7,18.6c0,7.9,16.6,8.8,23.7,8.8c7.1,0,23.7-0.9,23.7-8.8
			c0-7.1-1.6-13.2-4.7-18.6C916,608.9,907.1,606.1,904.6,604.4z"/>
		<path class="st25" d="M179.7,665.6c-0.8,0-1.6-0.3-2.2-0.9c-1.1-1.2-1.1-3.1,0.1-4.2c11.1-10.6,17.2-24.8,16.4-38.2
			c-0.6-9-4.4-16.6-10.7-21.2c-1.3-1-1.6-2.9-0.7-4.2c1-1.3,2.9-1.6,4.2-0.7c7.8,5.7,12.5,14.8,13.2,25.7c1,15.1-5.8,31.2-18.2,43
			C181.1,665.3,180.4,665.6,179.7,665.6z"/>
		<path class="st24" d="M1155.6,700.8c-0.6,0-1.2-0.2-1.7-0.5c-21.3-14.5-35.4-36.7-37.7-59.4c-1.6-16.2,3.1-30.7,13.1-40.9
			c1.2-1.2,3.1-1.2,4.2,0c1.2,1.2,1.2,3.1,0,4.2c-8.8,9-12.9,21.8-11.4,36.1c2.1,21,15.2,41.5,35.1,55c1.4,0.9,1.7,2.8,0.8,4.2
			C1157.5,700.4,1156.5,700.8,1155.6,700.8z"/>
		<path class="st8" d="M654,698.5c-1.4,0-2.7-1-2.9-2.4c-6.2-31,4.3-55,12.8-74.3c9.3-21.2,16.1-36.6,0.8-53.1
			c-1.1-1.2-1.1-3.1,0.2-4.2c1.2-1.1,3.1-1.1,4.2,0.2c18,19.4,9.8,38.1,0.3,59.6c-8.6,19.5-18.3,41.6-12.4,70.7
			c0.3,1.6-0.7,3.2-2.4,3.5C654.4,698.4,654.2,698.5,654,698.5z"/>
		<path class="st2" d="M391.3,728c-0.2,0-0.4,0-0.6-0.1c-1.6-0.3-2.7-1.9-2.4-3.5c2.3-12.5-6-22.2-14.1-31.6
			c-8.1-9.4-16.5-19.2-8.4-29.7c1-1.3,2.9-1.6,4.2-0.5c1.3,1,1.6,2.9,0.5,4.2c-4.9,6.3-0.3,12.2,8.2,22.1
			c8.1,9.5,18.3,21.2,15.4,36.6C393.9,727,392.7,728,391.3,728z"/>
		<path class="st4" d="M916.5,704.1c-1.8-0.1-3.1-1.5-3-3.1c0.7-14.4-4-20-9.4-26.5c-4.4-5.3-9.5-11.3-11-22.5
			c-0.2-1.6,0.9-3.2,2.6-3.4c1.6-0.2,3.2,0.9,3.4,2.6c1.3,9.5,5.4,14.3,9.7,19.5c5.7,6.8,11.6,13.9,10.8,30.6
			C919.4,702.9,918,704.1,916.5,704.1z"/>
		<g id="Ef3Suv_1_">
			<g>
				<path class="st17" d="M1166.9,529.9c-13.1,0-26.2,0.1-39.3,0.1c-8.8,0-17.7-0.1-26.5-0.1c-0.6-0.7-1.2-0.7-1.6,0.2
					c0,0.7-0.1,1.3-0.1,2c-0.6,0.5-0.6,1.1,0,1.6c0,12,0,23.9,0,35.9c-0.7,0.7-0.7,1.4,0,2.1c0,0.4,0,0.7,0,1.1
					c-0.1,0-0.2,0.1-0.2,0.1c0,0.1,0.1,0.3,0.2,0.4c0.2,1,1.1,0.7,1.7,1c-0.2,1.8,1,1.8,2.3,1.8c19,0,38,0,57,0
					c0.9,0,1.9,0.3,2.1-1.1c0.6,0,1.3,0.1,1.6-0.6c0-0.1,0-0.3,0.1-0.4c6.5-1.5,9.3-7,7.5-14.8c-1.5,0.1-2.8,1.3-4.3,1.1
					c-0.6-0.7-1.5-0.5-2.3-0.5c-5.2,0-10.3,0-15.5,0c-0.8,0-1.7-0.2-2.3,0.5c-4.6-0.1-7.9-3.3-8-7.8c-0.1-4.3,3-8,7.4-8.1
					c6.7-0.2,13.4,0,20,0.1c0.1,0.1,0.2,0.2,0.3,0.3l0,0c-0.1-0.1-0.2-0.2-0.2-0.3c3.5-0.9,5.5-2.9,5.3-6.7c0-1.1,0.4-2,1.5-2.3
					c1.4-0.4,1.7,0.8,2.4,1.6c-0.6,0.9-0.7,1.8,0.1,2.7c0,8,0,16,0,24c-0.7,0.7-0.6,1.4,0,2.1c-0.6,6.8-5.1,11.4-11.9,12.3
					c-1-0.7-2.1-0.3-3.2-0.3c-21.6,0-43.2,0-64.8,0c0-5.1,0-10.3,0-15.4c0-0.9,0.3-1.8-0.6-2.5c-3.7-1.1-6.9-2.7-8.2-6.8
					c-0.1-0.3-0.3-0.6-0.4-0.9c-0.4-0.9-0.7-1.8-0.5-2.8c0.8-0.8,0.5-1.9,0.5-2.8c0-11.9,0-23.8,0-35.7c0.4-0.1,0.9-0.1,0.8-0.7
					c0-0.2-0.5-0.3-0.8-0.4c0-0.9,0-1.8,0-2.7c1.2-1,1.3-2.1,0.5-3.4c1.1-3.5,4.1-4.3,7.2-5.1c0.9,0.6,1.9,0.3,2.9,0.3
					c18.7,0,37.4,0,56.1,0c1.3,0,2.7-0.3,3.9,0.7c1,0.7,1.4-0.1,1.7-1c0.6,0,1,0.2,1.2,0.8c-1.2,0.7-0.4,1.6-0.1,2.3
					c-0.9,1.3-2.3,0.8-3.5,0.8c-20.1,0-40.1,0-60.2,0c-4.4,0-5.7,1.1-6.5,5.5c-0.2,0-0.4,0-0.6,0c-0.1-0.3-0.1-0.7-0.5-0.8
					c-0.1,0-0.3,0.2-0.3,0.3c0.1,0.5,0.5,0.5,0.8,0.5c0,0.6,0.3,1,1,1.1c0.9,1.9,2.4,3,4.5,3.3c0.9,0.9,2.1,0.5,3.1,0.5
					c23.2,0,46.5,0,69.7,0c0.3-0.1,0.7-0.2,1-0.3c4.9,1.1,7.3,4.5,7,9.6c-0.2,0.1-0.4,0.1-0.6,0.2c0.2,0.1,0.4,0.2,0.5,0.3
					c-0.9,4-3.2,6.5-7.4,7C1168,529.2,1167.5,529.2,1166.9,529.9z M1093.5,515.8c-0.4-1.9-1.5-0.7-2.3-0.5c-0.7-0.1-0.8,0.5-0.9,1
					c-0.8,0.7-0.8,1.5,0,2.2c0,10.3,0,20.7,0,31c-0.4,0.2-0.3,0.4,0.1,0.5c0.4,0.9,0.7,1.9,1.3,2.6c1,1.3,1.9,3,4.1,2.3
					c0.1-0.1,0.2-0.1,0.2-0.1c0-0.1-0.1-0.3-0.2-0.4c0-0.9,0-1.8,0-2.7c0.9-0.8,0.5-1.9,0.5-2.8c0-6.5,0-13,0-19.5
					c0-1.1-0.1-2.2,0.5-3.2c8,0,16.1-0.1,24.1-0.1c14.8,0,29.6,0.1,44.4,0.1c0.7,0.7,1.4,0.7,2.2,0c1.1-0.4,2.1-0.8,3.2-1.3
					c0.3,0.5,0.5,1.2,1.3,1c0.1,0,0.3-0.4,0.3-0.6c-0.1-0.7-0.6-0.7-1.1-0.8c1.4-2.1,1.4-4.2-0.1-6.3c0.6-1.6,0.4-1.8-2.5-2.3
					c-0.2,0.2-0.4,0.4-0.6,0.6c-1,0-2,0.1-3,0.1c-21.7,0-43.3,0-65,0c-1.4,0-2.9-0.1-4.3-0.1c-0.2-0.4-0.4-0.4-0.6,0
					c-0.4,0-0.7,0-1.1-0.1C1093.9,516.1,1093.7,515.9,1093.5,515.8z M1148.3,554.3c1.1-0.2,1.8-0.8,1.8-1.9c0-1.2-0.8-1.8-1.9-1.8
					s-1.8,0.8-1.8,1.9C1146.4,553.6,1147.1,554.2,1148.3,554.3z M1167.4,576.2c-1.4-1.1-1.4-1.1-2.5-0.3
					C1165.6,576.6,1166.3,576.9,1167.4,576.2z M1089.9,504.7c0.1-0.2,0.2-0.3,0.2-0.4s-0.3-0.1-0.4-0.2c-0.1,0.2-0.2,0.3-0.2,0.4
					S1089.7,504.6,1089.9,504.7z"/>
				<path class="st17" d="M1162.6,575c-0.2,1.3-1.3,1.1-2.1,1.1c-19,0-38,0-57,0c-1.3,0-2.5,0-2.3-1.8c10.6,0,21.1-0.1,31.7-0.1
					c9.9,0,19.8,0.1,29.8,0.1C1162.6,574.6,1162.6,574.8,1162.6,575z"/>
				<path class="st17" d="M1124.3,506.5c6.4,0,12.9,0,19.3,0c0.9,0,2.4-0.5,2.4,0.9c0.1,1.5-1.4,1.1-2.3,1.1c-12.9,0-25.7,0-38.6,0
					c-0.9,0-2.4,0.4-2.3-1.1c0.1-1.4,1.5-0.9,2.4-0.9C1111.6,506.5,1117.9,506.5,1124.3,506.5z"/>
				<path class="st17" d="M1168,513c-23.2,0-46.5,0-69.7,0c-1,0-2.2,0.4-3.1-0.5c24.3,0,48.6,0,72.8,0
					C1168,512.7,1168,512.9,1168,513z"/>
				<path class="st17" d="M1096.2,577.7c21.6,0,43.2,0,64.8,0c1.1,0,2.2-0.3,3.2,0.3c-0.9,0.1-1.8,0.2-2.7,0.2c-21,0-42,0-63,0
					c-0.9,0-2,0.6-2.7-0.5C1095.9,577.7,1096.1,577.7,1096.2,577.7z"/>
				<path class="st17" d="M1159.3,498.6c-0.2,0.9-0.7,1.7-1.7,1c-1.2-0.9-2.6-0.7-3.9-0.7c-18.7,0-37.4,0-56.1,0c-1,0-2,0.3-2.9-0.3
					c0.9-0.1,1.8-0.2,2.7-0.2c19.7,0,39.5,0,59.2,0C1157.5,498.4,1158.4,498.5,1159.3,498.6z"/>
				<path class="st17" d="M1087,510.9c0,11.9,0,23.8,0,35.7c0,1,0.3,2-0.5,2.8c0-14.1,0-28.2,0-42.4c0.2,0,0.3,0,0.5,0
					c0,0.9,0,1.8,0,2.7C1087,510.1,1087,510.5,1087,510.9z"/>
				<path class="st17" d="M1147.4,560.3c0.6-0.7,1.5-0.5,2.3-0.5c5.2,0,10.3,0,15.5,0c0.8,0,1.7-0.2,2.3,0.5
					C1160.8,560.3,1154.1,560.3,1147.4,560.3z"/>
				<path class="st17" d="M1096.2,577.7c-0.2,0-0.3,0-0.5,0c0-6-0.1-11.9-0.1-17.9c0.9,0.6,0.6,1.6,0.6,2.5
					C1096.3,567.4,1096.2,572.6,1096.2,577.7z"/>
				<path class="st17" d="M1087,507c-0.2,0-0.3,0-0.5,0c-0.1-1.3,0.2-2.4,0.9-3.4C1088.3,504.9,1088.2,506,1087,507z"/>
				<path class="st17" d="M1160.5,501.7c-0.3-0.8-1.1-1.6,0.1-2.3C1161.3,500.2,1161.2,501,1160.5,501.7z"/>
				<path class="st17" d="M1176.1,539.7c-0.7-0.9-0.7-1.8-0.1-2.7C1176.1,537.9,1176.1,538.8,1176.1,539.7z"/>
				<path class="st17" d="M1089.7,508.1c0.2,0,0.4,0,0.6,0c0.1,0.4,0.2,0.7,0.4,1.1C1090,509.2,1089.7,508.8,1089.7,508.1
					L1089.7,508.1z"/>
				<path class="st17" d="M1176.1,565.7c-0.6-0.7-0.6-1.4,0-2.1C1176.1,564.3,1176.1,565,1176.1,565.7z"/>
				<path class="st17" d="M1099.5,571.7c-0.7-0.7-0.7-1.4,0-2.1C1099.5,570.3,1099.5,571,1099.5,571.7z"/>
				<path class="st17" d="M1099.6,530.1c0.4-0.9,0.9-0.9,1.6-0.2C1100.6,529.9,1100.1,530,1099.6,530.1z"/>
				<path class="st17" d="M1099.5,533.7c-0.7-0.5-0.6-1.1,0-1.6C1099.5,532.6,1099.5,533.1,1099.5,533.7z"/>
				<path class="st17" d="M1162.6,575c0-0.2,0-0.4,0-0.7c0.1-0.1,0.3-0.2,0.5-0.2c0.4,0.1,0.8,0.2,1.2,0.2
					C1163.8,575.1,1163.2,575,1162.6,575z"/>
				<path class="st17" d="M1166.9,529.9c0.5-0.7,1-0.7,1.6,0C1168,529.8,1167.5,529.9,1166.9,529.9z"/>
				<path class="st17" d="M1176,522.8c-0.2-0.1-0.4-0.2-0.5-0.3c0.2-0.1,0.4-0.1,0.6-0.2C1176,522.5,1176,522.6,1176,522.8z"/>
				<path class="st17" d="M1164.2,574.4c-0.4-0.1-0.8-0.2-1.2-0.2c0.4-0.3,0.8-0.3,1.2-0.2C1164.2,574.1,1164.2,574.3,1164.2,574.4z
					"/>
				<path class="st17" d="M1168,513c0-0.2,0-0.3,0-0.5c0.3,0,0.7,0.1,1,0.1C1168.7,512.8,1168.4,512.9,1168,513z"/>
				<path class="st17" d="M1087.1,552.2c0.1,0.3,0.3,0.6,0.4,0.9C1087.4,552.8,1087.2,552.5,1087.1,552.2z"/>
				<path class="st17" d="M1099.5,573.4c-0.1-0.1-0.1-0.2-0.2-0.4c0,0,0.1-0.1,0.2-0.1C1099.5,573,1099.5,573.2,1099.5,573.4z"/>
				<path class="st17" d="M1095.7,551.6c0-8-0.1-16-0.1-24c0-0.8-0.2-1.8,1.1-1.5c-0.6,1-0.5,2.1-0.5,3.2c0,6.5,0,13,0,19.5
					C1096.2,549.8,1096.6,550.8,1095.7,551.6z"/>
				<path class="st24" d="M1148.3,554.3c-1.2-0.1-1.9-0.7-1.9-1.8c-0.1-1.1,0.6-1.9,1.8-1.9c1.1,0,1.9,0.6,1.9,1.8
					C1150.1,553.5,1149.4,554.1,1148.3,554.3z"/>
				<path class="st17" d="M1171,518c-0.8-0.5-1.7-1-2.5-1.6c0-0.2,0-0.5,0.1-0.7C1171.4,516.2,1171.6,516.4,1171,518z"/>
				<path class="st17" d="M1167.4,576.2c-1.2,0.7-1.9,0.5-2.5-0.3C1166.1,575.1,1166.1,575.1,1167.4,576.2z"/>
				<path class="st17" d="M1093.6,516.2c-0.9,0-1.7-0.3-2.3-0.9c0.9-0.2,1.9-1.4,2.3,0.5C1093.5,515.9,1093.5,516.1,1093.6,516.2z"
					/>
				<path class="st17" d="M1170.7,524.8c0.1-0.2,0.3-0.3,0.4-0.5c0.5,0.1,1.1,0.1,1.1,0.8c0,0.2-0.2,0.6-0.3,0.6
					C1171.2,526,1170.9,525.4,1170.7,524.8z"/>
				<path class="st17" d="M1165.3,526.1c0.7,0,1.4,0,2.2,0C1166.7,526.9,1166,526.9,1165.3,526.1z"/>
				<path class="st17" d="M1087,510.9c0-0.4,0-0.7,0-1.1c0.3,0.1,0.8,0.2,0.8,0.4C1088,510.8,1087.4,510.8,1087,510.9z"/>
				<path class="st17" d="M1089.9,504.7c-0.2-0.1-0.4-0.1-0.4-0.2s0.1-0.3,0.2-0.4c0.1,0.1,0.4,0.1,0.4,0.2
					C1090.1,504.3,1089.9,504.5,1089.9,504.7z"/>
				<path class="st17" d="M1090.3,516.3c0,0.7,0,1.5,0,2.2C1089.5,517.7,1089.5,517,1090.3,516.3z"/>
				<path class="st17" d="M1089.7,508.1c-0.3-0.1-0.7-0.1-0.8-0.5c0-0.1,0.2-0.3,0.3-0.3C1089.7,507.4,1089.7,507.8,1089.7,508.1
					L1089.7,508.1z"/>
				<path class="st17" d="M1166.8,544.5c0.1,0.1,0.2,0.2,0.2,0.3l0,0C1167,544.7,1166.9,544.6,1166.8,544.5L1166.8,544.5z"/>
				<path class="st17" d="M1090.3,549.5c0.1,0.2,0.1,0.3,0.1,0.5C1090,549.9,1089.9,549.7,1090.3,549.5z"/>
				<path class="st17" d="M1095.7,554.9c0-0.2,0-0.4,0-0.5c0.1,0.1,0.2,0.2,0.2,0.4C1095.9,554.8,1095.8,554.8,1095.7,554.9z"/>
				<path class="st17" d="M1168.6,515.8c0,0.2,0,0.5-0.1,0.7c-0.2,0-0.4,0-0.5-0.1C1168.2,516.1,1168.4,516,1168.6,515.8z"/>
				<path class="st17" d="M1095.7,516.3c-0.2,0-0.4,0-0.6,0C1095.3,515.9,1095.5,515.9,1095.7,516.3z"/>
				<path class="st17" d="M1093.6,516.2c0-0.2,0-0.3,0-0.5c0.2,0.2,0.4,0.3,0.5,0.5h-0.3H1093.6z"/>
				<path class="st17" d="M1116.8,521.8c-0.4-0.7-0.1-1,0.7-1c0.7,0.7,1.5,0.5,2.3,0.5c12.4,0,24.8,0,37.1,0c0.8,0,1.6,0.2,2.3-0.4
					c0.8,0.5,0.9,0.9,0,1.4c-0.9-0.7-1.8-0.7-2.7,0.1c-12.5,0-25,0-37.5,0C1118.5,521.5,1117.6,521.8,1116.8,521.8z"/>
				<path class="st17" d="M1159.3,520.8c-0.7,0.6-1.5,0.4-2.3,0.4c-12.4,0-24.8,0-37.1,0c-0.8,0-1.6,0.2-2.3-0.5
					C1131.4,520.6,1145.3,520.5,1159.3,520.8z"/>
				<path class="st17" d="M1156.6,522.3c0.9-0.8,1.8-0.8,2.7-0.1C1158.4,522.2,1157.5,522.2,1156.6,522.3z"/>
				<path class="st17" d="M1116.8,521.8c0.8,0,1.6-0.3,2.3,0.5C1118.3,522.2,1117.4,522.8,1116.8,521.8z"/>
			</g>
		</g>
		<g>
			<path class="st26" d="M200,561.6h-63.6c-9.9,0-17.9-7.6-17.9-17.1s8-17.1,17.9-17.1h1.1c2.6-7,9.5-11.9,17.7-11.9h3.7
				c4.7-8.9,15.3-13.7,25-12.8c5.9,0.6,11.6,3.2,15.8,8.3c3.3,4,5.5,9.3,6.2,15.6c7.4,2.4,12.8,9.1,12.8,17
				C218.8,553.6,210.4,561.6,200,561.6z M200,531.8c6.9,0,12.5,5.3,12.5,11.9c0,6.6-5.6,11.9-12.5,11.9h-63.6
				c-6.4,0-11.6-5-11.6-11.1s5.2-11.1,11.6-11.1h6.3c0-6.6,5.6-11.9,12.5-11.9h8.1C167.7,504.5,200,501,200,531.8z"/>
			<path class="st17" d="M203.5,502.7c-19.3,11.5-33.6,32.1-33.6,32.1l-12-7.2l-1,1.5l15.1,17.8h1.1c0,0,7.5-19.3,31-42.8
				L203.5,502.7z"/>
		</g>
		<linearGradient id="SVGID_1_" gradientUnits="userSpaceOnUse" x1="663.3" y1="576.4569" x2="663.3" y2="388.7431">
			<stop  offset="0" style="stop-color:#41BCE4"/>
			<stop  offset="1" style="stop-color:#05CF9B"/>
		</linearGradient>
		<path class="st27" d="M733.2,576.5H593.4c-13.2,0-24-10.7-24-24V412.7c0-13.2,10.7-24,24-24h139.8c13.2,0,24,10.7,24,24v139.8
			C757.2,565.7,746.4,576.5,733.2,576.5z"/>
		<g>
			<line class="st28" x1="699" y1="439.7" x2="711.4" y2="423.5"/>
			<line class="st29" x1="690.9" y1="537.1" x2="701.4" y2="547.5"/>
			<line class="st30" x1="615.2" y1="417.7" x2="625.4" y2="429.3"/>
			<line class="st28" x1="625.6" y1="543.2" x2="633.4" y2="534.2"/>
			<polygon class="st28" points="661.8,433.3 661.8,482.2 688.5,482.2 661.8,538.7 661.8,505.2 626.9,505.2 661.8,429.3 			"/>
		</g>
	</g>
</g>
</svg>
