<?xml version="1.0" encoding="UTF-8"?> <!-- Generator: Adobe Illustrator 24.1.0, SVG Export Plug-In . SVG Version: 6.00 Build 0) --> <svg xmlns="http://www.w3.org/2000/svg" xmlns:xlink="http://www.w3.org/1999/xlink" version="1.1" id="Capa_1" x="0px" y="0px" viewBox="0 0 279.6 53.3" style="enable-background:new 0 0 279.6 53.3;" xml:space="preserve"> <style type="text/css"> .st0{enable-background:new ;} .st1{fill:#FFFFFF;} </style> <g class="st0"> <path class="st1" d="M88.8,19l0-11.1l-5.5,9.2h-1.4L76.4,8v11h-3V2.2H76l6.7,11.1l6.6-11.1h2.6l0,16.8H88.8z"></path> <path class="st1" d="M108.4,6.2V19h-2.9v-1.6c-0.5,0.6-1.1,1-1.8,1.3c-0.7,0.3-1.5,0.5-2.3,0.5c-1.7,0-3.1-0.5-4-1.4 c-1-1-1.5-2.4-1.5-4.2V6.2h3v6.9c0,1.2,0.3,2,0.8,2.6c0.5,0.6,1.3,0.9,2.2,0.9c1.1,0,1.9-0.3,2.6-1c0.6-0.7,0.9-1.6,0.9-2.9V6.2 H108.4z"></path> <path class="st1" d="M113.3,18.8c-1-0.3-1.8-0.6-2.4-1l1.2-2.3c0.6,0.4,1.3,0.7,2.1,0.9c0.8,0.2,1.6,0.3,2.4,0.3 c1.8,0,2.7-0.5,2.7-1.4c0-0.4-0.2-0.8-0.7-0.9s-1.2-0.3-2.2-0.5c-1.1-0.2-1.9-0.3-2.6-0.6c-0.7-0.2-1.2-0.6-1.7-1.1 c-0.5-0.5-0.7-1.2-0.7-2.2c0-1.2,0.5-2.2,1.5-2.9c1-0.7,2.4-1.1,4.1-1.1c0.9,0,1.8,0.1,2.6,0.3s1.6,0.5,2.2,0.8l-1.2,2.3 c-1.1-0.6-2.3-1-3.7-1c-0.9,0-1.5,0.1-2,0.4c-0.5,0.3-0.7,0.6-0.7,1c0,0.5,0.2,0.8,0.7,1c0.5,0.2,1.2,0.4,2.3,0.6 c1,0.2,1.9,0.3,2.5,0.6c0.7,0.2,1.2,0.6,1.7,1.1c0.5,0.5,0.7,1.2,0.7,2.1c0,1.2-0.5,2.2-1.6,2.9s-2.5,1.1-4.2,1.1 C115.3,19.2,114.3,19,113.3,18.8z"></path> <path class="st1" d="M124.9,3.6c-0.4-0.3-0.6-0.8-0.6-1.3c0-0.5,0.2-0.9,0.6-1.3s0.8-0.5,1.4-0.5s1,0.2,1.4,0.5 c0.4,0.3,0.6,0.7,0.6,1.2c0,0.5-0.2,1-0.5,1.3c-0.4,0.4-0.8,0.5-1.4,0.5C125.7,4.1,125.2,3.9,124.9,3.6z M124.7,6.2h3V19h-3V6.2z"></path> <path class="st1" d="M134,18.3c-1.1-0.6-1.9-1.3-2.5-2.3s-0.9-2.1-0.9-3.4c0-1.3,0.3-2.4,0.9-3.4s1.4-1.8,2.5-2.3 c1-0.6,2.2-0.8,3.6-0.8c1.3,0,2.4,0.3,3.3,0.8c1,0.5,1.7,1.2,2.1,2.2l-2.3,1.3c-0.4-0.6-0.8-1-1.4-1.3c-0.6-0.3-1.2-0.4-1.8-0.4 c-1.1,0-2,0.4-2.8,1.1c-0.7,0.7-1.1,1.7-1.1,2.9c0,1.2,0.4,2.2,1.1,2.9c0.7,0.7,1.7,1.1,2.8,1.1c0.7,0,1.3-0.1,1.8-0.4 c0.6-0.3,1-0.7,1.4-1.3l2.3,1.3c-0.5,1-1.2,1.7-2.2,2.2c-1,0.5-2.1,0.8-3.3,0.8C136.2,19.2,135,18.9,134,18.3z"></path> <path class="st1" d="M154,18.7c-1.2-0.4-2.2-0.9-2.9-1.5l1.1-2.4c0.7,0.5,1.5,1,2.5,1.3c1,0.3,2,0.5,3,0.5c1.2,0,2.2-0.2,2.8-0.6 c0.6-0.4,0.9-0.9,0.9-1.6c0-0.5-0.2-0.9-0.5-1.2c-0.3-0.3-0.8-0.6-1.3-0.7c-0.5-0.2-1.2-0.4-2.2-0.6c-1.3-0.3-2.3-0.6-3.1-0.9 s-1.5-0.8-2-1.4c-0.6-0.6-0.9-1.5-0.9-2.6c0-0.9,0.3-1.8,0.8-2.5s1.3-1.4,2.3-1.8c1-0.4,2.3-0.7,3.7-0.7c1,0,2,0.1,3,0.4 c1,0.3,1.8,0.6,2.6,1.1l-1,2.4c-0.7-0.4-1.5-0.8-2.3-1c-0.8-0.2-1.6-0.3-2.3-0.3c-1.2,0-2.1,0.2-2.7,0.6c-0.6,0.4-0.9,1-0.9,1.7 c0,0.5,0.2,0.9,0.5,1.2c0.3,0.3,0.8,0.5,1.3,0.7c0.5,0.2,1.2,0.4,2.2,0.6c1.2,0.3,2.3,0.6,3.1,0.9c0.8,0.3,1.5,0.8,2.1,1.4 s0.9,1.5,0.9,2.6c0,0.9-0.3,1.8-0.8,2.5c-0.5,0.8-1.3,1.4-2.3,1.8c-1,0.4-2.3,0.7-3.7,0.7C156.4,19.2,155.2,19.1,154,18.7z"></path> <path class="st1" d="M175,18.3c-0.4,0.3-0.8,0.5-1.3,0.6c-0.5,0.1-1,0.2-1.6,0.2c-1.4,0-2.5-0.4-3.3-1.1c-0.8-0.7-1.2-1.8-1.2-3.2 V8.7h-2.1V6.3h2.1V3.4h3v2.9h3.4v2.4h-3.4v6.1c0,0.6,0.2,1.1,0.5,1.4c0.3,0.3,0.7,0.5,1.3,0.5c0.7,0,1.2-0.2,1.7-0.5L175,18.3z"></path> <path class="st1" d="M184.9,6v2.9c-0.3,0-0.5-0.1-0.7-0.1c-1.2,0-2.1,0.3-2.7,1c-0.7,0.7-1,1.7-1,2.9V19h-3V6.2h2.9v1.9 C181.2,6.7,182.7,6,184.9,6z"></path> <path class="st1" d="M199.3,13.6h-10.1c0.2,0.9,0.6,1.7,1.4,2.2c0.7,0.6,1.7,0.8,2.8,0.8c1.4,0,2.6-0.5,3.5-1.4l1.6,1.8 c-0.6,0.7-1.3,1.2-2.2,1.6c-0.9,0.4-1.9,0.5-3,0.5c-1.4,0-2.6-0.3-3.7-0.8c-1.1-0.6-1.9-1.3-2.5-2.3c-0.6-1-0.9-2.1-0.9-3.4 c0-1.2,0.3-2.4,0.9-3.4c0.6-1,1.4-1.8,2.4-2.3c1-0.6,2.1-0.8,3.4-0.8c1.2,0,2.4,0.3,3.3,0.8c1,0.6,1.8,1.3,2.3,2.3 c0.6,1,0.8,2.2,0.8,3.5C199.4,12.9,199.4,13.2,199.3,13.6z M190.5,9.3c-0.7,0.6-1.1,1.3-1.2,2.3h7.3c-0.1-0.9-0.5-1.7-1.2-2.3 c-0.7-0.6-1.5-0.9-2.4-0.9C191.9,8.4,191.1,8.7,190.5,9.3z"></path> <path class="st1" d="M211.1,7.4c1,0.9,1.5,2.3,1.5,4.1V19h-2.8v-1.6c-0.4,0.6-0.9,1-1.6,1.3c-0.7,0.3-1.5,0.4-2.5,0.4 s-1.8-0.2-2.5-0.5c-0.7-0.3-1.3-0.8-1.7-1.4c-0.4-0.6-0.6-1.2-0.6-2c0-1.2,0.4-2.1,1.3-2.8c0.9-0.7,2.2-1,4-1h3.3v-0.2 c0-0.9-0.3-1.6-0.8-2.1c-0.5-0.5-1.3-0.7-2.4-0.7c-0.7,0-1.4,0.1-2.1,0.3c-0.7,0.2-1.3,0.5-1.8,0.9l-1.2-2.2 c0.7-0.5,1.5-0.9,2.4-1.2c0.9-0.3,1.9-0.4,3-0.4C208.7,6,210.1,6.5,211.1,7.4z M208.4,16.5c0.6-0.3,1-0.8,1.2-1.5v-1.5h-3.1 c-1.7,0-2.6,0.6-2.6,1.7c0,0.5,0.2,1,0.6,1.3c0.4,0.3,1,0.5,1.8,0.5C207.1,17,207.8,16.8,208.4,16.5z"></path> <path class="st1" d="M236.5,7.4c0.9,0.9,1.4,2.3,1.4,4.2V19h-3v-7c0-1.1-0.2-2-0.7-2.5c-0.5-0.6-1.2-0.9-2.1-0.9 c-1,0-1.8,0.3-2.4,1c-0.6,0.7-0.9,1.6-0.9,2.8V19h-3v-7c0-1.1-0.2-2-0.7-2.5c-0.5-0.6-1.2-0.9-2.1-0.9c-1,0-1.8,0.3-2.4,1 c-0.6,0.7-0.9,1.6-0.9,2.9V19h-3V6.2h2.9v1.6c0.5-0.6,1.1-1,1.8-1.3s1.5-0.5,2.4-0.5c1,0,1.8,0.2,2.6,0.5s1.3,0.9,1.8,1.6 c0.5-0.7,1.2-1.2,2-1.6c0.8-0.4,1.8-0.6,2.8-0.6C234.3,6,235.5,6.5,236.5,7.4z"></path> <path class="st1" d="M241.9,3.6c-0.4-0.3-0.6-0.8-0.6-1.3c0-0.5,0.2-0.9,0.6-1.3s0.8-0.5,1.4-0.5s1,0.2,1.4,0.5 c0.4,0.3,0.6,0.7,0.6,1.2c0,0.5-0.2,1-0.5,1.3c-0.4,0.4-0.8,0.5-1.4,0.5C242.7,4.1,242.3,3.9,241.9,3.6z M241.7,6.2h3V19h-3V6.2z"></path> <path class="st1" d="M259.8,7.5c1,0.9,1.5,2.3,1.5,4.2V19h-3v-7c0-1.1-0.3-2-0.8-2.5c-0.5-0.6-1.3-0.9-2.3-0.9c-1.1,0-2,0.3-2.6,1 c-0.6,0.7-1,1.6-1,2.9V19h-3V6.2h2.9v1.7c0.5-0.6,1.1-1,1.9-1.3S255,6,256,6C257.6,6,258.9,6.5,259.8,7.5z"></path> <path class="st1" d="M278,6.2v10.9c0,4.5-2.3,6.8-6.9,6.8c-1.2,0-2.4-0.2-3.5-0.5c-1.1-0.3-2-0.8-2.7-1.4l1.3-2.3 c0.6,0.5,1.3,0.8,2.1,1.1c0.9,0.3,1.7,0.4,2.6,0.4c1.4,0,2.4-0.3,3.1-1c0.7-0.6,1-1.6,1-2.9v-0.7c-0.5,0.6-1.1,1-1.9,1.3 c-0.7,0.3-1.5,0.4-2.4,0.4c-1.2,0-2.3-0.3-3.3-0.8c-1-0.5-1.8-1.3-2.3-2.2c-0.6-0.9-0.9-2-0.9-3.2s0.3-2.3,0.9-3.2 c0.6-0.9,1.3-1.7,2.3-2.2c1-0.5,2.1-0.8,3.3-0.8c0.9,0,1.8,0.2,2.5,0.5s1.4,0.8,1.9,1.4V6.2H278z M273.9,14.9 c0.7-0.7,1.1-1.6,1.1-2.7c0-1.1-0.4-1.9-1.1-2.6s-1.7-1-2.8-1c-1.2,0-2.1,0.3-2.8,1c-0.7,0.7-1.1,1.5-1.1,2.6c0,1.1,0.4,2,1.1,2.7 c0.7,0.7,1.7,1,2.8,1C272.3,15.9,273.2,15.5,273.9,14.9z"></path> </g> <g class="st0"> <path class="st1" d="M84.1,34.9c1.1,0.5,1.9,1.2,2.5,2.1c0.6,0.9,0.9,2,0.9,3.2c0,1.2-0.3,2.3-0.9,3.2c-0.6,0.9-1.4,1.6-2.5,2.1 c-1.1,0.5-2.3,0.7-3.8,0.7h-3.8V51h-3.1V34.2h6.9C81.8,34.2,83,34.4,84.1,34.9z M83.2,42.7c0.7-0.6,1.1-1.4,1.1-2.5 c0-1.1-0.4-1.9-1.1-2.5c-0.7-0.6-1.7-0.9-3.1-0.9h-3.6v6.7h3.6C81.5,43.5,82.5,43.2,83.2,42.7z"></path> <path class="st1" d="M90.5,33.2h3V51h-3V33.2z"></path> <path class="st1" d="M106.7,39.4c1,0.9,1.5,2.3,1.5,4.1V51h-2.8v-1.6c-0.4,0.6-0.9,1-1.6,1.3c-0.7,0.3-1.5,0.4-2.5,0.4 s-1.8-0.2-2.5-0.5c-0.7-0.3-1.3-0.8-1.7-1.4c-0.4-0.6-0.6-1.2-0.6-2c0-1.2,0.4-2.1,1.3-2.8c0.9-0.7,2.2-1,4-1h3.3v-0.2 c0-0.9-0.3-1.6-0.8-2.1c-0.5-0.5-1.3-0.7-2.4-0.7c-0.7,0-1.4,0.1-2.1,0.3c-0.7,0.2-1.3,0.5-1.8,0.9l-1.2-2.2 c0.7-0.5,1.5-0.9,2.4-1.2c0.9-0.3,1.9-0.4,3-0.4C104.2,38,105.7,38.5,106.7,39.4z M103.9,48.5c0.6-0.3,1-0.8,1.2-1.5v-1.5h-3.1 c-1.7,0-2.6,0.6-2.6,1.7c0,0.5,0.2,1,0.6,1.3c0.4,0.3,1,0.5,1.8,0.5C102.7,49,103.4,48.8,103.9,48.5z"></path> <path class="st1" d="M119.7,50.3c-0.4,0.3-0.8,0.5-1.3,0.6c-0.5,0.1-1,0.2-1.6,0.2c-1.4,0-2.5-0.4-3.3-1.1 c-0.8-0.7-1.2-1.8-1.2-3.2v-6.2h-2.1v-2.4h2.1v-2.9h3v2.9h3.4v2.4h-3.4v6.1c0,0.6,0.2,1.1,0.5,1.4c0.3,0.3,0.7,0.5,1.3,0.5 c0.7,0,1.2-0.2,1.7-0.5L119.7,50.3z"></path> <path class="st1" d="M125.5,37.5v0.8h3.5v2.4h-3.4V51h-3V40.7h-2.1v-2.4h2.1v-0.8c0-1.4,0.4-2.5,1.2-3.3c0.8-0.8,1.9-1.2,3.4-1.2 c1.2,0,2.1,0.2,2.7,0.7l-0.8,2.3c-0.5-0.4-1.1-0.5-1.7-0.5C126.1,35.5,125.5,36.1,125.5,37.5z"></path> <path class="st1" d="M133.1,50.3c-1-0.6-1.9-1.3-2.4-2.3c-0.6-1-0.9-2.1-0.9-3.4c0-1.3,0.3-2.4,0.9-3.4c0.6-1,1.4-1.8,2.4-2.3 c1-0.6,2.2-0.8,3.5-0.8c1.3,0,2.5,0.3,3.5,0.8c1,0.6,1.9,1.3,2.4,2.3s0.9,2.1,0.9,3.4c0,1.3-0.3,2.4-0.9,3.4s-1.4,1.8-2.4,2.3 c-1,0.6-2.2,0.8-3.5,0.8C135.3,51.2,134.2,50.9,133.1,50.3z M139.4,47.5c0.7-0.7,1.1-1.7,1.1-2.9s-0.4-2.2-1.1-2.9 c-0.7-0.7-1.6-1.1-2.7-1.1s-2,0.4-2.7,1.1c-0.7,0.7-1.1,1.7-1.1,2.9s0.4,2.2,1.1,2.9s1.6,1.1,2.7,1.1S138.6,48.2,139.4,47.5z"></path> <path class="st1" d="M153.8,38v2.9c-0.3,0-0.5-0.1-0.7-0.1c-1.2,0-2.1,0.3-2.7,1c-0.7,0.7-1,1.7-1,2.9V51h-3V38.2h2.9v1.9 C150.1,38.7,151.6,38,153.8,38z"></path> <path class="st1" d="M176.3,39.4c0.9,0.9,1.4,2.3,1.4,4.2V51h-3v-7c0-1.1-0.2-2-0.7-2.5c-0.5-0.6-1.2-0.9-2.1-0.9 c-1,0-1.8,0.3-2.4,1c-0.6,0.7-0.9,1.6-0.9,2.8V51h-3v-7c0-1.1-0.2-2-0.7-2.5c-0.5-0.6-1.2-0.9-2.1-0.9c-1,0-1.8,0.3-2.4,1 c-0.6,0.7-0.9,1.6-0.9,2.9V51h-3V38.2h2.9v1.6c0.5-0.6,1.1-1,1.8-1.3s1.5-0.5,2.4-0.5c1,0,1.8,0.2,2.6,0.5s1.3,0.9,1.8,1.6 c0.5-0.7,1.2-1.2,2-1.6c0.8-0.4,1.8-0.6,2.8-0.6C174.1,38,175.4,38.5,176.3,39.4z"></path> </g> <g id="Group_255" transform="translate(0 5)"> <path id="Path_390" class="st1" d="M50.6-3.7c-0.3-0.3-0.8-0.4-1.2-0.3L16.3,2c-0.7,0.1-1.2,0.7-1.2,1.5v27.9 c-3.7-3.3-9.4-3-12.7,0.7s-3,9.4,0.7,12.7c3.7,3.3,9.4,3,12.7-0.7c1.5-1.6,2.3-3.8,2.3-6V15.7l30.1-5.4v16.6 c-3.7-3.3-9.4-3-12.7,0.7s-3,9.4,0.7,12.7c3.7,3.3,9.4,3,12.7-0.7c1.5-1.6,2.3-3.8,2.3-6V-2.5C51.1-2.9,50.9-3.4,50.6-3.7z M9.1,44 c-3.3,0-6-2.7-6-6s2.7-6,6-6s6,2.7,6,6C15.1,41.3,12.4,44,9.1,44z M18.1,12.6V4.7l30.1-5.4v7.9L18.1,12.6z M42.2,39.5 c-3.3,0-6-2.7-6-6c0-3.3,2.7-6,6-6c3.3,0,6,2.7,6,6C48.1,36.9,45.5,39.5,42.2,39.5z"></path> </g> </svg> 