<?xml version="1.0" encoding="UTF-8"?> <!-- Generator: Adobe Illustrator 24.1.0, SVG Export Plug-In . SVG Version: 6.00 Build 0) --> <svg xmlns="http://www.w3.org/2000/svg" xmlns:xlink="http://www.w3.org/1999/xlink" version="1.1" id="Layer_1" x="0px" y="0px" viewBox="0 0 98.7 99.6" style="enable-background:new 0 0 98.7 99.6;" xml:space="preserve"> <style type="text/css"> .st0{fill:#00F5BD;} .st1{fill:#0F1F40;} .st2{fill:none;stroke:#0F1F40;stroke-width:2;stroke-linecap:round;stroke-linejoin:round;} </style> <g id="Icon_2" transform="translate(-456 -3833)"> <circle id="Ellipse_63" class="st0" cx="505.4" cy="3882.8" r="48.5"></circle> </g> <g id="Group_103" transform="translate(-735.224 -274.886)"> <path id="Rectangle_100" class="st2" d="M756.9,329.6h17.3c0.5,0,0.9,0.4,0.9,0.9c0,0,0,0,0,0v19l0,0h-18.1c-0.5,0-0.9-0.4-0.9-0.9 v-18.1C756.1,330,756.5,329.6,756.9,329.6z"></path> <path id="Rectangle_101" class="st2" d="M794.9,329.6h17.3c0.5,0,0.9,0.4,0.9,0.9c0,0,0,0,0,0v18.1c0,0.5-0.4,0.9-0.9,0.9h-18.1 l0,0v-19C794.1,330,794.5,329.6,794.9,329.6z"></path> <path id="Rectangle_102" class="st2" d="M776.1,323.2h17c0.6,0,1,0.4,1,1v25.3l0,0h-19l0,0v-25.3 C775.1,323.6,775.5,323.2,776.1,323.2z"></path> <path id="Path_184" class="st2" d="M784.6,309.5l17.7-5.9l-17.7-7.8v27.3"></path> </g> </svg> 