<?xml version="1.0" encoding="UTF-8"?> <!-- Generator: Adobe Illustrator 24.1.0, SVG Export Plug-In . SVG Version: 6.00 Build 0) --> <svg xmlns="http://www.w3.org/2000/svg" xmlns:xlink="http://www.w3.org/1999/xlink" version="1.1" id="Layer_1" x="0px" y="0px" viewBox="0 0 98.7 99.6" style="enable-background:new 0 0 98.7 99.6;" xml:space="preserve"> <style type="text/css"> .st0{fill:#00F5BD;} .st1{fill:#0F1F40;} </style> <g id="Icon_2" transform="translate(-456 -3833)"> <circle id="Ellipse_63" class="st0" cx="505.4" cy="3882.8" r="48.5"></circle> </g> <g id="Group_100" transform="translate(-744.888 -103.784)"> <g id="Group_99"> <g id="Group_98"> <path id="Path_176" class="st1" d="M797.3,152.6h-2v-2c0-0.6-0.5-1-1-1c-0.6,0-1,0.5-1,1v2h-2c-0.6,0-1,0.5-1,1s0.5,1,1,1h2v2 c0,0.6,0.5,1,1,1c0.6,0,1-0.5,1-1v-2h2c0.6,0,1-0.5,1-1S797.9,152.6,797.3,152.6L797.3,152.6z"></path> <path id="Path_177" class="st1" d="M825,152.6h-6.2c-0.5-12.8-10.8-23-23.5-23.5v-6.2c0-0.6-0.5-1-1-1c-0.6,0-1,0.5-1,1v6.2 c-12.8,0.5-23,10.8-23.5,23.5h-6.2c-0.6,0-1,0.5-1,1s0.5,1,1,1h6.2c0.5,12.8,10.8,23,23.5,23.5v6.2c0,0.6,0.5,1,1,1 c0.6,0,1-0.5,1-1v-6.2c12.8-0.5,23-10.8,23.5-23.5h6.2c0.6,0,1-0.5,1-1S825.5,152.6,825,152.6z M810.6,154.6h6.1 c-0.5,11.6-9.8,20.9-21.5,21.5V170c0-0.6-0.5-1-1-1c-0.6,0-1,0.5-1,1v6.1c-11.6-0.5-20.9-9.8-21.5-21.5h6.1c0.6,0,1-0.5,1-1 s-0.5-1-1-1l0,0h-6.1c0.5-11.6,9.8-20.9,21.5-21.5v6.1c0,0.6,0.5,1,1,1c0.6,0,1-0.5,1-1v-6.1c11.6,0.5,20.9,9.8,21.5,21.5h-6.1 c-0.6,0-1,0.5-1,1S810.1,154.6,810.6,154.6L810.6,154.6z"></path> <path id="Path_178" class="st1" d="M794.2,142.3c-6.2,0-11.3,5-11.3,11.3c0,6.2,5,11.3,11.3,11.3c6.2,0,11.3-5,11.3-11.3 C805.5,147.4,800.5,142.3,794.2,142.3C794.2,142.3,794.2,142.3,794.2,142.3z M794.2,162.8c-5.1,0-9.2-4.1-9.2-9.2 c0-5.1,4.1-9.2,9.2-9.2c5.1,0,9.2,4.1,9.2,9.2c0,0,0,0,0,0C803.5,158.7,799.3,162.8,794.2,162.8z"></path> </g> </g> </g> </svg> 