<?xml version="1.0" encoding="UTF-8"?> <!-- Generator: Adobe Illustrator 24.1.0, SVG Export Plug-In . SVG Version: 6.00 Build 0) --> <svg xmlns="http://www.w3.org/2000/svg" xmlns:xlink="http://www.w3.org/1999/xlink" version="1.1" id="Layer_1" x="0px" y="0px" viewBox="0 0 98.7 99.6" style="enable-background:new 0 0 98.7 99.6;" xml:space="preserve"> <style type="text/css"> .st0{fill:#00F5BD;} .st1{fill:#0F1F40;} .st2{fill:none;stroke:#0F1F40;stroke-width:2.183;stroke-linecap:round;stroke-linejoin:round;} .st3{fill:none;stroke:#0F1F40;stroke-width:1.9;stroke-linecap:round;stroke-linejoin:round;} </style> <g id="Icon_2" transform="translate(-456 -3833)"> <circle id="Ellipse_63" class="st0" cx="505.3" cy="3882.8" r="48.5"></circle> </g> <g id="Group_97" transform="translate(-738.363 -30.039)"> <circle id="Ellipse_109" class="st2" cx="787.7" cy="69.8" r="3.5"></circle> <path id="Path_175" class="st2" d="M781.6,79.4c0.1-3.4,2.9-6,6.3-5.9c3.2,0.1,5.8,2.7,5.9,5.9"></path> <path id="Rectangle_99" class="st2" d="M768.5,53.5h38.4c1.4,0,2.5,1.1,2.5,2.5v47.7c0,1.4-1.1,2.5-2.5,2.5h-38.4 c-1.4,0-2.5-1.1-2.5-2.5V56C766,54.6,767.1,53.5,768.5,53.5z"></path> <circle id="Ellipse_110" class="st3" cx="787.7" cy="71.6" r="10.6"></circle> <line id="Line_46" class="st2" x1="774.9" y1="88.9" x2="800.4" y2="88.9"></line> <line id="Line_47" class="st2" x1="774.9" y1="93.6" x2="800.4" y2="93.6"></line> <line id="Line_48" class="st2" x1="774.9" y1="98.3" x2="800.4" y2="98.3"></line> </g> </svg> 