<?xml version="1.0" encoding="UTF-8"?> <!-- Generator: Adobe Illustrator 24.1.0, SVG Export Plug-In . SVG Version: 6.00 Build 0) --> <svg xmlns="http://www.w3.org/2000/svg" xmlns:xlink="http://www.w3.org/1999/xlink" version="1.1" id="Layer_1" x="0px" y="0px" viewBox="0 0 98.7 99.6" style="enable-background:new 0 0 98.7 99.6;" xml:space="preserve"> <style type="text/css"> .st0{fill:#00F5BD;} .st1{fill:#0F1F40;} .st2{fill:none;stroke:#0F1F40;stroke-width:2.5;stroke-linecap:round;stroke-linejoin:round;} .st3{fill:none;stroke:#0F1F40;stroke-width:2.183;stroke-linecap:round;stroke-linejoin:round;} </style> <g id="Icon_2" transform="translate(-456 -3833)"> <circle id="Ellipse_63" class="st0" cx="505.4" cy="3882.8" r="48.5"></circle> </g> <g id="Group_102" transform="translate(-738.409 -187.87)"> <circle id="Ellipse_113" class="st2" cx="788" cy="229.9" r="7.8"></circle> <path id="Path_179" class="st2" d="M774.5,251.2c0-7.5,6.1-13.6,13.6-13.6c7.5,0,13.5,6.1,13.6,13.6"></path> <g id="Group_101"> <path id="Path_180" class="st3" d="M761,231.5c3.1-14.9,17.6-24.4,32.5-21.3c10.7,2.2,19.1,10.6,21.3,21.3"></path> <path id="Path_181" class="st3" d="M814.8,243.9c-3.1,14.9-17.6,24.4-32.5,21.3c-10.7-2.2-19.1-10.6-21.3-21.3"></path> <path id="Path_182" class="st3" d="M757,248.4l3.4-6.1l6.1,2.7"></path> <path id="Path_183" class="st3" d="M818.6,227.3l-3.4,6.1l-6.1-2.8"></path> </g> </g> </svg> 