<?xml version="1.0" encoding="utf-8"?>
<!-- Generator: Adobe Illustrator 24.1.0, SVG Export Plug-In . SVG Version: 6.00 Build 0)  -->
<svg version="1.1" id="Layer_1" xmlns="http://www.w3.org/2000/svg" xmlns:xlink="http://www.w3.org/1999/xlink" x="0px" y="0px"
	 viewBox="0 0 135.4 139.1" style="enable-background:new 0 0 135.4 139.1;" xml:space="preserve">
<style type="text/css">
	.st0{fill:#00F0FF;}
	.st1{fill:none;stroke:#0F1536;stroke-width:4.3112;stroke-linecap:round;stroke-linejoin:round;}
</style>
<g transform="translate(-1433.673 -522.557)">
	<ellipse class="st0" cx="1492.5" cy="575.2" rx="35.8" ry="36.5"/>
	<path class="st1" d="M1507.8,546.2c-0.9-0.6-1.9-1.1-2.9-1.6c-3.9-1.7-8.1-2.6-12.3-2.4h-0.2c-4.2-0.1-8.4,0.7-12.3,2.4
		c-7.8,3.5-12.5,11.6-11.5,20.1c0.1,0.8,0.5,4.1,0.9,7.6c0,0-0.1,0-0.1,0c-2,0.2-3.6,1.8-3.9,3.9l0,0c0,0,0,0,0,0c0,0.1,0,0.1,0,0.2
		c0,0.2,0,0.4,0,0.7c0,0,0,0.1,0,0.1v0c0.1,1.5,0.4,3,0.7,4.4c0.4,1.8,0.9,3.7,1.6,5.4h0c0.9,1.9,3,2.9,5,2.3
		c0.4,1.6,0.7,2.7,0.7,2.7h0c1.2,4.2,3.8,7.8,7.2,10.3c1.9,1.4,2.3,4.1,0.9,6.1c-0.4,0.5-0.8,0.9-1.3,1.2l-21.2,12.3
		c-4.9,2.9-8,8-8.2,13.7c9,4.6,24.3,7.7,41.5,7.7s32.5-3,41.5-7.7c-0.2-5.7-3.3-10.9-8.3-13.7l-21.2-12.3c-2.1-1.2-2.8-3.8-1.6-5.9
		c0.3-0.5,0.7-1,1.2-1.3c3.3-2.4,5.7-5.8,7-9.6"/>
	<path class="st1" d="M1472.6,542.1h-13.2v13.2"/>
	<path class="st1" d="M1512.1,605.9h13.2v-13.2"/>
	<path class="st1" d="M1459.4,592.7v13.2h13.2"/>
	<rect x="1514.3" y="548.7" class="st1" width="37.4" height="37.4"/>
	<line class="st1" x1="1514.3" y1="540.8" x2="1533" y2="540.8"/>
	<line class="st1" x1="1541.2" y1="540.8" x2="1551.7" y2="540.8"/>
	<path class="st1" d="M1545.1,579.5c0-2.8-1.7-5.2-4.3-6.2l-5.5-2c-1.5-0.5-3.1-0.5-4.5,0l-5.5,2c-2.6,0.9-4.3,3.4-4.3,6.2H1545.1z"
		/>
	<path class="st1" d="M1533,570.7L1533,570.7c-3,0-5.5-2.5-5.5-5.5V563c0-3,2.5-5.5,5.5-5.5l0,0c3,0,5.5,2.5,5.5,5.5c0,0,0,0,0,0
		v2.2C1538.5,568.3,1536,570.7,1533,570.7C1533,570.7,1533,570.7,1533,570.7z"/>
</g>
</svg>
