<?xml version="1.0" encoding="UTF-8"?> <!-- Generator: Adobe Illustrator 24.1.0, SVG Export Plug-In . SVG Version: 6.00 Build 0) --> <svg xmlns="http://www.w3.org/2000/svg" xmlns:xlink="http://www.w3.org/1999/xlink" version="1.1" id="Layer_1" x="0px" y="0px" viewBox="0 0 270.7 271.4" style="enable-background:new 0 0 270.7 271.4;" xml:space="preserve"> <style type="text/css"> .st0{fill:#FFFFFF;stroke:#00F5BD;stroke-width:3;stroke-miterlimit:10;} .st1{fill:#0F1F40;} .st2{fill:none;stroke:#000000;stroke-width:3.1369;stroke-linecap:round;stroke-linejoin:round;stroke-miterlimit:10;} .st3{fill:none;stroke:#000000;stroke-width:3.1369;stroke-linecap:round;stroke-miterlimit:10;} .st4{fill:none;stroke:#000000;stroke-width:2.0912;stroke-linecap:round;stroke-linejoin:round;stroke-miterlimit:10;} .st5{stroke:#000000;stroke-width:0.6971;stroke-miterlimit:10;} .st6{fill:#00F5BD;} .st7{fill:#00F0FF;} .st8{fill:#00F0FF;stroke:#00F0FF;stroke-width:2;stroke-miterlimit:10;} .st9{fill:#0F1536;} .st10{fill:#0F1536;stroke:#FFFFFF;stroke-width:0.7647;} .st11{fill:none;stroke:#0F1F40;stroke-width:1.5362;stroke-linecap:round;stroke-linejoin:round;stroke-miterlimit:10;} .st12{fill:none;} .st13{fill:none;stroke:#0F1F40;stroke-width:1.9669;stroke-linecap:round;stroke-linejoin:round;stroke-miterlimit:10;} .st14{fill:none;stroke:#0F1F40;stroke-width:1.8435;stroke-linecap:round;stroke-linejoin:round;stroke-miterlimit:10;} .st15{fill:#0F1F40;stroke:#0F1F40;stroke-width:0.5691;stroke-miterlimit:10;} .st16{fill:none;stroke:#0F1F40;stroke-width:2.4442;stroke-linecap:round;stroke-linejoin:round;stroke-miterlimit:10;} .st17{fill:none;stroke:#0F1F40;stroke-width:2.4881;stroke-linecap:round;stroke-linejoin:round;stroke-miterlimit:10;} .st18{fill:none;stroke:#0F1F40;stroke-width:1.2495;stroke-linecap:round;stroke-linejoin:round;stroke-miterlimit:10;} .st19{fill:none;stroke:#5CE5C6;stroke-width:1.2495;stroke-miterlimit:10;} .st20{fill:#32E13C;} .st21{fill:#0AEEFD;} .st22{fill:#92D050;} .st23{fill:#0F1E40;stroke:#92D050;stroke-miterlimit:10;} .st24{fill:#0F1F40;stroke:#0F1E40;stroke-miterlimit:10;} .st25{fill:#0F1F40;stroke:#0F1E40;stroke-width:1.6173;stroke-miterlimit:10;} .st26{fill:#0F1E40;} .st27{fill:none;stroke:#0F1E40;stroke-width:1.8127;stroke-linecap:round;stroke-linejoin:round;stroke-miterlimit:10;} .st28{fill:none;stroke:#0F1E40;stroke-width:1.4619;stroke-linecap:round;stroke-linejoin:round;stroke-miterlimit:10;} .st29{fill:none;stroke:#0F1E40;stroke-width:1.0632;stroke-linecap:round;stroke-linejoin:round;stroke-miterlimit:10;} .st30{fill:none;stroke:#0F1E40;stroke-width:1.619;stroke-linecap:round;stroke-linejoin:round;stroke-miterlimit:10;} .st31{fill:none;stroke:#0F1E40;stroke-width:2;stroke-linecap:round;stroke-linejoin:round;stroke-miterlimit:10;} .st32{fill:#0F1F40;stroke:#0F1E40;stroke-width:0.75;stroke-miterlimit:10;} .st33{fill:#FFFFFF;stroke:#92D050;stroke-width:3;stroke-miterlimit:10;} .st34{fill:#FFFFFF;stroke:#92D050;stroke-width:1.25;stroke-miterlimit:10;} .st35{fill:none;stroke:#0F1F40;stroke-width:3;stroke-linecap:round;stroke-linejoin:round;stroke-miterlimit:10;} .st36{fill:none;stroke:#000000;stroke-width:2.5;stroke-linecap:round;stroke-linejoin:round;stroke-miterlimit:10;} .st37{fill:none;stroke:#000000;stroke-width:2.5;stroke-miterlimit:10;} .st38{fill:none;stroke:#00F0FF;stroke-width:2.7112;stroke-linecap:round;stroke-linejoin:round;stroke-miterlimit:10;} .st39{fill:none;stroke:#00F0FF;stroke-width:4;} .st40{fill:none;stroke:#00F0FF;stroke-width:4;stroke-linecap:round;stroke-linejoin:round;} .st41{fill:none;stroke:#0E0E0E;stroke-width:3;} .st42{fill:#0F1536;stroke:#0F1536;stroke-width:2.62;stroke-miterlimit:10;} .st43{fill:none;stroke:#0F1536;stroke-width:6;stroke-linecap:round;stroke-linejoin:round;} .st44{fill:none;stroke:#32E13C;stroke-width:4;} </style> <g> <g id="Ellipse_24"> <circle class="st12" cx="135.4" cy="135.7" r="132.5"></circle> <circle class="st39" cx="135.4" cy="135.7" r="130.5"></circle> </g> <g id="CPA" transform="translate(72.582 79.133)"> <path id="Path_108" class="st7" d="M96.1,100.2c0.6,0,1.2,0.2,1.6,0.7l11.8,11.8l5.8-5.8l-11.8-11.8c-0.5-0.5-0.7-1.1-0.6-1.8 c0.1-0.7,0.4-1.3,1-1.6l9.4-6.3L77.1,74.5l10.8,36.1l6.3-9.4c0.4-0.6,1-0.9,1.6-1C95.9,100.2,96,100.2,96.1,100.2L96.1,100.2"></path> <path id="Path_96" class="st42" d="M64.8,54.2c-1.9-2.1-4.8-3.1-6.7-3.7c-1.3-0.4-2.7-0.7-4-0.9c-3.2-0.6-6.1-1.3-8.5-3.1 c-2-1.6-2.9-4-2.5-7c0.4-3.5,2.8-6.5,6.2-7.6c3.6-1.4,7.7-0.8,10.7,1.7c1.2,1,2.2,2.2,3,3.6c0.5,0.7,1.5,0.9,2.2,0.5 c0.7-0.5,0.9-1.5,0.5-2.2l0,0c-1-1.6-2.2-3-3.6-4.2c-2.1-1.8-4.8-2.9-7.6-3.1v-6.3c0-0.9-0.7-1.6-1.6-1.6c-0.9,0-1.6,0.7-1.6,1.6 v6.3v0c-1.1,0.2-2.1,0.4-3.1,0.8c-4.4,1.6-7.6,5.5-8.2,10.2c-0.5,4.1,0.7,7.6,3.7,9.9c2.9,2.3,6.4,3,9.8,3.7 c1.3,0.3,2.6,0.5,3.8,0.9c2,0.4,3.8,1.4,5.3,2.8c2.1,2.2,2.6,5.4,1.2,8.1c-1.5,3-4.3,5.2-7.6,5.8c-7.3,1.3-12.5-1.7-15-8.5 c-0.3-0.8-1.2-1.3-2-1c-0.8,0.3-1.3,1.2-1,2c0,0,0,0,0,0.1c2.4,6.5,7,10.2,13.1,10.7v4.8c0,0.9,0.7,1.6,1.6,1.6 c0.9,0,1.6-0.7,1.6-1.6v-4.8c0.7-0.1,1.5-0.1,2.2-0.3c4.3-0.8,8-3.6,10-7.6C68.4,62,67.7,57.3,64.8,54.2z"></path> <path id="Click_2_" class="st9" d="M87.1,119.9c-0.1,0-0.2,0-0.3,0c-0.9-0.1-1.6-0.8-1.9-1.6L71,71.9c-0.4-1.2,0.3-2.5,1.6-2.9 c0.4-0.1,0.9-0.1,1.3,0L120.2,83c1.2,0.4,1.9,1.7,1.6,2.9c-0.2,0.5-0.5,1-0.9,1.3l-11.5,7.7l11.9,11.9c0.9,0.9,0.9,2.4,0,3.3 c0,0,0,0,0,0l-9.3,9.3c-0.9,0.9-2.4,0.9-3.3,0c0,0,0,0,0,0l-11.9-11.9L89,118.9C88.6,119.5,87.9,119.9,87.1,119.9L87.1,119.9z M96.4,101.4c0.6,0,1.2,0.2,1.6,0.7l12.3,12.3l6-6L104,96.1c-0.9-0.9-0.9-2.4,0-3.3c0.1-0.1,0.2-0.2,0.4-0.3l9.8-6.5L76.6,74.7 l11.2,37.5l6.5-9.8c0.4-0.6,1-1,1.7-1C96.2,101.4,96.3,101.4,96.4,101.4L96.4,101.4z"></path> <path id="Path_97" class="st43" d="M77.5,96.4c-0.4,0.2-0.8,0.5-1.3,0.7c-24.3,13-54.5,3.8-67.5-20.5C-4.2,52.3,5,22.1,29.3,9.1 c24.3-13,54.5-3.8,67.5,20.5c7.8,14.7,7.8,32.4-0.1,47"></path> </g> </g> </svg> 