<?xml version="1.0" encoding="UTF-8"?> <!-- Generator: Adobe Illustrator 24.1.0, SVG Export Plug-In . SVG Version: 6.00 Build 0) --> <svg xmlns="http://www.w3.org/2000/svg" xmlns:xlink="http://www.w3.org/1999/xlink" version="1.1" id="Layer_1" x="0px" y="0px" viewBox="0 0 270.7 271.4" style="enable-background:new 0 0 270.7 271.4;" xml:space="preserve"> <style type="text/css"> .st0{fill:none;} .st1{fill:none;stroke:#00F0FF;stroke-width:4;} .st2{fill:#00F0FF;} .st3{fill:#0F1536;} </style> <g> <g id="Ellipse_24"> <circle class="st0" cx="135.4" cy="135.7" r="132.5"></circle> <circle class="st1" cx="135.4" cy="135.7" r="130.5"></circle> </g> <g> <circle id="Ellipse_69" class="st2" cx="102.2" cy="126.9" r="17.6"></circle> <path id="Path_107" class="st3" d="M174.8,122.6c14.6,0,26.4-11.8,26.4-26.3s-11.8-26.4-26.3-26.4c-10.3,0-19.6,5.9-23.9,15.2 l-7.1-2.6c0.1-0.5,0.2-1.1,0.2-1.6c0.1-6.1-4.9-11.1-11-11.2c-6.1-0.1-11.1,4.9-11.2,11s4.9,11.1,11,11.2c3.9,0,7.5-1.9,9.5-5.2 l7,2.6c-1.4,5-1.3,10.3,0.4,15.2l-24.2,10.2c-6.2-11.8-20.2-17.1-32.6-12.4l-6.1-12.8c4.8-3.7,5.7-10.5,2-15.3s-10.5-5.7-15.3-2 c-4.8,3.7-5.7,10.5-2,15.3c2.1,2.7,5.3,4.3,8.7,4.3c0.9,0,1.8-0.1,2.6-0.4l6.1,12.8c-12.6,7.3-16.8,23.4-9.5,36 c2,3.5,4.8,6.4,8.1,8.7l-4,7.2c-1.1-0.4-2.2-0.5-3.3-0.6c-6.1-0.1-11.2,4.8-11.2,11c-0.1,6.1,4.8,11.2,11,11.2 c6.1,0.1,11.2-4.8,11.2-11c0-3.3-1.4-6.4-3.9-8.6l4-7.2c8.8,4,19.2,2.8,26.8-3.1l8.6,9.5c-4.6,4.9-7.1,11.3-7.1,17.9 c0,1.3,0.1,2.6,0.3,3.9l-10.2,2.4c-2.6-5.4-9.1-7.8-14.6-5.2c-5.4,2.6-7.8,9.1-5.2,14.6c2.6,5.4,9.1,7.8,14.6,5.2 c3.8-1.8,6.3-5.7,6.2-9.9c0-0.1,0-0.2,0-0.4l10.2-2.4c4.5,13.8,19.4,21.4,33.2,16.8c13.8-4.5,21.4-19.4,16.8-33.2 c-0.5-1.5-1.1-2.9-1.8-4.3l12.9-8.4c4.3,4.4,11.4,4.5,15.8,0.2c4.4-4.3,4.5-11.4,0.2-15.8c-4.3-4.4-11.4-4.5-15.8-0.2 c-3.2,3.2-4.3,7.9-2.6,12.1l-12.9,8.4c-2.6-3.3-6-6-9.8-7.8l10.7-29.7C170.2,122.3,172.5,122.6,174.8,122.6z M133.1,87.5 c-3.6,0-6.6-2.9-6.6-6.6c0-3.6,2.9-6.6,6.6-6.6c3.6,0,6.6,2.9,6.6,6.6c0,0,0,0,0,0C139.6,84.5,136.7,87.5,133.1,87.5z M73.7,80.9 c0-3.6,3-6.6,6.6-6.6c3.6,0,6.6,3,6.6,6.6s-3,6.6-6.6,6.6C76.7,87.5,73.8,84.5,73.7,80.9z M80.3,173.1c-3.6,0-6.6-3-6.6-6.6 s3-6.6,6.6-6.6c3.6,0,6.6,3,6.6,6.6C86.9,170.2,84,173.1,80.3,173.1z M100.1,192.9c-3.6,0-6.6-3-6.6-6.6c0-3.6,3-6.6,6.6-6.6 c3.6,0,6.6,3,6.6,6.6C106.7,190,103.7,192.9,100.1,192.9L100.1,192.9z M190.2,140.2c3.6,0,6.6,3,6.6,6.6s-3,6.6-6.6,6.6 s-6.6-3-6.6-6.6C183.6,143.1,186.5,140.2,190.2,140.2z M161.9,114c1-5.2,5.5-8.9,10.7-8.9h4.4c5.3,0,9.7,3.8,10.7,8.9 C180.1,119.6,169.6,119.6,161.9,114z M174.8,100.6c-3.6,0-6.6-3-6.6-6.6s3-6.6,6.6-6.6s6.6,3,6.6,6.6 C181.4,97.7,178.4,100.6,174.8,100.6L174.8,100.6z M174.8,74.3c12.1,0,22,9.8,22,21.9c0,5.3-1.9,10.4-5.4,14.4 c-1.5-4.1-4.7-7.3-8.7-8.9c4.3-4.3,4.2-11.3-0.1-15.5S171.2,82,167,86.3c-4.2,4.3-4.2,11.1,0,15.4c-4,1.6-7.2,4.8-8.7,8.9 c-8-9.1-7-23,2.1-30.9C164.4,76.2,169.5,74.3,174.8,74.3L174.8,74.3z M80.3,127c0-12.1,9.8-22,21.9-22s22,9.8,22,21.9 c0,5.3-1.9,10.5-5.4,14.5c-1.5-4.1-4.7-7.3-8.8-8.9c4.3-4.3,4.2-11.3-0.1-15.5s-11.3-4.2-15.5,0.1c-4.2,4.3-4.2,11.1,0,15.4 c-4,1.6-7.2,4.8-8.7,8.9C82.2,137.4,80.3,132.3,80.3,127z M95.7,124.8c0-3.6,3-6.6,6.6-6.6s6.6,3,6.6,6.6s-3,6.6-6.6,6.6l0,0 C98.6,131.4,95.7,128.4,95.7,124.8L95.7,124.8z M89.3,144.7c1-5.1,5.5-8.9,10.7-8.9h4.4c5.3,0,9.8,3.8,10.7,9 C107.5,150.4,97,150.4,89.3,144.7L89.3,144.7z M133.3,193c1-5.1,5.5-8.9,10.7-8.9h4.4c5.3,0,9.8,3.8,10.7,9 C151.4,198.7,141,198.7,133.3,193L133.3,193z M146.2,179.7c-3.6,0-6.6-3-6.6-6.6s3-6.6,6.6-6.6s6.6,3,6.6,6.6 C152.8,176.8,149.8,179.7,146.2,179.7L146.2,179.7z M168.2,175.3c0,5.3-1.9,10.4-5.4,14.4c-1.5-4.1-4.7-7.3-8.8-8.9 c4.3-4.3,4.2-11.3-0.1-15.5c-4.3-4.3-11.3-4.2-15.5,0.1c-4.2,4.3-4.2,11.1,0,15.4c-4,1.6-7.2,4.8-8.7,8.9c-7.9-9.2-6.9-23,2.3-31 s23-6.9,31,2.3C166.3,165,168.2,170.1,168.2,175.3L168.2,175.3z M153.1,149.9c-7.9-2.2-16.4-0.5-22.9,4.5l-8.6-9.5 c6.6-7,8.8-17.1,5.8-26.2l24.2-10.2c2.7,5.1,7.1,9.2,12.3,11.7L153.1,149.9z"></path> </g> </g> </svg> 