<?xml version="1.0" encoding="UTF-8"?> <!-- Generator: Adobe Illustrator 24.1.0, SVG Export Plug-In . SVG Version: 6.00 Build 0) --> <svg xmlns="http://www.w3.org/2000/svg" xmlns:xlink="http://www.w3.org/1999/xlink" version="1.1" id="Layer_1" x="0px" y="0px" viewBox="0 0 270.7 271.4" style="enable-background:new 0 0 270.7 271.4;" xml:space="preserve"> <style type="text/css"> .st0{fill:none;} .st1{fill:none;stroke:#00F0FF;stroke-width:4;} .st2{fill:#0F1E40;} .st3{fill:#00F0FF;} .st4{fill:none;stroke:#0F1E40;stroke-width:5;stroke-linecap:round;stroke-linejoin:round;} .st5{fill:none;stroke:#0F1E40;stroke-width:4;stroke-linecap:round;stroke-linejoin:round;} </style> <g> <g id="Ellipse_24"> <circle class="st0" cx="135.4" cy="135.7" r="132.5"></circle> <circle class="st1" cx="135.4" cy="135.7" r="130.5"></circle> </g> <g id="Group_143" transform="translate(-291.214 -1073.6)"> <path id="Path_212" class="st2" d="M478.3,1145.5V1275h-103v-129.5H478.3 M478.6,1140.6H374.8c-2.3,0.1-4.2,1.9-4.3,4.3v130.3 c0.1,2.3,1.9,4.2,4.3,4.3h103.8c2.3-0.1,4.2-1.9,4.3-4.3v-130.3C482.8,1142.6,481,1140.7,478.6,1140.6L478.6,1140.6z"></path> <rect id="Rectangle_105" x="395.3" y="1167.8" class="st3" width="27.5" height="25.9"></rect> <path id="Path_213" class="st4" d="M411,1247l11.1,11.1l20.3-29.7"></path> <rect id="Rectangle_104" x="391.3" y="1163.5" class="st4" width="35.4" height="34.5"></rect> <line id="Line_51" class="st4" x1="440.4" y1="1197.4" x2="460.4" y2="1197.4"></line> <line id="Line_52" class="st4" x1="391.9" y1="1212.5" x2="460.4" y2="1212.5"></line> <line id="Line_53" class="st4" x1="440.4" y1="1182.3" x2="460.4" y2="1182.3"></line> <ellipse id="Ellipse_120" class="st5" cx="408.9" cy="1179.3" rx="6.2" ry="6.2"></ellipse> <path id="Path_214" class="st5" d="M398.2,1196.2c0-5.9,4.8-10.7,10.7-10.7s10.7,4.8,10.7,10.7"></path> </g> </g> </svg> 