<?xml version="1.0" encoding="UTF-8"?> <!-- Generator: Adobe Illustrator 24.1.0, SVG Export Plug-In . SVG Version: 6.00 Build 0) --> <svg xmlns="http://www.w3.org/2000/svg" xmlns:xlink="http://www.w3.org/1999/xlink" version="1.1" id="Layer_1" x="0px" y="0px" viewBox="0 0 270.7 271.4" style="enable-background:new 0 0 270.7 271.4;" xml:space="preserve"> <style type="text/css"> .st0{fill:#FFFFFF;stroke:#00F5BD;stroke-width:3;stroke-miterlimit:10;} .st1{fill:#0F1F40;} .st2{fill:none;stroke:#000000;stroke-width:3.1369;stroke-linecap:round;stroke-linejoin:round;stroke-miterlimit:10;} .st3{fill:none;stroke:#000000;stroke-width:3.1369;stroke-linecap:round;stroke-miterlimit:10;} .st4{fill:none;stroke:#000000;stroke-width:2.0912;stroke-linecap:round;stroke-linejoin:round;stroke-miterlimit:10;} .st5{stroke:#000000;stroke-width:0.6971;stroke-miterlimit:10;} .st6{fill:#00F5BD;} .st7{fill:#00F0FF;} .st8{fill:#00F0FF;stroke:#00F0FF;stroke-width:2;stroke-miterlimit:10;} .st9{fill:#0F1536;} .st10{fill:#0F1536;stroke:#FFFFFF;stroke-width:0.7647;} .st11{fill:none;stroke:#0F1F40;stroke-width:1.5362;stroke-linecap:round;stroke-linejoin:round;stroke-miterlimit:10;} .st12{fill:none;} .st13{fill:none;stroke:#0F1F40;stroke-width:1.9669;stroke-linecap:round;stroke-linejoin:round;stroke-miterlimit:10;} .st14{fill:none;stroke:#0F1F40;stroke-width:1.8435;stroke-linecap:round;stroke-linejoin:round;stroke-miterlimit:10;} .st15{fill:#0F1F40;stroke:#0F1F40;stroke-width:0.5691;stroke-miterlimit:10;} .st16{fill:none;stroke:#0F1F40;stroke-width:2.4442;stroke-linecap:round;stroke-linejoin:round;stroke-miterlimit:10;} .st17{fill:none;stroke:#0F1F40;stroke-width:2.4881;stroke-linecap:round;stroke-linejoin:round;stroke-miterlimit:10;} .st18{fill:none;stroke:#0F1F40;stroke-width:1.2495;stroke-linecap:round;stroke-linejoin:round;stroke-miterlimit:10;} .st19{fill:none;stroke:#5CE5C6;stroke-width:1.2495;stroke-miterlimit:10;} .st20{fill:#32E13C;} .st21{fill:#0AEEFD;} .st22{fill:#92D050;} .st23{fill:#0F1E40;stroke:#92D050;stroke-miterlimit:10;} .st24{fill:#0F1F40;stroke:#0F1E40;stroke-miterlimit:10;} .st25{fill:#0F1F40;stroke:#0F1E40;stroke-width:1.6173;stroke-miterlimit:10;} .st26{fill:#0F1E40;} .st27{fill:none;stroke:#0F1E40;stroke-width:1.8127;stroke-linecap:round;stroke-linejoin:round;stroke-miterlimit:10;} .st28{fill:none;stroke:#0F1E40;stroke-width:1.4619;stroke-linecap:round;stroke-linejoin:round;stroke-miterlimit:10;} .st29{fill:none;stroke:#0F1E40;stroke-width:1.0632;stroke-linecap:round;stroke-linejoin:round;stroke-miterlimit:10;} .st30{fill:none;stroke:#0F1E40;stroke-width:1.619;stroke-linecap:round;stroke-linejoin:round;stroke-miterlimit:10;} .st31{fill:none;stroke:#0F1E40;stroke-width:2;stroke-linecap:round;stroke-linejoin:round;stroke-miterlimit:10;} .st32{fill:#0F1F40;stroke:#0F1E40;stroke-width:0.75;stroke-miterlimit:10;} .st33{fill:#FFFFFF;stroke:#92D050;stroke-width:3;stroke-miterlimit:10;} .st34{fill:#FFFFFF;stroke:#92D050;stroke-width:1.25;stroke-miterlimit:10;} .st35{fill:none;stroke:#0F1F40;stroke-width:3;stroke-linecap:round;stroke-linejoin:round;stroke-miterlimit:10;} .st36{fill:none;stroke:#000000;stroke-width:2.5;stroke-linecap:round;stroke-linejoin:round;stroke-miterlimit:10;} .st37{fill:none;stroke:#000000;stroke-width:2.5;stroke-miterlimit:10;} .st38{fill:none;stroke:#00F0FF;stroke-width:2.7112;stroke-linecap:round;stroke-linejoin:round;stroke-miterlimit:10;} .st39{fill:none;stroke:#00F0FF;stroke-width:4;} .st40{fill:none;stroke:#00F0FF;stroke-width:4;stroke-linecap:round;stroke-linejoin:round;} .st41{fill:none;stroke:#0E0E0E;stroke-width:3;} .st42{fill:#0F1536;stroke:#0F1536;stroke-width:2.62;stroke-miterlimit:10;} .st43{fill:none;stroke:#0F1536;stroke-width:6;stroke-linecap:round;stroke-linejoin:round;} .st44{fill:none;stroke:#32E13C;stroke-width:4;} </style> <g> <g id="Ellipse_79"> <circle class="st12" cx="135.4" cy="135.7" r="132.5"></circle> <circle class="st39" cx="135.4" cy="135.7" r="130.5"></circle> </g> <g id="Partnership_1_" transform="translate(72.963 85.239)"> <path id="Path_109" class="st7" d="M88.8,84.8c-1.7-3.5-9.2-9.5-15.7-14.9c-3.6-2.9-7.1-5.7-9.7-8.2c-0.7,0.3-1.1,0.5-1.6,0.7 c-1.1,0.5-2.2,0.9-3.4,1.1c-3.5,4.6-8.1,6.2-13.2,4.5c-1.9-0.6-3.4-2.1-3.9-4c-1.1-4.5,3.1-10.7,6.1-13.8H33.8 c-1.5,7.7-4.2,17.2-6.1,23.4c0.8,0.8,2.1,2.1,3.4,3.5c1.8,1.9,3.9,4.1,5.1,5.1c8.5,7.1,18.4,14.5,20,15.5c1.7,1,3.5,1.7,5.5,1.9 c0.4,0,0.7,0,1.1-0.1c-3.4-3.2-7.9-8-9.4-9.6c0,0,0,0,0-0.1c-0.8-0.9-0.8-2.3,0.1-3.2c0.9-0.8,2.3-0.8,3.2,0.1c0,0,0,0,0,0 c1.3,1.4,7.8,8.3,11,11l0,0c0,0,0,0,0,0s0,0,0,0c0.7,0.6,1.7,0.8,2.6,0.4c1.1-0.4,2-1.3,2.4-2.4c-3.7-3.3-10.3-10.4-10.4-10.5 c0,0,0,0,0,0c-0.8-0.9-0.7-2.3,0.2-3.2c0.9-0.8,2.3-0.7,3.2,0.2l0,0c1.5,1.7,8.3,8.8,11,11l0,0c0,0,0,0,0.1,0.1s0,0,0.1,0 c0.6,0.5,2.1,0.6,3.5-0.1c0.8-0.3,1.4-1,1.7-1.8c-3.4-3.1-11.7-11.8-12.8-12.9l0,0c-0.9-0.9-0.8-2.3,0.1-3.2 c0.9-0.9,2.3-0.8,3.2,0.1c4.4,4.6,11.5,11.8,13.2,13.2c0.9,0.4,2,0.1,2.7-0.6C89.2,87.4,89.5,86,88.8,84.8z"></path> <path id="Path_106" class="st9" d="M55.5,27.2c0.5,0.4,1,0.5,1.6,0.5c0.7,0,1.3-0.2,1.8-0.7L80.6,8C81.8,7.1,82,5.4,81,4.2 c-0.9-1.2-2.7-1.4-3.8-0.4c-0.1,0-0.1,0.1-0.2,0.2l-20,17.6l-9.2-6.8c-1.2-0.9-2.9-0.7-3.8,0.5c0,0,0,0,0,0 c-0.9,1.2-0.7,2.9,0.5,3.8L55.5,27.2z"></path> <path class="st9" d="M120,37.7C120,37.7,120,37.7,120,37.7c-19.6,0-30.4,5-30.9,5.2c-0.6,0.3-1.1,0.9-1.3,1.6 c-0.2,0.6-0.1,1.2,0.2,1.8c-3.8-1.4-9-3.5-14.3-5.9c-9-4-14.8-2.8-21.2,2.3h-20c0.1-0.8,0.2-1.6,0.3-2.3c0.1-0.8-0.2-1.5-0.8-2 c-4.3-4-21.4-5.4-26.5-5.7c-1.4-0.1-2.6,1-2.6,2.3c0,0.1,0,0.1,0,0.2v44.9c0,1.4,1.1,2.5,2.5,2.5h15c1.1,0,2-0.7,2.4-1.7 c0.1-0.2,0.3-0.8,0.6-1.8c0.6,0.6,1.2,1.2,1.8,1.9c2.2,2.3,4.5,4.7,6.1,6c9.3,7.8,20.4,16.2,22.7,17.6c2.7,1.7,5.7,2.7,8.8,2.9 c2,0.1,4-0.5,5.7-1.7c1.8,0.7,3.9,0.7,5.7-0.1c2.3-0.9,4.1-2.6,5.2-4.8c2.1,0.4,4.3,0.1,6.3-0.9c1.9-0.9,3.4-2.4,4.2-4.3 c2.1,0.1,4.1-0.7,5.7-2c2.3-1.9,3.2-4.8,2.7-7.6l3.9-2.6c0.3,0.9,0.5,1.7,0.7,2.3c0.3,1.1,1.3,1.8,2.4,1.8h15 c1.4,0,2.5-1.1,2.5-2.5V40.2C122.5,38.8,121.4,37.7,120,37.7z M18.5,77.6H7.8V37.9c8,0.6,16.7,2,19.8,3.5 C26.3,52.3,20.3,71.7,18.5,77.6z M92.1,89.9c-0.8,0.8-2,1-3,0.6c-1.9-1.6-9.7-9.6-14.6-14.6c-1-1-2.5-1-3.5-0.1 c-1,1-1,2.5-0.1,3.5c1.2,1.2,10.4,10.9,14.2,14.3c-0.3,1.1-1.3,1.7-1.8,2c-1.6,0.8-3.3,0.7-3.9,0.1c0,0-0.1,0-0.1-0.1c0,0,0,0,0,0 l0,0c-3-2.4-10.5-10.4-12.2-12.2c-1-1-2.5-1-3.5-0.1c-1,0.9-1,2.4-0.1,3.5c0.1,0.1,7.4,8,11.5,11.7c-0.5,1.2-1.4,2.2-2.6,2.7 c-1,0.4-2.1,0.3-2.9-0.4c0,0,0,0,0,0c0,0,0,0,0,0h0c-3.6-3-10.8-10.7-12.2-12.3c-1-1-2.5-1-3.5-0.1c-1,0.9-1,2.5-0.1,3.5 c1.7,1.8,6.7,7.1,10.5,10.7c-0.3,0-0.7,0.1-1.2,0.1c-2.2-0.2-4.3-0.9-6.1-2.1c-1.8-1.2-12.7-9.3-22.2-17.3 c-1.3-1.1-3.6-3.5-5.7-5.6c-1.5-1.6-2.9-3-3.8-3.8c2.1-6.9,5.1-17.4,6.7-26H47c-3.4,3.4-8,10.3-6.8,15.3c0.5,2.2,2.2,3.9,4.3,4.5 c5.6,1.9,10.8,0.1,14.6-5c1.3-0.2,2.6-0.6,3.7-1.2c0.5-0.2,1-0.5,1.7-0.7c2.9,2.7,6.7,5.8,10.8,9.1c7.3,5.9,15.6,12.6,17.5,16.5 C93.5,87.4,93.2,89,92.1,89.9z M95.8,81.6C92.4,77,85.3,71.3,78.5,65.7c-4.5-3.7-8.8-7.1-11.5-9.8c-0.7-0.7-1.7-0.9-2.6-0.6 c-1.7,0.6-2.7,1.1-3.5,1.4c-1,0.5-2.2,0.9-3.3,0.9c-0.7,0.1-1.4,0.5-1.8,1.1c-3.5,5.3-7.2,4.8-9.6,4c-0.8-0.3-0.9-0.6-1-0.9 c-0.5-2.2,2.1-7.3,5.5-10.7C58.6,43,62.8,41,71.6,44.9c8.4,3.7,16.7,6.8,19.3,7.7c2.9,7.1,6.9,18.2,9.4,25.8L95.8,81.6z M106.9,82.6c-2.4-7.7-9.3-27.8-13.2-36.1c7.7-2.4,15.7-3.7,23.8-3.8l0,39.9H106.9z"></path> </g> </g> </svg> 