<?xml version="1.0" encoding="UTF-8"?> <!-- Generator: Adobe Illustrator 24.1.0, SVG Export Plug-In . SVG Version: 6.00 Build 0) --> <svg xmlns="http://www.w3.org/2000/svg" xmlns:xlink="http://www.w3.org/1999/xlink" version="1.1" id="Layer_1" x="0px" y="0px" viewBox="0 0 270.7 271.4" style="enable-background:new 0 0 270.7 271.4;" xml:space="preserve"> <style type="text/css"> .st0{fill:none;} .st1{fill:none;stroke:#00F0FF;stroke-width:4;} .st2{fill:#00F0FF;} .st3{fill:#0F1536;} .st4{fill:none;stroke:#0F1E40;stroke-width:5;stroke-linecap:round;stroke-linejoin:round;} </style> <g> <g id="Ellipse_24"> <circle class="st0" cx="135.4" cy="135.7" r="132.5"></circle> <circle class="st1" cx="135.4" cy="135.7" r="130.5"></circle> </g> <circle id="Ellipse_122" class="st2" cx="135.4" cy="135.7" r="24.6"></circle> <g> <g id="_454_Business_Distribute_Relationship_Share_Structure" transform="translate(-6.001 -6)"> <path id="Path_215" class="st3" d="M197.2,127.7c-6.6,0-12.3,4.7-13.7,11.2h-8.8c-0.6-6.9-3.3-13.5-7.8-18.8l6.2-6.2 c6.4,4.3,15.1,2.5,19.4-3.9c4.3-6.4,2.5-15.1-3.9-19.4c-6.4-4.3-15.1-2.5-19.4,3.9c-3.1,4.7-3.1,10.7,0,15.4l-6.2,6.2 c-5.3-4.5-11.9-7.2-18.8-7.8v-8.8c7.6-1.5,12.4-8.9,10.9-16.5c-1.5-7.6-8.9-12.4-16.5-10.9c-7.6,1.5-12.4,8.9-10.9,16.5 c1.1,5.5,5.4,9.8,10.9,10.9v8.8c-6.9,0.6-13.5,3.3-18.8,7.8l-6.2-6.2c4.2-6.4,2.5-15.1-4-19.3s-15.1-2.5-19.3,4s-2.5,15.1,4,19.3 c4.7,3.1,10.7,3.1,15.4,0l6.2,6.2c-4.5,5.3-7.2,11.9-7.8,18.8h-8.8c-1.5-7.6-8.9-12.4-16.5-10.9c-7.6,1.5-12.4,8.9-10.9,16.5 c1.5,7.6,8.9,12.4,16.5,10.9c5.5-1.1,9.8-5.4,10.9-10.9h8.8c0.6,6.9,3.3,13.5,7.8,18.8l-6.2,6.2c-6.4-4.3-15.1-2.5-19.4,3.9 c-4.3,6.4-2.5,15.1,3.9,19.4c6.4,4.3,15.1,2.5,19.4-3.9c3.1-4.7,3.1-10.7,0-15.4l6.2-6.2c5.3,4.5,11.9,7.2,18.8,7.8v8.8 c-7.6,1.5-12.4,8.9-10.9,16.5c1.5,7.6,8.9,12.4,16.5,10.9c7.6-1.5,12.4-8.9,10.9-16.5c-1.1-5.5-5.4-9.8-10.9-10.9v-8.8 c6.9-0.6,13.5-3.3,18.8-7.8l6.2,6.2c-4.2,6.4-2.5,15.1,4,19.3s15.1,2.5,19.3-4s2.5-15.1-4-19.3c-4.7-3.1-10.7-3.1-15.4,0 l-6.2-6.2c4.5-5.3,7.2-11.9,7.8-18.8h8.8c1.5,7.6,8.9,12.4,16.5,10.9c7.6-1.5,12.4-8.9,10.9-16.5 C209.6,132.4,203.8,127.7,197.2,127.7z M174.9,96.3c3.3-3.3,8.6-3.3,11.8,0c3.3,3.3,3.3,8.6,0,11.8c-3.3,3.3-8.6,3.3-11.8,0 C171.6,104.9,171.6,99.6,174.9,96.3C174.9,96.3,174.9,96.3,174.9,96.3z M133,85.9c0-4.6,3.8-8.4,8.4-8.4c4.6,0,8.4,3.8,8.4,8.4 s-3.8,8.4-8.4,8.4l0,0C136.7,94.2,133,90.5,133,85.9z M95.9,108.1c-3.3-3.3-3.3-8.6,0-11.8c3.3-3.3,8.6-3.3,11.8,0 c3.3,3.3,3.3,8.6,0,11.8C104.5,111.4,99.2,111.4,95.9,108.1z M85.5,150.1c-4.6,0-8.4-3.8-8.4-8.4c0-4.6,3.8-8.4,8.4-8.4 c4.6,0,8.4,3.8,8.4,8.4l0,0C93.9,146.3,90.1,150.1,85.5,150.1z M107.8,187.1c-3.3,3.3-8.6,3.3-11.8,0c-3.3-3.3-3.3-8.6,0-11.8 c3.3-3.3,8.6-3.3,11.8,0c0,0,0,0,0,0C111.1,178.5,111.1,183.8,107.8,187.1C107.8,187.1,107.8,187.1,107.8,187.1L107.8,187.1z M149.7,197.6c0,4.6-3.8,8.4-8.4,8.4s-8.4-3.8-8.4-8.4s3.8-8.4,8.4-8.4l0,0C146,189.2,149.7,192.9,149.7,197.6L149.7,197.6z M186.8,175.3c3.3,3.3,3.3,8.6,0,11.8c-3.3,3.3-8.6,3.3-11.8,0c-3.3-3.3-3.3-8.6,0-11.8c1.6-1.6,3.7-2.5,5.9-2.5 C183.1,172.8,185.2,173.7,186.8,175.3L186.8,175.3z M141.4,169.6c-15.4,0-27.9-12.5-27.9-27.9s12.5-27.9,27.9-27.9 c15.4,0,27.9,12.5,27.9,27.9l0,0C169.3,157.1,156.8,169.6,141.4,169.6L141.4,169.6z M197.2,150.1c-4.6,0-8.4-3.8-8.4-8.4 s3.8-8.4,8.4-8.4c4.6,0,8.4,3.8,8.4,8.4C205.6,146.3,201.8,150.1,197.2,150.1z"></path> </g> <ellipse id="Ellipse_121" class="st4" cx="134.9" cy="135.3" rx="9.1" ry="9.1"></ellipse> <path id="Path_216" class="st4" d="M119.1,160.2c-0.1-8.8,7-15.9,15.7-16c8.8-0.1,15.9,7,16,15.7c0,0.1,0,0.2,0,0.2"></path> </g> </g> </svg> 