<?xml version="1.0" encoding="UTF-8"?> <!-- Generator: Adobe Illustrator 24.1.0, SVG Export Plug-In . SVG Version: 6.00 Build 0) --> <svg xmlns="http://www.w3.org/2000/svg" xmlns:xlink="http://www.w3.org/1999/xlink" version="1.1" id="Layer_1" x="0px" y="0px" viewBox="0 0 270.7 271.4" style="enable-background:new 0 0 270.7 271.4;" xml:space="preserve"> <style type="text/css"> .st0{fill:#FFFFFF;stroke:#00F5BD;stroke-width:3;stroke-miterlimit:10;} .st1{fill:#0F1F40;} .st2{fill:none;stroke:#000000;stroke-width:3.1369;stroke-linecap:round;stroke-linejoin:round;stroke-miterlimit:10;} .st3{fill:none;stroke:#000000;stroke-width:3.1369;stroke-linecap:round;stroke-miterlimit:10;} .st4{fill:none;stroke:#000000;stroke-width:2.0912;stroke-linecap:round;stroke-linejoin:round;stroke-miterlimit:10;} .st5{stroke:#000000;stroke-width:0.6971;stroke-miterlimit:10;} .st6{fill:#00F5BD;} .st7{fill:#00F0FF;} .st8{fill:#00F0FF;stroke:#00F0FF;stroke-width:2;stroke-miterlimit:10;} .st9{fill:#0F1536;} .st10{fill:#0F1536;stroke:#FFFFFF;stroke-width:0.7647;} .st11{fill:none;stroke:#0F1F40;stroke-width:1.5362;stroke-linecap:round;stroke-linejoin:round;stroke-miterlimit:10;} .st12{fill:none;} .st13{fill:none;stroke:#0F1F40;stroke-width:1.9669;stroke-linecap:round;stroke-linejoin:round;stroke-miterlimit:10;} .st14{fill:none;stroke:#0F1F40;stroke-width:1.8435;stroke-linecap:round;stroke-linejoin:round;stroke-miterlimit:10;} .st15{fill:#0F1F40;stroke:#0F1F40;stroke-width:0.5691;stroke-miterlimit:10;} .st16{fill:none;stroke:#0F1F40;stroke-width:2.4442;stroke-linecap:round;stroke-linejoin:round;stroke-miterlimit:10;} .st17{fill:none;stroke:#0F1F40;stroke-width:2.4881;stroke-linecap:round;stroke-linejoin:round;stroke-miterlimit:10;} .st18{fill:none;stroke:#0F1F40;stroke-width:1.2495;stroke-linecap:round;stroke-linejoin:round;stroke-miterlimit:10;} .st19{fill:none;stroke:#5CE5C6;stroke-width:1.2495;stroke-miterlimit:10;} .st20{fill:#32E13C;} .st21{fill:#0AEEFD;} .st22{fill:#92D050;} .st23{fill:#0F1E40;stroke:#92D050;stroke-miterlimit:10;} .st24{fill:#0F1F40;stroke:#0F1E40;stroke-miterlimit:10;} .st25{fill:#0F1F40;stroke:#0F1E40;stroke-width:1.6173;stroke-miterlimit:10;} .st26{fill:#0F1E40;} .st27{fill:none;stroke:#0F1E40;stroke-width:1.8127;stroke-linecap:round;stroke-linejoin:round;stroke-miterlimit:10;} .st28{fill:none;stroke:#0F1E40;stroke-width:1.4619;stroke-linecap:round;stroke-linejoin:round;stroke-miterlimit:10;} .st29{fill:none;stroke:#0F1E40;stroke-width:1.0632;stroke-linecap:round;stroke-linejoin:round;stroke-miterlimit:10;} .st30{fill:none;stroke:#0F1E40;stroke-width:1.619;stroke-linecap:round;stroke-linejoin:round;stroke-miterlimit:10;} .st31{fill:none;stroke:#0F1E40;stroke-width:2;stroke-linecap:round;stroke-linejoin:round;stroke-miterlimit:10;} .st32{fill:#0F1F40;stroke:#0F1E40;stroke-width:0.75;stroke-miterlimit:10;} .st33{fill:#FFFFFF;stroke:#92D050;stroke-width:3;stroke-miterlimit:10;} .st34{fill:#FFFFFF;stroke:#92D050;stroke-width:1.25;stroke-miterlimit:10;} .st35{fill:none;stroke:#0F1F40;stroke-width:3;stroke-linecap:round;stroke-linejoin:round;stroke-miterlimit:10;} .st36{fill:none;stroke:#000000;stroke-width:2.5;stroke-linecap:round;stroke-linejoin:round;stroke-miterlimit:10;} .st37{fill:none;stroke:#000000;stroke-width:2.5;stroke-miterlimit:10;} .st38{fill:none;stroke:#00F0FF;stroke-width:2.7112;stroke-linecap:round;stroke-linejoin:round;stroke-miterlimit:10;} .st39{fill:none;stroke:#00F0FF;stroke-width:4;} .st40{fill:none;stroke:#00F0FF;stroke-width:4;stroke-linecap:round;stroke-linejoin:round;} .st41{fill:none;stroke:#0E0E0E;stroke-width:3;} .st42{fill:#0F1536;stroke:#0F1536;stroke-width:2.62;stroke-miterlimit:10;} .st43{fill:none;stroke:#0F1536;stroke-width:6;stroke-linecap:round;stroke-linejoin:round;} .st44{fill:none;stroke:#32E13C;stroke-width:4;} </style> <g> <g id="Ellipse_78"> <circle class="st12" cx="135.4" cy="135.7" r="132.5"></circle> <circle class="st39" cx="135.4" cy="135.7" r="130.5"></circle> </g> <g id="Reach" transform="translate(67.184 71.5)"> <circle id="Ellipse_69" class="st7" cx="35.7" cy="60.2" r="17.6"></circle> <path id="Path_107" class="st9" d="M108.3,55.9c14.6,0,26.4-11.8,26.4-26.3S122.9,3.2,108.4,3.2c-10.3,0-19.6,5.9-23.9,15.2 l-7.1-2.6c0.1-0.5,0.2-1.1,0.2-1.6C77.6,8,72.7,3,66.6,3c-6.1-0.1-11.1,4.9-11.2,11s4.9,11.1,11,11.2c3.9,0,7.5-1.9,9.5-5.2l7,2.6 c-1.4,5-1.3,10.3,0.4,15.2L59.1,48C53,36.2,38.9,30.9,26.5,35.7l-6.1-12.8c4.8-3.7,5.7-10.5,2-15.3s-10.5-5.7-15.3-2 s-5.7,10.5-2,15.3c2.1,2.7,5.3,4.3,8.7,4.3c0.9,0,1.8-0.1,2.6-0.4l6.1,12.8C10,44.8,5.7,61,13,73.5c2,3.5,4.8,6.4,8.1,8.7l-4,7.2 c-1.1-0.4-2.2-0.5-3.3-0.6c-6.1-0.1-11.2,4.8-11.2,11c-0.1,6.1,4.8,11.2,11,11.2s11.2-4.8,11.2-11c0-3.3-1.4-6.4-3.9-8.6l4-7.2 c8.8,4,19.2,2.8,26.8-3.1l8.6,9.5c-4.6,4.9-7.1,11.3-7.1,17.9c0,1.3,0.1,2.6,0.3,3.9L43.5,115c-2.6-5.4-9.1-7.8-14.6-5.2 s-7.8,9.1-5.2,14.6c2.6,5.4,9.1,7.8,14.6,5.2c3.8-1.8,6.3-5.7,6.2-9.9c0-0.1,0-0.2,0-0.4l10.2-2.4c4.5,13.8,19.4,21.4,33.2,16.8 s21.4-19.4,16.8-33.2c-0.5-1.5-1.1-2.9-1.8-4.3l12.9-8.4c4.3,4.4,11.4,4.5,15.8,0.2c4.4-4.3,4.5-11.4,0.2-15.8 c-4.3-4.4-11.4-4.5-15.8-0.2c-3.2,3.2-4.3,7.9-2.6,12.1l-12.9,8.4c-2.6-3.3-6-6-9.8-7.8L101.5,55C103.7,55.6,106,55.9,108.3,55.9z M66.6,20.8c-3.6,0-6.6-2.9-6.6-6.6s2.9-6.6,6.6-6.6c3.6,0,6.6,2.9,6.6,6.6c0,0,0,0,0,0C73.2,17.8,70.2,20.8,66.6,20.8z M7.2,14.2 c0-3.6,3-6.6,6.6-6.6s6.6,3,6.6,6.6s-3,6.6-6.6,6.6C10.2,20.8,7.3,17.8,7.2,14.2z M13.8,106.4c-3.6,0-6.6-3-6.6-6.6 c0-3.6,3-6.6,6.6-6.6s6.6,3,6.6,6.6C20.4,103.5,17.5,106.4,13.8,106.4z M33.6,126.2c-3.6,0-6.6-3-6.6-6.6c0-3.6,3-6.6,6.6-6.6 c3.6,0,6.6,3,6.6,6.6C40.2,123.3,37.3,126.2,33.6,126.2L33.6,126.2z M123.7,73.5c3.6,0,6.6,3,6.6,6.6s-3,6.6-6.6,6.6 s-6.6-3-6.6-6.6C117.1,76.4,120,73.5,123.7,73.5z M95.4,47.3c1-5.2,5.5-8.9,10.7-8.9h4.4c5.3,0,9.7,3.8,10.7,8.9 C113.6,52.9,103.1,52.9,95.4,47.3z M108.3,33.9c-3.6,0-6.6-3-6.6-6.6s3-6.6,6.6-6.6s6.6,3,6.6,6.6C114.9,31,111.9,33.9,108.3,33.9 L108.3,33.9z M108.3,7.6c12.1,0,22,9.8,22,21.9c0,5.3-1.9,10.4-5.4,14.4c-1.5-4.1-4.7-7.3-8.7-8.9c4.3-4.3,4.2-11.3-0.1-15.5 s-11.3-4.2-15.5,0.1c-4.2,4.3-4.2,11.1,0,15.4c-4,1.6-7.2,4.8-8.7,8.9c-8-9.1-7-23,2.1-30.9C97.9,9.5,103,7.6,108.3,7.6L108.3,7.6 z M13.8,60.3c0-12.1,9.8-22,21.9-22c12.1,0,22,9.8,22,21.9c0,5.3-1.9,10.5-5.4,14.5c-1.5-4.1-4.7-7.3-8.8-8.9 c4.3-4.3,4.2-11.3-0.1-15.5s-11.3-4.2-15.5,0.1c-4.2,4.3-4.2,11.1,0,15.4c-4,1.6-7.2,4.8-8.7,8.9C15.7,70.7,13.8,65.6,13.8,60.3z M29.2,58.1c0-3.6,3-6.6,6.6-6.6c3.6,0,6.6,3,6.6,6.6s-3,6.6-6.6,6.6l0,0C32.1,64.7,29.2,61.7,29.2,58.1L29.2,58.1z M22.8,78 c1-5.1,5.5-8.9,10.7-8.9H38c5.3,0,9.8,3.8,10.7,9C41,83.7,30.5,83.7,22.8,78L22.8,78z M66.8,126.3c1-5.1,5.5-8.9,10.7-8.9h4.4 c5.3,0,9.8,3.8,10.7,9C84.9,132,74.5,132,66.8,126.3L66.8,126.3z M79.7,113c-3.6,0-6.6-3-6.6-6.6s3-6.6,6.6-6.6s6.6,3,6.6,6.6 C86.3,110.1,83.3,113,79.7,113L79.7,113z M101.7,108.6c0,5.3-1.9,10.4-5.4,14.4c-1.5-4.1-4.7-7.3-8.8-8.9 c4.3-4.3,4.2-11.3-0.1-15.5c-4.3-4.3-11.3-4.2-15.5,0.1c-4.2,4.3-4.2,11.1,0,15.4c-4,1.6-7.2,4.8-8.7,8.9c-7.9-9.2-6.9-23,2.3-31 s23-6.9,31,2.3C99.8,98.3,101.7,103.4,101.7,108.6L101.7,108.6z M86.6,83.2c-7.9-2.2-16.4-0.5-22.9,4.5l-8.6-9.5 c6.6-7,8.8-17.1,5.8-26.2L85,41.8c2.7,5.1,7.1,9.2,12.3,11.7L86.6,83.2z"></path> </g> </g> </svg> 