<?xml version="1.0" encoding="UTF-8"?> <!-- Generator: Adobe Illustrator 25.0.1, SVG Export Plug-In . SVG Version: 6.00 Build 0) --> <svg xmlns="http://www.w3.org/2000/svg" xmlns:xlink="http://www.w3.org/1999/xlink" version="1.1" id="Layer_1" x="0px" y="0px" viewBox="0 0 179 179" style="enable-background:new 0 0 179 179;" xml:space="preserve"> <style type="text/css"> .st0{display:none;fill:none;stroke:#0F1536;stroke-width:4;} .st1{display:none;} .st2{display:inline;fill:#FFFFFF;} .st3{display:inline;fill:none;stroke:#0F1536;stroke-width:4;} .st4{fill:#FFFFFF;} .st5{fill:none;stroke:#0F1536;stroke-width:4;} .st6{fill:none;stroke:#0F1536;stroke-width:3.25;stroke-linecap:round;stroke-linejoin:round;} .st7{fill:#00F0FF;} .st8{display:inline;fill:#0F1536;} .st9{display:inline;fill:#00F0FF;} .st10{display:inline;fill:none;stroke:#0F1536;stroke-width:3.25;stroke-linecap:round;stroke-linejoin:round;} .st11{display:inline;} .st12{fill:#0F1536;} .st13{display:none;fill:#0F1536;} .st14{display:none;fill:none;stroke:#1BCABC;stroke-width:2;} .st15{display:none;fill:#00F5BC;} </style> <g transform="translate(92.376 -3113)"> <path class="st0" d="M-573.3,3078.9c177.9,47.5,278.2,99.9,558.1,120.2c279.8,20.3,699.5-52.7,910.7-133.8"></path> <g transform="translate(108 3134)" class="st1"> <circle class="st2" cx="-391.9" cy="20.5" r="89.5"></circle> <circle class="st3" cx="-391.9" cy="20.5" r="87.5"></circle> </g> <g transform="translate(389 3182)"> <circle class="st4" cx="-391.9" cy="20.5" r="89.5"></circle> <circle class="st5" cx="-391.9" cy="20.5" r="87.5"></circle> </g> <g transform="translate(712 3182)" class="st1"> <circle class="st2" cx="-391.9" cy="20.5" r="89.5"></circle> <circle class="st3" cx="-391.9" cy="20.5" r="87.5"></circle> </g> <g transform="translate(1009 3113)" class="st1"> <circle class="st2" cx="-391.9" cy="20.5" r="89.5"></circle> <circle class="st3" cx="-391.9" cy="20.5" r="87.5"></circle> </g> <g transform="translate(-1234.582 2547.6)"> <path class="st6" d="M1226.6,642.8c-6.7,0-12.2-5.5-12.2-12.2s5.5-12.2,12.2-12.2s12.2,5.5,12.2,12.2S1233.3,642.8,1226.6,642.8 L1226.6,642.8z"></path> <path class="st6" d="M1212.4,682v9.2c0,1.7,1.4,3.2,3.2,3.2h22c1.7,0,3.2-1.4,3.2-3.2l0,0v-1"></path> <path class="st6" d="M1250.2,676l-1.9,9.2h-27.2l1.7-8.1l1.8-9.1l4.1-20.2h27.2l-4,19.8"></path> <path class="st6" d="M1248.2,671.2c-0.6,2.5,1,4.4,3.1,5.5c1,0.5,2.2,0.2,2.7-0.8c0.1-0.2,0.2-0.3,0.2-0.5l1.2-5.6 c0.2-1.1-0.5-2.1-1.5-2.4c-0.2,0-0.3-0.1-0.5,0C1251,667.5,1248.8,668.5,1248.2,671.2z"></path> <path class="st6" d="M1224.8,667h-11c-0.7,0-1.3-0.6-1.3-1.3v-4.9"></path> <path class="st6" d="M1223.6,647.8h-9c-6.9,0-12.4,5.6-12.4,12.4l0,0v10.9c0,3.4,2.7,6.1,6.1,6.1l0,0h14.5"></path> <line class="st6" x1="1224.8" y1="667" x2="1219.3" y2="661.5"></line> <path class="st6" d="M1244.6,641.9c1.1-1.3,1.9-2.9,2.2-4.5c-1.4-1.5-2.1-3.5-2.1-5.5c0-5.5,6-10,13.3-9.9s13.2,4.6,13.2,10.1 s-6,10-13.3,9.9c-2.7,0-5.3-0.6-7.6-1.9C1248.5,641.1,1246.6,641.8,1244.6,641.9z"></path> <path class="st6" d="M1253.7,631l3.1,3.1l5.1-5.1"></path> <circle class="st7" cx="1226.6" cy="630.6" r="8.3"></circle> </g> <g transform="translate(-1024.675 2549.103)" class="st1"> <path class="st8" d="M1383.5,662.5l-14.6-13.1c6.3-9.2,4-21.7-5.2-28s-21.7-4-28,5.2s-4,21.7,5.2,28c3.4,2.3,7.4,3.6,11.6,3.5 c3.8,0,7.5-1.1,10.7-3.2l12.7,14.9c1.9,2.2,5.2,2.5,7.4,0.7c2.2-1.9,2.5-5.2,0.7-7.4C1383.9,662.8,1383.7,662.6,1383.5,662.5 L1383.5,662.5z M1381.9,668.3c-1.1,1-2.8,1-3.8-0.1l-0.1-0.1l-14.3-16.7l-1,0.7c-3,2.2-6.6,3.4-10.3,3.4 c-9.7,0-17.5-7.8-17.5-17.5s7.8-17.5,17.5-17.5s17.5,7.8,17.5,17.5c0,3.9-1.3,7.7-3.7,10.8l-0.7,1l16.4,14.7 c1.1,1,1.2,2.7,0.2,3.8C1381.9,668.2,1381.9,668.3,1381.9,668.3L1381.9,668.3z"></path> <circle class="st9" cx="1352" cy="637.6" r="13.6"></circle> <path class="st8" d="M1342.6,650.4l11.6-11.6v6.3h2.6v-10.7h-10.7v2.6h6.3l-11.6,11.6L1342.6,650.4z"></path> <path class="st8" d="M1299.1,679l11.5-11.5l17.5,17.5l15.7-15.7l15.3,15.3h25.3l-4.8,4.8l1.8,1.8l8-8l-8-8l-1.8,1.8l4.8,4.8h-24.2 l-16.4-16.4l-15.7,15.7l-15.6-15.6l4.8-4.8h14.9l5.9-6l-1.8-1.8l-5.2,5.2h-14.9l-5.5,5.5l-9.4-9.4l-1.8,1.8l9.4,9.4l-11.5,11.5 L1299.1,679z"></path> </g> <g transform="translate(-671.429 2390.759)" class="st1"> <line class="st10" x1="1258.8" y1="752.3" x2="1283.3" y2="727.8"></line> <path class="st10" d="M1267.1,731.6c0,2.5-2,4.5-4.5,4.5s-4.5-2-4.5-4.5s2-4.5,4.5-4.5l0,0 C1265.1,727.1,1267.1,729.1,1267.1,731.6z"></path> <path class="st10" d="M1284.1,748.5c0,2.5-2,4.5-4.5,4.5s-4.5-2-4.5-4.5s2-4.5,4.5-4.5S1284.1,746,1284.1,748.5L1284.1,748.5z"></path> <path class="st10" d="M1314.3,747.2v-29.9c0-0.6-0.5-1.1-1.1-1.1h-64.1c-0.6,0-1.1,0.5-1.1,1.1v46.8c0,0.6,0.5,1.1,1.1,1.1l0,0 h13.9c0.6,0,1.1,0.5,1.1,1.1v12c0,0.6,0.5,1.1,1.1,1.1c0.3,0,0.6-0.1,0.8-0.3l13.6-13.6c0.2-0.2,0.5-0.3,0.8-0.3h13.7"></path> <path class="st10" d="M1294.8,747.2h32.7c0.3,0,0.6,0.3,0.6,0.6l0,0v23.9c0,0.3-0.3,0.6-0.6,0.6l0,0h-7.1c-0.3,0-0.6,0.3-0.6,0.6 l0,0v6.1c0,0.3-0.3,0.6-0.6,0.6c-0.2,0-0.3-0.1-0.4-0.2l-6.9-6.9c-0.1-0.1-0.3-0.2-0.4-0.2h-16.7c-0.3,0-0.6-0.3-0.6-0.6l0,0 v-23.9C1294.2,747.5,1294.5,747.2,1294.8,747.2z"></path> <rect x="1299" y="751.4" class="st9" width="23.8" height="16.3"></rect> <line class="st10" x1="1304.2" y1="759.5" x2="1305" y2="759.5"></line> <line class="st10" x1="1310.7" y1="759.5" x2="1311.5" y2="759.5"></line> <line class="st10" x1="1317.2" y1="759.5" x2="1317.9" y2="759.5"></line> <line class="st10" x1="1294.2" y1="727.8" x2="1305" y2="727.8"></line> <line class="st10" x1="1294.2" y1="736.4" x2="1299.2" y2="736.4"></line> </g> <g transform="translate(-1348.73 2505.404)" class="st1"> <g transform="translate(1497.73 686.596)" class="st11"> <g transform="translate(50.591 43.478)"> <circle class="st12" cx="-479.1" cy="-66.7" r="1.9"></circle> </g> <g transform="translate(32.331 51.004)"> <path class="st12" d="M-435.6-66.6h-44.6c-0.7,0-1.2-0.5-1.2-1.2c0-0.6,0.5-1.2,1.2-1.2l0,0h44.6c0.7,0,1.2,0.6,1.2,1.2 C-434.3-67.1-434.9-66.6-435.6-66.6z"></path> </g> <g transform="translate(16.125)"> <path class="st12" d="M-409.2-41.1c-0.7,0-1.2-0.5-1.2-1.2l0,0v-21.2c0-1.7-1.4-3.1-3.1-3.1h-62.4c-1.7,0-3.1,1.4-3.1,3.1v13.7 c0,0.7-0.5,1.2-1.2,1.2s-1.2-0.5-1.2-1.2v-13.7c0-3,2.5-5.5,5.5-5.5h62.4c3,0,5.5,2.5,5.5,5.5v21.1 C-407.9-41.7-408.5-41.1-409.2-41.1L-409.2-41.1z"></path> </g> <g transform="translate(42.594 51.22)"> <path class="st12" d="M-462-56.2h-18.3c-0.6,0-1.1-0.5-1.1-1.1c0-0.1,0-0.1,0-0.2l2-10.6c0.1-0.5,0.5-0.9,1.1-0.9h14.4 c0.5,0,1,0.4,1.1,0.9l1.9,10.4c0.2,0.6-0.2,1.2-0.8,1.4C-461.8-56.2-461.9-56.2-462-56.2L-462-56.2z M-478.9-58.5h15.5l-1.5-8.2 h-12.5L-478.9-58.5z"></path> </g> <g transform="translate(39.474 61.726)"> <path class="st12" d="M-455.8-66.7h-24.5c-0.6,0-1.1-0.5-1.1-1.2c0-0.6,0.5-1.1,1.1-1.1h24.5c0.6,0,1.1,0.5,1.1,1.1 C-454.6-67.2-455.2-66.7-455.8-66.7z"></path> </g> <g transform="translate(32.412 38.584)"> <path class="st12" d="M-435.6-66.7h-44.7c-0.6,0-1.1-0.5-1.1-1.2c0-0.6,0.5-1.1,1.1-1.1l0,0h44.6c0.6,0,1.1,0.5,1.1,1.1 C-434.5-67.2-435-66.7-435.6-66.7L-435.6-66.7z"></path> </g> <g transform="translate(0 18.103)"> <path class="st12" d="M-450.9-23.1h-26.3c-2.3,0-4.2-1.9-4.2-4.2v-37.5c0-2.3,1.9-4.2,4.2-4.2h26.4c2.3,0,4.2,1.9,4.2,4.2v37.6 C-446.7-25-448.6-23.1-450.9-23.1z M-477.2-66.7c-1,0-1.9,0.8-1.9,1.9v37.6c0,1,0.8,1.9,1.9,1.9h26.4c1,0,1.9-0.8,1.9-1.9v-37.6 c0-1-0.8-1.9-1.9-1.9H-477.2z"></path> </g> <g transform="translate(77.038 25.505)"> <path class="st12" d="M-462.9-30.5h-14.3c-2.3,0-4.2-1.9-4.2-4.2v-30.1c0-2.3,1.9-4.2,4.2-4.2h14.3c2.3,0,4.2,1.9,4.2,4.2v30.2 C-458.7-32.4-460.6-30.5-462.9-30.5z M-477.2-66.7c-1,0-1.9,0.8-1.9,1.9v30.2c0,1,0.8,1.9,1.9,1.9h14.3c1,0,1.9-0.8,1.9-1.9 v-30.2c0-1-0.8-1.9-1.9-1.9H-477.2z"></path> </g> <g transform="translate(87.219 58.467)"> <path class="st12" d="M-480.3-66.7c-0.6,0-1.1-0.5-1.1-1.2c0-0.6,0.5-1.1,1.1-1.1s1.1,0.5,1.1,1.1l0,0 C-479.1-67.2-479.6-66.7-480.3-66.7z"></path> </g> <g transform="translate(16.044 57.613)"> <circle class="st12" cx="-480.1" cy="-67.7" r="1.3"></circle> </g> <g transform="translate(84.869 29.741)"> <path class="st12" d="M-475.8-66.7h-4.5c-0.6,0-1.1-0.5-1.1-1.2c0-0.6,0.5-1.1,1.1-1.1h4.4c0.6,0,1.1,0.5,1.1,1.1 C-474.7-67.2-475.2-66.7-475.8-66.7L-475.8-66.7z"></path> </g> <g transform="translate(77.248 55.327)"> <path class="st12" d="M-460.3-66.7h-20c-0.6,0-1.1-0.5-1.1-1.2c0-0.6,0.5-1.1,1.1-1.1h20c0.6,0,1.1,0.5,1.1,1.1 C-459.2-67.2-459.7-66.7-460.3-66.7z"></path> </g> <g transform="translate(0.335 54.019)"> <path class="st12" d="M-448.5-66.7h-31.8c-0.6,0-1.1-0.5-1.1-1.2c0-0.6,0.5-1.1,1.1-1.1l0,0h31.7c0.7,0,1.2,0.5,1.2,1.1 C-447.4-67.2-447.9-66.7-448.5-66.7z"></path> </g> </g> <line class="st10" x1="1059.1" y1="628.5" x2="1082.2" y2="628.5"></line> <line class="st10" x1="1064.5" y1="639.2" x2="1075.5" y2="639.2"></line> <line class="st10" x1="1070" y1="648.2" x2="1070" y2="648.2"></line> <line class="st10" x1="1067.1" y1="643" x2="1068.1" y2="644.8"></line> <line class="st10" x1="1061.4" y1="632.8" x2="1062.6" y2="635.4"></line> <path class="st9" d="M1023,640.1h21.7c1.3,0,2.3,1,2.3,2.3v27.4l0,0h-26.4l0,0v-27.4C1020.6,641.1,1021.7,640.1,1023,640.1z"></path> </g> <path class="st13" d="M170.2,3200.7l-12.7,7.4l-0.5-14L170.2,3200.7z"></path> <path class="st13" d="M-146.9,3185.9l-13.9,4.9l2.2-13.8L-146.9,3185.9z"></path> <path class="st13" d="M482.1,3167.9l-11.7,8.9l-2.2-13.8L482.1,3167.9z"></path> <path class="st14" d="M-183.8,3199.1c0,0,34.9,7,69.5,7.9"></path> <path class="st14" d="M445.5,3159.4c0,0,35.4-3.5,68.8-12.8"></path> <circle class="st15" cx="99.6" cy="3181" r="4"></circle> <circle class="st15" cx="438.6" cy="3189" r="4"></circle> </g> </svg> 