<?xml version="1.0" encoding="UTF-8"?> <!-- Generator: Adobe Illustrator 25.0.1, SVG Export Plug-In . SVG Version: 6.00 Build 0) --> <svg xmlns="http://www.w3.org/2000/svg" xmlns:xlink="http://www.w3.org/1999/xlink" version="1.1" id="Layer_1" x="0px" y="0px" viewBox="0 0 1470 248" style="enable-background:new 0 0 1470 248;" xml:space="preserve"> <style type="text/css"> .st0{fill:none;stroke:#0F1536;stroke-width:4;} .st1{display:none;} .st2{display:inline;fill:#FFFFFF;} .st3{display:inline;fill:none;stroke:#0F1536;stroke-width:4;} .st4{display:inline;fill:none;stroke:#0F1536;stroke-width:3.25;stroke-linecap:round;stroke-linejoin:round;} .st5{display:inline;fill:#00F0FF;} .st6{display:inline;fill:#0F1536;} .st7{display:inline;} .st8{fill:#0F1536;} .st9{fill:none;stroke:#1BCABC;stroke-width:2;} .st10{fill:none;stroke:#1BCABC;stroke-width:2;stroke-miterlimit:4;} .st11{fill:#00F5BC;} </style> <g transform="translate(92.376 -3113)"> <path class="st0" d="M-91.9,3147.9c177.9,47.5,278.2,99.9,558.1,120.2c279.8,20.3,699.5-52.7,910.7-133.8"></path> <g transform="translate(108 3134)" class="st1"> <circle class="st2" cx="89.5" cy="89.5" r="89.5"></circle> <circle class="st3" cx="89.5" cy="89.5" r="87.5"></circle> </g> <g transform="translate(389 3182)" class="st1"> <circle class="st2" cx="89.5" cy="89.5" r="89.5"></circle> <circle class="st3" cx="89.5" cy="89.5" r="87.5"></circle> </g> <g transform="translate(712 3182)" class="st1"> <circle class="st2" cx="89.5" cy="89.5" r="89.5"></circle> <circle class="st3" cx="89.5" cy="89.5" r="87.5"></circle> </g> <g transform="translate(1009 3113)" class="st1"> <circle class="st2" cx="89.5" cy="89.5" r="89.5"></circle> <circle class="st3" cx="89.5" cy="89.5" r="87.5"></circle> </g> <g transform="translate(-1234.582 2547.6)" class="st1"> <path class="st4" d="M1708,711.8c-6.7,0-12.2-5.5-12.2-12.2c0-6.7,5.5-12.2,12.2-12.2c6.7,0,12.2,5.5,12.2,12.2 C1720.2,706.3,1714.7,711.8,1708,711.8C1708,711.8,1708,711.8,1708,711.8z"></path> <path class="st4" d="M1693.8,751v9.2c0,1.7,1.4,3.2,3.2,3.2h22c1.7,0,3.2-1.4,3.2-3.2c0,0,0,0,0,0v-1"></path> <path class="st4" d="M1731.6,745l-1.9,9.2h-27.2l1.7-8.1l1.8-9.1l4.1-20.2h27.2l-4,19.8"></path> <path class="st4" d="M1729.6,740.2c-0.6,2.5,1,4.4,3.1,5.5c1,0.5,2.2,0.2,2.7-0.8c0.1-0.2,0.2-0.3,0.2-0.5l1.2-5.6 c0.2-1.1-0.5-2.1-1.5-2.4c-0.2,0-0.3-0.1-0.5,0C1732.4,736.5,1730.2,737.5,1729.6,740.2z"></path> <path class="st4" d="M1706.2,736h-11c-0.7,0-1.3-0.6-1.3-1.3v-4.9"></path> <path class="st4" d="M1705,716.8h-9c-6.9,0-12.4,5.6-12.4,12.4c0,0,0,0,0,0v10.9c0,3.4,2.7,6.1,6.1,6.1l0,0h14.5"></path> <line class="st4" x1="1706.2" y1="736" x2="1700.7" y2="730.5"></line> <path class="st4" d="M1726,710.9c1.1-1.3,1.9-2.9,2.2-4.5c-1.4-1.5-2.1-3.5-2.1-5.5c0-5.5,6-10,13.3-9.9s13.2,4.6,13.2,10.1 s-6,10-13.3,9.9c-2.7,0-5.3-0.6-7.6-1.9C1729.9,710.1,1728,710.8,1726,710.9z"></path> <path class="st4" d="M1735.1,700l3.1,3.1l5.1-5.1"></path> <circle class="st5" cx="1708" cy="699.6" r="8.3"></circle> </g> <g transform="translate(-1024.675 2549.103)" class="st1"> <path class="st6" d="M1864.9,731.5l-14.6-13.1c6.3-9.2,4-21.7-5.2-28c-9.2-6.3-21.7-4-28,5.2s-4,21.7,5.2,28 c3.4,2.3,7.4,3.6,11.6,3.5c3.8,0,7.5-1.1,10.7-3.2l12.7,14.9c1.9,2.2,5.2,2.5,7.4,0.7c2.2-1.9,2.5-5.2,0.7-7.4 C1865.3,731.8,1865.1,731.6,1864.9,731.5L1864.9,731.5z M1863.3,737.3c-1.1,1-2.8,1-3.8-0.1c0,0-0.1-0.1-0.1-0.1l-14.3-16.7 l-1,0.7c-3,2.2-6.6,3.4-10.3,3.4c-9.7,0-17.5-7.8-17.5-17.5c0-9.7,7.8-17.5,17.5-17.5c9.7,0,17.5,7.8,17.5,17.5 c0,3.9-1.3,7.7-3.7,10.8l-0.7,1l16.4,14.7c1.1,1,1.2,2.7,0.2,3.8C1863.3,737.2,1863.3,737.3,1863.3,737.3L1863.3,737.3z"></path> <circle class="st5" cx="1833.4" cy="706.6" r="13.6"></circle> <path class="st6" d="M1824,719.4l11.6-11.6v6.3h2.6v-10.7h-10.7v2.6h6.3l-11.6,11.6L1824,719.4z"></path> <path class="st6" d="M1780.5,748l11.5-11.5l17.5,17.5l15.7-15.7l15.3,15.3h25.3l-4.8,4.8l1.8,1.8l8-8l-8-8l-1.8,1.8l4.8,4.8h-24.2 l-16.4-16.4l-15.7,15.7l-15.6-15.6l4.8-4.8h14.9l5.9-6l-1.8-1.8l-5.2,5.2h-14.9l-5.5,5.5l-9.4-9.4l-1.8,1.8l9.4,9.4l-11.5,11.5 L1780.5,748z"></path> </g> <g transform="translate(-671.429 2390.759)" class="st1"> <line class="st4" x1="1740.2" y1="821.3" x2="1764.7" y2="796.8"></line> <path class="st4" d="M1748.5,800.6c0,2.5-2,4.5-4.5,4.5s-4.5-2-4.5-4.5s2-4.5,4.5-4.5l0,0C1746.5,796.1,1748.5,798.1,1748.5,800.6 z"></path> <path class="st4" d="M1765.5,817.5c0,2.5-2,4.5-4.5,4.5s-4.5-2-4.5-4.5s2-4.5,4.5-4.5S1765.5,815,1765.5,817.5L1765.5,817.5z"></path> <path class="st4" d="M1795.7,816.2v-29.9c0-0.6-0.5-1.1-1.1-1.1h-64.1c-0.6,0-1.1,0.5-1.1,1.1v46.8c0,0.6,0.5,1.1,1.1,1.1 c0,0,0,0,0,0h13.9c0.6,0,1.1,0.5,1.1,1.1v12c0,0.6,0.5,1.1,1.1,1.1c0.3,0,0.6-0.1,0.8-0.3l13.6-13.6c0.2-0.2,0.5-0.3,0.8-0.3h13.7 "></path> <path class="st4" d="M1776.2,816.2h32.7c0.3,0,0.6,0.3,0.6,0.6c0,0,0,0,0,0v23.9c0,0.3-0.3,0.6-0.6,0.6l0,0h-7.1 c-0.3,0-0.6,0.3-0.6,0.6c0,0,0,0,0,0v6.1c0,0.3-0.3,0.6-0.6,0.6c-0.2,0-0.3-0.1-0.4-0.2l-6.9-6.9c-0.1-0.1-0.3-0.2-0.4-0.2h-16.7 c-0.3,0-0.6-0.3-0.6-0.6c0,0,0,0,0,0v-23.9C1775.6,816.5,1775.9,816.2,1776.2,816.2z"></path> <rect x="1780.4" y="820.4" class="st5" width="23.8" height="16.3"></rect> <line class="st4" x1="1785.6" y1="828.5" x2="1786.4" y2="828.5"></line> <line class="st4" x1="1792.1" y1="828.5" x2="1792.9" y2="828.5"></line> <line class="st4" x1="1798.6" y1="828.5" x2="1799.3" y2="828.5"></line> <line class="st4" x1="1775.6" y1="796.8" x2="1786.4" y2="796.8"></line> <line class="st4" x1="1775.6" y1="805.4" x2="1780.6" y2="805.4"></line> </g> <g transform="translate(-1348.73 2505.404)" class="st1"> <g transform="translate(1497.73 686.596)" class="st7"> <g transform="translate(50.591 43.478)"> <circle class="st8" cx="2.3" cy="2.3" r="1.9"></circle> </g> <g transform="translate(32.331 51.004)"> <path class="st8" d="M45.8,2.4H1.2C0.5,2.4,0,1.9,0,1.2C0,0.6,0.5,0,1.2,0c0,0,0,0,0,0h44.6c0.7,0,1.2,0.6,1.2,1.2 C47.1,1.9,46.5,2.4,45.8,2.4z"></path> </g> <g transform="translate(16.125)"> <path class="st8" d="M72.2,27.9c-0.7,0-1.2-0.5-1.2-1.2c0,0,0,0,0,0V5.5c0-1.7-1.4-3.1-3.1-3.1H5.5c-1.7,0-3.1,1.4-3.1,3.1v13.7 c0,0.7-0.5,1.2-1.2,1.2S0,19.9,0,19.2V5.5C0,2.5,2.5,0,5.5,0h62.4c3,0,5.5,2.5,5.5,5.5v21.1C73.5,27.3,72.9,27.9,72.2,27.9 L72.2,27.9z"></path> </g> <g transform="translate(42.594 51.22)"> <path class="st8" d="M19.4,12.8H1.1c-0.6,0-1.1-0.5-1.1-1.1c0-0.1,0-0.1,0-0.2L2,0.9C2.1,0.4,2.5,0,3.1,0h14.4 c0.5,0,1,0.4,1.1,0.9l1.9,10.4c0.2,0.6-0.2,1.2-0.8,1.4C19.6,12.8,19.5,12.8,19.4,12.8L19.4,12.8z M2.5,10.5H18l-1.5-8.2H4 L2.5,10.5z"></path> </g> <g transform="translate(39.474 61.726)"> <path class="st8" d="M25.6,2.3H1.1C0.5,2.3,0,1.8,0,1.1C0,0.5,0.5,0,1.1,0h24.5c0.6,0,1.1,0.5,1.1,1.1 C26.8,1.8,26.2,2.3,25.6,2.3z"></path> </g> <g transform="translate(32.412 38.584)"> <path class="st8" d="M45.8,2.3H1.1C0.5,2.3,0,1.8,0,1.1C0,0.5,0.5,0,1.1,0c0,0,0,0,0,0h44.6c0.6,0,1.1,0.5,1.1,1.1 C46.9,1.8,46.4,2.3,45.8,2.3C45.8,2.3,45.8,2.3,45.8,2.3z"></path> </g> <g transform="translate(0 18.103)"> <path class="st8" d="M30.5,45.9H4.2C1.9,45.9,0,44,0,41.7V4.2C0,1.9,1.9,0,4.2,0h26.4c2.3,0,4.2,1.9,4.2,4.2v37.6 C34.7,44,32.8,45.9,30.5,45.9z M4.2,2.3c-1,0-1.9,0.8-1.9,1.9v37.6c0,1,0.8,1.9,1.9,1.9h26.4c1,0,1.9-0.8,1.9-1.9V4.2 c0-1-0.8-1.9-1.9-1.9L4.2,2.3z"></path> </g> <g transform="translate(77.038 25.505)"> <path class="st8" d="M18.5,38.5H4.2c-2.3,0-4.2-1.9-4.2-4.2V4.2C0,1.9,1.9,0,4.2,0h14.3c2.3,0,4.2,1.9,4.2,4.2v30.2 C22.7,36.6,20.8,38.5,18.5,38.5z M4.2,2.3c-1,0-1.9,0.8-1.9,1.9v30.2c0,1,0.8,1.9,1.9,1.9h14.3c1,0,1.9-0.8,1.9-1.9V4.2 c0-1-0.8-1.9-1.9-1.9H4.2z"></path> </g> <g transform="translate(87.219 58.467)"> <path class="st8" d="M1.1,2.3C0.5,2.3,0,1.8,0,1.1C0,0.5,0.5,0,1.1,0c0.6,0,1.1,0.5,1.1,1.1v0C2.3,1.8,1.8,2.3,1.1,2.3z"></path> </g> <g transform="translate(16.044 57.613)"> <circle class="st8" cx="1.3" cy="1.3" r="1.3"></circle> </g> <g transform="translate(84.869 29.741)"> <path class="st8" d="M5.6,2.3H1.1C0.5,2.3,0,1.8,0,1.1C0,0.5,0.5,0,1.1,0h4.4c0.6,0,1.1,0.5,1.1,1.1C6.7,1.8,6.2,2.3,5.6,2.3 C5.6,2.3,5.6,2.3,5.6,2.3z"></path> </g> <g transform="translate(77.248 55.327)"> <path class="st8" d="M21.1,2.3h-20C0.5,2.3,0,1.8,0,1.1C0,0.5,0.5,0,1.1,0h20c0.6,0,1.1,0.5,1.1,1.1C22.2,1.8,21.7,2.3,21.1,2.3 z"></path> </g> <g transform="translate(0.335 54.019)"> <path class="st8" d="M32.9,2.3H1.1C0.5,2.3,0,1.8,0,1.1C0,0.5,0.5,0,1.1,0c0,0,0,0,0,0h31.7C33.5,0,34,0.5,34,1.1 C34,1.8,33.5,2.3,32.9,2.3z"></path> </g> </g> <line class="st4" x1="1540.5" y1="697.5" x2="1563.6" y2="697.5"></line> <line class="st4" x1="1545.9" y1="708.2" x2="1556.9" y2="708.2"></line> <line class="st4" x1="1551.4" y1="717.2" x2="1551.4" y2="717.2"></line> <line class="st4" x1="1548.5" y1="712" x2="1549.5" y2="713.8"></line> <line class="st4" x1="1542.8" y1="701.8" x2="1544" y2="704.4"></line> <path class="st5" d="M1504.4,709.1h21.7c1.3,0,2.3,1,2.3,2.3v27.4l0,0H1502l0,0v-27.4C1502,710.1,1503.1,709.1,1504.4,709.1z"></path> </g> <path class="st8" d="M651.6,3269.7l-12.7,7.4l-0.5-14L651.6,3269.7z"></path> <path class="st8" d="M334.5,3254.9l-13.9,4.9l2.2-13.8L334.5,3254.9z"></path> <path class="st8" d="M963.5,3236.9l-11.7,8.9l-2.2-13.8L963.5,3236.9z"></path> <path class="st9" d="M297.6,3268.1c0,0,34.9,7,69.5,7.9"></path> <path class="st10" d="M926.9,3228.4c0,0,35.4-3.5,68.8-12.8"></path> <circle class="st11" cx="581" cy="3250" r="4"></circle> <circle class="st11" cx="920" cy="3258" r="4"></circle> </g> </svg> 