<?xml version="1.0" encoding="utf-8"?>
<!-- Generator: Adobe Illustrator 24.1.0, SVG Export Plug-In . SVG Version: 6.00 Build 0)  -->
<svg version="1.1" id="Layer_1" xmlns="http://www.w3.org/2000/svg" xmlns:xlink="http://www.w3.org/1999/xlink" x="0px" y="0px"
	 viewBox="0 0 179 179" style="enable-background:new 0 0 179 179;" xml:space="preserve">
<style type="text/css">
	.st0{display:none;fill:none;stroke:#0F1536;stroke-width:4;}
	.st1{fill:#FFFFFF;stroke:#0F1536;stroke-width:4;}
	.st2{fill:#0F1536;}
	.st3{fill:#00F0FF;}
	.st4{fill:none;stroke:#0F1536;stroke-width:1.25;stroke-miterlimit:10;}
</style>
<g transform="translate(92.376 -3113)">
	<path class="st0" d="M-292.3,3126.9c177.9,47.5,278.2,99.9,558.1,120.2c279.8,20.3,699.5-52.7,910.7-133.8"/>
	<g transform="translate(108 3134)">
		<circle class="st1" cx="-110.9" cy="68.5" r="87.5"/>
	</g>
</g>
<g id="Group_236" transform="translate(-1497.73 -686.596)">
	<g id="_11" transform="translate(1497.73 686.596)">
		<g id="Group_185" transform="translate(50.591 43.478)">
			<g id="Group_184">
				<circle id="Ellipse_158" class="st2" cx="42.3" cy="59" r="1.9"/>
			</g>
		</g>
		<g id="Group_187" transform="translate(32.331 51.004)">
			<g id="Group_186">
				<path id="Path_253" class="st2" d="M85.9,59.2H41.3c-0.7,0-1.2-0.5-1.2-1.2s0.5-1.2,1.2-1.2l0,0h44.6c0.7,0,1.2,0.6,1.2,1.2
					C87.1,58.6,86.6,59.2,85.9,59.2z"/>
			</g>
		</g>
		<g id="Group_189" transform="translate(16.125)">
			<g id="Group_188">
				<path id="Path_254" class="st2" d="M112.3,84.6c-0.7,0-1.2-0.5-1.2-1.2l0,0V62.2c0-1.7-1.4-3.1-3.1-3.1H45.6
					c-1.7,0-3.1,1.4-3.1,3.1V76c0,0.7-0.5,1.2-1.2,1.2s-1.2-0.5-1.2-1.2V62.2c0-3,2.5-5.5,5.5-5.5H108c3,0,5.5,2.5,5.5,5.5v21.1
					C113.5,84,113,84.6,112.3,84.6L112.3,84.6z"/>
			</g>
		</g>
		<g id="Group_191" transform="translate(42.594 51.22)">
			<g id="Group_190">
				<path id="Path_255" class="st2" d="M59.5,69.5H41.2c-0.6,0-1.1-0.5-1.1-1.1c0-0.1,0-0.1,0-0.2L42,57.6c0.1-0.5,0.6-0.9,1.1-0.9
					h14.4c0.5,0,1,0.4,1.1,0.9L60.5,68c0.2,0.6-0.2,1.2-0.8,1.4C59.7,69.5,59.6,69.5,59.5,69.5L59.5,69.5z M42.6,67.2h15.5L56.6,59
					H44.1L42.6,67.2z"/>
			</g>
		</g>
		<g id="Group_193" transform="translate(39.474 61.726)">
			<g id="Group_192">
				<path id="Path_256" class="st2" d="M65.7,59H41.2c-0.6,0-1.1-0.5-1.1-1.1s0.5-1.1,1.1-1.1h24.5c0.6,0,1.1,0.5,1.1,1.1
					C66.8,58.5,66.3,59,65.7,59z"/>
			</g>
		</g>
		<g id="Group_195" transform="translate(32.412 38.584)">
			<g id="Group_194">
				<path id="Path_257" class="st2" d="M85.8,59H41.2c-0.6,0-1.1-0.5-1.1-1.1s0.5-1.1,1.1-1.1l0,0h44.6c0.6,0,1.1,0.5,1.1,1.1
					C87,58.5,86.5,59,85.8,59L85.8,59z"/>
			</g>
		</g>
		<g id="Group_197" transform="translate(0 18.103)">
			<g id="Group_196">
				<path id="Path_258" class="st2" d="M70.6,102.6H44.2c-2.3,0-4.2-1.9-4.2-4.2V60.9c0-2.3,1.9-4.2,4.2-4.2h26.4
					c2.3,0,4.2,1.9,4.2,4.2v37.6C74.8,100.7,72.9,102.6,70.6,102.6z M44.2,59c-1,0-1.9,0.8-1.9,1.9v37.6c0,1,0.8,1.9,1.9,1.9h26.4
					c1,0,1.9-0.8,1.9-1.9V60.9c0-1-0.8-1.9-1.9-1.9H44.2z"/>
			</g>
		</g>
		<g id="Group_199" transform="translate(77.038 25.505)">
			<g id="Group_198">
				<path id="Path_259" class="st2" d="M58.6,95.2H44.2c-2.3,0-4.2-1.9-4.2-4.2V60.9c0-2.3,1.9-4.2,4.2-4.2h14.3
					c2.3,0,4.2,1.9,4.2,4.2v30.2C62.7,93.3,60.9,95.2,58.6,95.2z M44.2,59c-1,0-1.9,0.8-1.9,1.9v30.2c0,1,0.8,1.9,1.9,1.9h14.3
					c1,0,1.9-0.8,1.9-1.9V60.9c0-1-0.8-1.9-1.9-1.9H44.2z"/>
			</g>
		</g>
		<g id="Group_201" transform="translate(87.219 58.467)">
			<g id="Group_200">
				<path id="Path_260" class="st2" d="M41.2,59c-0.6,0-1.1-0.5-1.1-1.1s0.5-1.1,1.1-1.1s1.1,0.5,1.1,1.1l0,0
					C42.4,58.5,41.8,59,41.2,59z"/>
			</g>
		</g>
		<g id="Group_203" transform="translate(16.044 57.613)">
			<g id="Group_202">
				<circle id="Ellipse_159" class="st2" cx="41.4" cy="58" r="1.3"/>
			</g>
		</g>
		<g id="Group_205" transform="translate(84.869 29.741)">
			<g id="Group_204">
				<path id="Path_261" class="st2" d="M45.6,59h-4.4c-0.6,0-1.1-0.5-1.1-1.1s0.5-1.1,1.1-1.1h4.4c0.6,0,1.1,0.5,1.1,1.1
					C46.8,58.5,46.3,59,45.6,59L45.6,59z"/>
			</g>
		</g>
		<g id="Group_207" transform="translate(77.248 55.327)">
			<g id="Group_206">
				<path id="Path_262" class="st2" d="M61.2,59h-20c-0.6,0-1.1-0.5-1.1-1.1s0.5-1.1,1.1-1.1h20c0.6,0,1.1,0.5,1.1,1.1
					S61.8,59,61.2,59z"/>
			</g>
		</g>
		<g id="Group_209" transform="translate(0.335 54.019)">
			<g id="Group_208">
				<path id="Path_263" class="st2" d="M72.9,59H41.2c-0.6,0-1.1-0.5-1.1-1.1s0.5-1.1,1.1-1.1l0,0h31.7c0.6,0,1.1,0.5,1.1,1.1
					C74.1,58.5,73.6,59,72.9,59z"/>
			</g>
		</g>
	</g>
	<path id="Rectangle_143" class="st3" d="M1544.4,765.8h21.7c1.3,0,2.3,1,2.3,2.3v27.4l0,0h-26.3l0,0v-27.4
		C1542.1,766.8,1543.1,765.8,1544.4,765.8z"/>
	<g id="Group_248" transform="translate(602.438 65.635)">
		<path id="Path_370" class="st4" d="M978.3,692.4L978.3,692.4l2.4,4.1l0,0L978.3,692.4z"/>
		<g id="Group_247" transform="translate(938.19 635.683)">
			<path id="Path_372" class="st4" d="M45.5,56.7h-5.4l2.4,4.1h5.4L45.5,56.7z"/>
			<path id="Path_373" class="st4" d="M50.4,65.2H45l2.6,4.4l4.9-0.1l0.2-0.2L50.4,65.2z"/>
		</g>
		<path id="Path_374" class="st4" d="M980.7,696.5l2.5,4.3h10.5l2.5-4.3H980.7z"/>
		<path id="Path_375" class="st4" d="M999.7,688.1h-22.6c-0.4,0-0.8,0.5-0.7,0.9c0,0.1,0,0.2,0.1,0.2l1.8,3.2h20.3l1.8-3.1
			c0.2-0.4,0.1-0.9-0.3-1.1C999.9,688.2,999.8,688.1,999.7,688.1z"/>
		<path id="Path_376" class="st4" d="M987.8,708.9c0.3,0.3,0.8,0.3,1.2,0c0.1-0.1,0.1-0.1,0.1-0.2l1.9-3.3c0.1-0.1,0.1-0.2-0.1-0.2
			c0,0-0.4,0-0.5,0h-4.8L987.8,708.9z"/>
	</g>
</g>
</svg>
