<?xml version="1.0" encoding="UTF-8"?> <!-- Generator: Adobe Illustrator 24.1.0, SVG Export Plug-In . SVG Version: 6.00 Build 0) --> <svg xmlns="http://www.w3.org/2000/svg" xmlns:xlink="http://www.w3.org/1999/xlink" version="1.1" id="Layer_1" x="0px" y="0px" viewBox="0 0 246.4 249.8" style="enable-background:new 0 0 246.4 249.8;" xml:space="preserve"> <style type="text/css"> .st0{fill:#FFFFFF;stroke:#00F5BD;stroke-width:3;stroke-miterlimit:10;} .st1{fill:#0F1F40;} .st2{fill:none;stroke:#000000;stroke-width:3.1369;stroke-linecap:round;stroke-linejoin:round;stroke-miterlimit:10;} .st3{fill:none;stroke:#000000;stroke-width:3.1369;stroke-linecap:round;stroke-miterlimit:10;} .st4{fill:none;stroke:#000000;stroke-width:2.0912;stroke-linecap:round;stroke-linejoin:round;stroke-miterlimit:10;} .st5{stroke:#000000;stroke-width:0.6971;stroke-miterlimit:10;} .st6{fill:#00F5BD;} .st7{fill:#00F0FF;} .st8{fill:#00F0FF;stroke:#00F0FF;stroke-width:2;stroke-miterlimit:10;} .st9{fill:#0F1536;} .st10{fill:#0F1536;stroke:#FFFFFF;stroke-width:0.7647;} .st11{fill:none;stroke:#0F1F40;stroke-width:1.5362;stroke-linecap:round;stroke-linejoin:round;stroke-miterlimit:10;} .st12{fill:none;} .st13{fill:none;stroke:#0F1F40;stroke-width:1.9669;stroke-linecap:round;stroke-linejoin:round;stroke-miterlimit:10;} .st14{fill:none;stroke:#0F1F40;stroke-width:1.8435;stroke-linecap:round;stroke-linejoin:round;stroke-miterlimit:10;} .st15{fill:#0F1F40;stroke:#0F1F40;stroke-width:0.5691;stroke-miterlimit:10;} .st16{fill:none;stroke:#0F1F40;stroke-width:2.4442;stroke-linecap:round;stroke-linejoin:round;stroke-miterlimit:10;} .st17{fill:none;stroke:#0F1F40;stroke-width:2.4881;stroke-linecap:round;stroke-linejoin:round;stroke-miterlimit:10;} .st18{fill:none;stroke:#0F1F40;stroke-width:1.2495;stroke-linecap:round;stroke-linejoin:round;stroke-miterlimit:10;} .st19{fill:none;stroke:#5CE5C6;stroke-width:1.2495;stroke-miterlimit:10;} .st20{fill:#32E13C;} .st21{fill:#0AEEFD;} .st22{fill:#92D050;} .st23{fill:#0F1E40;stroke:#92D050;stroke-miterlimit:10;} .st24{fill:#0F1F40;stroke:#0F1E40;stroke-miterlimit:10;} .st25{fill:#0F1F40;stroke:#0F1E40;stroke-width:1.6173;stroke-miterlimit:10;} .st26{fill:#0F1E40;} .st27{fill:none;stroke:#0F1E40;stroke-width:1.8127;stroke-linecap:round;stroke-linejoin:round;stroke-miterlimit:10;} .st28{fill:none;stroke:#0F1E40;stroke-width:1.4619;stroke-linecap:round;stroke-linejoin:round;stroke-miterlimit:10;} .st29{fill:none;stroke:#0F1E40;stroke-width:1.0632;stroke-linecap:round;stroke-linejoin:round;stroke-miterlimit:10;} .st30{fill:none;stroke:#0F1E40;stroke-width:1.619;stroke-linecap:round;stroke-linejoin:round;stroke-miterlimit:10;} .st31{fill:none;stroke:#0F1E40;stroke-width:2;stroke-linecap:round;stroke-linejoin:round;stroke-miterlimit:10;} .st32{fill:#0F1F40;stroke:#0F1E40;stroke-width:0.75;stroke-miterlimit:10;} .st33{fill:#FFFFFF;stroke:#92D050;stroke-width:3;stroke-miterlimit:10;} .st34{fill:#FFFFFF;stroke:#92D050;stroke-width:1.25;stroke-miterlimit:10;} .st35{fill:none;stroke:#0F1F40;stroke-width:3;stroke-linecap:round;stroke-linejoin:round;stroke-miterlimit:10;} .st36{fill:none;stroke:#000000;stroke-width:2.5;stroke-linecap:round;stroke-linejoin:round;stroke-miterlimit:10;} .st37{fill:none;stroke:#000000;stroke-width:2.5;stroke-miterlimit:10;} .st38{fill:none;stroke:#00F0FF;stroke-width:2.7112;stroke-linecap:round;stroke-linejoin:round;stroke-miterlimit:10;} .st39{fill:none;stroke:#00F0FF;stroke-width:4;} .st40{fill:none;stroke:#00F0FF;stroke-width:4;stroke-linecap:round;stroke-linejoin:round;} .st41{fill:none;stroke:#0E0E0E;stroke-width:3;} .st42{fill:#0F1536;stroke:#0F1536;stroke-width:2.62;stroke-miterlimit:10;} .st43{fill:none;stroke:#0F1536;stroke-width:6;stroke-linecap:round;stroke-linejoin:round;} </style> <g> <g id="Ellipse_24_1_"> <circle class="st12" cx="123.2" cy="125.5" r="119.5"></circle> <circle class="st39" cx="123.2" cy="125.5" r="117.5"></circle> </g> <g id="Donation_1_" transform="translate(-8798.717 -3594.317)"> <path id="Path_64_1_" class="st7" d="M8902.6,3684.6c0,13.1,10.7,23.8,23.8,23.8c13.1,0,23.8-10.7,23.8-23.8 c0-13.1-10.7-23.8-23.8-23.8l0,0C8913.3,3660.9,8902.6,3671.5,8902.6,3684.6z M8945.9,3684.6c0,10.8-8.7,19.5-19.5,19.5 s-19.5-8.7-19.5-19.5c0-10.8,8.7-19.5,19.5-19.5c0,0,0,0,0,0C8937.2,3665.2,8945.9,3673.9,8945.9,3684.6z"></path> <path id="Path_65_1_" class="st7" d="M8886.9,3771c0.8,0.8,2.2,0.9,3.1,0l10.5-10.3c1.7-1.8,2.3-4.4,1.5-6.7l2.3-2.2 c1.2-1.2,2.8-1.8,4.5-1.8h28.8c5.1,0,10-2,13.6-5.5c0.2-0.1-1.1,1.4,19.6-23.4c3.1-3.7,2.6-9.1-1.1-12.2c-3.6-3-9-2.6-12.1,1 l-12.8,13.1c-1.6-2-4.1-3.2-6.7-3.2h-24.1c-3.4-1.4-7.1-2.2-10.8-2.2c-10.4,0-19.5,4.8-24.4,13.8c-2.1-0.4-4.3,0.3-5.8,1.8 l-10.3,10.3c-0.8,0.8-0.8,2.2,0,3.1L8886.9,3771z M8903,3721.9c3.3,0,6.5,0.7,9.5,2c0.3,0.1,0.6,0.2,0.9,0.2h24.6 c2.4,0,4.4,1.9,4.4,4.3c0,2.4-1.9,4.4-4.3,4.4c0,0-0.1,0-0.1,0h-17.7c-1.2,0-2.1,1-2.1,2.2c0,1.2,1,2.1,2.1,2.1h17.7 c4.8,0,8.7-3.9,8.7-8.6c0-0.4,0-0.8-0.1-1.1c12.4-12.7,14.1-14.5,14.2-14.6c1.5-1.8,4.3-2.1,6.1-0.6c1.8,1.5,2.1,4.3,0.6,6.1 c0,0,0,0-0.1,0.1l-19.4,23.2c-2.8,2.7-6.6,4.2-10.5,4.2h-28.8c-2.8,0-5.5,1.1-7.5,3l-1.8,1.8l-17-17 C8886.4,3726.1,8893.8,3721.9,8903,3721.9z M8875.9,3736.2c0.7-0.7,1.8-0.8,2.7-0.3c0.4,0.2-0.7-0.8,18.7,18.7 c0.8,0.8,0.8,2.2,0,3.1l-8.9,8.8l-21.3-21.4L8875.9,3736.2z"></path> <path id="Path_28_1_" class="st8" d="M8930.8,3686.1c-0.7-0.7-1.5-1.1-2.5-1.3c-0.5-0.1-1-0.2-1.5-0.3c-1.1-0.1-2.2-0.5-3.1-1.1 c-0.8-0.6-1.1-1.6-0.9-2.5c0.2-1.3,1-2.4,2.2-2.8c1.3-0.5,2.8-0.3,3.9,0.6c0.4,0.4,0.8,0.8,1.1,1.3c0.2,0.3,0.5,0.3,0.8,0.2 c0.3-0.2,0.3-0.5,0.2-0.8l0,0l0,0c-0.3-0.6-0.8-1.1-1.3-1.5c-0.8-0.7-1.7-1.1-2.8-1.1v-2.3c0-0.3-0.3-0.6-0.6-0.6 c-0.3,0-0.6,0.3-0.6,0.6l0,0v2.3c-0.4,0.1-0.8,0.2-1.1,0.3c-1.6,0.6-2.8,2-3,3.7c-0.3,1.4,0.3,2.7,1.3,3.6 c1.1,0.7,2.3,1.2,3.6,1.4c0.5,0.1,0.9,0.2,1.4,0.3c0.7,0.2,1.4,0.5,1.9,1c0.8,0.8,0.9,2,0.4,3c-0.5,1.1-1.6,1.9-2.8,2.1 c-2.4,0.6-4.8-0.7-5.5-3.1c-0.1-0.3-0.4-0.5-0.7-0.4c-0.3,0.1-0.5,0.4-0.4,0.7c0,0,0,0,0,0c0,0,0,0,0,0c0.6,2.2,2.5,3.7,4.8,3.9 v1.8c0,0.3,0.3,0.6,0.6,0.6c0.3,0,0.6-0.3,0.6-0.6l0,0v-1.8c0.3,0,0.5-0.1,0.8-0.1c1.6-0.3,2.9-1.3,3.6-2.8 C8932.1,3688.9,8931.9,3687.3,8930.8,3686.1z"></path> </g> </g> </svg> 