<?xml version="1.0" encoding="UTF-8"?> <!-- Generator: Adobe Illustrator 24.1.0, SVG Export Plug-In . SVG Version: 6.00 Build 0) --> <svg xmlns="http://www.w3.org/2000/svg" xmlns:xlink="http://www.w3.org/1999/xlink" version="1.1" id="Layer_1" x="0px" y="0px" viewBox="0 0 246.4 249.8" style="enable-background:new 0 0 246.4 249.8;" xml:space="preserve"> <style type="text/css"> .st0{fill:#FFFFFF;stroke:#00F5BD;stroke-width:3;stroke-miterlimit:10;} .st1{fill:#0F1F40;} .st2{fill:none;stroke:#000000;stroke-width:3.1369;stroke-linecap:round;stroke-linejoin:round;stroke-miterlimit:10;} .st3{fill:none;stroke:#000000;stroke-width:3.1369;stroke-linecap:round;stroke-miterlimit:10;} .st4{fill:none;stroke:#000000;stroke-width:2.0912;stroke-linecap:round;stroke-linejoin:round;stroke-miterlimit:10;} .st5{stroke:#000000;stroke-width:0.6971;stroke-miterlimit:10;} .st6{fill:#00F5BD;} .st7{fill:#00F0FF;} .st8{fill:#00F0FF;stroke:#00F0FF;stroke-width:2;stroke-miterlimit:10;} .st9{fill:#0F1536;} .st10{fill:#0F1536;stroke:#FFFFFF;stroke-width:0.7647;} .st11{fill:none;stroke:#0F1F40;stroke-width:1.5362;stroke-linecap:round;stroke-linejoin:round;stroke-miterlimit:10;} .st12{fill:none;} .st13{fill:none;stroke:#0F1F40;stroke-width:1.9669;stroke-linecap:round;stroke-linejoin:round;stroke-miterlimit:10;} .st14{fill:none;stroke:#0F1F40;stroke-width:1.8435;stroke-linecap:round;stroke-linejoin:round;stroke-miterlimit:10;} .st15{fill:#0F1F40;stroke:#0F1F40;stroke-width:0.5691;stroke-miterlimit:10;} .st16{fill:none;stroke:#0F1F40;stroke-width:2.4442;stroke-linecap:round;stroke-linejoin:round;stroke-miterlimit:10;} .st17{fill:none;stroke:#0F1F40;stroke-width:2.4881;stroke-linecap:round;stroke-linejoin:round;stroke-miterlimit:10;} .st18{fill:none;stroke:#0F1F40;stroke-width:1.2495;stroke-linecap:round;stroke-linejoin:round;stroke-miterlimit:10;} .st19{fill:none;stroke:#5CE5C6;stroke-width:1.2495;stroke-miterlimit:10;} .st20{fill:#32E13C;} .st21{fill:#0AEEFD;} .st22{fill:#92D050;} .st23{fill:#0F1E40;stroke:#92D050;stroke-miterlimit:10;} .st24{fill:#0F1F40;stroke:#0F1E40;stroke-miterlimit:10;} .st25{fill:#0F1F40;stroke:#0F1E40;stroke-width:1.6173;stroke-miterlimit:10;} .st26{fill:#0F1E40;} .st27{fill:none;stroke:#0F1E40;stroke-width:1.8127;stroke-linecap:round;stroke-linejoin:round;stroke-miterlimit:10;} .st28{fill:none;stroke:#0F1E40;stroke-width:1.4619;stroke-linecap:round;stroke-linejoin:round;stroke-miterlimit:10;} .st29{fill:none;stroke:#0F1E40;stroke-width:1.0632;stroke-linecap:round;stroke-linejoin:round;stroke-miterlimit:10;} .st30{fill:none;stroke:#0F1E40;stroke-width:1.619;stroke-linecap:round;stroke-linejoin:round;stroke-miterlimit:10;} .st31{fill:none;stroke:#0F1E40;stroke-width:2;stroke-linecap:round;stroke-linejoin:round;stroke-miterlimit:10;} .st32{fill:#0F1F40;stroke:#0F1E40;stroke-width:0.75;stroke-miterlimit:10;} .st33{fill:#FFFFFF;stroke:#92D050;stroke-width:3;stroke-miterlimit:10;} .st34{fill:#FFFFFF;stroke:#92D050;stroke-width:1.25;stroke-miterlimit:10;} .st35{fill:none;stroke:#0F1F40;stroke-width:3;stroke-linecap:round;stroke-linejoin:round;stroke-miterlimit:10;} .st36{fill:none;stroke:#000000;stroke-width:2.5;stroke-linecap:round;stroke-linejoin:round;stroke-miterlimit:10;} .st37{fill:none;stroke:#000000;stroke-width:2.5;stroke-miterlimit:10;} .st38{fill:none;stroke:#00F0FF;stroke-width:2.7112;stroke-linecap:round;stroke-linejoin:round;stroke-miterlimit:10;} .st39{fill:none;stroke:#00F0FF;stroke-width:4;} .st40{fill:none;stroke:#00F0FF;stroke-width:4;stroke-linecap:round;stroke-linejoin:round;} .st41{fill:none;stroke:#0E0E0E;stroke-width:3;} .st42{fill:#0F1536;stroke:#0F1536;stroke-width:2.62;stroke-miterlimit:10;} .st43{fill:none;stroke:#0F1536;stroke-width:6;stroke-linecap:round;stroke-linejoin:round;} .st44{fill:none;stroke:#00F5BD;stroke-width:4;} </style> <g> <g id="Ellipse_23"> <circle class="st12" cx="123.2" cy="124.9" r="119.5"></circle> <circle class="st44" cx="123.2" cy="124.9" r="117.5"></circle> </g> <path class="st6" d="M182.5,101.4C182.5,101.4,182.5,101.4,182.5,101.4c-20.5,0-31.9,5.3-32.4,5.5c-0.7,0.3-1.2,0.9-1.4,1.6 c-0.2,0.6-0.1,1.3,0.2,1.9c-4-1.5-9.5-3.7-15-6.1c-9.4-4.2-15.5-2.9-22.2,2.4H90.7c0.1-0.8,0.2-1.6,0.3-2.4 c0.1-0.8-0.2-1.6-0.8-2.1c-4.5-4.2-22.4-5.6-27.8-5.9c-1.4-0.1-2.7,1-2.8,2.4c0,0.1,0,0.1,0,0.2v47.1c0,1.4,1.2,2.6,2.6,2.6h15.7 c1.1,0,2.1-0.7,2.5-1.8c0.1-0.2,0.3-0.8,0.6-1.9c0.6,0.6,1.2,1.3,1.9,2c2.3,2.4,4.7,5,6.4,6.3c9.7,8.2,21.4,17,23.8,18.5 c1.9,1.3,6.1,3,9.3,3c2.1,0.1,4.2-0.5,5.9-1.7c1.9,0.7,4,0.7,5.9-0.1c2.4-0.9,4.3-2.7,5.4-5c2.2,0.4,4.5,0.1,6.6-0.9 c2-0.9,3.5-2.6,4.4-4.6c2.2,0.1,4.4-0.7,6-2.1c2.4-2,3.4-5,2.8-7.9l4.1-2.8c0.3,0.9,0.5,1.7,0.7,2.4c0.3,1.1,1.3,1.9,2.5,1.9h15.7 c1.4,0,2.6-1.2,2.6-2.6V104C185.2,102.5,184,101.4,182.5,101.4z M76,143.2H64.9v-41.6c8.4,0.7,17.5,2.1,20.8,3.7 C84.2,116.7,78,137.1,76,143.2z M153.2,156.1c-1,0.9-2.4,1.1-3.1,0.7c-2-1.6-10.2-10-15.3-15.4c-1-1-2.6-1.1-3.7-0.1 c-1,1-1.1,2.6-0.1,3.7c0,0,0,0,0,0c1.2,1.3,11,11.4,14.9,15c-0.3,1.1-1.4,1.8-1.9,2.1c-1.7,0.8-3.4,0.7-4.1,0.1c0,0,0,0-0.1,0 c0,0,0-0.1-0.1-0.1v0c-3.1-2.5-11-10.9-12.8-12.8c-1-1.1-2.6-1.2-3.7-0.2c-1.1,1-1.2,2.6-0.2,3.7c0,0,0,0,0.1,0.1 c0.1,0.1,7.7,8.4,12.1,12.2c-0.5,1.3-1.5,2.3-2.8,2.8c-1,0.5-2.2,0.3-3-0.5c0,0,0,0,0,0c0,0,0,0,0,0l0,0 c-3.7-3.1-11.4-11.3-12.9-12.9c-1-1.1-2.6-1.2-3.7-0.2c-1.1,1-1.2,2.6-0.2,3.7c0,0,0,0,0.1,0.1c1.8,1.9,7,7.5,11,11.2 c-0.3,0-0.7,0.1-1.2,0.1c-2.3-0.2-4.5-1-6.4-2.2c-1.8-1.2-13.3-9.8-23.3-18.1c-1.4-1.2-3.8-3.7-5.9-5.9c-1.6-1.6-3-3.1-4-4 c2.2-7.2,5.3-18.3,7.1-27.3h16c-3.6,3.6-8.4,10.8-7.1,16.1c0.5,2.3,2.3,4.1,4.5,4.7c5.9,2,11.3,0.1,15.4-5.3 c1.4-0.2,2.7-0.6,3.9-1.2c0.5-0.2,1.1-0.5,1.8-0.8c3,2.8,7,6.1,11.3,9.5c7.7,6.2,16.4,13.3,18.4,17.3 C154.8,153.5,154.4,155.2,153.2,156.1z M157.2,147.4c-3.6-4.8-11-10.8-18.2-16.6c-4.7-3.8-9.2-7.5-12.1-10.3 c-0.7-0.7-1.8-1-2.7-0.6c-1.8,0.6-2.9,1.1-3.7,1.5c-1.1,0.6-2.3,0.9-3.5,1c-0.8,0.1-1.5,0.5-1.9,1.1c-3.7,5.5-7.5,5.1-10.1,4.2 c-0.8-0.3-1-0.6-1-1c-0.5-2.3,2.2-7.6,5.8-11.2c8.5-8.5,12.9-10.6,22.1-6.5c8.8,3.9,17.5,7.1,20.3,8.1c3.1,7.5,7.2,19.1,9.9,27.1 L157.2,147.4z M168.8,148.4c-2.5-8.1-9.8-29.1-13.9-37.8c8.1-2.6,16.5-3.9,25-4l0,41.8H168.8z"></path> </g> </svg> 