<?xml version="1.0" encoding="UTF-8"?> <!-- Generator: Adobe Illustrator 24.1.0, SVG Export Plug-In . SVG Version: 6.00 Build 0) --> <svg xmlns="http://www.w3.org/2000/svg" xmlns:xlink="http://www.w3.org/1999/xlink" version="1.1" id="Layer_1" x="0px" y="0px" viewBox="0 0 246.4 249.8" style="enable-background:new 0 0 246.4 249.8;" xml:space="preserve"> <style type="text/css"> .st0{fill:#FFFFFF;stroke:#00F5BD;stroke-width:3;stroke-miterlimit:10;} .st1{fill:#0F1F40;} .st2{fill:none;stroke:#000000;stroke-width:3.1369;stroke-linecap:round;stroke-linejoin:round;stroke-miterlimit:10;} .st3{fill:none;stroke:#000000;stroke-width:3.1369;stroke-linecap:round;stroke-miterlimit:10;} .st4{fill:none;stroke:#000000;stroke-width:2.0912;stroke-linecap:round;stroke-linejoin:round;stroke-miterlimit:10;} .st5{stroke:#000000;stroke-width:0.6971;stroke-miterlimit:10;} .st6{fill:#00F5BD;} .st7{fill:#00F0FF;} .st8{fill:#00F0FF;stroke:#00F0FF;stroke-width:2;stroke-miterlimit:10;} .st9{fill:#0F1536;} .st10{fill:#0F1536;stroke:#FFFFFF;stroke-width:0.7647;} .st11{fill:none;stroke:#0F1F40;stroke-width:1.5362;stroke-linecap:round;stroke-linejoin:round;stroke-miterlimit:10;} .st12{fill:none;} .st13{fill:none;stroke:#0F1F40;stroke-width:1.9669;stroke-linecap:round;stroke-linejoin:round;stroke-miterlimit:10;} .st14{fill:none;stroke:#0F1F40;stroke-width:1.8435;stroke-linecap:round;stroke-linejoin:round;stroke-miterlimit:10;} .st15{fill:#0F1F40;stroke:#0F1F40;stroke-width:0.5691;stroke-miterlimit:10;} .st16{fill:none;stroke:#0F1F40;stroke-width:2.4442;stroke-linecap:round;stroke-linejoin:round;stroke-miterlimit:10;} .st17{fill:none;stroke:#0F1F40;stroke-width:2.4881;stroke-linecap:round;stroke-linejoin:round;stroke-miterlimit:10;} .st18{fill:none;stroke:#0F1F40;stroke-width:1.2495;stroke-linecap:round;stroke-linejoin:round;stroke-miterlimit:10;} .st19{fill:none;stroke:#5CE5C6;stroke-width:1.2495;stroke-miterlimit:10;} .st20{fill:#32E13C;} .st21{fill:#0AEEFD;} .st22{fill:#92D050;} .st23{fill:#0F1E40;stroke:#92D050;stroke-miterlimit:10;} .st24{fill:#0F1F40;stroke:#0F1E40;stroke-miterlimit:10;} .st25{fill:#0F1F40;stroke:#0F1E40;stroke-width:1.6173;stroke-miterlimit:10;} .st26{fill:#0F1E40;} .st27{fill:none;stroke:#0F1E40;stroke-width:1.8127;stroke-linecap:round;stroke-linejoin:round;stroke-miterlimit:10;} .st28{fill:none;stroke:#0F1E40;stroke-width:1.4619;stroke-linecap:round;stroke-linejoin:round;stroke-miterlimit:10;} .st29{fill:none;stroke:#0F1E40;stroke-width:1.0632;stroke-linecap:round;stroke-linejoin:round;stroke-miterlimit:10;} .st30{fill:none;stroke:#0F1E40;stroke-width:1.619;stroke-linecap:round;stroke-linejoin:round;stroke-miterlimit:10;} .st31{fill:none;stroke:#0F1E40;stroke-width:2;stroke-linecap:round;stroke-linejoin:round;stroke-miterlimit:10;} .st32{fill:#0F1F40;stroke:#0F1E40;stroke-width:0.75;stroke-miterlimit:10;} .st33{fill:#FFFFFF;stroke:#92D050;stroke-width:3;stroke-miterlimit:10;} .st34{fill:#FFFFFF;stroke:#92D050;stroke-width:1.25;stroke-miterlimit:10;} .st35{fill:none;stroke:#0F1F40;stroke-width:3;stroke-linecap:round;stroke-linejoin:round;stroke-miterlimit:10;} .st36{fill:none;stroke:#000000;stroke-width:2.5;stroke-linecap:round;stroke-linejoin:round;stroke-miterlimit:10;} .st37{fill:none;stroke:#000000;stroke-width:2.5;stroke-miterlimit:10;} .st38{fill:none;stroke:#00F0FF;stroke-width:2.7112;stroke-linecap:round;stroke-linejoin:round;stroke-miterlimit:10;} .st39{fill:none;stroke:#00F0FF;stroke-width:4;} .st40{fill:none;stroke:#00F0FF;stroke-width:4;stroke-linecap:round;stroke-linejoin:round;} .st41{fill:none;stroke:#0E0E0E;stroke-width:3;} .st42{fill:#0F1536;stroke:#0F1536;stroke-width:2.62;stroke-miterlimit:10;} .st43{fill:none;stroke:#0F1536;stroke-width:6;stroke-linecap:round;stroke-linejoin:round;} .st44{fill:none;stroke:#32E13C;stroke-width:4;} </style> <g> <g id="Ellipse_21"> <circle class="st12" cx="123.2" cy="124.9" r="119.5"></circle> <circle class="st44" cx="123.2" cy="124.9" r="117.5"></circle> </g> <g> <path class="st20" d="M153.7,122.6h6.9l9.8,14.8h-34.2l-9.8-14.8h8.3H153.7z M134.7,118.4c-2.4,0-49.2,0-51.5,0 c-0.7,0-1.4,0.4-1.8,0.9l-12.7,19c-0.4,0.6-0.5,1.5-0.1,2.2c0.4,0.7,1.1,1.1,1.9,1.1h10.6v30.8c0,1.2,0.9,2.1,2.1,2.1h78.5 c1.2,0,2.1-0.9,2.1-2.1v-30.8h10.6c0.8,0,1.5-0.4,1.9-1.1c0.4-0.7,0.3-1.5-0.1-2.2l-12.7-19c-0.4-0.6-1.1-0.9-1.8-0.9h-8H134.7z M85.3,141.6h24.5c0.7,0,1.4-0.4,1.8-0.9l8.8-13.2v42.8h-35V141.6z M133.4,140.6c0.4,0.6,1.1,0.9,1.8,0.9h24.5v28.7h-35v-42.8 L133.4,140.6z M84.4,122.6h34.2l-9.8,14.8H74.5L84.4,122.6z"></path> <path class="st20" d="M109.8,71.7c-1.7-2.5-4.7-5.3-9.5-5.3c-6.8,0-11.6,5.5-11.6,12c0,7.3,5.9,12.1,14.8,19.3 c1.6,1.3,3.2,2.6,4.9,4c0.4,0.3,0.9,0.5,1.4,0.5s1-0.2,1.4-0.5c1.7-1.4,3.3-2.7,4.9-4c8.9-7.3,14.8-12,14.8-19.3 c0-6.6-4.8-12-11.6-12C114.5,66.5,111.5,69.2,109.8,71.7z M126.7,78.5c0,5.3-5.3,9.6-13.3,16.1c-1.2,0.9-2.4,1.9-3.6,2.9 c-1.2-1-2.4-2-3.6-2.9c-8-6.5-13.3-10.8-13.3-16.1c0-4.4,3.2-7.8,7.4-7.8c5.5,0,7.4,6.1,7.5,6.4c0.3,0.9,1.1,1.5,2,1.5 c0.9,0,1.8-0.6,2-1.5c0-0.1,1.9-6.4,7.5-6.4C123.5,70.7,126.7,74,126.7,78.5L126.7,78.5z"></path> <path class="st20" d="M147.8,108.7c0.5,0,1-0.2,1.4-0.5c1.1-1,2.2-1.9,3.3-2.8c5.9-5,10.1-8.6,10.1-14c0-5.1-3.7-9-8.4-9 c-3,0-5,1.5-6.3,3.2c-1.3-1.6-3.3-3.2-6.3-3.2c-4.7,0-8.4,4-8.4,9c0,5.4,4.2,9,10.1,14c1,0.9,2.1,1.8,3.3,2.8 C146.8,108.5,147.3,108.7,147.8,108.7z M137.3,91.3c0-2.3,1.5-4.8,4.2-4.8c3.1,0,4.2,3.8,4.3,4c0.3,0.9,1.1,1.5,2,1.5 c1,0,1.8-0.6,2-1.5c0-0.2,1.2-4,4.3-4c2.7,0,4.2,2.5,4.2,4.8c0,3.4-3.2,6.2-8.6,10.8c-0.6,0.5-1.3,1.1-1.9,1.6 c-0.7-0.6-1.3-1.1-1.9-1.6C140.5,97.5,137.3,94.8,137.3,91.3L137.3,91.3z"></path> </g> </g> </svg> 