<?xml version="1.0" encoding="UTF-8"?> <!-- Generator: Adobe Illustrator 24.1.0, SVG Export Plug-In . SVG Version: 6.00 Build 0) --> <svg xmlns="http://www.w3.org/2000/svg" xmlns:xlink="http://www.w3.org/1999/xlink" version="1.1" id="Layer_1" x="0px" y="0px" viewBox="0 0 74.6 62.7" style="enable-background:new 0 0 74.6 62.7;" xml:space="preserve"> <style type="text/css"> .st0{fill:#00F0FF;} .st1{fill:#0F1536;} </style> <g id="Group_249" transform="translate(-8 2.995)"> <circle id="Ellipse_170" class="st0" cx="63" cy="10.6" r="12.6"></circle> <path id="Path_377" class="st1" d="M64.2,33.3V16.2c3.3-0.5,5.6-3.6,5.2-6.9s-3.6-5.6-6.9-5.2c-3,0.4-5.2,3-5.2,6H15.4v34.9h26.2 c0.5,7.7,7.1,13.5,14.8,13c7.7-0.5,13.5-7.1,13-14.8C69.1,39.4,67.2,35.8,64.2,33.3z M62.9,5.9c2.4-0.2,4.5,1.5,4.7,3.9 s-1.5,4.5-3.9,4.7c-2.4,0.2-4.5-1.5-4.7-3.9c0-0.3,0-0.5,0-0.8C59.2,7.7,60.8,6.1,62.9,5.9L62.9,5.9z M17.1,12h40.3 c0.2,0.7,0.5,1.3,1,1.9l-5.3,5.3c-0.7-0.3-1.5-0.3-2.2,0l-1.8-1.8c0.2-0.5,0.3-1.1,0.2-1.6c-0.3-1.4-1.6-2.4-3-2.1 c-1.2,0.2-2.1,1.3-2.1,2.6c0,0.4,0.1,0.8,0.3,1.1L40,21.8c-0.5-0.2-1.1-0.3-1.6-0.2c-1.4,0.3-2.4,1.6-2.1,3c0.3,1.4,1.6,2.4,3,2.1 c1.1-0.2,1.9-1,2.1-2.1c0.1-0.5,0-1.1-0.2-1.6l4.4-4.4c0.7,0.3,1.5,0.3,2.2,0l1.8,1.8c-0.2,0.5-0.3,1.1-0.2,1.6 c0.3,1.4,1.6,2.4,3,2.1c1.2-0.2,2.1-1.3,2.1-2.6c0-0.4-0.1-0.8-0.3-1.1l5.3-5.3c0.8,0.6,1.8,1,2.8,1.2v15.9 C56.7,28.8,49.4,30,45,35v-3.4c0-0.2-0.2-0.4-0.4-0.4h-4.3c-0.2,0-0.4,0.2-0.4,0.4v9.6c0,0.2,0.2,0.5,0.5,0.5l0,0h1.5 c-0.1,0.6-0.2,1.2-0.2,1.7H17.1V12z M51.8,20.7c0.5-0.1,0.9,0.2,1,0.7s-0.2,0.9-0.7,1c-0.5,0.1-0.9-0.2-1-0.7c0-0.1,0-0.2,0-0.3 C51.2,21,51.5,20.8,51.8,20.7z M45.9,16.5c-0.1-0.5,0.2-0.9,0.7-1c0.5-0.1,0.9,0.2,1,0.7c0.1,0.5-0.2,0.9-0.7,1c-0.1,0-0.2,0-0.3,0 C46.2,17.1,46,16.8,45.9,16.5z M39.8,24c0.1,0.5-0.2,0.9-0.7,1c-0.5,0.1-0.9-0.2-1-0.7s0.2-0.9,0.7-1c0.1,0,0.2,0,0.3,0 C39.4,23.4,39.7,23.6,39.8,24z M55.9,51.2c-3.8,0.3-7.2-2.7-7.4-6.5c-0.3-3.8,2.7-7.2,6.5-7.4c3.8-0.3,7.2,2.7,7.4,6.5 c0,0.3,0,0.6,0,0.9C62.2,48.1,59.4,50.9,55.9,51.2z M43.3,37.5c-0.4,0.8-0.8,1.6-1,2.4h-0.3c-0.2,0-0.4-0.2-0.4-0.4l0,0v-6.2 c0-0.2,0.2-0.4,0.4-0.4h0.9c0.2,0,0.4,0.2,0.4,0.4L43.3,37.5z M54.6,32v3.5c-4.8,0.5-8.3,4.7-7.8,9.5c0.1,0.9,0.3,1.9,0.7,2.7 l-3,1.7c-3-6-0.5-13.3,5.6-16.3C51.5,32.6,53,32.2,54.6,32L54.6,32z M55.5,56.4c-4,0-7.8-2-10.1-5.4l3-1.8c2.8,3.9,8.2,4.8,12.1,2 c0.8-0.6,1.5-1.2,2-2l3,1.8C63.3,54.4,59.5,56.4,55.5,56.4z M66.4,49.5l-3-1.7c2-4.4,0-9.5-4.3-11.5c-0.9-0.4-1.8-0.6-2.7-0.7V32 c6.7,0.5,11.8,6.3,11.3,13C67.5,46.6,67.1,48.1,66.4,49.5L66.4,49.5z"></path> <path id="Path_378" class="st1" d="M55.5,39c-2.9,0-5.2,2.3-5.2,5.2c0,2.9,2.3,5.2,5.2,5.2c2.9,0,5.2-2.3,5.2-5.2 C60.7,41.3,58.4,39,55.5,39z M55.5,47.7c-1.9,0-3.5-1.6-3.5-3.5s1.6-3.5,3.5-3.5s3.5,1.6,3.5,3.5l0,0 C58.9,46.1,57.4,47.7,55.5,47.7z"></path> <circle id="Ellipse_167" class="st1" cx="19.5" cy="18.1" r="0.8"></circle> <circle id="Ellipse_172" class="st1" cx="19.5" cy="14.6" r="0.8"></circle> <circle id="Ellipse_168" class="st1" cx="19.5" cy="21.5" r="0.8"></circle> <circle id="Ellipse_171" class="st1" cx="19.5" cy="25" r="0.8"></circle> <path id="Path_379" class="st1" d="M23.2,13.7h10.5c0.5,0,0.9,0.4,0.9,0.9l0,0l0,0c0,0.5-0.4,0.9-0.9,0.9l0,0H23.2 c-0.5,0-0.9-0.4-0.9-0.9l0,0l0,0C22.4,14.1,22.7,13.7,23.2,13.7L23.2,13.7z"></path> <path id="Path_380" class="st1" d="M23.2,17.2h10.5c0.5,0,0.9,0.4,0.9,0.9l0,0c0,0.5-0.4,0.9-0.9,0.9H23.2c-0.5,0-0.9-0.4-0.9-0.9 l0,0C22.4,17.6,22.7,17.2,23.2,17.2z"></path> <path id="Path_381" class="st1" d="M23.2,20.7h10.5c0.5,0,0.9,0.4,0.9,0.9l0,0c0,0.5-0.4,0.9-0.9,0.9H23.2c-0.5,0-0.9-0.4-0.9-0.9 l0,0C22.4,21.1,22.7,20.7,23.2,20.7z"></path> <path id="Path_382" class="st1" d="M23.2,24.2h10.5c0.5,0,0.9,0.4,0.9,0.9l0,0c0,0.5-0.4,0.9-0.9,0.9H23.2c-0.5,0-0.9-0.4-0.9-0.9 l0,0C22.4,24.5,22.7,24.2,23.2,24.2z"></path> <path id="Path_383" class="st1" d="M19.2,41.6h4.6c0.2,0,0.3-0.1,0.3-0.3v-8.1c0-0.2-0.1-0.3-0.3-0.3h-4.6c-0.2,0-0.3,0.1-0.3,0.3 v8.1C18.9,41.4,19,41.6,19.2,41.6C19.2,41.6,19.2,41.6,19.2,41.6z M20.9,34.6H22c0.2,0,0.3,0.1,0.3,0.3v4.6c0,0.2-0.1,0.3-0.3,0.3 h-1.1c-0.2,0-0.3-0.1-0.3-0.3v-4.6C20.6,34.8,20.8,34.6,20.9,34.6C20.9,34.6,20.9,34.6,20.9,34.6L20.9,34.6z"></path> <path id="Path_384" class="st1" d="M26.2,41.6h4.4c0.2,0,0.4-0.2,0.4-0.4V35c0-0.2-0.2-0.4-0.4-0.4h-4.4c-0.2,0-0.4,0.2-0.4,0.4 v6.2C25.8,41.4,26,41.6,26.2,41.6z M28,36.4h1c0.2,0,0.4,0.2,0.4,0.4v2.7c0,0.2-0.2,0.4-0.4,0.4h-1c-0.2,0-0.4-0.2-0.4-0.4v-2.7 C27.6,36.5,27.8,36.4,28,36.4L28,36.4z"></path> <path id="Path_385" class="st1" d="M33.1,41.6h4.6c0.2,0,0.3-0.1,0.3-0.3V27.9c0-0.2-0.1-0.3-0.3-0.3h-4.6c-0.2,0-0.3,0.1-0.3,0.3 v13.4C32.8,41.5,32.9,41.6,33.1,41.6z M34.8,29.4H36c0.2,0,0.3,0.1,0.3,0.3v9.9c0,0.2-0.1,0.3-0.3,0.3h-1.2c-0.2,0-0.3-0.1-0.3-0.3 v-9.9C34.6,29.5,34.7,29.4,34.8,29.4L34.8,29.4z"></path> </g> </svg> 