<?xml version="1.0" encoding="UTF-8"?> <!-- Generator: Adobe Illustrator 24.1.0, SVG Export Plug-In . SVG Version: 6.00 Build 0) --> <svg xmlns="http://www.w3.org/2000/svg" xmlns:xlink="http://www.w3.org/1999/xlink" version="1.1" id="Layer_1" x="0px" y="0px" viewBox="0 0 270.7 271.4" style="enable-background:new 0 0 270.7 271.4;" xml:space="preserve"> <style type="text/css"> .st0{fill:none;} .st1{fill:none;stroke:#00F0FF;stroke-width:4;} .st2{fill:#0F1F40;} .st3{fill:none;stroke:#00F0FF;stroke-width:4.585;stroke-linecap:round;stroke-linejoin:round;} </style> <g> <g id="Ellipse_84"> <circle class="st0" cx="135.4" cy="135.7" r="132.5"></circle> <circle class="st1" cx="135.4" cy="135.7" r="130.5"></circle> </g> <g id="Group_254" transform="translate(989.353 -1205.881)"> <g id="Group_250" transform="translate(-964.236 1205.881)"> <path id="Path_386" class="st2" d="M124.6,117.2c-1.2,0-2.1-0.9-2.1-2.1v-8.6c0-1.3-1.1-2.4-2.4-2.4h-19.3 c-1.3,0-2.4,1.1-2.4,2.4v8.1c0,1.2-1,2.1-2.1,2.1c-1.2,0-2.1-1-2.1-2.1v-8.1c0-3.7,3-6.7,6.7-6.7H120c3.7,0,6.7,3,6.7,6.7v8.6 C126.7,116.3,125.7,117.2,124.6,117.2z"></path> </g> <g id="Group_251" transform="translate(-955.805 1237.797)"> <path id="Path_387" class="st2" d="M102,124.6c-4.1,0-7.4-3.3-7.4-7.4V109c0-4.1,3.3-7.4,7.4-7.4c4.1,0,7.4,3.3,7.4,7.4v8.2 C109.4,121.3,106.1,124.6,102,124.6z M102,105.5c-2,0-3.5,1.6-3.5,3.5v8.2c0,2,1.6,3.5,3.5,3.5c2,0,3.5-1.6,3.5-3.5V109 C105.5,107.1,103.9,105.5,102,105.5z"></path> </g> <line id="Line_101" class="st3" x1="-853.8" y1="1347.8" x2="-853.8" y2="1354.5"></line> <g id="Group_252" transform="translate(-989.353 1219.586)"> <path id="Path_388" class="st2" d="M167.8,159.4h-64.6c-5.8,0-10.5-4.7-10.5-10.5v-37.9c0-5.8,4.7-10.5,10.5-10.5h64.6 c5.8,0,10.5,4.7,10.5,10.5V149C178.3,154.7,173.6,159.4,167.8,159.4z M103.2,104.8c-3.4,0-6.2,2.8-6.2,6.2V149 c0,3.4,2.8,6.2,6.2,6.2h64.6c3.4,0,6.2-2.8,6.2-6.2v-37.9c0-3.4-2.8-6.2-6.2-6.2L103.2,104.8z"></path> </g> <g id="Group_253" transform="translate(-989.353 1229.89)"> <path id="Path_389" class="st2" d="M135.2,123.5c-0.8,0-1.7,0-2.5-0.1c-23.4-1.2-38.8-18-39.4-18.7c-0.8-0.9-0.7-2.2,0.2-3 c0,0,0,0,0,0c0.9-0.8,2.2-0.7,3,0.2c0,0,0,0,0,0c0.1,0.2,14.9,16.3,36.5,17.3c14.2,0.7,28.3-5.2,41.8-17.5c0.9-0.8,2.2-0.7,3,0.1 c0,0,0,0,0,0c0.8,0.9,0.7,2.2-0.1,3c0,0,0,0,0,0C164,117.2,149.8,123.5,135.2,123.5z"></path> </g> </g> </g> </svg> 