<?xml version="1.0" encoding="UTF-8"?> <!-- Generator: Adobe Illustrator 24.1.0, SVG Export Plug-In . SVG Version: 6.00 Build 0) --> <svg xmlns="http://www.w3.org/2000/svg" xmlns:xlink="http://www.w3.org/1999/xlink" version="1.1" id="Layer_1" x="0px" y="0px" viewBox="0 0 270.7 271.4" style="enable-background:new 0 0 270.7 271.4;" xml:space="preserve"> <style type="text/css"> .st0{fill:#FFFFFF;stroke:#00F5BD;stroke-width:3;stroke-miterlimit:10;} .st1{fill:#0F1F40;} .st2{fill:none;stroke:#000000;stroke-width:3.1369;stroke-linecap:round;stroke-linejoin:round;stroke-miterlimit:10;} .st3{fill:none;stroke:#000000;stroke-width:3.1369;stroke-linecap:round;stroke-miterlimit:10;} .st4{fill:none;stroke:#000000;stroke-width:2.0912;stroke-linecap:round;stroke-linejoin:round;stroke-miterlimit:10;} .st5{stroke:#000000;stroke-width:0.6971;stroke-miterlimit:10;} .st6{fill:#00F5BD;} .st7{fill:#00F0FF;} .st8{fill:#00F0FF;stroke:#00F0FF;stroke-width:2;stroke-miterlimit:10;} .st9{fill:#0F1536;} .st10{fill:#0F1536;stroke:#FFFFFF;stroke-width:0.7647;} .st11{fill:none;stroke:#0F1F40;stroke-width:1.5362;stroke-linecap:round;stroke-linejoin:round;stroke-miterlimit:10;} .st12{fill:none;} .st13{fill:none;stroke:#0F1F40;stroke-width:1.9669;stroke-linecap:round;stroke-linejoin:round;stroke-miterlimit:10;} .st14{fill:none;stroke:#0F1F40;stroke-width:1.8435;stroke-linecap:round;stroke-linejoin:round;stroke-miterlimit:10;} .st15{fill:#0F1F40;stroke:#0F1F40;stroke-width:0.5691;stroke-miterlimit:10;} .st16{fill:none;stroke:#0F1F40;stroke-width:2.4442;stroke-linecap:round;stroke-linejoin:round;stroke-miterlimit:10;} .st17{fill:none;stroke:#0F1F40;stroke-width:2.4881;stroke-linecap:round;stroke-linejoin:round;stroke-miterlimit:10;} .st18{fill:none;stroke:#0F1F40;stroke-width:1.2495;stroke-linecap:round;stroke-linejoin:round;stroke-miterlimit:10;} .st19{fill:none;stroke:#5CE5C6;stroke-width:1.2495;stroke-miterlimit:10;} .st20{fill:#32E13C;} .st21{fill:#0AEEFD;} .st22{fill:#92D050;} .st23{fill:#0F1E40;stroke:#92D050;stroke-miterlimit:10;} .st24{fill:#0F1F40;stroke:#0F1E40;stroke-miterlimit:10;} .st25{fill:#0F1F40;stroke:#0F1E40;stroke-width:1.6173;stroke-miterlimit:10;} .st26{fill:#0F1E40;} .st27{fill:none;stroke:#0F1E40;stroke-width:1.8127;stroke-linecap:round;stroke-linejoin:round;stroke-miterlimit:10;} .st28{fill:none;stroke:#0F1E40;stroke-width:1.4619;stroke-linecap:round;stroke-linejoin:round;stroke-miterlimit:10;} .st29{fill:none;stroke:#0F1E40;stroke-width:1.0632;stroke-linecap:round;stroke-linejoin:round;stroke-miterlimit:10;} .st30{fill:none;stroke:#0F1E40;stroke-width:1.619;stroke-linecap:round;stroke-linejoin:round;stroke-miterlimit:10;} .st31{fill:none;stroke:#0F1E40;stroke-width:2;stroke-linecap:round;stroke-linejoin:round;stroke-miterlimit:10;} .st32{fill:#0F1F40;stroke:#0F1E40;stroke-width:0.75;stroke-miterlimit:10;} .st33{fill:#FFFFFF;stroke:#92D050;stroke-width:3;stroke-miterlimit:10;} .st34{fill:#FFFFFF;stroke:#92D050;stroke-width:1.25;stroke-miterlimit:10;} .st35{fill:none;stroke:#0F1F40;stroke-width:3;stroke-linecap:round;stroke-linejoin:round;stroke-miterlimit:10;} .st36{fill:none;stroke:#000000;stroke-width:2.5;stroke-linecap:round;stroke-linejoin:round;stroke-miterlimit:10;} .st37{fill:none;stroke:#000000;stroke-width:2.5;stroke-miterlimit:10;} .st38{fill:none;stroke:#00F0FF;stroke-width:2.7112;stroke-linecap:round;stroke-linejoin:round;stroke-miterlimit:10;} .st39{fill:none;stroke:#00F0FF;stroke-width:4;} .st40{fill:none;stroke:#00F0FF;stroke-width:4;stroke-linecap:round;stroke-linejoin:round;} .st41{fill:none;stroke:#0E0E0E;stroke-width:3;} .st42{fill:#0F1536;stroke:#0F1536;stroke-width:2.62;stroke-miterlimit:10;} .st43{fill:none;stroke:#0F1536;stroke-width:6;stroke-linecap:round;stroke-linejoin:round;} .st44{fill:none;stroke:#32E13C;stroke-width:4;} .st45{fill:#0F1F40;stroke:#0F1E40;stroke-width:1.75;stroke-miterlimit:10;} </style> <g> <g id="Ellipse_83"> <circle class="st12" cx="135.4" cy="135.7" r="132.5"></circle> <circle class="st39" cx="135.4" cy="135.7" r="130.5"></circle> </g> <path id="Path_167" class="st7" d="M154.8,148.8l15.6,8.9l-11.3,20l-16.1-9.3L154.8,148.8z"></path> <path id="Statue_of_Liberty" class="st9" d="M174.1,155.1l-12.4-7.2v-11.1c0-6.5-5.2-11.7-11.7-11.7h-2.8c0.4-0.4,0.7-0.8,1-1.3 c0.7-1,0.4-2.4-0.6-3c-1-0.6-2.3-0.4-3,0.6c-4.7,6.9-15.6,3.6-15.6-4.8v-1.2c3.3-0.1,6.3-1.5,8.5-3.9c3.9,4.3,12.5,5.6,12.9,1.9 c0-0.2,0-0.2,0-4.7h3.8c1.2,0,2.2-1,2.1-2.2c0-1.2-1-2.1-2.1-2.1h-4.1c-0.4-1.6-1.2-3.1-2.3-4.3l2.5-3c0.8-0.9,0.6-2.3-0.3-3.1 c-0.9-0.7-2.2-0.6-3,0.3l-2.7,3.2c-1.4-0.7-3-1-4.6-1v-6.2c0-1.2-1-2.2-2.2-2.1c-1.2,0-2.1,1-2.1,2.1v6.2c-1.6,0-3.1,0.4-4.6,1 l-2.7-3.2c-0.8-0.9-2.2-1-3.1-0.2c-0.9,0.8-1,2.1-0.3,3l2.5,3c-1.1,1.2-1.9,2.7-2.3,4.3h-4.1c-1.2,0-2.2,1-2.1,2.2 c0,1.2,1,2.1,2.1,2.1h3.8c0,7.8-0.7,12,3.2,16.5h-0.6l-22-26.6v-4.2h5.9c1.2,0,2.2-1,2.1-2.2c0-1.2-1-2.2-2.2-2.1c0,0-0.1,0-0.1,0 c2.3-3.7,1.8-8.5-1.3-11.6l-5.1-5.1c-0.8-0.8-2.2-0.8-3.1,0l-5.1,5.1c-3.1,3.1-3.6,7.9-1.3,11.6c-1.2-0.1-2.2,0.9-2.3,2.1 s0.9,2.2,2.1,2.3c0,0,0.1,0,0.1,0h5.9c0,9.3-1.9,34,13.7,62.3v30c0,2.9,4.3-0.6,4.3-3.5c0-15.4,0.1-27.4-0.3-28.1 c-8.5-15.2-13.1-32.3-13.4-49.8l19.4,23.4c0.9,1.1,0.3,0.8,17.6,0.8c-3.4,6.7-8.2,12.7-14.1,17.4c-0.9,0.8-1,2.1-0.3,3.1 c0.7,0.9,2.1,1,3,0.3c6.9-5.6,12.5-12.7,16.2-20.8h3.1c4.1,0,7.3,3.3,7.3,7.3v8.6l-2.3-1.3c-1-0.6-2.4-0.2-3,0.8c0,0,0,0,0,0 l-13.4,23.2c-0.6,1-0.2,2.4,0.8,3c0,0,0,0,0,0l11,6.4c-3.1,10.7-11.7,18.9-22.4,21.5h-9.2V187c6.5,0.1,13-1.5,18.6-4.7 c1-0.6,1.4-1.9,0.8-3c-0.6-1-1.9-1.4-2.9-0.8c-12.9,7.3-20.8,1.4-20.8,6.2v16.3c0,1.2,1,2.2,2.2,2.2h42.8c1.2,0,2.2-1,2.1-2.2 c0-1.2-1-2.1-2.1-2.1h-20.4c8-4.9,13.7-12.7,15.9-21.8c0.4-1,0-2.1-0.9-2.6l-10.6-6.1l11.2-19.4l15.3,8.8l-7.7,13.3 c-0.6,1-0.2,2.4,0.8,3c1,0.6,2.4,0.2,3-0.8l8.8-15.2C175.5,157,175.2,155.7,174.1,155.1C174.1,155.1,174.1,155.1,174.1,155.1 L174.1,155.1z M135,100.7c1.7-0.1,3.4-0.1,5.1,0c3.3,0.2,6,3,6,6.3v4c-1.8-0.1-3.6-0.9-4.9-2.1c-1.8-1.7-1.4-2.8-2.7-3.3 c-0.5-0.2-1.2-0.2-1.7,0c-1.3,0.6-1,1.6-2.7,3.3c-1.4,1.3-3.1,2-4.9,2.1v-4C129,103.7,131.6,100.9,135,100.7L135,100.7z M99.5,81.6 L103,78l3.5,3.5c1.9,1.9,1.9,5.1,0,7.1s-5.1,1.9-7.1,0C97.6,86.7,97.6,83.5,99.5,81.6C99.5,81.6,99.5,81.6,99.5,81.6z"></path> </g> </svg> 