<?xml version="1.0" encoding="UTF-8"?> <!-- Generator: Adobe Illustrator 24.1.0, SVG Export Plug-In . SVG Version: 6.00 Build 0) --> <svg xmlns="http://www.w3.org/2000/svg" xmlns:xlink="http://www.w3.org/1999/xlink" version="1.1" id="Layer_1" x="0px" y="0px" viewBox="0 0 270.7 271.4" style="enable-background:new 0 0 270.7 271.4;" xml:space="preserve"> <style type="text/css"> .st0{fill:#FFFFFF;stroke:#00F5BD;stroke-width:3;stroke-miterlimit:10;} .st1{fill:#0F1F40;} .st2{fill:none;stroke:#000000;stroke-width:3.1369;stroke-linecap:round;stroke-linejoin:round;stroke-miterlimit:10;} .st3{fill:none;stroke:#000000;stroke-width:3.1369;stroke-linecap:round;stroke-miterlimit:10;} .st4{fill:none;stroke:#000000;stroke-width:2.0912;stroke-linecap:round;stroke-linejoin:round;stroke-miterlimit:10;} .st5{stroke:#000000;stroke-width:0.6971;stroke-miterlimit:10;} .st6{fill:#00F5BD;} .st7{fill:#00F0FF;} .st8{fill:#00F0FF;stroke:#00F0FF;stroke-width:2;stroke-miterlimit:10;} .st9{fill:#0F1536;} .st10{fill:#0F1536;stroke:#FFFFFF;stroke-width:0.7647;} .st11{fill:none;stroke:#0F1F40;stroke-width:1.5362;stroke-linecap:round;stroke-linejoin:round;stroke-miterlimit:10;} .st12{fill:none;} .st13{fill:none;stroke:#0F1F40;stroke-width:1.9669;stroke-linecap:round;stroke-linejoin:round;stroke-miterlimit:10;} .st14{fill:none;stroke:#0F1F40;stroke-width:1.8435;stroke-linecap:round;stroke-linejoin:round;stroke-miterlimit:10;} .st15{fill:#0F1F40;stroke:#0F1F40;stroke-width:0.5691;stroke-miterlimit:10;} .st16{fill:none;stroke:#0F1F40;stroke-width:2.4442;stroke-linecap:round;stroke-linejoin:round;stroke-miterlimit:10;} .st17{fill:none;stroke:#0F1F40;stroke-width:2.4881;stroke-linecap:round;stroke-linejoin:round;stroke-miterlimit:10;} .st18{fill:none;stroke:#0F1F40;stroke-width:1.2495;stroke-linecap:round;stroke-linejoin:round;stroke-miterlimit:10;} .st19{fill:none;stroke:#5CE5C6;stroke-width:1.2495;stroke-miterlimit:10;} .st20{fill:#32E13C;} .st21{fill:#0AEEFD;} .st22{fill:#92D050;} .st23{fill:#0F1E40;stroke:#92D050;stroke-miterlimit:10;} .st24{fill:#0F1F40;stroke:#0F1E40;stroke-miterlimit:10;} .st25{fill:#0F1F40;stroke:#0F1E40;stroke-width:1.6173;stroke-miterlimit:10;} .st26{fill:#0F1E40;} .st27{fill:none;stroke:#0F1E40;stroke-width:1.8127;stroke-linecap:round;stroke-linejoin:round;stroke-miterlimit:10;} .st28{fill:none;stroke:#0F1E40;stroke-width:1.4619;stroke-linecap:round;stroke-linejoin:round;stroke-miterlimit:10;} .st29{fill:none;stroke:#0F1E40;stroke-width:1.0632;stroke-linecap:round;stroke-linejoin:round;stroke-miterlimit:10;} .st30{fill:none;stroke:#0F1E40;stroke-width:1.619;stroke-linecap:round;stroke-linejoin:round;stroke-miterlimit:10;} .st31{fill:none;stroke:#0F1E40;stroke-width:2;stroke-linecap:round;stroke-linejoin:round;stroke-miterlimit:10;} .st32{fill:#0F1F40;stroke:#0F1E40;stroke-width:0.75;stroke-miterlimit:10;} .st33{fill:#FFFFFF;stroke:#92D050;stroke-width:3;stroke-miterlimit:10;} .st34{fill:#FFFFFF;stroke:#92D050;stroke-width:1.25;stroke-miterlimit:10;} .st35{fill:none;stroke:#0F1F40;stroke-width:3;stroke-linecap:round;stroke-linejoin:round;stroke-miterlimit:10;} .st36{fill:none;stroke:#000000;stroke-width:2.5;stroke-linecap:round;stroke-linejoin:round;stroke-miterlimit:10;} .st37{fill:none;stroke:#000000;stroke-width:2.5;stroke-miterlimit:10;} .st38{fill:none;stroke:#00F0FF;stroke-width:2.7112;stroke-linecap:round;stroke-linejoin:round;stroke-miterlimit:10;} .st39{fill:none;stroke:#00F0FF;stroke-width:4;} .st40{fill:none;stroke:#00F0FF;stroke-width:4;stroke-linecap:round;stroke-linejoin:round;} .st41{fill:none;stroke:#0E0E0E;stroke-width:3;} .st42{fill:#0F1536;stroke:#0F1536;stroke-width:2.62;stroke-miterlimit:10;} .st43{fill:none;stroke:#0F1536;stroke-width:6;stroke-linecap:round;stroke-linejoin:round;} .st44{fill:none;stroke:#32E13C;stroke-width:4;} .st45{fill:#0F1F40;stroke:#0F1E40;stroke-width:1.75;stroke-miterlimit:10;} </style> <g> <g id="Ellipse_24_1_"> <circle class="st12" cx="135.4" cy="135.7" r="132.5"></circle> <circle class="st39" cx="135.4" cy="135.7" r="130.5"></circle> </g> <circle id="Ellipse_69_1_" class="st7" cx="174.9" cy="100.7" r="13.6"></circle> <g id="Stock" transform="translate(470.691 -240.923)"> <g id="Group_41_1_" transform="translate(-403.691 320.846)"> <g id="Group_36_1_" transform="translate(87.477)"> <g id="Group_35_1_"> <path id="Path_130" class="st1" d="M20.1,3.2c-9.5,0-17.2,7.7-17.2,17.2c0,0.1,0,0.1,0,0.2c0,9.5,7.6,17.2,17.1,17.2 c0,0,0.1,0,0.1,0c9.6,0,17.3-7.8,17.4-17.4c0-9.5-7.7-17.2-17.2-17.2C20.2,3.2,20.2,3.2,20.1,3.2z M20.1,34 c-7.5,0-13.5-6.1-13.5-13.5c0,0,0,0,0,0C6.6,13,12.6,7,20.1,7c7.5,0,13.5,6.1,13.5,13.5c0,0,0,0,0,0C33.6,28,27.6,34,20.1,34 C20.2,34,20.1,34,20.1,34z"></path> </g> </g> <g id="Group_38" transform="translate(20.35 36.117)"> <g id="Group_37_1_"> <path id="Path_131" class="st1" d="M78.9,3.9c-0.7-0.8-1.9-1-2.7-0.4L56.9,18.9L32.1,8.5c-0.6-0.2-1.3-0.1-1.8,0.2l-26.6,19 c-0.8,0.6-1.1,1.8-0.5,2.6c0.3,0.5,0.9,0.9,1.5,0.8c0.4,0,0.8-0.1,1.1-0.4l25.8-18.4l25,10.3c0.6,0.2,1.3,0.1,1.9-0.2L78.5,6.6 C79.4,6,79.5,4.8,78.9,3.9z"></path> </g> </g> <g id="Group_40_1_" transform="translate(0 45.046)"> <g id="Group_39"> <path id="Path_132" class="st1" d="M127.1,60.1h-8.8v-55c0-1-0.8-1.9-1.9-1.9c0,0,0,0,0,0H98.9C97.8,3.2,97,4,97,5c0,0,0,0,0,0 v55h-6.4v-36c0-1-0.8-1.9-1.9-1.9c0,0,0,0,0,0H71.1c-1,0-1.9,0.8-1.9,1.9c0,0,0,0,0,0v36h-6.4V21.2c0-1-0.8-1.9-1.9-1.9 c0,0,0,0,0,0H43.4c-1,0-1.9,0.8-1.9,1.9c0,0,0,0,0,0v38.9h-6.4V32.4c0-1-0.8-1.9-1.9-1.9c0,0,0,0,0,0H15.6 c-1,0-1.9,0.8-1.9,1.9c0,0,0,0,0,0v27.7H4.8c-1,0-1.9,0.8-1.9,1.9c0,0,0,0,0,0c0,1,0.8,1.9,1.9,1.9c0,0,0,0,0,0h122.2 c1,0,1.9-0.8,1.9-1.9c0,0,0,0,0,0c0.1-0.9-0.6-1.8-1.5-1.9C127.2,60.1,127.1,60.1,127.1,60.1z M31.1,60.1H17.5V34.3h13.7 L31.1,60.1z M59,60.1H45.3v-37H59L59,60.1z M86.6,60.1H73V26h13.7L86.6,60.1z M114.5,60.1h-13.7V7h13.7V60.1z"></path> </g> </g> </g> <path id="Path_133" class="st45" d="M-292.6,342.5c-0.5-0.5-1.2-0.9-1.9-1c-0.4-0.1-0.8-0.2-1.1-0.3c-0.9-0.1-1.7-0.4-2.4-0.9 c-0.6-0.5-0.9-1.2-0.7-2c0.1-1,0.8-1.8,1.7-2.2c1-0.4,2.2-0.2,3,0.5c0.3,0.3,0.6,0.6,0.8,1c0.1,0.2,0.4,0.3,0.6,0.1 c0.2-0.1,0.3-0.4,0.1-0.6c-0.3-0.5-0.6-0.9-1-1.2c-0.6-0.5-1.4-0.8-2.2-0.9v-1.8c0-0.2-0.2-0.5-0.5-0.5c-0.2,0-0.4,0.2-0.4,0.5 v1.8c-0.3,0-0.6,0.1-0.9,0.2c-1.3,0.5-2.1,1.6-2.3,2.9c-0.2,1.1,0.2,2.1,1,2.8c0.8,0.6,1.8,0.9,2.8,1.1c0.4,0.1,0.7,0.2,1.1,0.3 c0.6,0.1,1.1,0.4,1.5,0.8c0.6,0.6,0.7,1.5,0.3,2.3c-0.4,0.9-1.2,1.5-2.2,1.7c-1.8,0.5-3.7-0.6-4.3-2.4c-0.1-0.2-0.3-0.4-0.6-0.3 c0,0,0,0,0,0c-0.2,0.1-0.4,0.3-0.3,0.6c0.5,1.7,2,2.9,3.7,3.1v1.4c0,0.2,0.2,0.4,0.4,0.5c0,0,0,0,0,0c0.2,0,0.5-0.2,0.5-0.4 c0,0,0,0,0,0V348c0.2,0,0.4,0,0.6-0.1c1.2-0.2,2.3-1,2.8-2.2C-291.6,344.7-291.8,343.4-292.6,342.5z"></path> </g> </g> </svg> 