<?xml version="1.0" encoding="UTF-8"?> <svg xmlns="http://www.w3.org/2000/svg" width="107.021" height="92.517" viewBox="0 0 107.021 92.517"><defs><style>.a{fill:#00f0ff;}.b{fill:none;stroke:#0f1536;stroke-linecap:round;stroke-linejoin:round;stroke-width:3px;}</style></defs><g transform="translate(-1635.842 -783.672)"><circle class="a" cx="28.802" cy="28.802" r="28.802" transform="translate(1659.001 807.183)"></circle><g transform="translate(1637.342 785.241)"><circle class="b" cx="7.257" cy="7.257" r="7.257" transform="translate(43.544 43.486)"></circle><line class="b" y1="14.515" x2="15.724" transform="translate(56.849 31.391)"></line><line class="b" y1="4.838" x2="6.048" transform="translate(38.705 55.582)"></line><path class="b" d="M1671.846,785.631c-7.194,1.066-9.679,1.953-16.205,5.494" transform="translate(-1629.031 -785.064)"></path><path class="b" d="M1692.276,789.608c-6.845-2.91-10.477-4-18.337-4.367" transform="translate(-1620.721 -785.241)"></path><path class="b" d="M1689.871,804.148c5.526,3.982,6.9,6.932,9.709,13.226l-8,5.511,25.924,12.4-2.19-28.75-5.615,3.87c-3.812-7.6-7.848-14.062-14.767-18.9" transform="translate(-1613.485 -782.397)"></path><path class="b" d="M1675.07,793.869a30.231,30.231,0,0,1,12.878,3.4" transform="translate(-1620.207 -781.322)"></path><path class="b" d="M1659.382,798c4.892-2.714,6.806-3.342,12.7-3.705" transform="translate(-1627.332 -781.128)"></path><path class="b" d="M1722.389,836.154a38.708,38.708,0,0,1-76.729-7.258c0-12.954,3.958-19.774,11.83-28.05" transform="translate(-1633.564 -778.153)"></path><path class="b" d="M1655.611,793.869c-12.167,10.147-18.269,20.934-18.269,38.2" transform="translate(-1637.342 -781.322)"></path></g></g></svg> 