<?xml version="1.0" encoding="UTF-8"?> <!-- Generator: Adobe Illustrator 24.1.0, SVG Export Plug-In . SVG Version: 6.00 Build 0) --> <svg xmlns="http://www.w3.org/2000/svg" xmlns:xlink="http://www.w3.org/1999/xlink" version="1.1" id="Layer_1" x="0px" y="0px" viewBox="0 0 135.4 139.1" style="enable-background:new 0 0 135.4 139.1;" xml:space="preserve"> <style type="text/css"> .st0{fill:#FFFFFF;} .st1{fill:#FFFFFF;stroke:#00F5BD;stroke-width:3;stroke-miterlimit:10;} .st2{fill:#0F1F40;} .st3{fill:none;stroke:#000000;stroke-width:3.1369;stroke-linecap:round;stroke-linejoin:round;stroke-miterlimit:10;} .st4{fill:none;stroke:#000000;stroke-width:3.1369;stroke-linecap:round;stroke-miterlimit:10;} .st5{fill:none;stroke:#000000;stroke-width:2.0912;stroke-linecap:round;stroke-linejoin:round;stroke-miterlimit:10;} .st6{stroke:#000000;stroke-width:0.6971;stroke-miterlimit:10;} .st7{fill:#00F5BD;} .st8{fill:#00F0FF;} .st9{fill:#00F0FF;stroke:#00F0FF;stroke-width:2;stroke-miterlimit:10;} .st10{fill:#0F1536;} .st11{fill:#0F1536;stroke:#FFFFFF;stroke-width:0.7647;} .st12{fill:none;stroke:#0F1F40;stroke-width:1.5362;stroke-linecap:round;stroke-linejoin:round;stroke-miterlimit:10;} .st13{fill:none;} .st14{fill:none;stroke:#0F1F40;stroke-width:1.9669;stroke-linecap:round;stroke-linejoin:round;stroke-miterlimit:10;} .st15{fill:none;stroke:#0F1F40;stroke-width:1.8435;stroke-linecap:round;stroke-linejoin:round;stroke-miterlimit:10;} .st16{fill:#0F1F40;stroke:#0F1F40;stroke-width:0.5691;stroke-miterlimit:10;} .st17{fill:none;stroke:#0F1F40;stroke-width:2.4442;stroke-linecap:round;stroke-linejoin:round;stroke-miterlimit:10;} .st18{fill:none;stroke:#0F1F40;stroke-width:2.4881;stroke-linecap:round;stroke-linejoin:round;stroke-miterlimit:10;} .st19{fill:none;stroke:#0F1F40;stroke-width:1.2495;stroke-linecap:round;stroke-linejoin:round;stroke-miterlimit:10;} .st20{fill:none;stroke:#5CE5C6;stroke-width:1.2495;stroke-miterlimit:10;} .st21{fill:#32E13C;} .st22{fill:#0AEEFD;} .st23{fill:#92D050;} .st24{fill:#0F1E40;stroke:#92D050;stroke-miterlimit:10;} .st25{fill:#0F1F40;stroke:#0F1E40;stroke-miterlimit:10;} .st26{fill:#0F1F40;stroke:#0F1E40;stroke-width:1.6173;stroke-miterlimit:10;} .st27{fill:#0F1E40;} .st28{fill:none;stroke:#0F1E40;stroke-width:1.8127;stroke-linecap:round;stroke-linejoin:round;stroke-miterlimit:10;} .st29{fill:none;stroke:#0F1E40;stroke-width:1.4619;stroke-linecap:round;stroke-linejoin:round;stroke-miterlimit:10;} .st30{fill:none;stroke:#0F1E40;stroke-width:1.0632;stroke-linecap:round;stroke-linejoin:round;stroke-miterlimit:10;} .st31{fill:none;stroke:#0F1E40;stroke-width:1.619;stroke-linecap:round;stroke-linejoin:round;stroke-miterlimit:10;} .st32{fill:none;stroke:#0F1E40;stroke-width:2;stroke-linecap:round;stroke-linejoin:round;stroke-miterlimit:10;} .st33{fill:#0F1F40;stroke:#0F1E40;stroke-width:0.75;stroke-miterlimit:10;} .st34{fill:#FFFFFF;stroke:#92D050;stroke-width:3;stroke-miterlimit:10;} .st35{fill:#FFFFFF;stroke:#92D050;stroke-width:1.25;stroke-miterlimit:10;} .st36{fill:none;stroke:#0F1F40;stroke-width:3;stroke-linecap:round;stroke-linejoin:round;stroke-miterlimit:10;} .st37{fill:none;stroke:#000000;stroke-width:2.5;stroke-linecap:round;stroke-linejoin:round;stroke-miterlimit:10;} .st38{fill:none;stroke:#000000;stroke-width:2.5;stroke-miterlimit:10;} .st39{fill:none;stroke:#00F0FF;stroke-width:4;} .st40{fill:none;stroke:#00F0FF;stroke-width:4;stroke-linecap:round;stroke-linejoin:round;} .st41{fill:none;stroke:#0E0E0E;stroke-width:3;} .st42{fill:#0F1536;stroke:#0F1536;stroke-width:2.62;stroke-miterlimit:10;} .st43{fill:none;stroke:#0F1536;stroke-width:6;stroke-linecap:round;stroke-linejoin:round;} .st44{fill:none;stroke:#32E13C;stroke-width:4;} .st45{fill:none;stroke:#00F5BD;stroke-miterlimit:10;} .st46{fill:none;stroke:#00F5BD;stroke-width:4;} .st47{fill:#0F1F40;stroke:#0F1E40;stroke-width:1.75;stroke-miterlimit:10;} .st48{fill:none;stroke:#0F1536;stroke-width:4;} </style> <g> <circle id="Ellipse_34" class="st8" cx="67.7" cy="69.5" r="38"></circle> <g id="Group_59_1_"> <g id="Group_41_2_" transform="translate(69.895 32.749)"> <g id="Group_40_2_"> <path id="Path_79_1_" class="st10" d="M25.1,15.4l-1.4-4.6c-1.8-5.2-7.5-8-12.7-6.3c-2.9,1-5.3,3.3-6.3,6.3l-1.4,4.6 c-1.2,3.9-1.4,8-0.7,12c0.6,3.4,2.8,6.3,5.8,7.9L6.8,70.4c-0.2,2,0.4,3.9,1.7,5.4c2.8,3.1,7.7,3.3,10.8,0.5 c0.2-0.2,0.3-0.3,0.5-0.5c1.3-1.4,1.9-3.3,1.7-5.2L20,35.3c3-1.6,5.2-4.5,5.8-7.9C26.5,23.4,26.2,19.3,25.1,15.4z M21.5,26.7 c-0.5,2.4-2.2,4.4-4.5,5.2c-0.9,0.3-1.5,1.2-1.4,2.1l1.7,36.9c0.1,0.7-0.2,1.4-0.7,2c-1.3,1.3-3.4,1.3-4.7,0 c-0.5-0.6-0.8-1.4-0.6-2.1l1.6-36.7c0-0.9-0.5-1.8-1.4-2.1c-2.3-0.8-4.1-2.8-4.5-5.2c-0.6-3.3-0.4-6.7,0.6-10l1.4-4.6 c1.1-2.9,4.3-4.4,7.3-3.3c1.6,0.6,2.8,1.8,3.3,3.3l1.4,4.6C21.9,20,22.1,23.4,21.5,26.7L21.5,26.7z"></path> </g> </g> <g id="Group_43_1_" transform="translate(37.13 32.762)"> <g id="Group_42_1_"> <path id="Path_80_1_" class="st10" d="M24,4c-1.2,0-2.2,1-2.2,2.2c0,0,0,0,0,0V25l-5.9,5.9c-0.4,0.4-0.7,1-0.6,1.7l1.9,38.2 c0,0.8-0.3,1.6-0.8,2.2c-1.2,1.2-3.1,1.2-4.3,0c0,0,0,0,0,0l0,0c-0.6-0.6-0.9-1.4-0.8-2.2l1.9-38.2c0-0.6-0.2-1.2-0.6-1.7 L6.5,25V6.2C6.5,5,5.5,4,4.3,4C3.1,4,2.2,5,2.2,6.2v19.7c0,0.6,0.2,1.1,0.6,1.5l5.9,5.9L6.8,70.5c-0.2,4.1,3,7.5,7.1,7.7 c4,0.2,7.4-2.9,7.7-7c0-0.2,0-0.5,0-0.7l-1.9-37.3l5.9-5.9c0.4-0.4,0.6-1,0.6-1.5V6.2C26.2,5,25.2,4,24,4z"></path> </g> </g> <g id="Group_45_1_" transform="translate(43.682 32.762)"> <g id="Group_44_1_"> <path id="Path_81_1_" class="st10" d="M4.3,4C3.1,4,2.2,5,2.2,6.2c0,0,0,0,0,0v17.5c0,1.2,1,2.2,2.2,2.2c1.2,0,2.2-1,2.2-2.2 V6.2C6.5,5,5.5,4,4.3,4z"></path> </g> </g> <g id="Group_47_1_" transform="translate(50.235 32.762)"> <g id="Group_46_1_"> <path id="Path_82_1_" class="st10" d="M4.3,4C3.1,4,2.2,5,2.2,6.2c0,0,0,0,0,0v17.5c0,1.2,1,2.2,2.2,2.2c1.2,0,2.2-1,2.2-2.2 c0,0,0,0,0,0V6.2C6.5,5,5.5,4,4.3,4z"></path> </g> </g> <g id="Group_49_1_"> <g id="Group_48_1_"> <path id="Path_83_1_" class="st10" d="M67.7,4C31.5,4,2.2,33.4,2.2,69.5s29.3,65.5,65.5,65.5s65.5-29.3,65.5-65.5 C133.2,33.4,103.9,4,67.7,4z M67.7,130.7c-33.8,0-61.2-27.4-61.2-61.2S33.9,8.4,67.7,8.4s61.2,27.4,61.2,61.2 S101.5,130.7,67.7,130.7L67.7,130.7z"></path> </g> </g> <g id="Group_51_1_" transform="translate(58.456 104.55)"> <g id="Group_50_1_"> <path id="Path_84_1_" class="st10" d="M16.3,6c-0.1-1.2-1.2-2.1-2.4-2c0,0,0,0,0,0l-0.1,0h0c-3.1,0.4-6.2,0.4-9.3,0 C3.4,3.9,2.3,4.8,2.2,6C2.1,7.2,2.9,8.2,4.1,8.4c3.4,0.4,6.9,0.4,10.3,0C15.6,8.3,16.4,7.2,16.3,6C16.3,6,16.3,6,16.3,6z"></path> </g> </g> <g id="Group_53_1_" transform="translate(92.632 36.598)"> <g id="Group_52_1_"> <path id="Path_85_1_" class="st10" d="M8.5,4.8c-0.8-0.9-2.2-1-3.1-0.3c0,0,0,0,0,0l0,0c-0.9,0.8-1,2.2-0.3,3.1 c13.2,15.6,12.2,38.7-2.3,53.2C2,61.7,2,63,2.8,63.9c0.8,0.8,2.2,0.8,3,0C22,47.9,23.1,22.2,8.5,4.8z"></path> </g> </g> <g id="Group_56_1_" transform="translate(48.701 21.848)"> <g id="Group_55_1_"> <g id="Group_54_1_"> <path id="Path_87_1_" class="st10" d="M29.3,5.2c-8.5-2-17.5-1.5-25.7,1.6C2.4,7.2,1.8,8.5,2.2,9.6s1.7,1.7,2.8,1.3 c0,0,0,0,0.1,0c7.4-2.8,15.5-3.3,23.2-1.4c1.2,0.3,2.4-0.4,2.6-1.6C31.2,6.7,30.5,5.5,29.3,5.2L29.3,5.2z"></path> </g> </g> </g> <g id="Group_58_1_" transform="translate(21.838 38.901)"> <g id="Group_57_1_"> <path id="Path_88_1_" class="st10" d="M18,58.4C4.4,44.7,2.7,23.1,14,7.5c0.7-1,0.5-2.3-0.4-3.1c-1-0.7-2.3-0.5-3.1,0.4l0,0 l0,0.1C-2.1,22.3-0.3,46.3,14.9,61.5c0.9,0.8,2.3,0.8,3.1,0C18.8,60.6,18.8,59.2,18,58.4L18,58.4z"></path> </g> </g> </g> </g> </svg> 