<?xml version="1.0" encoding="utf-8"?>
<!-- Generator: Adobe Illustrator 25.0.1, SVG Export Plug-In . SVG Version: 6.00 Build 0)  -->
<svg version="1.1" id="Layer_1" xmlns="http://www.w3.org/2000/svg" xmlns:xlink="http://www.w3.org/1999/xlink" x="0px" y="0px"
	 viewBox="0 0 118.6 139.1" style="enable-background:new 0 0 118.6 139.1;" xml:space="preserve">
<style type="text/css">
	.st0{fill:#00F0FF;}
	.st1{fill:#0F1536;}
	.st2{fill:#0F1536;stroke:#0F1536;stroke-width:2;stroke-miterlimit:10;}
</style>
<g>
	<circle id="Ellipse_36" class="st0" cx="61.4" cy="70.1" r="38"/>
	<g id="Group_61" transform="translate(-8858.213 -3654.825)">
		<path id="Path_64_2_" class="st1" d="M8898.8,3692.8c0,13.1,10.7,23.8,23.8,23.8s23.8-10.7,23.8-23.8s-10.7-23.8-23.8-23.8l0,0
			C8909.5,3669,8898.8,3679.6,8898.8,3692.8z M8942.1,3692.8c0,10.8-8.7,19.5-19.5,19.5s-19.5-8.7-19.5-19.5s8.7-19.5,19.5-19.5l0,0
			C8933.3,3673.3,8942.1,3682,8942.1,3692.8z"/>
		<path id="Path_65_2_" class="st1" d="M8883,3779.1c0.8,0.8,2.2,0.9,3.1,0l10.5-10.3c1.7-1.8,2.3-4.4,1.5-6.7l2.3-2.2
			c1.2-1.2,2.8-1.8,4.5-1.8h28.8c5.1,0,10-2,13.6-5.5c0.2-0.1-1.1,1.4,19.6-23.4c3.1-3.7,2.6-9.1-1.1-12.2c-3.6-3-9-2.6-12.1,1
			l-12.8,13.1c-1.6-2-4.1-3.2-6.7-3.2h-24.1c-3.4-1.4-7.1-2.2-10.8-2.2c-10.4,0-19.5,4.8-24.4,13.8c-2.1-0.4-4.3,0.3-5.8,1.8
			l-10.3,10.3c-0.8,0.8-0.8,2.2,0,3.1L8883,3779.1z M8899.2,3730c3.3,0,6.5,0.7,9.5,2c0.3,0.1,0.6,0.2,0.9,0.2h24.6
			c2.4,0,4.4,1.9,4.4,4.3c0,2.4-1.9,4.4-4.3,4.4h-0.1h-17.7c-1.2,0-2.1,1-2.1,2.2s1,2.1,2.1,2.1h17.7c4.8,0,8.7-3.9,8.7-8.6
			c0-0.4,0-0.8-0.1-1.1c12.4-12.7,14.1-14.5,14.2-14.6c1.5-1.8,4.3-2.1,6.1-0.6s2.1,4.3,0.6,6.1c0,0,0,0-0.1,0.1l-19.4,23.2
			c-2.8,2.7-6.6,4.2-10.5,4.2h-28.8c-2.8,0-5.5,1.1-7.5,3l-1.8,1.8l-17-17C8882.5,3734.2,8890,3730,8899.2,3730z M8872.1,3744.3
			c0.7-0.7,1.8-0.8,2.7-0.3c0.4,0.2-0.7-0.8,18.7,18.7c0.8,0.8,0.8,2.2,0,3.1l-8.9,8.8l-21.3-21.4L8872.1,3744.3z"/>
		<path id="Path_28_2_" class="st2" d="M8927,3694.3c-0.7-0.7-1.5-1.1-2.5-1.3c-0.5-0.1-1-0.2-1.5-0.3c-1.1-0.1-2.2-0.5-3.1-1.1
			c-0.8-0.6-1.1-1.6-0.9-2.5c0.2-1.3,1-2.4,2.2-2.8c1.3-0.5,2.8-0.3,3.9,0.6c0.4,0.4,0.8,0.8,1.1,1.3c0.2,0.3,0.5,0.3,0.8,0.2
			c0.3-0.2,0.3-0.5,0.2-0.8l0,0l0,0c-0.3-0.6-0.8-1.1-1.3-1.5c-0.8-0.7-1.7-1.1-2.8-1.1v-2.3c0-0.3-0.3-0.6-0.6-0.6
			s-0.6,0.3-0.6,0.6l0,0v2.3c-0.4,0.1-0.8,0.2-1.1,0.3c-1.6,0.6-2.8,2-3,3.7c-0.3,1.4,0.3,2.7,1.3,3.6c1.1,0.7,2.3,1.2,3.6,1.4
			c0.5,0.1,0.9,0.2,1.4,0.3c0.7,0.2,1.4,0.5,1.9,1c0.8,0.8,0.9,2,0.4,3c-0.5,1.1-1.6,1.9-2.8,2.1c-2.4,0.6-4.8-0.7-5.5-3.1
			c-0.1-0.3-0.4-0.5-0.7-0.4s-0.5,0.4-0.4,0.7l0,0l0,0c0.6,2.2,2.5,3.7,4.8,3.9v1.8c0,0.3,0.3,0.6,0.6,0.6s0.6-0.3,0.6-0.6l0,0v-1.8
			c0.3,0,0.5-0.1,0.8-0.1c1.6-0.3,2.9-1.3,3.6-2.8C8928.3,3697.1,8928.1,3695.4,8927,3694.3z"/>
	</g>
</g>
</svg>
