<?xml version="1.0" encoding="UTF-8"?> <!-- Generator: Adobe Illustrator 25.0.1, SVG Export Plug-In . SVG Version: 6.00 Build 0) --> <svg xmlns="http://www.w3.org/2000/svg" xmlns:xlink="http://www.w3.org/1999/xlink" version="1.1" id="Layer_1" x="0px" y="0px" viewBox="0 0 179 179" style="enable-background:new 0 0 179 179;" xml:space="preserve"> <style type="text/css"> .st0{display:none;fill:none;stroke:#0F1536;stroke-width:4;} .st1{display:none;} .st2{display:inline;fill:#FFFFFF;} .st3{display:inline;fill:none;stroke:#0F1536;stroke-width:4;} .st4{fill:#FFFFFF;} .st5{fill:none;stroke:#0F1536;stroke-width:4;} .st6{display:inline;fill:none;stroke:#0F1536;stroke-width:3.25;stroke-linecap:round;stroke-linejoin:round;} .st7{display:inline;fill:#00F0FF;} .st8{display:inline;fill:#0F1536;} .st9{fill:none;stroke:#0F1536;stroke-width:3.25;stroke-linecap:round;stroke-linejoin:round;} .st10{fill:#00F0FF;} .st11{display:inline;} .st12{fill:#0F1536;} .st13{display:none;fill:#0F1536;} .st14{display:none;fill:none;stroke:#1BCABC;stroke-width:2;} .st15{display:none;fill:#00F5BC;} </style> <g transform="translate(92.376 -3113)"> <path class="st0" d="M-1193.3,3147.9c177.9,47.5,278.2,99.9,558.1,120.2c279.8,20.3,699.5-52.7,910.7-133.8"></path> <g transform="translate(108 3134)" class="st1"> <circle class="st2" cx="-1011.9" cy="89.5" r="89.5"></circle> <circle class="st3" cx="-1011.9" cy="89.5" r="87.5"></circle> </g> <g transform="translate(389 3182)" class="st1"> <circle class="st2" cx="-1011.9" cy="89.5" r="89.5"></circle> <circle class="st3" cx="-1011.9" cy="89.5" r="87.5"></circle> </g> <g transform="translate(712 3182)" class="st1"> <circle class="st2" cx="-1011.9" cy="89.5" r="89.5"></circle> <circle class="st3" cx="-1011.9" cy="89.5" r="87.5"></circle> </g> <g transform="translate(1009 3113)"> <circle class="st4" cx="-1011.9" cy="89.5" r="89.5"></circle> <circle class="st5" cx="-1011.9" cy="89.5" r="87.5"></circle> </g> <g transform="translate(-1234.582 2547.6)" class="st1"> <path class="st6" d="M606.6,711.8c-6.7,0-12.2-5.5-12.2-12.2s5.5-12.2,12.2-12.2s12.2,5.5,12.2,12.2S613.3,711.8,606.6,711.8 L606.6,711.8z"></path> <path class="st6" d="M592.4,751v9.2c0,1.7,1.4,3.2,3.2,3.2h22c1.7,0,3.2-1.4,3.2-3.2l0,0v-1"></path> <path class="st6" d="M630.2,745l-1.9,9.2h-27.2l1.7-8.1l1.8-9.1l4.1-20.2h27.2l-4,19.8"></path> <path class="st6" d="M628.2,740.2c-0.6,2.5,1,4.4,3.1,5.5c1,0.5,2.2,0.2,2.7-0.8c0.1-0.2,0.2-0.3,0.2-0.5l1.2-5.6 c0.2-1.1-0.5-2.1-1.5-2.4c-0.2,0-0.3-0.1-0.5,0C631,736.5,628.8,737.5,628.2,740.2z"></path> <path class="st6" d="M604.8,736h-11c-0.7,0-1.3-0.6-1.3-1.3v-4.9"></path> <path class="st6" d="M603.6,716.8h-9c-6.9,0-12.4,5.6-12.4,12.4l0,0v10.9c0,3.4,2.7,6.1,6.1,6.1l0,0h14.5"></path> <line class="st6" x1="604.8" y1="736" x2="599.3" y2="730.5"></line> <path class="st6" d="M624.6,710.9c1.1-1.3,1.9-2.9,2.2-4.5c-1.4-1.5-2.1-3.5-2.1-5.5c0-5.5,6-10,13.3-9.9s13.2,4.6,13.2,10.1 s-6,10-13.3,9.9c-2.7,0-5.3-0.6-7.6-1.9C628.5,710.1,626.6,710.8,624.6,710.9z"></path> <path class="st6" d="M633.7,700l3.1,3.1l5.1-5.1"></path> <circle class="st7" cx="606.6" cy="699.6" r="8.3"></circle> </g> <g transform="translate(-1024.675 2549.103)" class="st1"> <path class="st8" d="M763.5,731.5l-14.6-13.1c6.3-9.2,4-21.7-5.2-28s-21.7-4-28,5.2s-4,21.7,5.2,28c3.4,2.3,7.4,3.6,11.6,3.5 c3.8,0,7.5-1.1,10.7-3.2l12.7,14.9c1.9,2.2,5.2,2.5,7.4,0.7c2.2-1.9,2.5-5.2,0.7-7.4C763.9,731.8,763.7,731.6,763.5,731.5 L763.5,731.5z M761.9,737.3c-1.1,1-2.8,1-3.8-0.1l-0.1-0.1l-14.3-16.7l-1,0.7c-3,2.2-6.6,3.4-10.3,3.4c-9.7,0-17.5-7.8-17.5-17.5 s7.8-17.5,17.5-17.5s17.5,7.8,17.5,17.5c0,3.9-1.3,7.7-3.7,10.8l-0.7,1l16.4,14.7c1.1,1,1.2,2.7,0.2,3.8 C761.9,737.2,761.9,737.3,761.9,737.3L761.9,737.3z"></path> <circle class="st7" cx="732" cy="706.6" r="13.6"></circle> <path class="st8" d="M722.6,719.4l11.6-11.6v6.3h2.6v-10.7h-10.7v2.6h6.3l-11.6,11.6L722.6,719.4z"></path> <path class="st8" d="M679.1,748l11.5-11.5l17.5,17.5l15.7-15.7l15.3,15.3h25.3l-4.8,4.8l1.8,1.8l8-8l-8-8l-1.8,1.8l4.8,4.8h-24.2 l-16.4-16.4l-15.7,15.7l-15.6-15.6l4.8-4.8h14.9l5.9-6l-1.8-1.8l-5.2,5.2h-14.9l-5.5,5.5l-9.4-9.4l-1.8,1.8l9.4,9.4l-11.5,11.5 L679.1,748z"></path> </g> <g transform="translate(-671.429 2390.759)"> <line class="st9" x1="638.8" y1="821.3" x2="663.3" y2="796.8"></line> <path class="st9" d="M647.1,800.6c0,2.5-2,4.5-4.5,4.5s-4.5-2-4.5-4.5s2-4.5,4.5-4.5l0,0C645.1,796.1,647.1,798.1,647.1,800.6z"></path> <path class="st9" d="M664.1,817.5c0,2.5-2,4.5-4.5,4.5s-4.5-2-4.5-4.5s2-4.5,4.5-4.5S664.1,815,664.1,817.5L664.1,817.5z"></path> <path class="st9" d="M694.3,816.2v-29.9c0-0.6-0.5-1.1-1.1-1.1h-64.1c-0.6,0-1.1,0.5-1.1,1.1v46.8c0,0.6,0.5,1.1,1.1,1.1l0,0H643 c0.6,0,1.1,0.5,1.1,1.1v12c0,0.6,0.5,1.1,1.1,1.1c0.3,0,0.6-0.1,0.8-0.3l13.6-13.6c0.2-0.2,0.5-0.3,0.8-0.3h13.7"></path> <path class="st9" d="M674.8,816.2h32.7c0.3,0,0.6,0.3,0.6,0.6l0,0v23.9c0,0.3-0.3,0.6-0.6,0.6l0,0h-7.1c-0.3,0-0.6,0.3-0.6,0.6 l0,0v6.1c0,0.3-0.3,0.6-0.6,0.6c-0.2,0-0.3-0.1-0.4-0.2l-6.9-6.9c-0.1-0.1-0.3-0.2-0.4-0.2h-16.7c-0.3,0-0.6-0.3-0.6-0.6l0,0 v-23.9C674.2,816.5,674.5,816.2,674.8,816.2z"></path> <rect x="679" y="820.4" class="st10" width="23.8" height="16.3"></rect> <line class="st9" x1="684.2" y1="828.5" x2="685" y2="828.5"></line> <line class="st9" x1="690.7" y1="828.5" x2="691.5" y2="828.5"></line> <line class="st9" x1="697.2" y1="828.5" x2="697.9" y2="828.5"></line> <line class="st9" x1="674.2" y1="796.8" x2="685" y2="796.8"></line> <line class="st9" x1="674.2" y1="805.4" x2="679.2" y2="805.4"></line> </g> <g transform="translate(-1348.73 2505.404)" class="st1"> <g transform="translate(1497.73 686.596)" class="st11"> <g transform="translate(50.591 43.478)"> <circle class="st12" cx="-1099.1" cy="2.3" r="1.9"></circle> </g> <g transform="translate(32.331 51.004)"> <path class="st12" d="M-1055.6,2.4h-44.6c-0.7,0-1.2-0.5-1.2-1.2s0.5-1.2,1.2-1.2l0,0h44.6c0.7,0,1.2,0.6,1.2,1.2 C-1054.3,1.9-1054.9,2.4-1055.6,2.4z"></path> </g> <g transform="translate(16.125)"> <path class="st12" d="M-1029.2,27.9c-0.7,0-1.2-0.5-1.2-1.2l0,0V5.5c0-1.7-1.4-3.1-3.1-3.1h-62.4c-1.7,0-3.1,1.4-3.1,3.1v13.7 c0,0.7-0.5,1.2-1.2,1.2s-1.2-0.5-1.2-1.2V5.5c0-3,2.5-5.5,5.5-5.5h62.4c3,0,5.5,2.5,5.5,5.5v21.1 C-1027.9,27.3-1028.5,27.9-1029.2,27.9L-1029.2,27.9z"></path> </g> <g transform="translate(42.594 51.22)"> <path class="st12" d="M-1082,12.8h-18.2c-0.6,0-1.1-0.5-1.1-1.1c0-0.1,0-0.1,0-0.2l1.9-10.5c0.1-0.5,0.6-0.9,1.1-0.9h14.4 c0.5,0,1,0.4,1.1,0.9l1.9,10.4c0.2,0.6-0.2,1.2-0.8,1.4C-1081.8,12.8-1081.9,12.8-1082,12.8L-1082,12.8z M-1098.9,10.5h15.5 l-1.5-8.2h-12.5L-1098.9,10.5z"></path> </g> <g transform="translate(39.474 61.726)"> <path class="st12" d="M-1075.8,2.3h-24.5c-0.6,0-1.1-0.5-1.1-1.1s0.5-1.1,1.1-1.1h24.5c0.6,0,1.1,0.5,1.1,1.1 C-1074.6,1.8-1075.2,2.3-1075.8,2.3z"></path> </g> <g transform="translate(32.412 38.584)"> <path class="st12" d="M-1055.6,2.3h-44.6c-0.6,0-1.1-0.5-1.1-1.1s0.5-1.1,1.1-1.1l0,0h44.6c0.6,0,1.1,0.5,1.1,1.1 S-1055,2.3-1055.6,2.3L-1055.6,2.3z"></path> </g> <g transform="translate(0 18.103)"> <path class="st12" d="M-1070.9,45.9h-26.3c-2.3,0-4.2-1.9-4.2-4.2V4.2c0-2.3,1.9-4.2,4.2-4.2h26.4c2.3,0,4.2,1.9,4.2,4.2v37.6 C-1066.7,44-1068.6,45.9-1070.9,45.9z M-1097.2,2.3c-1,0-1.9,0.8-1.9,1.9v37.6c0,1,0.8,1.9,1.9,1.9h26.4c1,0,1.9-0.8,1.9-1.9 V4.2c0-1-0.8-1.9-1.9-1.9L-1097.2,2.3z"></path> </g> <g transform="translate(77.038 25.505)"> <path class="st12" d="M-1082.9,38.5h-14.3c-2.3,0-4.2-1.9-4.2-4.2V4.2c0-2.3,1.9-4.2,4.2-4.2h14.3c2.3,0,4.2,1.9,4.2,4.2v30.2 C-1078.7,36.6-1080.6,38.5-1082.9,38.5z M-1097.2,2.3c-1,0-1.9,0.8-1.9,1.9v30.2c0,1,0.8,1.9,1.9,1.9h14.3c1,0,1.9-0.8,1.9-1.9 V4.2c0-1-0.8-1.9-1.9-1.9C-1082.9,2.3-1097.2,2.3-1097.2,2.3z"></path> </g> <g transform="translate(87.219 58.467)"> <path class="st12" d="M-1100.3,2.3c-0.6,0-1.1-0.5-1.1-1.1s0.5-1.1,1.1-1.1s1.1,0.5,1.1,1.1l0,0 C-1099.1,1.8-1099.6,2.3-1100.3,2.3z"></path> </g> <g transform="translate(16.044 57.613)"> <circle class="st12" cx="-1100.1" cy="1.3" r="1.3"></circle> </g> <g transform="translate(84.869 29.741)"> <path class="st12" d="M-1095.8,2.3h-4.4c-0.6,0-1.1-0.5-1.1-1.1s0.5-1.1,1.1-1.1h4.4c0.6,0,1.1,0.5,1.1,1.1 S-1095.2,2.3-1095.8,2.3L-1095.8,2.3z"></path> </g> <g transform="translate(77.248 55.327)"> <path class="st12" d="M-1080.3,2.3h-20c-0.6,0-1.1-0.5-1.1-1.1s0.5-1.1,1.1-1.1h20c0.6,0,1.1,0.5,1.1,1.1 S-1079.7,2.3-1080.3,2.3z"></path> </g> <g transform="translate(0.335 54.019)"> <path class="st12" d="M-1068.5,2.3h-31.7c-0.6,0-1.1-0.5-1.1-1.1s0.5-1.1,1.1-1.1l0,0h31.7c0.6,0,1.1,0.5,1.1,1.1 S-1067.9,2.3-1068.5,2.3z"></path> </g> </g> <line class="st6" x1="439.1" y1="697.5" x2="462.2" y2="697.5"></line> <line class="st6" x1="444.5" y1="708.2" x2="455.5" y2="708.2"></line> <line class="st6" x1="450" y1="717.2" x2="450" y2="717.2"></line> <line class="st6" x1="447.1" y1="712" x2="448.1" y2="713.8"></line> <line class="st6" x1="441.4" y1="701.8" x2="442.6" y2="704.4"></line> <path class="st7" d="M403,709.1h21.6c1.3,0,2.3,1,2.3,2.3v27.4l0,0h-26.3l0,0v-27.4C400.6,710.1,401.7,709.1,403,709.1z"></path> </g> <path class="st13" d="M-449.8,3269.7l-12.7,7.4l-0.5-14L-449.8,3269.7z"></path> <path class="st13" d="M-766.9,3254.9l-13.9,4.9l2.2-13.8L-766.9,3254.9z"></path> <path class="st13" d="M-137.9,3236.9l-11.7,8.9l-2.2-13.8L-137.9,3236.9z"></path> <path class="st14" d="M-803.8,3268.1c0,0,34.9,7,69.5,7.9"></path> <path class="st14" d="M-174.5,3228.4c0,0,35.4-3.5,68.8-12.8"></path> <circle class="st15" cx="-520.4" cy="3250" r="4"></circle> <circle class="st15" cx="-181.4" cy="3258" r="4"></circle> </g> </svg> 