<?xml version="1.0" encoding="UTF-8"?> <!-- Generator: Adobe Illustrator 24.1.0, SVG Export Plug-In . SVG Version: 6.00 Build 0) --> <svg xmlns="http://www.w3.org/2000/svg" xmlns:xlink="http://www.w3.org/1999/xlink" version="1.1" id="Layer_1" x="0px" y="0px" viewBox="0 0 98.7 99.6" style="enable-background:new 0 0 98.7 99.6;" xml:space="preserve"> <style type="text/css"> .st0{fill:#00F5BD;} .st1{fill:#0F1F40;} </style> <g id="Icon_2" transform="translate(-456 -3833)"> <circle id="Ellipse_63" class="st0" cx="505.3" cy="3882.8" r="48.5"></circle> <path id="Click_3_" class="st1" d="M501.8,3902.3c-0.1,0-0.1,0-0.2,0c-0.6-0.1-1-0.5-1.2-1l-8.8-29.2c-0.2-0.8,0.2-1.6,1-1.8 c0.3-0.1,0.6-0.1,0.8,0l29.2,8.8c0.8,0.2,1.2,1,1,1.8c-0.1,0.3-0.3,0.6-0.6,0.8l-7.3,4.9l7.5,7.5c0.6,0.6,0.6,1.5,0,2.1l0,0 l-5.8,5.8c-0.6,0.6-1.5,0.6-2.1,0l0,0l-7.5-7.5l-4.9,7.3C502.7,3902.1,502.2,3902.3,501.8,3902.3L501.8,3902.3z M507.6,3890.6 c0.4,0,0.8,0.2,1,0.4l7.7,7.7l3.8-3.8l-7.7-7.7c-0.6-0.6-0.6-1.5,0-2.1c0.1-0.1,0.1-0.1,0.2-0.2l6.2-4.1l-23.6-7.1l7.1,23.6 l4.1-6.2c0.2-0.4,0.6-0.6,1.1-0.6C507.5,3890.6,507.5,3890.6,507.6,3890.6L507.6,3890.6z M488.2,3866.8c0.6-0.6,0.6-1.5,0-2.1l0,0 l-2.9-2.9c-0.6-0.6-1.5-0.6-2.1,0s-0.6,1.5,0,2.1l2.9,2.9C486.7,3867.4,487.6,3867.4,488.2,3866.8L488.2,3866.8z M487.1,3871.6 c0-0.8-0.7-1.5-1.5-1.5l0,0h-4.4c-0.8,0-1.5,0.6-1.5,1.4c0,0.8,0.6,1.5,1.4,1.5h0.1h4.4C486.5,3873.1,487.1,3872.4,487.1,3871.6z M485.3,3881.4l2.9-2.9c0.6-0.6,0.6-1.5,0-2.1s-1.5-0.6-2.1,0l-2.9,2.9c-0.6,0.6-0.6,1.5,0,2.1S484.7,3882,485.3,3881.4z M499.9,3866.8l2.9-2.9c0.6-0.6,0.6-1.5,0-2.1s-1.5-0.6-2.1,0l0,0l-2.9,2.9c-0.6,0.6-0.6,1.5,0,2.1 C498.4,3867.4,499.3,3867.4,499.9,3866.8L499.9,3866.8z M494.4,3864.3v-4.4c0-0.8-0.6-1.5-1.4-1.5s-1.5,0.6-1.5,1.4v0.1v4.4 c0,0.8,0.6,1.5,1.4,1.5S494.4,3865.2,494.4,3864.3C494.4,3864.4,494.4,3864.4,494.4,3864.3L494.4,3864.3z"></path> </g> </svg> 