<?xml version="1.0" encoding="UTF-8"?> <!-- Generator: Adobe Illustrator 24.1.0, SVG Export Plug-In . SVG Version: 6.00 Build 0) --> <svg xmlns="http://www.w3.org/2000/svg" xmlns:xlink="http://www.w3.org/1999/xlink" version="1.1" id="Layer_1" x="0px" y="0px" viewBox="0 0 98.7 99.6" style="enable-background:new 0 0 98.7 99.6;" xml:space="preserve"> <style type="text/css"> .st0{fill:#03F0FF;} .st1{fill:#0F1F40;} </style> <circle id="Ellipse_65" class="st0" cx="49.3" cy="49.8" r="48.5"></circle> <g id="Group_108" transform="translate(-531.714 -936.039)"> <g id="Group_105" transform="translate(531.714 936.039)"> <g id="Group_104"> <path id="Path_185" class="st1" d="M78.1,31H20.6c-0.5,0-1,0.4-1,0.9c0,0,0,0,0,0.1v31.8c0,0.5,0.4,1,0.9,1c0,0,0,0,0.1,0h19.8v2 h-4c-0.5,0-1,0.4-1,1s0.4,1,1,1h25.8c0.5,0,1-0.4,1-1s-0.4-1-1-1h-3v-2h18.8c0.5,0,1-0.4,1-0.9c0,0,0,0,0-0.1V31.9 C79.2,31.4,78.7,31,78.1,31C78.2,31,78.2,31,78.1,31z M57.3,66.7H42.4v-2h14.9L57.3,66.7z M77.2,62.7H21.5V32.9h55.6L77.2,62.7z"></path> </g> </g> <g id="Group_106" transform="translate(553.623 947.292)"> <path id="Path_186" class="st1" d="M35.1,34.1c-4.2-4.2-11-4.2-15.2,0l0,0c-0.4,0.5-0.4,1.2,0,1.6c0.4,0.4,1.1,0.4,1.6,0 c3.3-3.3,8.7-3.3,12,0l0,0c0.2,0.2,0.5,0.3,0.8,0.3c0.6,0,1.1-0.5,1.2-1.1c0,0,0,0,0-0.1C35.4,34.6,35.3,34.3,35.1,34.1z"></path> </g> <g id="Group_107" transform="translate(556.997 952.168)"> <path id="Path_187" class="st1" d="M28.3,32.7c-2.3-2.3-6.1-2.3-8.4,0c-0.4,0.5-0.4,1.2,0,1.6c0.4,0.4,1.1,0.4,1.6,0 c1.4-1.4,3.7-1.4,5.2,0c0.5,0.4,1.2,0.4,1.6,0C28.7,33.9,28.7,33.1,28.3,32.7z"></path> </g> <circle id="Ellipse_114" class="st1" cx="581.1" cy="989.4" r="1.3"></circle> </g> </svg> 