<?xml version="1.0" encoding="UTF-8"?> <!-- Generator: Adobe Illustrator 24.1.0, SVG Export Plug-In . SVG Version: 6.00 Build 0) --> <svg xmlns="http://www.w3.org/2000/svg" xmlns:xlink="http://www.w3.org/1999/xlink" version="1.1" id="Layer_1" x="0px" y="0px" viewBox="0 0 98.7 99.6" style="enable-background:new 0 0 98.7 99.6;" xml:space="preserve"> <style type="text/css"> .st0{fill:#03F0FF;} .st1{fill:#0F1F40;} .st2{fill:none;stroke:#0F1F40;stroke-width:1.937;stroke-linecap:round;stroke-linejoin:round;} </style> <circle id="Ellipse_65" class="st0" cx="49.3" cy="49.8" r="48.5"></circle> <g id="Group_137" transform="translate(-834.845 -458.63)"> <g id="Group_136" transform="translate(835.816 459.599)"> <g id="Group_135"> <path id="Path_203" class="st2" d="M20.8,25.6h55.1c0.6,0,1.2,0.5,1.2,1.2v44.2c0,0.6-0.5,1.2-1.2,1.2H20.8 c-0.6,0-1.2-0.5-1.2-1.2V26.8c0-0.6,0.4-1.1,1-1.2C20.7,25.6,20.8,25.6,20.8,25.6z"></path> <line id="Line_50" class="st2" x1="77.1" y1="36.6" x2="20" y2="36.6"></line> </g> </g> <circle id="Ellipse_118" class="st2" cx="861.4" cy="491.2" r="1.8"></circle> <circle id="Ellipse_119" class="st2" cx="868.1" cy="491.2" r="1.8"></circle> <path id="Path_204" class="st1" d="M873.3,519.6c5.1,0,9.2-4.1,9.2-9.2c0-5.1-4.1-9.2-9.2-9.2c-5.1,0-9.2,4.1-9.2,9.2c0,0,0,0,0,0 C864,515.4,868.2,519.6,873.3,519.6z M880.8,509.5h-5.1c-0.3-0.7-0.8-1.3-1.5-1.5v-5.1C877.6,503.2,880.4,506,880.8,509.5 L880.8,509.5z M873.3,509.5c0.5,0,0.8,0.4,0.8,0.8s-0.4,0.8-0.8,0.8s-0.8-0.4-0.8-0.8C872.4,509.9,872.8,509.5,873.3,509.5 C873.3,509.5,873.3,509.5,873.3,509.5L873.3,509.5z M872.4,502.8v5.1c-1.3,0.5-2,1.9-1.5,3.2c0.5,1.3,1.9,2,3.2,1.5 c0.7-0.3,1.3-0.8,1.5-1.5h5.1c-0.5,4.2-4.2,7.1-8.4,6.7c-4.2-0.5-7.1-4.2-6.7-8.4C866.2,506,868.9,503.2,872.4,502.8L872.4,502.8z"></path> <path id="Path_205" class="st1" d="M877.4,523c0.5,0,0.9-0.3,0.9-0.8c0-0.5-0.3-0.9-0.8-0.9c0,0,0,0-0.1,0h-7.5 c-0.5,0-0.8,0.4-0.8,0.9c0,0.4,0.4,0.8,0.8,0.8H877.4z"></path> <path id="Path_206" class="st1" d="M880,524.7h-12.6c-0.5,0-0.8,0.4-0.8,0.8s0.4,0.8,0.8,0.8c0,0,0,0,0,0H880 c0.5,0,0.8-0.4,0.8-0.8S880.4,524.7,880,524.7C880,524.7,880,524.7,880,524.7z"></path> <path id="Path_207" class="st1" d="M899.3,523c0.5,0,0.9-0.3,0.9-0.8c0-0.5-0.3-0.9-0.8-0.9c0,0,0,0-0.1,0h-7.5 c-0.5,0-0.8,0.4-0.8,0.9c0,0.4,0.4,0.8,0.8,0.8H899.3z"></path> <path id="Path_208" class="st1" d="M901.8,524.6h-12.6c-0.5,0-0.9,0.3-0.9,0.8c0,0.5,0.3,0.9,0.8,0.9c0,0,0,0,0.1,0h12.6 c0.5,0,0.8-0.4,0.8-0.9C902.6,525,902.3,524.7,901.8,524.6L901.8,524.6z"></path> <path id="Path_209" class="st1" d="M888.4,519.6h15.1c0.5,0,0.9-0.3,0.9-0.8c0-0.5-0.3-0.9-0.8-0.9c0,0,0,0-0.1,0h-0.8v-9.2 c0-0.5-0.4-0.8-0.8-0.8s-0.8,0.4-0.8,0.8c0,0,0,0,0,0v9.2h-1.7v-3.4c0-0.5-0.4-0.8-0.9-0.8c-0.4,0-0.8,0.4-0.8,0.8v3.4H896v-12.6 c0-0.5-0.4-0.8-0.8-0.8s-0.8,0.4-0.8,0.8c0,0,0,0,0,0v12.6h-1.7v-7.6c0-0.5-0.4-0.8-0.9-0.8c-0.4,0-0.8,0.4-0.8,0.8v7.6h-1.7v-16 c0-0.5-0.4-0.8-0.9-0.8c-0.4,0-0.8,0.4-0.8,0.8v16.8C887.5,519.2,887.9,519.6,888.4,519.6C888.4,519.6,888.4,519.6,888.4,519.6z"></path> </g> </svg> 