<?xml version="1.0" encoding="UTF-8"?> <!-- Generator: Adobe Illustrator 24.1.0, SVG Export Plug-In . SVG Version: 6.00 Build 0) --> <svg xmlns="http://www.w3.org/2000/svg" xmlns:xlink="http://www.w3.org/1999/xlink" version="1.1" id="Layer_1" x="0px" y="0px" viewBox="0 0 98.7 99.6" style="enable-background:new 0 0 98.7 99.6;" xml:space="preserve"> <style type="text/css"> .st0{fill:#03F0FF;} .st1{fill:#0F1F40;} .st2{fill:none;stroke:#0F1F40;stroke-width:1.937;stroke-linecap:round;stroke-linejoin:round;} </style> <circle id="Ellipse_65" class="st0" cx="49.3" cy="49.8" r="48.5"></circle> <g id="Group_134" transform="translate(-787.729 -356.952)"> <g id="Group_125" transform="translate(788.7 357.92)"> <g id="Group_124"> <path id="Path_194" class="st2" d="M21,25.7h54.7c0.6,0,1.2,0.5,1.2,1.2v43.8c0,0.6-0.5,1.2-1.2,1.2H21c-0.6,0-1.2-0.5-1.2-1.2 V26.9c0-0.6,0.4-1.1,1-1.2C20.9,25.7,21,25.7,21,25.7z"></path> <line id="Line_49" class="st2" x1="76.9" y1="36.7" x2="20.2" y2="36.7"></line> </g> <path id="Path_195" class="st2" d="M64.4,41.7h5.5v4.7"></path> <path id="Path_196" class="st2" d="M69.5,62.5v5.4h-4.8"></path> <path id="Path_197" class="st2" d="M32.3,41.7h-5.5v4.7"></path> <path id="Path_198" class="st2" d="M27.1,62.5v5.4h4.8"></path> </g> <circle id="Ellipse_115" class="st2" cx="814.4" cy="389.6" r="1.8"></circle> <circle id="Ellipse_116" class="st2" cx="821.1" cy="389.6" r="1.8"></circle> <g id="Group_127" transform="translate(810.38 385.021)"> <g id="Group_126"> <path id="Path_199" class="st1" d="M27.5,29.2c-0.3,0-0.6,0.3-0.6,0.6l0,0c0,1.6-1.3,2.9-2.9,2.9c-1.6,0-2.9-1.3-2.9-2.9 S22.4,27,24,27c0,0,0,0,0,0c0.3,0,0.6-0.3,0.6-0.6c0-0.3-0.3-0.6-0.6-0.6c-2.3,0-4.1,1.8-4.1,4.1c0,2.3,1.8,4.1,4.1,4.1 c2.3,0,4.1-1.8,4.1-4.1c0,0,0,0,0,0C28.1,29.5,27.8,29.2,27.5,29.2C27.5,29.2,27.5,29.2,27.5,29.2z"></path> </g> </g> <g id="Group_129" transform="translate(805.273 380.736)"> <g id="Group_128"> <path id="Path_200" class="st1" d="M37.5,35.6c-0.1-0.3-0.4-0.6-0.7-0.5l-1.3,0.2c-0.2,0-0.4,0.2-0.5,0.4c-0.1,0.5-0.3,1-0.6,1.5 c-0.1,0.2-0.1,0.5,0,0.7l0.8,1.1c0.1,0.1,0.1,0.4,0,0.5l-0.8,0.8c-0.1,0.1-0.3,0.1-0.5,0l-1.1-0.8c-0.2-0.1-0.5-0.2-0.7,0 c-0.5,0.3-0.9,0.5-1.5,0.6c-0.2,0.1-0.4,0.3-0.4,0.5L30,41.8c0,0.2-0.2,0.3-0.4,0.3h-1.1c-0.2,0-0.3-0.1-0.4-0.3l-0.2-1.3 c0-0.2-0.2-0.4-0.4-0.5c-0.5-0.1-1-0.3-1.5-0.6c-0.2-0.1-0.5-0.1-0.7,0l-1.1,0.8c-0.1,0.1-0.4,0.1-0.5,0L23,39.4 c-0.1-0.1-0.1-0.3,0-0.5l0.8-1.1c0.1-0.2,0.1-0.5,0-0.7c-0.3-0.5-0.5-0.9-0.6-1.5c-0.1-0.2-0.3-0.4-0.5-0.4l-1.3-0.2 c-0.2,0-0.3-0.2-0.3-0.4v-1.1c0-0.2,0.1-0.3,0.3-0.4l1.3-0.2c0.2,0,0.4-0.2,0.5-0.4c0.1-0.5,0.3-1,0.6-1.5c0.1-0.2,0.1-0.5,0-0.7 L23,29.4c-0.1-0.1-0.1-0.4,0-0.5l0.8-0.8c0.1-0.1,0.3-0.1,0.5,0l1.1,0.8c0.2,0.1,0.5,0.2,0.7,0c0.5-0.3,0.9-0.5,1.5-0.6 c0.2-0.1,0.4-0.3,0.4-0.5l0.2-1.3c0.1-0.3-0.2-0.7-0.5-0.7c-0.3-0.1-0.7,0.2-0.7,0.5l-0.2,0.9c-0.4,0.1-0.7,0.3-1,0.4L25,27.1 c-0.6-0.4-1.5-0.4-2.1,0.2L22.1,28c-0.6,0.6-0.6,1.4-0.2,2.1l0.5,0.8c-0.2,0.3-0.3,0.7-0.4,1L21.2,32c-0.8,0.1-1.3,0.8-1.3,1.6 v1.1c0,0.8,0.6,1.4,1.3,1.6l0.9,0.2c0.1,0.4,0.3,0.7,0.4,1L22,38.2c-0.4,0.6-0.4,1.5,0.2,2.1l0.8,0.8c0.6,0.6,1.4,0.6,2.1,0.2 l0.8-0.5c0.3,0.2,0.7,0.3,1,0.4l0.2,0.9c0.1,0.8,0.8,1.3,1.6,1.3h1.1c0.8,0,1.5-0.6,1.6-1.3l0.2-0.9c0.4-0.1,0.7-0.3,1-0.4 l0.8,0.5c0.6,0.4,1.5,0.4,2.1-0.2l0.8-0.8c0.6-0.6,0.6-1.4,0.2-2.1l-0.5-0.8c0.2-0.3,0.3-0.7,0.4-1l0.9-0.2 C37.3,36.2,37.5,35.9,37.5,35.6C37.5,35.6,37.5,35.6,37.5,35.6z"></path> </g> </g> <g id="Group_131" transform="translate(814.74 374.097)"> <g id="Group_130"> <path id="Path_201" class="st1" d="M33.5,31.3l-0.6-0.1c-0.1-0.2-0.2-0.5-0.3-0.7l0.4-0.5c0.4-0.6,0.3-1.3-0.2-1.8l-0.6-0.6 c-0.5-0.5-1.2-0.5-1.8-0.2l-0.5,0.4c-0.2-0.1-0.4-0.2-0.7-0.3L29,26.9c-0.1-0.7-0.7-1.2-1.4-1.2h-0.9c-0.7,0-1.3,0.5-1.4,1.2 l-0.1,0.6c-0.2,0.1-0.5,0.2-0.7,0.3l-0.5-0.4c-0.6-0.4-1.3-0.3-1.8,0.2l-0.6,0.6c-0.5,0.5-0.5,1.2-0.2,1.8l0.4,0.5 c-0.1,0.2-0.2,0.4-0.3,0.7L21,31.3c-0.7,0.1-1.2,0.7-1.2,1.4v0.9c0,0.7,0.5,1.3,1.2,1.4l0.6,0.1c0.1,0.2,0.2,0.5,0.3,0.7 l-0.4,0.5c-0.4,0.6-0.3,1.3,0.2,1.8l0.6,0.6c0.5,0.5,1.2,0.5,1.8,0.2l0.5-0.4c0.2,0.1,0.4,0.2,0.7,0.3l0.1,0.6 c0.1,0.7,0.7,1.2,1.4,1.2h0.9c0.7,0,1.3-0.5,1.4-1.2l0.1-0.6c0.2-0.1,0.5-0.2,0.7-0.3l0.5,0.4c0.6,0.4,1.3,0.3,1.8-0.2l0.6-0.6 c0.5-0.5,0.5-1.2,0.2-1.8l-0.4-0.5c0.1-0.2,0.2-0.4,0.3-0.7l0.6-0.1c0.7-0.1,1.2-0.7,1.2-1.4v-0.9C34.6,32,34.2,31.4,33.5,31.3z M33.4,33.6c0,0.1-0.1,0.1-0.1,0.2l-1,0.2c-0.2,0-0.4,0.2-0.5,0.4c-0.1,0.4-0.3,0.8-0.5,1.1c-0.1,0.2-0.1,0.5,0,0.7l0.6,0.8 c0,0.1,0,0.2,0,0.2l-0.6,0.6c-0.1,0.1-0.1,0.1-0.2,0l-0.8-0.6c-0.2-0.1-0.5-0.2-0.7,0c-0.4,0.2-0.7,0.4-1.1,0.5 c-0.2,0.1-0.4,0.3-0.4,0.5l-0.2,1c0,0.1-0.1,0.1-0.2,0.1h-0.9c-0.1,0-0.1-0.1-0.2-0.1l-0.2-1c0-0.2-0.2-0.4-0.4-0.5 c-0.4-0.1-0.8-0.3-1.1-0.5c-0.2-0.1-0.5-0.1-0.7,0l-0.8,0.6c-0.1,0-0.2,0-0.2,0l-0.6-0.6c-0.1-0.1-0.1-0.1,0-0.2l0.6-0.8 c0.1-0.2,0.2-0.5,0-0.7c-0.2-0.4-0.4-0.7-0.5-1.1c-0.1-0.2-0.3-0.4-0.5-0.4l-1-0.2c-0.1,0-0.1-0.1-0.1-0.2v-0.9 c0-0.1,0.1-0.1,0.1-0.2l1-0.2c0.2,0,0.4-0.2,0.5-0.4c0.1-0.4,0.3-0.8,0.5-1.1c0.1-0.2,0.1-0.5,0-0.7l-0.6-0.8c0-0.1,0-0.2,0-0.2 l0.6-0.6c0.1-0.1,0.1-0.1,0.2,0l0.8,0.6c0.2,0.1,0.5,0.1,0.7,0c0.4-0.2,0.7-0.4,1.1-0.5c0.2-0.1,0.4-0.3,0.4-0.5l0.2-1 c0-0.1,0.1-0.1,0.2-0.1h0.9c0.1,0,0.1,0.1,0.2,0.1l0.2,1c0,0.2,0.2,0.4,0.4,0.5c0.4,0.1,0.8,0.3,1.1,0.5c0.2,0.1,0.5,0.1,0.7,0 l0.8-0.6c0.1,0,0.2,0,0.2,0l0.6,0.6c0.1,0.1,0.1,0.1,0,0.2l-0.6,0.8c-0.1,0.2-0.1,0.5,0,0.7c0.2,0.4,0.4,0.7,0.5,1.1 c0.1,0.2,0.3,0.4,0.5,0.4l1,0.2c0.1,0,0.1,0.1,0.1,0.2L33.4,33.6L33.4,33.6z"></path> </g> </g> <g id="Group_133" transform="translate(819.199 378.555)"> <g id="Group_132"> <path id="Path_202" class="st1" d="M22.8,25.7c-1.6,0-2.9,1.3-2.9,2.9s1.3,2.9,2.9,2.9c1.6,0,2.9-1.3,2.9-2.9 S24.4,25.7,22.8,25.7L22.8,25.7z M22.8,30.4c-0.9,0-1.7-0.8-1.7-1.7c0-0.9,0.8-1.7,1.7-1.7l0,0c0.9,0,1.7,0.8,1.7,1.7 S23.7,30.4,22.8,30.4L22.8,30.4z"></path> </g> </g> </g> </svg> 