<?xml version="1.0" encoding="UTF-8"?> <!-- Generator: Adobe Illustrator 24.1.0, SVG Export Plug-In . SVG Version: 6.00 Build 0) --> <svg xmlns="http://www.w3.org/2000/svg" xmlns:xlink="http://www.w3.org/1999/xlink" version="1.1" id="Layer_1" x="0px" y="0px" viewBox="0 0 98.7 99.6" style="enable-background:new 0 0 98.7 99.6;" xml:space="preserve"> <style type="text/css"> .st0{fill:#03F0FF;} .st1{fill:#0F1F40;} </style> <circle id="Ellipse_65" class="st0" cx="49.3" cy="49.8" r="48.5"></circle> <g id="Group_123" transform="translate(-390.814 -919.039)"> <g id="Group_110"> <g id="Group_109"> <rect id="Rectangle_103" x="424.7" y="944.4" class="st1" width="28.1" height="1.9"></rect> </g> </g> <g id="Group_112"> <g id="Group_111"> <path id="Path_188" class="st1" d="M459.2,976.1c0-1.9-1.5-3.4-3.3-3.4c0,0,0,0-0.1,0h-1.9v-16.6l-1.9-1.9v18.5h-2.4 c-1.9,0-3.4,1.5-3.4,3.3c0,0,0,0,0,0.1c0,0.9,0.4,1.8,1,2.4c-0.6,0.6-1,1.5-1,2.4c0,0.6,0.2,1.3,0.5,1.8c-1.2,0.5-2,1.8-2,3.1 c0,0.5,0.1,1,0.3,1.5h-7.7c0-2.9-1.4-5.6-3.8-7.2c2.3-0.9,3.8-3.1,3.8-5.5c0-0.6-0.4-1-1-1h-7.8V959l-1.9,1.1v13.5 c-1.6,0-2.9,1.3-2.9,2.9l0,0v21.4h1.9v-21.4c0-0.6,0.4-1,1-1h8.7c-0.4,1.7-2,2.9-3.8,2.9h-2.9c-0.6,0-1,0.4-1,1s0.4,1,1,1 c3.8,0,6.8,3,6.8,6.8v1c0,0.6,0.4,1,1,1h5.7c-0.8,1.8,0,3.8,1.8,4.6c0.4,0.2,0.9,0.3,1.3,0.3v3.9h1.9v-3.9h4.4 c1.9,0,3.4-1.5,3.4-3.3c0,0,0,0,0-0.1c0-0.5-0.1-1-0.3-1.5c1.8-0.1,3.3-1.6,3.3-3.4c0-0.6-0.2-1.3-0.5-1.8 c1.7-0.8,2.5-2.8,1.7-4.5c-0.2-0.4-0.4-0.7-0.7-1C458.9,977.8,459.1,977,459.2,976.1z M451.4,992.2H445c-0.8,0-1.5-0.7-1.5-1.5 s0.7-1.5,1.5-1.5h6.3c0.8,0,1.5,0.7,1.5,1.5C452.8,991.5,452.2,992.2,451.4,992.2L451.4,992.2z M454.3,987.3H448 c-0.8,0-1.5-0.7-1.5-1.5s0.7-1.5,1.5-1.5h6.4c0.8,0,1.5,0.7,1.5,1.5C455.8,986.7,455.1,987.3,454.3,987.3L454.3,987.3z M455.8,982.4h-6.4c-0.8,0-1.5-0.7-1.5-1.5s0.7-1.5,1.5-1.5h6.3c0.8,0,1.5,0.7,1.5,1.5c0.1,0.8-0.5,1.4-1.3,1.5 C455.8,982.4,455.8,982.4,455.8,982.4L455.8,982.4z M455.8,977.6h-6.3c-0.8,0-1.5-0.7-1.5-1.5s0.7-1.5,1.5-1.5h6.3 c0.8,0,1.5,0.7,1.5,1.5C457.2,976.9,456.6,977.6,455.8,977.6L455.8,977.6z"></path> </g> </g> <g id="Group_114"> <g id="Group_113"> <path id="Path_189" class="st1" d="M425.5,952c0-0.3-0.2-0.5-0.4-0.7l-1-0.8c-0.2-1.3-1.3-2.2-2.6-2.2c-1.4,0-2.6,1.2-2.7,2.6 c-0.8-0.1-1.6-0.4-2.2-0.9l-0.3-0.2c-0.3-0.2-0.7-0.2-1-0.1c-0.3,0.2-0.5,0.5-0.5,0.9v0.8c0,1.1,0.4,2.3,1,3.2l-0.7,0.7 c-0.3,0.3-0.4,0.7-0.2,1.1c0.1,0.4,0.5,0.6,0.9,0.6h4.7c1.9,0,3.5-1.4,3.7-3.3l1.1-1.1C425.5,952.5,425.6,952.3,425.5,952z M422.5,952.7c-0.2,0.2-0.3,0.4-0.3,0.7c0,1-0.7,1.8-1.7,1.8H418c0.2-0.4,0.1-0.8-0.2-1.1c-0.5-0.4-0.8-1-0.9-1.7 c0.9,0.4,2,0.6,3,0.6c0.6,0,1-0.4,1-1v-1c0-0.4,0.3-0.7,0.7-0.7c0.4,0,0.7,0.3,0.7,0.7c0,0,0,0,0,0c0,0.3,0.1,0.6,0.4,0.8 l0.5,0.4L422.5,952.7z"></path> </g> </g> <g id="Group_116"> <g id="Group_115"> <path id="Path_190" class="st1" d="M443.1,956.1v-1.9h-2.9c-0.6,0-1,0.4-1,1v2.9h-1.9v1.9h1.9v3.9h1.9V960h1.9v-1.9h-1.9v-1.9 L443.1,956.1L443.1,956.1z"></path> </g> </g> <g id="Group_118"> <g id="Group_117"> <path id="Path_191" class="st1" d="M446,950.3h-11.7c-1.6,0-2.9,1.3-2.9,2.9l0,0v11.7c0,1.6,1.3,2.9,2.9,2.9c0,0,0,0,0,0H446 c1.6,0,2.9-1.3,2.9-2.9l0,0v-11.7C448.9,951.6,447.6,950.3,446,950.3C446,950.3,446,950.3,446,950.3z M447,964.9c0,0.6-0.4,1-1,1 h-11.7c-0.6,0-1-0.4-1-1v-11.7c0-0.6,0.4-1,1-1H446c0.6,0,1,0.4,1,1V964.9z"></path> </g> </g> <g id="Group_120"> <g id="Group_119"> <path id="Path_192" class="st1" d="M425.6,944.4h-11.7c-1.6,0-2.9,1.3-2.9,2.9l0,0V959c0,1.6,1.3,2.9,2.9,2.9c0,0,0,0,0,0h11.7 c1.6,0,2.9-1.3,2.9-2.9l0,0v-11.7C428.5,945.7,427.2,944.4,425.6,944.4C425.6,944.4,425.6,944.4,425.6,944.4z M426.5,959 c0,0.6-0.4,1-1,1h-11.7c-0.6,0-1-0.4-1-1v-11.7c0-0.6,0.4-1,1-1h11.7c0.6,0,1,0.4,1,1V959z"></path> </g> </g> <g id="Group_122"> <g id="Group_121"> <path id="Path_193" class="st1" d="M466.5,939.6h-11.7c-1.6,0-2.9,1.3-2.9,2.9l0,0v11.7c0,1.6,1.3,2.9,2.9,2.9c0,0,0,0,0,0h11.7 c1.6,0,2.9-1.3,2.9-2.9l0,0v-11.7C469.4,940.9,468.1,939.6,466.5,939.6C466.5,939.6,466.5,939.6,466.5,939.6z M467.5,954.2 c0,0.6-0.4,1-1,1h-11.7c-0.6,0-1-0.4-1-1v-4.9h2c0.5,2.7,3.1,4.4,5.8,3.8c1.9-0.4,3.4-1.9,3.8-3.8h2v4.9H467.5z M457.7,948.3 c0-1.6,1.3-2.9,2.9-2.9s2.9,1.3,2.9,2.9c0,1.6-1.3,2.9-2.9,2.9S457.7,949.9,457.7,948.3L457.7,948.3z M467.5,947.3h-2 c-0.5-2.7-3.1-4.4-5.8-3.8c-1.9,0.4-3.4,1.9-3.8,3.8h-2v-4.9c0-0.6,0.4-1,1-1h11.7c0.6,0,1,0.4,1,1v4.9H467.5z"></path> </g> </g> </g> </svg> 