<?xml version="1.0" encoding="UTF-8"?> <!-- Generator: Adobe Illustrator 24.1.0, SVG Export Plug-In . SVG Version: 6.00 Build 0) --> <svg xmlns="http://www.w3.org/2000/svg" xmlns:xlink="http://www.w3.org/1999/xlink" version="1.1" id="Layer_1" x="0px" y="0px" viewBox="0 0 240.8 243.4" style="enable-background:new 0 0 240.8 243.4;" xml:space="preserve"> <style type="text/css"> .st0{fill:none;stroke:#FFFFFF;stroke-miterlimit:10;} .st1{fill:none;stroke:#FFFFFF;stroke-width:4;} .st2{fill:none;stroke:#FFFFFF;stroke-width:3.3169;stroke-linecap:round;stroke-linejoin:round;stroke-miterlimit:10;} .st3{fill:#FFFFFF;} </style> <g id="Ellipse_4"> <circle class="st0" cx="120.4" cy="121.7" r="116.5"></circle> <circle class="st1" cx="120.4" cy="121.7" r="114.5"></circle> </g> <g> <circle class="st2" cx="119.5" cy="125.8" r="23.9"></circle> <g> <path class="st3" d="M154.4,141.1l-33,33.9c-1,1.1-2.7,1.1-3.8,0L69,125.1c-11-11.3-11-29.6,0-41c5.4-5.5,12.4-8.4,19.9-8.4 c7.5,0,14.6,3.1,19.9,8.4l7.3,7.6c1.8,1.8,4.9,1.8,6.6,0l7.3-7.6c5.4-5.5,12.4-8.4,19.9-8.4c7.6,0,14.6,3.1,19.9,8.4 c11,11.3,11,29.6,0,41l-9.7,9.9L154.4,141.1z M162.9,137.6l9.7-9.9c12.4-12.7,12.4-33.4,0-46l0,0c-6-6.1-14.1-9.5-22.5-9.5 c-8.4,0-16.5,3.3-22.5,9.4l-7.3,7.6c-0.4,0.4-1,0.4-1.5,0l-7.3-7.6c-6-6.1-14.1-9.5-22.5-9.5c-8.6,0-16.5,3.4-22.5,9.5 c-12.4,12.7-12.4,33.4,0,46l48.7,49.9c2.4,2.4,6.6,2.6,8.9,0l33-33.9L162.9,137.6z M121.7,109.6h-4.4c-1.8,0-3.3,1.5-3.3,3.3v7.3 h-7.3c-1.8,0-3.3,1.5-3.3,3.3v4.4c0,1.8,1.5,3.3,3.3,3.3h7.3v7.3c0,1.8,1.5,3.3,3.3,3.3h4.4c1.8,0,3.3-1.5,3.3-3.3v-7.3h7.3 c1.8,0,3.3-1.5,3.3-3.3v-4.4c0-1.8-1.5-3.3-3.3-3.3H125v-7.3C125,111,123.4,109.6,121.7,109.6L121.7,109.6z M131.9,123.9v3.7h-8.1 c-1.5,0-2.6,1.1-2.6,2.6v8.1h-3.7v-8.1c0-1.5-1.1-2.6-2.6-2.6h-8.1v-3.7h8.1c1.5,0,2.6-1.1,2.6-2.6v-8.1h3.7v8.1 c0,1.5,1.1,2.6,2.6,2.6H131.9z"></path> </g> </g> </svg> 