<?xml version="1.0" encoding="UTF-8"?> <!-- Generator: Adobe Illustrator 24.1.0, SVG Export Plug-In . SVG Version: 6.00 Build 0) --> <svg xmlns="http://www.w3.org/2000/svg" xmlns:xlink="http://www.w3.org/1999/xlink" version="1.1" id="Layer_1" x="0px" y="0px" viewBox="0 0 240.8 243.4" style="enable-background:new 0 0 240.8 243.4;" xml:space="preserve"> <style type="text/css"> .st0{fill:none;} .st1{fill:none;stroke:#FFFFFF;stroke-width:4;} .st2{fill:#FFFFFF;} </style> <g id="Ellipse_4"> <circle class="st0" cx="120.4" cy="121.7" r="116.5"></circle> <circle class="st1" cx="120.4" cy="121.7" r="114.5"></circle> </g> <g id="Growth" transform="translate(-5303.664 -6795)"> <g id="Group_8" transform="translate(5343.837 6840.787)"> <g id="Group_7"> <path id="Path_25" class="st2" d="M79.8,54.7c-5.8,0-10.5,4.7-10.5,10.5S74,75.8,79.8,75.8s10.5-4.7,10.5-10.5 C90.3,59.4,85.6,54.7,79.8,54.7z M79.8,72c-3.7,0-6.7-3-6.7-6.7s3-6.7,6.7-6.7s6.7,3,6.7,6.7l0,0C86.5,69,83.5,72,79.8,72 L79.8,72z"></path> </g> </g> <g id="Group_10" transform="translate(5303.664 6795)"> <g id="Group_9"> <path id="Path_26" class="st2" d="M99,184.6c14.1,0,13.2,0,13.4,0c0.6,0.1,14.3,0.1,15,0c0.3,0.1-2.1,0,39.7,0c0.9,0,3.5,0,4.3-2 c0.6-1.7-0.6-3.5-1.8-4.4c-12.9-9.9-23.1-28.9-29.5-54.7c12-17.3,11.6-16.5,11.6-18.3c0-2.9-2.3-5.3-5.2-5.3 c-0.7,0-1.4,0.1-2.1,0.4c-1.4,0.5-1.4,0.5-7.4,9.2c-1.3-7.5-2.2-14.2-2.7-19.1h12.2c2.5,0,4.5-2,4.5-4.5c0-1.2-0.5-2.3-1.3-3.2 l-11.3-11.3l-6.3-6.3L123,56c-1.8-1.8-4.6-1.8-6.3,0l0,0L90.2,82.7c-1.8,1.8-1.7,4.6,0,6.4c0.8,0.8,2,1.3,3.2,1.3h12.2 c-0.5,4.9-1.3,11.6-2.7,19.1l-5.1-7.4c-1.6-2.4-4.9-3-7.3-1.4s-3,4.9-1.4,7.3l0,0l10.7,15.4c-10.3,41.8-26.6,51.7-28.8,54.1 c-3.1,3.2-2.3,7,2.9,7L99,184.6L99,184.6z M90.2,180.8h-0.9c-16.6,0-15.5,0-15.9,0c1.5-2.1,18.4-12.1,29.3-53.1l3.2,4.6 c1.5,2.7,2.4,5.8,2.5,8.9c0,41.5,0,39,0.1,39.6L90.2,180.8L90.2,180.8z M135.8,74.1c12.2,12.2,11.7,11.5,11.4,12 c-0.1,0.3-0.4,0.4-0.6,0.4h-14.3c-1,0-1.9,0.8-1.9,1.9c0,0.1,0,0.1,0,0.2c0.8,8.5,2,16.9,3.6,25.3c-1.8,2.6-3.4,4.9-5.5,8 c-1.1,1.3-2.7,2-4.3,2c-9.2,0-8.9,0-9.8-0.1c-1.2-0.2-2.2-0.9-3-1.8l-5.5-8c1.6-8.4,2.8-16.8,3.6-25.3c0.1-1-0.7-2-1.7-2.1 c-0.1,0-0.1,0-0.2,0c-15.3,0-14.7,0.2-14.9-0.4c-0.3-0.6-1.7,1.1,26.8-27.4c0.3-0.3,0.7-0.3,1,0l9.1,9.1L135.8,74.1z M127.7,141.1v38.7c0,0.6-0.4,1-1,1h-4.8v-25.3c0-1.1-0.9-1.9-1.9-1.9c-1.1,0-1.9,0.9-1.9,1.9v25.3h-4.8c-0.6,0-1-0.4-1-1v-38.7 c-0.1-3.9-1.2-7.7-3.1-11c-18.1-26.1-17.1-24.5-17-25.3s0.9-1.3,1.7-1.1c0.4,0.1,0.7,0.3,0.9,0.6l13.7,19.8 c1.8,2.3,4.5,3.6,7.4,3.5h8.4c2.9,0.1,5.7-1.3,7.4-3.6c10-14.4,13.3-19.5,14.1-20.2c0.7-0.4,1.6-0.1,2,0.6 c0.2,0.3,0.2,0.6,0.2,0.9l0,0c-0.5,1.1-4.6,6.8-17,24.8C128.9,133.5,127.8,137.3,127.7,141.1L127.7,141.1z M131.5,180.8 c0.1-0.6,0.1,1.9,0.1-39.6c0.1-3.1,1-6.2,2.5-8.9c1.1-1.6,2.2-3.2,3.2-4.6c5.1,19.1,14,40.8,29.6,53.1L131.5,180.8L131.5,180.8z"></path> </g> </g> </g> </svg> 