<?xml version="1.0" encoding="UTF-8"?> <!-- Generator: Adobe Illustrator 24.1.0, SVG Export Plug-In . SVG Version: 6.00 Build 0) --> <svg xmlns="http://www.w3.org/2000/svg" xmlns:xlink="http://www.w3.org/1999/xlink" version="1.1" id="Layer_1" x="0px" y="0px" viewBox="0 0 240.8 243.4" style="enable-background:new 0 0 240.8 243.4;" xml:space="preserve"> <style type="text/css"> .st0{fill:none;} .st1{fill:none;stroke:#FFFFFF;stroke-width:4;} .st2{fill:#FFFFFF;} .st3{fill:none;stroke:#FFFFFF;stroke-width:4;stroke-linecap:round;stroke-linejoin:round;} </style> <g id="Ellipse_4"> <circle class="st0" cx="120.4" cy="121.7" r="116.5"></circle> <circle class="st1" cx="120.4" cy="121.7" r="114.5"></circle> </g> <g id="Work-Life_Balance" transform="translate(-5561.047 -6818.833)"> <g id="Group_5" transform="translate(5611.587 6818.833)"> <g id="Group_4" transform="translate(0)"> <path id="Path_19" class="st2" d="M70,72.2c-5.1,0-9.2,4.1-9.2,9.2s4.1,9.2,9.2,9.2s9.2-4.1,9.2-9.2C79.2,76.3,75,72.2,70,72.2z M70,87.3c-3.2,0-5.9-2.6-5.9-5.9s2.6-5.9,5.9-5.9s5.9,2.6,5.9,5.9C75.8,84.6,73.2,87.3,70,87.3L70,87.3z"></path> </g> </g> <line id="Line_1" class="st3" x1="5689.7" y1="6900.6" x2="5717.1" y2="6900.6"></line> <line id="Line_2" class="st3" x1="5660" y1="6980.7" x2="5703.5" y2="6980.7"></line> <line id="Line_3" class="st3" x1="5645.8" y1="6990" x2="5717.7" y2="6990"></line> <line id="Line_4" class="st3" x1="5681.7" y1="6908.8" x2="5681.7" y2="6978.5"></line> <path id="Path_21" class="st3" d="M5738.5,6943.3c0,7.6-9.3,13.8-20.9,13.8s-20.9-6.2-20.9-13.8H5738.5z"></path> <path id="Path_22" class="st3" d="M5696.8,6943.4l20.9-42.6l20.9,42.6"></path> <line id="Line_5" class="st3" x1="5672.4" y1="6900.6" x2="5645.3" y2="6900.6"></line> <path id="Path_23" class="st3" d="M5624.5,6943.4c0,7.6,9.3,13.8,20.9,13.8s20.9-6.2,20.9-13.8H5624.5z"></path> <path id="Path_24" class="st3" d="M5666.2,6943.4l-20.9-42.6l-20.8,42.6"></path> </g> </svg> 