<?xml version="1.0" encoding="UTF-8"?> <!-- Generator: Adobe Illustrator 24.1.0, SVG Export Plug-In . SVG Version: 6.00 Build 0) --> <svg xmlns="http://www.w3.org/2000/svg" xmlns:xlink="http://www.w3.org/1999/xlink" version="1.1" id="Layer_1" x="0px" y="0px" viewBox="0 0 240.8 243.4" style="enable-background:new 0 0 240.8 243.4;" xml:space="preserve"> <style type="text/css"> .st0{fill:none;stroke:#FFFFFF;stroke-width:4;stroke-linecap:round;stroke-linejoin:round;} .st1{fill:#FFFFFF;stroke:#FFFFFF;stroke-width:2;stroke-miterlimit:10;} .st2{fill:none;} .st3{fill:none;stroke:#FFFFFF;stroke-width:4;} </style> <g id="Retirement" transform="translate(-5912.493 -6807.5)"> <ellipse id="Ellipse_10" class="st0" cx="6017.8" cy="6948.1" rx="39" ry="38.5"></ellipse> <path id="Path_27" class="st0" d="M6010.4,6907.7c2.6-21.3,22-36.4,43.3-33.8s36.4,22,33.8,43.3c-2,16.3-14,29.6-30.1,33.1"></path> <path id="Path_28_1_" class="st1" d="M6025.6,6950.2c-1.2-1.2-2.8-2.1-4.5-2.4c-0.9-0.3-1.8-0.4-2.7-0.6c-2.1-0.4-4.1-0.8-5.6-2.1 c-1.4-1.1-2-2.9-1.7-4.6c0.3-2.3,1.9-4.3,4.1-5.1c2.4-1,5.1-0.5,7.1,1.1c0.8,0.7,1.5,1.5,2,2.4c0.3,0.5,1,0.6,1.5,0.3 c0.5-0.3,0.6-1,0.3-1.5l0,0c-0.6-1.1-1.4-2-2.4-2.8c-1.4-1.2-3.2-1.9-5-2.1v-4.2c0-0.6-0.5-1.1-1-1.1s-1.1,0.5-1.1,1l0,0v4.2l0,0 c-0.7,0.1-1.4,0.3-2.1,0.5c-2.9,1.1-5,3.7-5.4,6.8c-0.5,2.5,0.5,5,2.5,6.6c1.9,1.5,4.3,2,6.5,2.5c0.9,0.2,1.7,0.4,2.5,0.6 c1.3,0.3,2.5,0.9,3.5,1.8c1.4,1.4,1.7,3.6,0.8,5.4c-1,2-2.9,3.4-5.1,3.9c-4.9,0.8-8.3-1.1-10-5.6c-0.2-0.6-0.8-0.8-1.3-0.7 c-0.6,0.2-0.8,0.8-0.7,1.3l0,0c1.6,4.3,4.7,6.8,8.7,7.1v3.2c0,0.6,0.5,1.1,1,1.1s1.1-0.5,1.1-1l0,0v-3.2c0.5,0,1-0.1,1.5-0.2 c2.9-0.6,5.3-2.4,6.6-5.1C6028,6955.3,6027.6,6952.3,6025.6,6950.2z"></path> <path id="Path_30" class="st1" d="M6050,6927.1c0.5,0,1-0.1,1.5-0.2c2.9-0.5,5.3-2.4,6.6-5.1c1.3-2.6,0.8-5.6-1.2-7.7 c-1.2-1.2-2.8-2.1-4.5-2.4c-0.9-0.3-1.8-0.4-2.7-0.6c-2.1-0.4-4.1-0.8-5.6-2.1c-1.4-1.1-2-2.9-1.7-4.6c0.3-2.3,1.9-4.3,4.1-5.1 c2.4-1,5.1-0.5,7.1,1.1c0.8,0.7,1.5,1.5,2,2.4c0.3,0.5,1,0.6,1.5,0.3c0.5-0.3,0.6-1,0.3-1.5c-0.6-1.1-1.4-2-2.4-2.8 c-1.4-1.2-3.2-1.9-5-2.1v-4.2c0-0.6-0.5-1.1-1-1.1s-1.1,0.5-1.1,1l0,0v4.2l0,0c-0.7,0.1-1.4,0.3-2.1,0.5c-2.9,1.1-5,3.7-5.4,6.8 c-0.5,2.5,0.5,5,2.5,6.6c1.9,1.5,4.3,2,6.5,2.5c0.9,0.2,1.7,0.4,2.5,0.6c1.3,0.3,2.5,0.9,3.5,1.8c1.4,1.4,1.7,3.6,0.8,5.4 c-1,2-2.9,3.4-5.1,3.9"></path> </g> <g id="Ellipse_4"> <circle class="st2" cx="120.9" cy="122.5" r="116.5"></circle> <circle class="st3" cx="120.9" cy="122.5" r="114.5"></circle> </g> </svg> 