<?xml version="1.0" encoding="UTF-8"?> <!-- Generator: Adobe Illustrator 24.1.0, SVG Export Plug-In . SVG Version: 6.00 Build 0) --> <svg xmlns="http://www.w3.org/2000/svg" xmlns:xlink="http://www.w3.org/1999/xlink" version="1.1" id="Layer_1" x="0px" y="0px" viewBox="0 0 240.8 243.4" style="enable-background:new 0 0 240.8 243.4;" xml:space="preserve"> <style type="text/css"> .st0{fill:none;} .st1{fill:none;stroke:#FFFFFF;stroke-width:4;} .st2{fill:#FFFFFF;} </style> <g id="Ellipse_4"> <circle class="st0" cx="120.9" cy="122.5" r="116.5"></circle> <circle class="st1" cx="120.9" cy="122.5" r="114.5"></circle> </g> <g id="Fun_Games" transform="translate(-5520.9 -7225.598)"> <g id="Group_17" transform="translate(5520.9 7225.598)"> <g id="Group_16"> <path id="Path_32" class="st2" d="M154.4,77.3c0.7,0.7,1.9,0.7,2.6,0l2.4-2.4l2.4,2.4c0.7,0.7,1.9,0.7,2.6-0.1 c0.7-0.7,0.7-1.9,0-2.6l-2.4-2.4l2.4-2.4c0.7-0.7,0.7-1.9-0.1-2.6c-0.7-0.7-1.9-0.7-2.6,0l-2.4,2.4l-2.4-2.4 c-0.7-0.7-1.9-0.7-2.6,0.1c-0.7,0.7-0.7,1.9,0,2.6l2.4,2.4l-2.4,2.4C153.7,75.4,153.7,76.5,154.4,77.3L154.4,77.3z"></path> <path id="Path_33" class="st2" d="M140.9,96.4c0,1,0.8,1.9,1.9,1.9c1,0,1.9-0.8,1.9-1.9c0-1-0.8-1.9-1.9-1.9l0,0 C141.7,94.5,140.9,95.4,140.9,96.4z"></path> <path id="Path_34" class="st2" d="M126,85.2c1,0,1.9-0.8,1.9-1.9c0-1-0.8-1.9-1.9-1.9c-1,0-1.9,0.8-1.9,1.9l0,0 C124.1,84.4,125,85.2,126,85.2z"></path> <path id="Path_35" class="st2" d="M159.5,111.3c0,1,0.8,1.9,1.9,1.9s1.9-0.8,1.9-1.9c0-1-0.8-1.9-1.9-1.9 S159.5,110.3,159.5,111.3L159.5,111.3z"></path> <path id="Path_36" class="st2" d="M142.7,118.7c0,1,0.8,1.9,1.9,1.9c1,0,1.9-0.8,1.9-1.9c0-1-0.8-1.9-1.9-1.9l0,0 C143.6,116.9,142.7,117.7,142.7,118.7z"></path> <path id="Path_37" class="st2" d="M172.5,81.5c-1,0-1.9,0.8-1.9,1.9c0,1,0.8,1.9,1.9,1.9c1,0,1.9-0.8,1.9-1.9 C174.4,82.4,173.5,81.5,172.5,81.5L172.5,81.5z"></path> <path id="Path_38" class="st2" d="M168.8,96.4c-19.4,0-35.2,18.6-38.2,22.4l-7.2-7.2c8.1-5.4,9.9-10.7,10-10.9 c0.3-1-0.2-2-1.2-2.3s-2,0.2-2.4,1.1c0,0-1.7,4.6-9.1,9.4l-6.6-6.6c3.5-4.1,4.5-15.4,4.5-22.6c0-1-0.8-1.9-1.9-1.9 c-1,0-1.9,0.8-1.9,1.9c0,11.2-2,18.3-3.3,20.1l-6.5-6.5c-0.7-0.7-1.9-0.7-2.6,0c-0.2,0.2-0.3,0.4-0.4,0.6l-19.3,44.8l0,0l-16,37 c-0.4,0.9,0,2,1,2.4c0.2,0.1,0.5,0.2,0.7,0.2c0.3,0,0.5-0.1,0.7-0.2l26-11.2h0.1l11-4.7l0,0l16.7-7.2l0,0l11-4.7h0.1l17-7.3 c0.9-0.4,1.4-1.5,1-2.4c-0.1-0.2-0.2-0.4-0.4-0.6l-8.6-8.6c1.2-2,8.3-5,20.3-5c1,0,1.9-0.8,1.9-1.9c0-1-0.8-1.9-1.9-1.9 c-9.7,0-19.5,2.1-22.9,6.1l-7.1-7.1c1.8-2.3,17.3-21.4,35.5-21.4c1,0,1.9-0.8,1.9-1.9C170.6,97.2,169.8,96.4,168.8,96.4 L168.8,96.4z M122.6,150.9l-28.8-28.8l3.2-7.4l33,33L122.6,150.9z M105.8,158.2l-19.3-19.3l5.7-13.1l26.7,26.7L105.8,158.2z M94.8,162.9l-13-13l3.2-7.3l17.2,17.2L94.8,162.9z M80.2,153.6l10.9,10.9l-19.2,8.3L80.2,153.6z M133.6,146.2l-35.1-35.1 l5.7-13.3l5.5,5.5l0,0l9.3,9.3l0,0l20.4,20.4l0,0l7.4,7.4L133.6,146.2z"></path> <path id="Path_39" class="st2" d="M135.3,94.5L135.3,94.5c1,0,1.9-0.8,1.9-1.8c0-0.3,0.2-6.5,8.4-11.4c0.9-0.5,1.1-1.7,0.6-2.6 c-0.5-0.8-1.6-1.1-2.5-0.6c-10.1,6.1-10.2,14.3-10.2,14.6C133.4,93.7,134.3,94.5,135.3,94.5z"></path> </g> </g> </g> </svg> 