<?xml version="1.0" encoding="UTF-8"?> <!-- Generator: Adobe Illustrator 24.1.0, SVG Export Plug-In . SVG Version: 6.00 Build 0) --> <svg xmlns="http://www.w3.org/2000/svg" xmlns:xlink="http://www.w3.org/1999/xlink" version="1.1" id="Layer_1" x="0px" y="0px" viewBox="0 0 270.7 271.4" style="enable-background:new 0 0 270.7 271.4;" xml:space="preserve"> <style type="text/css"> .st0{fill:none;} .st1{fill:none;stroke:#00F0FF;stroke-width:4;} .st2{fill:#00F0FF;} .st3{fill:none;stroke:#0F1536;stroke-width:6.2205;stroke-linecap:round;stroke-linejoin:round;} </style> <g> <g id="Ellipse_24"> <circle class="st0" cx="135.4" cy="135.7" r="132.5"></circle> <circle class="st1" cx="135.4" cy="135.7" r="130.5"></circle> </g> <g id="Group_218" transform="translate(-3140.269 -410.932)"> <rect id="Rectangle_145" x="3220.2" y="537.3" class="st2" width="56.4" height="30.9"></rect> <g id="Group_170"> <path id="Path_231" class="st3" d="M3283.7,530.4h-70.4v44.8h70.4V530.4z"></path> <path id="Path_232" class="st3" d="M3286.1,541h54.7v-65H3239v51.8"></path> <line id="Line_54" class="st3" x1="3294.9" y1="556.5" x2="3294.9" y2="542"></line> <line id="Line_55" class="st3" x1="3285.5" y1="558.9" x2="3315" y2="558.9"></line> <path id="Path_233" class="st3" d="M3315.5,570.5h23.1c1.7,0,3.1,1.4,3.1,3.1v40.2c0,1.7-1.4,3.1-3.1,3.1h-23.1 c-1.7,0-3.1-1.4-3.1-3.1v-40.2C3312.4,571.9,3313.7,570.5,3315.5,570.5L3315.5,570.5z"></path> <path id="Path_234" class="st3" d="M3202.2,589.3h92.6"></path> </g> </g> </g> </svg> 