<?xml version="1.0" encoding="utf-8"?>
<!-- Generator: Adobe Illustrator 24.1.0, SVG Export Plug-In . SVG Version: 6.00 Build 0)  -->
<svg version="1.1" id="Layer_1" xmlns="http://www.w3.org/2000/svg" xmlns:xlink="http://www.w3.org/1999/xlink" x="0px" y="0px"
	 viewBox="0 0 179 179" style="enable-background:new 0 0 179 179;" xml:space="preserve">
<style type="text/css">
	.st0{display:none;fill:none;stroke:#0F1536;stroke-width:4;}
	.st1{display:none;}
	.st2{display:inline;fill:#FFFFFF;}
	.st3{display:inline;fill:none;stroke:#0F1536;stroke-width:4;}
	.st4{fill:#FFFFFF;}
	.st5{fill:none;stroke:#0F1536;stroke-width:4;}
	.st6{display:inline;fill:none;stroke:#0F1536;stroke-width:3.25;stroke-linecap:round;stroke-linejoin:round;}
	.st7{display:inline;fill:#00F0FF;}
	.st8{fill:#0F1536;}
	.st9{fill:#00F0FF;}
	.st10{display:inline;}
	.st11{display:none;fill:#0F1536;}
	.st12{display:none;fill:none;stroke:#1BCABC;stroke-width:2;}
	.st13{display:none;fill:#00F5BC;}
	.st14{fill:none;stroke:#0F1536;stroke-width:3;stroke-linecap:round;stroke-linejoin:round;stroke-miterlimit:10;}
</style>
<path class="st0" d="M-803.9-34.1C-626,13.4-525.7,65.8-245.8,86.1C34,106.4,453.7,33.4,664.9-47.7"/>
<g transform="translate(712 3182)">
	<circle class="st4" cx="-622.5" cy="-3092.5" r="89.5"/>
	<circle class="st5" cx="-622.5" cy="-3092.5" r="87.5"/>
</g>
<path class="st8" d="M128.2,98.6l-14.6-13.1c6.3-9.2,4-21.7-5.2-28s-21.7-4-28,5.2s-4,21.7,5.2,28C89,93,93,94.3,97.2,94.2
	c3.8,0,7.5-1.1,10.7-3.2l12.7,14.9c1.9,2.2,5.2,2.5,7.4,0.7c2.2-1.9,2.5-5.2,0.7-7.4C128.6,98.9,128.4,98.7,128.2,98.6L128.2,98.6z
	 M126.6,104.4c-1.1,1-2.8,1-3.8-0.1l-0.1-0.1l-14.3-16.7l-1,0.7c-3,2.2-6.6,3.4-10.3,3.4c-9.7,0-17.5-7.8-17.5-17.5
	s7.8-17.5,17.5-17.5c9.7,0,17.5,7.8,17.5,17.5c0,3.9-1.3,7.7-3.7,10.8l-0.7,1l16.4,14.7c1.1,1,1.2,2.7,0.2,3.8
	C126.6,104.3,126.6,104.4,126.6,104.4L126.6,104.4z"/>
<circle class="st9" cx="96.7" cy="73.7" r="13.6"/>
<g>
	<polyline class="st14" points="45.8,91.4 72.8,118.5 88.3,103 104.2,119 131.5,119 	"/>
	<polyline class="st14" points="127.3,113 133.2,119 127.3,124.9 	"/>
</g>
<polyline class="st14" points="43.5,113.6 61.5,95.6 76.5,95.6 99.6,72.5 "/>
<polyline class="st14" points="92.5,71 100.9,71 100.9,79.4 "/>
</svg>
