<?xml version="1.0" encoding="UTF-8"?> <!-- Generator: Adobe Illustrator 24.1.0, SVG Export Plug-In . SVG Version: 6.00 Build 0) --> <svg xmlns="http://www.w3.org/2000/svg" xmlns:xlink="http://www.w3.org/1999/xlink" version="1.1" id="Layer_1" x="0px" y="0px" viewBox="0 0 109.8 89.9" style="enable-background:new 0 0 109.8 89.9;" xml:space="preserve"> <style type="text/css"> .st0{fill:#03F0FF;} .st1{fill:#FFFFFF;} .st2{fill:#FFFFFF;stroke:#00F5BD;stroke-width:3;stroke-miterlimit:10;} .st3{fill:#0F1F40;} .st4{fill:none;stroke:#000000;stroke-width:3.1369;stroke-linecap:round;stroke-linejoin:round;stroke-miterlimit:10;} .st5{fill:none;stroke:#000000;stroke-width:3.1369;stroke-linecap:round;stroke-miterlimit:10;} .st6{fill:none;stroke:#000000;stroke-width:2.0912;stroke-linecap:round;stroke-linejoin:round;stroke-miterlimit:10;} .st7{stroke:#000000;stroke-width:0.6971;stroke-miterlimit:10;} .st8{fill:#00F5BD;} .st9{fill:#00F0FF;} .st10{fill:#00F0FF;stroke:#00F0FF;stroke-width:2;stroke-miterlimit:10;} .st11{fill:#0F1536;} .st12{fill:#0F1536;stroke:#FFFFFF;stroke-width:0.7647;} .st13{fill:none;stroke:#0F1F40;stroke-width:1.5362;stroke-linecap:round;stroke-linejoin:round;stroke-miterlimit:10;} .st14{fill:none;} .st15{fill:none;stroke:#0F1F40;stroke-width:1.9669;stroke-linecap:round;stroke-linejoin:round;stroke-miterlimit:10;} .st16{fill:none;stroke:#0F1F40;stroke-width:1.8435;stroke-linecap:round;stroke-linejoin:round;stroke-miterlimit:10;} .st17{fill:#0F1F40;stroke:#0F1F40;stroke-width:0.5691;stroke-miterlimit:10;} .st18{fill:none;stroke:#0F1F40;stroke-width:2.4442;stroke-linecap:round;stroke-linejoin:round;stroke-miterlimit:10;} .st19{fill:none;stroke:#0F1F40;stroke-width:2.4881;stroke-linecap:round;stroke-linejoin:round;stroke-miterlimit:10;} .st20{fill:none;stroke:#0F1F40;stroke-width:1.2495;stroke-linecap:round;stroke-linejoin:round;stroke-miterlimit:10;} .st21{fill:none;stroke:#5CE5C6;stroke-width:1.2495;stroke-miterlimit:10;} .st22{fill:#32E13C;} .st23{fill:#0AEEFD;} .st24{fill:#92D050;} .st25{fill:#0F1E40;stroke:#92D050;stroke-miterlimit:10;} .st26{fill:#0F1F40;stroke:#0F1E40;stroke-miterlimit:10;} .st27{fill:#0F1F40;stroke:#0F1E40;stroke-width:1.6173;stroke-miterlimit:10;} .st28{fill:#0F1E40;} .st29{fill:none;stroke:#0F1E40;stroke-width:1.8127;stroke-linecap:round;stroke-linejoin:round;stroke-miterlimit:10;} .st30{fill:none;stroke:#0F1E40;stroke-width:1.4619;stroke-linecap:round;stroke-linejoin:round;stroke-miterlimit:10;} .st31{fill:none;stroke:#0F1E40;stroke-width:1.0632;stroke-linecap:round;stroke-linejoin:round;stroke-miterlimit:10;} .st32{fill:none;stroke:#0F1E40;stroke-width:1.619;stroke-linecap:round;stroke-linejoin:round;stroke-miterlimit:10;} .st33{fill:none;stroke:#0F1E40;stroke-width:2;stroke-linecap:round;stroke-linejoin:round;stroke-miterlimit:9.9999;} .st34{fill:none;stroke:#0F1E40;stroke-width:2;stroke-linecap:round;stroke-linejoin:round;stroke-miterlimit:10;} .st35{fill:#0F1F40;stroke:#0F1E40;stroke-width:0.75;stroke-miterlimit:10;} .st36{fill:#FFFFFF;stroke:#92D050;stroke-width:3;stroke-miterlimit:10;} .st37{fill:#FFFFFF;stroke:#92D050;stroke-width:1.25;stroke-miterlimit:10;} .st38{fill:none;stroke:#0F1F40;stroke-width:3;stroke-linecap:round;stroke-linejoin:round;stroke-miterlimit:10;} .st39{fill:none;stroke:#000000;stroke-width:2.5;stroke-linecap:round;stroke-linejoin:round;stroke-miterlimit:10;} .st40{fill:none;stroke:#000000;stroke-width:2.5;stroke-miterlimit:10;} .st41{fill:none;stroke:#00F0FF;stroke-width:4;} .st42{fill:none;stroke:#00F0FF;stroke-width:4;stroke-linecap:round;stroke-linejoin:round;} .st43{fill:none;stroke:#0E0E0E;stroke-width:3;} .st44{fill:#0F1536;stroke:#0F1536;stroke-width:2.62;stroke-miterlimit:10;} .st45{fill:none;stroke:#0F1536;stroke-width:6;stroke-linecap:round;stroke-linejoin:round;} .st46{fill:none;stroke:#32E13C;stroke-width:4;} .st47{fill:none;stroke:#00F5BD;stroke-miterlimit:10;} .st48{fill:none;stroke:#00F5BD;stroke-width:4;} .st49{fill:#0F1F40;stroke:#0F1E40;stroke-width:1.75;stroke-miterlimit:10;} .st50{fill:none;stroke:#0F1536;stroke-width:4;} .st51{fill:none;stroke:#0F1536;stroke-width:4.1546;stroke-miterlimit:10;} .st52{fill:none;stroke:#0F1536;stroke-width:4.1546;stroke-linecap:round;stroke-linejoin:round;stroke-miterlimit:10;} .st53{fill:#0F1536;stroke:#0F1536;stroke-width:2;stroke-miterlimit:10;} .st54{fill:none;stroke:#000000;stroke-width:3;stroke-linecap:round;stroke-linejoin:round;stroke-miterlimit:10;} .st55{fill:none;stroke:#1C1E36;stroke-width:2.5;} .st56{fill:none;stroke:#1C1E36;stroke-width:2.5;stroke-linecap:round;} .st57{fill:none;stroke:#1C1E36;stroke-width:2.5;stroke-linecap:round;stroke-linejoin:round;} .st58{fill:none;stroke:#0F1434;stroke-width:2.5;stroke-miterlimit:10;} .st59{fill:none;stroke:#0F1434;stroke-width:2.5;stroke-linecap:round;stroke-linejoin:round;} .st60{fill:none;stroke:#0F1F40;stroke-width:1.967;stroke-linecap:round;stroke-linejoin:round;} .st61{fill:none;stroke:#0F1F40;stroke-width:1.843;stroke-linecap:round;stroke-linejoin:round;} .st62{fill:none;stroke:#0F1F40;stroke-width:1.249;stroke-linecap:round;stroke-linejoin:round;} .st63{fill:none;stroke:#0F1F40;stroke-width:2.5;stroke-linecap:round;stroke-linejoin:round;} .st64{fill:none;stroke:#0F1F40;stroke-width:2.5;stroke-miterlimit:10;} .st65{fill:none;stroke:#0F1F40;stroke-width:4;stroke-linecap:round;stroke-linejoin:round;} </style> <path id="Polygon_1" class="st0" d="M62.4,33.9c0.5,0.3,0.7,0.9,0.4,1.4c-0.1,0.2-0.2,0.3-0.4,0.4l-13.8,8c-0.5,0.3-1.1,0.1-1.4-0.4 c-0.1-0.1-0.1-0.3-0.1-0.5l-0.3-15.6c0-0.6,0.4-1,1-1c0.2,0,0.3,0,0.5,0.1L62.4,33.9z"></path> <g id="Group_31_2_" transform="translate(-515.552 -537.016)"> <path id="Rectangle_80" class="st65" d="M519.2,539.4h102.6c0.7,0,1.3,0.6,1.3,1.3v82.6c0,0.7-0.6,1.3-1.3,1.3H519.2 c-0.7,0-1.3-0.6-1.3-1.3v-82.6C517.8,540,518.4,539.4,519.2,539.4C519.2,539.4,519.2,539.4,519.2,539.4z"></path> <g id="Group_29_2_" transform="translate(534.699 560.674)"> <path id="Path_121" class="st3" d="M5.9,44.3c-3.1,0-5.6,2.5-5.6,5.6s2.5,5.6,5.6,5.6s5.6-2.5,5.6-5.6v0 C11.5,46.8,9,44.3,5.9,44.3z M5.9,51.7c-1,0-1.9-0.8-1.9-1.9c0-1,0.8-1.9,1.9-1.9c1,0,1.9,0.8,1.9,1.9C7.7,50.9,6.9,51.7,5.9,51.7 z"></path> <path id="Path_122" class="st3" d="M68,48H21.4c-1,0-1.9,0.8-1.9,1.9s0.8,1.9,1.9,1.9H68c1,0,1.9-0.8,1.9-1.9S69,48,68,48L68,48z"></path> <path id="Path_123" class="st3" d="M25.5,5.7V17c0,2.9,2.4,5.3,5.3,5.3c0.9,0,1.9-0.2,2.7-0.7l9.8-5.7c2.5-1.5,3.4-4.7,2-7.3 c-0.5-0.8-1.1-1.5-2-2l-9.8-5.7C31-0.4,27.7,0.5,26.2,3C25.7,3.8,25.5,4.7,25.5,5.7L25.5,5.7z M29.2,5.7c0-0.6,0.3-1.1,0.8-1.4 c0.2-0.1,0.5-0.2,0.8-0.2c0.3,0,0.6,0.1,0.8,0.2l9.8,5.7c0.8,0.4,1,1.4,0.6,2.2c-0.1,0.2-0.3,0.4-0.6,0.6l-9.8,5.7 c-0.8,0.4-1.7,0.2-2.2-0.6c-0.1-0.2-0.2-0.5-0.2-0.8L29.2,5.7L29.2,5.7z"></path> </g> <line id="Line_22" class="st65" x1="517.8" y1="596" x2="623.1" y2="596"></line> </g> </svg> 