<?xml version="1.0" encoding="UTF-8"?> <!-- Generator: Adobe Illustrator 24.1.0, SVG Export Plug-In . SVG Version: 6.00 Build 0) --> <svg xmlns="http://www.w3.org/2000/svg" xmlns:xlink="http://www.w3.org/1999/xlink" version="1.1" id="Layer_1" x="0px" y="0px" viewBox="0 0 109.8 83.5" style="enable-background:new 0 0 109.8 83.5;" xml:space="preserve"> <style type="text/css"> .st0{fill:#03F0FF;} .st1{fill:#FFFFFF;} .st2{fill:#FFFFFF;stroke:#00F5BD;stroke-width:3;stroke-miterlimit:10;} .st3{fill:#0F1F40;} .st4{fill:none;stroke:#000000;stroke-width:3.1369;stroke-linecap:round;stroke-linejoin:round;stroke-miterlimit:10;} .st5{fill:none;stroke:#000000;stroke-width:3.1369;stroke-linecap:round;stroke-miterlimit:10;} .st6{fill:none;stroke:#000000;stroke-width:2.0912;stroke-linecap:round;stroke-linejoin:round;stroke-miterlimit:10;} .st7{stroke:#000000;stroke-width:0.6971;stroke-miterlimit:10;} .st8{fill:#00F5BD;} .st9{fill:#00F0FF;} .st10{fill:#00F0FF;stroke:#00F0FF;stroke-width:2;stroke-miterlimit:10;} .st11{fill:#0F1536;} .st12{fill:#0F1536;stroke:#FFFFFF;stroke-width:0.7647;} .st13{fill:none;stroke:#0F1F40;stroke-width:1.5362;stroke-linecap:round;stroke-linejoin:round;stroke-miterlimit:10;} .st14{fill:none;} .st15{fill:none;stroke:#0F1F40;stroke-width:1.9669;stroke-linecap:round;stroke-linejoin:round;stroke-miterlimit:10;} .st16{fill:none;stroke:#0F1F40;stroke-width:1.8435;stroke-linecap:round;stroke-linejoin:round;stroke-miterlimit:10;} .st17{fill:#0F1F40;stroke:#0F1F40;stroke-width:0.5691;stroke-miterlimit:10;} .st18{fill:none;stroke:#0F1F40;stroke-width:2.4442;stroke-linecap:round;stroke-linejoin:round;stroke-miterlimit:10;} .st19{fill:none;stroke:#0F1F40;stroke-width:2.4881;stroke-linecap:round;stroke-linejoin:round;stroke-miterlimit:10;} .st20{fill:none;stroke:#0F1F40;stroke-width:1.2495;stroke-linecap:round;stroke-linejoin:round;stroke-miterlimit:10;} .st21{fill:none;stroke:#5CE5C6;stroke-width:1.2495;stroke-miterlimit:10;} .st22{fill:#32E13C;} .st23{fill:#0AEEFD;} .st24{fill:#92D050;} .st25{fill:#0F1E40;stroke:#92D050;stroke-miterlimit:10;} .st26{fill:#0F1F40;stroke:#0F1E40;stroke-miterlimit:10;} .st27{fill:#0F1F40;stroke:#0F1E40;stroke-width:1.6173;stroke-miterlimit:10;} .st28{fill:#0F1E40;} .st29{fill:none;stroke:#0F1E40;stroke-width:1.8127;stroke-linecap:round;stroke-linejoin:round;stroke-miterlimit:10;} .st30{fill:none;stroke:#0F1E40;stroke-width:1.4619;stroke-linecap:round;stroke-linejoin:round;stroke-miterlimit:10;} .st31{fill:none;stroke:#0F1E40;stroke-width:1.0632;stroke-linecap:round;stroke-linejoin:round;stroke-miterlimit:10;} .st32{fill:none;stroke:#0F1E40;stroke-width:1.619;stroke-linecap:round;stroke-linejoin:round;stroke-miterlimit:10;} .st33{fill:none;stroke:#0F1E40;stroke-width:2;stroke-linecap:round;stroke-linejoin:round;stroke-miterlimit:9.9999;} .st34{fill:none;stroke:#0F1E40;stroke-width:2;stroke-linecap:round;stroke-linejoin:round;stroke-miterlimit:10;} .st35{fill:#0F1F40;stroke:#0F1E40;stroke-width:0.75;stroke-miterlimit:10;} .st36{fill:#FFFFFF;stroke:#92D050;stroke-width:3;stroke-miterlimit:10;} .st37{fill:#FFFFFF;stroke:#92D050;stroke-width:1.25;stroke-miterlimit:10;} .st38{fill:none;stroke:#0F1F40;stroke-width:3;stroke-linecap:round;stroke-linejoin:round;stroke-miterlimit:10;} .st39{fill:none;stroke:#000000;stroke-width:2.5;stroke-linecap:round;stroke-linejoin:round;stroke-miterlimit:10;} .st40{fill:none;stroke:#000000;stroke-width:2.5;stroke-miterlimit:10;} .st41{fill:none;stroke:#00F0FF;stroke-width:4;} .st42{fill:none;stroke:#00F0FF;stroke-width:4;stroke-linecap:round;stroke-linejoin:round;} .st43{fill:none;stroke:#0E0E0E;stroke-width:3;} .st44{fill:#0F1536;stroke:#0F1536;stroke-width:2.62;stroke-miterlimit:10;} .st45{fill:none;stroke:#0F1536;stroke-width:6;stroke-linecap:round;stroke-linejoin:round;} .st46{fill:none;stroke:#32E13C;stroke-width:4;} .st47{fill:none;stroke:#00F5BD;stroke-miterlimit:10;} .st48{fill:none;stroke:#00F5BD;stroke-width:4;} .st49{fill:#0F1F40;stroke:#0F1E40;stroke-width:1.75;stroke-miterlimit:10;} .st50{fill:none;stroke:#0F1536;stroke-width:4;} .st51{fill:none;stroke:#0F1536;stroke-width:4.1546;stroke-miterlimit:10;} .st52{fill:none;stroke:#0F1536;stroke-width:4.1546;stroke-linecap:round;stroke-linejoin:round;stroke-miterlimit:10;} .st53{fill:#0F1536;stroke:#0F1536;stroke-width:2;stroke-miterlimit:10;} .st54{fill:none;stroke:#000000;stroke-width:3;stroke-linecap:round;stroke-linejoin:round;stroke-miterlimit:10;} .st55{fill:none;stroke:#1C1E36;stroke-width:2.5;} .st56{fill:none;stroke:#1C1E36;stroke-width:2.5;stroke-linecap:round;} .st57{fill:none;stroke:#1C1E36;stroke-width:2.5;stroke-linecap:round;stroke-linejoin:round;} .st58{fill:none;stroke:#0F1434;stroke-width:2.5;stroke-miterlimit:10;} .st59{fill:none;stroke:#0F1434;stroke-width:2.5;stroke-linecap:round;stroke-linejoin:round;} .st60{fill:none;stroke:#0F1F40;stroke-width:1.967;stroke-linecap:round;stroke-linejoin:round;} .st61{fill:none;stroke:#0F1F40;stroke-width:1.843;stroke-linecap:round;stroke-linejoin:round;} .st62{fill:none;stroke:#0F1F40;stroke-width:1.249;stroke-linecap:round;stroke-linejoin:round;} .st63{fill:none;stroke:#0F1F40;stroke-width:2.5;stroke-linecap:round;stroke-linejoin:round;} .st64{fill:none;stroke:#0F1F40;stroke-width:2.5;stroke-miterlimit:10;} </style> <g id="Group_33_2_" transform="translate(57.221 -729.328)"> <path id="Path_127" class="st0" d="M-25.5,762.2c-0.6-0.3-1.4-0.3-2,0c0,0-0.1,0-0.1,0l-17.2,7.7l17.4,8c0.6,0.3,1.2,0.3,1.8,0 l17.4-8l-17.2-7.7C-25.4,762.2-25.5,762.2-25.5,762.2z"></path> <path id="Path_128" class="st0" d="M-26.5,781.3c-0.8,0-1.5-0.2-2.2-0.5l-8.7-4v7.6l1.6,0.6c6,2.5,12.7,2.5,18.7,0l1.6-0.6v-7.6 l-8.7,4C-25,781.2-25.7,781.3-26.5,781.3z"></path> </g> <g id="Group_28_2_" transform="translate(-68.668 -693.013)"> <circle id="Ellipse_71" class="st3" cx="78.8" cy="701.4" r="1.6"></circle> <circle id="Ellipse_72" class="st3" cx="85.4" cy="701.4" r="1.6"></circle> <path id="Path_114" class="st3" d="M125.1,776.1h49.1c1.8,0,3.2-1.4,3.2-3.2v-76.3c0-1.8-1.4-3.2-3.2-3.2H72.9 c-1.8,0-3.2,1.4-3.2,3.2v76.3c0,1.8,1.4,3.2,3.2,3.2L125.1,776.1L125.1,776.1z M118.8,773H72.9c0,0-0.1,0-0.1,0c0,0,0,0,0,0v-6.1 h101.4v6.1c0,0,0,0-0.1,0c0,0,0,0,0,0H118.8z M103.8,706.3h-31v-9.7c0,0,0-0.1,0.1-0.1c0,0,0,0,0,0h101.3c0,0,0.1,0,0.1,0.1l0,0 v9.7H103.8z M110.1,709.5h17.7v54.2h-55v-54.2C72.8,709.5,110.1,709.5,110.1,709.5z M131,763.6v-54.2h43.3v54.2H131z"></path> <path id="Path_115" class="st3" d="M120.1,731.6C120.1,731.6,120.1,731.6,120.1,731.6l-18.3-8.2c-1.5-0.8-3.4-0.8-4.9,0l-18.2,8.2 c0,0-0.1,0-0.1,0c-1.3,0.7-1.8,2.3-1.1,3.6c0.3,0.5,0.7,0.9,1.2,1.2l6.5,3v9.7c0,0.9,0.5,1.7,1.4,2.1l2.2,0.9 c6.8,2.8,14.3,2.8,21.1,0l2.1-0.9c0.8-0.3,1.4-1.2,1.4-2.1v-9.7l6.5-3c1.3-0.6,1.9-2.2,1.3-3.5 C121.1,732.3,120.6,731.9,120.1,731.6L120.1,731.6z M110.3,748.4l-1.6,0.6c-6,2.4-12.7,2.4-18.7,0l-1.6-0.6v-7.6l8.7,4 c1.4,0.6,3,0.6,4.4,0l8.7-4L110.3,748.4z M100.3,742c-0.6,0.3-1.2,0.3-1.8,0l-17.4-8l17.2-7.7c0,0,0.1,0,0.1,0c0.6-0.3,1.4-0.3,2,0 c0,0,0.1,0,0.1,0l17.2,7.7L100.3,742z"></path> <circle id="Ellipse_73" class="st3" cx="138.5" cy="718.4" r="1.6"></circle> <circle id="Ellipse_74" class="st3" cx="138.5" cy="727.6" r="1.6"></circle> <circle id="Ellipse_75" class="st3" cx="138.5" cy="736.9" r="1.6"></circle> <circle id="Ellipse_76" class="st3" cx="138.5" cy="746.1" r="1.6"></circle> <circle id="Ellipse_77" class="st3" cx="138.5" cy="755.3" r="1.6"></circle> <path id="Path_116" class="st3" d="M144.3,720h22.1c0.9,0,1.6-0.7,1.6-1.6s-0.7-1.6-1.6-1.6h-22.1c-0.9,0-1.6,0.7-1.6,1.6 S143.4,720,144.3,720z"></path> <path id="Path_117" class="st3" d="M166.4,726.1h-22.1c-0.9,0-1.6,0.7-1.6,1.6s0.7,1.6,1.6,1.6h22.1c0.9,0,1.6-0.7,1.6-1.6 S167.3,726.1,166.4,726.1L166.4,726.1z"></path> <path id="Path_118" class="st3" d="M166.4,735.3h-22.1c-0.9,0-1.6,0.7-1.6,1.5s0.7,1.6,1.5,1.6c0,0,0.1,0,0.1,0h22.1 c0.9,0,1.6-0.7,1.5-1.6C167.9,736,167.2,735.3,166.4,735.3L166.4,735.3z"></path> <path id="Path_119" class="st3" d="M166.4,744.5h-22.1c-0.9,0-1.6,0.7-1.6,1.6s0.7,1.6,1.6,1.6h22.1c0.9,0,1.6-0.7,1.6-1.6 S167.3,744.5,166.4,744.5L166.4,744.5z"></path> <path id="Path_120" class="st3" d="M166.4,753.7h-22.1c-0.9,0-1.6,0.7-1.6,1.5s0.7,1.6,1.5,1.6c0,0,0.1,0,0.1,0h22.1 c0.9,0,1.6-0.7,1.5-1.6C167.9,754.4,167.2,753.7,166.4,753.7L166.4,753.7z"></path> </g> </svg> 