<?xml version="1.0" encoding="UTF-8"?> <!-- Generator: Adobe Illustrator 24.1.0, SVG Export Plug-In . SVG Version: 6.00 Build 0) --> <svg xmlns="http://www.w3.org/2000/svg" xmlns:xlink="http://www.w3.org/1999/xlink" version="1.1" id="Layer_1" x="0px" y="0px" viewBox="0 0 98.7 97.9" style="enable-background:new 0 0 98.7 97.9;" xml:space="preserve"> <style type="text/css"> .st0{fill:#03F0FF;} .st1{fill:#0F1F40;} </style> <g> <path id="Path_126" class="st0" d="M25.4,45.7v-25l21.7,12.6l0.3,25.2L25.4,45.7z"></path> <g id="Group_32_2_" transform="translate(-517.67 -662.456)"> <path id="Path_124" class="st1" d="M608.2,678.1h-14.9l-25.6-14.8c-0.4-0.3-1-0.3-1.4,0l-25.6,14.8h-14.9c-3.9,0-7.1,3.2-7.1,7.1 v56.2c0,3.9,3.2,7.1,7.1,7.1h30.5l-1.3,5.3c-0.5,1.9-2.2,3.2-4.1,3.2h-11.7c-0.8,0-1.4,0.7-1.4,1.5s0.6,1.4,1.4,1.4h55.7 c0.8,0,1.4-0.7,1.4-1.5s-0.6-1.4-1.4-1.4h-11.7c-1.9,0-3.6-1.3-4.1-3.2l-1.3-5.3h30.5c3.9,0,7.1-3.2,7.1-7.1v-56.2 C615.3,681.2,612.2,678.1,608.2,678.1L608.2,678.1z M591.5,708.6l-23.1,13.3v-26.6l23.1-13.3V708.6z M542.5,681.9l23.1,13.3v26.6 l-23.1-13.3V681.9z M567,692.8l-23.1-13.3l10.1-5.8l23.1,13.3L567,692.8z M567,666.2l23.1,13.3l-10.1,5.8L556.9,672L567,666.2z M527.2,704.7v-18.2h12.5v22.8c0,0.5,0.3,1,0.7,1.2l25.9,15c0.4,0.3,1,0.3,1.4,0l25.9-15c0.4-0.3,0.7-0.7,0.7-1.2v-22.8h12.5v42 h-79.6L527.2,704.7L527.2,704.7z M524.4,710.4V730c0,0.8,0.6,1.4,1.4,1.4h82.5c0.8,0,1.4-0.6,1.4-1.4v-44.9c0-0.8-0.6-1.4-1.4-1.4 h-13.9v-2.8h13.9c2.3,0,4.2,1.9,4.2,4.2v49.1h-91v-49.1c0-2.3,1.9-4.2,4.2-4.2h13.9v2.8h-13.9c-0.8,0-1.4,0.6-1.4,1.4L524.4,710.4 L524.4,710.4z M576.3,754.4c0.2,0.9,0.6,1.8,1.2,2.5h-20.9c0.6-0.8,1-1.6,1.2-2.5l1.5-6h15.6L576.3,754.4z M608.2,745.6h-82.5 c-2.3,0-4.2-1.9-4.2-4.2v-4.2h91v4.2C612.5,743.7,610.6,745.6,608.2,745.6L608.2,745.6z"></path> <path id="Path_125" class="st1" d="M572,715.8c0.4,0.3,1,0.3,1.4,0l14.6-8.4c0.4-0.3,0.7-0.7,0.7-1.2v-6.5c0-0.8-0.6-1.4-1.4-1.4 c-0.2,0-0.5,0.1-0.7,0.2l-14.6,8.4c-0.4,0.3-0.7,0.7-0.7,1.2v6.5C571.3,715.1,571.5,715.5,572,715.8z M574.1,708.8l11.7-6.8v3.3 l-11.7,6.8V708.8z"></path> </g> </g> </svg> 