<?xml version="1.0" encoding="UTF-8"?> <!-- Generator: Adobe Illustrator 24.1.0, SVG Export Plug-In . SVG Version: 6.00 Build 0) --> <svg xmlns="http://www.w3.org/2000/svg" xmlns:xlink="http://www.w3.org/1999/xlink" version="1.1" id="Layer_1" x="0px" y="0px" viewBox="0 0 98.7 99.6" style="enable-background:new 0 0 98.7 99.6;" xml:space="preserve"> <style type="text/css"> .st0{fill:#03F0FF;} .st1{fill:#0F1F40;} .st2{fill:none;stroke:#0F1F40;stroke-width:3;stroke-linecap:round;stroke-linejoin:round;stroke-miterlimit:10;} </style> <circle id="Ellipse_65" class="st0" cx="49.3" cy="49.8" r="48.5"></circle> <g> <path class="st1" d="M61,37.1c0.5-1.1,0.6-2.3,0.2-3.4s-1.2-2-2.3-2.6c-2.2-1.1-4.9-0.2-6,2c-0.2,0.5-0.4,1-0.4,1.5 c-1.4-0.1-2.9,0-4.3,0.4c-2.8,0.8-5.2,2.6-6.7,5.1l-5,8.1c-0.7-0.1-1.4-0.1-2,0.2c-1,0.3-1.9,1.1-2.3,2.1l-0.3,0.7 c-1,2-0.2,4.5,1.8,5.5l10.8,5.4c-1.1,2.2-0.6,4.7,2.2,6.1c2.4,1,5.1,0,6.2-2l1.1,0.6c0.6,0.3,1.2,0.4,1.8,0.4 c0.4,0,0.9-0.1,1.3-0.2c1-0.3,1.9-1.1,2.3-2.1l0.3-0.7c0.5-1,0.6-2.1,0.2-3.1c-0.2-0.7-0.6-1.2-1.1-1.7l3.4-8.9 c1.1-2.7,1-5.7,0-8.4c-0.5-1.4-1.3-2.6-2.3-3.7C60.5,38,60.8,37.6,61,37.1z M57.5,33.2c0.8,0,1.4,0.6,1.4,1.4S58.3,36,57.5,36 s-1.4-0.6-1.4-1.4C56.1,33.9,56.7,33.2,57.5,33.2z M49.5,65.3c-0.5,0.2-1,0.1-1.4-0.1s-0.8-0.6-0.9-1c-0.1-0.4-0.1-0.7,0-1.1 l3.2,1.6C50.1,64.9,49.8,65.1,49.5,65.3z M60,48.9l-4.1,10.6c-0.6,1.3,0,2.9,1.3,3.5l0,0c0.2,0.1,0.3,0.3,0.2,0.6L57,64.3 c-0.1,0.2-0.3,0.3-0.6,0.2l-22.2-11c-0.2-0.1-0.3-0.3-0.2-0.6l0.4-0.7c0.1-0.2,0.3-0.3,0.6-0.2c0.6,0.3,1.4,0.4,2.1,0.1 c0.6-0.2,1.2-0.7,1.5-1.3l5.9-9.7c1.1-1.9,2.9-3.2,5-3.8s4.3-0.4,6.3,0.6l0,0l0,0c1.9,1,3.5,2.6,4.2,4.6 C60.8,44.7,60.8,46.9,60,48.9z"></path> <path class="st2" d="M22.5,43.6c2.6-12.5,13.6-21.9,26.9-21.9s24.3,9.4,26.9,21.9"></path> <path class="st2" d="M76.3,56c-2.6,12.5-13.6,21.9-26.9,21.9S25.1,68.5,22.5,56"></path> <polyline class="st2" points="18.5,60.5 21.9,54.4 28,57.1 "></polyline> <polyline class="st2" points="80.1,39.4 76.7,45.5 70.6,42.7 "></polyline> </g> </svg> 