<?xml version="1.0" encoding="UTF-8"?> <!-- Generator: Adobe Illustrator 24.1.0, SVG Export Plug-In . SVG Version: 6.00 Build 0) --> <svg xmlns="http://www.w3.org/2000/svg" xmlns:xlink="http://www.w3.org/1999/xlink" version="1.1" id="Layer_1" x="0px" y="0px" viewBox="0 0 98.7 99.6" style="enable-background:new 0 0 98.7 99.6;" xml:space="preserve"> <style type="text/css"> .st0{fill:#03F0FF;} .st1{fill:#0F1F40;} </style> <circle id="Ellipse_65" class="st0" cx="49.3" cy="49.8" r="48.5"></circle> <g id="Medal_Award_1_" transform="translate(-654.329 -113.582)"> <path id="Path_144" class="st1" d="M722.7,157.4c0-10.5-8.5-19.1-19.1-19.1c-10.5,0-19.1,8.5-19.1,19.1c0,10.5,8.5,19.1,19.1,19.1 l0,0C714.2,176.4,722.7,167.9,722.7,157.4z M686.6,157.4c0-9.4,7.6-17,17-17s17,7.6,17,17s-7.6,17-17,17 C694.3,174.4,686.6,166.8,686.6,157.4L686.6,157.4L686.6,157.4z"></path> <path id="Path_145" class="st1" d="M709.1,167.2c0.5,0.3,1.1,0.2,1.4-0.2c0.2-0.3,0.2-0.6,0.1-0.9l-2-6l5.6-3.9 c0.5-0.3,0.6-0.9,0.3-1.4c-0.2-0.3-0.5-0.4-0.8-0.4h-7l-2.1-6.3c-0.2-0.5-0.7-0.8-1.3-0.6c-0.3,0.1-0.5,0.3-0.6,0.6l-2.1,6.3h-7 c-0.6,0-1,0.4-1,1c0,0.3,0.2,0.7,0.4,0.8l5.6,3.9l-2,6c-0.2,0.5,0.1,1.1,0.6,1.3c0.3,0.1,0.6,0.1,0.9-0.1l5.4-3.7L709.1,167.2z M699.6,163.9l1.3-3.9c0.1-0.4,0-0.9-0.4-1.1l-3.6-2.5h4.5c0.4,0,0.8-0.3,1-0.7l1.4-4.2l1.4,4.2c0.1,0.4,0.5,0.7,1,0.7h4.5 l-3.6,2.5c-0.4,0.3-0.5,0.7-0.4,1.1l1.3,3.9l-3.6-2.4c-0.3-0.2-0.8-0.2-1.1,0L699.6,163.9z"></path> <path id="Path_146" class="st1" d="M733.5,180.7l-10.6-10.6c7.1-10.6,4.2-24.9-6.4-32c-10.6-7.1-24.9-4.2-32,6.4 c-5.2,7.7-5.2,17.8,0,25.6l-10.6,10.6c-0.4,0.4-0.4,1,0,1.4c0.2,0.2,0.4,0.3,0.7,0.3h9v9c0,0.6,0.4,1,1,1c0.3,0,0.5-0.1,0.7-0.3 l12.5-12.5c3.8,1,7.9,1,11.7,0l12.5,12.5c0.4,0.4,1,0.4,1.4,0c0.2-0.2,0.3-0.4,0.3-0.7v-9h9c0.6,0,1-0.4,1-1 C733.8,181.2,733.7,180.9,733.5,180.7L733.5,180.7z M695.7,179l-10,10v-7.6c0-0.6-0.4-1-1-1H677l8.7-8.7 C688.3,175.1,691.7,177.6,695.7,179z M682.6,157.4c0-11.6,9.4-21.1,21.1-21.1s21.1,9.4,21.1,21.1s-9.4,21.1-21.1,21.1l0,0 C692,178.4,682.6,169,682.6,157.4L682.6,157.4z M722.7,180.5c-0.6,0-1,0.4-1,1v7.6l-10-10c1-0.4,2-0.8,2.9-1.3 c2.7-1.5,5.1-3.5,7.1-5.9l8.7,8.7h-7.7V180.5z"></path> </g> </svg> 