<?xml version="1.0" encoding="UTF-8"?> <!-- Generator: Adobe Illustrator 24.1.0, SVG Export Plug-In . SVG Version: 6.00 Build 0) --> <svg xmlns="http://www.w3.org/2000/svg" xmlns:xlink="http://www.w3.org/1999/xlink" version="1.1" id="Layer_1" x="0px" y="0px" viewBox="0 0 98.7 99.6" style="enable-background:new 0 0 98.7 99.6;" xml:space="preserve"> <style type="text/css"> .st0{fill:#03F0FF;} .st1{fill:#0F1F40;} </style> <circle id="Ellipse_65" class="st0" cx="49.3" cy="49.8" r="48.5"></circle> <g> <path class="st1" d="M77.3,43.4c-1.1-1.1-1.6-2.6-1.3-4.1l0.2-1.4c0.6-4.2-2.2-8-6.4-8.8l-1.4-0.2c-1.5-0.3-2.8-1.2-3.5-2.6 l-0.7-1.2c-2-3.7-6.5-5.2-10.3-3.3l-1.3,0.6c-1.4,0.7-3,0.7-4.4,0l-1.3-0.6c-3.8-1.9-8.3-0.4-10.3,3.3l-0.7,1.2 c-0.7,1.4-2,2.3-3.5,2.6L31,29.1c-4.2,0.7-7,4.6-6.4,8.8l0.2,1.4c0.2,1.5-0.3,3-1.3,4.1l-1,1c-2.9,3-2.9,7.8,0,10.8l1,1 c1.1,1.1,1.6,2.6,1.3,4.1l-0.2,1.4c-0.6,4.2,2.2,8,6.4,8.8l1.4,0.2c1.5,0.3,2.8,1.2,3.5,2.6l0.7,1.2c1.4,2.6,4.1,4.1,6.9,4.1 c1.2,0,2.3-0.3,3.4-0.8l1.3-0.6c1.4-0.7,3-0.7,4.4,0l1.3,0.6c3.8,1.9,8.3,0.4,10.3-3.3l0.7-1.2c0.7-1.4,2-2.3,3.5-2.6l1.4-0.2 c4.2-0.7,7-4.6,6.4-8.8L76,60.3c-0.2-1.5,0.3-3,1.3-4.1l1-1c2.9-3,2.9-7.8,0-10.8L77.3,43.4z M76.2,53.3l-1,1 c-1.7,1.7-2.5,4.1-2.1,6.5l0.2,1.4c0.4,2.7-1.4,5.1-4.1,5.6L67.8,68c-2.4,0.4-4.4,1.9-5.5,4l-0.7,1.2c-1.3,2.4-4.1,3.3-6.6,2.1 l-1.3-0.6c-2.2-1.1-4.7-1.1-6.8,0l-1.3,0.6c-2.4,1.2-5.3,0.2-6.6-2.1L38.3,72c-1.1-2.1-3.2-3.6-5.5-4l-1.4-0.2 c-2.7-0.5-4.4-2.9-4.1-5.6l0.2-1.4c0.3-2.4-0.4-4.8-2.1-6.5l-1-1c-1.9-1.9-1.9-5,0-6.9l1-1c1.7-1.7,2.5-4.1,2.1-6.5l-0.2-1.4 c-0.4-2.7,1.4-5.1,4.1-5.6l1.4-0.2c2.4-0.4,4.4-1.9,5.5-4l0.7-1.2c0.9-1.7,2.6-2.6,4.4-2.6c0.7,0,1.5,0.2,2.2,0.5l1.3,0.6 c2.2,1.1,4.7,1.1,6.8,0l1.3-0.6c2.4-1.2,5.3-0.2,6.6,2.1l0.7,1.2c1.1,2.1,3.2,3.6,5.5,4l1.4,0.2c2.7,0.5,4.4,2.9,4.1,5.6l-0.2,1.4 c-0.3,2.4,0.4,4.8,2.1,6.5l1,1C78.1,48.3,78.1,51.4,76.2,53.3L76.2,53.3z"></path> <path class="st1" d="M61.7,38.6c-0.6-0.6-1.4-0.6-2,0L39.2,59.1c-0.6,0.6-0.6,1.4,0,2c0.3,0.3,0.6,0.4,1,0.4s0.7-0.1,1-0.4 l20.5-20.5C62.2,40.1,62.2,39.2,61.7,38.6L61.7,38.6z"></path> <path class="st1" d="M44.7,46.1c1.5,0,3.1-0.6,4.2-1.8c2.3-2.3,2.3-6.1,0-8.5s-6.1-2.3-8.5,0c-1.1,1.1-1.8,2.6-1.8,4.2 c0,1.6,0.6,3.1,1.8,4.2C41.6,45.5,43.2,46.1,44.7,46.1L44.7,46.1z M42.5,37.9c0.6-0.6,1.4-0.9,2.2-0.9s1.6,0.3,2.2,0.9 c1.2,1.2,1.2,3.3,0,4.5s-3.3,1.2-4.5,0c-0.6-0.6-0.9-1.4-0.9-2.2S41.9,38.5,42.5,37.9z"></path> <path class="st1" d="M51.9,55.3c-2.3,2.3-2.3,6.1,0,8.5c1.2,1.2,2.7,1.8,4.2,1.8s3.1-0.6,4.2-1.8c1.1-1.1,1.8-2.6,1.8-4.2 c0-1.6-0.6-3.1-1.8-4.2C58.1,53,54.3,53,51.9,55.3z M58.4,61.8c-1.2,1.2-3.3,1.2-4.5,0s-1.2-3.3,0-4.5c0.6-0.6,1.4-0.9,2.2-0.9 s1.6,0.3,2.2,0.9c0.6,0.6,0.9,1.4,0.9,2.2C59.4,60.4,59,61.2,58.4,61.8z"></path> </g> </svg> 