<?xml version="1.0" encoding="UTF-8"?> <!-- Generator: Adobe Illustrator 24.1.0, SVG Export Plug-In . SVG Version: 6.00 Build 0) --> <svg xmlns="http://www.w3.org/2000/svg" xmlns:xlink="http://www.w3.org/1999/xlink" version="1.1" id="Layer_1" x="0px" y="0px" viewBox="0 0 60.1 63.3" style="enable-background:new 0 0 60.1 63.3;" xml:space="preserve"> <g> <g> <path d="M37.5,16.9c-0.1-0.3-0.4-0.6-0.7-0.6l-4-0.6l-1.8-3.6c-0.2-0.3-0.5-0.5-0.8-0.5s-0.7,0.2-0.8,0.5l-1.8,3.6l-4,0.6 c-0.3,0.1-0.6,0.3-0.7,0.6c-0.1,0.3,0,0.7,0.2,0.9l2.9,2.8l-0.7,4c-0.1,0.3,0.1,0.7,0.4,0.9c0.3,0.2,0.7,0.2,1,0.1l3.6-1.9 l3.6,1.9c0.3,0.2,0.7,0.1,1-0.1c0.3-0.2,0.4-0.6,0.4-0.9l-0.7-4l2.9-2.8C37.5,17.6,37.6,17.3,37.5,16.9z M32.7,19.7 c-0.2,0.2-0.3,0.5-0.3,0.8l0.4,2.6l-2.3-1.2c-0.3-0.1-0.6-0.1-0.9,0l-2.3,1.2l0.4-2.6c0.1-0.3,0-0.6-0.3-0.8l-1.9-1.8l2.6-0.4 c0.3,0,0.6-0.2,0.7-0.5l1.2-2.4l1.2,2.4c0.1,0.3,0.4,0.5,0.7,0.5l2.6,0.4L32.7,19.7z"></path> </g> </g> <path d="M57.5,4.2h-7.2V2.8c0-0.8-0.6-1.4-1.4-1.4H11.4c-0.8,0-1.4,0.6-1.4,1.4v1.4H2.7c-0.8,0-1.4,0.6-1.4,1.4v8.7 c0,5.1,3.8,9.3,8.9,10c1.1,7.8,6.6,14.3,14.2,16.6v7.4c-5.2,1.8-8.6,6.7-8.7,12.2c0,0.8,0.6,1.4,1.4,1.4h26c0.8,0,1.4-0.6,1.4-1.4 c0-5.5-3.5-10.4-8.7-12.2v-7.4c7.6-2.3,13.1-8.8,14.2-16.6c5-0.6,8.8-4.9,8.9-10V5.6C59,4.8,58.3,4.2,57.5,4.2z M4.1,14.3V7.1h5.8 v14.3C6.6,20.7,4.1,17.7,4.1,14.3z M41.7,59H18.6c0.7-5,5-8.7,10-8.7h2.9C36.5,50.3,40.9,54,41.7,59z M33,41.7v5.8h-5.8v-5.8H33z M30.1,38.8c-9.6,0-17.3-7.8-17.3-17.3V4.2h34.6v17.3C47.4,31.1,39.7,38.8,30.1,38.8z M56.1,14.3c0,3.4-2.4,6.4-5.8,7.1V7.1h5.8 V14.3z"></path> </svg> 