<?xml version="1.0" encoding="UTF-8"?> <!-- Generator: Adobe Illustrator 24.1.0, SVG Export Plug-In . SVG Version: 6.00 Build 0) --> <svg xmlns="http://www.w3.org/2000/svg" xmlns:xlink="http://www.w3.org/1999/xlink" version="1.1" id="Layer_1" x="0px" y="0px" viewBox="0 0 67.8 75.5" style="enable-background:new 0 0 67.8 75.5;" xml:space="preserve"> <style type="text/css"> .st0{fill:#FFFFFF;stroke:#00F5BD;stroke-width:3;stroke-miterlimit:10;} .st1{fill:#0F1F40;} .st2{fill:none;stroke:#000000;stroke-width:3.1369;stroke-linecap:round;stroke-linejoin:round;stroke-miterlimit:10;} .st3{fill:none;stroke:#000000;stroke-width:3.1369;stroke-linecap:round;stroke-miterlimit:10;} .st4{fill:none;stroke:#000000;stroke-width:2.0912;stroke-linecap:round;stroke-linejoin:round;stroke-miterlimit:10;} .st5{stroke:#000000;stroke-width:0.6971;stroke-miterlimit:10;} .st6{fill:#00F5BD;} .st7{fill:#00F0FF;} .st8{fill:#00F0FF;stroke:#00F0FF;stroke-width:2;stroke-miterlimit:10;} .st9{fill:#0F1536;} .st10{fill:#0F1536;stroke:#FFFFFF;stroke-width:0.7647;} .st11{fill:none;stroke:#0F1F40;stroke-width:1.5362;stroke-linecap:round;stroke-linejoin:round;stroke-miterlimit:10;} .st12{fill:none;} .st13{fill:none;stroke:#0F1F40;stroke-width:1.9669;stroke-linecap:round;stroke-linejoin:round;stroke-miterlimit:10;} .st14{fill:none;stroke:#0F1F40;stroke-width:1.8435;stroke-linecap:round;stroke-linejoin:round;stroke-miterlimit:10;} .st15{fill:#0F1F40;stroke:#0F1F40;stroke-width:0.5691;stroke-miterlimit:10;} .st16{fill:none;stroke:#0F1F40;stroke-width:2.4442;stroke-linecap:round;stroke-linejoin:round;stroke-miterlimit:10;} .st17{fill:none;stroke:#0F1F40;stroke-width:2.4881;stroke-linecap:round;stroke-linejoin:round;stroke-miterlimit:10;} .st18{fill:none;stroke:#0F1F40;stroke-width:1.2495;stroke-linecap:round;stroke-linejoin:round;stroke-miterlimit:10;} .st19{fill:none;stroke:#5CE5C6;stroke-width:1.2495;stroke-miterlimit:10;} .st20{fill:#32E13C;} .st21{fill:#0AEEFD;} .st22{fill:#92D050;} .st23{fill:#0F1E40;stroke:#92D050;stroke-miterlimit:10;} .st24{fill:#0F1F40;stroke:#0F1E40;stroke-miterlimit:10;} .st25{fill:#0F1F40;stroke:#0F1E40;stroke-width:1.6173;stroke-miterlimit:10;} .st26{fill:#0F1E40;} .st27{fill:none;stroke:#0F1E40;stroke-width:1.8127;stroke-linecap:round;stroke-linejoin:round;stroke-miterlimit:10;} .st28{fill:none;stroke:#0F1E40;stroke-width:1.4619;stroke-linecap:round;stroke-linejoin:round;stroke-miterlimit:10;} .st29{fill:none;stroke:#0F1E40;stroke-width:1.0632;stroke-linecap:round;stroke-linejoin:round;stroke-miterlimit:10;} .st30{fill:none;stroke:#0F1E40;stroke-width:1.619;stroke-linecap:round;stroke-linejoin:round;stroke-miterlimit:10;} .st31{fill:none;stroke:#0F1E40;stroke-width:2;stroke-linecap:round;stroke-linejoin:round;stroke-miterlimit:10;} .st32{fill:#0F1F40;stroke:#0F1E40;stroke-width:0.75;stroke-miterlimit:10;} .st33{fill:#FFFFFF;stroke:#92D050;stroke-width:3;stroke-miterlimit:10;} .st34{fill:#FFFFFF;stroke:#92D050;stroke-width:1.25;stroke-miterlimit:10;} .st35{fill:none;stroke:#0F1F40;stroke-width:3;stroke-linecap:round;stroke-linejoin:round;stroke-miterlimit:10;} .st36{fill:none;stroke:#000000;stroke-width:2.5;stroke-linecap:round;stroke-linejoin:round;stroke-miterlimit:10;} .st37{fill:none;stroke:#000000;stroke-width:2.5;stroke-miterlimit:10;} .st38{fill:none;stroke:#00F0FF;stroke-width:2.7112;stroke-linecap:round;stroke-linejoin:round;stroke-miterlimit:10;} .st39{fill:none;stroke:#00F0FF;stroke-width:4;} .st40{fill:none;stroke:#00F0FF;stroke-width:4;stroke-linecap:round;stroke-linejoin:round;} .st41{fill:none;stroke:#0E0E0E;stroke-width:3;} </style> <g id="Idea"> <path d="M49,17c-4.7-4.2-10.9-6.2-17.2-5.5c-12.1,1.4-20.7,12.3-19.4,24.4c0.8,7.2,5.1,13.5,11.5,16.9v13c0,1.4,1.2,2.6,2.6,2.6 h2.6V71c0,1.4,1.2,2.6,2.6,2.6H37c1.4,0,2.6-1.2,2.6-2.6v-2.6h2.6c1.4,0,2.6-1.2,2.6-2.6v-13c10.7-5.7,14.8-19,9.1-29.7 C52.6,20.8,51,18.7,49,17z M42.1,58v2.6H26.6V58H42.1z M37,71h-5.2v-2.6H37L37,71z M38.3,65.8H26.6v-2.6h15.5v2.6H38.3z M42.9,50.9 c-0.4,0.2-0.7,0.7-0.7,1.2v3.4h-6.5v-5.9l3.5-3.5c0.5-0.5,0.5-1.3,0-1.8c-0.5-0.5-1.3-0.5-1.8,0l-3,3l-3-3c-0.5-0.5-1.3-0.5-1.8,0 c-0.5,0.5-0.5,1.3,0,1.8l3.5,3.5v5.9h-6.5V52c0-0.5-0.3-0.9-0.7-1.2c-9.6-4.7-13.7-16.3-9-25.9c2.9-6,8.7-10,15.3-10.8 c0.7-0.1,1.5-0.1,2.3-0.1c4.8,0,9.4,1.7,12.9,4.9c8,7.1,8.7,19.4,1.5,27.4C47.2,48.2,45.1,49.8,42.9,50.9L42.9,50.9z"></path> <path d="M34.4,8.8c0.7,0,1.3-0.6,1.3-1.3V2.3c0-0.7-0.6-1.3-1.3-1.3s-1.3,0.6-1.3,1.3v5.2C33.1,8.2,33.7,8.8,34.4,8.8z"></path> <path d="M15.1,16c0.5,0.5,1.3,0.5,1.8,0c0.5-0.5,0.5-1.3,0-1.8c0,0,0,0,0,0l-3.7-3.7c-0.5-0.5-1.3-0.5-1.8,0s-0.5,1.3,0,1.8 c0,0,0,0,0,0L15.1,16z"></path> <path d="M8.5,32.1H3.3c-0.7,0-1.3,0.6-1.3,1.3s0.6,1.3,1.3,1.3h5.2c0.7,0,1.3-0.6,1.3-1.3S9.2,32.1,8.5,32.1z"></path> <path d="M15.1,50.8l-3.7,3.7c-0.5,0.5-0.5,1.3,0,1.8c0.5,0.5,1.3,0.5,1.8,0c0,0,0,0,0,0l3.7-3.7c0.5-0.5,0.5-1.3,0-1.8 C16.4,50.3,15.6,50.3,15.1,50.8L15.1,50.8z"></path> <path d="M55.4,10.5l-3.7,3.7c-0.5,0.5-0.5,1.3,0,1.8c0.5,0.5,1.3,0.5,1.8,0c0,0,0,0,0,0l3.7-3.7c0.5-0.5,0.5-1.3,0-1.8 C56.8,10,56,10,55.4,10.5C55.5,10.5,55.4,10.5,55.4,10.5L55.4,10.5z"></path> <path d="M53.6,50.8c-0.5-0.5-1.3-0.5-1.8,0c-0.5,0.5-0.5,1.3,0,1.8l3.7,3.7c0.5,0.5,1.3,0.5,1.8,0c0.5-0.5,0.5-1.3,0-1.8L53.6,50.8 z"></path> <path d="M65.4,32.1h-5.2c-0.7,0-1.3,0.6-1.3,1.3s0.6,1.3,1.3,1.3h5.2c0.7,0,1.3-0.6,1.3-1.3S66.2,32.1,65.4,32.1z"></path> </g> </svg> 